<svg width="32" height="33" viewBox="0 0 32 33" fill="none" xmlns="http://www.w3.org/2000/svg">
<path fill-rule="evenodd" clip-rule="evenodd" d="M14.5 0C6.49329 0 0 6.49329 0 14.5C0 22.5098 6.49329 29 14.5 29C22.5098 29 29 22.5067 29 14.5C29.0031 6.49329 22.5098 0 14.5 0Z" fill="#69E2DC"/>
<path fill-rule="evenodd" clip-rule="evenodd" d="M15.6677 15.1828L20.7532 20.2683C21.1685 20.6836 21.1155 21.3618 20.6534 21.7229C19.0372 22.9947 17.0404 23.6849 14.9849 23.6818C9.56227 23.6818 5.23973 18.9846 5.85878 13.4382C6.33322 9.19106 9.7935 5.78028 14.0453 5.36036C16.5617 5.11134 18.8999 5.87849 20.6913 7.30142C21.1352 7.65484 21.1549 8.32686 20.7532 8.72706L15.6646 13.8144C15.2884 14.1934 15.29 14.8051 15.6677 15.1828Z" fill="white"/>
<path fill-rule="evenodd" clip-rule="evenodd" d="M25.2238 30.2769C25.9446 30.0075 26.6934 29.8117 27.443 29.6344C28.0423 29.4926 28.6422 29.3627 29.24 29.2085C29.6132 29.1122 29.9854 29.0066 30.3336 28.8409C30.612 28.7085 30.8746 28.5379 31.0907 28.3212C31.3065 28.1044 31.4758 27.8417 31.6024 27.5629C31.7609 27.2144 31.8528 26.8406 31.9164 26.4615C31.9928 26.007 32.0285 25.5449 31.9731 25.0925C31.9176 24.64 31.771 24.1968 31.5718 23.7811C31.3727 23.3651 31.121 22.9767 30.8217 22.6293C30.4224 22.1658 29.9386 21.7753 29.4269 21.4324C28.7866 21.0032 28.1028 20.6483 27.4016 20.3326C26.7002 20.0169 25.9813 19.7405 25.2476 19.5065C24.6603 19.3193 24.0637 19.1593 23.4534 19.0703C22.9965 19.0036 22.5319 18.9768 22.071 19.0234C21.6108 19.0701 21.1545 19.19 20.7422 19.3961C20.3299 19.6022 19.9616 19.8943 19.6478 20.2314C19.3334 20.5688 19.0734 20.9514 18.8571 21.3563C18.6405 21.7616 18.4678 22.1894 18.3363 22.6288C18.2048 23.0683 18.1145 23.5197 18.0607 23.9752C17.989 24.5823 17.9822 25.1964 18.0329 25.8048C18.0964 26.565 18.2496 27.3163 18.4249 28.0624C18.6005 28.8083 18.7981 29.5494 19.0987 30.2529C19.3391 30.8154 19.6452 31.3543 20.0491 31.8176C20.3012 32.1069 20.5916 32.3668 20.9183 32.5705C21.1796 32.7335 21.4641 32.8603 21.763 32.9319C21.9875 32.9857 22.2201 33.008 22.4514 32.9975C22.6825 32.987 22.9124 32.9435 23.1301 32.8673C23.4197 32.7657 23.6882 32.6059 23.9236 32.4088C24.2184 32.162 24.4616 31.8566 24.6626 31.5293C24.9041 31.1365 25.0847 30.7123 25.2238 30.2769Z" fill="white"/>
<path fill-rule="evenodd" clip-rule="evenodd" d="M22.0491 32.0226L21.6693 31.9012L21.2958 31.683L20.9177 31.3611L20.6064 30.9895L20.3218 30.5474L20.0729 30.046L19.8383 29.4207L19.5577 28.5515L19.2976 27.5858L19.2127 27.232L19.0854 26.4711L19.0357 26.0742L18.9804 25.3338L18.9947 24.5964L19.0854 23.8686L19.2378 23.191L19.3382 22.7652L19.5577 22.1614L19.8237 21.6686L20.4049 20.8803L20.7368 20.5945L21.1003 20.3368L21.4227 20.1745L21.8826 20.0386L22.7093 19.9813L23.4145 20.0549L24.2468 20.2222L25.1733 20.4939L26.1504 20.8427L27.1264 21.2585L27.2195 21.2901L28.1631 21.7595L28.995 22.2696L29.6408 22.7941L29.814 22.9184L30.4203 23.607L30.5553 23.8255L30.8731 24.5602L30.9643 24.8425L31.0262 25.1497L31.0522 25.4642V25.8072L31.0274 26.1073L30.9049 26.721L30.8221 26.9936L30.7202 27.232L30.5781 27.4727L30.4203 27.6712L30.256 27.8065L29.7914 28.0596L29.2484 28.2436L28.4651 28.4489L27.7087 28.6341L26.7999 28.8512L26.1363 29.0325L25.8857 29.0928L25.0263 29.366L24.6213 29.5205L24.4451 29.5853L24.3947 29.8313L24.2906 30.1336L24.1978 30.3906L24.0967 30.6102L23.854 31.0686L23.5576 31.4492L23.2368 31.7313L22.7928 31.964L22.4169 32.0373L22.0491 32.0226Z" fill="url(#paint0_linear)"/>
<path d="M24.0664 23.4611L23.9616 23.6058L24.0506 24.3376L24.1329 24.1672L24.0664 23.4611Z" fill="#FBF100"/>
<path d="M22.7094 19.9722L22.1508 20.0065L22.4265 20.105L22.9163 20.0708L22.7094 19.9722Z" fill="#A40000"/>
<path d="M23.9684 22.7756L23.8307 22.8958L23.9616 23.6057L24.0663 23.461L23.9684 22.7756Z" fill="#FFAE00"/>
<path d="M22.9163 20.0708L22.4266 20.105L22.7027 20.3228L23.1233 20.2841L22.9163 20.0708Z" fill="#A80000"/>
<path d="M23.8415 22.1303L23.6612 22.2279L23.8307 22.8959L23.9684 22.7757L23.8415 22.1303Z" fill="#FF7300"/>
<path d="M23.1231 20.284L22.7025 20.3228L22.9714 20.6544L23.3247 20.6068L23.1231 20.284Z" fill="#B60000"/>
<path d="M23.6889 21.5428L23.4575 21.6204L23.6611 22.2277L23.8414 22.1302L23.6889 21.5428Z" fill="#FF3F00"/>
<path d="M23.3248 20.6068L22.9715 20.6545L23.2255 21.0911L23.5151 21.0304L23.3248 20.6068Z" fill="#D60000"/>
<path d="M23.515 21.0302L23.2254 21.0909L23.4574 21.6204L23.6888 21.5428L23.515 21.0302Z" fill="#FF1300"/>
<path d="M25.1917 25.7555L24.7071 25.8573L24.6835 26.4035L25.1866 26.2719L25.1917 25.7555Z" fill="#16FFE1"/>
<path d="M25.1961 25.1958L24.7202 25.2639L24.7072 25.8574L25.1918 25.7556L25.1961 25.1958Z" fill="#4DFFAA"/>
<path d="M25.1996 24.6071L24.7224 24.6386L24.7204 25.2639L25.1962 25.1958L25.1996 24.6071Z" fill="#80FF77"/>
<path d="M25.2016 24.0052L24.7129 23.998L24.7222 24.6387L25.1994 24.6072L25.2016 24.0052Z" fill="#B7FF40"/>
<path d="M25.2028 23.4062L24.6926 23.3593L24.7129 23.9981L25.2017 24.0053L25.2028 23.4062Z" fill="#EBFF0C"/>
<path d="M25.1733 20.4814L24.2468 20.2149L24.3161 20.3025L25.1799 20.5593L25.1733 20.4814Z" fill="#ED0400"/>
<path d="M25.2028 22.8262L24.6617 22.7399L24.6926 23.3593L25.2028 23.4061L25.2028 22.8262Z" fill="#FFCC00"/>
<path d="M25.1797 20.5595L24.3159 20.3027L24.3849 20.494L25.1858 20.7347L25.1797 20.5595Z" fill="#F10800"/>
<path d="M25.2016 22.2815L24.6209 22.1572L24.6617 22.7399L25.2028 22.8262L25.2016 22.2815Z" fill="#FF9800"/>
<path d="M25.1859 20.7346L24.385 20.4939L24.4517 20.7841L25.1912 21.0028L25.1859 20.7346Z" fill="#FF1300"/>
<path d="M25.1993 21.787L24.5715 21.6274L24.621 22.1571L25.2017 22.2814L25.1993 21.787Z" fill="#FF6C00"/>
<path d="M25.1911 21.0027L24.4517 20.784L24.5144 21.1654L25.1956 21.3568L25.1911 21.0027Z" fill="#FF2900"/>
<path d="M25.1958 21.357L24.5146 21.1656L24.5715 21.6276L25.1993 21.7872L25.1958 21.357Z" fill="#FF4700"/>
<path d="M24.7074 25.8575L24.3504 26.0128L24.3064 26.5871L24.6838 26.4037L24.7074 25.8575Z" fill="#13FCE4"/>
<path d="M24.7202 25.264L24.373 25.3878L24.3502 26.0126L24.7072 25.8574L24.7202 25.264Z" fill="#49FFAD"/>
<path d="M24.7223 24.6386L24.3502 24.7286L24.3731 25.3878L24.7203 25.264L24.7223 24.6386Z" fill="#80FF77"/>
<path d="M24.713 23.998L24.3525 24.0524L24.3739 24.7286L24.7223 24.6387L24.713 23.998Z" fill="#BAFF3C"/>
<path d="M24.6925 23.3593L24.3092 23.3778L24.3524 24.0526L24.7129 23.9981L24.6925 23.3593Z" fill="#F1FC06"/>
<path d="M24.2467 20.215L23.4146 20.0428L23.5515 20.1375L24.316 20.3026L24.2467 20.215Z" fill="#D10000"/>
<path d="M24.6616 22.7398L24.2451 22.7227L24.3092 23.3775L24.6926 23.3591L24.6616 22.7398Z" fill="#FFC100"/>
<path d="M24.3162 20.3025L23.5517 20.1374L23.6886 20.3417L24.3852 20.4939L24.3162 20.3025Z" fill="#D60000"/>
<path d="M24.6211 22.1572L24.1621 22.1062L24.2454 22.7228L24.6619 22.7399L24.6211 22.1572Z" fill="#FF8900"/>
<path d="M24.385 20.4939L23.6884 20.3417L23.8215 20.6503L24.4518 20.7841L24.385 20.4939Z" fill="#E40000"/>
<path d="M24.5714 21.6275L24.0617 21.5451L24.162 22.1062L24.621 22.1572L24.5714 21.6275Z" fill="#FF5D00"/>
<path d="M24.4518 20.7843L23.8216 20.6505L23.9472 21.0554L24.5145 21.1656L24.4518 20.7843Z" fill="#FF1300"/>
<path d="M24.5146 21.1654L23.9472 21.0552L24.0617 21.545L24.5715 21.6274L24.5146 21.1654Z" fill="#FF3400"/>
<path d="M25.777 25.7084L25.1919 25.7558L25.1868 26.2722L25.788 26.1939L25.777 25.7084Z" fill="#1CFFDB"/>
<path d="M25.7738 25.1837L25.1962 25.1958L25.1919 25.7556L25.777 25.7082L25.7738 25.1837Z" fill="#50FFA7"/>
<path d="M25.7788 24.6337L25.1996 24.6072L25.1963 25.1959L25.774 25.1838L25.7788 24.6337Z" fill="#80FF77"/>
<path d="M25.7913 24.0725L25.2018 24.0051L25.1995 24.6071L25.7786 24.6336L25.7913 24.0725Z" fill="#B4FF43"/>
<path d="M25.8117 23.5157L25.203 23.4062L25.2019 24.0053L25.7914 24.0727L25.8117 23.5157Z" fill="#E4FF13"/>
<path d="M25.8392 22.9776L25.2029 22.8261L25.203 23.406L25.8117 23.5155L25.8392 22.9776Z" fill="#FFD700"/>
<path d="M26.1505 20.8314L25.1733 20.4816L25.1799 20.5595L26.1016 20.8974L26.1505 20.8314Z" fill="#FF1E00"/>
<path d="M25.873 22.4736L25.2018 22.2814L25.203 22.8261L25.8392 22.9776L25.873 22.4736Z" fill="#FFA700"/>
<path d="M26.1018 20.8973L25.1801 20.5593L25.1861 20.7346L26.0522 21.0541L26.1018 20.8973Z" fill="#FF1E00"/>
<path d="M25.9121 22.0176L25.1991 21.7871L25.2015 22.2814L25.8728 22.4737L25.9121 22.0176Z" fill="#FF7E00"/>
<path d="M26.0522 21.0542L25.1861 20.7346L25.1914 21.0029L26.0032 21.2979L26.0522 21.0542Z" fill="#FF2900"/>
<path d="M25.9559 21.622L25.1956 21.3569L25.1991 21.7871L25.9121 22.0176L25.9559 21.622Z" fill="#FF5900"/>
<path d="M26.0031 21.2978L25.1914 21.0027L25.1959 21.3568L25.9561 21.6219L26.0031 21.2978Z" fill="#FF3B00"/>
<path d="M24.3716 29.5932L25.1579 29.2959L25.0011 29.3792L24.2034 29.6827L24.3716 29.5932Z" fill="#00CCFF"/>
<path d="M24.5253 29.4573L25.3014 29.1697L25.158 29.296L24.3716 29.5932L24.5253 29.4573Z" fill="#00DCFE"/>
<path d="M24.6604 29.2782L25.4277 29.0033L25.3013 29.1695L24.5252 29.4572L24.6604 29.2782Z" fill="#09F0EE"/>
<path d="M24.7736 29.0606L25.5338 28.8013L25.4277 29.0035L24.6604 29.2784L24.7736 29.0606Z" fill="#1CFFDB"/>
<path d="M24.862 28.8094L25.6169 28.5684L25.534 28.8013L24.7738 29.0606L24.862 28.8094Z" fill="#33FFC4"/>
<path d="M24.9227 28.5312L25.6744 28.3103L25.6169 28.5682L24.862 28.8093L24.9227 28.5312Z" fill="#4DFFAA"/>
<path d="M24.9542 28.2332L25.7048 28.0341L25.6743 28.3104L24.9227 28.5313L24.9542 28.2332Z" fill="#63FF94"/>
<path d="M24.9557 27.9229L25.7073 27.7466L25.7048 28.0341L24.9543 28.2332L24.9557 27.9229Z" fill="#7DFF7A"/>
<path d="M24.9265 27.6085L25.6813 27.4553L25.7071 27.7466L24.9555 27.9229L24.9265 27.6085Z" fill="#97FF60"/>
<path d="M24.8678 27.2981L25.628 27.1679L25.6814 27.4553L24.9265 27.6084L24.8678 27.2981Z" fill="#B1FF46"/>
<path d="M24.7809 27.0002L25.5483 26.8921L25.628 27.1679L24.8679 27.2981L24.7809 27.0002Z" fill="#C7FF30"/>
<path d="M24.6677 26.7227L25.4443 26.6353L25.5482 26.8922L24.7808 27.0003L24.6677 26.7227Z" fill="#DEFF19"/>
<path d="M23.6463 25.8414L24.4989 25.8198L24.6742 25.8482L23.835 25.872L23.6463 25.8414Z" fill="#FFCC00"/>
<path d="M24.5318 26.4731L25.319 26.4043L25.4445 26.6353L24.668 26.7228L24.5318 26.4731Z" fill="#F1FC06"/>
<path d="M23.835 25.872L24.6742 25.8481L24.8484 25.9233L24.0229 25.9532L23.835 25.872Z" fill="#FFCC00"/>
<path d="M24.376 26.2578L25.1751 26.205L25.3189 26.4041L24.5317 26.4729L24.376 26.2578Z" fill="#FFEA00"/>
<path d="M24.0229 25.9532L24.8484 25.9232L25.0169 26.0433L24.2048 26.0829L24.0229 25.9532Z" fill="#FFD000"/>
<path d="M24.2047 26.083L25.0167 26.0433L25.175 26.205L24.3758 26.2577L24.2047 26.083Z" fill="#FFDB00"/>
<path d="M24.3526 24.0523L24.1329 24.167L24.1664 24.8744L24.374 24.7285L24.3526 24.0523Z" fill="#BEFF39"/>
<path d="M24.3095 23.3775L24.0665 23.4609L24.133 24.167L24.3527 24.0523L24.3095 23.3775Z" fill="#F8F500"/>
<path d="M23.4146 20.0428L22.7093 19.9722L22.9161 20.0707L23.5515 20.1375L23.4146 20.0428Z" fill="#BB0000"/>
<path d="M24.2453 22.7227L23.9684 22.7756L24.0664 23.4609L24.3094 23.3776L24.2453 22.7227Z" fill="#FFB900"/>
<path d="M23.5514 20.1375L22.916 20.0708L23.1231 20.2841L23.6884 20.3418L23.5514 20.1375Z" fill="#BF0000"/>
<path d="M24.1618 22.106L23.8413 22.1301L23.9683 22.7755L24.2451 22.7227L24.1618 22.106Z" fill="#FF7E00"/>
<path d="M23.6886 20.3418L23.1233 20.2841L23.3249 20.6069L23.8217 20.6505L23.6886 20.3418Z" fill="#CD0000"/>
<path d="M24.0617 21.5451L23.6891 21.543L23.8415 22.1303L24.162 22.1063L24.0617 21.5451Z" fill="#FF4E00"/>
<path d="M23.8216 20.6505L23.3248 20.6068L23.5152 21.0303L23.9472 21.0553L23.8216 20.6505Z" fill="#E80000"/>
<path d="M23.9471 21.0553L23.5151 21.0304L23.6889 21.543L24.0616 21.5451L23.9471 21.0553Z" fill="#FF2200"/>
<path d="M23.8858 29.7628L24.5254 29.4572L24.3717 29.5931L23.7192 29.9105L23.8858 29.7628Z" fill="#00D0FF"/>
<path d="M24.032 29.568L24.6604 29.2782L24.5251 29.4573L23.8855 29.7628L24.032 29.568Z" fill="#00E4F8"/>
<path d="M24.1546 29.3307L24.7738 29.0603L24.6605 29.2781L24.0322 29.5679L24.1546 29.3307Z" fill="#16FFE1"/>
<path d="M24.2496 29.0574L24.862 28.8094L24.7738 29.0605L24.1546 29.331L24.2496 29.0574Z" fill="#2CFFCA"/>
<path d="M24.3147 28.7542L24.9227 28.5313L24.862 28.8094L24.2496 29.0574L24.3147 28.7542Z" fill="#46FFB1"/>
<path d="M24.348 28.4291L24.9542 28.2331L24.9227 28.5312L24.3147 28.7542L24.348 28.4291Z" fill="#63FF94"/>
<path d="M24.3483 28.0905L24.9555 27.9227L24.9542 28.233L24.3479 28.429L24.3483 28.0905Z" fill="#7DFF7A"/>
<path d="M24.3156 27.7474L24.9265 27.6084L24.9555 27.9228L24.3482 28.0906L24.3156 27.7474Z" fill="#9AFF5D"/>
<path d="M24.2505 27.4088L24.8678 27.2981L24.9265 27.6084L24.3155 27.7475L24.2505 27.4088Z" fill="#B7FF40"/>
<path d="M24.1548 27.0834L24.7809 27.0001L24.8679 27.298L24.2507 27.4086L24.1548 27.0834Z" fill="#D1FF26"/>
<path d="M24.0308 26.7802L24.668 26.7226L24.7811 27.0001L24.155 27.0833L24.0308 26.7802Z" fill="#E7FF0F"/>
<path d="M23.8814 26.5074L24.5317 26.4729L24.6679 26.7226L24.0307 26.7802L23.8814 26.5074Z" fill="#FBF100"/>
<path d="M23.7111 26.2725L24.376 26.2578L24.5317 26.473L23.8815 26.5075L23.7111 26.2725Z" fill="#FFDB00"/>
<path d="M19.491 28.3393L19.5995 28.6924L19.417 27.998L19.3046 27.6301L19.491 28.3393Z" fill="#00B4FF"/>
<path d="M19.2068 27.232L19.3074 27.6431L19.417 27.998L19.2974 27.2785L19.1279 26.6773L19.2068 27.232Z" fill="#16FFE1"/>
<path d="M19.1823 26.895L19.2975 27.2783L19.2445 26.5513L19.1279 26.1521L19.1823 26.895Z" fill="#56FFA0"/>
<path d="M19.1278 26.152L19.2444 26.5512L19.2601 25.8349L19.1433 25.4198L19.1278 26.152Z" fill="#97FF60"/>
<path d="M19.1435 25.4197L19.2603 25.8348L19.3451 25.1475L19.2295 24.7169L19.1435 25.4197Z" fill="#D4FF23"/>
<path d="M19.2293 24.7169L19.3449 25.1475L19.4975 24.5073L19.3844 24.0621L19.2293 24.7169Z" fill="#FFD700"/>
<path d="M19.3845 24.0621L19.4976 24.5074L19.7148 23.9316L19.6056 23.4729L19.3845 24.0621Z" fill="#FF9400"/>
<path d="M19.6057 23.4729L19.7149 23.9317L19.9917 23.4363L19.8877 22.9656L19.6057 23.4729Z" fill="#FF5900"/>
<path d="M19.8875 22.9657L19.9915 23.4364L20.3215 23.0357L20.2238 22.5551L19.8875 22.9657Z" fill="#FF2500"/>
<path d="M24.5761 26.3089L24.5872 26.7153L24.6569 27.4617L24.6473 27.0719L24.5761 26.3089Z" fill="#C1FF36"/>
<path d="M20.2239 22.5551L20.3216 23.0358L20.6962 22.7415L20.6058 22.2532L20.2239 22.5551Z" fill="#DF0000"/>
<path d="M24.4329 25.5532L24.4469 25.9761L24.5872 26.7153L24.5762 26.3089L24.4329 25.5532Z" fill="#FFEA00"/>
<path d="M20.6059 22.2531L20.6963 22.7415L21.1058 22.5629L21.0235 22.0694L20.6059 22.2531Z" fill="#BB0000"/>
<path d="M24.2208 24.8259L24.239 25.2645L24.4469 25.9761L24.433 25.5533L24.2208 24.8259Z" fill="#FFA700"/>
<path d="M21.0234 22.0693L21.1057 22.5628L21.5392 22.5057L21.4656 22.0099L21.0234 22.0693Z" fill="#9F0000"/>
<path d="M23.9451 24.1471L23.9689 24.6003L24.2392 25.2646L24.2209 24.826L23.9451 24.1471Z" fill="#FF6C00"/>
<path d="M21.4657 22.0098L21.5393 22.5056L21.985 22.5726L21.9204 22.0772L21.4657 22.0098Z" fill="#920000"/>
<path d="M23.6127 23.5359L23.6433 24.0021L23.9688 24.6002L23.9449 24.147L23.6127 23.5359Z" fill="#FF3400"/>
<path d="M21.9202 22.0774L21.9848 22.5728L22.4303 22.7625L22.3748 22.2705L21.9202 22.0774Z" fill="#960000"/>
<path d="M23.2331 23.01L23.2714 23.4872L23.6433 24.0022L23.6127 23.5359L23.2331 23.01Z" fill="#F10800"/>
<path d="M22.3748 22.2705L22.4303 22.7625L22.8632 23.0702L22.8165 22.5843L22.3748 22.2705Z" fill="#A40000"/>
<path d="M22.8165 22.5843L22.8632 23.0702L23.2713 23.4874L23.233 23.0101L22.8165 22.5843Z" fill="#C40000"/>
<path d="M19.0828 26.4878L19.1824 26.8951L19.128 26.1522L19.0274 25.7354L19.0828 26.4878Z" fill="#53FFA4"/>
<path d="M19.0274 25.7353L19.1279 26.1521L19.1435 25.4199L19.0427 24.9935L19.0274 25.7353Z" fill="#97FF60"/>
<path d="M19.0426 24.9935L19.1434 25.4199L19.2294 24.7171L19.129 24.2813L19.0426 24.9935Z" fill="#D7FF1F"/>
<path d="M19.1289 24.2812L19.2292 24.717L19.3843 24.0621L19.2853 23.6173L19.1289 24.2812Z" fill="#FFD300"/>
<path d="M19.2853 23.6174L19.3844 24.0622L19.6054 23.4729L19.5084 23.0198L19.2853 23.6174Z" fill="#FF9100"/>
<path d="M19.5085 23.0198L19.6056 23.4729L19.8876 22.9657L19.7932 22.5051L19.5085 23.0198Z" fill="#FF5200"/>
<path d="M19.7932 22.5051L19.8876 22.9657L20.2239 22.555L20.1328 22.0882L19.7932 22.5051Z" fill="#FF1E00"/>
<path d="M20.1326 22.0881L20.2237 22.555L20.6056 22.2531L20.5184 21.7813L20.1326 22.0881Z" fill="#D60000"/>
<path d="M20.5186 21.7812L20.6058 22.2531L21.0234 22.0694L20.9406 21.5941L20.5186 21.7812Z" fill="#AD0000"/>
<path d="M24.1732 24.3806L24.2207 24.8258L24.4329 25.5532L24.3879 25.1172L24.1732 24.3806Z" fill="#FFA300"/>
<path d="M20.9405 21.594L21.0233 22.0693L21.4655 22.0099L21.3874 21.5327L20.9405 21.594Z" fill="#920000"/>
<path d="M23.8943 23.6934L23.9449 24.1472L24.2208 24.826L24.1733 24.3808L23.8943 23.6934Z" fill="#FF6400"/>
<path d="M21.3875 21.5327L21.4656 22.0099L21.9203 22.0773L21.8471 21.6L21.3875 21.5327Z" fill="#840000"/>
<path d="M23.5582 23.0747L23.6126 23.536L23.9448 24.1471L23.8941 23.6933L23.5582 23.0747Z" fill="#FF2D00"/>
<path d="M21.847 21.6001L21.9202 22.0774L22.3748 22.2704L22.3065 21.7947L21.847 21.6001Z" fill="#890000"/>
<path d="M23.1745 22.5424L23.2332 23.01L23.6128 23.536L23.5584 23.0747L23.1745 22.5424Z" fill="#E40000"/>
<path d="M22.3065 21.7948L22.3747 22.2705L22.8165 22.5843L22.7531 22.1119L22.3065 21.7948Z" fill="#9B0000"/>
<path d="M22.7532 22.1118L22.8166 22.5843L23.233 23.0101L23.1743 22.5425L22.7532 22.1118Z" fill="#BB0000"/>
<path d="M19.1525 26.8213L19.2068 27.232L19.0828 26.4878L19.0282 26.0742L19.1525 26.8213Z" fill="#13FCE4"/>
<path d="M19.4172 27.998L19.5216 28.3203L19.4058 27.6222L19.2976 27.2784L19.4172 27.998Z" fill="#19FFDE"/>
<path d="M19.2976 27.2784L19.4057 27.6222L19.3547 26.917L19.2446 26.5514L19.2976 27.2784Z" fill="#56FFA0"/>
<path d="M19.2445 26.5514L19.3545 26.917L19.3702 26.2225L19.2602 25.8351L19.2445 26.5514Z" fill="#94FF63"/>
<path d="M19.2602 25.835L19.3703 26.2225L19.4531 25.5564L19.345 25.1477L19.2602 25.835Z" fill="#D1FF26"/>
<path d="M19.3451 25.1475L19.4532 25.5562L19.6018 24.9362L19.4976 24.5074L19.3451 25.1475Z" fill="#FFDB00"/>
<path d="M19.4974 24.5074L19.6015 24.9362L19.8129 24.3788L19.7146 23.9317L19.4974 24.5074Z" fill="#FF9C00"/>
<path d="M19.7148 23.9318L19.813 24.379L20.0823 23.8997L19.9917 23.4365L19.7148 23.9318Z" fill="#FF6000"/>
<path d="M19.9917 23.4365L20.0823 23.8998L20.4029 23.5124L20.3216 23.0358L19.9917 23.4365Z" fill="#FF3000"/>
<path d="M24.5872 26.7155L24.5445 27.0856L24.6123 27.809L24.6569 27.4619L24.5872 26.7155Z" fill="#C1FF36"/>
<path d="M20.3214 23.0357L20.4027 23.5123L20.7667 23.2282L20.696 22.7415L20.3214 23.0357Z" fill="#F10800"/>
<path d="M24.4469 25.9763L24.4081 26.3691L24.5445 27.0856L24.5872 26.7155L24.4469 25.9763Z" fill="#FBF100"/>
<path d="M20.696 22.7415L20.7667 23.2283L21.1645 23.0563L21.1055 22.5629L20.696 22.7415Z" fill="#C80000"/>
<path d="M24.2391 25.2646L24.2064 25.6793L24.4083 26.369L24.447 25.9762L24.2391 25.2646Z" fill="#FFAE00"/>
<path d="M21.1056 22.5629L21.1645 23.0563L21.5855 23.0021L21.5392 22.5059L21.1056 22.5629Z" fill="#AD0000"/>
<path d="M23.9687 24.6005L23.9437 25.0356L24.2061 25.6794L24.2389 25.2647L23.9687 24.6005Z" fill="#FF7300"/>
<path d="M21.5392 22.5057L21.5855 23.0019L22.0182 23.0678L21.9848 22.5727L21.5392 22.5057Z" fill="#A40000"/>
<path d="M23.6433 24.0023L23.628 24.4556L23.9439 25.0355L23.9688 24.6004L23.6433 24.0023Z" fill="#FF3F00"/>
<path d="M21.985 22.5728L22.0183 23.0679L22.4507 23.2526L22.4305 22.7625L21.985 22.5728Z" fill="#A40000"/>
<path d="M23.2713 23.4874L23.2669 23.9562L23.6279 24.4556L23.6433 24.0023L23.2713 23.4874Z" fill="#FF1300"/>
<path d="M22.4305 22.7626L22.4508 23.2527L22.8709 23.5515L22.8633 23.0703L22.4305 22.7626Z" fill="#B60000"/>
<path d="M22.8632 23.0701L22.8707 23.5513L23.2668 23.9561L23.2712 23.4873L22.8632 23.0701Z" fill="#D10000"/>
<path d="M19.5995 28.6924L19.6985 28.9943L19.5214 28.3203L19.417 27.998L19.5995 28.6924Z" fill="#00BCFF"/>
<path d="M19.6987 28.9941L19.7757 29.233L19.6053 28.5847L19.5216 28.3201L19.6987 28.9941Z" fill="#00C4FF"/>
<path d="M19.5216 28.3202L19.6054 28.5848L19.4941 27.9135L19.4058 27.6221L19.5216 28.3202Z" fill="#1CFFDB"/>
<path d="M19.4055 27.622L19.4938 27.9135L19.445 27.2357L19.3544 26.9169L19.4055 27.622Z" fill="#56FFA0"/>
<path d="M19.3545 26.9169L19.445 27.2358L19.4604 26.5686L19.3701 26.2224L19.3545 26.9169Z" fill="#94FF63"/>
<path d="M19.3702 26.2225L19.4605 26.5687L19.5405 25.9291L19.453 25.5565L19.3702 26.2225Z" fill="#CEFF29"/>
<path d="M24.4028 29.8313L24.3035 30.0429L24.1126 30.5878L24.2041 30.3983L24.4028 29.8313Z" fill="#00B0FF"/>
<path d="M19.4531 25.5564L19.5406 25.929L19.6839 25.3339L19.6017 24.9363L19.4531 25.5564Z" fill="#FFE200"/>
<path d="M24.54 29.1998L24.435 29.4363L24.3037 30.0429L24.4031 29.8312L24.54 29.1998Z" fill="#0CF4EB"/>
<path d="M19.6016 24.9363L19.6838 25.3338L19.8874 24.7992L19.8129 24.3789L19.6016 24.9363Z" fill="#FFA300"/>
<path d="M24.6106 28.5199L24.5025 28.7831L24.4349 29.4362L24.5399 29.1998L24.6106 28.5199Z" fill="#46FFB1"/>
<path d="M19.8131 24.3788L19.8876 24.7991L20.1469 24.3398L20.0824 23.8996L19.8131 24.3788Z" fill="#FF6C00"/>
<path d="M24.6123 27.809L24.5038 28.1004L24.5024 28.7832L24.6104 28.52L24.6123 27.809Z" fill="#80FF77"/>
<path d="M20.0821 23.8997L20.1466 24.3399L20.4552 23.9689L20.4028 23.5124L20.0821 23.8997Z" fill="#FF3B00"/>
<path d="M24.5446 27.0854L24.4383 27.4055L24.5039 28.1002L24.6124 27.8089L24.5446 27.0854Z" fill="#BEFF39"/>
<path d="M20.4028 23.5122L20.4552 23.9688L20.8054 23.6971L20.7667 23.2281L20.4028 23.5122Z" fill="#FF1300"/>
<path d="M24.4081 26.369L24.3068 26.7177L24.4383 27.4056L24.5445 27.0855L24.4081 26.369Z" fill="#F8F500"/>
<path d="M20.7669 23.2282L20.8056 23.6971L21.1881 23.533L21.1647 23.0562L20.7669 23.2282Z" fill="#DA0000"/>
<path d="M24.2062 25.6792L24.1124 26.0553L24.3068 26.7176L24.4081 26.369L24.2062 25.6792Z" fill="#FFB600"/>
<path d="M21.1646 23.0562L21.188 23.533L21.5928 23.482L21.5855 23.002L21.1646 23.0562Z" fill="#C40000"/>
<path d="M23.9439 25.0354L23.86 25.4372L24.1124 26.0554L24.2062 25.6793L23.9439 25.0354Z" fill="#FF7E00"/>
<path d="M21.5856 23.0019L21.5928 23.4819L22.0088 23.546L22.0182 23.0677L21.5856 23.0019Z" fill="#B60000"/>
<path d="M23.6279 24.4557L23.5562 24.8805L23.86 25.4373L23.9439 25.0355L23.6279 24.4557Z" fill="#FF4A00"/>
<path d="M22.0183 23.0677L22.0088 23.546L22.4244 23.7241L22.4507 23.2525L22.0183 23.0677Z" fill="#BB0000"/>
<path d="M23.267 23.9564L23.2092 24.4008L23.5562 24.8805L23.628 24.4557L23.267 23.9564Z" fill="#FF1E00"/>
<path d="M22.4507 23.2524L22.4244 23.724L22.8283 24.0115L22.8708 23.5513L22.4507 23.2524Z" fill="#C80000"/>
<path d="M22.8708 23.5515L22.8282 24.0118L23.209 24.4008L23.2668 23.9563L22.8708 23.5515Z" fill="#E40000"/>
<path d="M23.4747 29.5533L24.3237 29.2601L24.1631 29.1215L23.3015 29.4037L23.4747 29.5533Z" fill="#00C4FF"/>
<path d="M23.3014 29.4039L24.163 29.1217L24.0143 28.9449L23.1407 29.2132L23.3014 29.4039Z" fill="#00D0FF"/>
<path d="M23.1409 29.2131L24.0145 28.9448L23.8814 28.7344L22.9969 28.9862L23.1409 29.2131Z" fill="#00E0FB"/>
<path d="M22.9968 28.9863L23.8814 28.7345L23.7672 28.4956L22.8729 28.7287L22.9968 28.9863Z" fill="#0FF8E7"/>
<path d="M22.7442 29.8656L23.4747 29.5533L23.3016 29.4038L22.5554 29.7025L22.7442 29.8656Z" fill="#00B4FF"/>
<path d="M22.5554 29.7027L23.3015 29.4039L23.1409 29.2133L22.38 29.4948L22.5554 29.7027Z" fill="#00C0FF"/>
<path d="M22.9417 29.9801L23.6561 29.6582L23.4748 29.5534L22.7442 29.8657L22.9417 29.9801Z" fill="#00A8FF"/>
<path d="M22.8728 28.7285L23.7671 28.4955L23.6748 28.2341L22.7723 28.4467L22.8728 28.7285Z" fill="#23FFD4"/>
<path d="M22.38 29.4949L23.1409 29.2133L22.9968 28.9864L22.2224 29.2476L22.38 29.4949Z" fill="#00D4FF"/>
<path d="M23.143 30.0428L23.8411 29.7155L23.6561 29.6582L22.9417 29.9801L23.143 30.0428Z" fill="#00A8FF"/>
<path d="M22.2225 29.2475L22.9968 28.9863L22.8729 28.7287L22.0867 28.9668L22.2225 29.2475Z" fill="#06ECF1"/>
<path d="M22.7721 28.4468L23.6747 28.2342L23.6066 27.9569L22.6976 28.1477L22.7721 28.4468Z" fill="#39FFBE"/>
<path d="M23.3428 30.052L24.025 29.7237L23.841 29.7154L23.1428 30.0427L23.3428 30.052Z" fill="#00A8FF"/>
<path d="M22.0865 28.9666L22.8727 28.7285L22.7722 28.4467L21.976 28.6595L22.0865 28.9666Z" fill="#1CFFDB"/>
<path d="M22.6977 28.1477L23.6068 27.9568L23.5648 27.6706L22.6511 27.8389L22.6977 28.1477Z" fill="#53FFA4"/>
<path d="M21.9759 28.6597L22.7722 28.4469L22.6976 28.1479L21.8935 28.3338L21.9759 28.6597Z" fill="#36FFC1"/>
<path d="M22.6511 27.8391L23.5648 27.6707L23.55 27.3828L22.6337 27.5284L22.6511 27.8391Z" fill="#6DFF8A"/>
<path d="M21.8937 28.3338L22.6978 28.1478L22.6511 27.8391L21.8415 27.9973L21.8937 28.3338Z" fill="#50FFA7"/>
<path d="M22.6336 27.5284L23.5499 27.3827L23.5629 27.1004L22.646 27.2238L22.6336 27.5284Z" fill="#87FF70"/>
<path d="M21.8414 27.9971L22.651 27.8389L22.6337 27.5283L21.8211 27.6585L21.8414 27.9971Z" fill="#6AFF8D"/>
<path d="M22.6461 27.2238L23.5629 27.1004L23.6035 26.8311L22.6882 26.9332L22.6461 27.2238Z" fill="#A0FF56"/>
<path d="M21.821 27.6584L22.6336 27.5283L22.6461 27.2237L21.8331 27.3263L21.821 27.6584Z" fill="#87FF70"/>
<path d="M22.6884 26.9331L23.6037 26.831L23.6708 26.5816L22.7593 26.6639L22.6884 26.9331Z" fill="#B7FF40"/>
<path d="M21.8333 27.3264L22.6462 27.2238L22.6884 26.9332L21.8777 27.0094L21.8333 27.3264Z" fill="#A4FF53"/>
<path d="M22.7593 26.6641L23.6708 26.5817L23.763 26.3589L22.8573 26.4235L22.7593 26.6641Z" fill="#D1FF26"/>
<path d="M21.8776 27.0094L22.6883 26.9332L22.7592 26.664L21.9534 26.7157L21.8776 27.0094Z" fill="#BEFF39"/>
<path d="M22.8573 26.4234L23.7631 26.3587L23.878 26.1684L22.9799 26.2179L22.8573 26.4234Z" fill="#E4FF13"/>
<path d="M21.9534 26.7158L22.7592 26.6641L22.8572 26.4236L22.0589 26.4533L21.9534 26.7158Z" fill="#D7FF1F"/>
<path d="M22.0588 26.4531L22.8571 26.4234L22.9797 26.2179L22.1912 26.2288L22.0588 26.4531Z" fill="#EEFF09"/>
<path d="M22.1912 26.2289L22.9798 26.218L23.1239 26.0531L22.3473 26.0488L22.1912 26.2289Z" fill="#FFEA00"/>
<path d="M22.3473 26.0488L23.124 26.0531L23.286 25.9334L22.5231 25.918L22.3473 26.0488Z" fill="#FFD700"/>
<path d="M21.2958 31.683L21.2567 31.6534L20.9186 31.3609L20.9382 31.3737L21.2958 31.683Z" fill="#0000FF"/>
<path d="M20.9381 31.3738L20.9185 31.361L20.6035 30.9894L20.6049 30.9808L20.9381 31.3738Z" fill="#0010FF"/>
<path d="M21.6693 31.9012L21.6098 31.8596L21.2569 31.6535L21.2959 31.6831L21.6693 31.9012Z" fill="#0000F1"/>
<path d="M20.6049 30.9808L20.6035 30.9894L20.3192 30.5476L20.3043 30.5134L20.6049 30.9808Z" fill="#0038FF"/>
<path d="M22.0492 32.0226L21.9689 31.9743L21.6096 31.8596L21.669 31.9012L22.0492 32.0226Z" fill="#0000E8"/>
<path d="M20.3044 30.5133L20.3194 30.5474L20.0729 30.0458L20.0436 29.9826L20.3044 30.5133Z" fill="#0064FF"/>
<path d="M22.427 32.044L22.3259 31.9945L21.9691 31.9744L22.0493 32.0226L22.427 32.044Z" fill="#0000ED"/>
<path d="M20.0436 29.9827L20.0728 30.0459L19.8703 29.4966L19.8292 29.4014L20.0436 29.9827Z" fill="#0098FF"/>
<path d="M22.7929 31.9642L22.6715 31.919L22.3258 31.9945L22.4268 32.0439L22.7929 31.9642Z" fill="#0000FF"/>
<path d="M19.8292 29.4016L19.8702 29.4967L19.7168 28.9129L19.6668 28.7836L19.8292 29.4016Z" fill="#00D4FF"/>
<path d="M23.1383 31.7845L22.9977 31.749L22.6717 31.9188L22.7931 31.964L23.1383 31.7845Z" fill="#0008FF"/>
<path d="M19.6669 28.7834L19.7169 28.9127L19.617 28.3087L19.561 28.1438L19.6669 28.7834Z" fill="#26FFD1"/>
<path d="M23.454 31.5088L23.2955 31.4884L22.9976 31.749L23.1382 31.7845L23.454 31.5088Z" fill="#002CFF"/>
<path d="M19.561 28.1439L19.617 28.3088L19.5734 27.6994L19.5146 27.4984L19.561 28.1439Z" fill="#5AFF9D"/>
<path d="M23.732 31.1429L23.5577 31.1427L23.2956 31.4884L23.454 31.5088L23.732 31.1429Z" fill="#0054FF"/>
<path d="M19.5146 27.4984L19.5734 27.6994L19.5877 27.1L19.5296 26.8632L19.5146 27.4984Z" fill="#90FF66"/>
<path d="M23.9648 30.6953L23.777 30.7199L23.5576 31.1428L23.7319 31.143L23.9648 30.6953Z" fill="#0088FF"/>
<path d="M19.5295 26.8632L19.5876 27.1L19.6601 26.5261L19.606 26.2546L19.5295 26.8632Z" fill="#C7FF30"/>
<path d="M24.1463 30.1763L23.9478 30.2299L23.7771 30.7198L23.965 30.6952L24.1463 30.1763Z" fill="#00C4FF"/>
<path d="M19.6062 26.2546L19.6603 26.5261L19.7897 25.9927L19.7431 25.6886L19.6062 26.2546Z" fill="#FBF100"/>
<path d="M24.2709 29.5986L24.0646 29.6847L23.9478 30.2298L24.1464 30.1762L24.2709 29.5986Z" fill="#16FFE1"/>
<path d="M19.7431 25.6885L19.7897 25.9926L19.9732 25.5139L19.9373 25.1803L19.7431 25.6885Z" fill="#FFB900"/>
<path d="M24.3345 28.977L24.124 29.0982L24.0645 29.6848L24.2707 29.5987L24.3345 28.977Z" fill="#4DFFAA"/>
<path d="M19.9371 25.1805L19.973 25.5141L20.2064 25.1034L20.1843 24.7442L19.9371 25.1805Z" fill="#FF8600"/>
<path d="M24.3354 28.3271L24.1241 28.4853L24.1241 29.0982L24.3347 28.977L24.3354 28.3271Z" fill="#80FF77"/>
<path d="M20.1845 24.7441L20.2067 25.1033L20.4843 24.7723L20.4786 24.3921L20.1845 24.7441Z" fill="#FF5D00"/>
<path d="M24.2724 27.6663L24.064 27.8622L24.1241 28.4854L24.3354 28.3273L24.2724 27.6663Z" fill="#B7FF40"/>
<path d="M20.4786 24.3921L20.4842 24.7724L20.799 24.5305L20.8121 24.1347L20.4786 24.3921Z" fill="#FF3800"/>
<path d="M24.1466 27.0117L23.9448 27.2452L24.0639 27.862L24.2723 27.6661L24.1466 27.0117Z" fill="#EBFF0C"/>
<path d="M20.8121 24.1347L20.7989 24.5305L21.1426 24.3852L21.1764 23.9796L20.8121 24.1347Z" fill="#FF1A00"/>
<path d="M23.9611 26.3818L23.7693 26.6515L23.9448 27.2451L24.1466 27.0117L23.9611 26.3818Z" fill="#FFC800"/>
<path d="M21.1765 23.9795L21.1426 24.3851L21.5061 24.341L21.5619 23.9318L21.1765 23.9795Z" fill="#F10800"/>
<path d="M23.7203 25.794L23.5419 26.0976L23.7692 26.6517L23.961 26.3819L23.7203 25.794Z" fill="#FF9400"/>
<path d="M21.5616 23.9318L21.5058 24.3409L21.8792 24.3998L21.9576 23.9936L21.5616 23.9318Z" fill="#E80000"/>
<path d="M23.4309 25.2643L23.2687 25.5984L23.542 26.0975L23.7204 25.7939L23.4309 25.2643Z" fill="#FF6800"/>
<path d="M21.9578 23.9937L21.8794 24.3999L22.2525 24.5606L22.3535 24.1637L21.9578 23.9937Z" fill="#ED0400"/>
<path d="M23.1004 24.8077L22.9568 25.168L23.2687 25.5982L23.4309 25.264L23.1004 24.8077Z" fill="#FF4300"/>
<path d="M22.3535 24.1636L22.2525 24.5605L22.615 24.819L22.7379 24.4375L22.3535 24.1636Z" fill="#FA0F00"/>
<path d="M22.738 24.4375L22.6151 24.819L22.957 25.1682L23.1005 24.8078L22.738 24.4375Z" fill="#FF2200"/>
<path d="M19.7755 29.2331L19.8292 29.4014L19.6668 28.7835L19.6051 28.5848L19.7755 29.2331Z" fill="#00CCFF"/>
<path d="M19.6054 28.5849L19.6671 28.7836L19.5611 28.144L19.4941 27.9136L19.6054 28.5849Z" fill="#1FFFD7"/>
<path d="M23.576 31.4417L23.454 31.5089L23.1383 31.7847L23.2446 31.731L23.576 31.4417Z" fill="#0018FF"/>
<path d="M19.4939 27.9136L19.561 28.144L19.5146 27.4985L19.4451 27.2359L19.4939 27.9136Z" fill="#5AFF9D"/>
<path d="M23.868 31.0577L23.7321 31.1429L23.454 31.5088L23.576 31.4416L23.868 31.0577Z" fill="#0044FF"/>
<path d="M19.4452 27.2357L19.5147 27.4982L19.5297 26.863L19.4606 26.5685L19.4452 27.2357Z" fill="#94FF63"/>
<path d="M24.1128 30.5878L23.965 30.6953L23.732 31.143L23.868 31.0577L24.1128 30.5878Z" fill="#007CFF"/>
<path d="M19.4607 26.5684L19.5297 26.863L19.6063 26.2544L19.5407 25.9288L19.4607 26.5684Z" fill="#CAFF2C"/>
<path d="M24.3036 30.0428L24.1463 30.1762L23.9649 30.6952L24.1128 30.5876L24.3036 30.0428Z" fill="#00B8FF"/>
<path d="M19.5406 25.9289L19.6062 26.2545L19.743 25.6885L19.6839 25.3338L19.5406 25.9289Z" fill="#FFEA00"/>
<path d="M24.4349 29.4362L24.2708 29.5986L24.1463 30.1762L24.3036 30.0428L24.4349 29.4362Z" fill="#0FF8E7"/>
<path d="M19.6839 25.3339L19.7429 25.6887L19.9372 25.1805L19.8875 24.7993L19.6839 25.3339Z" fill="#FFAE00"/>
<path d="M24.5026 28.7831L24.3347 28.977L24.2709 29.5987L24.435 29.4362L24.5026 28.7831Z" fill="#49FFAD"/>
<path d="M19.8875 24.799L19.9372 25.1803L20.1844 24.744L20.1468 24.3396L19.8875 24.799Z" fill="#FF7A00"/>
<path d="M24.5041 28.1003L24.3355 28.3271L24.3348 28.977L24.5027 28.7832L24.5041 28.1003Z" fill="#80FF77"/>
<path d="M20.1469 24.3398L20.1845 24.7442L20.4786 24.3921L20.4555 23.9689L20.1469 24.3398Z" fill="#FF4A00"/>
<path d="M24.4384 27.4056L24.2724 27.6662L24.3355 28.3272L24.504 28.1003L24.4384 27.4056Z" fill="#BAFF3C"/>
<path d="M20.4553 23.9688L20.4784 24.3921L20.812 24.1346L20.8054 23.6971L20.4553 23.9688Z" fill="#FF2500"/>
<path d="M24.3068 26.7175L24.1466 27.0116L24.2723 27.666L24.4383 27.4054L24.3068 26.7175Z" fill="#F1FC06"/>
<path d="M20.8054 23.6972L20.8119 24.1346L21.1763 23.9795L21.188 23.5331L20.8054 23.6972Z" fill="#F10800"/>
<path d="M24.1125 26.0555L23.9612 26.3819L24.1467 27.0118L24.3069 26.7177L24.1125 26.0555Z" fill="#FFC100"/>
<path d="M21.1882 23.533L21.1765 23.9795L21.5619 23.9318L21.593 23.482L21.1882 23.533Z" fill="#DA0000"/>
<path d="M23.8601 25.4371L23.7206 25.7937L23.9612 26.3817L24.1126 26.0553L23.8601 25.4371Z" fill="#FF8900"/>
<path d="M21.5929 23.4819L21.5618 23.9317L21.9578 23.9935L22.0088 23.546L21.5929 23.4819Z" fill="#CD0000"/>
<path d="M23.5561 24.8805L23.431 25.2643L23.7205 25.7939L23.86 25.4373L23.5561 24.8805Z" fill="#FF5900"/>
<path d="M22.0089 23.546L21.9579 23.9935L22.3536 24.1636L22.4246 23.7241L22.0089 23.546Z" fill="#D10000"/>
<path d="M23.2089 24.4008L23.1003 24.8079L23.4308 25.2643L23.556 24.8805L23.2089 24.4008Z" fill="#FF3000"/>
<path d="M22.4244 23.7243L22.3534 24.1637L22.7378 24.4376L22.8282 24.0118L22.4244 23.7243Z" fill="#DF0000"/>
<path d="M22.8282 24.0116L22.7378 24.4374L23.1003 24.8077L23.2089 24.4006L22.8282 24.0116Z" fill="#FA0F00"/>
<path d="M21.8829 20.0292L21.4146 20.1745L21.745 20.1442L22.1506 20.0065L21.8829 20.0292Z" fill="#9F0000"/>
<path d="M22.1507 20.0063L21.7451 20.144L22.0853 20.2384L22.4265 20.1049L22.1507 20.0063Z" fill="#960000"/>
<path d="M23.8307 22.8958L23.8167 23.0777L23.9779 23.8053L23.9616 23.6057L23.8307 22.8958Z" fill="#FFAB00"/>
<path d="M22.4264 20.1049L22.0852 20.2385L22.426 20.4558L22.7026 20.3227L22.4264 20.1049Z" fill="#960000"/>
<path d="M23.6611 22.2277L23.6079 22.394L23.8167 23.0776L23.8306 22.8958L23.6611 22.2277Z" fill="#FF6C00"/>
<path d="M22.7027 20.3228L22.4261 20.4559L22.7578 20.7908L22.9716 20.6544L22.7027 20.3228Z" fill="#A80000"/>
<path d="M23.4575 21.6206L23.3569 21.7738L23.6078 22.3942L23.6611 22.2279L23.4575 21.6206Z" fill="#FF3400"/>
<path d="M22.9714 20.6545L22.7576 20.7909L23.0708 21.2343L23.2254 21.0911L22.9714 20.6545Z" fill="#C80000"/>
<path d="M23.2255 21.0912L23.0709 21.2343L23.357 21.7738L23.4576 21.6206L23.2255 21.0912Z" fill="#F10800"/>
<path d="M19.028 26.074L19.0827 26.4876L19.0272 25.7352L18.9722 25.3185L19.028 26.074Z" fill="#53FFA4"/>
<path d="M18.9722 25.3186L19.0272 25.7353L19.0425 24.9935L18.9873 24.5736L18.9722 25.3186Z" fill="#97FF60"/>
<path d="M18.9874 24.5736L19.0426 24.9935L19.1291 24.2813L19.0738 23.8582L18.9874 24.5736Z" fill="#D7FF1F"/>
<path d="M19.0738 23.8581L19.1291 24.2812L19.2854 23.6173L19.2302 23.191L19.0738 23.8581Z" fill="#FFD000"/>
<path d="M19.2302 23.1912L19.2854 23.6174L19.5084 23.0198L19.4534 22.5905L19.2302 23.1912Z" fill="#FF8D00"/>
<path d="M19.4534 22.5904L19.5084 23.0197L19.7931 22.505L19.7384 22.0729L19.4534 22.5904Z" fill="#FF4E00"/>
<path d="M19.7384 22.0731L19.793 22.5053L20.1326 22.0883L20.0784 21.6536L19.7384 22.0731Z" fill="#FF1A00"/>
<path d="M20.0786 21.6535L20.1328 22.0882L20.5186 21.7813L20.465 21.3445L20.0786 21.6535Z" fill="#D10000"/>
<path d="M24.3421 24.6869L24.4329 25.5643L24.5761 26.3245L24.4876 25.4552L24.3421 24.6869Z" fill="#FFE600"/>
<path d="M20.4649 21.3446L20.5185 21.7814L20.9405 21.5942L20.8876 21.1557L20.4649 21.3446Z" fill="#A80000"/>
<path d="M24.1268 23.9474L24.1732 24.3807L24.3879 25.1174L24.342 24.6868L24.1268 23.9474Z" fill="#FF9F00"/>
<path d="M20.8876 21.1556L20.9406 21.5941L21.3875 21.5328L21.3353 21.0931L20.8876 21.1556Z" fill="#8D0000"/>
<path d="M23.8473 23.2576L23.8944 23.6933L24.1734 24.3807L24.127 23.9474L23.8473 23.2576Z" fill="#FF6000"/>
<path d="M21.3352 21.0932L21.3873 21.5329L21.8469 21.6002L21.7957 21.1598L21.3352 21.0932Z" fill="#800000"/>
<path d="M23.5103 22.6372L23.5581 23.0748L23.8941 23.6934L23.847 23.2578L23.5103 22.6372Z" fill="#FF2900"/>
<path d="M21.7959 21.1597L21.8472 21.6001L22.3067 21.7947L22.2563 21.3542L21.7959 21.1597Z" fill="#800000"/>
<path d="M23.1257 22.1035L23.1744 22.5426L23.5583 23.0748L23.5104 22.6372L23.1257 22.1035Z" fill="#DF0000"/>
<path d="M22.2563 21.3541L22.3067 21.7947L22.7533 22.1117L22.7038 21.6716L22.2563 21.3541Z" fill="#920000"/>
<path d="M22.7036 21.6717L22.7531 22.1118L23.1743 22.5426L23.1256 22.1034L22.7036 21.6717Z" fill="#B20000"/>
<path d="M24.2444 24.3306L24.342 24.687L24.4874 25.4553L24.3846 25.0985L24.2444 24.3306Z" fill="#FFE600"/>
<path d="M21.103 20.3274L20.7368 20.5867L21.1003 20.4205L21.4145 20.1743L21.103 20.3274Z" fill="#B20000"/>
<path d="M21.4146 20.1745L21.1004 20.4207L21.4858 20.3796L21.745 20.1442L21.4146 20.1745Z" fill="#960000"/>
<path d="M21.7451 20.1442L21.4859 20.3795L21.8827 20.4656L22.0854 20.2386L21.7451 20.1442Z" fill="#890000"/>
<path d="M22.0853 20.2384L21.8826 20.4654L22.2797 20.6772L22.426 20.4558L22.0853 20.2384Z" fill="#890000"/>
<path d="M23.3571 21.7737L23.3639 21.9953L23.6557 22.6212L23.608 22.3941L23.3571 21.7737Z" fill="#FF2D00"/>
<path d="M22.4261 20.456L22.2798 20.6774L22.6662 21.0095L22.7577 20.7909L22.4261 20.456Z" fill="#9B0000"/>
<path d="M23.0709 21.2342L23.0308 21.4529L23.3637 21.9953L23.357 21.7737L23.0709 21.2342Z" fill="#E80000"/>
<path d="M22.7576 20.7909L22.666 21.0096L23.0308 21.453L23.0708 21.2343L22.7576 20.7909Z" fill="#BB0000"/>
<path d="M23.6077 22.3941L23.6554 22.6213L23.898 23.3129L23.8165 23.0778L23.6077 22.3941Z" fill="#FF6400"/>
<path d="M20.4048 20.8724L20.1496 21.2399L20.52 20.9388L20.7368 20.5869L20.4048 20.8724Z" fill="#D10000"/>
<path d="M20.7368 20.5869L20.52 20.9387L20.9255 20.7576L21.1004 20.4207L20.7368 20.5869Z" fill="#A80000"/>
<path d="M21.1004 20.4207L20.9254 20.7577L21.355 20.7027L21.4858 20.3796L21.1004 20.4207Z" fill="#8D0000"/>
<path d="M21.4858 20.3794L21.355 20.7025L21.797 20.7762L21.8825 20.4655L21.4858 20.3794Z" fill="#800000"/>
<path d="M21.8826 20.4655L21.797 20.7762L22.2391 20.9773L22.2797 20.6773L21.8826 20.4655Z" fill="#840000"/>
<path d="M23.3638 21.9954L23.4443 22.2752L23.7682 22.8988L23.6556 22.6213L23.3638 21.9954Z" fill="#FF2900"/>
<path d="M22.2797 20.6774L22.2391 20.9773L22.6689 21.3006L22.666 21.0095L22.2797 20.6774Z" fill="#920000"/>
<path d="M23.031 21.453L23.0745 21.7373L23.4444 22.2751L23.3639 21.9953L23.031 21.453Z" fill="#DF0000"/>
<path d="M22.666 21.0094L22.6688 21.3005L23.0743 21.7372L23.0307 21.4528L22.666 21.0094Z" fill="#B20000"/>
<path d="M20.113 21.268L19.8238 21.6514L20.1497 21.2397L20.4049 20.8723L20.113 21.268Z" fill="#FF1A00"/>
<path d="M19.3367 22.7551L19.2301 23.1911L19.4534 22.5904L19.5505 22.1615L19.3367 22.7551Z" fill="#FF8D00"/>
<path d="M19.5505 22.1615L19.4534 22.5905L19.7384 22.073L19.8236 21.6515L19.5505 22.1615Z" fill="#FF4E00"/>
<path d="M19.8236 21.6515L19.7384 22.073L20.0784 21.6535L20.1495 21.2398L19.8236 21.6515Z" fill="#FF1600"/>
<path d="M20.1495 21.2397L20.0785 21.6534L20.4649 21.3444L20.52 20.9386L20.1495 21.2397Z" fill="#D10000"/>
<path d="M20.52 20.9386L20.4649 21.3444L20.8876 21.1555L20.9255 20.7575L20.52 20.9386Z" fill="#A40000"/>
<path d="M20.9256 20.7577L20.8878 21.1557L21.3355 21.0932L21.3552 20.7027L20.9256 20.7577Z" fill="#890000"/>
<path d="M23.7682 22.8987L23.8473 23.2577L24.127 23.9475L24.0374 23.5904L23.7682 22.8987Z" fill="#FF6000"/>
<path d="M21.3551 20.7025L21.3354 21.093L21.7958 21.1595L21.797 20.7762L21.3551 20.7025Z" fill="#800000"/>
<path d="M23.4444 22.2751L23.5105 22.6371L23.8473 23.2577L23.7683 22.8987L23.4444 22.2751Z" fill="#FF2900"/>
<path d="M21.7971 20.7762L21.7959 21.1595L22.2563 21.3541L22.2392 20.9772L21.7971 20.7762Z" fill="#800000"/>
<path d="M23.0744 21.7373L23.1257 22.1034L23.5104 22.6371L23.4442 22.2751L23.0744 21.7373Z" fill="#DF0000"/>
<path d="M22.2391 20.9773L22.2563 21.3542L22.7038 21.6716L22.669 21.3006L22.2391 20.9773Z" fill="#920000"/>
<path d="M22.6689 21.3007L22.7037 21.6717L23.1257 22.1034L23.0744 21.7374L22.6689 21.3007Z" fill="#B20000"/>
<path d="M26.4227 25.7136L25.7769 25.7083L25.7879 26.1938L26.447 26.1676L26.4227 25.7136Z" fill="#23FFD4"/>
<path d="M26.4136 25.2253L25.774 25.1839L25.7771 25.7084L26.4229 25.7138L26.4136 25.2253Z" fill="#53FFA4"/>
<path d="M26.4198 24.7146L25.7787 24.6337L25.7739 25.1837L26.4136 25.2251L26.4198 24.7146Z" fill="#80FF77"/>
<path d="M26.4414 24.1956L25.7914 24.0725L25.7787 24.6336L26.4198 24.7146L26.4414 24.1956Z" fill="#ADFF49"/>
<path d="M26.4778 23.6821L25.8117 23.5156L25.7914 24.0727L26.4413 24.1958L26.4778 23.6821Z" fill="#DBFF1C"/>
<path d="M26.5283 23.1877L25.839 22.9778L25.8116 23.5157L26.4777 23.6822L26.5283 23.1877Z" fill="#FFE200"/>
<path d="M27.1264 21.2498L26.1505 20.8313L26.1017 20.8973L27.0309 21.3027L27.1264 21.2498Z" fill="#FF3800"/>
<path d="M26.5916 22.7259L25.8729 22.4737L25.839 22.9777L26.5283 23.1877L26.5916 22.7259Z" fill="#FFB600"/>
<path d="M27.0307 21.3027L26.1015 20.8973L26.0519 21.0541L26.9343 21.4398L27.0307 21.3027Z" fill="#FF3800"/>
<path d="M26.666 22.3095L25.9122 22.0175L25.8729 22.4736L26.5916 22.7258L26.666 22.3095Z" fill="#FF9100"/>
<path d="M26.9344 21.4397L26.052 21.054L26.0031 21.2978L26.8398 21.6574L26.9344 21.4397Z" fill="#FF4300"/>
<path d="M26.7494 21.95L25.9559 21.6219L25.9122 22.0175L26.666 22.3094L26.7494 21.95Z" fill="#FF6F00"/>
<path d="M26.8399 21.6576L26.0031 21.2979L25.9561 21.622L26.7496 21.9501L26.8399 21.6576Z" fill="#FF5500"/>
<path d="M27.0794 25.7677L26.4226 25.7138L26.4469 26.1678L27.1142 26.1901L27.0794 25.7677Z" fill="#2CFFCA"/>
<path d="M27.0654 25.3151L26.4134 25.2252L26.4227 25.7137L27.0795 25.7676L27.0654 25.3151Z" fill="#56FFA0"/>
<path d="M27.0727 24.8444L26.4195 24.7148L26.4134 25.2253L27.0654 25.3152L27.0727 24.8444Z" fill="#80FF77"/>
<path d="M27.1016 24.3676L26.4413 24.1958L26.4198 24.7148L27.0729 24.8444L27.1016 24.3676Z" fill="#AAFF4D"/>
<path d="M27.1509 23.8974L26.4779 23.6821L26.4413 24.1958L27.1016 24.3676L27.1509 23.8974Z" fill="#D4FF23"/>
<path d="M27.2197 23.4466L26.5284 23.1877L26.4778 23.6821L27.1509 23.8974L27.2197 23.4466Z" fill="#FBF100"/>
<path d="M28.1726 21.7593L27.2185 21.2822L27.1265 21.2498L28.0445 21.7202L28.1726 21.7593Z" fill="#FF5500"/>
<path d="M27.3061 23.0273L26.5915 22.7259L26.5282 23.1877L27.2195 23.4466L27.3061 23.0273Z" fill="#FFC400"/>
<path d="M28.0446 21.7203L27.1265 21.2499L27.031 21.3028L27.912 21.7595L28.0446 21.7203Z" fill="#FF4E00"/>
<path d="M27.4082 22.6511L26.6659 22.3096L26.5916 22.7259L27.3062 23.0273L27.4082 22.6511Z" fill="#FFA300"/>
<path d="M27.9118 21.7596L27.0308 21.3029L26.9344 21.4399L27.7783 21.8764L27.9118 21.7596Z" fill="#FF5200"/>
<path d="M27.5232 22.3283L26.7495 21.9503L26.6661 22.3097L27.4083 22.6512L27.5232 22.3283Z" fill="#FF8200"/>
<path d="M27.7785 21.8763L26.9345 21.4399L26.8399 21.6577L27.6477 22.0676L27.7785 21.8763Z" fill="#FF5900"/>
<path d="M27.6475 22.0676L26.8396 21.6577L26.7493 21.9503L27.523 22.3283L27.6475 22.0676Z" fill="#FF6C00"/>
<path d="M27.6921 25.8636L27.0794 25.7675L27.1142 26.19L27.7347 26.2552L27.6921 25.8636Z" fill="#33FFC4"/>
<path d="M27.6746 25.4466L27.0654 25.3152L27.0794 25.7677L27.6922 25.8637L27.6746 25.4466Z" fill="#5AFF9D"/>
<path d="M27.6828 25.0146L27.0728 24.8444L27.0655 25.3152L27.6747 25.4466L27.6828 25.0146Z" fill="#80FF77"/>
<path d="M27.7167 24.5788L27.1015 24.3674L27.0729 24.8442L27.6829 25.0144L27.7167 24.5788Z" fill="#A7FF50"/>
<path d="M27.7753 24.1514L27.1508 23.8975L27.1015 24.3676L27.7166 24.579L27.7753 24.1514Z" fill="#CEFF29"/>
<path d="M27.8573 23.7431L27.2196 23.4466L27.1507 23.8974L27.7752 24.1513L27.8573 23.7431Z" fill="#F1FC06"/>
<path d="M27.9608 23.3651L27.3062 23.0271L27.2196 23.4464L27.8573 23.7429L27.9608 23.3651Z" fill="#FFD700"/>
<path d="M29.0027 22.2696L28.1727 21.7592L28.0446 21.7201L28.8481 22.2238L29.0027 22.2696Z" fill="#FF6F00"/>
<path d="M28.0831 23.0282L27.4083 22.651L27.3062 23.0273L27.9609 23.3652L28.0831 23.0282Z" fill="#FFB600"/>
<path d="M28.8478 22.2239L28.0443 21.7203L27.9117 21.7595L28.688 22.2497L28.8478 22.2239Z" fill="#FF6800"/>
<path d="M28.2208 22.7409L27.5232 22.3281L27.4084 22.6509L28.0832 23.0281L28.2208 22.7409Z" fill="#FF9800"/>
<path d="M28.6882 22.2497L27.912 21.7595L27.7785 21.8763L28.5275 22.3464L28.6882 22.2497Z" fill="#FF6C00"/>
<path d="M28.3702 22.5118L27.6476 22.0676L27.5231 22.3282L28.2207 22.7411L28.3702 22.5118Z" fill="#FF8200"/>
<path d="M28.5275 22.3465L27.7784 21.8763L27.6477 22.0676L28.3703 22.5118L28.5275 22.3465Z" fill="#FF7300"/>
<path d="M28.2056 25.9942L27.6923 25.8636L27.7349 26.2551L28.2533 26.3562L28.2056 25.9942Z" fill="#39FFBE"/>
<path d="M28.1855 25.6108L27.6746 25.4464L27.6921 25.8635L28.2054 25.9942L28.1855 25.6108Z" fill="#5AFF9D"/>
<path d="M28.1939 25.2157L27.6827 25.0144L27.6746 25.4464L28.1854 25.6107L28.1939 25.2157Z" fill="#80FF77"/>
<path d="M28.231 24.8195L27.7166 24.579L27.6828 25.0146L28.1941 25.2159L28.231 24.8195Z" fill="#A4FF53"/>
<path d="M28.2955 24.4323L27.7751 24.1514L27.7165 24.579L28.2309 24.8195L28.2955 24.4323Z" fill="#C7FF30"/>
<path d="M28.3862 24.0644L27.8574 23.743L27.7753 24.1513L28.2956 24.4322L28.3862 24.0644Z" fill="#E7FF0F"/>
<path d="M28.5006 23.7261L27.9609 23.3653L27.8574 23.7431L28.3862 24.0645L28.5006 23.7261Z" fill="#FFE600"/>
<path d="M28.6357 23.4261L28.083 23.0282L27.9608 23.3653L28.5005 23.726L28.6357 23.4261Z" fill="#FFC400"/>
<path d="M29.6568 22.7941L29.0027 22.2698L28.8481 22.2239L29.4846 22.7418L29.6568 22.7941Z" fill="#FF8600"/>
<path d="M28.7883 23.1727L28.2208 22.7409L28.0831 23.0281L28.6358 23.426L28.7883 23.1727Z" fill="#FFAB00"/>
<path d="M29.4844 22.7418L28.8478 22.2239L28.688 22.2496L29.3067 22.7547L29.4844 22.7418Z" fill="#FF8200"/>
<path d="M28.954 22.973L28.3703 22.5116L28.2209 22.7409L28.7883 23.1727L28.954 22.973Z" fill="#FF9800"/>
<path d="M29.3067 22.7545L28.6881 22.2495L28.5274 22.3462L29.1283 22.8323L29.3067 22.7545Z" fill="#FF8200"/>
<path d="M29.1282 22.8325L28.5273 22.3465L28.3701 22.5117L28.9537 22.9732L29.1282 22.8325Z" fill="#FF8900"/>
<path d="M28.5689 26.1508L28.2055 25.9941L28.2532 26.3561L28.6195 26.4852L28.5689 26.1508Z" fill="#3CFFBA"/>
<path d="M28.5476 25.7989L28.1857 25.6109L28.2057 25.9943L28.5691 26.151L28.5476 25.7989Z" fill="#5DFF9A"/>
<path d="M28.556 25.4382L28.1942 25.216L28.1857 25.611L28.5475 25.799L28.556 25.4382Z" fill="#80FF77"/>
<path d="M28.5943 25.0779L28.231 24.8194L28.194 25.2157L28.5559 25.438L28.5943 25.0779Z" fill="#A0FF56"/>
<path d="M28.6616 24.7279L28.2955 24.4321L28.2309 24.8194L28.5942 25.0779L28.6616 24.7279Z" fill="#C1FF36"/>
<path d="M28.7565 24.3976L28.3861 24.0646L28.2955 24.4323L28.6616 24.7281L28.7565 24.3976Z" fill="#DEFF19"/>
<path d="M28.8764 24.0954L28.5005 23.7261L28.3861 24.0645L28.7565 24.3976L28.8764 24.0954Z" fill="#FBF100"/>
<path d="M29.0182 23.8295L28.6357 23.4261L28.5005 23.726L28.8763 24.0953L29.0182 23.8295Z" fill="#FFD700"/>
<path d="M30.264 23.429L29.8186 22.9098L29.6566 22.794L30.0927 23.3133L30.264 23.429Z" fill="#FFA700"/>
<path d="M29.1784 23.6073L28.7882 23.1727L28.6358 23.426L29.0183 23.8295L29.1784 23.6073Z" fill="#FFC100"/>
<path d="M30.093 23.3134L29.6569 22.7941L29.4846 22.7418L29.9113 23.2553L30.093 23.3134Z" fill="#FF9C00"/>
<path d="M29.3525 23.4348L28.9539 22.973L28.7883 23.1727L29.1784 23.6072L29.3525 23.4348Z" fill="#FFAE00"/>
<path d="M29.9112 23.2553L29.4846 22.7418L29.3068 22.7546L29.7239 23.2565L29.9112 23.2553Z" fill="#FF9800"/>
<path d="M29.5361 23.3169L29.1284 22.8325L28.954 22.9731L29.3526 23.4349L29.5361 23.3169Z" fill="#FF9F00"/>
<path d="M29.7239 23.2565L29.3069 22.7547L29.1284 22.8324L29.536 23.3169L29.7239 23.2565Z" fill="#FF9800"/>
<path d="M28.7422 26.3254L28.569 26.1511L28.6197 26.4855L28.7941 26.635L28.7422 26.3254Z" fill="#43FFB4"/>
<path d="M28.7197 26.0011L28.5474 25.7988L28.5688 26.1509L28.742 26.3252L28.7197 26.0011Z" fill="#60FF97"/>
<path d="M28.7279 25.6711L28.5559 25.4381L28.5475 25.7989L28.7198 26.0013L28.7279 25.6711Z" fill="#7DFF7A"/>
<path d="M28.7661 25.3435L28.5942 25.078L28.5558 25.4381L28.7278 25.6712L28.7661 25.3435Z" fill="#9DFF5A"/>
<path d="M28.8341 25.0267L28.6618 24.7281L28.5944 25.078L28.7663 25.3434L28.8341 25.0267Z" fill="#BAFF3C"/>
<path d="M28.9295 24.7294L28.7565 24.3975L28.6616 24.7281L28.8339 25.0267L28.9295 24.7294Z" fill="#D4FF23"/>
<path d="M29.0506 24.4595L28.8765 24.0954L28.7566 24.3976L28.9296 24.7295L29.0506 24.4595Z" fill="#EEFF09"/>
<path d="M30.7559 24.2994L30.5574 23.8185L30.4203 23.5989L30.616 24.0905L30.7559 24.2994Z" fill="#FFDE00"/>
<path d="M29.1938 24.2239L29.0183 23.8295L28.8764 24.0953L29.0506 24.4594L29.1938 24.2239Z" fill="#FFE600"/>
<path d="M30.6162 24.0904L30.4205 23.5989L30.2642 23.4289L30.457 23.9261L30.6162 24.0904Z" fill="#FFCC00"/>
<path d="M29.3558 24.0295L29.1785 23.6073L29.0184 23.8295L29.1939 24.224L29.3558 24.0295Z" fill="#FFD000"/>
<path d="M30.4569 23.926L30.264 23.4289L30.0928 23.3133L30.2827 23.8106L30.4569 23.926Z" fill="#FFB900"/>
<path d="M29.532 23.8812L29.3526 23.4349L29.1785 23.6073L29.3558 24.0295L29.532 23.8812Z" fill="#FFC100"/>
<path d="M30.2827 23.8107L30.0928 23.3133L29.9111 23.2552L30.0981 23.7475L30.2827 23.8107Z" fill="#FFB200"/>
<path d="M29.7175 23.7833L29.5358 23.3168L29.3524 23.4349L29.5317 23.8812L29.7175 23.7833Z" fill="#FFB200"/>
<path d="M30.0983 23.7474L29.9112 23.2552L29.7239 23.2563L29.9082 23.7382L30.0983 23.7474Z" fill="#FFAB00"/>
<path d="M29.9081 23.7382L29.7238 23.2563L29.5359 23.3167L29.7176 23.7831L29.9081 23.7382Z" fill="#FFAE00"/>
<path d="M28.8814 25.0481L28.9297 24.7293L28.8341 25.0266L28.7877 25.317L28.8814 25.0481Z" fill="#CEFF29"/>
<path d="M30.9111 26.7256L30.9799 26.4299L31.0366 26.1101L30.9664 26.4332L30.9111 26.7256Z" fill="#50FFA7"/>
<path d="M30.9663 26.4332L31.0365 26.1101L31.0637 25.7815L30.9923 26.131L30.9663 26.4332Z" fill="#6AFF8D"/>
<path d="M30.9925 26.1309L31.0639 25.7814L31.0609 25.4523L30.9886 25.8268L30.9925 26.1309Z" fill="#87FF70"/>
<path d="M30.9885 25.8269L31.0608 25.4524L31.0273 25.1314L30.9545 25.5288L30.9885 25.8269Z" fill="#A0FF56"/>
<path d="M30.9546 25.5287L31.0274 25.1313L30.9644 24.8269L30.8913 25.2444L30.9546 25.5287Z" fill="#BEFF39"/>
<path d="M30.8913 25.2443L30.9643 24.8268L30.8731 24.547L30.8003 24.9814L30.8913 25.2443Z" fill="#D4FF23"/>
<path d="M29.0001 24.8059L29.0506 24.4595L28.9296 24.7295L28.8813 25.0483L29.0001 24.8059Z" fill="#E4FF13"/>
<path d="M30.8003 24.9814L30.8731 24.547L30.756 24.2993L30.6838 24.7468L30.8003 24.9814Z" fill="#EBFF0C"/>
<path d="M29.1407 24.5964L29.1937 24.224L29.0504 24.4594L28.9999 24.8059L29.1407 24.5964Z" fill="#F8F500"/>
<path d="M30.6839 24.747L30.7561 24.2995L30.6162 24.0907L30.545 24.5471L30.6839 24.747Z" fill="#FEED00"/>
<path d="M29.3 24.4257L29.3556 24.0294L29.1938 24.2239L29.1408 24.5964L29.3 24.4257Z" fill="#FFDE00"/>
<path d="M30.545 24.547L30.6162 24.0906L30.4571 23.9262L30.3873 24.3873L30.545 24.547Z" fill="#FFDB00"/>
<path d="M29.4736 24.2982L29.5319 23.8812L29.3557 24.0294L29.3001 24.4257L29.4736 24.2982Z" fill="#FFD000"/>
<path d="M30.3871 24.3872L30.4569 23.9261L30.2827 23.8107L30.2147 24.2719L30.3871 24.3872Z" fill="#FFCC00"/>
<path d="M29.6568 24.2176L29.7178 23.7833L29.532 23.8812L29.4737 24.2983L29.6568 24.2176Z" fill="#FFC400"/>
<path d="M30.2147 24.2719L30.2827 23.8107L30.0981 23.7475L30.0322 24.2042L30.2147 24.2719Z" fill="#FFC400"/>
<path d="M29.8448 24.1861L29.9083 23.7384L29.7178 23.7834L29.6568 24.2177L29.8448 24.1861Z" fill="#FFC100"/>
<path d="M30.0324 24.2043L30.0982 23.7476L29.9082 23.7384L29.8447 24.186L30.0324 24.2043Z" fill="#FFBD00"/>
<path d="M29.9629 27.9815L30.2745 27.8016L30.4396 27.6574L30.1228 27.8552L29.9629 27.9815Z" fill="#00D4FF"/>
<path d="M30.1228 27.8552L30.4396 27.6574L30.5894 27.4727L30.2677 27.6903L30.1228 27.8552Z" fill="#00E4F8"/>
<path d="M30.2678 27.6903L30.5895 27.4727L30.7202 27.252L30.3941 27.4908L30.2678 27.6903Z" fill="#0FF8E7"/>
<path d="M30.3941 27.4909L30.7203 27.2521L30.8285 27.001L30.4985 27.2618L30.3941 27.4909Z" fill="#26FFD1"/>
<path d="M30.4983 27.2617L30.8283 27.0009L30.9111 26.7256L30.5779 27.0088L30.4983 27.2617Z" fill="#3CFFBA"/>
<path d="M30.5779 27.0088L30.9111 26.7256L30.9663 26.4331L30.6307 26.7385L30.5779 27.0088Z" fill="#53FFA4"/>
<path d="M30.6307 26.7386L30.9664 26.4333L30.9925 26.1311L30.6551 26.4579L30.6307 26.7386Z" fill="#6DFF8A"/>
<path d="M30.655 26.4578L30.9923 26.131L30.9884 25.8268L30.6502 26.1738L30.655 26.4578Z" fill="#87FF70"/>
<path d="M30.6503 26.1737L30.9884 25.8268L30.9545 25.5286L30.6164 25.8938L30.6503 26.1737Z" fill="#A0FF56"/>
<path d="M30.6165 25.894L30.9545 25.5288L30.8913 25.2445L30.5542 25.6257L30.6165 25.894Z" fill="#B7FF40"/>
<path d="M30.554 25.6255L30.8911 25.2443L30.8001 24.9814L30.4649 25.3759L30.554 25.6255Z" fill="#CEFF29"/>
<path d="M30.465 25.3758L30.8002 24.9814L30.6838 24.7468L30.3513 25.1515L30.465 25.3758Z" fill="#E4FF13"/>
<path d="M29.0094 24.7849L29.3001 24.4256L29.1409 24.5964L28.8557 24.9361L29.0094 24.7849Z" fill="#FEED00"/>
<path d="M30.3512 25.1516L30.6837 24.747L30.5448 24.5471L30.2159 24.9585L30.3512 25.1516Z" fill="#F4F802"/>
<path d="M29.1772 24.6748L29.4737 24.2983L29.3002 24.4258L29.0095 24.785L29.1772 24.6748Z" fill="#FFDE00"/>
<path d="M30.2162 24.9585L30.545 24.5471L30.3873 24.3874L30.0627 24.802L30.2162 24.9585Z" fill="#FFE600"/>
<path d="M29.3543 24.6086L29.6568 24.2177L29.4736 24.2984L29.1771 24.6748L29.3543 24.6086Z" fill="#FFD300"/>
<path d="M30.0627 24.8019L30.3873 24.3873L30.2149 24.272L29.8952 24.6862L30.0627 24.8019Z" fill="#FFDB00"/>
<path d="M29.5361 24.5881L29.8445 24.1859L29.6566 24.2175L29.3541 24.6084L29.5361 24.5881Z" fill="#FFD000"/>
<path d="M29.8952 24.686L30.2149 24.2718L30.0324 24.2041L29.7182 24.6141L29.8952 24.686Z" fill="#FFD000"/>
<path d="M29.7181 24.6144L30.0323 24.2044L29.8446 24.1861L29.5362 24.5883L29.7181 24.6144Z" fill="#FFCC00"/>
<path d="M29.2591 28.2436L29.7922 28.0659L29.9628 27.9813L29.4226 28.1716L29.2591 28.2436Z" fill="#00D0FF"/>
<path d="M29.4226 28.1717L29.9628 27.9814L30.1227 27.8551L29.5754 28.0595L29.4226 28.1717Z" fill="#00DCFE"/>
<path d="M29.5754 28.0595L30.1227 27.8551L30.2676 27.6902L29.7139 27.91L29.5754 28.0595Z" fill="#06ECF1"/>
<path d="M29.714 27.9101L30.2677 27.6903L30.394 27.4908L29.8345 27.727L29.714 27.9101Z" fill="#19FFDE"/>
<path d="M29.8345 27.7269L30.394 27.4908L30.4983 27.2617L29.9339 27.5147L29.8345 27.7269Z" fill="#29FFCE"/>
<path d="M29.934 27.5145L30.4985 27.2616L30.5781 27.0087L30.0096 27.2785L29.934 27.5145Z" fill="#40FFB7"/>
<path d="M30.0096 27.2787L30.5781 27.0089L30.6308 26.7386L30.0593 27.0249L30.0096 27.2787Z" fill="#56FFA0"/>
<path d="M30.0592 27.0247L30.6307 26.7384L30.6551 26.4576L30.0816 26.7597L30.0592 27.0247Z" fill="#6DFF8A"/>
<path d="M30.0816 26.7597L30.6551 26.4577L30.6503 26.1737L30.0761 26.4903L30.0816 26.7597Z" fill="#87FF70"/>
<path d="M30.0761 26.4904L30.6503 26.1738L30.6164 25.894L30.0426 26.2236L30.0761 26.4904Z" fill="#9DFF5A"/>
<path d="M30.0426 26.2234L30.6163 25.8938L30.554 25.6255L29.982 25.9662L30.0426 26.2234Z" fill="#B4FF43"/>
<path d="M29.9822 25.9662L30.5542 25.6254L30.4651 25.3758L29.8959 25.7255L29.9822 25.9662Z" fill="#CAFF2C"/>
<path d="M29.8958 25.7258L30.465 25.376L30.3513 25.1516L29.7861 25.508L29.8958 25.7258Z" fill="#DEFF19"/>
<path d="M29.7861 25.5079L30.3513 25.1515L30.216 24.9585L29.6558 25.3188L29.7861 25.5079Z" fill="#EEFF09"/>
<path d="M28.8294 24.9478L29.3543 24.6084L29.1771 24.6746L28.66 25.0024L28.8294 24.9478Z" fill="#FFDE00"/>
<path d="M29.6557 25.3189L30.2159 24.9586L30.0625 24.802L29.5082 25.1636L29.6557 25.3189Z" fill="#FBF100"/>
<path d="M29.0036 24.9369L29.5363 24.588L29.3544 24.6084L28.8295 24.9478L29.0036 24.9369Z" fill="#FFDB00"/>
<path d="M29.5083 25.1634L30.0627 24.8018L29.8952 24.6861L29.3476 25.0461L29.5083 25.1634Z" fill="#FFE600"/>
<path d="M29.1777 24.9701L29.7181 24.6143L29.5362 24.5882L29.0035 24.937L29.1777 24.9701Z" fill="#FFD700"/>
<path d="M29.3476 25.0461L29.8952 24.686L29.7182 24.6141L29.1778 24.9699L29.3476 25.0461Z" fill="#FFDB00"/>
<path d="M28.5374 28.437L29.2592 28.2436L29.4226 28.1716L28.6927 28.3747L28.5374 28.437Z" fill="#00D8FF"/>
<path d="M28.6929 28.3748L29.4228 28.1718L29.5757 28.0596L28.8381 28.2732L28.6929 28.3748Z" fill="#00E4F8"/>
<path d="M28.8379 28.2731L29.5755 28.0595L29.714 27.91L28.9693 28.1347L28.8379 28.2731Z" fill="#0CF4EB"/>
<path d="M28.9695 28.1347L29.7142 27.91L29.8347 27.7268L29.0836 27.9629L28.9695 28.1347Z" fill="#1CFFDB"/>
<path d="M29.0835 27.963L29.8347 27.727L29.934 27.5147L29.1774 27.7621L29.0835 27.963Z" fill="#2CFFCA"/>
<path d="M29.1775 27.7619L29.9341 27.5145L30.0096 27.2785L29.2486 27.5369L29.1775 27.7619Z" fill="#43FFB4"/>
<path d="M29.2484 27.5371L30.0094 27.2787L30.0591 27.0249L29.2949 27.2937L29.2484 27.5371Z" fill="#56FFA0"/>
<path d="M29.2951 27.2937L30.0593 27.0249L30.0817 26.7599L29.3155 27.0383L29.2951 27.2937Z" fill="#6DFF8A"/>
<path d="M29.3155 27.038L30.0817 26.7596L30.0762 26.4902L29.3093 26.7771L29.3155 27.038Z" fill="#83FF73"/>
<path d="M29.3094 26.7771L30.0762 26.4902L30.0428 26.2233L29.2766 26.5175L29.3094 26.7771Z" fill="#9AFF5D"/>
<path d="M29.2764 26.5176L30.0426 26.2234L29.982 25.9663L29.2178 26.2661L29.2764 26.5176Z" fill="#B1FF46"/>
<path d="M29.2178 26.2662L29.982 25.9663L29.8957 25.7256L29.1348 26.0296L29.2178 26.2662Z" fill="#C4FF33"/>
<path d="M29.1349 26.0295L29.8958 25.7255L29.7861 25.5078L29.0297 25.8141L29.1349 26.0295Z" fill="#D7FF1F"/>
<path d="M28.1175 25.2313L28.8292 24.948L28.6599 25.0026L27.9567 25.2767L28.1175 25.2313Z" fill="#FFE600"/>
<path d="M29.0299 25.8142L29.7863 25.5079L29.6559 25.3188L28.9052 25.6257L29.0299 25.8142Z" fill="#E7FF0F"/>
<path d="M28.2832 25.2282L29.0036 24.9369L28.8294 24.9478L28.1177 25.2311L28.2832 25.2282Z" fill="#FFE200"/>
<path d="M28.905 25.6258L29.6558 25.3189L29.5083 25.1637L28.7641 25.4693L28.905 25.6258Z" fill="#F4F802"/>
<path d="M28.449 25.2677L29.1777 24.9701L29.0034 24.937L28.2831 25.2282L28.449 25.2677Z" fill="#FFE200"/>
<path d="M28.7641 25.4692L29.5082 25.1636L29.3475 25.0463L28.6107 25.3488L28.7641 25.4692Z" fill="#FEED00"/>
<path d="M28.6109 25.3487L29.3476 25.0461L29.1779 24.9699L28.4491 25.2676L28.6109 25.3487Z" fill="#FFE200"/>
<path d="M27.6767 28.6493L28.5374 28.437L28.6927 28.3747L27.8236 28.5943L27.6767 28.6493Z" fill="#00DCFE"/>
<path d="M27.8237 28.5944L28.6929 28.3748L28.8381 28.2733L27.961 28.5L27.8237 28.5944Z" fill="#02E8F4"/>
<path d="M27.9609 28.4999L28.838 28.2732L28.9693 28.1348L28.0849 28.3684L27.9609 28.4999Z" fill="#0FF8E7"/>
<path d="M28.0849 28.3684L28.9693 28.1348L29.0835 27.963L28.1924 28.2031L28.0849 28.3684Z" fill="#1FFFD7"/>
<path d="M28.1925 28.2029L29.0835 27.9628L29.1774 27.7619L28.2808 28.0077L28.1925 28.2029Z" fill="#30FFC7"/>
<path d="M28.2806 28.0078L29.1772 27.762L29.2484 27.5369L28.3473 27.7878L28.2806 28.0078Z" fill="#43FFB4"/>
<path d="M28.3475 27.7879L29.2486 27.537L29.295 27.2936L28.3906 27.5487L28.3475 27.7879Z" fill="#5AFF9D"/>
<path d="M28.3906 27.5486L29.295 27.2936L29.3155 27.0381L28.4091 27.2963L28.3906 27.5486Z" fill="#6DFF8A"/>
<path d="M28.409 27.2963L29.3154 27.0381L29.3092 26.7772L28.4022 27.0375L28.409 27.2963Z" fill="#83FF73"/>
<path d="M28.4023 27.0374L29.3093 26.7771L29.2765 26.5175L28.3703 26.7788L28.4023 27.0374Z" fill="#9AFF5D"/>
<path d="M28.3702 26.7788L29.2764 26.5175L29.2178 26.2661L28.3137 26.5272L28.3702 26.7788Z" fill="#B1FF46"/>
<path d="M28.3139 26.5274L29.218 26.2663L29.135 26.0297L28.2344 26.2895L28.3139 26.5274Z" fill="#C4FF33"/>
<path d="M28.2342 26.2896L29.1349 26.0297L29.0297 25.8143L28.1338 26.0718L28.2342 26.2896Z" fill="#D7FF1F"/>
<path d="M27.4246 25.4605L28.2833 25.2281L28.1177 25.2311L27.2679 25.4567L27.4246 25.4605Z" fill="#FFE600"/>
<path d="M28.1339 26.0717L29.0298 25.8142L28.9051 25.6257L28.015 25.8798L28.1339 26.0717Z" fill="#E4FF13"/>
<path d="M27.5816 25.5064L28.4489 25.2677L28.2831 25.2282L27.4244 25.4605L27.5816 25.5064Z" fill="#FFE600"/>
<path d="M28.0148 25.8798L28.9049 25.6257L28.764 25.4691L27.8808 25.7189L28.0148 25.8798Z" fill="#F1FC06"/>
<path d="M27.735 25.5934L28.6106 25.3488L28.4489 25.2678L27.5815 25.5066L27.735 25.5934Z" fill="#FFE600"/>
<path d="M27.8809 25.7188L28.7642 25.4691L28.6108 25.3487L27.7352 25.5933L27.8809 25.7188Z" fill="#FEED00"/>
<path d="M26.9718 28.7753L27.8936 28.552L27.751 28.627L26.828 28.8513L26.9718 28.7753Z" fill="#00E4F8"/>
<path d="M27.1039 28.6603L28.0248 28.4386L27.8937 28.5519L26.9719 28.7752L27.1039 28.6603Z" fill="#0CF4EB"/>
<path d="M27.2206 28.5095L28.1409 28.2898L28.0247 28.4387L27.1038 28.6605L27.2206 28.5095Z" fill="#19FFDE"/>
<path d="M27.3192 28.326L28.2392 28.1089L28.141 28.2897L27.2207 28.5094L27.3192 28.326Z" fill="#29FFCE"/>
<path d="M27.3969 28.1147L28.317 27.9007L28.2393 28.1089L27.3193 28.326L27.3969 28.1147Z" fill="#3CFFBA"/>
<path d="M27.4514 27.881L28.372 27.6703L28.3169 27.9006L27.3968 28.1147L27.4514 27.881Z" fill="#53FFA4"/>
<path d="M27.4815 27.6307L28.403 27.4237L28.372 27.6703L27.4514 27.8809L27.4815 27.6307Z" fill="#66FF90"/>
<path d="M27.4861 27.3703L28.4088 27.1672L28.4029 27.4236L27.4814 27.6306L27.4861 27.3703Z" fill="#7DFF7A"/>
<path d="M27.4651 27.1068L28.3893 26.9076L28.4087 27.1672L27.4861 27.3703L27.4651 27.1068Z" fill="#94FF63"/>
<path d="M27.419 26.847L28.345 26.6518L28.3893 26.9077L27.4652 27.1069L27.419 26.847Z" fill="#AAFF4D"/>
<path d="M27.3487 26.5976L28.2767 26.4062L28.3449 26.6517L27.4189 26.8469L27.3487 26.5976Z" fill="#BEFF39"/>
<path d="M27.2562 26.3656L28.1863 26.1777L28.2766 26.4063L27.3487 26.5977L27.2562 26.3656Z" fill="#D1FF26"/>
<path d="M26.4022 25.6293L27.3458 25.4532L27.5033 25.4782L26.5617 25.6547L26.4022 25.6293Z" fill="#FFE200"/>
<path d="M27.1439 26.1566L28.0763 25.972L28.1864 26.1775L27.2562 26.3654L27.1439 26.1566Z" fill="#E1FF16"/>
<path d="M26.5616 25.655L27.5032 25.4784L27.659 25.545L26.7196 25.7227L26.5616 25.655Z" fill="#FFE600"/>
<path d="M27.015 25.9769L27.9497 25.7951L28.0766 25.9721L27.1442 26.1567L27.015 25.9769Z" fill="#EEFF09"/>
<path d="M26.7197 25.7226L27.6591 25.5449L27.8092 25.6514L26.8721 25.8309L26.7197 25.7226Z" fill="#FFEA00"/>
<path d="M26.872 25.831L27.8091 25.6515L27.9495 25.7952L27.0147 25.977L26.872 25.831Z" fill="#FBF100"/>
<path d="M26.0411 29.023L26.972 28.7753L26.8282 28.8513L25.8925 29.1017L26.0411 29.023Z" fill="#00E0FB"/>
<path d="M26.177 28.9036L27.1038 28.6604L26.9718 28.7752L26.0409 29.0229L26.177 28.9036Z" fill="#09F0EE"/>
<path d="M26.2975 28.7467L27.2208 28.5093L27.104 28.6603L26.1773 28.9036L26.2975 28.7467Z" fill="#16FFE1"/>
<path d="M26.3985 28.5563L27.3191 28.326L27.2206 28.5094L26.2973 28.7469L26.3985 28.5563Z" fill="#29FFCE"/>
<path d="M26.4778 28.3367L27.3967 28.1147L27.3191 28.326L26.3985 28.5562L26.4778 28.3367Z" fill="#3CFFBA"/>
<path d="M26.5332 28.0936L27.4513 27.8809L27.3967 28.1147L26.4778 28.3366L26.5332 28.0936Z" fill="#50FFA7"/>
<path d="M26.5633 27.8335L27.4815 27.6308L27.4514 27.8811L26.5334 28.0938L26.5633 27.8335Z" fill="#66FF90"/>
<path d="M26.5668 27.5628L27.4862 27.3705L27.4815 27.6308L26.5633 27.8335L26.5668 27.5628Z" fill="#7DFF7A"/>
<path d="M26.5438 27.2885L27.4652 27.1069L27.4862 27.3704L26.5668 27.5627L26.5438 27.2885Z" fill="#94FF63"/>
<path d="M26.4945 27.0181L27.4189 26.847L27.4651 27.1068L26.5436 27.2885L26.4945 27.0181Z" fill="#AAFF4D"/>
<path d="M26.4206 26.7586L27.349 26.5976L27.4192 26.8469L26.4947 27.018L26.4206 26.7586Z" fill="#C1FF36"/>
<path d="M26.3235 26.517L27.2564 26.3655L27.3488 26.5976L26.4205 26.7586L26.3235 26.517Z" fill="#D4FF23"/>
<path d="M25.4342 25.7503L26.4022 25.6294L26.5616 25.6548L25.5996 25.7769L25.4342 25.7503Z" fill="#FFDE00"/>
<path d="M26.2059 26.2997L27.144 26.1567L27.2563 26.3655L26.3234 26.517L26.2059 26.2997Z" fill="#E4FF13"/>
<path d="M25.5996 25.7769L26.5616 25.6548L26.7197 25.7226L25.7638 25.8475L25.5996 25.7769Z" fill="#FFDE00"/>
<path d="M26.0711 26.1124L27.0149 25.9769L27.1441 26.1567L26.206 26.2996L26.0711 26.1124Z" fill="#F1FC06"/>
<path d="M25.7639 25.8477L26.7198 25.7227L26.8722 25.8311L25.9224 25.9605L25.7639 25.8477Z" fill="#FFE600"/>
<path d="M25.9223 25.9604L26.872 25.8309L27.0147 25.9769L26.071 26.1125L25.9223 25.9604Z" fill="#FEED00"/>
<path d="M25.0012 29.3793L25.8925 29.1017L25.7353 29.138L24.8351 29.4176L25.0012 29.3793Z" fill="#00CCFF"/>
<path d="M25.1579 29.2958L26.041 29.0228L25.8924 29.1015L25.0011 29.3791L25.1579 29.2958Z" fill="#00D8FF"/>
<path d="M25.3014 29.1695L26.1773 28.9035L26.0411 29.0228L25.158 29.2958L25.3014 29.1695Z" fill="#02E8F4"/>
<path d="M25.4278 29.0033L26.2974 28.7468L26.1771 28.9036L25.3013 29.1696L25.4278 29.0033Z" fill="#13FCE4"/>
<path d="M25.534 28.8013L26.3986 28.5564L26.2975 28.7469L25.4279 29.0035L25.534 28.8013Z" fill="#23FFD4"/>
<path d="M25.6168 28.5682L26.4779 28.3366L26.3985 28.5561L25.5339 28.8011L25.6168 28.5682Z" fill="#39FFBE"/>
<path d="M25.6743 28.3104L26.5333 28.0937L26.4779 28.3367L25.6168 28.5683L25.6743 28.3104Z" fill="#50FFA7"/>
<path d="M25.7046 28.0341L26.5632 27.8335L26.5332 28.0938L25.6742 28.3104L25.7046 28.0341Z" fill="#66FF90"/>
<path d="M25.7073 27.7466L26.5669 27.5628L26.5634 27.8335L25.7048 28.0341L25.7073 27.7466Z" fill="#7DFF7A"/>
<path d="M25.6813 27.4553L26.5436 27.2886L26.5667 27.5628L25.707 27.7465L25.6813 27.4553Z" fill="#97FF60"/>
<path d="M25.6279 27.1678L26.4944 27.018L26.5436 27.2884L25.6813 27.4551L25.6279 27.1678Z" fill="#ADFF49"/>
<path d="M25.5483 26.8921L26.4204 26.7586L26.4945 27.0181L25.6279 27.1679L25.5483 26.8921Z" fill="#C4FF33"/>
<path d="M25.4444 26.6352L26.3234 26.517L26.4205 26.7586L25.5483 26.8921L25.4444 26.6352Z" fill="#D7FF1F"/>
<path d="M24.4991 25.82L25.4344 25.7504L25.5998 25.777L24.6744 25.8483L24.4991 25.82Z" fill="#FFD700"/>
<path d="M25.3189 26.4043L26.206 26.2998L26.3235 26.5171L25.4445 26.6354L25.3189 26.4043Z" fill="#EBFF0C"/>
<path d="M24.6741 25.8483L25.5996 25.777L25.7637 25.8476L24.8483 25.9234L24.6741 25.8483Z" fill="#FFD700"/>
<path d="M25.1751 26.2052L26.071 26.1125L26.2059 26.2998L25.3189 26.4042L25.1751 26.2052Z" fill="#F8F500"/>
<path d="M24.8483 25.9234L25.7637 25.8476L25.9223 25.9605L25.0168 26.0434L24.8483 25.9234Z" fill="#FFDB00"/>
<path d="M25.017 26.0434L25.9225 25.9604L26.0712 26.1124L25.1752 26.2051L25.017 26.0434Z" fill="#FFE600"/>
<path d="M22.1565 30.1899L22.7441 29.8658L22.5553 29.7027L21.9496 30.011L22.1565 30.1899Z" fill="#00A0FF"/>
<path d="M21.9497 30.011L22.5554 29.7027L22.3801 29.4949L21.7572 29.7832L21.9497 30.011Z" fill="#00B0FF"/>
<path d="M22.3727 30.3153L22.9415 29.98L22.744 29.8657L22.1564 30.1897L22.3727 30.3153Z" fill="#0094FF"/>
<path d="M21.7571 29.783L22.38 29.4946L22.2224 29.2473L21.5839 29.512L21.7571 29.783Z" fill="#00C4FF"/>
<path d="M22.593 30.3844L23.1427 30.0428L22.9415 29.9801L22.3727 30.3154L22.593 30.3844Z" fill="#0094FF"/>
<path d="M21.5838 29.5122L22.2223 29.2476L22.0865 28.9669L21.4343 29.2046L21.5838 29.5122Z" fill="#00E0FB"/>
<path d="M22.8118 30.395L23.3428 30.0522L23.1428 30.0429L22.5931 30.3844L22.8118 30.395Z" fill="#0094FF"/>
<path d="M21.4344 29.2045L22.0866 28.9667L21.9761 28.6596L21.3124 28.8679L21.4344 29.2045Z" fill="#13FCE4"/>
<path d="M23.0237 30.3468L23.5366 30.0078L23.3429 30.0522L22.8119 30.395L23.0237 30.3468Z" fill="#009CFF"/>
<path d="M21.3125 28.8681L21.9761 28.6597L21.8937 28.3338L21.2211 28.5109L21.3125 28.8681Z" fill="#30FFC7"/>
<path d="M23.2229 30.2407L23.719 29.9106L23.5365 30.0078L23.0235 30.3468L23.2229 30.2407Z" fill="#00ACFF"/>
<path d="M21.2209 28.5106L21.8935 28.3336L21.8414 27.997L21.1625 28.1417L21.2209 28.5106Z" fill="#49FFAD"/>
<path d="M21.1625 28.1419L21.8414 27.9972L21.821 27.6585L21.1389 27.7706L21.1625 28.1419Z" fill="#6AFF8D"/>
<path d="M21.1389 27.7706L21.821 27.6585L21.8331 27.3264L21.1508 27.4063L21.1389 27.7706Z" fill="#87FF70"/>
<path d="M21.1508 27.4062L21.8332 27.3263L21.8777 27.0092L21.1982 27.0583L21.1508 27.4062Z" fill="#A7FF50"/>
<path d="M21.1981 27.0585L21.8776 27.0094L21.9534 26.7157L21.2799 26.7362L21.1981 27.0585Z" fill="#C4FF33"/>
<path d="M21.2801 26.736L21.9536 26.7156L22.059 26.453L21.3944 26.4478L21.2801 26.736Z" fill="#DEFF19"/>
<path d="M21.3941 26.4479L22.0588 26.4531L22.1911 26.2288L21.5382 26.2015L21.3941 26.4479Z" fill="#F8F500"/>
<path d="M21.5383 26.2014L22.1912 26.2287L22.3473 26.0486L21.7085 26.0036L21.5383 26.2014Z" fill="#FFDB00"/>
<path d="M21.7084 26.0038L22.3472 26.0488L22.523 25.918L21.9004 25.86L21.7084 26.0038Z" fill="#FFC800"/>
<path d="M21.9004 25.8599L22.523 25.9179L22.7138 25.8401L22.1091 25.7743L21.9004 25.8599Z" fill="#FFB900"/>
<path d="M22.1093 25.7743L22.714 25.8401L22.9149 25.8176L22.3293 25.7494L22.1093 25.7743Z" fill="#FFAE00"/>
<path d="M21.7212 30.5152L22.1565 30.1899L21.9495 30.011L21.494 30.3188L21.7212 30.5152Z" fill="#008CFF"/>
<path d="M21.4939 30.3188L21.9495 30.0109L21.757 29.7832L21.2825 30.0688L21.4939 30.3188Z" fill="#009CFF"/>
<path d="M21.9584 30.6531L22.3727 30.3153L22.1564 30.1897L21.7211 30.5151L21.9584 30.6531Z" fill="#0080FF"/>
<path d="M21.2824 30.0688L21.757 29.7832L21.5838 29.5122L21.092 29.7714L21.2824 30.0688Z" fill="#00B4FF"/>
<path d="M22.2 30.7291L22.593 30.3842L22.3727 30.3152L21.9584 30.6531L22.2 30.7291Z" fill="#007CFF"/>
<path d="M21.0919 29.7714L21.5837 29.5122L21.4342 29.2046L20.9272 29.4339L21.0919 29.7714Z" fill="#00D0FF"/>
<path d="M22.4398 30.7412L22.8118 30.3949L22.593 30.3843L22.2 30.7292L22.4398 30.7412Z" fill="#007CFF"/>
<path d="M20.9273 29.4339L21.4344 29.2046L21.3123 28.8681L20.7926 29.0646L20.9273 29.4339Z" fill="#09F0EE"/>
<path d="M22.6718 30.6886L23.0235 30.3466L22.8118 30.3948L22.4398 30.7411L22.6718 30.6886Z" fill="#0088FF"/>
<path d="M20.7925 29.0646L21.3122 28.8681L21.2208 28.5109L20.6913 28.6726L20.7925 29.0646Z" fill="#26FFD1"/>
<path d="M22.8903 30.5728L23.223 30.2406L23.0236 30.3466L22.6719 30.6887L22.8903 30.5728Z" fill="#0098FF"/>
<path d="M20.6913 28.6724L21.2209 28.5108L21.1626 28.1419L20.6262 28.2675L20.6913 28.6724Z" fill="#46FFB1"/>
<path d="M23.0896 30.3959L23.405 30.079L23.223 30.2405L22.8904 30.5727L23.0896 30.3959Z" fill="#00ACFF"/>
<path d="M20.6262 28.2676L21.1625 28.142L21.1389 27.7707L20.5991 27.8598L20.6262 28.2676Z" fill="#66FF90"/>
<path d="M20.5991 27.8599L21.1389 27.7707L21.1508 27.4064L20.611 27.4597L20.5991 27.8599Z" fill="#8AFF6D"/>
<path d="M20.6111 27.4596L21.1509 27.4064L21.1982 27.0585L20.6618 27.0774L20.6111 27.4596Z" fill="#AAFF4D"/>
<path d="M20.6618 27.0773L21.1982 27.0585L21.28 26.7362L20.7504 26.723L20.6618 27.0773Z" fill="#CAFF2C"/>
<path d="M20.7505 26.723L21.28 26.7362L21.3943 26.448L20.875 26.406L20.7505 26.723Z" fill="#E7FF0F"/>
<path d="M20.8748 26.406L21.3942 26.448L21.5382 26.2016L21.0321 26.1349L20.8748 26.406Z" fill="#FFE600"/>
<path d="M21.0321 26.1347L21.5382 26.2014L21.7084 26.0035L21.2183 25.9169L21.0321 26.1347Z" fill="#FFCC00"/>
<path d="M21.2185 25.9171L21.7086 26.0037L21.9006 25.86L21.4288 25.7587L21.2185 25.9171Z" fill="#FFB600"/>
<path d="M21.4286 25.7587L21.9004 25.86L22.1091 25.7744L21.6576 25.6643L21.4286 25.7587Z" fill="#FFA300"/>
<path d="M21.6576 25.6642L22.1092 25.7743L22.3292 25.7494L21.8992 25.6367L21.6576 25.6642Z" fill="#FF9800"/>
<path d="M21.8992 25.6368L22.3292 25.7495L22.5547 25.7862L22.147 25.6771L21.8992 25.6368Z" fill="#FF9400"/>
<path d="M22.1469 25.6769L22.5546 25.786L22.7795 25.8835L22.3942 25.7842L22.1469 25.6769Z" fill="#FF9400"/>
<path d="M21.4327 30.8285L21.7212 30.5152L21.494 30.3187L21.1837 30.6132L21.4327 30.8285Z" fill="#0074FF"/>
<path d="M21.1838 30.6132L21.4941 30.3187L21.2826 30.0687L20.952 30.3394L21.1838 30.6132Z" fill="#0084FF"/>
<path d="M21.6926 30.9799L21.9586 30.6532L21.7212 30.5152L21.4327 30.8286L21.6926 30.9799Z" fill="#0068FF"/>
<path d="M20.9518 30.3393L21.2825 30.0686L21.092 29.7712L20.7429 30.0135L20.9518 30.3393Z" fill="#00A0FF"/>
<path d="M21.9569 31.0634L22.1999 30.7291L21.9584 30.6531L21.6924 30.9798L21.9569 31.0634Z" fill="#0064FF"/>
<path d="M20.7429 30.0136L21.0921 29.7713L20.9274 29.4337L20.562 29.6439L20.7429 30.0136Z" fill="#00C0FF"/>
<path d="M22.2195 31.077L22.4398 30.7411L22.2 30.7291L21.957 31.0634L22.2195 31.077Z" fill="#0064FF"/>
<path d="M20.5621 29.644L20.9275 29.4338L20.7927 29.0645L20.4138 29.2394L20.5621 29.644Z" fill="#00E4F8"/>
<path d="M22.4737 31.0201L22.6719 30.6887L22.4399 30.7412L22.2197 31.0771L22.4737 31.0201Z" fill="#0070FF"/>
<path d="M20.4138 29.2394L20.7927 29.0645L20.6915 28.6724L20.3021 28.8099L20.4138 29.2394Z" fill="#1FFFD7"/>
<path d="M22.7126 30.8938L22.8902 30.573L22.6718 30.6889L22.4735 31.0203L22.7126 30.8938Z" fill="#0080FF"/>
<path d="M20.3021 28.81L20.6914 28.6725L20.6263 28.2675L20.2299 28.3662L20.3021 28.81Z" fill="#40FFB7"/>
<path d="M22.9308 30.7005L23.0896 30.396L22.8904 30.5728L22.7128 30.8937L22.9308 30.7005Z" fill="#0098FF"/>
<path d="M20.2297 28.3661L20.6262 28.2674L20.5991 27.8597L20.1991 27.9192L20.2297 28.3661Z" fill="#66FF90"/>
<path d="M23.1222 30.445L23.2644 30.1625L23.0895 30.396L22.9308 30.7005L23.1222 30.445Z" fill="#00B4FF"/>
<path d="M20.1991 27.9191L20.5991 27.8596L20.6109 27.4595L20.2111 27.4803L20.1991 27.9191Z" fill="#8AFF6D"/>
<path d="M20.2114 27.4804L20.6112 27.4596L20.6619 27.0774L20.266 27.0611L20.2114 27.4804Z" fill="#ADFF49"/>
<path d="M20.2659 27.0611L20.6618 27.0775L20.7504 26.7231L20.3622 26.6722L20.2659 27.0611Z" fill="#D1FF26"/>
<path d="M20.3622 26.6722L20.7505 26.7231L20.8749 26.4061L20.4978 26.324L20.3622 26.6722Z" fill="#F4F802"/>
<path d="M20.4979 26.324L20.875 26.406L21.0323 26.1349L20.6697 26.026L20.4979 26.324Z" fill="#FFD700"/>
<path d="M20.6697 26.026L21.0323 26.1348L21.2185 25.917L20.8733 25.7866L20.6697 26.026Z" fill="#FFB900"/>
<path d="M20.8734 25.7865L21.2185 25.9169L21.4288 25.7586L21.1036 25.6122L20.8734 25.7865Z" fill="#FF9F00"/>
<path d="M21.1036 25.6122L21.4287 25.7585L21.6577 25.6642L21.3545 25.5083L21.1036 25.6122Z" fill="#FF8D00"/>
<path d="M21.3545 25.5085L21.6577 25.6644L21.8993 25.6368L21.6195 25.478L21.3545 25.5085Z" fill="#FF8200"/>
<path d="M21.6194 25.4778L21.8992 25.6367L22.147 25.677L21.8914 25.5219L21.6194 25.4778Z" fill="#FF7A00"/>
<path d="M21.8913 25.522L22.1469 25.6771L22.3942 25.7844L22.1628 25.6398L21.8913 25.522Z" fill="#FF7E00"/>
<path d="M23.2643 30.1624L23.5646 29.8659L23.4048 30.0791L23.0895 30.396L23.2643 30.1624Z" fill="#00C8FF"/>
<path d="M21.2185 31.5414L21.2122 31.3574L20.9177 31.1027L20.9017 31.2674L21.2185 31.5414Z" fill="#0028FF"/>
<path d="M20.9017 31.2675L20.9177 31.1028L20.6434 30.7791L20.6064 30.9192L20.9017 31.2675Z" fill="#0040FF"/>
<path d="M21.5494 31.7348L21.5197 31.5369L21.2123 31.3576L21.2186 31.5416L21.5494 31.7348Z" fill="#0018FF"/>
<path d="M20.6067 30.9193L20.6436 30.7791L20.3961 30.3942L20.3403 30.5051L20.6067 30.9193Z" fill="#0060FF"/>
<path d="M21.8861 31.842L21.8325 31.6363L21.5198 31.5368L21.5495 31.7346L21.8861 31.842Z" fill="#0010FF"/>
<path d="M20.3403 30.5051L20.3961 30.3942L20.1816 29.9573L20.1094 30.0351L20.3403 30.5051Z" fill="#0088FF"/>
<path d="M22.2201 31.8607L22.1428 31.6535L21.8323 31.6365L21.8859 31.8421L22.2201 31.8607Z" fill="#0014FF"/>
<path d="M20.1092 30.035L20.1815 29.9572L20.0054 29.4789L19.9196 29.5203L20.1092 30.035Z" fill="#00B4FF"/>
<path d="M22.544 31.7897L22.4435 31.5871L22.143 31.6534L22.2203 31.8606L22.544 31.7897Z" fill="#0020FF"/>
<path d="M19.9196 29.5203L20.0054 29.4789L19.8723 28.9709L19.7761 28.9735L19.9196 29.5203Z" fill="#02E8F4"/>
<path d="M22.8489 31.6301L22.7265 31.4384L22.4434 31.5869L22.5439 31.7895L22.8489 31.6301Z" fill="#0038FF"/>
<path d="M19.776 28.9736L19.8723 28.971L19.7857 28.4457L19.6826 28.408L19.776 28.9736Z" fill="#30FFC7"/>
<path d="M23.1275 31.386L22.9849 31.2112L22.7265 31.4386L22.8489 31.6304L23.1275 31.386Z" fill="#0054FF"/>
<path d="M19.6827 28.4081L19.7858 28.4458L19.7483 27.9163L19.642 27.8378L19.6827 28.4081Z" fill="#60FF97"/>
<path d="M23.3723 31.0617L23.2118 30.9097L22.9847 31.211L23.1273 31.3858L23.3723 31.0617Z" fill="#007CFF"/>
<path d="M19.6418 27.8376L19.7482 27.9162L19.7611 27.396L19.6554 27.277L19.6418 27.8376Z" fill="#8DFF6A"/>
<path d="M23.5771 30.6658L23.4014 30.5417L23.2118 30.9099L23.3723 31.0619L23.5771 30.6658Z" fill="#00A8FF"/>
<path d="M19.6555 27.277L19.7612 27.396L19.8247 26.8984L19.7236 26.7404L19.6555 27.277Z" fill="#BEFF39"/>
<path d="M23.7361 30.2069L23.5484 30.1155L23.4014 30.5416L23.5771 30.6657L23.7361 30.2069Z" fill="#00D8FF"/>
<path d="M19.7235 26.7407L19.8246 26.8986L19.9374 26.4366L19.8448 26.2422L19.7235 26.7407Z" fill="#EBFF0C"/>
<path d="M23.845 29.6969L23.6488 29.642L23.5486 30.1155L23.7363 30.207L23.845 29.6969Z" fill="#23FFD4"/>
<path d="M19.8449 26.2422L19.9376 26.4366L20.0973 26.0226L20.0168 25.7952L19.8449 26.2422Z" fill="#FFD300"/>
<path d="M23.8998 29.1481L23.6991 29.1328L23.6487 29.6419L23.8448 29.6967L23.8998 29.1481Z" fill="#50FFA7"/>
<path d="M20.0168 25.7951L20.0972 26.0225L20.3001 25.6677L20.2352 25.4119L20.0168 25.7951Z" fill="#FFA700"/>
<path d="M23.8992 28.5751L23.698 28.6014L23.6992 29.1329L23.8999 29.1482L23.8992 28.5751Z" fill="#80FF77"/>
<path d="M20.2353 25.4119L20.3002 25.6677L20.5411 25.3822L20.4949 25.1033L20.2353 25.4119Z" fill="#FF8200"/>
<path d="M23.8423 27.9928L23.6447 28.0616L23.698 28.6016L23.8992 28.5753L23.8423 27.9928Z" fill="#B1FF46"/>
<path d="M20.4949 25.1033L20.5411 25.3823L20.814 25.1742L20.7892 24.8781L20.4949 25.1033Z" fill="#FF6000"/>
<path d="M23.7303 27.4163L23.5404 27.5273L23.6447 28.0614L23.8423 27.9926L23.7303 27.4163Z" fill="#DEFF19"/>
<path d="M20.789 24.8779L20.8139 25.174L21.1117 25.0495L21.1103 24.7429L20.789 24.8779Z" fill="#FF4A00"/>
<path d="M23.5657 26.8618L23.3875 27.0136L23.5403 27.5273L23.7302 27.4163L23.5657 26.8618Z" fill="#FFE200"/>
<path d="M21.1103 24.743L21.1116 25.0496L21.4264 25.0125L21.4499 24.7024L21.1103 24.743Z" fill="#FF3800"/>
<path d="M23.3531 26.3442L23.1901 26.5341L23.3876 27.0135L23.5659 26.8617L23.3531 26.3442Z" fill="#FFB200"/>
<path d="M21.4502 24.7022L21.4267 25.0123L21.7499 25.0642L21.7991 24.7578L21.4502 24.7022Z" fill="#FF3000"/>
<path d="M23.0974 25.8781L22.9531 26.1025L23.1901 26.5342L23.3531 26.3442L23.0974 25.8781Z" fill="#FF8D00"/>
<path d="M21.7988 24.758L21.7497 25.0644L22.0727 25.2042L22.1474 24.9085L21.7988 24.758Z" fill="#FF3400"/>
<path d="M22.8057 25.4764L22.6826 25.7304L22.9529 26.1026L23.0973 25.8782L22.8057 25.4764Z" fill="#FF6800"/>
<path d="M22.1475 24.9086L22.0727 25.2042L22.3866 25.4282L22.4862 25.1502L22.1475 24.9086Z" fill="#FF3B00"/>
<path d="M22.4862 25.1501L22.3866 25.4282L22.6827 25.7304L22.8057 25.4764L22.4862 25.1501Z" fill="#FF4E00"/>
<path d="M21.2124 31.3576L21.2725 31.1148L21.0009 30.8799L20.9179 31.103L21.2124 31.3576Z" fill="#0040FF"/>
<path d="M20.9177 31.1027L21.0007 30.8797L20.7476 30.581L20.6434 30.779L20.9177 31.1027Z" fill="#0058FF"/>
<path d="M21.5196 31.5368L21.5559 31.2799L21.2724 31.1146L21.2123 31.3575L21.5196 31.5368Z" fill="#0034FF"/>
<path d="M20.6435 30.7791L20.7477 30.5811L20.5196 30.2259L20.396 30.3941L20.6435 30.7791Z" fill="#0074FF"/>
<path d="M21.8324 31.6365L21.8444 31.3716L21.5559 31.2801L21.5196 31.537L21.8324 31.6365Z" fill="#002CFF"/>
<path d="M20.3961 30.3942L20.5197 30.2259L20.322 29.8228L20.1815 29.9573L20.3961 30.3942Z" fill="#009CFF"/>
<path d="M22.1428 31.6532L22.1307 31.3867L21.8443 31.3714L21.8324 31.6363L22.1428 31.6532Z" fill="#0030FF"/>
<path d="M20.1816 29.9572L20.322 29.8228L20.1599 29.3816L20.0055 29.479L20.1816 29.9572Z" fill="#00C4FF"/>
<path d="M22.4433 31.5871L22.4077 31.3252L22.1306 31.3868L22.1428 31.6534L22.4433 31.5871Z" fill="#003CFF"/>
<path d="M20.0054 29.479L20.1598 29.3816L20.0374 28.9131L19.8723 28.971L20.0054 29.479Z" fill="#0CF4EB"/>
<path d="M22.7264 31.4385L22.6685 31.1877L22.4077 31.3252L22.4433 31.587L22.7264 31.4385Z" fill="#0050FF"/>
<path d="M19.8723 28.971L20.0374 28.9131L19.958 28.4288L19.7858 28.4457L19.8723 28.971Z" fill="#36FFC1"/>
<path d="M22.9848 31.2111L22.9066 30.9775L22.6686 31.1878L22.7265 31.4386L22.9848 31.2111Z" fill="#006CFF"/>
<path d="M19.7857 28.4456L19.9579 28.4287L19.9238 27.9408L19.7482 27.9162L19.7857 28.4456Z" fill="#60FF97"/>
<path d="M23.2118 30.9097L23.1156 30.6992L22.9066 30.9774L22.9848 31.211L23.2118 30.9097Z" fill="#0090FF"/>
<path d="M19.7483 27.9162L19.9239 27.9408L19.9363 27.4616L19.7613 27.396L19.7483 27.9162Z" fill="#8DFF6A"/>
<path d="M23.4015 30.5416L23.2901 30.3595L23.1156 30.6991L23.2119 30.9097L23.4015 30.5416Z" fill="#00B8FF"/>
<path d="M19.7612 27.396L19.9363 27.4616L19.9952 27.0034L19.8247 26.8984L19.7612 27.396Z" fill="#B7FF40"/>
<path d="M23.5485 30.1156L23.4251 29.9666L23.29 30.3596L23.4015 30.5417L23.5485 30.1156Z" fill="#02E8F4"/>
<path d="M19.8248 26.8984L19.9953 27.0034L20.0997 26.5783L19.9376 26.4364L19.8248 26.8984Z" fill="#E1FF16"/>
<path d="M23.6486 29.642L23.5169 29.5301L23.425 29.9666L23.5484 30.1155L23.6486 29.642Z" fill="#29FFCE"/>
<path d="M19.9374 26.4364L20.0995 26.5782L20.247 26.1974L20.0971 26.0223L19.9374 26.4364Z" fill="#FFDE00"/>
<path d="M23.6991 29.1328L23.563 29.0611L23.517 29.53L23.6487 29.6419L23.6991 29.1328Z" fill="#53FFA4"/>
<path d="M20.0973 26.0225L20.2472 26.1977L20.4343 25.8716L20.3001 25.6678L20.0973 26.0225Z" fill="#FFB600"/>
<path d="M23.6979 28.6014L23.5616 28.5717L23.5631 29.0611L23.6991 29.1329L23.6979 28.6014Z" fill="#80FF77"/>
<path d="M20.3 25.6677L20.4342 25.8715L20.6563 25.6092L20.541 25.3822L20.3 25.6677Z" fill="#FF9400"/>
<path d="M23.6445 28.0616L23.5121 28.075L23.5615 28.5719L23.6978 28.6016L23.6445 28.0616Z" fill="#ADFF49"/>
<path d="M20.541 25.3822L20.6563 25.6093L20.9077 25.4183L20.814 25.1741L20.541 25.3822Z" fill="#FF7700"/>
<path d="M23.5404 27.5273L23.4161 27.5834L23.5123 28.0748L23.6446 28.0614L23.5404 27.5273Z" fill="#D7FF1F"/>
<path d="M20.8138 25.1741L20.9076 25.4183L21.1817 25.3043L21.1116 25.0496L20.8138 25.1741Z" fill="#FF6000"/>
<path d="M23.3875 27.0134L23.2752 27.1109L23.416 27.5834L23.5403 27.5272L23.3875 27.0134Z" fill="#FEED00"/>
<path d="M21.1117 25.0496L21.1818 25.3043L21.4714 25.2706L21.4265 25.0125L21.1117 25.0496Z" fill="#FF5200"/>
<path d="M23.1899 26.5343L23.0933 26.6704L23.2752 27.1111L23.3875 27.0137L23.1899 26.5343Z" fill="#FFC400"/>
<path d="M21.4265 25.0126L21.4715 25.2707L21.7688 25.3187L21.7498 25.0645L21.4265 25.0126Z" fill="#FF4A00"/>
<path d="M22.953 26.1026L22.8754 26.2735L23.0935 26.6704L23.1901 26.5343L22.953 26.1026Z" fill="#FF9F00"/>
<path d="M21.7498 25.0643L21.7688 25.3185L22.0658 25.4472L22.0728 25.2041L21.7498 25.0643Z" fill="#FF4A00"/>
<path d="M22.6829 25.7304L22.6269 25.9313L22.8754 26.2734L22.9531 26.1025L22.6829 25.7304Z" fill="#FF7E00"/>
<path d="M22.0728 25.2042L22.0659 25.4474L22.3545 25.6534L22.3867 25.4282L22.0728 25.2042Z" fill="#FF5500"/>
<path d="M22.3867 25.4281L22.3546 25.6534L22.6268 25.9313L22.6828 25.7304L22.3867 25.4281Z" fill="#FF6800"/>
<path d="M21.2725 31.1146L21.4328 30.8285L21.1838 30.6132L21.0009 30.8797L21.2725 31.1146Z" fill="#005CFF"/>
<path d="M21.0009 30.8796L21.1838 30.6131L20.9519 30.3393L20.7479 30.581L21.0009 30.8796Z" fill="#0070FF"/>
<path d="M21.5558 31.2799L21.6925 30.9798L21.4325 30.8284L21.2723 31.1146L21.5558 31.2799Z" fill="#004CFF"/>
<path d="M20.7479 30.5812L20.952 30.3395L20.743 30.0137L20.5197 30.226L20.7479 30.5812Z" fill="#008CFF"/>
<path d="M21.8444 31.3715L21.9571 31.0635L21.6926 30.9799L21.5559 31.28L21.8444 31.3715Z" fill="#0048FF"/>
<path d="M20.5195 30.226L20.7427 30.0138L20.5618 29.6441L20.3218 29.8229L20.5195 30.226Z" fill="#00ACFF"/>
<path d="M22.1306 31.3868L22.2195 31.0772L21.957 31.0635L21.8443 31.3715L22.1306 31.3868Z" fill="#004CFF"/>
<path d="M20.3219 29.8229L20.5619 29.6441L20.4137 29.2395L20.1598 29.3817L20.3219 29.8229Z" fill="#00D4FF"/>
<path d="M22.4077 31.3253L22.4736 31.0203L22.2196 31.0773L22.1307 31.3869L22.4077 31.3253Z" fill="#0054FF"/>
<path d="M20.1597 29.3816L20.4137 29.2395L20.3019 28.81L20.0373 28.9131L20.1597 29.3816Z" fill="#16FFE1"/>
<path d="M22.6686 31.1877L22.7126 30.8937L22.4735 31.0201L22.4077 31.3251L22.6686 31.1877Z" fill="#0068FF"/>
<path d="M20.0375 28.9132L20.3021 28.8101L20.2299 28.3663L19.9581 28.4289L20.0375 28.9132Z" fill="#3CFFBA"/>
<path d="M22.9067 30.9776L22.9308 30.7006L22.7127 30.8938L22.6686 31.1878L22.9067 30.9776Z" fill="#0080FF"/>
<path d="M19.9578 28.4288L20.2297 28.3662L20.1991 27.9192L19.9237 27.9409L19.9578 28.4288Z" fill="#63FF94"/>
<path d="M23.1156 30.6993L23.1222 30.4452L22.9308 30.7006L22.9066 30.9776L23.1156 30.6993Z" fill="#00A0FF"/>
<path d="M19.924 27.9408L20.1993 27.9191L20.2114 27.4803L19.9364 27.4615L19.924 27.9408Z" fill="#8DFF6A"/>
<path d="M23.2901 30.3595L23.2819 30.1334L23.1222 30.445L23.1156 30.6992L23.2901 30.3595Z" fill="#00C8FF"/>
<path d="M19.9362 27.4616L20.2112 27.4803L20.2659 27.061L19.9952 27.0034L19.9362 27.4616Z" fill="#B4FF43"/>
<path d="M23.4251 29.9665L23.4055 29.7731L23.2819 30.1333L23.29 30.3594L23.4251 29.9665Z" fill="#0CF4EB"/>
<path d="M19.9952 27.0033L20.2659 27.0609L20.3621 26.6719L20.0996 26.5782L19.9952 27.0033Z" fill="#DBFF1C"/>
<path d="M23.517 29.5301L23.4896 29.3733L23.4055 29.7732L23.4251 29.9666L23.517 29.5301Z" fill="#30FFC7"/>
<path d="M20.0996 26.5782L20.3622 26.672L20.4978 26.3238L20.2471 26.1974L20.0996 26.5782Z" fill="#FEED00"/>
<path d="M23.5631 29.0611L23.5317 28.9438L23.4897 29.3732L23.5171 29.5301L23.5631 29.0611Z" fill="#56FFA0"/>
<path d="M20.2473 26.1977L20.498 26.324L20.6697 26.0261L20.4344 25.8716L20.2473 26.1977Z" fill="#FFC800"/>
<path d="M23.5674 28.5719L23.5303 28.496L23.532 28.9439L23.5692 29.0613L23.5674 28.5719Z" fill="#80FF77"/>
<path d="M20.4343 25.8714L20.6696 26.0259L20.8732 25.7864L20.6563 25.6092L20.4343 25.8714Z" fill="#FFA700"/>
<path d="M23.5123 28.0748L23.4851 28.0414L23.5303 28.496L23.5617 28.5718L23.5123 28.0748Z" fill="#A7FF50"/>
<path d="M20.6563 25.6093L20.8732 25.7866L21.1035 25.6123L20.9077 25.4183L20.6563 25.6093Z" fill="#FF8D00"/>
<path d="M23.4161 27.5836L23.3971 27.5921L23.4851 28.0414L23.5123 28.0749L23.4161 27.5836Z" fill="#CEFF29"/>
<path d="M20.9078 25.4183L21.1036 25.6123L21.3546 25.5083L21.1819 25.3042L20.9078 25.4183Z" fill="#FF7700"/>
<path d="M23.2752 27.1111L23.2682 27.1602L23.3969 27.5921L23.416 27.5836L23.2752 27.1111Z" fill="#F4F802"/>
<path d="M21.1818 25.3041L21.3544 25.5083L21.6194 25.4778L21.4714 25.2705L21.1818 25.3041Z" fill="#FF6C00"/>
<path d="M23.0934 26.6701L23.102 26.7572L23.2682 27.16L23.2752 27.1109L23.0934 26.6701Z" fill="#FFD300"/>
<path d="M21.4715 25.2706L21.6195 25.4779L21.8915 25.5221L21.7688 25.3186L21.4715 25.2706Z" fill="#FF6400"/>
<path d="M22.8754 26.2734L22.9029 26.3947L23.1022 26.7573L23.0935 26.6703L22.8754 26.2734Z" fill="#FFB200"/>
<path d="M21.7688 25.3186L21.8914 25.522L22.163 25.6398L22.0658 25.4473L21.7688 25.3186Z" fill="#FF6400"/>
<path d="M22.6269 25.9312L22.6757 26.0821L22.9029 26.3947L22.8754 26.2733L22.6269 25.9312Z" fill="#FF9400"/>
<path d="M22.0658 25.4472L22.1629 25.6397L22.4267 25.8281L22.3544 25.6533L22.0658 25.4472Z" fill="#FF6C00"/>
<path d="M22.3544 25.6532L22.4267 25.828L22.6755 26.082L22.6267 25.9311L22.3544 25.6532Z" fill="#FF7E00"/>
<path d="M21.2567 31.6535L21.2186 31.5417L20.9018 31.2676L20.9187 31.3611L21.2567 31.6535Z" fill="#000CFF"/>
<path d="M20.9186 31.3611L20.9017 31.2676L20.6065 30.9193L20.6036 30.9895L20.9186 31.3611Z" fill="#0028FF"/>
<path d="M21.6098 31.8596L21.5494 31.7347L21.2187 31.5416L21.2568 31.6534L21.6098 31.8596Z" fill="#0000FF"/>
<path d="M20.6035 30.9895L20.6064 30.9193L20.34 30.5052L20.3192 30.5476L20.6035 30.9895Z" fill="#004CFF"/>
<path d="M21.9689 31.9743L21.8859 31.842L21.5493 31.7347L21.6096 31.8596L21.9689 31.9743Z" fill="#0000FF"/>
<path d="M20.3193 30.5473L20.3401 30.5049L20.1092 30.0349L20.0728 30.0457L20.3193 30.5473Z" fill="#0074FF"/>
<path d="M22.3258 31.9942L22.2201 31.8605L21.8858 31.8419L21.9689 31.9741L22.3258 31.9942Z" fill="#0000FF"/>
<path d="M20.0728 30.046L20.1092 30.0351L19.9195 29.5205L19.8702 29.4967L20.0728 30.046Z" fill="#00A8FF"/>
<path d="M22.6715 31.9188L22.5438 31.7896L22.2201 31.8606L22.3258 31.9943L22.6715 31.9188Z" fill="#0008FF"/>
<path d="M19.8703 29.4966L19.9196 29.5204L19.776 28.9736L19.717 28.9128L19.8703 29.4966Z" fill="#00E0FB"/>
<path d="M22.9977 31.7489L22.849 31.6301L22.544 31.7895L22.6717 31.9187L22.9977 31.7489Z" fill="#0020FF"/>
<path d="M19.7168 28.9129L19.7759 28.9737L19.6824 28.4082L19.6169 28.3088L19.7168 28.9129Z" fill="#2CFFCA"/>
<path d="M23.2956 31.4885L23.1275 31.386L22.849 31.6304L22.9977 31.7492L23.2956 31.4885Z" fill="#0040FF"/>
<path d="M19.6171 28.3086L19.6826 28.4079L19.642 27.8377L19.5734 27.6993L19.6171 28.3086Z" fill="#5DFF9A"/>
<path d="M23.5576 31.1426L23.3723 31.0618L23.1274 31.3858L23.2954 31.4883L23.5576 31.1426Z" fill="#0068FF"/>
<path d="M19.5733 27.6995L19.6418 27.8379L19.6554 27.2772L19.5876 27.1001L19.5733 27.6995Z" fill="#90FF66"/>
<path d="M23.777 30.7199L23.5771 30.6658L23.3723 31.0619L23.5576 31.1427L23.777 30.7199Z" fill="#0098FF"/>
<path d="M19.5876 27.1001L19.6554 27.2772L19.7235 26.7406L19.6601 26.5262L19.5876 27.1001Z" fill="#C1FF36"/>
<path d="M23.9477 30.2298L23.7362 30.2069L23.5772 30.6656L23.7771 30.7197L23.9477 30.2298Z" fill="#00CCFF"/>
<path d="M19.6602 26.5259L19.7236 26.7404L19.8449 26.2419L19.7896 25.9925L19.6602 26.5259Z" fill="#F4F802"/>
<path d="M24.0646 29.6848L23.845 29.6969L23.7363 30.207L23.9478 30.2299L24.0646 29.6848Z" fill="#1CFFDB"/>
<path d="M19.7895 25.9925L19.8448 26.2419L20.0167 25.7949L19.973 25.5138L19.7895 25.9925Z" fill="#FFC400"/>
<path d="M24.1242 29.0981L23.8999 29.1482L23.845 29.6968L24.0647 29.6847L24.1242 29.0981Z" fill="#4DFFAA"/>
<path d="M19.973 25.5139L20.0167 25.7951L20.2351 25.4118L20.2064 25.1033L19.973 25.5139Z" fill="#FF9800"/>
<path d="M24.1242 28.4852L23.8992 28.5751L23.8999 29.1482L24.1242 29.0981L24.1242 28.4852Z" fill="#80FF77"/>
<path d="M20.2064 25.1033L20.2351 25.4119L20.4947 25.1032L20.484 24.7722L20.2064 25.1033Z" fill="#FF6F00"/>
<path d="M24.0641 27.8619L23.8424 27.9925L23.8993 28.575L24.1242 28.4851L24.0641 27.8619Z" fill="#B4FF43"/>
<path d="M20.4842 24.7721L20.4949 25.1031L20.7892 24.8778L20.7989 24.5303L20.4842 24.7721Z" fill="#FF4A00"/>
<path d="M23.9448 27.2452L23.7303 27.4163L23.8423 27.9927L24.0639 27.862L23.9448 27.2452Z" fill="#E4FF13"/>
<path d="M20.799 24.5303L20.7893 24.8778L21.1106 24.7428L21.1427 24.3849L20.799 24.5303Z" fill="#FF3000"/>
<path d="M23.7694 26.6516L23.5659 26.8619L23.7304 27.4164L23.9449 27.2453L23.7694 26.6516Z" fill="#FFD300"/>
<path d="M21.1424 24.3852L21.1103 24.743L21.4499 24.7025L21.5058 24.3411L21.1424 24.3852Z" fill="#FF2200"/>
<path d="M23.5421 26.0974L23.3531 26.3442L23.566 26.8617L23.7695 26.6515L23.5421 26.0974Z" fill="#FFA300"/>
<path d="M21.5059 24.341L21.45 24.7024L21.7989 24.7579L21.8793 24.3999L21.5059 24.341Z" fill="#FF1A00"/>
<path d="M23.2687 25.5983L23.0974 25.8781L23.353 26.3442L23.542 26.0974L23.2687 25.5983Z" fill="#FF7A00"/>
<path d="M21.8794 24.3999L21.799 24.758L22.1475 24.9086L22.2525 24.5607L21.8794 24.3999Z" fill="#FF1A00"/>
<path d="M22.9569 25.168L22.8058 25.4762L23.0974 25.878L23.2687 25.5982L22.9569 25.168Z" fill="#FF5500"/>
<path d="M22.2525 24.5606L22.1476 24.9085L22.4863 25.1502L22.615 24.8191L22.2525 24.5606Z" fill="#FF2500"/>
<path d="M22.6149 24.819L22.4862 25.15L22.8058 25.4762L22.9568 25.1681L22.6149 24.819Z" fill="#FF3800"/>
<defs>
<linearGradient id="paint0_linear" x1="18.9804" y1="19.9813" x2="18.9804" y2="32.0373" gradientUnits="userSpaceOnUse">
<stop stop-color="#FF1A00"/>
<stop offset="0.244946" stop-color="#F8F500"/>
<stop offset="0.494291" stop-color="#87FF70"/>
<stop offset="0.747869" stop-color="#00E0FB"/>
<stop offset="1" stop-color="#004CFF"/>
</linearGradient>
</defs>
</svg>
