<svg width="80" height="80" viewBox="0 0 80 80" fill="none" xmlns="http://www.w3.org/2000/svg">
<path d="M40 0C17.9094 0 0 17.9094 0 40C0 62.0906 17.9094 80 40 80C62.0906 80 80 62.0906 80 40C79.9303 17.9094 62.0209 0 40 0Z" fill="#050A4A"/>
<path d="M33.5374 56.9754C33.4969 56.953 33.4504 56.9082 33.4504 56.8245V52.0253C33.4504 51.6623 33.6469 51.3233 33.9633 51.141L38.1374 48.7392C38.1689 48.7213 38.1989 48.7138 38.2244 48.7138C38.2589 48.7138 38.2889 48.7257 38.3129 48.7392C38.3534 48.7616 38.3999 48.8064 38.3999 48.89V53.6907C38.3999 54.0552 38.2034 54.3928 37.887 54.575L33.7129 56.9754C33.6409 57.0172 33.5779 56.9978 33.5374 56.9754ZM32.2625 49.976C32.579 50.1582 32.972 50.1582 33.2884 49.976L37.4625 47.5756C37.5344 47.5338 37.5495 47.471 37.5495 47.4247C37.5495 47.3785 37.5344 47.3157 37.4625 47.2739L33.2884 44.8736C33.1309 44.7824 32.9525 44.7376 32.7755 44.7376C32.5985 44.7376 32.42 44.7824 32.2625 44.8736L28.087 47.2739C28.015 47.3157 28 47.3785 28 47.4247C28 47.471 28.015 47.5338 28.0885 47.5756L32.264 49.9745L32.2625 49.976ZM40.0122 46.0954L44.1862 43.695C44.5027 43.5128 44.6992 43.1737 44.6992 42.8107V38.01C44.6992 37.9264 44.6512 37.8816 44.6122 37.8592C44.5897 37.8457 44.5597 37.8338 44.5237 37.8338C44.4967 37.8338 44.4682 37.8413 44.4367 37.8592L40.2627 40.261C39.9462 40.4433 39.7497 40.7823 39.7497 41.1453V45.9445C39.7497 46.0282 39.7977 46.073 39.8367 46.0954C39.8772 46.1177 39.9402 46.1372 40.0122 46.0954ZM39.5877 33.9935C39.4303 33.9024 39.2518 33.8576 39.0748 33.8576C38.8978 33.8576 38.7194 33.9024 38.5619 33.9935L34.3863 36.3939C34.3143 36.4357 34.2993 36.4984 34.2993 36.5447C34.2993 36.591 34.3143 36.6538 34.3878 36.6956L38.5633 39.0944C38.8798 39.2767 39.2728 39.2767 39.5893 39.0944L43.7633 36.6941C43.8353 36.6523 43.8503 36.588 43.8503 36.5433C43.8503 36.4984 43.8353 36.4342 43.7633 36.3924L39.5893 33.992L39.5877 33.9935ZM40.0092 53.3532L44.1833 50.9529C44.4997 50.7706 44.6962 50.4316 44.6962 50.0686V45.2679C44.6962 45.1842 44.6482 45.1394 44.6092 45.117C44.5867 45.1036 44.5567 45.0916 44.5207 45.0916C44.4937 45.0916 44.4652 45.0991 44.4337 45.117L40.2597 47.5189C39.9432 47.7011 39.7467 48.0402 39.7467 48.4031V53.2023C39.7467 53.286 39.7947 53.3308 39.8338 53.3532C39.8742 53.3756 39.9372 53.395 40.0092 53.3532ZM46.3115 35.2393L50.4856 32.8389C50.802 32.6567 50.9985 32.3176 50.9985 31.9546V27.1524C50.9985 27.0688 50.9506 27.024 50.9115 27.0016C50.8891 26.9881 50.859 26.9762 50.823 26.9762C50.7961 26.9762 50.7676 26.9837 50.736 27.0016L46.562 29.4034C46.2456 29.5857 46.0491 29.9247 46.0491 30.2877V35.0869C46.0491 35.1706 46.097 35.2154 46.136 35.2377C46.175 35.2602 46.238 35.2796 46.3115 35.2377V35.2393ZM45.8886 23.1359C45.7311 23.0448 45.5526 23 45.3757 23C45.1986 23 45.0202 23.0448 44.8627 23.1359L40.6872 25.5363C40.6151 25.5781 40.6001 25.6423 40.6001 25.6871C40.6001 25.732 40.6151 25.7962 40.6872 25.838L44.8627 28.2369C45.1791 28.4191 45.5721 28.4191 45.8886 28.2369L50.0626 25.8365C50.1346 25.7947 50.1496 25.732 50.1496 25.6856C50.1496 25.6393 50.1346 25.5766 50.0626 25.5348L45.8886 23.1359ZM46.31 42.4956L50.4841 40.0952C50.8006 39.913 50.997 39.5739 50.997 39.211V34.4103C50.997 34.3266 50.949 34.2818 50.9101 34.2594C50.8875 34.246 50.8575 34.234 50.8215 34.234C50.7945 34.234 50.7661 34.24 50.7346 34.2594L46.5605 36.6613C46.244 36.8435 46.0475 37.1826 46.0475 37.5455V42.3447C46.0475 42.4284 46.0955 42.4732 46.1346 42.4956C46.1735 42.518 46.238 42.5374 46.31 42.4956ZM46.313 49.731L50.4871 47.3306C50.8036 47.1484 51 46.8093 51 46.4464V41.6457C51 41.562 50.952 41.5172 50.913 41.4948C50.8905 41.4814 50.8606 41.4694 50.826 41.4694C50.7991 41.4694 50.769 41.4754 50.7391 41.4948L46.565 43.8967C46.2485 44.0789 46.052 44.418 46.052 44.7809V49.5802C46.052 49.6638 46.1 49.7086 46.1391 49.731C46.178 49.7534 46.2411 49.7728 46.3146 49.731H46.313Z" fill="#EEECFF"/>
</svg>
