<svg width="28" height="40" viewBox="0 0 28 40" fill="none" xmlns="http://www.w3.org/2000/svg">
<path d="M6.51459 39.971C6.46695 39.9447 6.41225 39.892 6.41225 39.7936V34.1474C6.41225 33.7204 6.6434 33.3215 7.01569 33.1071L11.9264 30.2814C11.9634 30.2603 11.9987 30.2516 12.0287 30.2516C12.0693 30.2516 12.1046 30.2656 12.1328 30.2814C12.1805 30.3078 12.2351 30.3605 12.2351 30.4589V36.1067C12.2351 36.5356 12.004 36.9327 11.6317 37.1471L6.72104 39.971C6.63634 40.0203 6.56223 39.9974 6.51459 39.971ZM5.01475 31.7364C5.38706 31.9508 5.84937 31.9508 6.22168 31.7364L11.1323 28.9125C11.217 28.8632 11.2347 28.7895 11.2347 28.735C11.2347 28.6806 11.217 28.6067 11.1323 28.5575L6.22168 25.7336C6.03641 25.6263 5.82643 25.5737 5.61822 25.5737C5.41001 25.5737 5.20003 25.6263 5.01475 25.7336L0.102342 28.5575C0.0176452 28.6067 0 28.6806 0 28.735C0 28.7895 0.0176452 28.8632 0.104106 28.9125L5.01652 31.7347L5.01475 31.7364ZM14.132 27.171L19.0426 24.3471C19.4149 24.1327 19.6461 23.7338 19.6461 23.3067V17.6589C19.6461 17.5605 19.5897 17.5078 19.5438 17.4814C19.5173 17.4656 19.482 17.4515 19.4396 17.4515C19.4079 17.4515 19.3744 17.4603 19.3373 17.4814L14.4267 20.3071C14.0544 20.5215 13.8232 20.9204 13.8232 21.3474V26.9936C13.8232 27.092 13.8797 27.1447 13.9256 27.171C13.9732 27.1974 14.0473 27.2202 14.132 27.171ZM13.6326 12.9336C13.4474 12.8263 13.2374 12.7737 13.0292 12.7737C12.821 12.7737 12.611 12.8263 12.4257 12.9336L7.51329 15.7575C7.42861 15.8067 7.41099 15.8805 7.41099 15.935C7.41099 15.9895 7.42861 16.0632 7.51508 16.1125L12.4275 18.9346C12.7998 19.149 13.2621 19.149 13.6344 18.9346L18.545 16.1107C18.6298 16.0615 18.6474 15.9859 18.6474 15.9332C18.6474 15.8805 18.6298 15.805 18.545 15.7557L13.6344 12.9318L13.6326 12.9336ZM14.1285 35.7097L19.0391 32.8857C19.4114 32.6713 19.6426 32.2724 19.6426 31.8454V26.1975C19.6426 26.0991 19.5861 26.0463 19.5402 26.02C19.5138 26.0042 19.4785 25.9901 19.4361 25.9901C19.4044 25.9901 19.3709 25.9989 19.3338 26.02L14.4232 28.8457C14.0509 29.0601 13.8197 29.459 13.8197 29.8861V35.5321C13.8197 35.6306 13.8761 35.6833 13.9221 35.7097C13.9697 35.736 14.0438 35.7588 14.1285 35.7097ZM21.543 14.3991L26.4536 11.5752C26.8259 11.3608 27.0571 10.9619 27.0571 10.5349V4.88523C27.0571 4.78682 27.0007 4.73411 26.9547 4.70775C26.9283 4.69193 26.893 4.67787 26.8506 4.67787C26.8189 4.67787 26.7854 4.68666 26.7483 4.70775L21.8377 7.53343C21.4654 7.74784 21.2342 8.14672 21.2342 8.57375V14.2199C21.2342 14.3183 21.2906 14.371 21.3365 14.3973C21.3824 14.4238 21.4565 14.4466 21.543 14.3973V14.3991ZM21.0454 0.159912C20.8601 0.0527183 20.6501 0 20.4419 0C20.2337 0 20.0237 0.0527183 19.8385 0.159912L14.9261 2.98385C14.8413 3.03306 14.8237 3.10862 14.8237 3.16134C14.8237 3.21406 14.8413 3.28963 14.9261 3.33883L19.8385 6.16101C20.2108 6.3754 20.673 6.3754 21.0454 6.16101L25.956 3.33707C26.0407 3.28787 26.0584 3.21406 26.0584 3.15959C26.0584 3.10511 26.0407 3.0313 25.956 2.9821L21.0454 0.159912ZM21.5412 22.936L26.4518 20.1121C26.8242 19.8976 27.0553 19.4988 27.0553 19.0717V13.4239C27.0553 13.3254 26.9989 13.2727 26.953 13.2463C26.9265 13.2305 26.8912 13.2165 26.8489 13.2165C26.8171 13.2165 26.7836 13.2235 26.7465 13.2463L21.8359 16.0721C21.4636 16.2865 21.2324 16.6854 21.2324 17.1124V22.7585C21.2324 22.8569 21.2889 22.9096 21.3348 22.936C21.3806 22.9623 21.4565 22.9852 21.5412 22.936ZM21.5447 31.4482L26.4554 28.6243C26.8277 28.4099 27.0588 28.011 27.0588 27.584V21.9361C27.0588 21.8377 27.0024 21.785 26.9565 21.7586C26.93 21.7428 26.8948 21.7287 26.8542 21.7287C26.8224 21.7287 26.7871 21.7357 26.7519 21.7586L21.8412 24.5843C21.4689 24.7987 21.2377 25.1976 21.2377 25.6246V31.2708C21.2377 31.3692 21.2942 31.4219 21.3401 31.4482C21.3859 31.4746 21.4601 31.4975 21.5465 31.4482H21.5447Z" fill="black"/>
</svg>
