<svg width="32" height="32" viewBox="0 0 32 32" fill="none" xmlns="http://www.w3.org/2000/svg">
<path fill-rule="evenodd" clip-rule="evenodd" d="M32 15.9999C32 13.9059 31.5834 11.8118 30.7821 9.87706C29.9805 7.94234 28.7942 6.16698 27.3136 4.68634C25.833 3.20538 24.0576 2.01946 22.1229 1.21786C20.1882 0.416579 18.0941 -6.10352e-05 16 -6.10352e-05C13.9059 -6.10352e-05 11.8115 0.416579 9.8768 1.21786C7.94208 2.01946 6.16704 3.20538 4.68608 4.68634C3.20544 6.16698 2.0192 7.94234 1.21792 9.87706C0.41632 11.8118 0 13.9059 0 15.9999C0 18.094 0.41632 20.1881 1.21792 22.1228C2.0192 24.0575 3.20544 25.8329 4.68608 27.3139C6.16704 28.7945 7.94208 29.9807 9.8768 30.782C11.8115 31.5833 13.9059 31.9999 16 31.9999C18.0941 31.9999 20.1882 31.5833 22.1229 30.782C24.0576 29.9807 25.833 28.7945 27.3136 27.3139C28.7942 25.8329 29.9805 24.0575 30.7821 22.1228C31.5834 20.1881 32 18.094 32 15.9999Z" fill="white"/>
<path fill-rule="evenodd" clip-rule="evenodd" d="M11.8547 3.38363C13.3453 2.89371 14.9382 2.66971 16.5162 2.73019C18.0944 2.79067 19.6579 3.13595 21.113 3.74395C22.5683 4.35195 23.9152 5.22299 25.0675 6.29755C26.5917 7.71931 27.775 9.49755 28.4848 11.4867C29.1949 13.4761 29.4314 15.6764 29.1574 17.7711C28.8838 19.8659 28.0998 21.8553 26.9139 23.566C25.728 25.2767 24.1398 26.7084 22.2746 27.7004C20.4093 28.6921 18.2662 29.2438 16.1539 29.2758C14.0416 29.3078 11.9597 28.8204 10.095 27.895C8.23073 26.9695 6.58337 25.6063 5.33249 23.9036C4.08161 22.2009 3.22721 20.1587 2.88801 18.0748C2.54881 15.9907 2.72481 13.8646 3.37473 11.8812C3.86593 10.3817 4.62817 8.96411 5.6048 7.73563H4.12033V5.28187H9.93696V10.7135H7.48321V9.22939C6.68321 10.2355 6.05857 11.3967 5.65633 12.6255C5.12417 14.2511 4.98081 15.9951 5.25633 17.6969C5.59873 19.8137 6.58881 21.8649 8.06657 23.4457C9.83425 25.3363 12.2995 26.5542 14.8659 26.8207C17.432 27.0873 20.0992 26.4028 22.2173 24.9286C24.3354 23.4543 25.905 21.1903 26.5421 18.6899C27.1792 16.1894 26.8838 13.4524 25.735 11.142C24.5862 8.83163 22.5837 6.94843 20.1891 5.95899C17.7946 4.96923 15.0077 4.87387 12.6038 5.66363L11.8547 3.38363Z" fill="url(#paint0_linear)"/>
<path d="M17.9525 18.0197L14.1311 8.71638C13.9152 8.23563 13.5959 8 13.1734 8H12.8354C12.4129 8 12.0937 8.23563 11.8777 8.71638L10.216 12.7696H8.9577C8.58067 12.7711 8.27503 13.0779 8.27229 13.4577V13.4671C8.27503 13.8469 8.58067 14.1537 8.9577 14.1552H9.63359L8.04694 18.0197C8.01693 18.1045 8.00107 18.1937 8 18.2837C8 18.5005 8.06572 18.6701 8.18779 18.8021C8.30986 18.9341 8.47884 19 8.69481 19C8.83661 18.998 8.97433 18.9519 9.08906 18.868C9.21112 18.7831 9.29563 18.6606 9.36135 18.5192L11.1077 14.1551H12.319C12.696 14.1536 13.0016 13.8467 13.0044 13.467V13.4481C13.0016 13.0683 12.696 12.7615 12.319 12.76H11.6712L13.0044 9.41386L16.6381 18.5193C16.7038 18.6606 16.7883 18.7833 16.9103 18.868C17.0251 18.952 17.1629 18.9981 17.3047 19C17.5207 19 17.6897 18.934 17.8117 18.8021C17.9338 18.6701 17.9995 18.5004 17.9995 18.2836C18.0031 18.1932 17.987 18.1032 17.9525 18.0197V18.0197Z" fill="black"/>
<path fill-rule="evenodd" clip-rule="evenodd" d="M21.3005 13.1158C21.4721 13.5303 21.5614 13.9789 21.5614 14.4275C21.5614 14.876 21.4721 15.3246 21.3005 15.7391C21.1863 16.0148 21.0355 16.2755 20.854 16.5125C21.3004 16.5134 21.7466 16.6026 22.1589 16.7734C22.5734 16.945 22.9537 17.1992 23.2709 17.5164C23.5881 17.8336 23.8422 18.2139 24.0139 18.6283C24.1855 19.0428 24.2748 19.4914 24.2748 19.9399C24.2748 20.3885 24.1855 20.8371 24.0139 21.2516C23.8422 21.666 23.5881 22.0463 23.2709 22.3635C22.9537 22.6807 22.5734 22.9349 22.1589 23.1065C21.7445 23.2782 21.2959 23.3674 20.8473 23.3674C20.3987 23.3674 19.9502 23.2782 19.5357 23.1065C19.1213 22.9349 18.741 22.6807 18.4238 22.3635C18.3202 22.26 18.2234 22.1497 18.1339 22.0337C18.0445 22.1497 17.9476 22.26 17.8441 22.3635C17.5269 22.6807 17.1466 22.9349 16.7321 23.1065C16.3177 23.2782 15.8691 23.3674 15.4205 23.3674C14.9719 23.3674 14.5234 23.2782 14.1089 23.1065C13.6945 22.9349 13.3141 22.6807 12.997 22.3635C12.6797 22.0463 12.4256 21.666 12.254 21.2516C12.0823 20.8371 11.9931 20.3885 11.9931 19.9399C11.9931 19.4914 12.0823 19.0428 12.254 18.6283C12.4256 18.2139 12.6797 17.8336 12.997 17.5164C13.3141 17.1992 13.6945 16.945 14.1089 16.7734C14.5213 16.6026 14.9675 16.5134 15.4138 16.5125C15.2323 16.2755 15.0816 16.0148 14.9674 15.7391C14.7957 15.3246 14.7065 14.876 14.7065 14.4275C14.7065 13.9789 14.7957 13.5303 14.9674 13.1158C15.139 12.7014 15.3931 12.3211 15.7104 12.0039C16.0276 11.6867 16.4079 11.4325 16.8223 11.2609C17.2368 11.0893 17.6853 11 18.1339 11C18.5825 11 19.0311 11.0893 19.4455 11.2609C19.86 11.4325 20.2403 11.6867 20.5575 12.0039C20.8747 12.3211 21.1288 12.7014 21.3005 13.1158Z" fill="white"/>
<path d="M21.3005 13.1158L21.543 13.0154L21.543 13.0154L21.3005 13.1158ZM21.3005 15.7391L21.543 15.8395L21.543 15.8395L21.3005 15.7391ZM20.854 16.5125L20.6456 16.3529L20.3231 16.774L20.8535 16.775L20.854 16.5125ZM22.1589 16.7734L22.0585 17.0159L22.0585 17.0159L22.1589 16.7734ZM23.2709 17.5164L23.0852 17.702L23.0853 17.702L23.2709 17.5164ZM24.0139 18.6283L24.2564 18.5279L24.2564 18.5279L24.0139 18.6283ZM24.0139 21.2516L24.2564 21.352L24.2564 21.352L24.0139 21.2516ZM23.2709 22.3635L23.0853 22.1779L23.0852 22.1779L23.2709 22.3635ZM22.1589 23.1065L22.2594 23.349L22.2594 23.349L22.1589 23.1065ZM19.5357 23.1065L19.4353 23.349L19.4353 23.349L19.5357 23.1065ZM18.4238 22.3635L18.6094 22.1779L18.6094 22.1779L18.4238 22.3635ZM18.1339 22.0337L18.3418 21.8734L18.1339 21.6038L17.926 21.8734L18.1339 22.0337ZM17.8441 22.3635L17.6585 22.1779L17.6584 22.1779L17.8441 22.3635ZM16.7321 23.1065L16.8326 23.349L16.8326 23.349L16.7321 23.1065ZM14.1089 23.1065L14.0085 23.349L14.0085 23.349L14.1089 23.1065ZM12.997 22.3635L13.1826 22.1779L13.1826 22.1779L12.997 22.3635ZM12.254 21.2516L12.0114 21.352L12.0114 21.352L12.254 21.2516ZM12.254 18.6283L12.0114 18.5279L12.0114 18.5279L12.254 18.6283ZM12.997 17.5164L13.1826 17.702L13.1826 17.702L12.997 17.5164ZM14.1089 16.7734L14.2094 17.0159L14.2094 17.0159L14.1089 16.7734ZM15.4138 16.5125L15.4144 16.775L15.9448 16.774L15.6222 16.3529L15.4138 16.5125ZM14.9674 15.7391L14.7248 15.8395L14.7248 15.8395L14.9674 15.7391ZM14.9674 13.1158L14.7248 13.0154L14.7248 13.0154L14.9674 13.1158ZM15.7104 12.0039L15.896 12.1895L15.896 12.1895L15.7104 12.0039ZM16.8223 11.2609L16.9228 11.5034L16.9228 11.5034L16.8223 11.2609ZM19.4455 11.2609L19.546 11.0184L19.546 11.0184L19.4455 11.2609ZM20.5575 12.0039L20.3718 12.1895L20.3719 12.1895L20.5575 12.0039ZM21.8239 14.4275C21.8239 13.9444 21.7278 13.4617 21.543 13.0154L21.058 13.2163C21.2164 13.5989 21.2989 14.0134 21.2989 14.4275H21.8239ZM21.543 15.8395C21.7278 15.3932 21.8239 14.9105 21.8239 14.4275H21.2989C21.2989 14.8416 21.2164 15.256 21.058 15.6386L21.543 15.8395ZM21.0624 16.6721C21.2577 16.4171 21.42 16.1366 21.543 15.8395L21.058 15.6386C20.9526 15.8931 20.8134 16.1339 20.6456 16.3529L21.0624 16.6721ZM22.2594 16.5309C21.8153 16.347 21.3352 16.251 20.8545 16.25L20.8535 16.775C21.2655 16.7758 21.6778 16.8582 22.0585 17.0159L22.2594 16.5309ZM23.4565 17.3308C23.115 16.9892 22.7057 16.7157 22.2594 16.5309L22.0585 17.0159C22.4411 17.1744 22.7925 17.4091 23.0852 17.702L23.4565 17.3308ZM24.2564 18.5279C24.0716 18.0816 23.7981 17.6723 23.4565 17.3308L23.0853 17.702C23.3781 17.9948 23.6129 18.3462 23.7714 18.7288L24.2564 18.5279ZM24.5373 19.9399C24.5373 19.4569 24.4412 18.9742 24.2564 18.5279L23.7714 18.7288C23.9298 19.1114 24.0123 19.5258 24.0123 19.9399H24.5373ZM24.2564 21.352C24.4412 20.9057 24.5373 20.423 24.5373 19.9399H24.0123C24.0123 20.3541 23.9298 20.7685 23.7714 21.1511L24.2564 21.352ZM23.4565 22.5491C23.7981 22.2076 24.0716 21.7983 24.2564 21.352L23.7714 21.1511C23.6129 21.5337 23.3781 21.8851 23.0853 22.1779L23.4565 22.5491ZM22.2594 23.349C22.7057 23.1642 23.115 22.8907 23.4565 22.5491L23.0852 22.1779C22.7925 22.4708 22.4411 22.7055 22.0585 22.864L22.2594 23.349ZM20.8473 23.6299C21.3304 23.6299 21.8131 23.5339 22.2594 23.349L22.0585 22.864C21.6759 23.0224 21.2614 23.1049 20.8473 23.1049V23.6299ZM19.4353 23.349C19.8815 23.5339 20.3643 23.6299 20.8473 23.6299V23.1049C20.4332 23.1049 20.0188 23.0224 19.6362 22.864L19.4353 23.349ZM18.2381 22.5491C18.5797 22.8907 18.989 23.1642 19.4353 23.349L19.6362 22.864C19.2536 22.7055 18.9022 22.4708 18.6094 22.1779L18.2381 22.5491ZM17.926 22.194C18.0223 22.3188 18.1266 22.4376 18.2382 22.5491L18.6094 22.1779C18.5138 22.0824 18.4244 21.9806 18.3418 21.8734L17.926 22.194ZM18.0297 22.5491C18.1413 22.4376 18.2456 22.3188 18.3418 22.194L17.926 21.8734C17.8434 21.9806 17.754 22.0824 17.6585 22.1779L18.0297 22.5491ZM16.8326 23.349C17.2789 23.1642 17.6882 22.8907 18.0297 22.5491L17.6584 22.1779C17.3657 22.4708 17.0143 22.7055 16.6317 22.864L16.8326 23.349ZM15.4205 23.6299C15.9036 23.6299 16.3863 23.5339 16.8326 23.349L16.6317 22.864C16.2491 23.0224 15.8346 23.1049 15.4205 23.1049V23.6299ZM14.0085 23.349C14.4547 23.5339 14.9375 23.6299 15.4205 23.6299V23.1049C15.0064 23.1049 14.592 23.0224 14.2094 22.864L14.0085 23.349ZM12.8113 22.5491C13.1529 22.8907 13.5622 23.1642 14.0085 23.349L14.2094 22.864C13.8268 22.7055 13.4754 22.4708 13.1826 22.1779L12.8113 22.5491ZM12.0114 21.352C12.1963 21.7983 12.4697 22.2076 12.8114 22.5491L13.1826 22.1779C12.8897 21.8851 12.6549 21.5337 12.4965 21.1511L12.0114 21.352ZM11.7306 19.9399C11.7306 20.423 11.8266 20.9057 12.0114 21.352L12.4965 21.1511C12.338 20.7685 12.2556 20.3541 12.2556 19.9399H11.7306ZM12.0114 18.5279C11.8266 18.9742 11.7306 19.4569 11.7306 19.9399H12.2556C12.2556 19.5258 12.338 19.1114 12.4965 18.7288L12.0114 18.5279ZM12.8114 17.3308C12.4697 17.6723 12.1963 18.0816 12.0114 18.5279L12.4965 18.7288C12.6549 18.3462 12.8897 17.9948 13.1826 17.702L12.8114 17.3308ZM14.0085 16.5309C13.5622 16.7157 13.1529 16.9892 12.8113 17.3308L13.1826 17.702C13.4754 17.4091 13.8268 17.1744 14.2094 17.0159L14.0085 16.5309ZM15.4133 16.25C14.9327 16.251 14.4525 16.347 14.0085 16.5309L14.2094 17.0159C14.5901 16.8582 15.0023 16.7758 15.4144 16.775L15.4133 16.25ZM14.7248 15.8395C14.8479 16.1366 15.0101 16.4171 15.2055 16.6721L15.6222 16.3529C15.4545 16.1339 15.3153 15.8931 15.2099 15.6386L14.7248 15.8395ZM14.444 14.4275C14.444 14.9105 14.54 15.3932 14.7248 15.8395L15.2099 15.6386C15.0514 15.256 14.969 14.8416 14.969 14.4275H14.444ZM14.7248 13.0154C14.54 13.4617 14.444 13.9444 14.444 14.4275H14.969C14.969 14.0134 15.0514 13.5989 15.2099 13.2163L14.7248 13.0154ZM15.5248 11.8183C15.1831 12.1598 14.9097 12.5691 14.7248 13.0154L15.2099 13.2163C15.3683 12.8337 15.6031 12.4823 15.896 12.1895L15.5248 11.8183ZM16.7219 11.0184C16.2756 11.2032 15.8663 11.4767 15.5247 11.8183L15.896 12.1895C16.1888 11.8966 16.5402 11.6619 16.9228 11.5034L16.7219 11.0184ZM18.1339 10.7375C17.6509 10.7375 17.1681 10.8335 16.7219 11.0184L16.9228 11.5034C17.3054 11.345 17.7198 11.2625 18.1339 11.2625V10.7375ZM19.546 11.0184C19.0997 10.8335 18.617 10.7375 18.1339 10.7375V11.2625C18.548 11.2625 18.9625 11.345 19.3451 11.5034L19.546 11.0184ZM20.7431 11.8183C20.4016 11.4767 19.9923 11.2032 19.546 11.0184L19.3451 11.5034C19.7277 11.6619 20.0791 11.8966 20.3718 12.1895L20.7431 11.8183ZM21.543 13.0154C21.3582 12.5691 21.0847 12.1598 20.7431 11.8183L20.3719 12.1895C20.6647 12.4823 20.8995 12.8337 21.058 13.2163L21.543 13.0154Z" fill="black"/>
<path fill-rule="evenodd" clip-rule="evenodd" d="M20.2197 22.3143C20.2197 22.3981 20.1614 22.426 20.0769 22.426C19.019 22.0874 18.2767 21.1255 18.2767 19.9943C18.2767 18.8631 19.019 17.9012 20.0769 17.5626C20.1617 17.5355 20.2197 17.5905 20.2197 17.6762C20.2197 17.7419 20.2197 17.8077 20.2197 17.8734C20.2197 17.931 20.1897 17.9868 20.1332 18.0147C19.3046 18.3254 18.7333 19.0901 18.7333 19.9943C18.7333 20.9004 19.3328 21.6911 20.1332 21.9739C20.1897 22.0018 20.2197 22.0595 20.2197 22.1153C20.2197 22.1816 20.2197 22.248 20.2197 22.3143Z" fill="black"/>
<path fill-rule="evenodd" clip-rule="evenodd" d="M21.0766 21.6074C21.0766 21.6632 21.0183 21.719 20.962 21.719C20.8855 21.719 20.8092 21.719 20.7327 21.719C20.6764 21.719 20.6181 21.6632 20.6181 21.6074C20.6181 21.4939 20.6181 21.3804 20.6181 21.2669C20.1614 21.2111 19.9341 20.9562 19.8477 20.5878C19.8477 20.532 19.8759 20.4762 19.9341 20.4762C20.0193 20.4762 20.1045 20.4762 20.1897 20.4762C20.2479 20.4762 20.2761 20.5041 20.3043 20.5599C20.3626 20.759 20.4753 20.9283 20.8473 20.9283C21.133 20.9283 21.3321 20.7869 21.3321 20.5599C21.3321 20.3348 21.2194 20.2492 20.8192 20.1934C20.2194 20.1098 19.9341 19.9385 19.9341 19.4566C19.9341 19.0901 20.2197 18.8073 20.6181 18.7496C20.6181 18.6368 20.6181 18.5239 20.6181 18.411C20.6181 18.3552 20.6764 18.2975 20.7327 18.2975C20.8092 18.2975 20.8855 18.2975 20.962 18.2975C21.0183 18.2975 21.0766 18.3552 21.0766 18.411C21.0766 18.5239 21.0766 18.6368 21.0766 18.7496C21.4186 18.8073 21.6479 19.0046 21.7042 19.3153C21.7042 19.373 21.676 19.4287 21.6178 19.4287C21.5419 19.4287 21.4662 19.4287 21.3904 19.4287C21.3321 19.4287 21.3039 19.4008 21.2758 19.345C21.2194 19.1459 21.0766 19.0622 20.8192 19.0622C20.5335 19.0622 20.3907 19.2036 20.3907 19.4008C20.3907 19.598 20.4753 19.7115 20.9037 19.7692C21.5054 19.8502 21.7906 20.0222 21.7906 20.5041C21.7906 20.8706 21.505 21.1832 21.0766 21.2669V21.6074Z" fill="black"/>
<path fill-rule="evenodd" clip-rule="evenodd" d="M21.6178 22.426C21.5332 22.4558 21.475 22.3981 21.475 22.3143C21.475 22.248 21.475 22.1816 21.475 22.1153C21.475 22.0595 21.505 22.0018 21.5614 21.9739C22.3901 21.6632 22.9613 20.9004 22.9613 19.9943C22.9613 19.0901 22.3619 18.2976 21.5614 18.0147C21.505 17.9868 21.475 17.9311 21.475 17.8734C21.475 17.8077 21.475 17.7419 21.475 17.6762C21.475 17.5905 21.5332 17.5627 21.6178 17.5627C22.6475 17.9013 23.4179 18.8631 23.4179 19.9943C23.4179 21.1255 22.6757 22.0874 21.6178 22.426Z" fill="black"/>
<path fill-rule="evenodd" clip-rule="evenodd" d="M13.9252 18.2262H15.5062H17.0872V18.9906H15.926V19.4214L15.9296 19.4216C16.4046 19.4432 16.8208 19.5002 17.1235 19.5815C17.275 19.6221 17.3979 19.6682 17.4887 19.7232C17.5341 19.7506 17.5719 19.7803 17.6005 19.8157C17.6291 19.8512 17.6484 19.8946 17.6484 19.9409C17.6484 19.9872 17.6291 20.0306 17.6005 20.0661C17.5719 20.1015 17.5341 20.1312 17.4887 20.1586C17.3979 20.2136 17.275 20.2597 17.1236 20.3003C16.8208 20.3816 16.4046 20.4386 15.9296 20.4602L15.9263 20.4604V21.9964H15.5062H15.0862V20.4604L15.0829 20.4602C14.6079 20.4386 14.1916 20.3816 13.8889 20.3003C13.7375 20.2597 13.6146 20.2136 13.5238 20.1586C13.4784 20.1312 13.4406 20.1015 13.412 20.0661C13.3834 20.0306 13.3641 19.9872 13.3641 19.9409C13.3641 19.8946 13.3834 19.8512 13.412 19.8157C13.4406 19.7803 13.4784 19.7506 13.5238 19.7232C13.6146 19.6682 13.7375 19.6221 13.8889 19.5815C14.1916 19.5002 14.6079 19.4432 15.0829 19.4216L15.0864 19.4214V18.9906H13.9252V18.2262ZM15.0878 20.2132L15.5062 20.2225L15.9247 20.2132C16.3387 20.195 16.7003 20.15 16.9555 20.0891C17.0832 20.0586 17.1844 20.0239 17.2504 19.9886C17.2834 19.971 17.3074 19.9531 17.3214 19.9377C17.3355 19.9223 17.3394 19.9112 17.3394 19.9016C17.3394 19.8921 17.3355 19.881 17.3214 19.8656C17.3074 19.8502 17.2834 19.8323 17.2504 19.8147C17.1845 19.7794 17.0833 19.7447 16.9557 19.7142C16.7007 19.6534 16.3399 19.6085 15.9264 19.5902V20.0204L15.9182 20.0212C15.9074 20.0221 15.8694 20.0253 15.8009 20.0282C15.7666 20.0297 15.7247 20.0311 15.6749 20.0321C15.6499 20.0326 15.623 20.033 15.594 20.0332L15.549 20.0336H15.5062H15.4634L15.4184 20.0332C15.3894 20.033 15.3625 20.0326 15.3376 20.0321C15.2878 20.0311 15.2459 20.0297 15.2116 20.0282C15.143 20.0253 15.105 20.0221 15.0943 20.0212L15.086 20.0204V19.5902C14.6726 19.6085 14.3117 19.6534 14.0568 19.7142C13.9292 19.7447 13.828 19.7794 13.762 19.8147C13.729 19.8323 13.7051 19.8502 13.691 19.8656C13.6769 19.881 13.6731 19.8921 13.6731 19.9016C13.6731 19.9112 13.6769 19.9223 13.691 19.9377C13.7051 19.9531 13.729 19.971 13.7621 19.9886C13.828 20.0239 13.9293 20.0586 14.0569 20.0891C14.3122 20.15 14.6738 20.195 15.0878 20.2132Z" fill="black"/>
<path fill-rule="evenodd" clip-rule="evenodd" d="M16.5016 15.1645V16.3373L16.501 16.3377V16.3399C16.9966 16.3331 17.4922 16.3331 17.9877 16.3399C18.156 16.3422 18.3242 16.3315 18.489 16.2996C18.6631 16.2658 18.8337 16.2145 18.9946 16.1406C19.0643 16.1087 19.1311 16.0701 19.1985 16.0312L19.2517 16.0006C19.3316 15.9443 19.4083 15.8834 19.4809 15.8183C19.6802 15.6399 19.8344 15.4174 19.9308 15.1693C19.9373 15.1414 19.9648 15.1235 19.993 15.1289H20.3978C20.4301 15.1289 20.4408 15.1182 20.4408 15.0822V14.8255C20.4429 14.8009 20.4429 14.776 20.4408 14.7514C20.4408 14.7449 20.4424 14.7385 20.4441 14.7321L20.4441 14.7321C20.4474 14.7194 20.4507 14.7067 20.4408 14.694H20.1025C20.0616 14.694 20.0616 14.6897 20.0616 14.6537C20.0733 14.5245 20.0686 14.3951 20.0616 14.2656C20.0595 14.2275 20.0681 14.2275 20.0981 14.2275H20.3937C20.4281 14.2275 20.4394 14.2189 20.441 14.185C20.4463 14.0689 20.4463 13.9529 20.441 13.8371C20.4399 13.8142 20.4393 13.8025 20.4332 13.7965C20.4269 13.7904 20.4146 13.7904 20.3895 13.7904H20.0061C19.9762 13.7954 19.9475 13.7755 19.9421 13.7458C19.8981 13.6321 19.8431 13.5225 19.7747 13.4213C19.7069 13.3208 19.632 13.2248 19.5456 13.1392C19.4328 13.0277 19.3067 12.9301 19.1686 12.8507C18.9611 12.7316 18.7343 12.6479 18.4981 12.6048C18.3835 12.5838 18.2678 12.5666 18.1511 12.5666H16.5446C16.5016 12.5666 16.5016 12.5751 16.5016 12.609V13.7523C16.5016 13.7926 16.493 13.7926 16.4609 13.7926H16.0004C15.9661 13.7926 15.9661 13.7987 15.9661 13.8222V14.1954C15.9661 14.2293 15.9768 14.2293 16.0025 14.2293H16.4674C16.5016 14.2293 16.5016 14.2356 16.5016 14.261V14.6597C16.5016 14.6959 16.4908 14.6959 16.4631 14.6959H15.9661V15.0988C15.9661 15.1327 15.9768 15.1327 16.0025 15.1327H16.4674C16.5016 15.1327 16.5016 15.1368 16.5016 15.1645ZM19.5626 14.6936H18.2603H16.9835C16.9574 14.6936 16.9446 14.6936 16.9383 14.6872C16.9322 14.681 16.9322 14.6688 16.9322 14.6448V14.2673C16.9322 14.2375 16.9408 14.227 16.9728 14.227H19.5648C19.5928 14.227 19.6056 14.2375 19.6056 14.263C19.6162 14.3943 19.6129 14.5261 19.6056 14.6575C19.6036 14.6936 19.5905 14.6936 19.5626 14.6936ZM19.4601 13.7858C19.4638 13.7762 19.4638 13.7657 19.4601 13.7562C19.4384 13.7093 19.4126 13.6646 19.3827 13.6226C19.3377 13.5508 19.2845 13.4847 19.2241 13.4253C19.1956 13.3894 19.1626 13.3572 19.1256 13.3299C18.9401 13.1736 18.7197 13.0631 18.4828 13.0075C18.3636 12.9795 18.2412 12.9682 18.1186 12.9693C17.7353 12.9725 17.3519 12.9725 16.9684 12.9693C16.9362 12.969 16.932 12.9819 16.932 13.0096V13.7625C16.932 13.7942 16.932 13.8028 16.9727 13.8028H19.4447C19.4457 13.8026 19.466 13.7986 19.4704 13.7858H19.4601ZM19.3505 15.1348C19.3869 15.1308 19.4237 15.1308 19.4601 15.1348V15.135C19.4768 15.1433 19.4629 15.1735 19.462 15.1755L19.4619 15.1755C19.3303 15.4308 19.1214 15.6388 18.8643 15.7712H18.8493C18.7998 15.8004 18.7468 15.823 18.6931 15.8433C18.5438 15.8997 18.3872 15.9339 18.228 15.9451C18.1766 15.9559 18.1242 15.9596 18.0718 15.9557H16.975C16.9322 15.9557 16.9322 15.9471 16.9322 15.9132V15.1771C16.9322 15.1348 16.943 15.1348 16.975 15.1348H19.3505Z" fill="black"/>
<defs>
<linearGradient id="paint0_linear" x1="2.04343" y1="13.2971" x2="15.2222" y2="29.5764" gradientUnits="userSpaceOnUse">
<stop stop-color="#004CFF"/>
<stop offset="0.252131" stop-color="#00E0FB"/>
<stop offset="0.505709" stop-color="#87FF70"/>
<stop offset="0.755054" stop-color="#F8F500"/>
<stop offset="1" stop-color="#FF1A00"/>
</linearGradient>
</defs>
</svg>
