<svg width="38" height="40" viewBox="0 0 38 40" fill="none" xmlns="http://www.w3.org/2000/svg">
<path fill-rule="evenodd" clip-rule="evenodd" d="M18.2911 1.91512C18.3927 0.958847 17.6367 0.102717 16.6804 0.00257717C15.7241 -0.0481982 14.8694 0.657015 14.7679 1.61328C14.7566 1.71907 14.7566 1.82344 14.765 1.92499L5.84551 5.38477L5.80884 5.33681C5.61702 5.09563 5.36032 4.90099 5.05285 4.7811C4.14735 4.47927 3.14031 4.93202 2.7877 5.83751C2.66358 6.1605 2.6382 6.49477 2.70308 6.80789C2.82155 7.37629 3.23057 7.87558 3.84552 8.10266L3.94989 8.13369V17.6654C2.90054 17.7768 1.94427 18.2732 1.23623 19.0165C0.576152 19.7105 0.130457 20.6216 0.0232642 21.6399C-0.227792 24.1068 1.5832 26.2196 4.00067 26.4706C4.34199 26.5059 4.67767 26.5017 5.00207 26.4608C5.2221 26.4326 5.43648 26.3888 5.64523 26.331C5.83704 26.276 6.02322 26.2083 6.20376 26.1293L11.5182 35.3451C11.3264 35.5143 11.1572 35.7089 11.0218 35.9247C10.8892 36.1321 10.7848 36.3577 10.7115 36.5961C10.5986 36.9727 10.5704 37.3803 10.641 37.7964C10.892 39.2562 12.2517 40.211 13.71 39.96C15.1177 39.7089 16.1247 38.3493 15.8736 36.8909L22.6155 34.4085C22.6324 34.4297 22.6493 34.4523 22.6663 34.4734C23.2699 35.2294 24.3785 35.3295 25.1317 34.7259C25.5153 34.4212 25.7297 33.9868 25.7692 33.5341L33.016 32.142C33.1344 32.3719 33.3065 32.575 33.5124 32.7358C33.7748 32.9403 34.0964 33.0771 34.4433 33.1138C35.3996 33.2153 36.2543 32.4607 36.3559 31.5045C36.3897 31.1829 36.3277 30.8726 36.1951 30.599C36.1556 30.52 36.1104 30.4438 36.0625 30.3719L36.0061 30.2957L35.913 30.1871C35.6365 29.8797 35.2501 29.6653 34.8185 29.6018L33.8143 23.8628C34.2035 23.7274 34.5533 23.5045 34.8382 23.214C35.2529 22.7923 35.5322 22.2295 35.5999 21.5906C35.6845 20.3508 34.9342 19.2563 33.8115 18.8628L34.7705 12.4877C36.1104 12.4482 37.2219 11.4341 37.3657 10.0674C37.3742 9.91224 37.3714 9.75991 37.3601 9.6104C37.3488 9.49475 37.3291 9.38051 37.3037 9.26908C37.2867 9.19151 37.267 9.11535 37.2416 9.04059L37.1767 8.86711C37.0413 8.52861 36.8382 8.22255 36.5815 7.96726C36.1584 7.54695 35.5942 7.26487 34.9483 7.19858C34.3869 7.14075 33.8481 7.2691 33.3911 7.53144C33.0385 7.73313 32.7367 8.01521 32.511 8.3523L18.277 2.02513C18.2826 1.98846 18.2911 1.95179 18.2911 1.91512ZM25.5887 32.5834L32.8326 31.2026C32.9003 30.5256 33.3093 29.9854 33.8594 29.7344L32.858 24.0123L32.7311 24.0066C31.5886 23.8882 30.6916 23.0927 30.4039 22.0518L24.5308 22.4396C24.5167 22.5088 24.497 22.5793 24.4744 22.6484C24.2911 23.1519 23.9244 23.5144 23.4871 23.6949L24.3052 31.637C24.717 31.7005 25.1035 31.9107 25.3827 32.2605C25.4645 32.362 25.5322 32.4706 25.5887 32.5834ZM23.3489 31.7527L22.4801 23.7852C22.3898 23.7655 22.2995 23.7387 22.2121 23.7048C21.6761 23.4961 21.2953 23.0574 21.1402 22.5468H8.82433C8.77073 23.0038 8.64944 23.4396 8.47454 23.8416L22.8129 32.0983C22.8468 32.0672 22.8806 32.0362 22.9173 32.008C23.0527 31.9008 23.1966 31.8162 23.3489 31.7527ZM22.3193 32.9586L7.995 24.6822L7.86242 24.8529C7.75522 24.9883 7.63957 25.1152 7.51827 25.2365C7.37441 25.3776 7.21926 25.5101 7.05847 25.63L12.373 34.8415C12.4604 34.8105 12.5479 34.7837 12.6409 34.7611L12.8046 34.7259C13.1713 34.6624 13.5323 34.6793 13.8708 34.7626C14.5591 34.9304 15.1571 35.3733 15.5267 35.9755L22.2798 33.5157C22.2629 33.3296 22.277 33.1406 22.3193 32.9586ZM21.1543 21.4397L21.112 21.5906H8.82997C8.77073 20.9996 8.5902 20.4425 8.31658 19.9446C8.19246 19.7203 8.04859 19.5088 7.89063 19.3099L14.2601 12.8911C14.9625 13.372 15.8793 13.5173 16.703 13.2098L21.4759 20.9079C21.3405 21.0603 21.2333 21.2394 21.1543 21.4397ZM23.4194 20.3832C23.0584 20.2634 22.6832 20.2634 22.339 20.3621L17.569 12.6753C17.7354 12.5215 17.8793 12.348 18.0006 12.159C18.1162 11.9799 18.2093 11.7867 18.277 11.5864C18.3306 11.4341 18.3673 11.2775 18.3927 11.1167L32.1584 10.4764C32.3756 11.3227 32.9878 12.0138 33.8143 12.3227L32.8524 18.7204C32.4998 18.7373 32.1613 18.8219 31.8538 18.9615C31.0329 19.3325 30.4236 20.0983 30.3221 21.0447L24.4688 21.4806L24.4011 21.3099L24.339 21.1858C24.1416 20.8318 23.8256 20.5412 23.4194 20.3832ZM18.356 10.1097L32.0936 9.46936C32.1048 9.37768 32.1218 9.28883 32.1415 9.20138L17.8652 2.90524L17.7636 3.01384C17.7016 3.0759 17.6367 3.13231 17.569 3.1845L17.4505 3.2663L17.3123 3.3467C17.2277 3.39183 17.1374 3.4285 17.0443 3.45671C16.9879 3.47505 16.9286 3.49056 16.8694 3.50185L16.4886 8.17459C16.9258 8.29871 17.332 8.53284 17.6564 8.85724C17.8736 9.07162 18.057 9.3255 18.1896 9.61323C18.2629 9.77684 18.3165 9.94186 18.356 10.1097ZM15.5323 8.07868L15.9131 3.41158C15.6 3.29028 15.3264 3.08436 15.1261 2.82625L6.19529 6.29026C6.20658 6.40733 6.20658 6.52721 6.19529 6.6471C6.18401 6.78109 6.1558 6.91508 6.11067 7.04625C6.00065 7.32974 5.82576 7.56952 5.61138 7.75428L5.46469 7.86853L5.30108 7.97008C5.17696 8.03778 5.04438 8.09138 4.90616 8.12946V17.671C5.76652 17.7697 6.54508 18.1054 7.18259 18.6089L13.5972 12.2437C13.5041 12.1153 13.4251 11.9757 13.3574 11.8276C13.0359 11.1308 13.0556 10.3495 13.3433 9.67811C13.5972 9.08996 14.0542 8.58785 14.6663 8.30576C14.8017 8.2437 14.9399 8.19434 15.0782 8.15625C15.2277 8.11676 15.38 8.09138 15.5323 8.07868Z" fill="black"/>
</svg>
