<svg width="80" height="80" viewBox="0 0 80 80" fill="none" xmlns="http://www.w3.org/2000/svg">
<circle cx="40" cy="40" r="40" fill="#100A20"/>
<path fill-rule="evenodd" clip-rule="evenodd" d="M50.6802 22.2495C50.2707 22.5446 48.565 23.9778 48.0491 24.4604C47.5444 24.9326 46.2481 26.0798 43.4415 28.5382C42.3753 29.4721 41.4173 30.3135 41.3124 30.4081C41.2075 30.5026 40.5069 31.1196 39.7553 31.7791C34.7865 36.1394 32.5136 38.1569 31.7317 38.9012C31.4005 39.2165 31.3027 39.3503 31.3027 39.4882C31.3027 39.6222 31.3396 39.6759 31.4507 39.7038C31.649 39.7534 45.0693 34.0261 45.5886 33.6701C45.9492 33.423 47.1425 32.5207 47.3182 32.3623C47.3707 32.315 48.3031 31.5316 49.3903 30.6213L51.3671 28.9663L51.4106 28.5972C51.4567 28.2066 51.4062 23.6496 51.346 22.7599C51.2948 22.0038 51.1623 21.9023 50.6802 22.2495ZM47.3818 22.88C46.7142 23.1481 42.2932 24.9667 40.6133 25.6642C39.8443 25.9835 38.9148 26.3671 38.5478 26.5168C38.1808 26.6665 36.9367 27.1796 35.7832 27.6572C30.3507 29.9063 29.4816 30.2666 28.4428 30.7C27.8311 30.9553 26.6442 31.4488 25.8053 31.7968C23.4869 32.7585 20.0596 34.1887 19.7167 34.3374L19.4116 34.4699L19.4308 37.627C19.4549 41.5994 19.3788 41.3973 20.6685 40.9144C21.0819 40.7596 22.4354 40.205 23.6763 39.682C25.9826 38.7099 26.5951 38.4539 31.6118 36.364L34.4947 35.163L36.5054 33.4044C37.6112 32.437 40.0318 30.3219 41.8844 28.7041C43.737 27.0863 45.7246 25.3499 46.3014 24.8455C47.629 23.6845 48.2715 23.061 48.2715 22.9339C48.2715 22.7944 48.143 22.6813 47.9887 22.6852C47.9171 22.687 47.6439 22.7747 47.3818 22.88ZM59.554 30.1007C58.9805 30.5553 56.5732 32.6482 54.3321 34.6407C53.7302 35.1758 52.2665 36.4241 50.7807 37.6695C47.284 40.6003 43.3343 44.0989 38.5796 48.477C37.9155 49.0886 37.2243 49.7173 37.0436 49.8741L36.7151 50.1594L36.7652 53.9625C36.8154 57.761 36.8349 58.0596 37.0424 58.1912C37.2439 58.3189 37.4211 58.2052 38.3621 57.3439C39.5089 56.2943 39.7273 56.0993 40.2313 55.6739C41.2887 54.7815 47.1028 49.4997 51.3857 45.5406C52.1372 44.8459 53.4378 43.6756 54.2758 42.9399C58.6136 39.1322 60.2716 37.5935 60.3997 37.2568C60.499 36.9961 60.6227 33.1716 60.5791 31.7143C60.5572 30.9822 60.5031 30.2406 60.4588 30.0663C60.34 29.5974 60.1814 29.6035 59.554 30.1007ZM55.7709 30.5373C55.1242 30.811 53.9088 31.3265 53.0698 31.6829C52.2309 32.0394 51.3873 32.3951 51.195 32.4735C51.0028 32.5519 49.8302 33.0442 48.5893 33.5676C41.5133 36.5521 34.8305 39.3665 31.6205 40.7139L27.9661 42.2477V45.5758C27.9661 49.1137 27.9661 49.1135 28.2641 49.1135C28.4774 49.1135 31.722 47.7983 41.5252 43.7382L43.009 43.1236L44.5758 41.7569C45.4375 41.0051 48.3303 38.4849 51.0043 36.1563C57.722 30.3063 57.3597 30.6332 57.3597 30.422C57.3597 30.2352 57.1899 30.0328 57.0369 30.0372C56.9873 30.0387 56.4175 30.2637 55.7709 30.5373Z" fill="#C1ED33"/>
</svg>
