<svg width="46" height="40" viewBox="0 0 46 40" fill="none" xmlns="http://www.w3.org/2000/svg">
<path fill-rule="evenodd" clip-rule="evenodd" d="M34.7145 0.21111C34.2599 0.537353 32.3662 2.1221 31.7934 2.65565C31.2331 3.17778 29.794 4.44617 26.678 7.16446C25.4944 8.19701 24.4308 9.12738 24.3143 9.23195C24.1979 9.33651 23.42 10.0186 22.5857 10.7479C17.0693 15.569 14.5459 17.7998 13.6778 18.6228C13.3101 18.9714 13.2015 19.1193 13.2015 19.2717C13.2015 19.42 13.2425 19.4793 13.3658 19.5101C13.586 19.565 28.4853 13.2324 29.0618 12.8388C29.4622 12.5655 30.7869 11.5679 30.982 11.3927C31.0402 11.3404 32.0755 10.4742 33.2825 9.46771L35.4771 7.63774L35.5254 7.22971C35.5765 6.79785 35.5205 1.75913 35.4537 0.775431C35.3968 -0.0605353 35.2497 -0.172812 34.7145 0.21111ZM31.0526 0.908169C30.3115 1.2047 25.4032 3.21549 23.5382 3.98669C22.6845 4.33971 21.6526 4.76393 21.2451 4.9294C20.8376 5.09487 19.4565 5.66227 18.1758 6.19036C12.1446 8.67716 11.1798 9.07552 10.0264 9.55476C9.34732 9.83699 8.02966 10.3827 7.0983 10.7674C4.52436 11.8308 0.719405 13.4121 0.338746 13.5766L0 13.723L0.0212375 17.2139C0.0480493 21.606 -0.0364082 21.3827 1.39542 20.8487C1.85432 20.6775 3.35699 20.0643 4.73462 19.4861C7.29509 18.4112 7.97512 18.1281 13.5447 15.8174L16.7453 14.4895L18.9776 12.5449C20.2053 11.4753 22.8926 9.1367 24.9494 7.34787C27.0061 5.55904 29.2128 3.63922 29.8531 3.08149C31.3271 1.79775 32.0404 1.1084 32.0404 0.967812C32.0404 0.813556 31.8977 0.688526 31.7264 0.692871C31.6469 0.694833 31.3436 0.791759 31.0526 0.908169ZM44.5662 8.89211C43.9296 9.39468 41.2569 11.7089 38.7689 13.9119C38.1007 14.5036 36.4757 15.8839 34.8261 17.2608C30.944 20.5014 26.5591 24.3698 21.2804 29.2106C20.543 29.8868 19.7757 30.582 19.5751 30.7554L19.2104 31.0708L19.266 35.2759C19.3217 39.4759 19.3434 39.806 19.5738 39.9515C19.7975 40.0927 19.9942 39.967 21.0389 39.0146C22.3121 37.8541 22.5545 37.6385 23.1141 37.1681C24.288 36.1815 30.7428 30.3414 35.4977 25.9638C36.3321 25.1957 37.776 23.9017 38.7064 23.0883C43.5222 18.8781 45.3629 17.1768 45.5052 16.8045C45.6153 16.5162 45.7527 12.2876 45.7043 10.6762C45.68 9.86677 45.6199 9.04678 45.5708 8.85405C45.4389 8.33564 45.2627 8.3423 44.5662 8.89211ZM40.3662 9.37485C39.6483 9.6774 38.2989 10.2474 37.3675 10.6416C36.4361 11.0357 35.4995 11.429 35.286 11.5157C35.0726 11.6023 33.7708 12.1467 32.3932 12.7254C24.5374 16.0254 17.1181 19.1372 13.5543 20.627L9.49726 22.3229V26.0028C9.49726 29.9145 9.49726 29.9144 9.8281 29.9144C10.0649 29.9144 13.667 28.4602 24.5506 23.971L26.1979 23.2914L27.9373 21.7802C28.894 20.949 32.1057 18.1624 35.0744 15.5877C42.5324 9.11946 42.1301 9.48089 42.1301 9.2473C42.1301 9.04083 41.9416 8.81698 41.7718 8.82188C41.7167 8.82349 41.0841 9.07237 40.3662 9.37485Z" fill="#0C0C0C"/>
</svg>
