<svg width="171" height="172" viewBox="0 0 171 172" fill="none" xmlns="http://www.w3.org/2000/svg">
<path fill-rule="evenodd" clip-rule="evenodd" d="M68.3408 1.94702C-0.219112 16.649 -23.4965 101.046 27.7819 148.994C81.8092 199.513 170.646 160.342 170.646 85.9999C170.646 31.6966 120.755 -9.29364 68.3408 1.94702ZM83.6554 11.5238L83.6514 18.7472L71.0119 28.7106C64.0605 34.1904 51.6212 43.9934 43.3686 50.4945C23.9291 65.8082 25.8729 61.8637 25.8729 85.9999C25.8729 108.342 25.7374 107.752 32.0173 112.677L35.6719 115.541L31.3149 122.939C24.6086 134.327 24.0596 133.816 43.0597 133.869L59.2502 133.915L71.2062 143.672L83.1623 153.429V160.296V167.162L78.6787 166.867C47.6628 164.824 18.5449 141.922 8.46296 111.64C-8.49269 60.7149 27.474 8.21597 81.9168 4.42192C83.4283 4.31631 83.6594 5.26084 83.6554 11.5238ZM104.085 6.93667C132.502 13.7387 154.736 34.7374 163.538 63.0842C166.933 74.02 166.926 97.951 163.524 108.916C153.602 140.886 125.495 163.835 92.3784 167.002L87.6458 167.454V160.305V153.155L99.8509 143.508L112.056 133.861L127.689 133.843C137.259 133.831 143.567 133.429 143.954 132.804C144.3 132.243 142.533 128.229 140.027 123.884C134.559 114.403 134.568 115.94 139.953 111.905L144.437 108.545V86.3496V64.1533L138.691 59.3838C135.531 56.7614 122.753 46.5968 110.295 36.7959L87.6458 18.9764V11.6852V4.39402L92.8765 4.94998C95.7539 5.25586 100.797 6.14957 104.085 6.93667ZM112.534 44.1618C126.744 55.3915 138.371 64.8029 138.372 65.0769C138.375 65.7354 118.862 80.9545 117.194 81.5941C116.342 81.9209 111.012 73.6324 101.63 57.3931C87.9138 33.6494 86.0466 30.8408 84.589 31.7415C84.0002 32.1061 72.4477 51.7628 59.309 74.7573L54.6312 82.9432L43.7143 74.3348C37.7094 69.6012 32.92 65.3738 33.0715 64.9414C33.5387 63.6033 85.0105 23.1829 85.8783 23.4719C86.3286 23.6223 98.3235 32.9321 112.534 44.1618ZM111.039 82.5127C124.601 106.076 136.329 126.363 137.101 127.597C138.505 129.839 138.505 129.839 113.075 129.839H87.6458V119.435V109.032L73.2527 97.7647C65.3358 91.5684 58.8347 86.0816 58.8058 85.5715C58.7112 83.9425 85.13 38.3153 85.7677 39.0057C86.1044 39.3714 97.4766 58.9494 111.039 82.5127ZM50.2832 85.1261C59.5989 92.4901 70.9193 101.416 75.4387 104.961L83.6564 111.406L83.6584 129.744C83.6604 147.114 83.5688 148.003 81.9168 146.587C79.7099 144.695 48.8096 120.28 38.622 112.378L30.9463 106.425L30.9004 88.1201C30.8646 73.6224 31.1137 70.0147 32.1 70.7749C32.7855 71.303 40.9674 77.7612 50.2832 85.1261ZM140.452 87.9089V105.759L136.705 108.726L132.959 111.693L125.768 99.2223C118.576 86.7502 118.576 86.7502 120.799 85.0016C122.021 84.0401 126.606 80.3108 130.989 76.7151C135.371 73.1183 139.294 70.1492 139.704 70.1173C140.115 70.0854 140.452 78.091 140.452 87.9089ZM46.4333 124.11L52.9713 129.341L47.891 129.641C45.0972 129.808 40.5759 129.808 37.8449 129.641L32.8792 129.341L35.8722 124.11C37.5191 121.232 39.0973 118.879 39.3803 118.879C39.6632 118.879 42.8365 121.232 46.4333 124.11ZM104.035 134.648C103.514 135.1 99.6147 138.243 95.3674 141.63L87.6458 147.789V140.806V133.824H96.3139C101.081 133.824 104.556 134.195 104.035 134.648Z" fill="#F5C09A"/>
</svg>
