<svg width="32" height="32" viewBox="0 0 32 32" fill="none" xmlns="http://www.w3.org/2000/svg">
<path fill-rule="evenodd" clip-rule="evenodd" d="M32 16C32 7.17152 24.8285 0 16 0C7.17152 0 0 7.17152 0 16C0 24.8285 7.17152 32 16 32C24.8285 32 32 24.8285 32 16Z" fill="white"/>
<path fill-rule="evenodd" clip-rule="evenodd" d="M11.8547 3.38381C13.3453 2.89389 14.9382 2.66989 16.5161 2.73037C18.0944 2.79085 19.6579 3.13613 21.1129 3.74413C22.5683 4.35213 23.9152 5.22317 25.0675 6.29773C26.5917 7.71949 27.775 9.49773 28.4848 11.4868C29.1949 13.4763 29.4314 15.6766 29.1574 17.7713C28.8838 19.866 28.0998 21.8555 26.9139 23.5662C25.728 25.2769 24.1398 26.7086 22.2745 27.7006C20.4093 28.6923 18.2662 29.244 16.1539 29.276C14.0416 29.308 11.9597 28.8206 10.095 27.8952C8.23071 26.9697 6.58335 25.6065 5.33247 23.9038C4.08159 22.2011 3.22719 20.1588 2.88799 18.075C2.54879 15.9908 2.72479 13.8648 3.37471 11.8814C3.86591 10.3819 4.62815 8.96429 5.60479 7.73581H4.12031V5.28205H9.93695V10.7137H7.48319V9.22957C6.68319 10.2356 6.05855 11.3969 5.65631 12.6257C5.12415 14.2513 4.98079 15.9953 5.25631 17.6971C5.59871 19.8139 6.58879 21.8651 8.06655 23.4459C9.83423 25.3364 12.2995 26.5544 14.8659 26.8209C17.432 27.0875 20.0992 26.403 22.2173 24.9288C24.3354 23.4545 25.905 21.1905 26.5421 18.69C27.1792 16.1896 26.8838 13.4526 25.735 11.1422C24.5862 8.83181 22.5837 6.94861 20.1891 5.95917C17.7945 4.96941 15.0077 4.87405 12.6038 5.66381L11.8547 3.38381Z" fill="url(#paint0_linear_1942_16317)"/>
<circle cx="26" cy="6" r="6" fill="#0C0C0C"/>
<path d="M22 6.11511V6.09651C22.0084 6.0706 22.0151 6.04371 22.0198 6.01667L22.2419 3.93853C22.2456 3.8959 22.2596 3.85502 22.2826 3.82002C22.5364 3.47396 22.7922 3.12971 23.0499 2.78723C23.0737 2.75787 23.1063 2.73842 23.1422 2.73233C23.4262 2.69598 23.7106 2.66282 23.9955 2.6328C24.1016 2.62305 24.2048 2.58917 24.2979 2.53368C24.4691 2.43064 24.6419 2.33038 24.8146 2.23012C24.9342 2.16076 25.0537 2.0914 25.1727 2.02111C25.1925 2.00734 25.2155 2 25.239 2C25.2605 2 25.2816 2.00615 25.3002 2.01772C25.5946 2.17342 25.8896 2.3277 26.1846 2.48202L26.5771 2.68751C26.5932 2.69603 26.609 2.7053 26.6294 2.71734C26.6438 2.72582 26.6605 2.73568 26.6814 2.74761L26.334 3.10892C26.3427 3.11141 26.3503 3.11378 26.3571 3.11594C26.3697 3.11989 26.38 3.12311 26.3905 3.12492C26.5111 3.14551 26.6318 3.16563 26.7526 3.18574C27.0288 3.23176 27.305 3.27779 27.5802 3.32956C27.6392 3.3406 27.6985 3.35104 27.7577 3.36149C28.1291 3.42695 28.5015 3.4926 28.833 3.70521C28.9889 3.80524 29.142 3.91025 29.2951 4.01525C29.4194 4.10047 29.5436 4.18567 29.6693 4.26818C29.8018 4.35507 29.8519 4.48215 29.843 4.63639C29.8286 4.90189 29.8102 5.16755 29.7829 5.43212C29.7581 5.67118 29.7016 5.90114 29.5571 6.09594C29.5441 6.1136 29.5441 6.14858 29.5482 6.17371C29.6839 6.99444 29.8201 7.81492 29.9567 8.63515C29.9704 8.71815 29.9791 8.80214 29.9878 8.88612C29.9917 8.92411 29.9956 8.9621 30 9H28.9584C28.975 8.97954 28.9912 8.95856 29.0073 8.93761C29.0417 8.89285 29.0761 8.84821 29.1147 8.80893C29.1625 8.76113 29.17 8.72408 29.1403 8.65861C28.8456 8.00978 28.5536 7.35973 28.2644 6.70845C28.2297 6.63178 28.1925 6.61673 28.118 6.62846C27.875 6.6667 27.6315 6.70086 27.388 6.73502C27.3022 6.74706 27.2162 6.75912 27.1304 6.77134L25.6786 6.97822C25.624 6.98584 25.5858 7.00482 25.558 7.0638C25.2533 7.70889 24.9465 8.35393 24.6377 8.9989H23.5792C23.5876 8.96697 23.5988 8.93563 23.6124 8.90583C23.6608 8.81944 23.7101 8.73356 23.7593 8.64774C23.8025 8.57261 23.8456 8.49747 23.8881 8.42209C23.9093 8.38539 23.9264 8.34577 23.9385 8.30452C24.1662 7.47215 24.3925 6.63934 24.6174 5.8061C24.6189 5.79756 24.6197 5.78888 24.6197 5.78015C24.6197 5.74894 24.6097 5.71864 24.5913 5.69445C24.4649 5.55399 24.3343 5.41763 24.2011 5.28516C24.1785 5.26571 24.1504 5.2551 24.1215 5.2551C24.1154 5.2551 24.1093 5.25557 24.1033 5.25648C23.9448 5.29155 23.7867 5.32825 23.6285 5.36496C23.4704 5.40166 23.3122 5.43836 23.1538 5.47343C23.0994 5.48535 23.0843 5.51361 23.0777 5.56515C23.0632 5.68894 23.0483 5.81263 23.0334 5.9363C23.0138 6.09849 22.9942 6.26068 22.9757 6.42303C22.9726 6.45094 22.9757 6.48962 22.9917 6.5086C23.0768 6.61175 23.1649 6.7125 23.2562 6.81699L23.3083 6.87662L23.6839 6.49056L23.8044 7.365L23.6959 7.38718C23.53 7.42114 23.3675 7.45437 23.2048 7.48649L23.2025 7.48652C23.186 7.48652 23.1695 7.4832 23.1541 7.47683C23.1218 7.46842 23.0894 7.46035 23.0571 7.45228C22.9711 7.43087 22.8852 7.40945 22.8012 7.38175C22.7562 7.36625 22.717 7.33545 22.6897 7.2941C22.6089 7.15939 22.531 7.0228 22.453 6.88619C22.4057 6.80337 22.3584 6.72052 22.3105 6.63809C22.2102 6.46585 22.1077 6.29471 22.0052 6.12355L22 6.11511Z" fill="white"/>
<path d="M27.4774 8.91508C27.5137 8.84762 27.5501 8.78019 27.5919 8.71702C27.6346 8.65341 27.6577 8.57687 27.6577 8.49847L27.6574 8.48426C27.6558 8.26128 27.6558 8.03823 27.6559 7.81517C27.6559 7.60467 27.656 7.39391 27.6546 7.1834C27.6546 7.11979 27.672 7.08051 27.7227 7.04776C27.7949 7.00058 27.8653 6.95043 27.9385 6.8982L28.011 6.84666L28.0224 6.86499C28.0366 6.88797 28.0488 6.90778 28.0609 6.92853L28.1597 7.10639C28.2982 7.35565 28.4367 7.60499 28.5724 7.85598C28.5904 7.89133 28.5999 7.93108 28.5999 7.97142C28.5999 7.97894 28.5996 7.98657 28.5989 7.99403C28.5737 8.24468 28.5458 8.49534 28.5178 8.74637L28.4897 8.99962H27.4313C27.4469 8.97165 27.4622 8.94335 27.4774 8.91508Z" fill="white"/>
<path d="M25.4277 8.96846C25.4131 8.97898 25.3985 8.98949 25.3837 8.99947L26.5464 8.99953C26.5461 8.97189 26.544 8.94413 26.5405 8.91672C26.4401 8.37332 26.3393 7.82998 26.2379 7.28673C26.2287 7.23722 26.2179 7.18779 26.2068 7.13706C26.2021 7.11535 26.1973 7.0934 26.1926 7.0711C26.1515 7.08221 26.1114 7.09266 26.0721 7.10292C25.973 7.12875 25.8788 7.1533 25.7863 7.18366C25.7451 7.1994 25.7105 7.23058 25.6889 7.27146C25.5866 7.47959 25.4885 7.68995 25.3947 7.90253C25.3843 7.92923 25.3789 7.95793 25.3789 7.98688C25.3789 8.00517 25.3811 8.02343 25.3853 8.04115C25.4459 8.28947 25.5109 8.53659 25.5804 8.78255C25.5987 8.84749 25.584 8.8765 25.5293 8.90329C25.4936 8.92083 25.4606 8.94465 25.4277 8.96846Z" fill="white"/>
<g clip-path="url(#clip0_1942_16317)">
<path d="M25.9658 31.9948C29.2582 31.9948 31.9271 29.3259 31.9271 26.0336C31.9271 22.7412 29.2582 20.0723 25.9658 20.0723C22.6735 20.0723 20.0045 22.7412 20.0045 26.0336C20.0045 29.3259 22.6735 31.9948 25.9658 31.9948Z" fill="#0C0C0C"/>
<path d="M29.2259 25.2117L25.9698 21.8867L22.7133 25.2117L24.3414 26.874L25.9698 25.2117L27.5979 26.874L29.2259 25.2117Z" fill="white"/>
<path d="M22.9933 29.8636V29.8869H23.0166H24.3038H24.3271V29.8636V29.5248V29.5016H24.3038H23.4125V29.0598H24.2079H24.2311V29.0365V28.6978V28.6745H24.2079H23.4125V28.2496H24.2869H24.3102V28.2263V27.8876V27.8643H24.2869H23.0166H22.9933V27.8876V29.8636ZM25.4042 29.8362L25.4046 29.8364C25.5252 29.8967 25.6682 29.9264 25.8328 29.9264C25.9974 29.9264 26.1395 29.8967 26.2583 29.8364L26.2585 29.8363C26.379 29.7741 26.4709 29.6862 26.5335 29.5728C26.5979 29.4578 26.6296 29.3229 26.6296 29.1692V27.8876V27.8643H26.6063H26.2337H26.2104V27.8876V29.1805C26.2104 29.2962 26.1771 29.3848 26.1128 29.4491L26.1126 29.4493C26.0505 29.5131 25.9586 29.5467 25.8328 29.5467C25.7072 29.5467 25.6142 29.5132 25.5502 29.4493C25.4877 29.3849 25.4552 29.2963 25.4552 29.1805V27.8876V27.8643H25.432H25.0593H25.0361V27.8876V29.1692C25.0361 29.3228 25.0668 29.4576 25.1292 29.5727L25.1295 29.5731C25.1938 29.6862 25.2856 29.774 25.4042 29.8362ZM27.435 29.8636V29.8869H27.4583H27.8309H27.8541V29.8636V29.1416H28.3503C28.4016 29.1416 28.4316 29.1548 28.4479 29.1752L28.4485 29.1759C28.4686 29.1991 28.4795 29.23 28.4795 29.2708V29.8636V29.8869H28.5027H28.8754H28.8987V29.8636V29.2172C28.8987 29.1341 28.8768 29.0651 28.8309 29.0129C28.789 28.9633 28.7317 28.9353 28.6615 28.9275V28.9135C28.742 28.8778 28.81 28.8237 28.8656 28.7514C28.926 28.673 28.9551 28.5716 28.9551 28.4493V28.4154C28.9551 28.3043 28.9288 28.2067 28.8752 28.1234C28.8219 28.0403 28.7468 27.9764 28.651 27.9314C28.5551 27.8864 28.4434 27.8643 28.3165 27.8643H27.4583H27.435V27.8876V29.8636ZM28.4694 28.3162L28.4697 28.3165C28.5133 28.3584 28.536 28.415 28.536 28.4888V28.5171C28.536 28.5906 28.5126 28.6483 28.4669 28.6923C28.4235 28.734 28.3613 28.7564 28.2769 28.7564H27.8541V28.2496H28.2769C28.3631 28.2496 28.426 28.2728 28.4694 28.3162Z" fill="white"/>
</g>
<path d="M22 14.0002L16.0003 8L10 14.0002L12.9999 17L16.0003 14.0002L19.0002 17L22 14.0002Z" fill="#0C0C0C"/>
<path d="M11 22.8782V22.9234H11.039H13.1982H13.2372V22.8782V22.2211V22.176H13.1982H11.7031V21.319H13.0372H13.0763V21.2738V20.6168V20.5716H13.0372H11.7031V19.7474H13.1698H13.2088V19.7022V19.0452V19H13.1698H11.039H11V19.0452V22.8782ZM15.044 22.825L15.0446 22.8255C15.2469 22.9425 15.4868 23 15.7629 23C16.039 23 16.2773 22.9425 16.4766 22.8253L16.4768 22.8252C16.679 22.7046 16.8332 22.5342 16.9382 22.3142C17.0461 22.091 17.0993 21.8294 17.0993 21.5312V19.0452V19H17.0603H16.4353H16.3962V19.0452V21.5531C16.3962 21.7776 16.3404 21.9494 16.2325 22.0742L16.2321 22.0746C16.128 22.1984 15.9738 22.2636 15.7629 22.2636C15.5521 22.2636 15.3961 22.1985 15.2887 22.0745C15.1839 21.9497 15.1295 21.7777 15.1295 21.5531V19.0452V19H15.0905H14.4655H14.4264V19.0452V21.5312C14.4264 21.8293 14.478 22.0907 14.5827 22.3139L14.5831 22.3146C14.6911 22.5342 14.845 22.7045 15.044 22.825ZM18.4503 22.8782V22.9234H18.4893H19.1143H19.1533V22.8782V21.4777H19.9855C20.0715 21.4777 20.1219 21.5034 20.1493 21.5429L20.1502 21.5442C20.184 21.5893 20.2023 21.6492 20.2023 21.7283V22.8782V22.9234H20.2412H20.8664H20.9053V22.8782V21.6243C20.9053 21.4631 20.8687 21.3293 20.7917 21.228C20.7213 21.1319 20.6254 21.0775 20.5076 21.0625V21.0353C20.6425 20.9661 20.7566 20.8611 20.8499 20.7208C20.9512 20.5687 21 20.372 21 20.1349V20.0691C21 19.8536 20.9558 19.6642 20.866 19.5026C20.7765 19.3415 20.6507 19.2174 20.4899 19.1302C20.329 19.0429 20.1416 19 19.9288 19H18.4893H18.4503V19.0452V22.8782ZM20.1853 19.8766L20.1858 19.8772C20.259 19.9586 20.2969 20.0683 20.2969 20.2114V20.2663C20.2969 20.4089 20.2577 20.5208 20.1811 20.6061C20.1083 20.687 20.004 20.7304 19.8624 20.7304H19.1533V19.7474H19.8624C20.007 19.7474 20.1125 19.7925 20.1853 19.8766Z" fill="#0C0C0C" stroke="black" stroke-width="0.600874"/>
<defs>
<linearGradient id="paint0_linear_1942_16317" x1="2.04341" y1="13.2972" x2="15.2222" y2="29.5766" gradientUnits="userSpaceOnUse">
<stop stop-color="#004CFF"/>
<stop offset="0.252131" stop-color="#00E0FB"/>
<stop offset="0.505709" stop-color="#87FF70"/>
<stop offset="0.755054" stop-color="#F8F500"/>
<stop offset="1" stop-color="#FF1A00"/>
</linearGradient>
<clipPath id="clip0_1942_16317">
<rect width="12" height="12" fill="white" transform="translate(20 20)"/>
</clipPath>
</defs>
</svg>
