<svg xmlns="http://www.w3.org/2000/svg" width="100" height="100" viewBox="0 0 100 100">
  <g fill="none" fill-rule="evenodd">
    <path fill="#FFF" d="M100,49.9998 C100,43.4558 98.698,36.9118 96.194,30.8658 C93.689,24.8198 89.982,19.2718 85.355,14.6448 C80.728,10.0168 75.18,6.3108 69.134,3.8058 C63.088,1.3018 56.544,-0.0002 50,-0.0002 C43.456,-0.0002 36.911,1.3018 30.865,3.8058 C24.819,6.3108 19.272,10.0168 14.644,14.6448 C10.017,19.2718 6.31,24.8198 3.806,30.8658 C1.301,36.9118 0,43.4558 0,49.9998 C0,56.5438 1.301,63.0878 3.806,69.1338 C6.31,75.1798 10.017,80.7278 14.644,85.3558 C19.272,89.9828 24.819,93.6898 30.865,96.1938 C36.911,98.6978 43.456,99.9998 50,99.9998 C56.544,99.9998 63.088,98.6978 69.134,96.1938 C75.18,93.6898 80.728,89.9828 85.355,85.3558 C89.982,80.7278 93.689,75.1798 96.194,69.1338 C98.698,63.0878 100,56.5438 100,49.9998 Z"/>
    <path fill="#0657F9" d="M37.046,10.5738 C41.704,9.0428 46.682,8.3428 51.613,8.5318 C56.545,8.7208 61.431,9.7998 65.978,11.6998 C70.526,13.5998 74.735,16.3218 78.336,19.6798 C83.099,24.1228 86.797,29.6798 89.015,35.8958 C91.234,42.1128 91.973,48.9888 91.117,55.5348 C90.262,62.0808 87.812,68.2978 84.106,73.6438 C80.4,78.9898 75.437,83.4638 69.608,86.5638 C63.779,89.6628 57.082,91.3868 50.481,91.4868 C43.88,91.5868 37.374,90.0638 31.547,87.1718 C25.721,84.2798 20.573,80.0198 16.664,74.6988 C12.755,69.3778 10.085,62.9958 9.025,56.4838 C7.965,49.9708 8.515,43.3268 10.546,37.1288 C12.081,32.4428 14.463,28.0128 17.515,24.1738 L12.876,24.1738 L12.876,16.5058 L31.053,16.5058 L31.053,33.4798 L23.385,33.4798 L23.385,28.8418 C20.885,31.9858 18.933,35.6148 17.676,39.4548 C16.013,44.5348 15.565,49.9848 16.426,55.3028 C17.496,61.9178 20.59,68.3278 25.208,73.2678 C30.732,79.1758 38.436,82.9818 46.456,83.8148 C54.475,84.6478 62.81,82.5088 69.429,77.9018 C76.048,73.2948 80.953,66.2198 82.944,58.4058 C84.935,50.5918 84.012,42.0388 80.422,34.8188 C76.832,27.5988 70.574,21.7138 63.091,18.6218 C55.608,15.5288 46.899,15.2308 39.387,17.6988 L37.046,10.5738 Z"/>
    <path fill="#000" d="M48.5802359,28.2498 L52.3810624,29.1902551 L50.8560137,35.2561564 C51.8780322,35.4849158 52.9056014,35.7198578 53.9047233,35.9664782 L53.9047233,35.9664782 L55.4242213,29.939047 L59.2305984,30.8774413 L57.6722457,37.0669962 C62.4777447,38.7115905 65.9906297,41.1661166 65.3009581,45.7392428 C64.7979279,49.0833886 62.9287373,50.7046261 60.4392584,51.2686244 C63.8550066,53.0306897 65.595144,55.7304623 63.9403482,60.4107551 C61.8852099,66.2266011 56.9999199,66.7170941 50.5118717,65.4991051 L50.5118717,65.4991051 L48.9361731,71.7498 L45.1297961,70.8107188 L46.6825981,64.6431467 C45.6945775,64.4027089 44.6885172,64.1450971 43.6491528,63.8661892 L43.6491528,63.8661892 L42.0908001,70.0612399 L38.2858107,69.1221587 L39.8601216,62.8597855 C38.9740947,62.6365218 38.070722,62.3947101 37.1493095,62.1673247 L37.1493095,62.1673247 L32.1925545,60.9417791 L34.083254,56.6303865 C34.2234086,56.6674826 36.8905092,57.3688739 36.8502667,57.3132298 C37.9284858,57.5770243 38.4086194,56.8825027 38.595261,56.4188013 L38.595261,56.4188013 L42.8699765,39.4541997 C42.9164634,38.6559464 42.632685,37.6433599 41.0916782,37.2627813 C41.1541233,37.2243112 38.4717584,36.6135993 38.33091,36.581312 L38.33091,36.581312 L39.3411333,32.5550099 L44.5934618,33.8519999 L44.5872173,33.8746697 C45.3781889,34.065646 46.1906693,34.2497526 47.0163326,34.4400419 L47.0163326,34.4400419 L48.5802359,28.2498 Z M46.9760902,51.0336824 L44.8869539,59.331533 C47.4673251,59.9642278 55.4242213,62.496381 56.6037403,57.8112794 C57.8297461,52.9290189 49.5564614,51.6725599 46.9760902,51.0336824 L46.9760902,51.0336824 Z M49.8277507,39.7063159 L47.9356635,47.2320179 C50.082388,47.7630418 56.7064278,49.9276687 57.7790962,45.6719203 C58.8968639,41.2279435 51.9793321,40.2373399 49.8277507,39.7063159 L49.8277507,39.7063159 Z"/>
  </g>
</svg>
