<svg xmlns="http://www.w3.org/2000/svg" width="32" height="32" viewBox="0 0 32 32">
  <defs>
    <linearGradient id="ytoken-crv-btc-lp-a" x1="28.124%" x2="77.719%" y1="15.015%" y2="76.329%">
      <stop offset="0%" stop-color="#004CFF"/>
      <stop offset="25.213%" stop-color="#00E0FB"/>
      <stop offset="50.571%" stop-color="#87FF70"/>
      <stop offset="75.505%" stop-color="#F8F500"/>
      <stop offset="100%" stop-color="#FF1A00"/>
    </linearGradient>
  </defs>
  <g fill="none" fill-rule="evenodd">
    <path fill="#FFF" d="M32,15.999936 C32,13.905856 31.58336,11.811776 30.78208,9.877056 C29.98048,7.942336 28.79424,6.166976 27.3136,4.686336 C25.83296,3.205376 24.0576,2.019456 22.12288,1.217856 C20.18816,0.416576 18.09408,-6.4e-05 16,-6.4e-05 C13.90592,-6.4e-05 11.81152,0.416576 9.8768,1.217856 C7.94208,2.019456 6.16704,3.205376 4.68608,4.686336 C3.20544,6.166976 2.0192,7.942336 1.21792,9.877056 C0.41632,11.811776 0,13.905856 0,15.999936 C0,18.094016 0.41632,20.188096 1.21792,22.122816 C2.0192,24.057536 3.20544,25.832896 4.68608,27.313856 C6.16704,28.794496 7.94208,29.980736 9.8768,30.782016 C11.81152,31.583296 13.90592,31.999936 16,31.999936 C18.09408,31.999936 20.18816,31.583296 22.12288,30.782016 C24.0576,29.980736 25.83296,28.794496 27.3136,27.313856 C28.79424,25.832896 29.98048,24.057536 30.78208,22.122816 C31.58336,20.188096 32,18.094016 32,15.999936 Z"/>
    <path fill="url(#ytoken-crv-btc-lp-a)" d="M11.85472,3.383616 C13.34528,2.893696 14.93824,2.669696 16.51616,2.730176 C18.0944,2.790656 19.65792,3.135936 21.11296,3.743936 C22.56832,4.351936 23.9152,5.222976 25.06752,6.297536 C26.59168,7.719296 27.77504,9.497536 28.4848,11.486656 C29.19488,13.476096 29.43136,15.676416 29.15744,17.771136 C28.88384,19.865856 28.09984,21.855296 26.91392,23.566016 C25.728,25.276736 24.13984,26.708416 22.27456,27.700416 C20.40928,28.692096 18.26624,29.243776 16.15392,29.275776 C14.0416,29.307776 11.95968,28.820416 10.09504,27.894976 C8.23072,26.969536 6.58336,25.606336 5.33248,23.903616 C4.0816,22.200896 3.2272,20.158656 2.888,18.074816 C2.5488,15.990656 2.7248,13.864576 3.37472,11.881216 C3.86592,10.381696 4.62816,8.964096 5.6048,7.735616 L4.12032,7.735616 L4.12032,5.281856 L9.93696,5.281856 L9.93696,10.713536 L7.4832,10.713536 L7.4832,9.229376 C6.6832,10.235456 6.05856,11.396736 5.65632,12.625536 C5.12416,14.251136 4.9808,15.995136 5.25632,17.696896 C5.59872,19.813696 6.5888,21.864896 8.06656,23.445696 C9.83424,25.336256 12.29952,26.554176 14.86592,26.820736 C17.432,27.087296 20.0992,26.402816 22.21728,24.928576 C24.33536,23.454336 25.90496,21.190336 26.54208,18.689856 C27.1792,16.189376 26.88384,13.452416 25.73504,11.142016 C24.58624,8.831616 22.58368,6.948416 20.18912,5.958976 C17.79456,4.969216 15.00768,4.873856 12.60384,5.663616 L11.85472,3.383616 Z"/>
    <path fill="#000" d="M15.5456755,9.039936 L16.76194,9.34088164 L16.2739244,11.28197 C16.6009703,11.355173 16.9297924,11.4303545 17.2495115,11.509273 L17.2495115,11.509273 L17.7357508,9.58049505 L18.9537915,9.8807812 L18.4551186,11.8614388 C19.9928783,12.387709 21.1170015,13.1731573 20.8963066,14.6365577 C20.7353369,15.7066844 20.1371959,16.2254804 19.3405627,16.4059598 C20.4336021,16.9698207 20.9904461,17.8337479 20.4609114,19.3314416 C19.8032672,21.1925124 18.2399744,21.3494701 16.1637989,20.9597136 L16.1637989,20.9597136 L15.6595754,22.959936 L14.4415347,22.65943 L14.9384314,20.6858069 C14.6222648,20.6088669 14.3003255,20.5264311 13.9677289,20.4371806 L13.9677289,20.4371806 L13.469056,22.4195968 L12.2514594,22.1190908 L12.7552389,20.1151314 C12.4717103,20.043687 12.182631,19.9663072 11.887779,19.8935439 L11.887779,19.8935439 L10.3016174,19.5013693 L10.9066413,18.1217237 C10.9514908,18.1335944 11.8049629,18.3580397 11.7920854,18.3402335 C12.1371155,18.4246478 12.2907582,18.2024009 12.3504835,18.0540164 L12.3504835,18.0540164 L13.7183925,12.6253439 C13.7332683,12.3699028 13.6424592,12.0458752 13.149337,11.92409 C13.1693195,11.9117796 12.3109627,11.7163518 12.2658912,11.7060198 L12.2658912,11.7060198 L12.5891626,10.4176032 L14.2699078,10.83264 C14.5210204,10.9010067 14.7810142,10.9599208 15.0452264,11.0208134 L15.0452264,11.0208134 L15.5456755,9.039936 Z M15.0323488,16.3307784 L14.3638253,18.9860906 C15.189544,19.1885529 17.7357508,19.9988419 18.1131969,18.4996094 C18.5055188,16.9372861 15.8580676,16.5352192 15.0323488,16.3307784 L15.0323488,16.3307784 Z M15.9448802,12.7060211 L15.3394123,15.1142457 C16.0263642,15.2841734 18.1460569,15.976854 18.4893108,14.6150145 C18.8469964,13.1929419 16.6333863,12.8759488 15.9448802,12.7060211 L15.9448802,12.7060211 Z"/>
  </g>
</svg>
