<svg xmlns="http://www.w3.org/2000/svg" width="100" height="100" viewBox="0 0 100 100">
  <g fill="none" fill-rule="evenodd">
    <path fill="#FFF" d="M100,49.9998 C100,43.4558 98.698,36.9118 96.194,30.8658 C93.689,24.8198 89.982,19.2718 85.355,14.6448 C80.728,10.0168 75.18,6.3108 69.134,3.8058 C63.088,1.3018 56.544,-0.0002 50,-0.0002 C43.456,-0.0002 36.911,1.3018 30.865,3.8058 C24.819,6.3108 19.272,10.0168 14.644,14.6448 C10.017,19.2718 6.31,24.8198 3.806,30.8658 C1.301,36.9118 0,43.4558 0,49.9998 C0,56.5438 1.301,63.0878 3.806,69.1338 C6.31,75.1798 10.017,80.7278 14.644,85.3558 C19.272,89.9828 24.819,93.6898 30.865,96.1938 C36.911,98.6978 43.456,99.9998 50,99.9998 C56.544,99.9998 63.088,98.6978 69.134,96.1938 C75.18,93.6898 80.728,89.9828 85.355,85.3558 C89.982,80.7278 93.689,75.1798 96.194,69.1338 C98.698,63.0878 100,56.5438 100,49.9998 Z"/>
    <path fill="#0657F9" d="M37.046,10.5738 C41.704,9.0428 46.682,8.3428 51.613,8.5318 C56.545,8.7208 61.431,9.7998 65.978,11.6998 C70.526,13.5998 74.735,16.3218 78.336,19.6798 C83.099,24.1228 86.797,29.6798 89.015,35.8958 C91.234,42.1128 91.973,48.9888 91.117,55.5348 C90.262,62.0808 87.812,68.2978 84.106,73.6438 C80.4,78.9898 75.437,83.4638 69.608,86.5638 C63.779,89.6628 57.082,91.3868 50.481,91.4868 C43.88,91.5868 37.374,90.0638 31.547,87.1718 C25.721,84.2798 20.573,80.0198 16.664,74.6988 C12.755,69.3778 10.085,62.9958 9.025,56.4838 C7.965,49.9708 8.515,43.3268 10.546,37.1288 C12.081,32.4428 14.463,28.0128 17.515,24.1738 L12.876,24.1738 L12.876,16.5058 L31.053,16.5058 L31.053,33.4798 L23.385,33.4798 L23.385,28.8418 C20.885,31.9858 18.933,35.6148 17.676,39.4548 C16.013,44.5348 15.565,49.9848 16.426,55.3028 C17.496,61.9178 20.59,68.3278 25.208,73.2678 C30.732,79.1758 38.436,82.9818 46.456,83.8148 C54.475,84.6478 62.81,82.5088 69.429,77.9018 C76.048,73.2948 80.953,66.2198 82.944,58.4058 C84.935,50.5918 84.012,42.0388 80.422,34.8188 C76.832,27.5988 70.574,21.7138 63.091,18.6218 C55.608,15.5288 46.899,15.2308 39.387,17.6988 L37.046,10.5738 Z"/>
    <path fill="#000" d="M50.8921201,32.8104631 C51.9556432,32.8104631 53.0097989,32.9675156 54.053338,33.1585754 C56.2053643,33.5518248 58.2718341,34.3135909 60.162195,35.3993548 C61.4199376,36.122167 62.5690172,37.0119246 63.5963193,38.0278188 C64.3838136,38.8075161 65.0657673,39.6818158 65.6840221,40.5969244 C66.3072729,41.5194528 66.8081218,42.5174158 67.2084261,43.5537145 C67.2583861,43.8239189 67.519427,44.005704 67.7917089,43.9599485 L71.2851608,43.9599485 C71.7335516,43.9599485 71.7335516,43.9599485 71.7535356,44.3853504 C71.8022466,45.4408168 71.8022466,46.4969016 71.7535356,47.5548414 C71.7391721,47.8633814 71.6361297,47.9419076 71.3226308,47.9419076 L68.6297877,47.9419076 C68.3568812,47.9419076 68.2781943,47.9419076 68.2975538,48.2894015 C68.3612527,49.4691497 68.4043432,50.6476612 68.2975538,51.824936 C68.2975538,52.1532621 68.2975538,52.1915978 68.6697556,52.1915978 L71.7516621,52.1915978 L71.7516621,52.1915978 C71.8878031,52.3653447 71.7516621,52.5390917 71.7516621,52.7146936 C71.7716461,52.9391426 71.7716461,53.1654465 71.7516621,53.3898954 L71.7516621,55.7283689 L71.7516621,55.7283689 C71.7516621,56.056695 71.6542401,56.154389 71.3607252,56.154389 L67.6724295,56.154389 L67.6724295,56.154389 C67.4157601,56.1049237 67.1653356,56.2681593 67.1060082,56.5216691 C66.2279615,58.7822347 64.8228369,60.8090766 63.007416,62.434631 C62.3454463,63.0275966 61.6472555,63.5822266 60.9190887,64.0954294 C60.1378395,64.5399991 59.3778232,65.0037366 58.5772145,65.3710166 C57.110889,66.0443634 55.5571335,66.5118108 53.970904,66.8191142 C52.468982,67.109723 50.9370841,67.207417 49.4039371,67.1863943 C44.8900526,67.1245626 40.3749191,67.1245626 35.8597856,67.1863943 L35.8597856,67.1666081 L35.8654061,67.1628982 L35.8654061,56.4783869 C35.8654061,56.2261137 35.8654061,56.1890148 35.5537807,56.1890148 L31.3184231,56.1890148 C31.0836112,56.1890148 30.9868137,56.1890148 30.9868137,55.8798564 L30.9868137,52.2089106 L30.9868137,52.2089106 L35.5144372,52.2089106 C35.7667351,52.2089106 35.8654061,52.2089106 35.8654061,51.8799662 L35.8654061,48.247356 C35.8654061,48.0154873 35.8654061,47.9586021 35.5537807,47.9586021 L31.3184231,47.9586021 L31.3184231,47.9586021 C31.0836112,47.9586021 30.9868137,47.9586021 30.9868137,47.6494438 L30.9868137,44.2493207 C30.9868137,44.0360015 30.9868137,43.9797347 31.2990636,43.9797347 L35.4944532,43.9797347 L35.4944532,43.9797347 C35.7867191,43.9797347 35.8654061,43.9797347 35.8654061,43.6124546 L35.8654061,33.1975293 C35.8654061,32.888371 35.8654061,32.8104631 36.2563429,32.8104631 L50.8921201,32.8104631 L50.8921201,32.8104631 Z M61.8196174,56.2075643 L40.1775771,56.2075643 C39.8859357,56.2075643 39.7878893,56.2075643 39.7878893,56.5933938 L39.7878893,63.2996559 C39.7878893,63.6081959 39.7878893,63.6867222 40.1775771,63.6867222 L50.1695738,63.6867222 L50.1695738,63.6867222 C50.6473161,63.7219662 51.1250585,63.6885771 51.5928088,63.5902648 C53.0435219,63.4876242 54.4698794,63.1759926 55.8300399,62.6621715 C56.3190233,62.4772948 56.8023861,62.2713954 57.2532749,62.0055192 L57.3894159,62.0055192 C59.7319146,60.7998018 61.6347655,58.9040431 62.8344296,56.5785542 C62.8412991,56.5637146 62.971195,56.2860905 62.8175681,56.2094192 L62.8175681,56.2075643 C62.4859587,56.1710836 62.1512268,56.1710836 61.8196174,56.2075643 Z M63.7718038,47.9375794 L40.1575931,47.9375794 L40.1575931,47.9375794 C39.8659517,47.9375794 39.7878893,48.0334185 39.7878893,48.3048595 L39.7878893,51.7439365 C39.7878893,52.1561771 39.7878893,52.1856228 40.1618964,52.1877261 L63.7518198,52.1878879 C64.0053667,52.1878879 64.1246462,52.1878879 64.1427567,51.8595617 C64.2095781,50.6618824 64.2395541,49.4617299 64.1427567,48.2652872 C64.1427567,48.0334185 64.0265997,47.9375794 63.7718038,47.9375794 Z M50.5967317,36.4789357 C47.1039043,36.5086149 43.611077,36.5086149 40.1176252,36.4789357 C39.8247348,36.4764624 39.7860158,36.5945609 39.7860158,36.8462158 L39.7860158,43.7052021 C39.7860158,43.9945743 39.7860158,44.0724822 40.1569686,44.0724822 L62.6770556,44.0724822 L62.6770556,44.0724822 C62.6864231,44.0706272 62.8718996,44.0341465 62.9118676,43.917903 L62.8175681,43.917903 C62.8512911,43.830102 62.8512911,43.7348813 62.8175681,43.648317 C62.6196017,43.2210602 62.3847897,42.8135895 62.1125078,42.4308515 C61.7022115,41.7766725 61.2182241,41.1744321 60.6680398,40.6334051 C60.4082479,40.3063156 60.107239,40.0132335 59.7700091,39.7640519 C58.0807372,38.340687 56.0723458,37.3334493 53.9146991,36.8270479 C52.8280694,36.5723015 51.7133373,36.4696609 50.5967317,36.4789357 Z"/>
  </g>
</svg>
