<svg width="32" height="32" viewBox="0 0 32 32" fill="none" xmlns="http://www.w3.org/2000/svg">
<circle cx="14.5" cy="14.5" r="14.5" fill="white"/>
<path d="M12.3286 17.9385H8.24939L7.47388 20.3044H5L9.20327 8.82177H11.3592L15.5857 20.3044H13.1118L12.3286 17.9385ZM8.87755 16.0221H11.7004L10.2812 11.724L8.87755 16.0221Z" fill="black"/>
<path d="M21.7588 17.2839C21.7588 16.8528 21.6399 16.511 21.402 16.2587C21.1694 16.0011 20.7713 15.7645 20.2078 15.5489C19.6442 15.3333 19.1582 15.1204 18.7498 14.9101C18.3414 14.6945 17.9898 14.4501 17.6951 14.1767C17.4056 13.898 17.1781 13.572 17.0127 13.1987C16.8524 12.8254 16.7722 12.3812 16.7722 11.8659C16.7722 10.9774 17.0514 10.2492 17.6098 9.68139C18.1682 9.11356 18.9101 8.78233 19.8355 8.6877V7H21.0763V8.71136C21.9914 8.8428 22.7075 9.23186 23.2245 9.87855C23.7415 10.52 24 11.3533 24 12.3785H21.7588C21.7588 11.7476 21.6295 11.2771 21.371 10.9669C21.1177 10.6514 20.7765 10.4937 20.3473 10.4937C19.9234 10.4937 19.5951 10.6172 19.3624 10.8644C19.1298 11.1062 19.0135 11.4427 19.0135 11.8738C19.0135 12.2734 19.1272 12.5941 19.3547 12.836C19.5822 13.0778 20.0035 13.3249 20.6188 13.5773C21.2392 13.8297 21.7484 14.0689 22.1465 14.295C22.5446 14.5158 22.8807 14.7681 23.1547 15.0521C23.4287 15.3307 23.6381 15.6514 23.7829 16.0142C23.9276 16.3717 24 16.7897 24 17.2681C24 18.1619 23.726 18.8875 23.178 19.4448C22.6299 20.0021 21.8751 20.3307 20.9135 20.4306V22H19.6804V20.4385C18.6205 20.3228 17.7985 19.9416 17.2143 19.295C16.6352 18.643 16.3457 17.7781 16.3457 16.7003H18.5869C18.5869 17.326 18.7317 17.807 19.0212 18.1435C19.3159 18.4748 19.7373 18.6404 20.2853 18.6404C20.7403 18.6404 21.0996 18.5195 21.3633 18.2776C21.6269 18.0305 21.7588 17.6993 21.7588 17.2839Z" fill="black"/>
<circle cx="25" cy="25" r="7" fill="#69E2DC"/>
<path d="M22.5924 29H21V21H22.5924V29Z" fill="black"/>
<path d="M23.9303 29V21H26.3676C27.1909 21 27.8156 21.1868 28.2417 21.5604C28.6714 21.9304 28.8863 22.4744 28.8863 23.1923C28.8863 23.5989 28.7978 23.9487 28.6209 24.2418C28.4439 24.5348 28.202 24.7491 27.8951 24.8846C28.2489 24.9872 28.5216 25.1941 28.7129 25.5055C28.9043 25.8132 29 26.1941 29 26.6484C29 27.4249 28.7888 28.011 28.3663 28.4066C27.9474 28.8022 27.339 29 26.541 29H23.9303ZM25.5227 25.522V27.6593H26.541C26.8262 27.6593 27.0429 27.5696 27.1909 27.3901C27.339 27.2106 27.413 26.956 27.413 26.6264C27.413 25.9084 27.1566 25.5403 26.6439 25.522H25.5227ZM25.5227 24.3462H26.3514C26.9761 24.3462 27.2884 24.0183 27.2884 23.3626C27.2884 23 27.2162 22.7399 27.0718 22.5824C26.9273 22.4249 26.6926 22.3462 26.3676 22.3462H25.5227V24.3462Z" fill="black"/>
</svg>
