<svg xmlns="http://www.w3.org/2000/svg" width="479" height="479" fill="none" focusable="false" viewBox="0 0 479 479">
  <path fill="#000" d="M175 .7c-69.2 7.4-127.6 55.5-147.9 122-7.1 23.3-9.6 49.4-6.5 69.2.5 3.3.6 3.2 6-6.5 23.6-42.9 64.8-72.9 113.5-82.5 16.3-3.3 44.6-3.2 59.9 0 67.7 14.3 118 65.1 132.6 133.6l1.7 8 3.4-7.5c19.3-42.3 21.3-89.1 5.6-131.5-4.5-12.2-14.2-29.9-22.3-40.6C294.9 30 255.8 7.2 212.2 1.5 201.9.1 183.8-.3 175 .7z"/>
  <path fill="#000" d="M357 86.4c0 .2 2.1 3.4 4.7 7.2 6.2 9.3 15.4 28.7 19.2 40.8 5.2 16.3 7.3 30.6 7.4 50.6.1 23.4-2.7 39.2-11 61-18.4 48.6-58 86.6-107.1 103-26.8 8.9-56.8 11.1-83 6.1-5.1-1-9.2-1.4-9.2-1 0 1.4 20.1 21.8 26.3 26.8 21.8 17.2 45.9 28.4 73.7 34.2 15.1 3.1 40.8 3.2 57.2.1 82.6-15.6 140.2-88.8 136.5-173.6-2.8-62.6-38.6-118.9-93.2-146.3C370 91 357 85.6 357 86.4z"/>
  <path fill="#000" d="M141.5 140.9c-39.8 7.1-75.4 28.7-100.7 61.2-16.2 20.8-27.3 45.6-33 73.9-3 15.2-3.2 45-.4 60.5 12.4 68.4 60.5 121 125.6 137.4 49 12.3 103.2-.2 142.5-32.9l6.7-5.5-15.4-.6c-52.9-2.1-99.5-28-130.4-72.5-26.2-37.6-36.3-88.3-26.8-134.4 2.7-13.2 7.3-26.1 14.5-40.5 7.7-15.7 16.8-29.1 27.8-40.7l7.3-7.8-3.8.1c-2.2 0-8.4.9-13.9 1.8z"/>
</svg>
