<svg xmlns="http://www.w3.org/2000/svg" width="32" height="32" fill="none" focusable="false" viewBox="0 0 32 32">
  <path fill="#fff" d="M11.691.047a11.632 11.632 0 0 0-9.88 8.15c-.475 1.557-.642 3.3-.435 4.623.034.22.04.214.401-.434 1.577-2.866 4.33-4.87 7.583-5.512 1.088-.22 2.979-.213 4.001 0 4.523.956 7.883 4.35 8.859 8.926l.113.534.227-.501c1.29-2.826 1.423-5.952.374-8.785-.3-.815-.948-1.997-1.49-2.712A10.8 10.8 0 0 0 14.177.1c-.688-.093-1.897-.12-2.485-.053z"/>
  <path fill="#fff" d="M23.85 5.772c0 .013.14.227.314.481.414.621 1.028 1.917 1.282 2.726.348 1.089.488 2.044.495 3.38.006 1.563-.18 2.619-.735 4.075a11.609 11.609 0 0 1-7.155 6.881c-1.79.595-3.795.742-5.545.408-.34-.067-.615-.094-.615-.067 0 .094 1.343 1.456 1.757 1.79 1.457 1.15 3.067 1.898 4.924 2.285 1.009.207 2.726.214 3.821.007 5.518-1.042 9.366-5.933 9.12-11.598-.188-4.182-2.58-7.943-6.227-9.773-.568-.288-1.436-.648-1.436-.595z"/>
  <path fill="#fff" d="M9.453 9.413c-2.659.474-5.037 1.917-6.727 4.088C1.643 14.892.902 16.549.52 18.439c-.2 1.016-.214 3.007-.027 4.042.829 4.57 4.042 8.084 8.391 9.18 3.274.821 6.895-.014 9.52-2.199l.448-.367-1.03-.04c-3.533-.14-6.646-1.87-8.71-4.844-1.751-2.512-2.426-5.899-1.791-8.978.18-.882.488-1.744.969-2.706.514-1.049 1.122-1.944 1.857-2.719l.488-.521-.254.007c-.147 0-.562.06-.929.12z"/>
</svg>
