<svg width="80" height="80" viewBox="0 0 80 80" fill="none" xmlns="http://www.w3.org/2000/svg">
<path d="M40 0C17.9094 0 0 17.9094 0 40C0 62.0906 17.9094 80 40 80C62.0906 80 80 62.0906 80 40C79.9303 17.9094 62.0209 0 40 0Z" fill="#141516"/>
<path d="M57.2143 37.2356C56.8247 37.2261 56.4383 37.3071 56.0853 37.4721L42.5396 23.9195C42.6967 23.5626 42.7811 23.178 42.7882 22.7882C42.7864 22.0493 42.492 21.3412 41.9695 20.8187C41.447 20.2962 40.7389 20.0019 40.0001 20C39.2616 20.0081 38.556 20.3058 38.0349 20.829C37.5139 21.3523 37.2192 22.0592 37.2142 22.7976C37.2053 23.1879 37.2861 23.5751 37.4509 23.929L23.9172 37.439C23.56 37.287 23.1764 37.2066 22.7882 37.2024C22.0509 37.2043 21.3442 37.4973 20.822 38.0177C20.2998 38.5381 20.0044 39.2439 20 39.981C20.0074 40.7184 20.3034 41.4236 20.8247 41.9453C21.3459 42.467 22.0508 42.7636 22.7882 42.7716C23.1778 42.782 23.5645 42.7009 23.9172 42.5349L37.4509 56.0804C37.2988 56.4377 37.2185 56.8213 37.2142 57.2094C37.2155 57.9484 37.5092 58.6567 38.0313 59.1796C38.5533 59.7026 39.2611 59.9974 40.0001 60C40.7374 59.992 41.4423 59.6953 41.9636 59.1737C42.4847 58.652 42.7808 57.9469 42.7882 57.2094C42.7949 56.8189 42.7097 56.4321 42.5396 56.0804L56.0853 42.5231C56.4422 42.6763 56.8259 42.7567 57.2143 42.7597C57.9533 42.7579 58.6615 42.4631 59.1837 41.9401C59.7059 41.417 59.9994 40.7083 60 39.9693C59.9926 39.2374 59.695 38.5386 59.1727 38.026C58.6504 37.5136 57.946 37.2291 57.2143 37.2356ZM54.6107 39.0367L49.3491 40.3124C49.121 40.0007 48.824 39.7461 48.4811 39.5683C48.1383 39.3906 47.7589 39.2944 47.3729 39.2876C46.8046 39.2861 46.2543 39.4867 45.8201 39.8533L42.4 38.2627V38.1823C42.404 37.7183 42.2715 37.2634 42.0189 36.8741C41.7665 36.485 41.4051 36.1784 40.9799 35.9929V25.4012C41.0154 25.4012 41.0486 25.3657 41.0841 25.3657L54.6296 38.9231C54.6156 38.957 54.6068 38.993 54.6036 39.0296L54.6107 39.0367ZM40.0072 54.4639H39.7965L34.5065 43.2734C34.8729 42.8383 35.0725 42.2871 35.0698 41.7183L38.5255 40.0947C38.9507 40.424 39.4696 40.6096 40.0072 40.6249C40.5568 40.6161 41.0889 40.4303 41.5243 40.0947L44.9823 41.7183V41.7539C44.9794 42.3219 45.1791 42.8724 45.5456 43.3066L40.1847 54.4639H40.0072ZM38.9775 25.4012V35.9929C38.5601 36.189 38.2058 36.4979 37.9548 36.8849C37.704 37.2717 37.5662 37.7211 37.5574 38.1823V38.2509L34.1373 39.839C33.7042 39.4723 33.1546 39.2717 32.587 39.2734C32.1993 39.2751 31.8179 39.3706 31.475 39.5516C31.1322 39.7324 30.8381 39.9934 30.6178 40.3124L25.4107 39.0414C25.4107 39.0059 25.3752 38.9704 25.3752 38.8994L38.9184 25.342C38.9066 25.3657 38.9421 25.3657 38.9775 25.4012ZM25.3633 41.1124L30.2651 42.3124C30.3975 42.8389 30.7027 43.3057 31.1318 43.6383C31.5609 43.9709 32.0891 44.1499 32.632 44.1467H32.6675L36.5468 52.3384L25.3633 41.1124ZM47.3372 44.1467H47.3729C47.9143 44.1441 48.4397 43.963 48.8676 43.6314C49.2955 43.2997 49.6021 42.8361 49.7397 42.3124L54.6415 41.1124V41.148L43.4604 52.3384L47.3372 44.1467Z" fill="url(#paint0_linear_1767_792)"/>
<defs>
<linearGradient id="paint0_linear_1767_792" x1="20" y1="40" x2="60" y2="40" gradientUnits="userSpaceOnUse">
<stop stop-color="#0BADF4"/>
<stop offset="0.93" stop-color="#30EFE4"/>
</linearGradient>
</defs>
</svg>
