<svg width="29" height="28" viewBox="0 0 29 28" fill="none" xmlns="http://www.w3.org/2000/svg">
<path d="M26.2289 12.0649C25.9543 12.0583 25.682 12.115 25.4332 12.2305L15.8861 2.74367C15.9968 2.49382 16.0563 2.22462 16.0613 1.95172C16.06 1.43449 15.8525 0.93883 15.4843 0.573096C15.116 0.207363 14.6169 0.0013122 14.0962 0C13.5757 0.00563536 13.0784 0.214032 12.7111 0.580311C12.3439 0.94659 12.1362 1.44145 12.1327 1.95834C12.1264 2.23155 12.1834 2.50254 12.2995 2.7503L2.76085 12.2073C2.50909 12.1009 2.23873 12.0446 1.96512 12.0417C1.4455 12.043 0.94743 12.2481 0.579374 12.6124C0.211317 12.9767 0.00307827 13.4707 0 13.9867C0.0052061 14.5029 0.213865 14.9965 0.581227 15.3617C0.94859 15.7269 1.4454 15.9345 1.96512 15.9401C2.23975 15.9474 2.51228 15.8906 2.76085 15.7744L12.2995 25.2563C12.1923 25.5064 12.1357 25.7749 12.1327 26.0466C12.1336 26.5639 12.3406 27.0597 12.7086 27.4257C13.0765 27.7918 13.5754 27.9982 14.0962 28C14.6159 27.9944 15.1127 27.7867 15.4801 27.4216C15.8474 27.0564 16.0561 26.5628 16.0613 26.0466C16.066 25.7732 16.006 25.5025 15.8861 25.2563L25.4332 15.7662C25.6847 15.8734 25.9552 15.9297 26.2289 15.9318C26.7498 15.9305 27.2489 15.7242 27.617 15.3581C27.985 14.9919 28.1919 14.4958 28.1923 13.9785C28.1871 13.4662 27.9773 12.977 27.6092 12.6182C27.2411 12.2595 26.7446 12.0604 26.2289 12.0649ZM24.3939 13.3257L20.6855 14.2187C20.5247 14.0005 20.3154 13.8223 20.0737 13.6978C19.8321 13.5734 19.5647 13.5061 19.2926 13.5013C18.8921 13.5003 18.5042 13.6407 18.1982 13.8973L15.7877 12.7839V12.7276C15.7905 12.4028 15.6971 12.0844 15.5191 11.8119C15.3412 11.5395 15.0865 11.3249 14.7868 11.195V3.78083C14.8118 3.78083 14.8352 3.75598 14.8602 3.75598L24.4072 13.2462C24.3973 13.2699 24.3911 13.2951 24.3889 13.3207L24.3939 13.3257ZM14.1012 24.1247H13.9527L10.2243 16.2914C10.4825 15.9868 10.6232 15.601 10.6213 15.2028L13.0569 14.0663C13.3566 14.2968 13.7223 14.4267 14.1012 14.4374C14.4886 14.4313 14.8636 14.3012 15.1705 14.0663L17.6077 15.2028V15.2277C17.6057 15.6253 17.7464 16.0107 18.0047 16.3146L14.2263 24.1247H14.1012ZM13.3755 3.78083V11.195C13.0813 11.3323 12.8316 11.5485 12.6547 11.8194C12.4779 12.0902 12.3808 12.4048 12.3746 12.7276V12.7756L9.96407 13.8873C9.6588 13.6306 9.27144 13.4902 8.87141 13.4914C8.59819 13.4926 8.32933 13.5594 8.08768 13.6861C7.84604 13.8127 7.63876 13.9954 7.48348 14.2187L3.81347 13.329C3.81347 13.3041 3.78845 13.2793 3.78845 13.2296L13.3338 3.73941C13.3255 3.75598 13.3505 3.75598 13.3755 3.78083ZM3.78011 14.7787L7.23492 15.6187C7.32824 15.9872 7.54332 16.314 7.84575 16.5468C8.14818 16.7796 8.52049 16.9049 8.90311 16.9027H8.92813L11.6623 22.6369L3.78011 14.7787ZM19.2675 16.9027H19.2926C19.6742 16.9009 20.0445 16.7741 20.3461 16.542C20.6477 16.3098 20.8638 15.9853 20.9608 15.6187L24.4156 14.7787V14.8036L16.5351 22.6369L19.2675 16.9027Z" fill="black"/>
</svg>
