<svg width="32" height="32" viewBox="0 0 32 32" fill="none" xmlns="http://www.w3.org/2000/svg">
<path fill-rule="evenodd" clip-rule="evenodd" d="M32 15.9999C32 13.9059 31.5834 11.8118 30.7821 9.87706C29.9805 7.94234 28.7942 6.16698 27.3136 4.68634C25.833 3.20538 24.0576 2.01946 22.1229 1.21786C20.1882 0.416579 18.0941 -6.10352e-05 16 -6.10352e-05C13.9059 -6.10352e-05 11.8115 0.416579 9.8768 1.21786C7.94208 2.01946 6.16704 3.20538 4.68608 4.68634C3.20544 6.16698 2.0192 7.94234 1.21792 9.87706C0.41632 11.8118 0 13.9059 0 15.9999C0 18.094 0.41632 20.1881 1.21792 22.1228C2.0192 24.0575 3.20544 25.8329 4.68608 27.3139C6.16704 28.7945 7.94208 29.9807 9.8768 30.782C11.8115 31.5833 13.9059 31.9999 16 31.9999C18.0941 31.9999 20.1882 31.5833 22.1229 30.782C24.0576 29.9807 25.833 28.7945 27.3136 27.3139C28.7942 25.8329 29.9805 24.0575 30.7821 22.1228C31.5834 20.1881 32 18.094 32 15.9999Z" fill="white"/>
<path fill-rule="evenodd" clip-rule="evenodd" d="M11.8547 3.38363C13.3453 2.89371 14.9382 2.66971 16.5162 2.73019C18.0944 2.79067 19.6579 3.13595 21.113 3.74395C22.5683 4.35195 23.9152 5.22299 25.0675 6.29755C26.5917 7.71931 27.775 9.49755 28.4848 11.4867C29.1949 13.4761 29.4314 15.6764 29.1574 17.7711C28.8838 19.8659 28.0998 21.8553 26.9139 23.566C25.728 25.2767 24.1398 26.7084 22.2746 27.7004C20.4093 28.6921 18.2662 29.2438 16.1539 29.2758C14.0416 29.3078 11.9597 28.8204 10.095 27.895C8.23073 26.9695 6.58337 25.6063 5.33249 23.9036C4.08161 22.2009 3.22721 20.1587 2.88801 18.0748C2.54881 15.9907 2.72481 13.8646 3.37473 11.8812C3.86593 10.3817 4.62817 8.96411 5.6048 7.73563H4.12033V5.28187H9.93696V10.7135H7.48321V9.22939C6.68321 10.2355 6.05857 11.3967 5.65633 12.6255C5.12417 14.2511 4.9808 15.9951 5.25633 17.6969C5.59873 19.8137 6.58881 21.8649 8.06657 23.4457C9.83425 25.3363 12.2995 26.5542 14.8659 26.8207C17.432 27.0873 20.0992 26.4028 22.2173 24.9286C24.3354 23.4543 25.905 21.1903 26.5421 18.6899C27.1792 16.1894 26.8838 13.4524 25.735 11.142C24.5862 8.83163 22.5837 6.94843 20.1891 5.95899C17.7946 4.96923 15.0077 4.87387 12.6038 5.66363L11.8547 3.38363Z" fill="url(#paint0_linear)"/>
<circle cx="16" cy="16" r="8" fill="black"/>
<circle cx="16" cy="16" r="8" fill="url(#paint1_linear)"/>
<circle cx="16" cy="16" r="6.93333" fill="white"/>
<path fill-rule="evenodd" clip-rule="evenodd" d="M15.2935 12.6114L15.9978 12.21L16.7021 12.6114L18.6214 13.7089L19.3256 14.1103V17.9098L18.6214 18.3111L16.7194 19.4098L16.0151 19.81L15.3109 19.4098L13.3742 18.3111L12.67 17.9098V14.1103L13.3742 13.7089L15.2935 12.6114ZM14.0785 14.9119V17.1081L15.9978 18.2067L17.9171 17.1081V14.9119L15.9978 13.8132L14.0785 14.9119Z" fill="white"/>
<mask id="mask0" mask-type="alpha" maskUnits="userSpaceOnUse" x="8" y="8" width="16" height="16">
<path d="M16 24C20.4183 24 24 20.4183 24 16C24 11.5817 20.4183 8 16 8C11.5817 8 8 11.5817 8 16C8 20.4183 11.5817 24 16 24Z" fill="url(#paint2_linear)"/>
</mask>
<g mask="url(#mask0)">
<path d="M16 22.9333C19.8292 22.9333 22.9333 19.8292 22.9333 16C22.9333 12.1708 19.8292 9.06665 16 9.06665C12.1708 9.06665 9.06667 12.1708 9.06667 16C9.06667 19.8292 12.1708 22.9333 16 22.9333Z" fill="white"/>
<path d="M16 22.1333C19.3873 22.1333 22.1333 19.3873 22.1333 16C22.1333 12.6127 19.3873 9.86667 16 9.86667C12.6127 9.86667 9.86667 12.6127 9.86667 16C9.86667 19.3873 12.6127 22.1333 16 22.1333Z" fill="black"/>
<path d="M16 11.8355L16.7572 12.2709L18.8206 13.4635L19.5778 13.8989V18.0256L18.8206 18.461L16.7383 19.6536L15.9811 20.089L15.2239 19.6536L13.1794 18.461L12.4222 18.0256V13.8989L13.1794 13.4635L15.2428 12.2709L16 11.8355ZM18.0634 17.1548V14.7696L16 13.577L13.9366 14.7696V17.1548L16 18.3474L18.0634 17.1548Z" fill="white"/>
</g>
<defs>
<linearGradient id="paint0_linear" x1="2.04343" y1="13.2971" x2="15.2222" y2="29.5764" gradientUnits="userSpaceOnUse">
<stop stop-color="#004CFF"/>
<stop offset="0.252131" stop-color="#00E0FB"/>
<stop offset="0.505709" stop-color="#87FF70"/>
<stop offset="0.755054" stop-color="#F8F500"/>
<stop offset="1" stop-color="#FF1A00"/>
</linearGradient>
<linearGradient id="paint1_linear" x1="8" y1="8" x2="24" y2="24" gradientUnits="userSpaceOnUse">
<stop stop-color="white"/>
<stop offset="1" stop-color="white" stop-opacity="0"/>
</linearGradient>
<linearGradient id="paint2_linear" x1="16" y1="8" x2="16" y2="31.3939" gradientUnits="userSpaceOnUse">
<stop stop-color="#08021E"/>
<stop offset="1" stop-color="#1F0777"/>
</linearGradient>
</defs>
</svg>
