<svg xmlns="http://www.w3.org/2000/svg" width="32" height="32" viewBox="0 0 32 32">
  <g fill="none" fill-rule="evenodd">
    <path fill="#FFF" d="M32,15.999936 C32,13.905856 31.58336,11.811776 30.78208,9.877056 C29.98048,7.942336 28.79424,6.166976 27.3136,4.686336 C25.83296,3.205376 24.0576,2.019456 22.12288,1.217856 C20.18816,0.416576 18.09408,-6.4e-05 16,-6.4e-05 C13.90592,-6.4e-05 11.81152,0.416576 9.8768,1.217856 C7.94208,2.019456 6.16704,3.205376 4.68608,4.686336 C3.20544,6.166976 2.0192,7.942336 1.21792,9.877056 C0.41632,11.811776 0,13.905856 0,15.999936 C0,18.094016 0.41632,20.188096 1.21792,22.122816 C2.0192,24.057536 3.20544,25.832896 4.68608,27.313856 C6.16704,28.794496 7.94208,29.980736 9.8768,30.782016 C11.81152,31.583296 13.90592,31.999936 16,31.999936 C18.09408,31.999936 20.18816,31.583296 22.12288,30.782016 C24.0576,29.980736 25.83296,28.794496 27.3136,27.313856 C28.79424,25.832896 29.98048,24.057536 30.78208,22.122816 C31.58336,20.188096 32,18.094016 32,15.999936 Z"/>
    <path fill="#0657F9" d="M11.85472,3.383616 C13.34528,2.893696 14.93824,2.669696 16.51616,2.730176 C18.0944,2.790656 19.65792,3.135936 21.11296,3.743936 C22.56832,4.351936 23.9152,5.222976 25.06752,6.297536 C26.59168,7.719296 27.77504,9.497536 28.4848,11.486656 C29.19488,13.476096 29.43136,15.676416 29.15744,17.771136 C28.88384,19.865856 28.09984,21.855296 26.91392,23.566016 C25.728,25.276736 24.13984,26.708416 22.27456,27.700416 C20.40928,28.692096 18.26624,29.243776 16.15392,29.275776 C14.0416,29.307776 11.95968,28.820416 10.09504,27.894976 C8.23072,26.969536 6.58336,25.606336 5.33248,23.903616 C4.0816,22.200896 3.2272,20.158656 2.888,18.074816 C2.5488,15.990656 2.7248,13.864576 3.37472,11.881216 C3.86592,10.381696 4.62816,8.964096 5.6048,7.735616 L4.12032,7.735616 L4.12032,5.281856 L9.93696,5.281856 L9.93696,10.713536 L7.4832,10.713536 L7.4832,9.229376 C6.6832,10.235456 6.05856,11.396736 5.65632,12.625536 C5.12416,14.251136 4.9808,15.995136 5.25632,17.696896 C5.59872,19.813696 6.5888,21.864896 8.06656,23.445696 C9.83424,25.336256 12.29952,26.554176 14.86592,26.820736 C17.432,27.087296 20.0992,26.402816 22.21728,24.928576 C24.33536,23.454336 25.90496,21.190336 26.54208,18.689856 C27.1792,16.189376 26.88384,13.452416 25.73504,11.142016 C24.58624,8.831616 22.58368,6.948416 20.18912,5.958976 C17.79456,4.969216 15.00768,4.873856 12.60384,5.663616 L11.85472,3.383616 Z"/>
    <g fill="#000" transform="translate(8.954 9.759)">
      <path d="M4.55333605 10.3036197C4.55333605 9.7787976 4.33609 9.25397553 3.96492978 8.88281531 3.59402187 8.51190741 3.06919981 8.29440903 2.54437774 8.29440903 2.01955568 8.29440903 1.49473361 8.51190741 1.12382571 8.88281531.752665491 9.25397553.535419434 9.7787976.535419434 10.3036197.535419434 10.8281894.752665491 11.3530115 1.12382571 11.7241717 1.49473361 12.0953319 2.01955568 12.312578 2.54437774 12.312578 3.06919981 12.312578 3.59402187 12.0953319 3.96492978 11.7241717 4.33609 11.3530115 4.55333605 10.8281894 4.55333605 10.3036197zM13.7104718 9.20578274C13.7104718 8.39432708 13.3743838 7.58287143 12.800612 7.00909961 12.2268402 6.43532779 11.4153846 6.0989875 10.6039289 6.0989875 9.79222093 6.0989875 8.98076527 6.43532779 8.40699346 7.00909961 7.83322164 7.58287143 7.49713367 8.39432708 7.49713367 9.20578274 7.49713367 10.0172384 7.83322164 10.8289464 8.40699346 11.4027182 8.98076527 11.97649 9.79222093 12.312578 10.6039289 12.312578 11.4153846 12.312578 12.2268402 11.97649 12.800612 11.4027182 13.3743838 10.828694 13.7104718 10.0172384 13.7104718 9.20578274z"/>
      <path d="M11.4777072,0.247726108 C11.631369,0.264126797 11.7878064,0.409966775 11.8312051,0.567918031 C11.8665297,0.696852683 11.8264111,0.83386152 11.7388566,0.929237838 C11.6712353,1.00341942 11.575102,1.05262149 11.4777072,1.06296654 L11.8647635,4.65219436 C12.0595532,4.70619048 12.2510628,4.77280251 12.4390399,4.85203046 C12.8149942,5.01048635 13.1647073,5.21435954 13.4879271,5.4633977 C13.6494108,5.58804294 13.801811,5.72177164 13.9448755,5.86483612 C14.0188048,5.93876538 14.0644744,6.04726225 14.0649832,6.15474984 C14.0654837,6.26223744 14.020571,6.36896808 13.9448755,6.44466357 C13.86918,6.52035906 13.7624494,6.56527172 13.6549618,6.56476708 C13.5474742,6.56426245 13.4389773,6.51859283 13.3650481,6.44466357 C12.7922855,5.87190103 12.0133789,5.47374275 11.1978862,5.34632201 C10.3823934,5.21890127 9.53006222,5.36247038 8.80086233,5.74220942 C8.07141012,6.12169615 7.46508924,6.73760512 7.10175089,7.47866397 C6.73816022,8.21972282 6.61755207,9.08618386 6.75809336,9.88376201 L5.34208306,9.88376201 C5.26033193,9.33951143 5.00826595,8.8068675 4.63105009,8.39331781 C4.25358191,7.97951579 3.75096386,7.6845557 3.20873183,7.5536025 C2.6664998,7.4226493 2.0846538,7.45545068 1.56008405,7.65124968 C1.03551431,7.84704869 0.568220813,8.20584531 0.247019616,8.65270102 C0.121094762,7.13899848 0.0716242829,6.40927883 0.0656294245,6.00522771 L0.0652651077,5.87539772 C0.0672653555,5.69869771 0.0803633788,5.59816271 0.0996657288,5.50578717 C0.159717484,5.21864895 0.279820995,5.01048635 0.683277958,4.81443503 C1.08673492,4.61838371 1.77354534,4.43419135 2.76742712,4.2928931 C3.01823151,4.2570639 3.28871673,4.22426253 3.60007751,4.19120883 L3.60007751,4.08573978 C3.60007751,4.01685688 3.59780665,3.94595544 3.59326492,3.87303545 C3.58418146,3.72669084 3.5185787,3.6131476 3.39670896,3.53215343 C3.33564793,3.4917825 3.27534386,3.45443939 3.21579674,3.41987178 L2.74244761,3.14661106 C2.64984679,3.09311958 2.57591753,2.9982479 2.54715324,2.89227422 C2.51838896,2.78604821 2.53428501,2.66897252 2.58903808,2.57410084 C2.64379115,2.47948148 2.73714893,2.40706612 2.84337493,2.37905879 C2.94985325,2.35105146 3.06894749,2.36745215 3.16154831,2.42069131 L3.47745082,2.60336976 C3.61546893,2.68285003 3.75601022,2.76737666 3.8990747,2.8561927 C4.18368974,3.03332015 4.35097678,3.28891859 4.40043116,3.62324033 C4.42490604,3.78977041 4.43752195,3.95201108 4.43802659,4.11021465 C4.79076757,4.07867487 5.19069208,4.04536885 5.65369616,4.00802574 C5.80533946,2.93087892 6.08263727,1.95062232 6.48609424,1.06725595 C6.38314837,1.06195726 6.27843627,1.01351215 6.20627324,0.93630275 C6.13411021,0.858841032 6.09449623,0.752615027 6.09701942,0.647145977 C6.09979492,0.541929246 6.14470758,0.437721788 6.2209077,0.364044844 C6.29685551,0.290620219 6.40409079,0.247726108 6.50703666,0.247726108 L11.4777072,0.247726108 Z M10.5781924,1.03016516 L7.53422446,1.03016516 C6.97130233,2.00512307 6.55422018,4.23284135 6.45228358,5.7984764 L6.45228358,5.7984764 L7.33035127,5.7984764 C7.56450265,5.5736608 7.82211964,5.37357239 8.10345454,5.19821117 C8.66587204,4.84723641 9.27522073,4.62443935 9.93150063,4.53007231 C10.2595144,4.48288878 10.5855097,4.46976823 10.909234,4.49096297 L10.909234,4.49096297 L10.5781924,1.03016516 Z"/>
    </g>
  </g>
</svg>
