<svg xmlns="http://www.w3.org/2000/svg" width="32" height="32" viewBox="0 0 32 32">
  <g fill="none" fill-rule="evenodd">
    <path fill="#FFF" d="M32,15.999936 C32,13.905856 31.58336,11.811776 30.78208,9.877056 C29.98048,7.942336 28.79424,6.166976 27.3136,4.686336 C25.83296,3.205376 24.0576,2.019456 22.12288,1.217856 C20.18816,0.416576 18.09408,-6.4e-05 16,-6.4e-05 C13.90592,-6.4e-05 11.81152,0.416576 9.8768,1.217856 C7.94208,2.019456 6.16704,3.205376 4.68608,4.686336 C3.20544,6.166976 2.0192,7.942336 1.21792,9.877056 C0.41632,11.811776 0,13.905856 0,15.999936 C0,18.094016 0.41632,20.188096 1.21792,22.122816 C2.0192,24.057536 3.20544,25.832896 4.68608,27.313856 C6.16704,28.794496 7.94208,29.980736 9.8768,30.782016 C11.81152,31.583296 13.90592,31.999936 16,31.999936 C18.09408,31.999936 20.18816,31.583296 22.12288,30.782016 C24.0576,29.980736 25.83296,28.794496 27.3136,27.313856 C28.79424,25.832896 29.98048,24.057536 30.78208,22.122816 C31.58336,20.188096 32,18.094016 32,15.999936 Z"/>
    <path fill="#0657F9" d="M11.85472,3.383616 C13.34528,2.893696 14.93824,2.669696 16.51616,2.730176 C18.0944,2.790656 19.65792,3.135936 21.11296,3.743936 C22.56832,4.351936 23.9152,5.222976 25.06752,6.297536 C26.59168,7.719296 27.77504,9.497536 28.4848,11.486656 C29.19488,13.476096 29.43136,15.676416 29.15744,17.771136 C28.88384,19.865856 28.09984,21.855296 26.91392,23.566016 C25.728,25.276736 24.13984,26.708416 22.27456,27.700416 C20.40928,28.692096 18.26624,29.243776 16.15392,29.275776 C14.0416,29.307776 11.95968,28.820416 10.09504,27.894976 C8.23072,26.969536 6.58336,25.606336 5.33248,23.903616 C4.0816,22.200896 3.2272,20.158656 2.888,18.074816 C2.5488,15.990656 2.7248,13.864576 3.37472,11.881216 C3.86592,10.381696 4.62816,8.964096 5.6048,7.735616 L4.12032,7.735616 L4.12032,5.281856 L9.93696,5.281856 L9.93696,10.713536 L7.4832,10.713536 L7.4832,9.229376 C6.6832,10.235456 6.05856,11.396736 5.65632,12.625536 C5.12416,14.251136 4.9808,15.995136 5.25632,17.696896 C5.59872,19.813696 6.5888,21.864896 8.06656,23.445696 C9.83424,25.336256 12.29952,26.554176 14.86592,26.820736 C17.432,27.087296 20.0992,26.402816 22.21728,24.928576 C24.33536,23.454336 25.90496,21.190336 26.54208,18.689856 C27.1792,16.189376 26.88384,13.452416 25.73504,11.142016 C24.58624,8.831616 22.58368,6.948416 20.18912,5.958976 C17.79456,4.969216 15.00768,4.873856 12.60384,5.663616 L11.85472,3.383616 Z"/>
    <g transform="translate(9.114 9.12)">
      <path fill="#000" d="M13.366176,1.61820635 L13.3180243,1.68680609 C10.6296619,5.49167319 8.41490168,7.71258983 6.81556026,9.1184448 C6.41561497,9.46979861 6.05480671,9.77080196 5.73313548,10.0315689 C5.41146426,10.2923359 5.12761084,10.511987 4.87431948,10.6968985 C4.36773677,11.0669413 3.98318245,11.2982456 3.65997213,11.445779 C3.49836697,11.5194358 3.35237265,11.5722048 3.21253471,11.6115617 C3.07269677,11.6509186 2.93857548,11.677523 2.80753239,11.692914 C2.54544619,11.7236959 2.29655226,11.7080851 2.03842374,11.6423436 C1.78007535,11.5763823 1.51271226,11.4596309 1.21808516,11.2846136 C0.923677935,11.1098162 0.612780387,10.8857676 0.311117419,10.5080293 L0.223169032,10.3976541 C0.207118452,10.6285186 0.218551742,10.8611421 0.258128516,11.0889284 C0.34981471,11.6168386 0.592992,12.1183643 0.950502194,12.5172102 C1.30823226,12.9160562 1.78029523,13.2124422 2.29501316,13.3608551 C2.8097311,13.5094879 3.36732387,13.5105873 3.80354787,13.4127447 C4.23999174,13.3149021 4.55506684,13.1183374 6.06250219,11.8879395 C7.55322735,10.6711736 10.2101481,8.44344093 13.2252387,3.66212686 C13.3125275,3.51019603 13.3822266,3.34837099 13.4345559,3.1764319 C13.5389946,2.8325537 13.5631804,2.48317874 13.5068934,2.12808712 C13.4787499,1.95065125 13.4319174,1.78069099 13.366176,1.61820635 Z"/>
      <path fill="#000" d="M0.308698839,9.87128299 L0.617617548,10.2630931 C0.884101161,10.5966373 1.14794632,10.7866058 1.41860748,10.9473315 C1.68904877,11.1080572 1.92189213,11.2076587 2.13538684,11.2619669 C2.34866168,11.3164949 2.54412697,11.3285878 2.76179923,11.3030827 C2.87085523,11.2903302 2.98650735,11.2674636 3.10633703,11.2338234 C3.22616671,11.2001831 3.35237265,11.1546698 3.49704774,11.0887085 C3.78639794,10.956786 4.14984465,10.7402131 4.64301523,10.3800644 C4.88949058,10.1999901 5.16828697,9.98429667 5.48600052,9.72682777 C5.80371406,9.46935886 6.16144413,9.17077409 6.55655226,8.82359783 C8.1367649,7.4348928 10.32624,5.24102028 12.9974524,1.46033899 L13.1621357,1.22441745 C12.9836005,0.947819768 12.7419623,0.713657187 12.4370013,0.521489961 C11.8270792,0.137375381 11.17824,0.0536045419 10.4907035,0.269957574 C10.1470452,0.37813409 9.85373729,0.543257187 9.61077987,0.765106994 C8.99580077,1.45945951 8.36389161,2.1388608 7.71505239,2.80331086 C6.41737394,4.13221099 5.05043613,5.38613512 3.61445884,6.56508325 C2.89636026,7.15455732 2.16155148,7.72072506 1.40959277,8.26336661 C0.974907871,8.57690261 0.630370065,9.0146657 0.428308645,9.51069461 C0.380376774,9.6281057 0.340580129,9.74859499 0.308698839,9.87128299 Z"/>
      <path fill="#FFF" d="M1.89220955 9.15802003C1.78996955 9.1578017 1.68772955 9.18110803 1.58592929 9.22794054 1.3821089 9.32182545 1.24996645 9.47683448 1.18950194 9.69274777 1.15915974 9.80070441 1.15212387 9.90536299 1.16861419 10.0065036 1.17740903 10.0601522 1.20929032 10.1122616 1.25458374 10.1450223 1.29965729 10.178003 1.35836284 10.1914151 1.41333058 10.1826203 1.46807845 10.1736056 1.51952826 10.142164 1.55184929 10.0966507 1.58439019 10.0511374 1.59802219 9.99155241 1.58944723 9.9379039 1.58241135 9.89590854 1.58548955 9.85215422 1.59802219 9.80730054 1.62330735 9.71715345 1.6782751 9.65251138 1.76336516 9.61337435 1.80580026 9.59380583 1.84823535 9.58413151 1.89111019 9.58435138 1.94541832 9.58435138 2.00214503 9.5614848 2.04194168 9.52234777 2.08173832 9.48299086 2.1046049 9.42736351 2.10482477 9.37173615 2.10482477 9.3161088 2.08239794 9.26026157 2.04282116 9.22090467 2.00324439 9.1813279 1.94673755 9.15824145 1.89220955 9.15802003zM3.80992413 9.13537332C3.70746426 9.13515499 3.60544413 9.15846132 3.50364387 9.2055137 3.29982348 9.29939861 3.16768103 9.45418777 3.10699665 9.67032093 3.07687432 9.77827757 3.06983845 9.88271628 3.08632877 9.98385693 3.09512361 10.0375054 3.1270049 10.0896149 3.17207845 10.1225955 3.21737187 10.1553563 3.27585755 10.1689883 3.33082529 10.1599736 3.38579303 10.1509589 3.43702297 10.1197372 3.46956387 10.0742239 3.50210477 10.0287106 3.51573677 9.96912557 3.50694194 9.91547706 3.50012594 9.87326183 3.50298426 9.82972738 3.51573677 9.78465383 3.54102194 9.69450674 3.59598968 9.63008454 3.68085987 9.59094751 3.72351484 9.57137899 3.76594994 9.5614848 3.8086049 9.56170467 3.8631329 9.56192454 3.91985961 9.53905796 3.95965626 9.49970106 3.9994529 9.46056403 4.02232109 9.40493667 4.02232109 9.34930932 4.02253935 9.29346209 4.00011252 9.23783474 3.96053574 9.19825796 3.92095897 9.15890106 3.86423226 9.13559474 3.80992413 9.13537332zM4.32881961 7.21787405C4.22635974 7.21744041 4.12433961 7.24074674 4.02231948 7.28779912 3.81871897 7.38168403 3.68657652 7.53669306 3.62589213 7.75260635 3.59576981 7.86056299 3.58873394 7.96522157 3.60522426 8.06614235 3.6140191 8.11979086 3.64590039 8.17212015 3.69097394 8.20488093 3.73626735 8.23786157 3.79475303 8.2512737 3.84972077 8.24225899 3.90468852 8.23346415 3.95591845 8.20202261 3.98845935 8.15650932 4.02100026 8.11099603 4.03463226 8.05141099 4.02583742 7.99776248 4.01902142 7.95554725 4.02187974 7.9120128 4.03463226 7.86693925 4.05991742 7.77701203 4.11488516 7.71236996 4.19975535 7.67323293 4.24219045 7.65366441 4.28484542 7.64399009 4.32750039 7.64399009 4.38202839 7.64420996 4.43853523 7.62134338 4.47855174 7.58198648 4.51834839 7.54284945 4.54121655 7.48722209 4.54121655 7.43159474 4.54143484 7.37596738 4.51878813 7.32012015 4.47943123 7.28076325 4.43985445 7.24118648 4.38312774 7.21787405 4.32881961 7.21787405zM6.17881394 7.24030545C6.07635406 7.24008712 5.97433394 7.26339345 5.87231381 7.31044583 5.66871329 7.40433074 5.53657084 7.5591199 5.47588645 7.77525306 5.44554426 7.8832097 5.43872826 7.98764841 5.45521858 8.08878906 5.46379355 8.14243757 5.49567484 8.19454699 5.54096826 8.22752764 5.58626168 8.26028841 5.64474735 8.27392041 5.6997151 8.2649057 5.75468284 8.25589099 5.80591277 8.22444945 5.83845368 8.17915603 5.87099458 8.13364274 5.88462658 8.0740577 5.87583174 8.02018932 5.86901574 7.97819396 5.87187406 7.93465951 5.88440671 7.88958596 5.90969187 7.79943886 5.96487948 7.73501667 6.04974968 7.69587964 6.09218477 7.67631112 6.13483974 7.66641693 6.17749471 7.6666368 6.23180284 7.66685667 6.28852955 7.64377022 6.32832619 7.60463319 6.36812284 7.56549615 6.39121088 7.5098688 6.39121088 7.45402157 6.39142916 7.39839422 6.36878245 7.34276686 6.32920568 7.30319009 6.2896289 7.26383319 6.23312206 7.24052686 6.17881394 7.24030545zM6.65263587 5.34523758C6.550176 5.34501925 6.447936 5.36832557 6.34613574 5.41537796 6.14253523 5.50926286 6.01039277 5.66405203 5.94970839 5.88018519 5.91936619 5.98814183 5.91255019 6.09258054 5.92904052 6.19372119 5.93761548 6.2473697 5.96949677 6.29947912 6.01479019 6.33245977 6.06008361 6.36522054 6.11856929 6.37863267 6.17353703 6.36983783 6.22850477 6.36082312 6.27973471 6.32938157 6.31227561 6.28386828 6.34459665 6.23857486 6.35844852 6.17876996 6.34965368 6.12512145 6.34283768 6.08312609 6.345696 6.03959164 6.35822865 5.99451809 6.38351381 5.90437099 6.43870142 5.8399488 6.52357161 5.8005919 6.56600671 5.78102338 6.60866168 5.77134906 6.65131665 5.77156893 6.70562477 5.7717888 6.76235148 5.74870235 6.80214813 5.70956532 6.84194477 5.67020841 6.86481135 5.61480093 6.86503281 5.5589537 6.8652511 5.50332635 6.84260439 5.44769899 6.80302761 5.40812222 6.76345084 5.36876532 6.706944 5.34545899 6.65263587 5.34523758zM8.57013058 5.36788429C8.46789058 5.36766596 8.36565058 5.39097228 8.26385032 5.4378048 8.06002994 5.5316897 7.92788748 5.68669874 7.86742297 5.90261203 7.83708077 6.01056867 7.8300449 6.11522725 7.84653523 6.21614803 7.85533006 6.26979654 7.88721135 6.32212583 7.93250477 6.35488661 7.97757832 6.38786725 8.03628387 6.40127938 8.09125161 6.39226467 8.14599948 6.38346983 8.19744929 6.35202828 8.22977032 6.30651499 8.26231123 6.2610017 8.27594323 6.20141667 8.26736826 6.14776815 8.26033239 6.10555293 8.26341058 6.06201848 8.27594323 6.01694493 8.30122839 5.9270177 8.35619613 5.86237564 8.44128619 5.82323861 8.48372129 5.80367009 8.52615639 5.79399577 8.56903123 5.79399577 8.62333935 5.79421564 8.68006606 5.77134906 8.71986271 5.73221203 8.75965935 5.69285512 8.78252594 5.63722777 8.78274581 5.58160041 8.78274581 5.52597306 8.76031897 5.47012583 8.72074219 5.43076893 8.68116542 5.39119215 8.62465858 5.3681057 8.57013058 5.36788429zM8.57013058 3.45016971C8.46789058 3.44995138 8.36565058 3.4732577 8.26385032 3.52009022 8.06002994 3.61419499 7.92788748 3.76898415 7.86742297 3.98489745 7.83708077 4.09307396 7.8300449 4.19751267 7.84653523 4.29865332 7.85533006 4.35230183 7.88721135 4.40441125 7.93250477 4.4373919 7.97757832 4.47015267 8.03628387 4.4835648 8.09125161 4.47476996 8.14599948 4.46575525 8.19744929 4.4343137 8.22977032 4.38880041 8.26231123 4.34328712 8.27594323 4.28370209 8.26736826 4.23005357 8.26033239 4.18805822 8.26341058 4.1443039 8.27594323 4.09945022 8.30122839 4.00930312 8.35619613 3.94466106 8.44128619 3.90552403 8.48372129 3.88595551 8.52615639 3.87628119 8.56903123 3.87650106 8.62333935 3.87650106 8.68006606 3.85363448 8.71986271 3.81449745 8.75965935 3.77514054 8.78252594 3.71951319 8.78274581 3.66388583 8.78274581 3.60825848 8.76031897 3.55263112 8.72074219 3.51305435 8.68116542 3.47369745 8.62465858 3.45039112 8.57013058 3.45016971zM10.9390204 2.95391643C10.8365605 2.95348274 10.7345404 2.97700893 10.6327401 3.02384145 10.4289197 3.11772635 10.2967773 3.27273538 10.2363128 3.48864867 10.2059706 3.59660532 10.1989347 3.7012639 10.215425 3.80218467 10.2242199 3.85583319 10.2561012 3.90816248 10.3011747 3.94092325 10.3464681 3.9739039 10.4051737 3.98731603 10.4599215 3.97830132 10.5148893 3.96950648 10.5663391 3.93806493 10.5986601 3.89255164 10.631201 3.84703835 10.644833 3.78745332 10.6360382 3.7338048 10.6292222 3.69158957 10.6320805 3.64805512 10.644833 3.60298157 10.6701182 3.51305435 10.7250859 3.44841228 10.810176 3.40927525 10.8526111 3.38970674 10.8950462 3.38003241 10.9377012 3.38003241 10.9922292 3.38025228 11.0489559 3.3573857 11.0887525 3.3180288 11.1285492 3.27889177 11.1514157 3.22326441 11.1516356 3.16763706 11.1516356 3.1120097 11.1292088 3.05616248 11.089632 3.01680557 11.0500552 2.9772288 10.9933285 2.95414235 10.9390204 2.95391643zM10.9616671 1.10392661C10.8592072 1.10370828 10.7569672 1.12701461 10.655167 1.17384712 10.4515665 1.26773203 10.319424 1.42274106 10.2587396 1.63865435 10.2283974 1.74661099 10.2215814 1.85126957 10.2380717 1.95219035 10.2466467 2.00605874 10.278528 2.05816815 10.3238214 2.09092893 10.3691148 2.12390957 10.4276005 2.1373217 10.4825683 2.12830699 10.537536 2.11951215 10.5887659 2.08807061 10.6213068 2.04255732 10.6538477 1.99704403 10.6674797 1.93745899 10.6586849 1.88381048 10.6518689 1.84159525 10.6547272 1.7980608 10.6672599 1.75298725 10.692545 1.66306003 10.7477326 1.59841796 10.8326028 1.55928093 10.8750379 1.53971241 10.9176929 1.53003809 10.9603479 1.53003809 11.014656 1.53025796 11.0713827 1.50739138 11.1111794 1.46825435 11.150976 1.42889745 11.1738426 1.37327009 11.174064 1.31764274 11.1742823 1.26201538 11.1516356 1.20616815 11.1120588 1.16681125 11.0724821 1.12723448 11.0159752 1.10414803 10.9616671 1.10392661zM12.5394612 4.11747964C12.5394612 4.06163241 12.5163747 4.00600506 12.4770178 3.96664815 12.4376609 3.92729125 12.3820335 3.9042048 12.3264062 3.9042048 12.270559 3.9042048 12.2149316 3.92729125 12.1755747 3.96664815 12.1362178 4.00600506 12.1131314 4.06163241 12.1131314 4.11747964 12.1131314 4.17310699 12.1362178 4.22873435 12.1755747 4.26809125 12.2149316 4.30744815 12.270559 4.33053461 12.3264062 4.33053461 12.3820335 4.33053461 12.4376609 4.30744815 12.4770178 4.26809125 12.5163747 4.22873435 12.5394612 4.17310699 12.5394612 4.11747964zM4.70765729 12.4917067C4.81011716 12.4919251 4.91235716 12.4686187 5.01415742 12.4215663 5.21775794 12.3276814 5.34990039 12.1728923 5.41058477 11.9567591 5.44092697 11.8488025 5.44774297 11.7443638 5.43147252 11.6432231 5.42267768 11.5895746 5.39079639 11.5374652 5.34550297 11.5044845 5.30042942 11.4717238 5.24172387 11.4583116 5.18675613 11.4671065 5.13178839 11.4761212 5.08055845 11.5075627 5.04801755 11.553076 5.01569652 11.5983694 5.00184465 11.6581743 5.01063948 11.7118229 5.01745548 11.7538182 5.01459716 11.7973527 5.00206452 11.8424262 4.97677935 11.9325733 4.92159174 11.9969955 4.83672155 12.0363524 4.79428645 12.0559209 4.75163148 12.0655953 4.70897652 12.0653754 4.65466839 12.0651555 4.59794168 12.088242 4.55814503 12.127379 4.51834839 12.1667359 4.49548181 12.2221434 4.49526035 12.2779906 4.49504206 12.333618 4.51768877 12.3892453 4.55726555 12.4288221 4.59684232 12.468179 4.65334916 12.4914853 4.70765729 12.4917067zM6.60866168 10.6360003C6.71090168 10.636434 6.81314168 10.6131276 6.91494194 10.5660753 7.11876232 10.4721903 7.25090477 10.3171813 7.31136929 10.101268 7.34171148 9.99331138 7.34852748 9.88887267 7.33225703 9.78773203 7.32346219 9.73408351 7.2915809 9.68175422 7.24628748 9.64899345 7.20121394 9.61623267 7.14250839 9.60260067 7.08754065 9.61161538 7.0325729 9.62063009 6.98134297 9.65185177 6.94880206 9.69736506 6.91648103 9.74287835 6.90284903 9.80246338 6.911424 9.8561119 6.91824 9.89832712 6.91538168 9.94186157 6.90284903 9.98693512 6.87756387 10.0768623 6.82237626 10.1415044 6.73750606 10.1806414 6.69507097 10.20021 6.652416 10.2101042 6.60976103 10.2098843 6.5554529 10.2096644 6.49872619 10.232531 6.45892955 10.2718879 6.4191329 10.3110249 6.39626632 10.3666523 6.39604487 10.4222796 6.39582658 10.4781269 6.41847329 10.5337542 6.45805006 10.573331 6.49762684 10.6126879 6.55413368 10.6360003 6.60866168 10.6360003zM8.50944619 8.75038234C8.61168619 8.75060067 8.71392619 8.72729435 8.81572645 8.68046183 9.01954684 8.58657693 9.15168929 8.4315679 9.21215381 8.21565461 9.242496 8.10769796 9.24953187 8.00303938 9.23304155 7.90189874 9.22424671 7.84825022 9.19236542 7.7961408 9.147072 7.76338003 9.10199845 7.73039938 9.0432929 7.71698725 8.98832516 7.72600196 8.93335742 7.7347968 8.88212748 7.76623835 8.84958658 7.81175164 8.81726555 7.85726493 8.80363355 7.91684996 8.81220852 7.97049848 8.81924439 8.0127137 8.81616619 8.05624815 8.80363355 8.10110183 8.77834839 8.19124893 8.72338065 8.25589099 8.63829058 8.29502803 8.59585548 8.31459654 8.55320052 8.32427086 8.51054555 8.32405099 8.45623742 8.32405099 8.39951071 8.34691757 8.35971406 8.38605461 8.31991742 8.42541151 8.29705084 8.48103886 8.29682938 8.53666622 8.2966111 8.59229357 8.31925781 8.6481408 8.35883458 8.6874977 8.39841135 8.72707448 8.45491819 8.75016093 8.50944619 8.75038234zM10.3422906 6.82695112C10.4447505 6.82716945 10.5467706 6.80386312 10.6485708 6.75703061 10.8523912 6.6631457 10.9845337 6.50813667 11.0452181 6.29222338 11.0753404 6.18426674 11.0823763 6.07960815 11.0658859 5.97846751 11.0570911 5.92481899 11.0252098 5.87270957 10.9801363 5.8399488 10.9348428 5.80696815 10.8763572 5.79355603 10.8213894 5.80257074 10.7664217 5.81136557 10.7149719 5.84280712 10.6826508 5.88832041 10.6501099 5.9338337 10.6364779 5.99341874 10.6452728 6.04706725 10.6520888 6.08928248 10.6492305 6.13281693 10.6364779 6.17767061 10.6111928 6.2678177 10.556225 6.33245977 10.4713548 6.3715968 10.4286999 6.39116532 10.3862648 6.40083964 10.3436098 6.40061977 10.2890818 6.40061977 10.2323551 6.42348635 10.1925585 6.46262338 10.1527618 6.50198028 10.1298936 6.55760764 10.1298936 6.61323499 10.1296754 6.66886235 10.1521022 6.72470957 10.191679 6.76406648 10.2312557 6.80364325 10.2879825 6.8267297 10.3422906 6.82695112z"/>
    </g>
  </g>
</svg>
