<svg xmlns="http://www.w3.org/2000/svg" width="100" height="100" viewBox="0 0 100 100">
  <g fill="none" fill-rule="evenodd">
    <path fill="#FFF" d="M100,49.9998 C100,43.4558 98.698,36.9118 96.194,30.8658 C93.689,24.8198 89.982,19.2718 85.355,14.6448 C80.728,10.0168 75.18,6.3108 69.134,3.8058 C63.088,1.3018 56.544,-0.0002 50,-0.0002 C43.456,-0.0002 36.911,1.3018 30.865,3.8058 C24.819,6.3108 19.272,10.0168 14.644,14.6448 C10.017,19.2718 6.31,24.8198 3.806,30.8658 C1.301,36.9118 0,43.4558 0,49.9998 C0,56.5438 1.301,63.0878 3.806,69.1338 C6.31,75.1798 10.017,80.7278 14.644,85.3558 C19.272,89.9828 24.819,93.6898 30.865,96.1938 C36.911,98.6978 43.456,99.9998 50,99.9998 C56.544,99.9998 63.088,98.6978 69.134,96.1938 C75.18,93.6898 80.728,89.9828 85.355,85.3558 C89.982,80.7278 93.689,75.1798 96.194,69.1338 C98.698,63.0878 100,56.5438 100,49.9998 Z"/>
    <path fill="#0657F9" d="M37.046,10.5738 C41.704,9.0428 46.682,8.3428 51.613,8.5318 C56.545,8.7208 61.431,9.7998 65.978,11.6998 C70.526,13.5998 74.735,16.3218 78.336,19.6798 C83.099,24.1228 86.797,29.6798 89.015,35.8958 C91.234,42.1128 91.973,48.9888 91.117,55.5348 C90.262,62.0808 87.812,68.2978 84.106,73.6438 C80.4,78.9898 75.437,83.4638 69.608,86.5638 C63.779,89.6628 57.082,91.3868 50.481,91.4868 C43.88,91.5868 37.374,90.0638 31.547,87.1718 C25.721,84.2798 20.573,80.0198 16.664,74.6988 C12.755,69.3778 10.085,62.9958 9.025,56.4838 C7.965,49.9708 8.515,43.3268 10.546,37.1288 C12.081,32.4428 14.463,28.0128 17.515,24.1738 L12.876,24.1738 L12.876,16.5058 L31.053,16.5058 L31.053,33.4798 L23.385,33.4798 L23.385,28.8418 C20.885,31.9858 18.933,35.6148 17.676,39.4548 C16.013,44.5348 15.565,49.9848 16.426,55.3028 C17.496,61.9178 20.59,68.3278 25.208,73.2678 C30.732,79.1758 38.436,82.9818 46.456,83.8148 C54.475,84.6478 62.81,82.5088 69.429,77.9018 C76.048,73.2948 80.953,66.2198 82.944,58.4058 C84.935,50.5918 84.012,42.0388 80.422,34.8188 C76.832,27.5988 70.574,21.7138 63.091,18.6218 C55.608,15.5288 46.899,15.2308 39.387,17.6988 L37.046,10.5738 Z"/>
    <g fill="#000" transform="translate(32.177 25.377)">
      <polygon points="15.927 9.045 19.515 9.045 19.515 40.399 15.927 40.399"/>
      <path d="M13.8899485 23.794019L13.8899485 20.0469209C11.0115717 18.6309956 9.02969295 15.6685938 9.02969295 12.2437073 9.02969295 7.44525521 12.9212306 3.5537175 17.7210716 3.5537175 23.1104763 3.5537175 27.002014 7.44525521 27.002014 12.2437073 27.002014 13.4533894 26.7534111 14.6054346 26.1569031 15.9741392L24.624315 10.9916655 21.5521946 11.9520503 24.2764099 22.3211511 34.8524483 18.4303078 33.5670742 15.3977694 29.6227605 16.7477247C30.3366257 15.1998593 30.4768989 14.0617026 30.4768989 12.2437073 30.4768989 5.52448553 25.0298572.0774438168 17.7210716.0774438168 11.0018498.0774438168 5.5548081 5.52448553 5.5548081 12.2437073 5.5548081 17.6240846 9.04844232 22.1885166 13.8899485 23.794019zM21.5521946 25.649513L21.5521946 29.3966111C24.4305715 30.8132308 26.4124502 33.7749382 26.4124502 37.1998247 26.4124502 41.9982768 22.5209125 45.8898145 17.7210716 45.8898145 12.3316669 45.8898145 8.44012915 41.9982768 8.44012915 37.1998247 8.44012915 35.9901426 8.68873202 34.8380974 9.28524003 33.4693928L10.8178281 38.4518666 13.8899485 37.4914817 11.1657333 27.1223809.589694865 31.0139186 1.87506893 34.0457626 5.81938267 32.6958073C5.10551744 34.2436727 4.96524431 35.3818294 4.96524431 37.1998247 4.96524431 43.9190465 10.412286 49.3660882 17.7210716 49.3660882 24.4402934 49.3660882 29.8873351 43.9190465 29.8873351 37.1998247 29.8873351 31.8194475 26.3937008 27.2550154 21.5521946 25.649513z"/>
    </g>
  </g>
</svg>
