<svg xmlns="http://www.w3.org/2000/svg" width="32" height="32" fill="none" focusable="false" viewBox="0 0 32 32">
  <path fill="#fff" fill-rule="evenodd" d="M32 16C32 7.17152 24.8285 0 16 0C7.17152 0 0 7.17152 0 16C0 24.8285 7.17152 32 16 32C24.8285 32 32 24.8285 32 16Z"/>
  <path fill="#00A3FF" d="M9.00354 14.7914C8.93986 14.889 8.87618 14.9866 8.81282 15.0842C6.66114 18.3862 7.14146 22.7098 9.96834 25.48C11.6314 27.1098 13.8119 27.9245 15.992 27.9251L9.00354 14.7914Z"/>
  <path fill="#00A3FF" d="M16 9.86688L9.97632 13.311L16 16.7514V9.86688Z" opacity="0.6"/>
  <path fill="#00A3FF" d="M16 4.07488L9.97632 13.3117L16 9.85728V4.07488Z"/>
  <path fill="#00A3FF" d="M16 18.7827L9.00385 14.7914L16 27.9251V18.7827Z" opacity="0.6"/>
  <path fill="#00A3FF" d="M22.9965 14.7914C23.0602 14.889 23.1238 14.9866 23.1872 15.0842C25.3389 18.3862 24.8586 22.7098 22.0317 25.48C20.3686 27.1098 18.1882 27.9245 16.008 27.9251L22.9965 14.7914Z" opacity="0.6"/>
  <path fill="#00A3FF" d="M16 9.86688L22.0237 13.311L16 16.7514V9.86688Z" opacity="0.2"/>
  <path fill="#00A3FF" d="M16 4.07488L22.0237 13.3117L16 9.85728V4.07488Z" opacity="0.6"/>
  <path fill="#00A3FF" d="M16 18.7827L22.9962 14.7914L16 27.9251V18.7827Z" opacity="0.2"/>
</svg>
