<svg xmlns="http://www.w3.org/2000/svg" width="32" height="32" viewBox="0 0 32 32">
  <g fill="none" fill-rule="evenodd">
    <path fill="#000" d="M32,16 C32,13.90592 31.58336,11.81184 30.78208,9.87712 C29.98048,7.9424 28.79424,6.16704 27.3136,4.6864 C25.83296,3.20544 24.0576,2.01952 22.12288,1.21792 C20.18816,0.41664 18.09408,0 16,0 C13.90592,0 11.81152,0.41664 9.8768,1.21792 C7.94208,2.01952 6.16704,3.20544 4.68608,4.6864 C3.20544,6.16704 2.0192,7.9424 1.21792,9.87712 C0.41632,11.81184 0,13.90592 0,16 C0,18.09408 0.41632,20.18816 1.21792,22.12288 C2.0192,24.0576 3.20544,25.83296 4.68608,27.31392 C6.16704,28.79456 7.94208,29.9808 9.8768,30.78208 C11.81152,31.58336 13.90592,32 16,32 C18.09408,32 20.18816,31.58336 22.12288,30.78208 C24.0576,29.9808 25.83296,28.79456 27.3136,27.31392 C28.79424,25.83296 29.98048,24.0576 30.78208,22.12288 C31.58336,20.18816 32,18.09408 32,16 Z"/>
    <path fill="#FFF" fill-rule="nonzero" d="M16.2719387,7.98 C16.9350859,7.98 17.5738761,8.05005498 18.1847591,8.18981127 C18.6987237,8.30413545 19.2725139,8.50187063 19.9086379,8.78239592 C20.4201935,9.00803077 20.6252059,9.62046604 20.3648804,10.1125533 C20.1198044,10.5758235 19.5526946,10.7596131 19.0797398,10.5374478 C18.5531689,10.2900878 18.0971079,10.1107951 17.7286131,10.0033786 C17.2588386,9.88200561 16.781703,9.82136442 16.2965902,9.82136442 C15.6972457,9.82136442 15.2578461,9.95273815 14.9532582,10.2067594 C14.661029,10.4405388 14.5231168,10.7334848 14.5231168,11.1277979 C14.5231168,11.5371196 14.645378,11.873895 14.8794983,12.1439966 C15.0093442,12.2803322 15.2189881,12.4515505 15.5065934,12.6555177 L15.8201179,12.8703223 L16.1852085,13.1064853 L16.601457,13.3635326 L17.0684555,13.6409901 C18.1692201,14.2856306 18.9702532,14.8402892 19.4798535,15.3155965 C20.0223169,15.822353 20.4253099,16.3725245 20.6895019,16.9778578 C20.9297807,17.5700527 21.0475228,18.2682732 21.0475228,19.0714427 C21.0475228,20.6600515 20.6011256,21.9461802 19.6973882,22.9068365 C18.7895258,23.853 17.5294649,24.3225259 15.9506305,24.3225259 C14.4269346,24.3225259 13.1815548,23.8734123 12.2429274,22.9708788 C11.3162316,22.0798033 10.8537104,20.8848438 10.8537104,19.4174303 C10.8537104,18.0458023 11.2492551,16.9040167 12.0366404,16.024255 C12.5426888,15.4330222 13.2378044,14.9487686 14.1187943,14.5671889 L14.4193375,14.4437925 L14.5597104,14.391 L14.4607154,14.3247785 C14.076797,14.0557897 13.7577021,13.7902192 13.5026559,13.5258935 L13.3573078,13.36743 L13.2272942,13.209161 C12.7674231,12.5955536 12.5342728,11.9049039 12.5342728,11.1524774 C12.5342728,10.2136118 12.8959693,9.42891836 13.6090158,8.83394105 C14.3130591,8.26265344 15.2071063,7.98 16.2719387,7.98 Z M16.6150885,15.649434 L16.5067104,15.593 L16.3951048,15.6222644 C15.6365356,15.821099 15.0601018,16.023601 14.6669083,16.2272275 C14.2299708,16.4459924 13.8877388,16.7029932 13.6285636,17.0049863 C13.3803446,17.2813566 13.1926509,17.6155857 13.060401,18.0268132 C12.9157202,18.4321047 12.8423478,18.8950548 12.8423478,19.4174303 C12.8423478,20.3609442 13.1217977,21.0885648 13.680157,21.6337768 C14.2406202,22.1806687 14.9963262,22.4564262 15.9755055,22.4564262 C16.9829718,22.4564262 17.7321214,22.1760638 18.2527935,21.6269571 C18.7849676,21.0517345 19.0591422,20.1996953 19.0591422,19.0467632 C19.0591422,18.2929469 18.8607875,17.6548292 18.4591914,17.1089697 C18.1040222,16.6084067 17.4902139,16.1182969 16.6150885,15.649434 Z"/>
  </g>
</svg>
