<svg width="32" height="32" viewBox="0 0 32 32" fill="none" xmlns="http://www.w3.org/2000/svg">
<circle cx="16" cy="16" r="16" fill="white"/>
<path fill-rule="evenodd" clip-rule="evenodd" d="M11.8547 3.38381C13.3453 2.89389 14.9382 2.66989 16.5161 2.73037C18.0944 2.79085 19.6579 3.13613 21.1129 3.74413C22.5683 4.35213 23.9152 5.22317 25.0675 6.29773C26.5917 7.71949 27.775 9.49773 28.4848 11.4868C29.1949 13.4763 29.4314 15.6766 29.1574 17.7713C28.8838 19.866 28.0998 21.8555 26.9139 23.5662C25.728 25.2769 24.1398 26.7086 22.2745 27.7006C20.4093 28.6923 18.2662 29.244 16.1539 29.276C14.0416 29.308 11.9597 28.8206 10.095 27.8952C8.23071 26.9697 6.58335 25.6065 5.33247 23.9038C4.08159 22.2011 3.22719 20.1588 2.88799 18.075C2.54879 15.9908 2.72479 13.8648 3.37471 11.8814C3.86591 10.3819 4.62815 8.96429 5.60479 7.73581H4.12031V5.28205H9.93695V10.7137H7.48319V9.22957C6.68319 10.2356 6.05855 11.3969 5.65631 12.6257C5.12415 14.2513 4.98079 15.9953 5.25631 17.6971C5.59871 19.8139 6.58879 21.8651 8.06655 23.4459C9.83423 25.3364 12.2995 26.5544 14.8659 26.8209C17.432 27.0875 20.0992 26.403 22.2173 24.9288C24.3354 23.4545 25.905 21.1905 26.5421 18.69C27.1792 16.1896 26.8838 13.4526 25.735 11.1422C24.5862 8.83181 22.5837 6.94861 20.1891 5.95917C17.7945 4.96941 15.0077 4.87405 12.6038 5.66381L11.8547 3.38381Z" fill="#0657F9"/>
<circle cx="16" cy="16" r="8" fill="black"/>
<circle cx="16" cy="16" r="7" fill="#616161"/>
<circle cx="16" cy="16" r="6" fill="#757575"/>
<circle cx="16" cy="16" r="5" fill="#969696"/>
<circle cx="16" cy="16" r="4" fill="#656565"/>
<circle cx="16" cy="16" r="3" fill="#656565"/>
<circle cx="16" cy="16" r="2" fill="#656565"/>
<path d="M14.9345 16.9118C14.9345 16.8512 14.9264 16.7968 14.9102 16.7487C14.894 16.6988 14.8641 16.6524 14.8204 16.6096C14.7767 16.5668 14.7136 16.5241 14.6311 16.4813C14.5502 16.4367 14.4434 16.3904 14.3107 16.3422C14.1553 16.2852 14.0057 16.221 13.8617 16.1497C13.7176 16.0766 13.589 15.992 13.4757 15.8957C13.3625 15.7977 13.2727 15.6836 13.2063 15.5535C13.14 15.4216 13.1068 15.2683 13.1068 15.0936C13.1068 14.926 13.1408 14.7754 13.2087 14.6417C13.2767 14.5062 13.3714 14.3913 13.4927 14.2968C13.6157 14.2005 13.7597 14.1275 13.9248 14.0775C14.0898 14.0258 14.2702 14 14.466 14C14.7249 14 14.9531 14.0499 15.1505 14.1497C15.3495 14.2478 15.5049 14.3877 15.6165 14.5695C15.7298 14.7496 15.7864 14.9626 15.7864 15.2086H14.9393C14.9393 15.1105 14.9207 15.0241 14.8835 14.9492C14.8479 14.8743 14.7937 14.8155 14.7209 14.7727C14.6481 14.7299 14.5566 14.7086 14.4466 14.7086C14.3398 14.7086 14.25 14.7264 14.1772 14.762C14.1044 14.7977 14.0494 14.8458 14.0121 14.9064C13.9749 14.9652 13.9563 15.0303 13.9563 15.1016C13.9563 15.1604 13.9709 15.2139 14 15.262C14.0307 15.3084 14.0736 15.352 14.1286 15.393C14.1853 15.434 14.2532 15.4733 14.3325 15.5107C14.4134 15.5481 14.504 15.5847 14.6044 15.6203C14.7921 15.6863 14.9587 15.7602 15.1044 15.8422C15.2516 15.9225 15.3754 16.0143 15.4757 16.1176C15.5777 16.2193 15.6545 16.3351 15.7063 16.4652C15.7597 16.5954 15.7864 16.7424 15.7864 16.9064C15.7864 17.0811 15.7557 17.2362 15.6942 17.3717C15.6327 17.5071 15.5445 17.6221 15.4296 17.7166C15.3147 17.8093 15.1772 17.8797 15.017 17.9278C14.8568 17.9759 14.678 18 14.4806 18C14.2994 18 14.1206 17.975 13.9442 17.9251C13.7694 17.8734 13.6108 17.795 13.4684 17.6898C13.3261 17.5829 13.212 17.4465 13.1262 17.2807C13.0421 17.1132 13 16.9144 13 16.6845H13.8544C13.8544 16.7986 13.8681 16.8948 13.8956 16.9733C13.9231 17.0517 13.9636 17.115 14.017 17.1631C14.0704 17.2094 14.1359 17.2433 14.2136 17.2647C14.2913 17.2843 14.3803 17.2941 14.4806 17.2941C14.589 17.2941 14.6764 17.2772 14.7427 17.2433C14.8091 17.2077 14.8576 17.1613 14.8883 17.1043C14.9191 17.0455 14.9345 16.9813 14.9345 16.9118Z" fill="white"/>
<path d="M17.9369 14.0535V17.9465H17.085V14.0535H17.9369ZM19 14.0535V14.7781H16.0461V14.0535H19Z" fill="white"/>
</svg>
