<svg width="80" height="80" viewBox="0 0 80 80" fill="none" xmlns="http://www.w3.org/2000/svg">
<path fill-rule="evenodd" clip-rule="evenodd" d="M80 40C80 17.9288 62.0712 0 40 0C17.9288 0 0 17.9288 0 40C0 62.0712 17.9288 80 40 80C62.0712 80 80 62.0712 80 40Z" fill="white"/>
<path fill-rule="evenodd" clip-rule="evenodd" d="M25.0347 60L30.8366 54.1981C36.4148 57.7983 43.5852 57.7983 49.1634 54.1981L54.9653 60L60 54.9653L54.1981 49.1634C57.7983 43.5852 57.7983 36.4148 54.1981 30.8366L60 25.0347L54.9653 20L49.1634 25.8019C43.5852 22.2017 36.4148 22.2017 30.8366 25.8019L25.0347 20L20 25.0347L25.8019 30.8366C22.2017 36.4148 22.2017 43.5852 25.8019 49.1634L20 54.9653L25.0347 60ZM40 29.7809C45.6386 29.7809 50.2191 34.3614 50.2191 40C50.2191 45.6386 45.6386 50.2191 40 50.2191C34.3614 50.2191 29.7809 45.6386 29.7809 40C29.7809 34.3614 34.3614 29.7809 40 29.7809Z" fill="black"/>
</svg>
