<svg width="40" height="40" viewBox="0 0 40 40" fill="none" xmlns="http://www.w3.org/2000/svg">
<path fill-rule="evenodd" clip-rule="evenodd" d="M5.03474 40L10.8366 34.1981C16.4148 37.7983 23.5852 37.7983 29.1634 34.1981L34.9653 40L40 34.9653L34.1981 29.1634C37.7983 23.5852 37.7983 16.4148 34.1981 10.8366L40 5.03474L34.9653 0L29.1634 5.80189C23.5852 2.20173 16.4148 2.20173 10.8366 5.80189L5.03474 0L0 5.03474L5.80189 10.8366C2.20173 16.4148 2.20173 23.5852 5.80189 29.1634L0 34.9653L5.03474 40ZM20 9.78095C25.6386 9.78095 30.2191 14.3614 30.2191 20C30.2191 25.6386 25.6386 30.2191 20 30.2191C14.3614 30.2191 9.78095 25.6386 9.78095 20C9.78095 14.3614 14.3614 9.78095 20 9.78095Z" fill="black"/>
</svg>
