<svg width="32" height="32" viewBox="0 0 32 32" fill="none" xmlns="http://www.w3.org/2000/svg">
<path fill-rule="evenodd" clip-rule="evenodd" d="M32 16C32 13.9059 31.5834 11.8118 30.7821 9.87712C29.9808 7.9424 28.7946 6.16704 27.3136 4.6864C25.833 3.20544 24.0576 2.0192 22.1229 1.21792C20.1882 0.41664 18.0941 0 16 0C13.9059 0 11.8118 0.41664 9.87712 1.21792C7.9424 2.0192 6.16704 3.20544 4.6864 4.6864C3.20544 6.16704 2.0192 7.9424 1.21792 9.87712C0.41664 11.8118 0 13.9059 0 16C0 18.0941 0.41664 20.1882 1.21792 22.1229C2.0192 24.0576 3.20544 25.833 4.6864 27.3136C6.16704 28.7946 7.9424 29.9808 9.87712 30.7821C11.8118 31.5834 13.9059 32 16 32C18.0941 32 20.1882 31.5834 22.1229 30.7821C24.0576 29.9808 25.833 28.7946 27.3136 27.3136C28.7946 25.833 29.9808 24.0576 30.7821 22.1229C31.5834 20.1882 32 18.0941 32 16Z" fill="#2775CA"/>
<path fill-rule="evenodd" clip-rule="evenodd" d="M13.0701 27.0844C13.0701 27.4754 12.7981 27.6056 12.4035 27.6056C7.46496 26.0249 4 21.5348 4 16.2541C4 10.9735 7.46496 6.48336 12.4035 4.90269C12.7994 4.77596 13.0701 5.03291 13.0701 5.43275C13.0701 5.73944 13.0701 6.04645 13.0701 6.35315C13.0701 6.62245 12.9299 6.88289 12.6666 7.01311C8.79808 8.46356 6.13152 12.0333 6.13152 16.2541C6.13152 20.4838 8.92992 24.1749 12.6666 25.4952C12.9299 25.6254 13.0701 25.8947 13.0701 26.1551C13.0701 26.465 13.0701 26.7748 13.0701 27.0844Z" fill="white"/>
<path fill-rule="evenodd" clip-rule="evenodd" d="M17.0701 23.7839C17.0701 24.0444 16.7981 24.3048 16.535 24.3048C16.1782 24.3048 15.8218 24.3048 15.465 24.3048C15.2019 24.3048 14.9299 24.0444 14.9299 23.7839C14.9299 23.2542 14.9299 22.7241 14.9299 22.1944C12.7981 21.934 11.737 20.7439 11.3334 19.0245C11.3334 18.7637 11.465 18.5033 11.737 18.5033C12.1344 18.5033 12.5322 18.5033 12.9299 18.5033C13.2019 18.5033 13.3334 18.6335 13.465 18.894C13.737 19.8235 14.263 20.6137 16 20.6137C17.3334 20.6137 18.263 19.9538 18.263 18.894C18.263 17.8433 17.737 17.4438 15.8685 17.1831C13.0688 16.7927 11.737 15.9934 11.737 13.7439C11.737 12.033 13.0701 10.7127 14.9299 10.4434C14.9299 9.91653 14.9299 9.38964 14.9299 8.86275C14.9299 8.60231 15.2019 8.33301 15.465 8.33301C15.8218 8.33301 16.1782 8.33301 16.535 8.33301C16.7981 8.33301 17.0701 8.60231 17.0701 8.86275C17.0701 9.38964 17.0701 9.91653 17.0701 10.4434C18.6666 10.7127 19.737 11.6334 20 13.0839C20 13.3532 19.8685 13.6136 19.5965 13.6136C19.2426 13.6136 18.889 13.6136 18.535 13.6136C18.263 13.6136 18.1315 13.4834 18 13.2227C17.737 12.2934 17.0701 11.9028 15.8685 11.9028C14.535 11.9028 13.8685 12.5627 13.8685 13.4834C13.8685 14.4038 14.263 14.9336 16.263 15.2029C19.072 15.5812 20.4035 16.384 20.4035 18.6335C20.4035 20.3444 19.0701 21.8037 17.0701 22.1944V23.7839Z" fill="white"/>
<path fill-rule="evenodd" clip-rule="evenodd" d="M19.5965 27.6052C19.2019 27.7443 18.9299 27.475 18.9299 27.084C18.9299 26.7745 18.9299 26.4646 18.9299 26.1548C18.9299 25.8943 19.0701 25.625 19.3335 25.4948C23.2019 24.0444 25.8685 20.4835 25.8685 16.2538C25.8685 12.033 23.0701 8.333 19.3335 7.01276C19.0701 6.88254 18.9299 6.62211 18.9299 6.3528C18.9299 6.04611 18.9299 5.7391 18.9299 5.4324C18.9299 5.03256 19.2019 4.90234 19.5965 4.90234C24.4035 6.48302 28 10.9732 28 16.2538C28 21.5344 24.5351 26.0246 19.5965 27.6052Z" fill="white"/>
<circle cx="25" cy="25" r="7" fill="black"/>
<path fill-rule="evenodd" clip-rule="evenodd" d="M26.3644 21.0625H25.5339L25.3212 21.6502H23.7542L21.5 27.8797H23.0692L22.6864 28.9375H23.5169L23.8997 27.8797H24.6116L24.2288 28.9375H25.0593L25.4425 27.8785C26.245 27.8566 27.0099 27.5313 27.5791 26.9674C28.1688 26.3833 28.5 25.591 28.5 24.7649C28.5 23.9388 28.1688 23.1466 27.5791 22.5625C27.527 22.5108 27.4732 22.4612 27.4179 22.4136L27.9068 21.0625H27.0763L26.7472 21.9718C26.5466 21.8737 26.3357 21.7969 26.1181 21.7431L26.3644 21.0625ZM24.9071 27.0569L26.4644 22.7534C26.2676 22.6469 26.0558 22.5692 25.8359 22.523L25.7689 22.708H25.7712L24.1975 27.0569H24.9071ZM23.3647 27.0569L25.0235 22.4729H24.287L22.6282 27.0569H23.3647ZM25.7522 27.0228L27.1099 23.2707C27.4696 23.685 27.6693 24.2147 27.6693 24.7649C27.6693 25.3727 27.4255 25.9557 26.9917 26.3854C26.6524 26.7216 26.2186 26.9425 25.7522 27.0228Z" fill="white"/>
</svg>
