<svg width="32" height="32" viewBox="0 0 32 32" fill="none" xmlns="http://www.w3.org/2000/svg">
<path fill-rule="evenodd" clip-rule="evenodd" d="M32 16C32 13.9059 31.5834 11.8118 30.7821 9.87712C29.9808 7.9424 28.7946 6.16704 27.3136 4.6864C25.833 3.20544 24.0576 2.0192 22.1229 1.21792C20.1882 0.41664 18.0941 0 16 0C13.9059 0 11.8118 0.41664 9.87712 1.21792C7.9424 2.0192 6.16704 3.20544 4.6864 4.6864C3.20544 6.16704 2.0192 7.9424 1.21792 9.87712C0.41664 11.8118 0 13.9059 0 16C0 18.0941 0.41664 20.1882 1.21792 22.1229C2.0192 24.0576 3.20544 25.833 4.6864 27.3136C6.16704 28.7946 7.9424 29.9808 9.87712 30.7821C11.8118 31.5834 13.9059 32 16 32C18.0941 32 20.1882 31.5834 22.1229 30.7821C24.0576 29.9808 25.833 28.7946 27.3136 27.3136C28.7946 25.833 29.9808 24.0576 30.7821 22.1229C31.5834 20.1882 32 18.0941 32 16Z" fill="#2775CA"/>
<path fill-rule="evenodd" clip-rule="evenodd" d="M13.0701 27.0844C13.0701 27.4754 12.7981 27.6056 12.4035 27.6056C7.46496 26.0249 4 21.5348 4 16.2541C4 10.9735 7.46496 6.48336 12.4035 4.90269C12.7994 4.77596 13.0701 5.03291 13.0701 5.43275C13.0701 5.73944 13.0701 6.04645 13.0701 6.35315C13.0701 6.62245 12.9299 6.88289 12.6666 7.01311C8.79808 8.46356 6.13152 12.0333 6.13152 16.2541C6.13152 20.4838 8.92992 24.1749 12.6666 25.4952C12.9299 25.6254 13.0701 25.8947 13.0701 26.1551C13.0701 26.465 13.0701 26.7748 13.0701 27.0844Z" fill="white"/>
<path fill-rule="evenodd" clip-rule="evenodd" d="M17.0701 23.7839C17.0701 24.0444 16.7981 24.3048 16.535 24.3048C16.1782 24.3048 15.8218 24.3048 15.465 24.3048C15.2019 24.3048 14.9299 24.0444 14.9299 23.7839C14.9299 23.2542 14.9299 22.7241 14.9299 22.1944C12.7981 21.934 11.737 20.7439 11.3334 19.0245C11.3334 18.7637 11.465 18.5033 11.737 18.5033C12.1344 18.5033 12.5322 18.5033 12.9299 18.5033C13.2019 18.5033 13.3334 18.6335 13.465 18.894C13.737 19.8235 14.263 20.6137 16 20.6137C17.3334 20.6137 18.263 19.9538 18.263 18.894C18.263 17.8433 17.737 17.4438 15.8685 17.1831C13.0688 16.7927 11.737 15.9934 11.737 13.7439C11.737 12.033 13.0701 10.7127 14.9299 10.4434C14.9299 9.91653 14.9299 9.38964 14.9299 8.86275C14.9299 8.60231 15.2019 8.33301 15.465 8.33301C15.8218 8.33301 16.1782 8.33301 16.535 8.33301C16.7981 8.33301 17.0701 8.60231 17.0701 8.86275C17.0701 9.38964 17.0701 9.91653 17.0701 10.4434C18.6666 10.7127 19.737 11.6334 20 13.0839C20 13.3532 19.8685 13.6136 19.5965 13.6136C19.2426 13.6136 18.889 13.6136 18.535 13.6136C18.263 13.6136 18.1315 13.4834 18 13.2227C17.737 12.2934 17.0701 11.9028 15.8685 11.9028C14.535 11.9028 13.8685 12.5627 13.8685 13.4834C13.8685 14.4038 14.263 14.9336 16.263 15.2029C19.072 15.5812 20.4035 16.384 20.4035 18.6335C20.4035 20.3444 19.0701 21.8037 17.0701 22.1944V23.7839Z" fill="white"/>
<path fill-rule="evenodd" clip-rule="evenodd" d="M19.5965 27.6052C19.2019 27.7443 18.9299 27.475 18.9299 27.084C18.9299 26.7745 18.9299 26.4646 18.9299 26.1548C18.9299 25.8943 19.0701 25.625 19.3335 25.4948C23.2019 24.0444 25.8685 20.4835 25.8685 16.2538C25.8685 12.033 23.0701 8.333 19.3335 7.01276C19.0701 6.88254 18.9299 6.62211 18.9299 6.3528C18.9299 6.04611 18.9299 5.7391 18.9299 5.4324C18.9299 5.03256 19.2019 4.90234 19.5965 4.90234C24.4035 6.48302 28 10.9732 28 16.2538C28 21.5344 24.5351 26.0246 19.5965 27.6052Z" fill="white"/>
<circle cx="25" cy="25" r="7" fill="url(#paint0_linear_2122_12546)"/>
<path d="M26.148 19.9598C26.148 20.3859 25.9102 20.7563 25.56 20.9457V21.6398H26.708V22.1998H25.56V28.8949C26.8574 28.7727 28.0259 28.2078 28.9131 27.3529L27.9959 26.9598L30.3759 24.9998L30.3468 25.1164C30.2886 27.8241 28.2073 30.0337 25.5541 30.2942C25.4807 30.3741 25.3967 30.463 25.3079 30.5519C25.028 30.8319 25.0278 30.7838 25.0278 30.7838C25.0278 30.7838 24.888 30.6919 24.748 30.5519C24.6921 30.4959 24.5992 30.3954 24.5077 30.2947C21.8519 30.0369 19.7678 27.8264 19.7093 25.117L19.68 24.9998L22.06 26.9598L21.1429 27.3529C22.0173 28.1955 23.165 28.7563 24.44 28.8893V22.1998H23.348V21.6398H24.44V20.9132C24.1207 20.7159 23.908 20.3627 23.908 19.9598C23.908 19.3413 24.4095 18.8398 25.028 18.8398C25.6466 18.8398 26.148 19.3413 26.148 19.9598Z" fill="white"/>
<defs>
<linearGradient id="paint0_linear_2122_12546" x1="19.9687" y1="19.5313" x2="29.5938" y2="30.25" gradientUnits="userSpaceOnUse">
<stop stop-color="#6033DB"/>
<stop offset="1" stop-color="#7957D5"/>
</linearGradient>
</defs>
</svg>
