<?xml version="1.0" encoding="utf-8"?>
<!-- Generator: Adobe Illustrator 27.4.1, SVG Export Plug-In . SVG Version: 6.00 Build 0)  -->
<svg version="1.1" id="Layer_1" xmlns="http://www.w3.org/2000/svg" xmlns:xlink="http://www.w3.org/1999/xlink" x="0px" y="0px"
	 viewBox="0 0 603.38 281.08" style="enable-background:new 0 0 603.38 281.08;" xml:space="preserve">
<style type="text/css">
	.st0{fill:#010101;}
</style>
<g>
	<path class="st0" d="M106.66,189.41c-48.7,0-73.98-33.13-75.1-34.63c-1.82-2.44-1.31-5.88,1.12-7.7c2.43-1.81,5.87-1.31,7.69,1.11
		l0,0c1.05,1.4,26.32,34.14,75.11,29.82l370.66-33.33c0.57-0.04,50.12-4.29,64.01-41.13c1.07-2.84,4.25-4.28,7.09-3.21
		c2.84,1.07,4.28,4.24,3.21,7.09c-16.38,43.45-71.08,48.04-73.4,48.21l-370.58,33.33C113.09,189.27,109.82,189.41,106.66,189.41z"/>
</g>
<g>
	<g>
		<path class="st0" d="M85.16,110.83c-3.58-5.06-5.6-10.12-6.06-15.15l-0.26-2.8C81.97,77.92,89.02,69.93,100,68.93l5.96-0.55
			c5.13,0.11,7.81,1.43,8.04,3.98l0.34,3.74c-0.14,0.96-4.33,3.75-12.58,8.38c-2.97,4.04-4.33,7.42-4.08,10.12
			c0.52,5.66,7.05,11.35,19.59,17.06c8.97,8.03,13.7,14.72,14.19,20.07c0.97,10.54-7.08,19.87-24.13,27.98l-7.94,0.73
			c-7.35-0.06-11.23-2.32-11.64-6.79c-0.04-0.47-0.19-0.87-0.45-1.21c-0.41-4.41,3.32-7.48,11.17-9.2c5.68-0.52,9.3-2.32,10.85-5.4
			c1.61-1.82,2.31-3.88,2.1-6.16c-0.22-2.44-6.81-7.49-19.75-15.16C89.3,115.95,87.12,114.05,85.16,110.83z"/>
	</g>
	<g>
		<path class="st0" d="M174.61,116.36c-0.38-4.1-0.74-9.28-1.09-15.53c-0.35-6.25-0.7-13.63-1.03-22.14l-11.5,1.06
			c-18.11-0.38-27.33-2.31-27.65-5.79l-0.43-4.67c1.15-3.25,3.98-5.08,8.51-5.5l25.57-2.35c4.52-0.42,8.35-1.16,11.48-2.23
			c4.54,0.37,8.82,0.37,12.85,0l23.09-2.12c9.38-0.86,14.39,2.21,15.03,9.23c-2.47,5.78-5.64,8.84-9.5,9.2
			c-8.73,0.02-15.58,0.25-20.55,0.71l-9.02,0.83l0.97,10.52c0.75,8.21,1.77,14.42,3.05,18.65c-0.21,2.53-0.3,5.17-0.27,7.92
			c0.03,2.75,0.18,5.63,0.46,8.64c0.09,0.99,0.38,2.93,0.87,5.81c0.49,2.89,1.18,6.81,2.08,11.75c-2.48,5.73-5.65,8.77-9.51,9.12
			c-5.46,0.5-9.21-2.72-11.23-9.65L174.61,116.36z"/>
	</g>
	<g>
		<path class="st0" d="M318.23,129.11c-7.67-2.96-11.74-6.96-12.2-12l-48.9,4.49l-10.9,21.27l-7.53,0.69
			c-2.69-1.38-4.1-2.87-4.25-4.48l-0.18-1.95c4.83-21.29,9.46-39.01,13.89-53.16c4.43-14.15,8.66-24.69,12.7-31.61
			c0.41-0.4,0.85-0.8,1.31-1.18c0.47-0.38,0.99-0.73,1.57-1.05l1.77,0.15l0.33-0.03l2.04-0.5c11.31-1.04,31.71,22.12,61.2,69.49
			l0.18,1.95c-1.46,4.74-3.76,7.26-6.9,7.55c-0.33,0.03-1.03-0.01-2.1-0.12L318.23,129.11z M260.56,106.27l34.75-3.19l-0.06-0.62
			c-3.24-6.83-11.17-16.54-23.79-29.16L260.56,106.27z"/>
	</g>
	<g>
		<path class="st0" d="M359.14,136.58c-5.24,0.48-8.9-10.62-10.99-33.32c-1.71,0.16-2.62-0.39-2.74-1.63
			c-0.22-2.39-0.04-5.26,0.54-8.61l-6.56-42.37l4.96-3.28c6.12-0.56,11.85,9.07,17.17,28.91c20.83-19.67,33.54-29.71,38.12-30.13
			c1.84,0.04,3.72,1.44,5.64,4.2c0.39,4.21-6.25,13.09-19.92,26.65c23.56,17.32,35.64,29.23,36.24,35.72l0.18,1.95
			c0.08,0.83-1.16,1.89-3.71,3.17l-1.24,0.11c-7.61,0.7-20.9-9.84-39.87-31.61c-1.16,0.11-4.82,3.3-10.97,9.57
			c1.77,9.63,3.11,17.1,4.02,22.41c0.91,5.31,1.41,8.49,1.5,9.53c0.3,3.27-1.65,5.99-5.84,8.16L359.14,136.58z"/>
	</g>
	<g>
		<path class="st0" d="M435.28,116.08l-2.62-28.51c-0.34-3.69-0.93-8.41-1.76-14.17c-0.83-5.76-1.92-12.64-3.27-20.64l1.82-0.17
			l-2.06-2.4l-0.36-3.9c-0.63-6.91,8.26-11.21,26.69-12.9l5.46-0.5c24.55-2.25,37.14,0.07,37.77,6.98c-1.5,3.65-3.16,5.55-4.98,5.72
			c-4.96,0.46-10.66,0.86-17.08,1.21c-6.42,0.35-13.68,0.69-21.77,1.02c-2.4,1.11-4.18,1.72-5.34,1.83l2.14,23.29l2.06,2.4
			l12.79-2.43l18.37-1.69c1.93-0.18,4.54,1.31,7.83,4.47l0.48,5.22c0.12,1.3-2.18,3.24-6.89,5.82l-29.46,2.7
			c-2.4,0.48-3.54,1.48-3.4,2.98c2.38,11.99,4.19,18.34,5.42,19.06c19.31-3.5,30.3-5.37,32.94-5.62l5.93,4.64l0.48,5.22
			c0.12,4.91-9.29,8.24-28.21,9.97c-3.26,0.3-6.77,0.54-10.53,0.73c-3.77,0.19-7.84,0.35-12.22,0.49
			C439.41,127.49,435.99,123.87,435.28,116.08z"/>
	</g>
</g>
<g>
	<g>
		<path class="st0" d="M98.1,220.53c-0.74-7.71,0.96-11.77,5.12-12.17c-0.06-0.59,0.94-1.03,3.01-1.32l1.25-0.12
			c10.03-0.06,15.27,2.14,15.7,6.62l0.15,1.5c0.14,1.41-0.3,3.31-1.32,5.72c4.75,1.56,7.29,4.02,7.61,7.38
			c0.61,6.37-5.92,10.22-19.61,11.54c-2.49,0.24-4.08,0.34-4.79,0.31l-0.24-0.34c-2.49,0.24-3.99-2.32-4.51-7.67
			C99.23,227.96,98.44,224.14,98.1,220.53z M105.61,220.32l0.78,0.92c0.12-0.01,0.5-0.02,1.13-0.02c0.63,0,1.53,0,2.7,0.01
			l6.35-1.31c1.03-1.43,1.29-3.32,0.78-5.67c-2.15-1.93-4.95-2.73-8.39-2.4l-0.69,0.07l-3.38,0.84L105.61,220.32z M106.28,227.34
			l0.87,2.46l0.39,4.04l3.15,0.18l1.88-0.18c7.44-0.91,11.04-2.61,10.8-5.1c-1.14-2.25-2.9-3.26-5.29-3.03
			c-1.58,0.29-2.96,0.52-4.14,0.68c-1.18,0.17-2.19,0.29-3.02,0.37c-0.26,0.03-0.5,0.05-0.72,0.07c-0.22,0.02-0.42,0.03-0.6,0.03
			c-0.71-0.05-1.29-0.08-1.74-0.09c-0.45-0.01-0.79,0-1.01,0.02C106.89,227.12,106.7,227.3,106.28,227.34z"/>
	</g>
	<g>
		<path class="st0" d="M226.87,225.09c-2.76-0.93-4.22-2.22-4.38-3.86l-17.64,1.7l-3.96,7l-2.72,0.26
			c-0.97-0.44-1.47-0.92-1.52-1.44l-0.06-0.64c1.78-6.98,3.47-12.79,5.09-17.44c1.62-4.65,3.16-8.11,4.63-10.39
			c0.15-0.13,0.31-0.26,0.47-0.39c0.17-0.13,0.36-0.24,0.57-0.35l0.64,0.04l0.12-0.01l0.74-0.17c4.08-0.39,11.4,7.08,21.95,22.41
			l0.06,0.63c-0.53,1.56-1.37,2.39-2.5,2.5c-0.12,0.01-0.37,0-0.76-0.03L226.87,225.09z M206.11,217.91l12.53-1.21l-0.02-0.2
			c-1.16-2.21-4-5.35-8.53-9.42L206.11,217.91z"/>
	</g>
	<g>
		<path class="st0" d="M272.62,220.57c0.1,1.09-0.27,1.77-1.13,2.06l-0.61-0.04l-0.23,0.12c-1.69,0.16-4.8-1.66-9.32-5.46l-4.3,0.41
			c-0.48,0.05-0.7,0.27-0.66,0.68c0.01,0.14,0.16,0.36,0.43,0.68c-0.3,3.79-1.03,5.74-2.21,5.86l-2.63,0.25
			c-1.04-0.38-2.21-3.34-3.51-8.9c-0.02-0.17,0.07-0.55,0.25-1.15c-0.07-0.75-0.81-5.91-2.22-15.49c1.86-1.75,4.69-2.81,8.49-3.18
			l1.19-0.11c7.8-0.75,13.36,1.55,16.69,6.91l0.15,1.53c0.37,3.83-1.52,7.16-5.66,9.99c0.25,0.1,1.96,1.57,5.13,4.43L272.62,220.57z
			 M252.67,201.05c0.79,2.8,1.41,5.2,1.87,7.2c0.45,2,0.74,3.62,0.86,4.86l0.24-0.02c7.65-1.46,11.32-3.79,11.01-7.01l-0.08-0.81
			c-0.07-0.75-0.34-1.38-0.82-1.91c-0.47-0.53-1.07-0.97-1.8-1.33c-0.73-0.36-1.54-0.64-2.45-0.84c-0.9-0.21-1.82-0.35-2.75-0.43
			c-0.93-0.08-1.85-0.12-2.75-0.11c-0.9,0.01-1.7,0.05-2.4,0.11C253.08,200.94,252.77,201.04,252.67,201.05z"/>
	</g>
	<g>
		<path class="st0" d="M323.27,202.16c0.97,10.1-6.07,16.65-21.15,19.64c-3.12,0.3-5.21-5.03-6.27-16
			c-0.48,0.05-1.31-4.57-2.51-13.85c1.36-1.14,2.67-1.77,3.94-1.89l5.28-0.51c10.52-1.02,17.35,2.36,20.46,10.11L323.27,202.16z
			 M316.68,201.28c-0.44-4.54-5.78-6.88-16.04-7.02c0.03,0.34-0.14,0.53-0.52,0.56l4.11,18.23
			C313.09,211.01,317.24,207.08,316.68,201.28z"/>
	</g>
</g>
<g>
	<g>
		<path class="st0" d="M160.31,237.36c-4.41-0.69-7.19-1.31-8.32-1.86c-10.55-5.11-13.21-13.08-7.96-23.92
			c3.52-7.26,9.44-10.91,17.78-10.93c2.97-0.01,5.75,0.61,8.32,1.86c6.79,3.29,10.2,8.19,10.25,14.71
			c-1.17,6.14-1.86,9.42-2.07,9.85C175.65,232.59,169.65,236.02,160.31,237.36z"/>
	</g>
</g>
<g>
	<g>
		<path class="st0" d="M456.42,179.16c2.34,3.81,3.66,6.32,3.98,7.54c2.95,11.35-1.4,18.54-13.06,21.57
			c-7.81,2.03-14.43-0.12-19.85-6.46c-1.93-2.26-3.26-4.77-3.98-7.54c-1.9-7.3-0.38-13.08,4.56-17.34c5.43-3.09,8.38-4.69,8.84-4.81
			C442.85,170.57,449.35,172.92,456.42,179.16z"/>
	</g>
</g>
</svg>
