<svg xmlns="http://www.w3.org/2000/svg" width="100" height="100" viewBox="0 0 100 100">
  <g fill="none" fill-rule="evenodd">
    <path fill="#FFF" d="M100,49.9998 C100,43.4558 98.698,36.9118 96.194,30.8658 C93.689,24.8198 89.982,19.2718 85.355,14.6448 C80.728,10.0168 75.18,6.3108 69.134,3.8058 C63.088,1.3018 56.544,-0.0002 50,-0.0002 C43.456,-0.0002 36.911,1.3018 30.865,3.8058 C24.819,6.3108 19.272,10.0168 14.644,14.6448 C10.017,19.2718 6.31,24.8198 3.806,30.8658 C1.301,36.9118 0,43.4558 0,49.9998 C0,56.5438 1.301,63.0878 3.806,69.1338 C6.31,75.1798 10.017,80.7278 14.644,85.3558 C19.272,89.9828 24.819,93.6898 30.865,96.1938 C36.911,98.6978 43.456,99.9998 50,99.9998 C56.544,99.9998 63.088,98.6978 69.134,96.1938 C75.18,93.6898 80.728,89.9828 85.355,85.3558 C89.982,80.7278 93.689,75.1798 96.194,69.1338 C98.698,63.0878 100,56.5438 100,49.9998 Z"/>
    <path fill="#0657F9" d="M37.046,10.5738 C41.704,9.0428 46.682,8.3428 51.613,8.5318 C56.545,8.7208 61.431,9.7998 65.978,11.6998 C70.526,13.5998 74.735,16.3218 78.336,19.6798 C83.099,24.1228 86.797,29.6798 89.015,35.8958 C91.234,42.1128 91.973,48.9888 91.117,55.5348 C90.262,62.0808 87.812,68.2978 84.106,73.6438 C80.4,78.9898 75.437,83.4638 69.608,86.5638 C63.779,89.6628 57.082,91.3868 50.481,91.4868 C43.88,91.5868 37.374,90.0638 31.547,87.1718 C25.721,84.2798 20.573,80.0198 16.664,74.6988 C12.755,69.3778 10.085,62.9958 9.025,56.4838 C7.965,49.9708 8.515,43.3268 10.546,37.1288 C12.081,32.4428 14.463,28.0128 17.515,24.1738 L12.876,24.1738 L12.876,16.5058 L31.053,16.5058 L31.053,33.4798 L23.385,33.4798 L23.385,28.8418 C20.885,31.9858 18.933,35.6148 17.676,39.4548 C16.013,44.5348 15.565,49.9848 16.426,55.3028 C17.496,61.9178 20.59,68.3278 25.208,73.2678 C30.732,79.1758 38.436,82.9818 46.456,83.8148 C54.475,84.6478 62.81,82.5088 69.429,77.9018 C76.048,73.2948 80.953,66.2198 82.944,58.4058 C84.935,50.5918 84.012,42.0388 80.422,34.8188 C76.832,27.5988 70.574,21.7138 63.091,18.6218 C55.608,15.5288 46.899,15.2308 39.387,17.6988 L37.046,10.5738 Z"/>
    <g fill="#000" transform="translate(25 25.997)">
      <g transform="translate(8.852 21.204)">
        <path d="M10.4715482,10.3464461 L8.17267157,10.3464461 C7.74232026,8.53496732 7.31296977,6.72348856 6.88261846,4.91100899 C6.83658088,4.71785131 6.75351307,4.31752451 6.63841912,3.71203023 C6.52332516,3.10553513 6.45727124,2.69820261 6.44025735,2.4910335 C6.41423611,2.74524101 6.34918301,3.15457516 6.24509804,3.71903595 C6.14101307,4.28249592 6.0599469,4.68482435 6.00390114,4.92502042 C5.57955474,6.73349673 5.15220588,8.54097222 4.72085376,10.3464461 L2.42898284,10.3464461 L5.25875639e-14,-1.81336427e-15 L1.98662173,-1.81336427e-15 C2.39195261,1.88253676 2.79828431,3.76507353 3.2036152,5.64761029 C3.4277982,6.68745915 3.57091503,7.59319853 3.66599265,8.35782271 C3.69201389,8.08860294 3.75206291,7.67226307 3.84513889,7.1088031 C3.93821487,6.54534314 4.02628676,6.10698529 4.10935458,5.79573121 C4.61776961,3.8751634 5.08014706,1.9435866 5.49648693,-1.81336427e-15 L7.40404412,-1.81336427e-15 C7.86642157,1.9315768 8.32879902,3.86415441 8.79117647,5.79573121 C8.85322712,6.05494281 8.92728758,6.45226716 9.01936275,6.9847018 C9.11043709,7.51813725 9.17949346,7.97551062 9.22753268,8.35782271 C9.27056781,7.98952206 9.340625,7.53114788 9.43570261,6.98169935 C9.53078023,6.43125 9.61785131,5.98688725 9.69591503,5.64761029 C10.128268,3.77107843 10.5315972,1.88854167 10.9069036,-1.81336427e-15 L12.8935253,-1.81336427e-15 L10.4715482,10.3464461 Z"/>
        <polygon points="19.575 10.346 14.092 10.346 14.092 0 19.575 0 19.575 1.797 16.11 1.797 16.11 4.069 19.334 4.069 19.334 5.867 16.11 5.867 16.11 8.535 19.575 8.535"/>
        <polygon points="25.234 10.346 23.215 10.346 23.215 1.825 20.63 1.825 20.63 0 27.819 0 27.819 1.825 25.234 1.825"/>
        <polygon points="37.085 10.346 35.073 10.346 35.073 5.881 31.303 5.881 31.303 10.346 29.284 10.346 29.284 0 31.303 0 31.303 4.055 35.073 4.055 35.073 0 37.085 0"/>
      </g>
      <path d="M22.5634191,0.267017974 C27.1831904,0.267017974 31.4786969,1.65615196 35.054616,4.04009804 L39.8855596,7.26172794 C45.948509,11.303027 49.9417688,18.2026593 49.9417688,26.0350531 C49.9417688,38.4872181 39.8475286,48.5824592 27.3943627,48.5824592 C22.7705882,48.5824592 18.4710784,47.1903227 14.8931577,44.8013725 L9.73594771,41.3595629 C3.86315359,37.2892402 0.0160130719,30.5006985 0.0160130719,22.814424 C0.0160130719,10.3612582 10.1112541,0.267017974 22.5634191,0.267017974 Z M27.3943627,5.09896242 C15.831924,5.09896242 6.45827206,14.4726144 6.45827206,26.0350531 C6.45827206,37.5984926 15.831924,46.9721446 27.3943627,46.9721446 C38.9578023,46.9721446 48.3314542,37.5984926 48.3314542,26.0350531 C48.3314542,14.4726144 38.9578023,5.09896242 27.3943627,5.09896242 Z"/>
    </g>
  </g>
</svg>
