<svg width="32" height="32" viewBox="0 0 32 32" fill="none" xmlns="http://www.w3.org/2000/svg">
<path fill-rule="evenodd" clip-rule="evenodd" d="M32 16C32 13.9059 31.5834 11.8118 30.7821 9.87712C29.9808 7.9424 28.7946 6.16704 27.3136 4.6864C25.833 3.20544 24.0576 2.0192 22.1229 1.21792C20.1882 0.41664 18.0941 0 16 0C13.9059 0 11.8118 0.41664 9.87712 1.21792C7.9424 2.0192 6.16704 3.20544 4.6864 4.6864C3.20544 6.16704 2.0192 7.9424 1.21792 9.87712C0.41664 11.8118 0 13.9059 0 16C0 18.0941 0.41664 20.1882 1.21792 22.1229C2.0192 24.0576 3.20544 25.833 4.6864 27.3136C6.16704 28.7946 7.9424 29.9808 9.87712 30.7821C11.8118 31.5834 13.9059 32 16 32C18.0941 32 20.1882 31.5834 22.1229 30.7821C24.0576 29.9808 25.833 28.7946 27.3136 27.3136C28.7946 25.833 29.9808 24.0576 30.7821 22.1229C31.5834 20.1882 32 18.0941 32 16Z" fill="#2775CA"/>
<path fill-rule="evenodd" clip-rule="evenodd" d="M13.0701 27.0844C13.0701 27.4754 12.7981 27.6056 12.4035 27.6056C7.46496 26.0249 4 21.5348 4 16.2541C4 10.9735 7.46496 6.48336 12.4035 4.90269C12.7994 4.77596 13.0701 5.03291 13.0701 5.43275C13.0701 5.73944 13.0701 6.04645 13.0701 6.35315C13.0701 6.62245 12.9299 6.88289 12.6666 7.01311C8.79808 8.46356 6.13152 12.0333 6.13152 16.2541C6.13152 20.4838 8.92992 24.1749 12.6666 25.4952C12.9299 25.6254 13.0701 25.8947 13.0701 26.1551C13.0701 26.465 13.0701 26.7748 13.0701 27.0844Z" fill="white"/>
<path fill-rule="evenodd" clip-rule="evenodd" d="M17.0701 23.7839C17.0701 24.0444 16.7981 24.3048 16.535 24.3048C16.1782 24.3048 15.8218 24.3048 15.465 24.3048C15.2019 24.3048 14.9299 24.0444 14.9299 23.7839C14.9299 23.2542 14.9299 22.7241 14.9299 22.1944C12.7981 21.934 11.737 20.7439 11.3334 19.0245C11.3334 18.7637 11.465 18.5033 11.737 18.5033C12.1344 18.5033 12.5322 18.5033 12.9299 18.5033C13.2019 18.5033 13.3334 18.6335 13.465 18.894C13.737 19.8235 14.263 20.6137 16 20.6137C17.3334 20.6137 18.263 19.9538 18.263 18.894C18.263 17.8433 17.737 17.4438 15.8685 17.1831C13.0688 16.7927 11.737 15.9934 11.737 13.7439C11.737 12.033 13.0701 10.7127 14.9299 10.4434C14.9299 9.91653 14.9299 9.38964 14.9299 8.86275C14.9299 8.60231 15.2019 8.33301 15.465 8.33301C15.8218 8.33301 16.1782 8.33301 16.535 8.33301C16.7981 8.33301 17.0701 8.60231 17.0701 8.86275C17.0701 9.38964 17.0701 9.91653 17.0701 10.4434C18.6666 10.7127 19.737 11.6334 20 13.0839C20 13.3532 19.8685 13.6136 19.5965 13.6136C19.2426 13.6136 18.889 13.6136 18.535 13.6136C18.263 13.6136 18.1315 13.4834 18 13.2227C17.737 12.2934 17.0701 11.9028 15.8685 11.9028C14.535 11.9028 13.8685 12.5627 13.8685 13.4834C13.8685 14.4038 14.263 14.9336 16.263 15.2029C19.072 15.5812 20.4035 16.384 20.4035 18.6335C20.4035 20.3444 19.0701 21.8037 17.0701 22.1944V23.7839Z" fill="white"/>
<path fill-rule="evenodd" clip-rule="evenodd" d="M19.5965 27.6052C19.2019 27.7443 18.9299 27.475 18.9299 27.084C18.9299 26.7745 18.9299 26.4646 18.9299 26.1548C18.9299 25.8943 19.0701 25.625 19.3335 25.4948C23.2019 24.0444 25.8685 20.4835 25.8685 16.2538C25.8685 12.033 23.0701 8.333 19.3335 7.01276C19.0701 6.88254 18.9299 6.62211 18.9299 6.3528C18.9299 6.04611 18.9299 5.7391 18.9299 5.4324C18.9299 5.03256 19.2019 4.90234 19.5965 4.90234C24.4035 6.48302 28 10.9732 28 16.2538C28 21.5344 24.5351 26.0246 19.5965 27.6052Z" fill="white"/>
<circle cx="25" cy="25" r="7" fill="#0E052F"/>
<circle cx="25" cy="25" r="7" fill="url(#paint0_linear_2122_12501)" fill-opacity="0.75"/>
<circle cx="25" cy="25.0003" r="6.06667" fill="white"/>
<circle cx="24.9854" cy="24.9851" r="5.52708" fill="#0E052F"/>
<path d="M24.6883 27.4825C24.4288 27.4628 24.1849 27.4085 23.9566 27.3196C23.7283 27.2258 23.5312 27.1049 23.3651 26.9568C23.1991 26.8087 23.0668 26.6383 22.9682 26.4458C22.8696 26.2533 22.8177 26.0434 22.8125 25.8163H23.7698C23.7802 26.0583 23.8684 26.2607 24.0345 26.4236C24.2057 26.5816 24.4236 26.6729 24.6883 26.6976V25.2313L24.3224 25.1795C23.9022 25.1252 23.5675 24.9746 23.3184 24.7278C23.0745 24.4809 22.9526 24.1674 22.9526 23.7873C22.9526 23.5898 22.9993 23.4047 23.0927 23.2319C23.1861 23.0541 23.3132 22.8986 23.4741 22.7653C23.6349 22.6271 23.8191 22.516 24.0267 22.4321C24.2376 22.3486 24.4607 22.2962 24.6883 22.2766V21.5879H25.2564V22.2914C25.4899 22.321 25.7053 22.3803 25.9024 22.4691C26.0996 22.5531 26.2709 22.6617 26.4161 22.795C26.5614 22.9283 26.6756 23.0813 26.7586 23.2541C26.8468 23.4269 26.8961 23.612 26.9065 23.8095H25.9491C25.9388 23.6318 25.8687 23.4787 25.739 23.3504C25.6145 23.2171 25.4536 23.1257 25.2564 23.0764V24.4315L25.5211 24.4686C25.7182 24.4982 25.905 24.55 26.0815 24.6241C26.2579 24.6981 26.411 24.7944 26.5407 24.9129C26.6756 25.0314 26.7794 25.1745 26.852 25.3424C26.9298 25.5053 26.9688 25.6905 26.9688 25.8978C26.9688 26.12 26.9246 26.3224 26.8364 26.505C26.7534 26.6828 26.6341 26.8407 26.4784 26.979C26.3279 27.1123 26.1463 27.2234 25.9336 27.3122C25.726 27.3962 25.5003 27.4505 25.2564 27.4751V28.2379H24.6883V27.4825V27.4825ZM25.2564 26.6902C25.5003 26.6507 25.6897 26.5668 25.8246 26.4384C25.9595 26.3051 26.027 26.1372 26.027 25.9348C26.027 25.7472 25.9621 25.609 25.8324 25.5201C25.7027 25.4263 25.5548 25.3646 25.3888 25.335L25.2564 25.3128V26.6902V26.6902ZM24.6883 23.0541C24.4703 23.0838 24.2835 23.1603 24.1279 23.2837C23.9774 23.4022 23.9022 23.5626 23.9022 23.7651C23.9022 23.9379 23.9514 24.0687 24.05 24.1575C24.1538 24.2415 24.2887 24.2958 24.4548 24.3205L24.6883 24.3575V23.0541V23.0541Z" fill="white"/>
<defs>
<linearGradient id="paint0_linear_2122_12501" x1="18" y1="18" x2="32" y2="32" gradientUnits="userSpaceOnUse">
<stop stop-color="#31D8A4"/>
<stop offset="1" stop-color="#31D8A4" stop-opacity="0"/>
</linearGradient>
</defs>
</svg>
