<svg xmlns="http://www.w3.org/2000/svg" width="32" height="32" viewBox="0 0 32 32">
  <g fill="none" fill-rule="evenodd">
    <path fill="#FFF" d="M31.8066017,16.0713471 C31.8066017,13.9964495 31.3937782,11.921552 30.5998382,10.0045547 C29.8055811,8.08755733 28.6302075,6.32846021 27.1631306,4.86138336 C25.6960538,3.39430651 23.9369567,2.21893285 22.0199593,1.42467577 C20.102962,0.630735759 18.0280645,0.217912318 15.9531669,0.217912318 C13.8779523,0.217912318 11.8030548,0.630735759 9.88605744,1.42467577 C7.96906011,2.21893285 6.21028006,3.39430651 4.74288614,4.86138336 C3.27580929,6.32846021 2.10043564,8.08755733 1.30649562,10.0045547 C0.512238543,11.921552 0.099732171,13.9964495 0.099732171,16.0713471 C0.099732171,18.1462446 0.512238543,20.2214592 1.30649562,22.1384566 C2.10043564,24.0554539 3.27580929,25.8142339 4.74288614,27.2816279 C6.21028006,28.7487047 7.96906011,29.9240784 9.88605744,30.7180184 C11.8030548,31.5122755 13.8779523,31.9247818 15.9531669,31.9247818 C18.0280645,31.9247818 20.102962,31.5122755 22.0199593,30.7180184 C23.9369567,29.9240784 25.6960538,28.7487047 27.1631306,27.2816279 C28.6302075,25.8142339 29.8055811,24.0554539 30.5998382,22.1384566 C31.3937782,20.2214592 31.8066017,18.1462446 31.8066017,16.0713471 Z"/>
    <path fill="#B0002C" d="M6.16525652,15.5058118 C6.20618721,15.5346363 6.2491356,15.5649019 6.29438995,15.5966088 C6.98848213,16.0846063 8.1858488,16.9199382 9.18202097,17.568776 C10.1781931,18.2179021 10.9731708,18.6808224 11.4309027,18.9373598 C11.8889228,19.1938972 12.0096972,19.2440517 12.120383,19.2642288 C12.2310688,19.2844059 12.331666,19.2743173 12.5530376,19.1587314 C12.7429906,19.0592871 13.0222993,18.8820169 13.6152177,18.4802044 C13.6642192,18.4470563 13.713509,18.4121787 13.763087,18.3758599 C13.862243,18.3029341 13.9245038,18.2063723 13.9492928,18.0858862 C13.9619756,18.0259314 13.9729288,17.9665531 13.9827291,17.9083278 C14.0017533,17.7959125 14.0248128,17.6840737 14.0519078,17.5736762 C14.1398223,17.2139473 14.2706852,16.8622893 14.4378668,16.5316732 C14.6038955,16.2036512 14.8076842,15.8926356 15.0382796,15.6061208 C15.268875,15.3201825 15.5285831,15.0558625 15.8081801,14.8177728 C16.0872005,14.5805477 16.3884158,14.367247 16.7031785,14.1801765 C17.0165,13.9936824 17.345675,13.8316892 17.683209,13.6941966 C18.0201665,13.5572806 18.3672126,13.4440006 18.7197354,13.3549331 C19.0702404,13.2664422 19.427375,13.2010107 19.7865274,13.1583506 C20.0260583,13.1301026 20.2670305,13.111655 20.5080028,13.1035842 C20.7504162,13.0955133 20.9934061,13.097531 21.2355313,13.1099255 C21.537323,13.1252025 21.8388265,13.1566211 22.1380241,13.2038932 C22.1844314,13.2113875 22.2319917,13.2180171 22.2801285,13.2240703 C22.3761138,13.2358883 22.4677755,13.2203231 22.5548253,13.1773747 C22.5983501,13.1560446 22.640722,13.134138 22.6825175,13.111655 C23.2964777,12.7819036 23.7043434,12.5585143 23.9934524,12.4068978 C24.1687049,12.3152361 24.3001443,12.2495164 24.402471,12.1982089 C24.7082981,12.0298743 24.7774768,11.9728019 24.8238841,11.9004526 C24.8700032,11.8281033 24.8936392,11.7407653 24.9187164,11.5845369 C24.9504233,11.3700832 24.9850126,10.8890035 25.1922603,8.58189641 C25.2121491,8.40491444 25.1397998,8.22793246 24.9345699,7.98234835 C24.72934,7.73676424 24.3912295,7.42286623 23.7230793,7.00433557 C23.0549291,6.5858049 22.0567392,6.06235332 21.1995007,5.64785807 C20.3422623,5.23336282 19.6256871,4.92753566 19.1546959,4.74623002 C18.6839931,4.56521262 18.458586,4.50871675 18.3176346,4.47672163 C18.1766832,4.44443828 18.1204755,4.43636744 18.0561971,4.44040286 C17.9916303,4.44443828 17.919281,4.46057995 17.2753434,4.63352651 C16.6314057,4.80676131 15.4158796,5.13680099 14.0029062,5.72827822 C12.5902211,6.32004369 10.9803769,7.1732467 9.72074949,7.92988789 C8.46083382,8.68652908 7.55113493,9.34660844 6.95158687,9.8054933 C6.35175056,10.2643782 6.06206507,10.5220685 5.80033928,10.7434401 C5.53890174,10.9648117 5.30542389,11.1498645 5.18061412,11.3107048 C5.07309901,11.4493503 5.04629229,11.5701247 5.06156924,11.6753338 C5.09702328,14.4344079 5.15726634,14.6307023 5.28294083,14.7993251 C5.33655427,14.8708097 5.40169747,14.9373941 5.51267151,15.0279028 L6.16525652,15.5058118 Z"/>
    <path fill="#F00058" d="M25.1922603,8.58189641 C25.2121491,8.40491444 25.1397998,8.22793246 24.9345699,7.98234835 C24.72934,7.73676424 24.3912295,7.42286623 23.7230793,7.00433557 C23.0549291,6.5858049 22.0567392,6.06235332 21.1995007,5.64785807 C20.3422623,5.23336282 19.6256871,4.92753566 19.1546959,4.74623002 C18.6839931,4.56521262 18.458586,4.50871675 18.3176346,4.47672163 C18.1766832,4.44443828 18.1204755,4.43636744 18.0561971,4.44040286 C17.9916303,4.44443828 17.919281,4.46057995 17.2753434,4.63352651 C16.6314057,4.80676131 15.4158796,5.13680099 14.0029062,5.72827822 C12.5902211,6.32004369 10.9803769,7.1732467 9.72074949,7.92988789 C8.46083382,8.68652908 7.55113493,9.34660844 6.95158687,9.8054933 C6.35175056,10.2643782 6.06206507,10.5220685 5.80033928,10.7434401 C5.53890174,10.9648117 5.30542389,11.1498645 5.18061412,11.3107048 C5.07309901,11.4493503 5.04629229,11.5701247 5.06156924,11.6753338 C5.06387519,11.6923402 5.06733413,11.7090584 5.07194603,11.7254883 C5.10422939,11.8422273 5.18464954,11.9387891 5.51872464,12.2123329 C5.85279974,12.4861649 6.44024155,12.936979 7.20898899,13.5123145 C7.97773644,14.0879383 8.92778953,14.7883719 9.76081544,15.359672 C10.5941296,15.9312604 11.3104166,16.3740035 11.7450889,16.5953751 C12.1797613,16.8167467 12.332819,16.8167467 12.5340135,16.7363266 C12.735208,16.6559064 12.9848275,16.4947779 13.5322034,16.0802826 C14.0795792,15.6657874 14.9247114,14.9976372 15.939043,14.2891328 C16.9533745,13.5809166 18.1366172,12.8323463 19.2354043,12.1763024 C20.3341915,11.5202584 21.3482348,10.9567409 22.2861816,10.4615372 C23.2238402,9.96662185 24.0854023,9.54002034 24.5722468,9.23794035 C25.0593796,8.93614861 25.1720832,8.75916663 25.1922603,8.58189641 Z"/>
    <path fill="#000" d="M24.506481,12.1400517 C24.725237,12.0153675 24.7832777,11.9637582 24.8238841,11.9004526 C24.8700032,11.8281033 24.8936392,11.7407653 24.9187164,11.5845369 C25.129423,11.8618279 25.1775598,12.0269918 25.2078254,12.2068563 C25.2493326,12.4530169 25.2574035,12.7268489 25.2291555,13.1413441 C25.2009076,13.5558394 25.1366291,14.1112861 25.0239256,14.7511884 C24.9933717,14.9247114 24.9593589,15.1045758 24.9233284,15.2827108 L24.9233284,15.2827108 C25.5156703,15.723148 25.9973265,16.2705239 26.3129539,16.8628658 C26.6282932,17.4552078 26.7750095,18.0884804 26.7750095,18.6762105 L26.7750095,18.6762105 L26.7750095,22.8765059 C26.7750095,23.8594188 25.986085,24.9409113 24.8786505,25.7082175 C23.771216,26.4752355 22.3452717,26.9274907 20.7971117,26.9274907 C19.2486636,26.9274907 17.8230075,26.4752355 16.715573,25.7082175 C15.7686906,25.0524618 15.0547096,24.1666872 14.8673508,23.3094487 L14.8673508,23.3094487 L14.2337899,23.6481357 L13.7065911,23.9300386 C13.0934956,24.2606548 12.8438761,24.3681699 12.6588233,24.4500313 C12.4835707,24.5272807 12.3659671,24.5817589 12.2287628,24.612601 C12.1232654,24.6365253 12.00595,24.6466139 11.841939,24.6431549 C11.4634743,24.6350841 10.8356783,24.5546639 10.0245589,24.2505663 C9.21372783,23.9467568 8.21957338,23.419558 7.41047173,22.7384369 C6.60165833,22.0570274 5.97760951,21.2219838 5.62162784,20.3664748 C5.45905808,19.9756156 5.35211946,19.5801445 5.28322908,19.1673787 C5.2696816,19.087535 5.25757534,19.0074031 5.2469103,18.9272712 C5.22500374,18.7667192 5.20857381,18.6055906 5.19704404,18.4438856 C5.19099091,18.3631772 5.18666725,18.2821806 5.18349656,18.2014722 C5.17340801,18.006619 5.16793137,17.8062893 5.16562542,17.5999064 C5.16476069,17.5416811 5.16447244,17.4828792 5.1641842,17.4237891 L5.1641842,17.4237891 L5.19387336,16.5604976 C5.2345158,16.0520347 5.32444801,15.5308891 5.51267151,15.0279028 L5.51267151,15.0279028 L6.16525652,15.5058118 C6.00066905,16.039352 5.94619088,16.6210289 5.9378318,17.2003998 C5.93293164,17.5281336 5.93898477,17.8541378 5.95397348,18.1524706 C5.96896218,18.4508035 5.99490416,18.7280944 6.03641133,18.9898202 C6.11942568,19.5132718 6.26268308,19.9750391 6.51374383,20.4494892 C6.76480458,20.9242275 7.11675083,21.3957951 7.54709951,21.8195141 C7.76241798,22.0313737 7.99676056,22.2302622 8.24955078,22.4170445 C8.502341,22.6038268 8.77127289,22.7770616 9.04193425,22.9327135 C9.58325698,23.243729 10.1271739,23.4795128 10.5707818,23.6242115 C11.0141015,23.7686218 11.3746951,23.8323238 11.6338267,23.8574011 C11.7632483,23.8700838 11.870187,23.8729663 11.9385008,23.8712368 C12.0065265,23.8697956 12.0350627,23.8648954 12.0586987,23.859707 C12.0866584,23.8533657 12.1195182,23.8427006 12.2022443,23.8072466 C12.2437515,23.7896637 12.2967885,23.7657394 12.3584727,23.7386444 C12.4204452,23.7112612 12.4841472,23.6833015 12.5579378,23.6498652 C12.6879359,23.5904869 12.8536764,23.5141022 13.2036049,23.3235727 L13.2036049,23.3235727 L13.8109356,22.9929565 L14.8189258,22.454228 L14.8189258,18.6762105 L14.8189258,18.6762105 L14.8258583,18.4538458 C14.8583071,17.9308018 15.0053477,17.381165 15.2812695,16.8628658 C15.5966088,16.2705239 16.0782649,15.723148 16.6697422,15.2832873 C17.2609311,14.8437148 17.9584823,14.5122339 18.6739045,14.3015273 C19.3893268,14.091109 20.1197377,14.0000238 20.7971117,14.0000238 C21.4741975,14.0000238 22.2046085,14.091109 22.9200307,14.3015273 C23.3688271,14.4335432 23.8107055,14.6134076 24.2234713,14.8376616 C24.2534487,14.6776861 24.2811201,14.5200165 24.3056209,14.3701294 C24.3549107,14.064014 24.3923824,13.7826876 24.4191891,13.5350858 C24.4459959,13.287484 24.4621375,13.073895 24.4693436,12.9046956 C24.4765498,12.7354962 24.474532,12.607804 24.4667494,12.5034596 C24.4589669,12.3991152 24.4419604,12.3008239 24.4321601,12.2662346 C24.4269717,12.2492282 24.4229363,12.2368337 24.4065064,12.205415 C24.4050652,12.2031091 24.4039122,12.2005149 24.402471,12.1982089 L24.402471,12.1982089 Z"/>
    <path fill="#FFF" d="M25.8722285,18.6762105 C25.8722285,19.2561579 25.6765106,19.8361054 25.3617479,20.3252559 C24.9423525,20.9772644 24.3113858,21.4675679 23.6146994,21.8128845 C22.7439135,22.2446744 21.7705126,22.4496161 20.7971117,22.4496161 C19.8237109,22.4496161 18.85031,22.2446744 17.9795241,21.8128845 C17.2825495,21.4675679 16.6515828,20.9772644 16.2321874,20.3252559 C15.9174246,19.8361054 15.721995,19.2561579 15.721995,18.6762105 C15.721995,18.096263 15.9174246,17.5163156 16.2321874,17.027165 C16.6515828,16.3751565 17.2825495,15.884853 17.9795241,15.5395364 C18.85031,15.1077465 19.8237109,14.9028048 20.7971117,14.9028048 C21.7705126,14.9028048 22.7439135,15.1077465 23.6146994,15.5395364 C24.3113858,15.884853 24.9423525,16.3751565 25.3617479,17.027165 C25.6765106,17.5163156 25.8722285,18.096263 25.8722285,18.6762105 Z"/>
    <path fill="#FD8C03" d="M17.9331168,19.4207454 C18.0680151,19.4954007 18.2498972,19.5106776 18.4225555,19.4847356 C18.5952138,19.4585054 18.7589366,19.3910562 19.0128798,19.2097506 C19.266823,19.028445 19.6112749,18.7335711 19.9894513,18.5015344 C20.367916,18.2694978 20.7801053,18.1005867 21.1842238,18.0149781 C21.588054,17.9293696 21.9838134,17.9267754 22.2933877,17.9630942 C22.602962,17.9994129 22.8266396,18.0743564 23.0255281,18.135176 C23.2247049,18.1962838 23.3993809,18.2435558 23.5345675,18.1936896 C23.6700423,18.1435351 23.7657394,17.9968187 23.7591098,17.8100365 C23.7524802,17.6235424 23.6432356,17.3972707 23.347497,17.1326624 C23.0514701,16.867766 22.5692375,16.564533 21.9817957,16.3884158 C21.3943539,16.2125868 20.7019911,16.1638735 20.1033078,16.2520762 C19.5046245,16.340279 18.9996205,16.5653977 18.6272089,16.8360591 C18.2545091,17.1064322 18.0146899,17.4223479 17.8532731,17.7048273 C17.6921446,17.9873067 17.6094185,18.2360615 17.584053,18.4594508 C17.5583992,18.6828401 17.5898178,18.8805756 17.6497727,19.0463161 C17.7097275,19.2123448 17.7979302,19.3460901 17.9331168,19.4207454 Z"/>
    <path fill="#63B644" d="M23.7452741,19.0964706 C23.6942548,19.5657323 23.3679623,19.9903161 22.9837327,20.2903783 C22.4723874,20.6893084 21.8581389,20.8683081 21.2081481,20.9147154 C20.3970287,20.9723643 19.5302782,20.8230537 18.9134355,20.3399563 C19.0079796,20.3180498 19.1059827,20.2857664 19.2022562,20.2419533 C19.3365781,20.1811338 19.4683057,20.1007136 19.6130043,19.9972339 C19.7577029,19.8940425 19.9073017,19.7744211 20.0667008,19.6533585 C20.2263881,19.5320077 20.3941463,19.4103686 20.560175,19.3086184 C20.8919441,19.1051179 21.2545554,18.9581134 21.5949719,18.885764 C21.9351001,18.813703 22.2827227,18.811397 22.5401248,18.8416627 C22.7975269,18.8716401 22.9739324,18.9310184 23.1826213,18.9950086 C23.2869657,19.0270037 23.3988045,19.0613048 23.5322615,19.0820584 C23.5962518,19.0918587 23.6680246,19.0990648 23.7452741,19.0964706 Z"/>
    <path fill="#FF82A2" d="M12.4509991 7.58774195C12.4236159 7.43122532 12.4328398 7.32486319 12.4766529 7.22397769 12.5201778 7.1230922 12.598292 7.02739511 12.7135897 6.96657557 12.8291756 6.90546778 12.9819451 6.87866107 13.1326968 6.90373832 13.2831603 6.92910381 13.4316061 7.00606503 13.5396977 7.12856884 13.6477893 7.25107265 13.715815 7.41883082 13.8143945 7.76501217 13.9132623 8.11090529 14.042684 8.63493336 14.1997771 9.34862615 14.3568702 10.0623189 14.5413465 10.9656765 14.6577972 11.5992373 14.7742479 12.2327982 14.8226729 12.5965625 14.8561093 12.9182431 14.8895456 13.2399237 14.9079932 13.5198089 14.8981929 13.6996733 14.8883926 13.8798259 14.8500561 13.9599579 14.7644476 14.0447017 14.6785508 14.1294455 14.5456702 14.218513 14.4084659 14.2487786 14.2712617 14.278756 14.1297337 14.2499316 14.0034827 14.1917062 13.8769435 14.1334809 13.7656812 14.0461429 13.6976556 13.8227536 13.6293417 13.5996525 13.6045527 13.2407884 13.5486333 12.74472 13.4927139 12.2486517 13.4056641 11.6150908 13.2932489 10.975765 13.1811219 10.336151 13.0433411 9.69048384 12.9245845 9.21978096 12.8061161 8.74878984 12.7060953 8.45305123 12.6242339 8.20170223 12.5420843 7.95064148 12.4780941 7.74397034 12.4509991 7.58774195zM9.45037637 11.8491451C9.32585485 11.2173137 9.19182127 10.6719556 9.09612418 10.3269272 9.00071533 9.98189879 8.94364296 9.83748842 8.91943044 9.69682522 8.89521793 9.55616202 8.90357701 9.41924599 8.95978464 9.30221882 9.01570403 9.18519165 9.11918372 9.08776509 9.24601119 9.03271044 9.37312691 8.97765578 9.52301393 8.96497304 9.64897667 8.98284418 9.77493941 9.00042708 9.87668964 9.04827563 9.96085696 9.13676662 10.0450243 9.22496936 10.111897 9.35381455 10.2243122 9.69826644 10.3370157 10.0424301 10.4958383 10.6019122 10.6537962 11.290816 10.8114658 11.9794315 10.9685589 12.7971805 11.0527262 13.2964196 11.1371818 13.7956586 11.1487116 13.9763878 11.1172929 14.1207982 11.0861626 14.2649203 11.0120838 14.3724354 10.9100453 14.4488201 10.8077186 14.5249166 10.6774322 14.5695945 10.5436869 14.5825655 10.4099415 14.5958247 10.272449 14.5773771 10.1608985 14.5240519 10.049348 14.4707267 9.96345116 14.3825239 9.90839651 14.2755853 9.8536301 14.1686467 9.82941758 14.0429722 9.75995071 13.6212708 9.6901956 13.1992812 9.57518614 12.4809765 9.45037637 11.8491451zM15.8684231 6.15257377C15.8410399 5.99259821 15.8502637 5.88393012 15.8937886 5.78073867 15.9373135 5.67783547 16.0151394 5.58040891 16.1304371 5.51785991 16.2457349 5.45559915 16.3985043 5.42850419 16.5489678 5.45444617 16.6997196 5.4806764 16.8478771 5.55965533 16.956257 5.68504158 17.0643486 5.81042783 17.1323742 5.98193317 17.231242 6.33589712 17.330398 6.68957283 17.4603962 7.22541892 17.594718 7.82929064 17.7290398 8.43287413 17.8671088 9.10419502 17.9607882 9.62591713 18.0541794 10.1476392 18.1031809 10.5194743 18.1369055 10.848361 18.17063 11.1772477 18.1896542 11.4631861 18.1798538 11.6473741 18.1700535 11.831274 18.1320053 11.9134236 18.0463968 11.9998969 17.9610765 12.0863701 17.8281958 12.1771671 17.6909916 12.207721 17.5537873 12.2382749 17.4125476 12.2085857 17.2862966 12.1489192 17.1597574 12.0892526 17.0484951 11.9996086 16.9790283 11.8315622 16.9095614 11.6638041 16.8824664 11.4173552 16.8216469 10.9705766 16.7608273 10.5235098 16.6668597 9.87611315 16.5570387 9.22496936 16.4475058 8.57411382 16.3218313 7.91979934 16.2304579 7.50415112 16.1390845 7.08850289 16.0817239 6.91180916 16.0209043 6.71782077 15.9600848 6.52383238 15.8958063 6.31254934 15.8684231 6.15257377zM19.8744419 8.17489551C19.8029573 7.77942439 19.716484 7.38078257 19.6458642 7.10262686 19.5752443 6.82475939 19.5204779 6.66708978 19.4982831 6.51604979 19.4763765 6.36500979 19.4870416 6.22002293 19.5455552 6.09896034 19.6037805 5.97760951 19.7098544 5.88047119 19.8384113 5.8297402 19.9672565 5.77900921 20.1185848 5.77497379 20.245124 5.80149226 20.3716632 5.82801073 20.4734134 5.88537134 20.556716 5.98452737 20.6400186 6.08397164 20.7048736 6.22521133 20.7824113 6.46762475 20.8596608 6.71032642 20.949593 7.05420182 21.0536491 7.51222196 21.1577053 7.97053033 21.2758855 8.54269519 21.3392992 8.92548357 21.4024247 9.30827195 21.411072 9.50139561 21.3773474 9.65272385 21.3433346 9.80434033 21.2669499 9.91444964 21.1628937 9.9891049 21.0585493 10.0637602 20.9268217 10.1032496 20.7916351 10.1087263 20.6567368 10.1144912 20.5186678 10.0865315 20.4071173 10.0228295 20.2955667 9.9591275 20.2108229 9.85968323 20.1572095 9.74265606 20.1035961 9.62534064 20.0814012 9.49044233 20.0419118 9.22669883 20.0027106 8.96295533 19.9459264 8.57036664 19.8744419 8.17489551z"/>
  </g>
</svg>
