<svg xmlns="http://www.w3.org/2000/svg" width="100" height="100" viewBox="0 0 100 100">
  <g fill="none" fill-rule="evenodd">
    <path fill="#FFF" d="M100,49.9998 C100,43.4558 98.698,36.9118 96.194,30.8658 C93.689,24.8198 89.982,19.2718 85.355,14.6448 C80.728,10.0168 75.18,6.3108 69.134,3.8058 C63.088,1.3018 56.544,-0.0002 50,-0.0002 C43.456,-0.0002 36.911,1.3018 30.865,3.8058 C24.819,6.3108 19.272,10.0168 14.644,14.6448 C10.017,19.2718 6.31,24.8198 3.806,30.8658 C1.301,36.9118 0,43.4558 0,49.9998 C0,56.5438 1.301,63.0878 3.806,69.1338 C6.31,75.1798 10.017,80.7278 14.644,85.3558 C19.272,89.9828 24.819,93.6898 30.865,96.1938 C36.911,98.6978 43.456,99.9998 50,99.9998 C56.544,99.9998 63.088,98.6978 69.134,96.1938 C75.18,93.6898 80.728,89.9828 85.355,85.3558 C89.982,80.7278 93.689,75.1798 96.194,69.1338 C98.698,63.0878 100,56.5438 100,49.9998 Z"/>
    <path fill="#0657F9" d="M37.046,10.5738 C41.704,9.0428 46.682,8.3428 51.613,8.5318 C56.545,8.7208 61.431,9.7998 65.978,11.6998 C70.526,13.5998 74.735,16.3218 78.336,19.6798 C83.099,24.1228 86.797,29.6798 89.015,35.8958 C91.234,42.1128 91.973,48.9888 91.117,55.5348 C90.262,62.0808 87.812,68.2978 84.106,73.6438 C80.4,78.9898 75.437,83.4638 69.608,86.5638 C63.779,89.6628 57.082,91.3868 50.481,91.4868 C43.88,91.5868 37.374,90.0638 31.547,87.1718 C25.721,84.2798 20.573,80.0198 16.664,74.6988 C12.755,69.3778 10.085,62.9958 9.025,56.4838 C7.965,49.9708 8.515,43.3268 10.546,37.1288 C12.081,32.4428 14.463,28.0128 17.515,24.1738 L12.876,24.1738 L12.876,16.5058 L31.053,16.5058 L31.053,33.4798 L23.385,33.4798 L23.385,28.8418 C20.885,31.9858 18.933,35.6148 17.676,39.4548 C16.013,44.5348 15.565,49.9848 16.426,55.3028 C17.496,61.9178 20.59,68.3278 25.208,73.2678 C30.732,79.1758 38.436,82.9818 46.456,83.8148 C54.475,84.6478 62.81,82.5088 69.429,77.9018 C76.048,73.2948 80.953,66.2198 82.944,58.4058 C84.935,50.5918 84.012,42.0388 80.422,34.8188 C76.832,27.5988 70.574,21.7138 63.091,18.6218 C55.608,15.5288 46.899,15.2308 39.387,17.6988 L37.046,10.5738 Z"/>
    <path fill="#000" d="M56.9072379,27.9364423 C65.3874299,27.9472975 72.2643246,34.7529114 72.2643246,43.1523339 C72.2643246,50.8627662 66.2716297,57.4321184 58.5460065,58.2539259 C57.7372635,65.9030579 51.0809351,71.8459973 43.2824347,71.8364307 C34.8015977,71.8255639 27.9253479,65.01995 27.9253479,56.6205275 C27.9253479,48.9100952 33.9180428,42.340743 41.6436661,41.5189355 C42.4736917,33.8698035 49.1087374,27.9364423 56.9072379,27.9364423 Z M55.0498378,58.3580088 L31.5259953,58.3580088 C32.3863327,64.1336494 37.3922838,68.4067933 43.2824347,68.4067933 C49.1809696,68.4067933 54.1875657,64.1336494 55.0498378,58.3580088 L55.0498378,58.3580088 Z M41.5385424,44.9804886 C36.3655543,45.7595136 32.3024917,49.7932031 31.5259953,54.928383 L31.5303479,54.8964423 L41.5385424,54.8964557 Z M55.187208,44.8444785 L45.0024645,44.8444785 L45.0024645,54.8964557 L55.187208,54.8964557 L55.187208,44.8444785 Z M68.6636772,44.8444785 L58.6511301,44.8444785 L58.6511301,54.7713009 C63.8131544,53.9916373 67.876217,49.968803 68.6636772,44.8444785 L68.6636772,44.8444785 Z M56.9072379,31.3660681 C51.0087029,31.3660681 46.0021069,35.6385735 45.1398347,41.4148526 L45.1398347,41.4148526 L68.6636772,41.4148526 C67.8033399,35.6385735 62.7973888,31.3660681 56.9072379,31.3660681 Z"/>
  </g>
</svg>
