<svg width="32" height="32" viewBox="0 0 32 32" fill="none" xmlns="http://www.w3.org/2000/svg">
<circle cx="14.5" cy="14.5" r="14.5" fill="black"/>
<path d="M16.239 21C15.5151 21 14.8455 20.8977 14.2302 20.6931C13.6149 20.4764 13.0659 20.1694 12.5833 19.7722C12.1128 19.375 11.7146 18.8995 11.3889 18.3458C11.0752 17.7801 10.852 17.1542 10.7193 16.4681H9V15.15H10.5745C10.5624 15.0657 10.5564 14.9755 10.5564 14.8792V14.1931C10.5685 14.0606 10.5745 13.9523 10.5745 13.8681H9V12.55H10.7012C10.8339 11.8398 11.0631 11.2019 11.3889 10.6361C11.7267 10.0704 12.1369 9.59491 12.6195 9.20972C13.1142 8.8125 13.6752 8.51157 14.3026 8.30694C14.93 8.10231 15.6056 8 16.3295 8C17.162 8 17.8557 8.10833 18.4107 8.325C18.9657 8.54167 19.4363 8.8125 19.8223 9.1375L18.9175 10.8708C18.5072 10.5579 18.097 10.3412 17.6868 10.2208C17.2887 10.1005 16.8423 10.0403 16.3476 10.0403C15.4669 10.0403 14.7309 10.2569 14.1397 10.6903C13.5485 11.1236 13.1685 11.7435 12.9996 12.55H18.2659L17.6325 13.8681H12.8548C12.8548 13.9764 12.8487 14.0847 12.8367 14.1931V14.825C12.8487 14.9333 12.8548 15.0417 12.8548 15.15H17.2706L16.6372 16.4681H12.9996C13.1685 17.2625 13.5425 17.8764 14.1216 18.3097C14.7128 18.7431 15.4427 18.9597 16.3114 18.9597C16.8543 18.9597 17.3249 18.8935 17.723 18.7611C18.1332 18.6167 18.4831 18.4361 18.7727 18.2194L19.8223 19.8625C19.388 20.2356 18.8752 20.5185 18.284 20.7111C17.7049 20.9037 17.0232 21 16.239 21Z" fill="white"/>
<path fill-rule="evenodd" clip-rule="evenodd" d="M14.5 25.375C20.5061 25.375 25.375 20.5061 25.375 14.5C25.375 8.4939 20.5061 3.625 14.5 3.625C8.4939 3.625 3.625 8.4939 3.625 14.5C3.625 20.5061 8.4939 25.375 14.5 25.375ZM14.5 29C22.5081 29 29 22.5081 29 14.5C29 6.49187 22.5081 0 14.5 0C6.49187 0 0 6.49187 0 14.5C0 22.5081 6.49187 29 14.5 29Z" fill="#69E2DC"/>
<circle cx="25" cy="25" r="7" fill="#69E2DC"/>
<path d="M22.5924 29H21V21H22.5924V29Z" fill="black"/>
<path d="M23.9303 29V21H26.3676C27.1909 21 27.8156 21.1868 28.2417 21.5604C28.6714 21.9304 28.8863 22.4744 28.8863 23.1923C28.8863 23.5989 28.7978 23.9487 28.6209 24.2418C28.4439 24.5348 28.202 24.7491 27.8951 24.8846C28.2489 24.9872 28.5216 25.1941 28.7129 25.5055C28.9043 25.8132 29 26.1941 29 26.6484C29 27.4249 28.7888 28.011 28.3663 28.4066C27.9474 28.8022 27.339 29 26.541 29H23.9303ZM25.5227 25.522V27.6593H26.541C26.8262 27.6593 27.0429 27.5696 27.1909 27.3901C27.339 27.2106 27.413 26.956 27.413 26.6264C27.413 25.9084 27.1566 25.5403 26.6439 25.522H25.5227ZM25.5227 24.3462H26.3514C26.9761 24.3462 27.2884 24.0183 27.2884 23.3626C27.2884 23 27.2162 22.7399 27.0718 22.5824C26.9273 22.4249 26.6926 22.3462 26.3676 22.3462H25.5227V24.3462Z" fill="black"/>
</svg>
