<svg width="32" height="32" viewBox="0 0 32 32" fill="none" xmlns="http://www.w3.org/2000/svg">
<circle cx="14.5" cy="14.5" r="14.5" fill="white"/>
<path d="M15.4717 22.1134C14.6323 22.1134 13.8559 21.9948 13.1424 21.7575C12.429 21.5063 11.7924 21.1504 11.2328 20.6898C10.6872 20.2292 10.2256 19.6779 9.84785 19.0358C9.48412 18.3799 9.22531 17.6541 9.07142 16.8585H7.07788V15.3302H8.90354C8.88955 15.2325 8.88256 15.1278 8.88256 15.0161V14.2206C8.89655 14.067 8.90354 13.9414 8.90354 13.8437H7.07788V12.3154H9.05044C9.20432 11.4919 9.47013 10.7522 9.84785 10.0962C10.2396 9.44021 10.7152 8.88889 11.2748 8.44226C11.8484 7.98167 12.4989 7.63274 13.2264 7.39546C13.9538 7.15819 14.7373 7.03955 15.5767 7.03955C16.542 7.03955 17.3464 7.16517 17.9899 7.4164C18.6334 7.66763 19.179 7.98167 19.6267 8.35852L18.5775 10.3684C18.1018 10.0055 17.6262 9.75424 17.1505 9.61467C16.6888 9.4751 16.1712 9.40531 15.5976 9.40531C14.5764 9.40531 13.723 9.65654 13.0375 10.159C12.352 10.6615 11.9113 11.3803 11.7155 12.3154H17.822L17.0876 13.8437H11.5476C11.5476 13.9693 11.5406 14.095 11.5266 14.2206V14.9533C11.5406 15.079 11.5476 15.2046 11.5476 15.3302H16.6679L15.9334 16.8585H11.7155C11.9113 17.7797 12.345 18.4915 13.0165 18.994C13.702 19.4964 14.5484 19.7477 15.5557 19.7477C16.1852 19.7477 16.7308 19.6709 17.1925 19.5174C17.6681 19.3499 18.0738 19.1405 18.4096 18.8893L19.6267 20.7945C19.1231 21.2271 18.5285 21.5551 17.843 21.7785C17.1715 22.0018 16.3811 22.1134 15.4717 22.1134V22.1134Z" fill="black"/>
<circle cx="25" cy="25" r="7" fill="#69E2DC"/>
<path d="M22.5924 29H21V21H22.5924V29Z" fill="black"/>
<path d="M23.9303 29V21H26.3676C27.1909 21 27.8156 21.1868 28.2417 21.5604C28.6714 21.9304 28.8863 22.4744 28.8863 23.1923C28.8863 23.5989 28.7978 23.9487 28.6209 24.2418C28.4439 24.5348 28.202 24.7491 27.8951 24.8846C28.2489 24.9872 28.5216 25.1941 28.7129 25.5055C28.9043 25.8132 29 26.1941 29 26.6484C29 27.4249 28.7888 28.011 28.3663 28.4066C27.9474 28.8022 27.339 29 26.541 29H23.9303ZM25.5227 25.522V27.6593H26.541C26.8262 27.6593 27.0429 27.5696 27.1909 27.3901C27.339 27.2106 27.413 26.956 27.413 26.6264C27.413 25.9084 27.1566 25.5403 26.6439 25.522H25.5227ZM25.5227 24.3462H26.3514C26.9761 24.3462 27.2884 24.0183 27.2884 23.3626C27.2884 23 27.2162 22.7399 27.0718 22.5824C26.9273 22.4249 26.6926 22.3462 26.3676 22.3462H25.5227V24.3462Z" fill="black"/>
</svg>
