<svg width="80" height="80" viewBox="0 0 80 80" fill="none" xmlns="http://www.w3.org/2000/svg">
<circle cx="40" cy="40" r="40" fill="#090C0F"/>
<path d="M51.1244 15.3723C51.3523 14.8932 51.4424 14.3534 51.3838 13.8202L51.9029 13.5293L56.0811 21.3776C56.4039 21.9824 56.6114 22.6489 56.6918 23.339C56.7722 24.0291 56.7241 24.7293 56.5501 25.3996C56.3759 26.0699 56.0795 26.6972 55.6774 27.2454C55.2755 27.7937 54.7759 28.2523 54.2072 28.5951L30.1422 43.1019C29.7039 43.3661 29.3482 43.7618 29.1198 44.2397C28.8915 44.7175 28.8004 45.2564 28.858 45.7889L28.351 46.0928L24.1759 38.2511C23.5253 37.0291 23.3575 35.5823 23.7096 34.2287C24.0616 32.8751 24.9045 31.7259 26.0531 31.0336L50.1026 16.5137C50.5412 16.2483 50.8966 15.8513 51.1244 15.3723Z" fill="#23B3E5"/>
<path d="M51.1741 35.76C51.4024 35.2821 51.4935 34.7434 51.436 34.2109L51.9428 33.9068L56.1179 41.7487C56.7686 42.9706 56.9363 44.4175 56.5844 45.771C56.2322 47.1245 55.3893 48.2738 54.2409 48.966L30.1759 63.473C29.7373 63.7384 29.382 64.1354 29.1541 64.6144C28.9263 65.0934 28.8361 65.6332 28.8948 66.1664L28.3909 66.4705L24.2096 58.6221C23.5609 57.4007 23.3943 55.9554 23.7463 54.6035C24.0983 53.2515 24.9399 52.1034 26.0868 51.4111L50.1517 36.8978C50.5901 36.6335 50.9456 36.2378 51.1741 35.76Z" fill="#23B3E5"/>
</svg>
