<svg width="25" height="40" viewBox="0 0 25 40" fill="none" xmlns="http://www.w3.org/2000/svg">
<path d="M20.7574 1.39246C20.9288 1.03053 20.9966 0.622678 20.9525 0.219806L21.343 0L24.4859 5.92986C24.7287 6.38677 24.8847 6.89034 24.9452 7.41176C25.0057 7.93319 24.9695 8.46223 24.8386 8.96869C24.7076 9.47512 24.4846 9.94905 24.1822 10.3633C23.8799 10.7776 23.5041 11.1241 23.0763 11.3831L4.97428 22.3438C4.64459 22.5434 4.37708 22.8424 4.20524 23.2034C4.0335 23.5644 3.96499 23.9716 4.00835 24.3739L3.62698 24.6036L0.486398 18.6787C-0.00304169 17.7554 -0.129216 16.6623 0.135656 15.6396C0.400423 14.6169 1.03445 13.7485 1.89842 13.2255L19.9888 2.25488C20.3187 2.05434 20.5861 1.75439 20.7574 1.39246Z" fill="#0C0C0C"/>
<path d="M20.7947 16.7965C20.9665 16.4355 21.035 16.0284 20.9917 15.6261L21.373 15.3964L24.5136 21.3213C25.003 22.2445 25.1292 23.3377 24.8644 24.3604C24.5995 25.383 23.9655 26.2514 23.1017 26.7744L4.99964 37.7352C4.66974 37.9357 4.40244 38.2357 4.23102 38.5976C4.0597 38.9596 3.99182 39.3674 4.03602 39.7703L3.65697 40L0.511759 34.0701C0.0237928 33.1473 -0.10154 32.0553 0.163227 31.0338C0.427994 30.0123 1.06108 29.1449 1.92378 28.6218L20.0257 17.6562C20.3555 17.4565 20.6229 17.1576 20.7947 16.7965Z" fill="#0C0C0C"/>
</svg>
