<svg width="32" height="32" viewBox="0 0 32 32" fill="none" xmlns="http://www.w3.org/2000/svg">
<path d="M7 2H25L30 14L16 30L2 14L7 2Z" fill="#8890B2"/>
<path fill-rule="evenodd" clip-rule="evenodd" d="M8.61967 6.00031H16H23.3803V9.56848H17.9597V11.5797L17.9762 11.5804C20.1937 11.6814 22.1368 11.9475 23.5499 12.3269C24.2567 12.5164 24.8307 12.7318 25.2546 12.9884C25.4665 13.1165 25.6427 13.255 25.7763 13.4203C25.9098 13.5859 26 13.7884 26 14.0047C26 14.221 25.9098 14.4234 25.7763 14.589C25.6427 14.7543 25.4665 14.8929 25.2546 15.021C24.8307 15.2776 24.2567 15.493 23.5502 15.6825C22.1368 16.0619 20.1937 16.3279 17.9762 16.429L17.9609 16.4296V23.6003H16H14.0391V16.4296L14.0238 16.429C11.8063 16.3279 9.86322 16.0619 8.44981 15.6825C7.74326 15.493 7.16929 15.2776 6.74543 15.021C6.53349 14.8929 6.35726 14.7543 6.22372 14.589C6.09019 14.4234 6 14.221 6 14.0047C6 13.7884 6.09019 13.5859 6.22372 13.4203C6.35726 13.255 6.53349 13.1165 6.74543 12.9884C7.16929 12.7318 7.74326 12.5164 8.45012 12.3269C9.86322 11.9475 11.8063 11.6814 14.0238 11.5804L14.0403 11.5797V9.56848H8.61967V6.00031ZM14.0467 15.2758L16 15.3189L17.9533 15.2758C19.8862 15.1907 21.574 14.9804 22.7656 14.6961C23.3615 14.5538 23.8341 14.3917 24.142 14.227C24.2963 14.1448 24.4081 14.0614 24.4738 13.9896C24.5394 13.9175 24.5576 13.8655 24.5576 13.8212C24.5576 13.7768 24.5394 13.7248 24.4738 13.6527C24.4081 13.5809 24.2963 13.4975 24.1423 13.4153C23.8345 13.2507 23.3618 13.0885 22.7662 12.9462C21.5762 12.6625 19.8916 12.4525 17.9616 12.3672V14.3756L17.923 14.3791C17.873 14.3835 17.6955 14.3986 17.3755 14.4121C17.2155 14.4187 17.0198 14.4253 16.7872 14.4301C16.6708 14.4323 16.5453 14.4342 16.4098 14.4354C16.3423 14.4361 16.2725 14.4367 16.1998 14.437H16H15.8002C15.7275 14.4367 15.6577 14.4361 15.5902 14.4354C15.4547 14.4342 15.3291 14.4323 15.2128 14.4301C14.9802 14.4253 14.7845 14.4187 14.6245 14.4121C14.3045 14.3986 14.127 14.3835 14.077 14.3791L14.0384 14.3756V12.3672C12.1084 12.4525 10.4238 12.6625 9.23379 12.9462C8.63815 13.0885 8.16553 13.2507 7.85767 13.4153C7.70374 13.4975 7.59188 13.5809 7.52622 13.6527C7.46057 13.7248 7.44241 13.7768 7.44241 13.8212C7.44241 13.8655 7.46057 13.9175 7.52622 13.9896C7.59188 14.0614 7.70374 14.1448 7.85799 14.227C8.16584 14.3917 8.63847 14.5538 9.23443 14.6961C10.426 14.9804 12.1138 15.1907 14.0467 15.2758Z" fill="white"/>
<circle cx="25" cy="25" r="7" fill="#69E2DC"/>
<path d="M22.5924 29H21V21H22.5924V29Z" fill="black"/>
<path d="M23.9303 29V21H26.3676C27.1909 21 27.8156 21.1868 28.2417 21.5604C28.6714 21.9304 28.8863 22.4744 28.8863 23.1923C28.8863 23.5989 28.7978 23.9487 28.6209 24.2418C28.4439 24.5348 28.202 24.7491 27.8951 24.8846C28.2489 24.9872 28.5216 25.1941 28.7129 25.5055C28.9043 25.8132 29 26.1941 29 26.6484C29 27.4249 28.7888 28.011 28.3663 28.4066C27.9474 28.8022 27.339 29 26.541 29H23.9303ZM25.5227 25.522V27.6593H26.541C26.8262 27.6593 27.0429 27.5696 27.1909 27.3901C27.339 27.2106 27.413 26.956 27.413 26.6264C27.413 25.9084 27.1566 25.5403 26.6439 25.522H25.5227ZM25.5227 24.3462H26.3514C26.9761 24.3462 27.2884 24.0183 27.2884 23.3626C27.2884 23 27.2162 22.7399 27.0718 22.5824C26.9273 22.4249 26.6926 22.3462 26.3676 22.3462H25.5227V24.3462Z" fill="black"/>
</svg>
