<svg xmlns="http://www.w3.org/2000/svg" width="32" height="32" viewBox="0 0 32 32">
  <g fill="none" fill-rule="evenodd">
    <path fill="#FFF" d="M32,15.999936 C32,13.905856 31.58336,11.811776 30.78208,9.877056 C29.98048,7.942336 28.79424,6.166976 27.3136,4.686336 C25.83296,3.205376 24.0576,2.019456 22.12288,1.217856 C20.18816,0.416576 18.09408,-6.4e-05 16,-6.4e-05 C13.90592,-6.4e-05 11.81152,0.416576 9.8768,1.217856 C7.94208,2.019456 6.16704,3.205376 4.68608,4.686336 C3.20544,6.166976 2.0192,7.942336 1.21792,9.877056 C0.41632,11.811776 0,13.905856 0,15.999936 C0,18.094016 0.41632,20.188096 1.21792,22.122816 C2.0192,24.057536 3.20544,25.832896 4.68608,27.313856 C6.16704,28.794496 7.94208,29.980736 9.8768,30.782016 C11.81152,31.583296 13.90592,31.999936 16,31.999936 C18.09408,31.999936 20.18816,31.583296 22.12288,30.782016 C24.0576,29.980736 25.83296,28.794496 27.3136,27.313856 C28.79424,25.832896 29.98048,24.057536 30.78208,22.122816 C31.58336,20.188096 32,18.094016 32,15.999936 Z"/>
    <path fill="#0657F9" d="M11.85472,3.383616 C13.34528,2.893696 14.93824,2.669696 16.51616,2.730176 C18.0944,2.790656 19.65792,3.135936 21.11296,3.743936 C22.56832,4.351936 23.9152,5.222976 25.06752,6.297536 C26.59168,7.719296 27.77504,9.497536 28.4848,11.486656 C29.19488,13.476096 29.43136,15.676416 29.15744,17.771136 C28.88384,19.865856 28.09984,21.855296 26.91392,23.566016 C25.728,25.276736 24.13984,26.708416 22.27456,27.700416 C20.40928,28.692096 18.26624,29.243776 16.15392,29.275776 C14.0416,29.307776 11.95968,28.820416 10.09504,27.894976 C8.23072,26.969536 6.58336,25.606336 5.33248,23.903616 C4.0816,22.200896 3.2272,20.158656 2.888,18.074816 C2.5488,15.990656 2.7248,13.864576 3.37472,11.881216 C3.86592,10.381696 4.62816,8.964096 5.6048,7.735616 L4.12032,7.735616 L4.12032,5.281856 L9.93696,5.281856 L9.93696,10.713536 L7.4832,10.713536 L7.4832,9.229376 C6.6832,10.235456 6.05856,11.396736 5.65632,12.625536 C5.12416,14.251136 4.9808,15.995136 5.25632,17.696896 C5.59872,19.813696 6.5888,21.864896 8.06656,23.445696 C9.83424,25.336256 12.29952,26.554176 14.86592,26.820736 C17.432,27.087296 20.0992,26.402816 22.21728,24.928576 C24.33536,23.454336 25.90496,21.190336 26.54208,18.689856 C27.1792,16.189376 26.88384,13.452416 25.73504,11.142016 C24.58624,8.831616 22.58368,6.948416 20.18912,5.958976 C17.79456,4.969216 15.00768,4.873856 12.60384,5.663616 L11.85472,3.383616 Z"/>
    <path fill="#000" fill-rule="nonzero" d="M21.7264501,20.5532226 L17.3030349,9.86287841 C17.0530669,9.31046132 16.6835417,9.03969639 16.1944593,9.03969639 L15.803227,9.03969639 C15.3141446,9.03969639 14.9446194,9.31046132 14.6946514,9.86287841 L12.7710845,14.5203858 L11.3145896,14.5203858 C10.8781662,14.5220734 10.5243776,14.8746595 10.5212042,15.3110747 L10.5212042,15.3218945 C10.5243776,15.7583096 10.8781662,16.1108957 11.3145896,16.1125833 L12.096953,16.1125833 L10.260349,20.5532226 C10.2256145,20.6506494 10.2072545,20.7531559 10.206014,20.8565818 C10.206014,21.1057071 10.2820898,21.3006659 10.4233877,21.4523118 C10.5646857,21.6039577 10.760285,21.6796964 11.0102866,21.6796964 C11.1744198,21.6774532 11.3338407,21.624466 11.46664,21.5279831 C11.607938,21.4305037 11.7057544,21.2897113 11.7818302,21.1272456 L13.8033484,16.1124148 L15.2053735,16.1124148 C15.6417969,16.1107272 15.9955855,15.7581411 15.9987589,15.3217259 L15.9987589,15.3000526 C15.9955855,14.8636374 15.6417969,14.5110513 15.2053735,14.5093637 L14.455537,14.5093637 L15.9988263,10.6643534 L20.2049015,21.1272793 C20.2809772,21.289745 20.3787937,21.4306385 20.5200917,21.5280168 C20.6529284,21.6245261 20.8124005,21.6775147 20.9765799,21.6796964 C21.2265478,21.6796964 21.4221808,21.6038791 21.5634788,21.4522444 C21.7047767,21.3005648 21.7808525,21.1056397 21.7808525,20.8565144 C21.7849406,20.7526672 21.7663768,20.6491746 21.7264501,20.5532226 L21.7264501,20.5532226 Z"/>
  </g>
</svg>
