<svg width="32" height="32" viewBox="0 0 32 32" fill="none" xmlns="http://www.w3.org/2000/svg">
<circle cx="16" cy="16" r="16" fill="white"/>
<path d="M18.3938 23.0734C17.5545 23.0734 16.778 22.9548 16.0645 22.7175C15.3511 22.4662 14.7145 22.1103 14.1549 21.6497C13.6093 21.1892 13.1477 20.6378 12.77 19.9958C12.4062 19.3398 12.1474 18.614 11.9935 17.8185H9.99998V16.2901H11.8256C11.8117 16.1924 11.8047 16.0878 11.8047 15.9761V15.1805C11.8187 15.027 11.8256 14.9014 11.8256 14.8037H9.99998V13.2754H11.9725C12.1264 12.4519 12.3922 11.7122 12.77 11.0562C13.1617 10.4002 13.6373 9.84885 14.1969 9.40222C14.7705 8.94163 15.421 8.5927 16.1485 8.35542C16.876 8.11815 17.6594 7.99951 18.4988 7.99951C19.4641 7.99951 20.2685 8.12513 20.912 8.37636C21.5555 8.62759 22.1011 8.94163 22.5488 9.31848L21.4996 11.3283C21.0239 10.9654 20.5483 10.7142 20.0726 10.5746C19.6109 10.4351 19.0933 10.3653 18.5197 10.3653C17.4985 10.3653 16.6451 10.6165 15.9596 11.119C15.2741 11.6214 14.8334 12.3402 14.6376 13.2754H20.7441L20.0097 14.8037H14.4697C14.4697 14.9293 14.4627 15.0549 14.4487 15.1805V15.9133C14.4627 16.0389 14.4697 16.1645 14.4697 16.2901H19.59L18.8555 17.8185H14.6376C14.8334 18.7396 15.2671 19.4515 15.9386 19.9539C16.6241 20.4564 17.4705 20.7076 18.4778 20.7076C19.1073 20.7076 19.6529 20.6309 20.1146 20.4773C20.5902 20.3098 20.9959 20.1005 21.3317 19.8493L22.5488 21.7544C22.0452 22.1871 21.4506 22.5151 20.7651 22.7384C20.0936 22.9617 19.3032 23.0734 18.3938 23.0734Z" fill="black"/>
<path fill-rule="evenodd" clip-rule="evenodd" d="M11.8547 3.38381C13.3453 2.89389 14.9382 2.66989 16.5161 2.73037C18.0944 2.79085 19.6579 3.13613 21.1129 3.74413C22.5683 4.35213 23.9152 5.22317 25.0675 6.29773C26.5917 7.71949 27.775 9.49773 28.4848 11.4868C29.1949 13.4763 29.4314 15.6766 29.1574 17.7713C28.8838 19.866 28.0998 21.8555 26.9139 23.5662C25.728 25.2769 24.1398 26.7086 22.2745 27.7006C20.4093 28.6923 18.2662 29.244 16.1539 29.276C14.0416 29.308 11.9597 28.8206 10.095 27.8952C8.23071 26.9697 6.58335 25.6065 5.33247 23.9038C4.08159 22.2011 3.22719 20.1588 2.88799 18.075C2.54879 15.9908 2.72479 13.8648 3.37471 11.8814C3.86591 10.3819 4.62815 8.96429 5.60479 7.73581H4.12031V5.28205H9.93695V10.7137H7.48319V9.22957C6.68319 10.2356 6.05855 11.3969 5.65631 12.6257C5.12415 14.2513 4.98079 15.9953 5.25631 17.6971C5.59871 19.8139 6.58879 21.8651 8.06655 23.4459C9.83423 25.3364 12.2995 26.5544 14.8659 26.8209C17.432 27.0875 20.0992 26.403 22.2173 24.9288C24.3354 23.4545 25.905 21.1905 26.5421 18.69C27.1792 16.1896 26.8838 13.4526 25.735 11.1422C24.5862 8.83181 22.5837 6.94861 20.1891 5.95917C17.7945 4.96941 15.0077 4.87405 12.6038 5.66381L11.8547 3.38381Z" fill="url(#paint0_linear)"/>
<circle cx="25" cy="25" r="7" fill="white"/>
<path d="M22.5924 29H21V21H22.5924V29Z" fill="black"/>
<path d="M23.9303 29V21H26.3676C27.1909 21 27.8156 21.1868 28.2417 21.5604C28.6714 21.9304 28.8863 22.4744 28.8863 23.1923C28.8863 23.5989 28.7978 23.9487 28.6209 24.2418C28.4439 24.5348 28.202 24.7491 27.8951 24.8846C28.2489 24.9872 28.5216 25.1941 28.7129 25.5055C28.9043 25.8132 29 26.1941 29 26.6484C29 27.4249 28.7888 28.011 28.3663 28.4066C27.9474 28.8022 27.339 29 26.541 29H23.9303ZM25.5227 25.522V27.6593H26.541C26.8262 27.6593 27.0429 27.5696 27.1909 27.3901C27.339 27.2106 27.413 26.956 27.413 26.6264C27.413 25.9084 27.1566 25.5403 26.6439 25.522H25.5227ZM25.5227 24.3462H26.3514C26.9761 24.3462 27.2884 24.0183 27.2884 23.3626C27.2884 23 27.2162 22.7399 27.0718 22.5824C26.9273 22.4249 26.6926 22.3462 26.3676 22.3462H25.5227V24.3462Z" fill="black"/>
<defs>
<linearGradient id="paint0_linear" x1="2.04341" y1="13.2972" x2="15.2222" y2="29.5766" gradientUnits="userSpaceOnUse">
<stop stop-color="#004CFF"/>
<stop offset="0.252131" stop-color="#00E0FB"/>
<stop offset="0.505709" stop-color="#87FF70"/>
<stop offset="0.755054" stop-color="#F8F500"/>
<stop offset="1" stop-color="#FF1A00"/>
</linearGradient>
</defs>
</svg>
