<svg width="32" height="35" viewBox="0 0 32 35" fill="none" xmlns="http://www.w3.org/2000/svg">
<circle cx="14.5" cy="14.5" r="14.5" fill="#4460EF"/>
<path d="M15.2788 4.07812C11.5627 4.07812 8.53974 7.07416 8.50871 10.7923V24.1524C8.50871 24.3779 8.69078 24.56 8.91631 24.56H11.4406C13.5283 24.56 15.2229 22.8675 15.2229 20.7777V17.6182H15.2808C19.0197 17.5789 22.0178 14.5146 21.9785 10.7758C21.9391 7.09278 18.9617 4.11537 15.2788 4.07812Z" fill="white"/>
<path d="M14.2546 11.9303C13.7849 11.9303 13.4021 11.1647 13.4021 10.2233C13.4021 9.2798 13.7849 8.51631 14.2546 8.51631C14.7242 8.51631 15.1091 9.2798 15.1091 10.2233C15.1091 11.1647 14.7263 11.9303 14.2546 11.9303Z" fill="#4460EF"/>
<path d="M19.1479 11.9303C18.6783 11.9303 18.2955 11.1647 18.2955 10.2233C18.2955 9.2798 18.6783 8.51631 19.1479 8.51631C19.6176 8.51631 20.0025 9.2798 20.0025 10.2233C20.0004 11.1647 19.6176 11.9303 19.1479 11.9303Z" fill="#4460EF"/>
<path fill-rule="evenodd" clip-rule="evenodd" d="M25.2238 32.2769C25.9446 32.0075 26.6934 31.8117 27.443 31.6344C28.0423 31.4926 28.6422 31.3627 29.24 31.2085C29.6132 31.1122 29.9854 31.0066 30.3336 30.8409C30.612 30.7085 30.8746 30.5379 31.0907 30.3212C31.3065 30.1044 31.4758 29.8417 31.6024 29.5629C31.7609 29.2144 31.8528 28.8406 31.9164 28.4615C31.9928 28.007 32.0285 27.5449 31.9731 27.0925C31.9176 26.64 31.771 26.1968 31.5718 25.7811C31.3727 25.3651 31.121 24.9767 30.8217 24.6293C30.4224 24.1658 29.9386 23.7753 29.4269 23.4324C28.7866 23.0032 28.1028 22.6483 27.4016 22.3326C26.7002 22.0169 25.9813 21.7405 25.2476 21.5065C24.6603 21.3193 24.0637 21.1593 23.4534 21.0703C22.9965 21.0036 22.5319 20.9768 22.071 21.0234C21.6108 21.0701 21.1545 21.19 20.7422 21.3961C20.3299 21.6022 19.9616 21.8943 19.6478 22.2314C19.3334 22.5688 19.0734 22.9514 18.8571 23.3563C18.6405 23.7616 18.4678 24.1894 18.3363 24.6288C18.2048 25.0683 18.1145 25.5197 18.0607 25.9752C17.989 26.5823 17.9822 27.1964 18.0329 27.8048C18.0964 28.565 18.2496 29.3163 18.4249 30.0624C18.6005 30.8083 18.7981 31.5494 19.0987 32.2529C19.3391 32.8154 19.6452 33.3543 20.0491 33.8176C20.3012 34.1069 20.5916 34.3668 20.9183 34.5705C21.1796 34.7335 21.4641 34.8603 21.763 34.9319C21.9875 34.9857 22.2201 35.008 22.4514 34.9975C22.6825 34.987 22.9124 34.9435 23.1301 34.8673C23.4197 34.7657 23.6882 34.6059 23.9236 34.4088C24.2184 34.162 24.4616 33.8566 24.6626 33.5293C24.9041 33.1365 25.0847 32.7123 25.2238 32.2769Z" fill="white"/>
<path fill-rule="evenodd" clip-rule="evenodd" d="M22.0491 34.0226L21.6693 33.9012L21.2958 33.683L20.9177 33.3611L20.6064 32.9895L20.3218 32.5474L20.0729 32.046L19.8383 31.4207L19.5577 30.5515L19.2976 29.5858L19.2127 29.232L19.0854 28.4711L19.0357 28.0742L18.9804 27.3338L18.9947 26.5964L19.0854 25.8686L19.2378 25.191L19.3382 24.7652L19.5577 24.1614L19.8237 23.6686L20.4049 22.8803L20.7368 22.5945L21.1003 22.3368L21.4227 22.1745L21.8826 22.0386L22.7093 21.9813L23.4145 22.0549L24.2468 22.2222L25.1733 22.4939L26.1504 22.8427L27.1264 23.2585L27.2195 23.2901L28.1631 23.7595L28.995 24.2696L29.6408 24.7941L29.814 24.9184L30.4203 25.607L30.5553 25.8255L30.8731 26.5602L30.9643 26.8425L31.0262 27.1497L31.0522 27.4642V27.8072L31.0274 28.1073L30.9049 28.721L30.8221 28.9936L30.7202 29.232L30.5781 29.4727L30.4203 29.6712L30.256 29.8065L29.7914 30.0596L29.2484 30.2436L28.4651 30.4489L27.7087 30.6341L26.7999 30.8512L26.1363 31.0325L25.8857 31.0928L25.0263 31.366L24.6213 31.5205L24.4451 31.5853L24.3947 31.8313L24.2906 32.1336L24.1978 32.3906L24.0967 32.6102L23.854 33.0686L23.5576 33.4492L23.2368 33.7313L22.7928 33.964L22.4169 34.0373L22.0491 34.0226Z" fill="url(#paint0_linear)"/>
<path d="M24.0664 25.4611L23.9616 25.6058L24.0506 26.3376L24.1329 26.1672L24.0664 25.4611Z" fill="#FBF100"/>
<path d="M22.7094 21.9722L22.1508 22.0065L22.4265 22.105L22.9162 22.0708L22.7094 21.9722Z" fill="#A40000"/>
<path d="M23.9684 24.7756L23.8307 24.8958L23.9616 25.6057L24.0663 25.461L23.9684 24.7756Z" fill="#FFAE00"/>
<path d="M22.9163 22.0708L22.4265 22.105L22.7027 22.3228L23.1233 22.2841L22.9163 22.0708Z" fill="#A80000"/>
<path d="M23.8415 24.1303L23.6612 24.2279L23.8307 24.8959L23.9684 24.7757L23.8415 24.1303Z" fill="#FF7300"/>
<path d="M23.1231 22.284L22.7025 22.3228L22.9714 22.6544L23.3247 22.6068L23.1231 22.284Z" fill="#B60000"/>
<path d="M23.6889 23.5428L23.4575 23.6204L23.6611 24.2277L23.8414 24.1302L23.6889 23.5428Z" fill="#FF3F00"/>
<path d="M23.3248 22.6068L22.9715 22.6545L23.2255 23.0911L23.5151 23.0304L23.3248 22.6068Z" fill="#D60000"/>
<path d="M23.515 23.0302L23.2254 23.0909L23.4574 23.6204L23.6888 23.5428L23.515 23.0302Z" fill="#FF1300"/>
<path d="M25.1917 27.7555L24.7071 27.8573L24.6835 28.4035L25.1866 28.2719L25.1917 27.7555Z" fill="#16FFE1"/>
<path d="M25.1961 27.1958L24.7202 27.2639L24.7072 27.8574L25.1918 27.7556L25.1961 27.1958Z" fill="#4DFFAA"/>
<path d="M25.1996 26.6071L24.7224 26.6386L24.7204 27.2639L25.1962 27.1958L25.1996 26.6071Z" fill="#80FF77"/>
<path d="M25.2016 26.0052L24.7129 25.998L24.7222 26.6387L25.1994 26.6072L25.2016 26.0052Z" fill="#B7FF40"/>
<path d="M25.2028 25.4062L24.6926 25.3593L24.7129 25.9981L25.2017 26.0053L25.2028 25.4062Z" fill="#EBFF0C"/>
<path d="M25.1733 22.4814L24.2468 22.2149L24.3161 22.3025L25.1799 22.5593L25.1733 22.4814Z" fill="#ED0400"/>
<path d="M25.2028 24.8262L24.6617 24.7399L24.6926 25.3593L25.2029 25.4061L25.2028 24.8262Z" fill="#FFCC00"/>
<path d="M25.1797 22.5595L24.3159 22.3027L24.3849 22.494L25.1858 22.7347L25.1797 22.5595Z" fill="#F10800"/>
<path d="M25.2016 24.2815L24.6209 24.1572L24.6617 24.7399L25.2028 24.8262L25.2016 24.2815Z" fill="#FF9800"/>
<path d="M25.1859 22.7346L24.385 22.4939L24.4517 22.7841L25.1912 23.0028L25.1859 22.7346Z" fill="#FF1300"/>
<path d="M25.1993 23.787L24.5715 23.6274L24.621 24.1571L25.2017 24.2814L25.1993 23.787Z" fill="#FF6C00"/>
<path d="M25.1911 23.0027L24.4517 22.784L24.5144 23.1654L25.1956 23.3568L25.1911 23.0027Z" fill="#FF2900"/>
<path d="M25.1958 23.357L24.5146 23.1656L24.5715 23.6276L25.1993 23.7872L25.1958 23.357Z" fill="#FF4700"/>
<path d="M24.7074 27.8575L24.3503 28.0128L24.3064 28.5871L24.6837 28.4037L24.7074 27.8575Z" fill="#13FCE4"/>
<path d="M24.7202 27.264L24.373 27.3878L24.3502 28.0126L24.7072 27.8574L24.7202 27.264Z" fill="#49FFAD"/>
<path d="M24.7223 26.6386L24.3502 26.7286L24.3731 27.3878L24.7203 27.264L24.7223 26.6386Z" fill="#80FF77"/>
<path d="M24.713 25.998L24.3525 26.0524L24.3739 26.7286L24.7222 26.6387L24.713 25.998Z" fill="#BAFF3C"/>
<path d="M24.6925 25.3593L24.3092 25.3778L24.3524 26.0526L24.7129 25.9981L24.6925 25.3593Z" fill="#F1FC06"/>
<path d="M24.2467 22.215L23.4146 22.0428L23.5515 22.1375L24.316 22.3026L24.2467 22.215Z" fill="#D10000"/>
<path d="M24.6616 24.7398L24.2451 24.7227L24.3092 25.3775L24.6925 25.3591L24.6616 24.7398Z" fill="#FFC100"/>
<path d="M24.3162 22.3025L23.5517 22.1374L23.6886 22.3417L24.3851 22.4939L24.3162 22.3025Z" fill="#D60000"/>
<path d="M24.6211 24.1572L24.1621 24.1062L24.2454 24.7228L24.6618 24.7399L24.6211 24.1572Z" fill="#FF8900"/>
<path d="M24.385 22.4939L23.6884 22.3417L23.8215 22.6503L24.4517 22.7841L24.385 22.4939Z" fill="#E40000"/>
<path d="M24.5714 23.6275L24.0617 23.5451L24.1619 24.1062L24.621 24.1572L24.5714 23.6275Z" fill="#FF5D00"/>
<path d="M24.4518 22.7843L23.8216 22.6505L23.9471 23.0554L24.5145 23.1656L24.4518 22.7843Z" fill="#FF1300"/>
<path d="M24.5146 23.1654L23.9472 23.0552L24.0617 23.545L24.5714 23.6274L24.5146 23.1654Z" fill="#FF3400"/>
<path d="M25.777 27.7084L25.1919 27.7558L25.1867 28.2722L25.788 28.1939L25.777 27.7084Z" fill="#1CFFDB"/>
<path d="M25.7738 27.1837L25.1962 27.1958L25.1919 27.7556L25.777 27.7082L25.7738 27.1837Z" fill="#50FFA7"/>
<path d="M25.7788 26.6337L25.1996 26.6072L25.1963 27.1959L25.774 27.1838L25.7788 26.6337Z" fill="#80FF77"/>
<path d="M25.7913 26.0725L25.2017 26.0051L25.1995 26.6071L25.7786 26.6336L25.7913 26.0725Z" fill="#B4FF43"/>
<path d="M25.8117 25.5157L25.203 25.4062L25.2019 26.0053L25.7914 26.0727L25.8117 25.5157Z" fill="#E4FF13"/>
<path d="M25.8392 24.9776L25.2029 24.8261L25.203 25.406L25.8117 25.5155L25.8392 24.9776Z" fill="#FFD700"/>
<path d="M26.1505 22.8314L25.1733 22.4816L25.1799 22.5595L26.1016 22.8974L26.1505 22.8314Z" fill="#FF1E00"/>
<path d="M25.873 24.4736L25.2018 24.2814L25.203 24.8261L25.8392 24.9776L25.873 24.4736Z" fill="#FFA700"/>
<path d="M26.1017 22.8973L25.18 22.5593L25.1861 22.7346L26.0522 23.0541L26.1017 22.8973Z" fill="#FF1E00"/>
<path d="M25.9121 24.0176L25.1991 23.7871L25.2015 24.2814L25.8727 24.4737L25.9121 24.0176Z" fill="#FF7E00"/>
<path d="M26.0522 23.0542L25.1861 22.7346L25.1914 23.0029L26.0032 23.2979L26.0522 23.0542Z" fill="#FF2900"/>
<path d="M25.9559 23.622L25.1956 23.3569L25.1991 23.7871L25.9121 24.0176L25.9559 23.622Z" fill="#FF5900"/>
<path d="M26.0031 23.2978L25.1914 23.0027L25.1959 23.3568L25.9561 23.6219L26.0031 23.2978Z" fill="#FF3B00"/>
<path d="M24.3716 31.5932L25.1579 31.2959L25.0011 31.3792L24.2034 31.6827L24.3716 31.5932Z" fill="#00CCFF"/>
<path d="M24.5253 31.4573L25.3014 31.1697L25.1579 31.296L24.3716 31.5932L24.5253 31.4573Z" fill="#00DCFE"/>
<path d="M24.6604 31.2782L25.4277 31.0033L25.3013 31.1695L24.5252 31.4572L24.6604 31.2782Z" fill="#09F0EE"/>
<path d="M24.7736 31.0606L25.5338 30.8013L25.4277 31.0035L24.6604 31.2784L24.7736 31.0606Z" fill="#1CFFDB"/>
<path d="M24.862 30.8094L25.6169 30.5684L25.534 30.8013L24.7738 31.0606L24.862 30.8094Z" fill="#33FFC4"/>
<path d="M24.9227 30.5312L25.6744 30.3103L25.6169 30.5682L24.862 30.8093L24.9227 30.5312Z" fill="#4DFFAA"/>
<path d="M24.9542 30.2332L25.7048 30.0341L25.6743 30.3104L24.9227 30.5313L24.9542 30.2332Z" fill="#63FF94"/>
<path d="M24.9557 29.9229L25.7072 29.7466L25.7048 30.0341L24.9543 30.2332L24.9557 29.9229Z" fill="#7DFF7A"/>
<path d="M24.9265 29.6085L25.6813 29.4553L25.7071 29.7466L24.9555 29.9229L24.9265 29.6085Z" fill="#97FF60"/>
<path d="M24.8678 29.2981L25.628 29.1679L25.6814 29.4553L24.9265 29.6084L24.8678 29.2981Z" fill="#B1FF46"/>
<path d="M24.7809 29.0002L25.5483 28.8921L25.628 29.1679L24.8679 29.2981L24.7809 29.0002Z" fill="#C7FF30"/>
<path d="M24.6677 28.7227L25.4443 28.6353L25.5482 28.8922L24.7808 29.0003L24.6677 28.7227Z" fill="#DEFF19"/>
<path d="M23.6462 27.8414L24.4989 27.8198L24.6742 27.8482L23.835 27.872L23.6462 27.8414Z" fill="#FFCC00"/>
<path d="M24.5317 28.4731L25.319 28.4043L25.4445 28.6353L24.668 28.7228L24.5317 28.4731Z" fill="#F1FC06"/>
<path d="M23.835 27.872L24.6742 27.8481L24.8484 27.9233L24.0229 27.9532L23.835 27.872Z" fill="#FFCC00"/>
<path d="M24.3759 28.2578L25.1751 28.205L25.3189 28.4041L24.5317 28.4729L24.3759 28.2578Z" fill="#FFEA00"/>
<path d="M24.0229 27.9532L24.8484 27.9232L25.0169 28.0433L24.2048 28.0829L24.0229 27.9532Z" fill="#FFD000"/>
<path d="M24.2047 28.083L25.0167 28.0433L25.1749 28.205L24.3758 28.2577L24.2047 28.083Z" fill="#FFDB00"/>
<path d="M24.3526 26.0523L24.1329 26.167L24.1664 26.8744L24.374 26.7285L24.3526 26.0523Z" fill="#BEFF39"/>
<path d="M24.3095 25.3775L24.0665 25.4609L24.133 26.167L24.3527 26.0523L24.3095 25.3775Z" fill="#F8F500"/>
<path d="M23.4146 22.0428L22.7093 21.9722L22.9161 22.0707L23.5515 22.1375L23.4146 22.0428Z" fill="#BB0000"/>
<path d="M24.2453 24.7227L23.9684 24.7756L24.0664 25.4609L24.3094 25.3776L24.2453 24.7227Z" fill="#FFB900"/>
<path d="M23.5514 22.1375L22.916 22.0708L23.1231 22.2841L23.6884 22.3418L23.5514 22.1375Z" fill="#BF0000"/>
<path d="M24.1618 24.106L23.8413 24.1301L23.9683 24.7755L24.2451 24.7227L24.1618 24.106Z" fill="#FF7E00"/>
<path d="M23.6886 22.3418L23.1233 22.2841L23.3249 22.6069L23.8217 22.6505L23.6886 22.3418Z" fill="#CD0000"/>
<path d="M24.0617 23.5451L23.6891 23.543L23.8415 24.1303L24.162 24.1063L24.0617 23.5451Z" fill="#FF4E00"/>
<path d="M23.8216 22.6505L23.3248 22.6068L23.5152 23.0303L23.9472 23.0553L23.8216 22.6505Z" fill="#E80000"/>
<path d="M23.9471 23.0553L23.515 23.0304L23.6889 23.543L24.0616 23.5451L23.9471 23.0553Z" fill="#FF2200"/>
<path d="M23.8858 31.7628L24.5254 31.4572L24.3717 31.5931L23.7192 31.9105L23.8858 31.7628Z" fill="#00D0FF"/>
<path d="M24.032 31.568L24.6604 31.2782L24.5251 31.4573L23.8855 31.7628L24.032 31.568Z" fill="#00E4F8"/>
<path d="M24.1545 31.3307L24.7738 31.0603L24.6605 31.2781L24.0322 31.5679L24.1545 31.3307Z" fill="#16FFE1"/>
<path d="M24.2496 31.0574L24.862 30.8094L24.7738 31.0605L24.1546 31.331L24.2496 31.0574Z" fill="#2CFFCA"/>
<path d="M24.3147 30.7542L24.9227 30.5313L24.862 30.8094L24.2496 31.0574L24.3147 30.7542Z" fill="#46FFB1"/>
<path d="M24.3479 30.4291L24.9542 30.2331L24.9226 30.5312L24.3146 30.7542L24.3479 30.4291Z" fill="#63FF94"/>
<path d="M24.3483 30.0905L24.9555 29.9227L24.9541 30.233L24.3479 30.429L24.3483 30.0905Z" fill="#7DFF7A"/>
<path d="M24.3156 29.7474L24.9265 29.6084L24.9555 29.9228L24.3482 30.0906L24.3156 29.7474Z" fill="#9AFF5D"/>
<path d="M24.2505 29.4088L24.8678 29.2981L24.9265 29.6084L24.3155 29.7475L24.2505 29.4088Z" fill="#B7FF40"/>
<path d="M24.1548 29.0834L24.7809 29.0001L24.8679 29.298L24.2506 29.4086L24.1548 29.0834Z" fill="#D1FF26"/>
<path d="M24.0308 28.7802L24.668 28.7226L24.7811 29.0001L24.155 29.0833L24.0308 28.7802Z" fill="#E7FF0F"/>
<path d="M23.8814 28.5074L24.5317 28.4729L24.6679 28.7226L24.0307 28.7802L23.8814 28.5074Z" fill="#FBF100"/>
<path d="M23.711 28.2725L24.376 28.2578L24.5317 28.473L23.8815 28.5075L23.711 28.2725Z" fill="#FFDB00"/>
<path d="M19.491 30.3393L19.5995 30.6924L19.417 29.998L19.3045 29.6301L19.491 30.3393Z" fill="#00B4FF"/>
<path d="M19.2068 29.232L19.3073 29.6431L19.417 29.998L19.2974 29.2785L19.1279 28.6773L19.2068 29.232Z" fill="#16FFE1"/>
<path d="M19.1823 28.895L19.2975 29.2783L19.2445 28.5513L19.1279 28.1521L19.1823 28.895Z" fill="#56FFA0"/>
<path d="M19.1278 28.152L19.2444 28.5512L19.2601 27.8349L19.1433 27.4198L19.1278 28.152Z" fill="#97FF60"/>
<path d="M19.1435 27.4197L19.2603 27.8348L19.3451 27.1475L19.2295 26.7169L19.1435 27.4197Z" fill="#D4FF23"/>
<path d="M19.2293 26.7169L19.3449 27.1475L19.4974 26.5073L19.3844 26.0621L19.2293 26.7169Z" fill="#FFD700"/>
<path d="M19.3845 26.0621L19.4976 26.5074L19.7147 25.9316L19.6056 25.4729L19.3845 26.0621Z" fill="#FF9400"/>
<path d="M19.6057 25.4729L19.7148 25.9317L19.9917 25.4363L19.8877 24.9656L19.6057 25.4729Z" fill="#FF5900"/>
<path d="M19.8875 24.9657L19.9915 25.4364L20.3215 25.0357L20.2237 24.5551L19.8875 24.9657Z" fill="#FF2500"/>
<path d="M24.5761 28.3089L24.5872 28.7153L24.6569 29.4617L24.6473 29.0719L24.5761 28.3089Z" fill="#C1FF36"/>
<path d="M20.2239 24.5551L20.3216 25.0358L20.6962 24.7415L20.6058 24.2532L20.2239 24.5551Z" fill="#DF0000"/>
<path d="M24.4329 27.5532L24.4469 27.9761L24.5872 28.7153L24.5762 28.3089L24.4329 27.5532Z" fill="#FFEA00"/>
<path d="M20.6058 24.2531L20.6962 24.7415L21.1058 24.5629L21.0235 24.0694L20.6058 24.2531Z" fill="#BB0000"/>
<path d="M24.2208 26.8259L24.239 27.2645L24.4469 27.9761L24.433 27.5533L24.2208 26.8259Z" fill="#FFA700"/>
<path d="M21.0233 24.0693L21.1057 24.5628L21.5392 24.5057L21.4656 24.0099L21.0233 24.0693Z" fill="#9F0000"/>
<path d="M23.945 26.1471L23.9689 26.6003L24.2391 27.2646L24.2209 26.826L23.945 26.1471Z" fill="#FF6C00"/>
<path d="M21.4656 24.0098L21.5393 24.5056L21.985 24.5726L21.9204 24.0772L21.4656 24.0098Z" fill="#920000"/>
<path d="M23.6127 25.5359L23.6433 26.0021L23.9688 26.6002L23.9449 26.147L23.6127 25.5359Z" fill="#FF3400"/>
<path d="M21.9202 24.0774L21.9848 24.5728L22.4303 24.7625L22.3748 24.2705L21.9202 24.0774Z" fill="#960000"/>
<path d="M23.2331 25.01L23.2714 25.4872L23.6433 26.0022L23.6127 25.5359L23.2331 25.01Z" fill="#F10800"/>
<path d="M22.3748 24.2705L22.4303 24.7625L22.8631 25.0702L22.8165 24.5843L22.3748 24.2705Z" fill="#A40000"/>
<path d="M22.8165 24.5843L22.8631 25.0702L23.2712 25.4874L23.233 25.0101L22.8165 24.5843Z" fill="#C40000"/>
<path d="M19.0828 28.4878L19.1824 28.8951L19.128 28.1522L19.0274 27.7354L19.0828 28.4878Z" fill="#53FFA4"/>
<path d="M19.0274 27.7353L19.1279 28.1521L19.1435 27.4199L19.0427 26.9935L19.0274 27.7353Z" fill="#97FF60"/>
<path d="M19.0426 26.9935L19.1434 27.4199L19.2293 26.7171L19.129 26.2813L19.0426 26.9935Z" fill="#D7FF1F"/>
<path d="M19.1289 26.2812L19.2292 26.717L19.3843 26.0621L19.2852 25.6173L19.1289 26.2812Z" fill="#FFD300"/>
<path d="M19.2853 25.6174L19.3844 26.0622L19.6054 25.4729L19.5084 25.0198L19.2853 25.6174Z" fill="#FF9100"/>
<path d="M19.5085 25.0198L19.6056 25.4729L19.8876 24.9657L19.7932 24.5051L19.5085 25.0198Z" fill="#FF5200"/>
<path d="M19.7932 24.5051L19.8876 24.9657L20.2239 24.555L20.1328 24.0882L19.7932 24.5051Z" fill="#FF1E00"/>
<path d="M20.1326 24.0881L20.2236 24.555L20.6056 24.2531L20.5184 23.7813L20.1326 24.0881Z" fill="#D60000"/>
<path d="M20.5186 23.7812L20.6058 24.2531L21.0234 24.0694L20.9406 23.5941L20.5186 23.7812Z" fill="#AD0000"/>
<path d="M24.1732 26.3806L24.2207 26.8258L24.4329 27.5532L24.3879 27.1172L24.1732 26.3806Z" fill="#FFA300"/>
<path d="M20.9404 23.594L21.0233 24.0693L21.4655 24.0099L21.3874 23.5327L20.9404 23.594Z" fill="#920000"/>
<path d="M23.8942 25.6934L23.9449 26.1472L24.2208 26.826L24.1732 26.3808L23.8942 25.6934Z" fill="#FF6400"/>
<path d="M21.3874 23.5327L21.4656 24.0099L21.9203 24.0773L21.8471 23.6L21.3874 23.5327Z" fill="#840000"/>
<path d="M23.5582 25.0747L23.6126 25.536L23.9448 26.1471L23.8941 25.6933L23.5582 25.0747Z" fill="#FF2D00"/>
<path d="M21.847 23.6001L21.9202 24.0774L22.3747 24.2704L22.3065 23.7947L21.847 23.6001Z" fill="#890000"/>
<path d="M23.1745 24.5424L23.2332 25.01L23.6128 25.536L23.5583 25.0747L23.1745 24.5424Z" fill="#E40000"/>
<path d="M22.3065 23.7948L22.3747 24.2705L22.8165 24.5843L22.7531 24.1119L22.3065 23.7948Z" fill="#9B0000"/>
<path d="M22.7532 24.1118L22.8165 24.5843L23.233 25.0101L23.1743 24.5425L22.7532 24.1118Z" fill="#BB0000"/>
<path d="M19.1525 28.8213L19.2068 29.232L19.0828 28.4878L19.0281 28.0742L19.1525 28.8213Z" fill="#13FCE4"/>
<path d="M19.4172 29.998L19.5216 30.3203L19.4058 29.6222L19.2976 29.2784L19.4172 29.998Z" fill="#19FFDE"/>
<path d="M19.2976 29.2784L19.4057 29.6222L19.3547 28.917L19.2446 28.5514L19.2976 29.2784Z" fill="#56FFA0"/>
<path d="M19.2445 28.5514L19.3545 28.917L19.3702 28.2225L19.2601 27.8351L19.2445 28.5514Z" fill="#94FF63"/>
<path d="M19.2602 27.835L19.3703 28.2225L19.4531 27.5564L19.345 27.1477L19.2602 27.835Z" fill="#D1FF26"/>
<path d="M19.3451 27.1475L19.4532 27.5562L19.6018 26.9362L19.4976 26.5074L19.3451 27.1475Z" fill="#FFDB00"/>
<path d="M19.4974 26.5074L19.6015 26.9362L19.8129 26.3788L19.7146 25.9317L19.4974 26.5074Z" fill="#FF9C00"/>
<path d="M19.7148 25.9318L19.813 26.379L20.0823 25.8997L19.9917 25.4365L19.7148 25.9318Z" fill="#FF6000"/>
<path d="M19.9917 25.4365L20.0823 25.8998L20.4029 25.5124L20.3216 25.0358L19.9917 25.4365Z" fill="#FF3000"/>
<path d="M24.5872 28.7155L24.5445 29.0856L24.6123 29.809L24.6569 29.4619L24.5872 28.7155Z" fill="#C1FF36"/>
<path d="M20.3213 25.0357L20.4027 25.5123L20.7667 25.2282L20.696 24.7415L20.3213 25.0357Z" fill="#F10800"/>
<path d="M24.4469 27.9763L24.4081 28.3691L24.5445 29.0856L24.5872 28.7155L24.4469 27.9763Z" fill="#FBF100"/>
<path d="M20.696 24.7415L20.7667 25.2283L21.1645 25.0563L21.1055 24.5629L20.696 24.7415Z" fill="#C80000"/>
<path d="M24.2391 27.2646L24.2064 27.6793L24.4083 28.369L24.447 27.9762L24.2391 27.2646Z" fill="#FFAE00"/>
<path d="M21.1056 24.5629L21.1645 25.0563L21.5855 25.0021L21.5392 24.5059L21.1056 24.5629Z" fill="#AD0000"/>
<path d="M23.9686 26.6005L23.9437 27.0356L24.2061 27.6794L24.2389 27.2647L23.9686 26.6005Z" fill="#FF7300"/>
<path d="M21.5391 24.5057L21.5855 25.0019L22.0182 25.0678L21.9848 24.5727L21.5391 24.5057Z" fill="#A40000"/>
<path d="M23.6433 26.0023L23.6279 26.4556L23.9439 27.0355L23.9688 26.6004L23.6433 26.0023Z" fill="#FF3F00"/>
<path d="M21.985 24.5728L22.0183 25.0679L22.4507 25.2526L22.4305 24.7625L21.985 24.5728Z" fill="#A40000"/>
<path d="M23.2713 25.4874L23.2669 25.9562L23.6279 26.4556L23.6433 26.0023L23.2713 25.4874Z" fill="#FF1300"/>
<path d="M22.4305 24.7626L22.4508 25.2527L22.8709 25.5515L22.8633 25.0703L22.4305 24.7626Z" fill="#B60000"/>
<path d="M22.8632 25.0701L22.8707 25.5513L23.2668 25.9561L23.2712 25.4873L22.8632 25.0701Z" fill="#D10000"/>
<path d="M19.5995 30.6924L19.6985 30.9943L19.5214 30.3203L19.417 29.998L19.5995 30.6924Z" fill="#00BCFF"/>
<path d="M19.6987 30.9941L19.7757 31.233L19.6053 30.5847L19.5216 30.3201L19.6987 30.9941Z" fill="#00C4FF"/>
<path d="M19.5216 30.3202L19.6054 30.5848L19.4941 29.9135L19.4058 29.6221L19.5216 30.3202Z" fill="#1CFFDB"/>
<path d="M19.4055 29.622L19.4938 29.9135L19.445 29.2357L19.3544 28.9169L19.4055 29.622Z" fill="#56FFA0"/>
<path d="M19.3545 28.9169L19.445 29.2358L19.4604 28.5686L19.3701 28.2224L19.3545 28.9169Z" fill="#94FF63"/>
<path d="M19.3702 28.2225L19.4605 28.5687L19.5405 27.9291L19.453 27.5565L19.3702 28.2225Z" fill="#CEFF29"/>
<path d="M24.4028 31.8313L24.3035 32.0429L24.1126 32.5878L24.2041 32.3983L24.4028 31.8313Z" fill="#00B0FF"/>
<path d="M19.4531 27.5564L19.5406 27.929L19.6839 27.3339L19.6017 26.9363L19.4531 27.5564Z" fill="#FFE200"/>
<path d="M24.54 31.1998L24.435 31.4363L24.3037 32.0429L24.4031 31.8312L24.54 31.1998Z" fill="#0CF4EB"/>
<path d="M19.6016 26.9363L19.6838 27.3338L19.8874 26.7992L19.8129 26.3789L19.6016 26.9363Z" fill="#FFA300"/>
<path d="M24.6106 30.5199L24.5025 30.7831L24.4349 31.4362L24.5398 31.1998L24.6106 30.5199Z" fill="#46FFB1"/>
<path d="M19.8131 26.3788L19.8876 26.7991L20.1469 26.3398L20.0824 25.8996L19.8131 26.3788Z" fill="#FF6C00"/>
<path d="M24.6123 29.809L24.5038 30.1004L24.5024 30.7832L24.6104 30.52L24.6123 29.809Z" fill="#80FF77"/>
<path d="M20.0821 25.8997L20.1466 26.3399L20.4552 25.9689L20.4028 25.5124L20.0821 25.8997Z" fill="#FF3B00"/>
<path d="M24.5446 29.0854L24.4383 29.4055L24.5039 30.1002L24.6124 29.8089L24.5446 29.0854Z" fill="#BEFF39"/>
<path d="M20.4028 25.5122L20.4552 25.9688L20.8054 25.6971L20.7667 25.2281L20.4028 25.5122Z" fill="#FF1300"/>
<path d="M24.4081 28.369L24.3068 28.7177L24.4382 29.4056L24.5445 29.0855L24.4081 28.369Z" fill="#F8F500"/>
<path d="M20.7669 25.2282L20.8056 25.6971L21.1881 25.533L21.1647 25.0562L20.7669 25.2282Z" fill="#DA0000"/>
<path d="M24.2062 27.6792L24.1124 28.0553L24.3068 28.7176L24.4081 28.369L24.2062 27.6792Z" fill="#FFB600"/>
<path d="M21.1646 25.0562L21.188 25.533L21.5928 25.482L21.5855 25.002L21.1646 25.0562Z" fill="#C40000"/>
<path d="M23.9439 27.0354L23.86 27.4372L24.1124 28.0554L24.2062 27.6793L23.9439 27.0354Z" fill="#FF7E00"/>
<path d="M21.5856 25.0019L21.5928 25.4819L22.0088 25.546L22.0182 25.0677L21.5856 25.0019Z" fill="#B60000"/>
<path d="M23.6279 26.4557L23.5561 26.8805L23.86 27.4373L23.9439 27.0355L23.6279 26.4557Z" fill="#FF4A00"/>
<path d="M22.0183 25.0677L22.0088 25.546L22.4244 25.7241L22.4507 25.2525L22.0183 25.0677Z" fill="#BB0000"/>
<path d="M23.267 25.9564L23.2092 26.4008L23.5562 26.8805L23.628 26.4557L23.267 25.9564Z" fill="#FF1E00"/>
<path d="M22.4507 25.2524L22.4244 25.724L22.8282 26.0115L22.8708 25.5513L22.4507 25.2524Z" fill="#C80000"/>
<path d="M22.8708 25.5515L22.8282 26.0118L23.209 26.4008L23.2668 25.9563L22.8708 25.5515Z" fill="#E40000"/>
<path d="M23.4747 31.5533L24.3237 31.2601L24.1631 31.1215L23.3015 31.4037L23.4747 31.5533Z" fill="#00C4FF"/>
<path d="M23.3014 31.4039L24.163 31.1217L24.0143 30.9449L23.1407 31.2132L23.3014 31.4039Z" fill="#00D0FF"/>
<path d="M23.1409 31.2131L24.0145 30.9448L23.8814 30.7344L22.9968 30.9862L23.1409 31.2131Z" fill="#00E0FB"/>
<path d="M22.9968 30.9863L23.8814 30.7345L23.7672 30.4956L22.8729 30.7287L22.9968 30.9863Z" fill="#0FF8E7"/>
<path d="M22.7441 31.8656L23.4747 31.5533L23.3015 31.4038L22.5554 31.7025L22.7441 31.8656Z" fill="#00B4FF"/>
<path d="M22.5554 31.7027L23.3015 31.4039L23.1409 31.2133L22.38 31.4948L22.5554 31.7027Z" fill="#00C0FF"/>
<path d="M22.9417 31.9801L23.6561 31.6582L23.4747 31.5534L22.7442 31.8657L22.9417 31.9801Z" fill="#00A8FF"/>
<path d="M22.8728 30.7285L23.7671 30.4955L23.6748 30.2341L22.7723 30.4467L22.8728 30.7285Z" fill="#23FFD4"/>
<path d="M22.38 31.4949L23.1409 31.2133L22.9968 30.9864L22.2224 31.2476L22.38 31.4949Z" fill="#00D4FF"/>
<path d="M23.143 32.0428L23.8411 31.7155L23.6561 31.6582L22.9417 31.9801L23.143 32.0428Z" fill="#00A8FF"/>
<path d="M22.2225 31.2475L22.9968 30.9863L22.8729 30.7287L22.0867 30.9668L22.2225 31.2475Z" fill="#06ECF1"/>
<path d="M22.7721 30.4468L23.6747 30.2342L23.6066 29.9569L22.6975 30.1477L22.7721 30.4468Z" fill="#39FFBE"/>
<path d="M23.3428 32.052L24.0249 31.7237L23.841 31.7154L23.1428 32.0427L23.3428 32.052Z" fill="#00A8FF"/>
<path d="M22.0865 30.9666L22.8727 30.7285L22.7722 30.4467L21.9759 30.6595L22.0865 30.9666Z" fill="#1CFFDB"/>
<path d="M22.6977 30.1477L23.6068 29.9568L23.5648 29.6706L22.6511 29.8389L22.6977 30.1477Z" fill="#53FFA4"/>
<path d="M21.9759 30.6597L22.7722 30.4469L22.6976 30.1479L21.8935 30.3338L21.9759 30.6597Z" fill="#36FFC1"/>
<path d="M22.651 29.8391L23.5647 29.6707L23.55 29.3828L22.6337 29.5284L22.651 29.8391Z" fill="#6DFF8A"/>
<path d="M21.8936 30.3338L22.6977 30.1478L22.6511 29.8391L21.8415 29.9973L21.8936 30.3338Z" fill="#50FFA7"/>
<path d="M22.6336 29.5284L23.5499 29.3827L23.5629 29.1004L22.646 29.2238L22.6336 29.5284Z" fill="#87FF70"/>
<path d="M21.8414 29.9971L22.651 29.8389L22.6337 29.5283L21.8211 29.6585L21.8414 29.9971Z" fill="#6AFF8D"/>
<path d="M22.6461 29.2238L23.5629 29.1004L23.6035 28.8311L22.6882 28.9332L22.6461 29.2238Z" fill="#A0FF56"/>
<path d="M21.821 29.6584L22.6336 29.5283L22.6461 29.2237L21.8331 29.3263L21.821 29.6584Z" fill="#87FF70"/>
<path d="M22.6884 28.9331L23.6037 28.831L23.6708 28.5816L22.7593 28.6639L22.6884 28.9331Z" fill="#B7FF40"/>
<path d="M21.8333 29.3264L22.6462 29.2238L22.6884 28.9332L21.8777 29.0094L21.8333 29.3264Z" fill="#A4FF53"/>
<path d="M22.7593 28.6641L23.6708 28.5817L23.763 28.3589L22.8573 28.4235L22.7593 28.6641Z" fill="#D1FF26"/>
<path d="M21.8776 29.0094L22.6883 28.9332L22.7592 28.664L21.9534 28.7157L21.8776 29.0094Z" fill="#BEFF39"/>
<path d="M22.8573 28.4234L23.7631 28.3587L23.878 28.1684L22.9799 28.2179L22.8573 28.4234Z" fill="#E4FF13"/>
<path d="M21.9534 28.7158L22.7592 28.6641L22.8572 28.4236L22.0588 28.4533L21.9534 28.7158Z" fill="#D7FF1F"/>
<path d="M22.0588 28.4531L22.8571 28.4234L22.9797 28.2179L22.1912 28.2288L22.0588 28.4531Z" fill="#EEFF09"/>
<path d="M22.1912 28.2289L22.9798 28.218L23.1239 28.0531L22.3473 28.0488L22.1912 28.2289Z" fill="#FFEA00"/>
<path d="M22.3473 28.0488L23.124 28.0531L23.286 27.9334L22.5231 27.918L22.3473 28.0488Z" fill="#FFD700"/>
<path d="M21.2958 33.683L21.2567 33.6534L20.9186 33.3609L20.9382 33.3737L21.2958 33.683Z" fill="#0000FF"/>
<path d="M20.9381 33.3738L20.9185 33.361L20.6035 32.9894L20.6049 32.9808L20.9381 33.3738Z" fill="#0010FF"/>
<path d="M21.6693 33.9012L21.6098 33.8596L21.2568 33.6535L21.2959 33.6831L21.6693 33.9012Z" fill="#0000F1"/>
<path d="M20.6049 32.9808L20.6035 32.9894L20.3192 32.5476L20.3042 32.5134L20.6049 32.9808Z" fill="#0038FF"/>
<path d="M22.0491 34.0226L21.9689 33.9743L21.6096 33.8596L21.669 33.9012L22.0491 34.0226Z" fill="#0000E8"/>
<path d="M20.3044 32.5133L20.3194 32.5474L20.0728 32.0458L20.0436 31.9826L20.3044 32.5133Z" fill="#0064FF"/>
<path d="M22.427 34.044L22.3259 33.9945L21.969 33.9744L22.0493 34.0226L22.427 34.044Z" fill="#0000ED"/>
<path d="M20.0436 31.9827L20.0728 32.0459L19.8703 31.4966L19.8292 31.4014L20.0436 31.9827Z" fill="#0098FF"/>
<path d="M22.7928 33.9642L22.6715 33.919L22.3258 33.9945L22.4268 34.0439L22.7928 33.9642Z" fill="#0000FF"/>
<path d="M19.8291 31.4016L19.8702 31.4967L19.7168 30.9129L19.6668 30.7836L19.8291 31.4016Z" fill="#00D4FF"/>
<path d="M23.1383 33.7845L22.9977 33.749L22.6717 33.9188L22.793 33.964L23.1383 33.7845Z" fill="#0008FF"/>
<path d="M19.6669 30.7834L19.7169 30.9127L19.617 30.3087L19.561 30.1438L19.6669 30.7834Z" fill="#26FFD1"/>
<path d="M23.454 33.5088L23.2955 33.4884L22.9976 33.749L23.1382 33.7845L23.454 33.5088Z" fill="#002CFF"/>
<path d="M19.561 30.1439L19.617 30.3088L19.5734 29.6994L19.5146 29.4984L19.561 30.1439Z" fill="#5AFF9D"/>
<path d="M23.732 33.1429L23.5577 33.1427L23.2956 33.4884L23.454 33.5088L23.732 33.1429Z" fill="#0054FF"/>
<path d="M19.5146 29.4984L19.5734 29.6994L19.5877 29.1L19.5296 28.8632L19.5146 29.4984Z" fill="#90FF66"/>
<path d="M23.9648 32.6953L23.777 32.7199L23.5576 33.1428L23.7319 33.143L23.9648 32.6953Z" fill="#0088FF"/>
<path d="M19.5295 28.8632L19.5876 29.1L19.6601 28.5261L19.606 28.2546L19.5295 28.8632Z" fill="#C7FF30"/>
<path d="M24.1463 32.1763L23.9477 32.2299L23.7771 32.7198L23.965 32.6952L24.1463 32.1763Z" fill="#00C4FF"/>
<path d="M19.6062 28.2546L19.6603 28.5261L19.7897 27.9927L19.743 27.6886L19.6062 28.2546Z" fill="#FBF100"/>
<path d="M24.2709 31.5986L24.0646 31.6847L23.9478 32.2298L24.1463 32.1762L24.2709 31.5986Z" fill="#16FFE1"/>
<path d="M19.743 27.6885L19.7897 27.9926L19.9732 27.5139L19.9373 27.1803L19.743 27.6885Z" fill="#FFB900"/>
<path d="M24.3345 30.977L24.124 31.0982L24.0644 31.6848L24.2707 31.5987L24.3345 30.977Z" fill="#4DFFAA"/>
<path d="M19.9371 27.1805L19.973 27.5141L20.2064 27.1034L20.1842 26.7442L19.9371 27.1805Z" fill="#FF8600"/>
<path d="M24.3354 30.3271L24.1241 30.4853L24.1241 31.0982L24.3347 30.977L24.3354 30.3271Z" fill="#80FF77"/>
<path d="M20.1845 26.7441L20.2067 27.1033L20.4842 26.7723L20.4786 26.3921L20.1845 26.7441Z" fill="#FF5D00"/>
<path d="M24.2724 29.6663L24.064 29.8622L24.1241 30.4854L24.3354 30.3273L24.2724 29.6663Z" fill="#B7FF40"/>
<path d="M20.4786 26.3921L20.4842 26.7724L20.7989 26.5305L20.8121 26.1347L20.4786 26.3921Z" fill="#FF3800"/>
<path d="M24.1466 29.0117L23.9448 29.2452L24.0639 29.862L24.2723 29.6661L24.1466 29.0117Z" fill="#EBFF0C"/>
<path d="M20.8121 26.1347L20.7989 26.5305L21.1425 26.3852L21.1764 25.9796L20.8121 26.1347Z" fill="#FF1A00"/>
<path d="M23.9611 28.3818L23.7693 28.6515L23.9447 29.2451L24.1466 29.0117L23.9611 28.3818Z" fill="#FFC800"/>
<path d="M21.1765 25.9795L21.1426 26.3851L21.5061 26.341L21.5619 25.9318L21.1765 25.9795Z" fill="#F10800"/>
<path d="M23.7203 27.794L23.5419 28.0976L23.7692 28.6517L23.961 28.3819L23.7203 27.794Z" fill="#FF9400"/>
<path d="M21.5616 25.9318L21.5058 26.3409L21.8792 26.3998L21.9576 25.9936L21.5616 25.9318Z" fill="#E80000"/>
<path d="M23.4309 27.2643L23.2687 27.5984L23.542 28.0975L23.7204 27.7939L23.4309 27.2643Z" fill="#FF6800"/>
<path d="M21.9578 25.9937L21.8794 26.3999L22.2525 26.5606L22.3535 26.1637L21.9578 25.9937Z" fill="#ED0400"/>
<path d="M23.1004 26.8077L22.9568 27.168L23.2687 27.5982L23.4309 27.264L23.1004 26.8077Z" fill="#FF4300"/>
<path d="M22.3534 26.1636L22.2524 26.5605L22.615 26.819L22.7379 26.4375L22.3534 26.1636Z" fill="#FA0F00"/>
<path d="M22.738 26.4375L22.6151 26.819L22.9569 27.1682L23.1005 26.8078L22.738 26.4375Z" fill="#FF2200"/>
<path d="M19.7755 31.2331L19.8292 31.4014L19.6668 30.7835L19.6051 30.5848L19.7755 31.2331Z" fill="#00CCFF"/>
<path d="M19.6054 30.5849L19.6671 30.7836L19.5611 30.144L19.4941 29.9136L19.6054 30.5849Z" fill="#1FFFD7"/>
<path d="M23.576 33.4417L23.454 33.5089L23.1383 33.7847L23.2445 33.731L23.576 33.4417Z" fill="#0018FF"/>
<path d="M19.4939 29.9136L19.5609 30.144L19.5146 29.4985L19.4451 29.2359L19.4939 29.9136Z" fill="#5AFF9D"/>
<path d="M23.868 33.0577L23.7321 33.1429L23.454 33.5088L23.576 33.4416L23.868 33.0577Z" fill="#0044FF"/>
<path d="M19.4452 29.2357L19.5147 29.4982L19.5297 28.863L19.4606 28.5685L19.4452 29.2357Z" fill="#94FF63"/>
<path d="M24.1128 32.5878L23.965 32.6953L23.732 33.143L23.868 33.0577L24.1128 32.5878Z" fill="#007CFF"/>
<path d="M19.4607 28.5684L19.5297 28.863L19.6063 28.2544L19.5407 27.9288L19.4607 28.5684Z" fill="#CAFF2C"/>
<path d="M24.3036 32.0428L24.1463 32.1762L23.9649 32.6952L24.1127 32.5876L24.3036 32.0428Z" fill="#00B8FF"/>
<path d="M19.5406 27.9289L19.6062 28.2545L19.743 27.6885L19.6839 27.3338L19.5406 27.9289Z" fill="#FFEA00"/>
<path d="M24.4349 31.4362L24.2708 31.5986L24.1462 32.1762L24.3036 32.0428L24.4349 31.4362Z" fill="#0FF8E7"/>
<path d="M19.6838 27.3339L19.7429 27.6887L19.9372 27.1805L19.8875 26.7993L19.6838 27.3339Z" fill="#FFAE00"/>
<path d="M24.5026 30.7831L24.3347 30.977L24.2709 31.5987L24.435 31.4362L24.5026 30.7831Z" fill="#49FFAD"/>
<path d="M19.8875 26.799L19.9372 27.1803L20.1844 26.744L20.1468 26.3396L19.8875 26.799Z" fill="#FF7A00"/>
<path d="M24.504 30.1003L24.3355 30.3271L24.3347 30.977L24.5026 30.7832L24.504 30.1003Z" fill="#80FF77"/>
<path d="M20.1469 26.3398L20.1845 26.7442L20.4786 26.3921L20.4555 25.9689L20.1469 26.3398Z" fill="#FF4A00"/>
<path d="M24.4384 29.4056L24.2724 29.6662L24.3355 30.3272L24.504 30.1003L24.4384 29.4056Z" fill="#BAFF3C"/>
<path d="M20.4553 25.9688L20.4784 26.3921L20.812 26.1346L20.8054 25.6971L20.4553 25.9688Z" fill="#FF2500"/>
<path d="M24.3068 28.7175L24.1466 29.0116L24.2723 29.666L24.4383 29.4054L24.3068 28.7175Z" fill="#F1FC06"/>
<path d="M20.8054 25.6972L20.8119 26.1346L21.1763 25.9795L21.188 25.5331L20.8054 25.6972Z" fill="#F10800"/>
<path d="M24.1125 28.0555L23.9612 28.3819L24.1467 29.0118L24.3069 28.7177L24.1125 28.0555Z" fill="#FFC100"/>
<path d="M21.1882 25.533L21.1765 25.9795L21.5619 25.9318L21.593 25.482L21.1882 25.533Z" fill="#DA0000"/>
<path d="M23.8601 27.4371L23.7206 27.7937L23.9612 28.3817L24.1126 28.0553L23.8601 27.4371Z" fill="#FF8900"/>
<path d="M21.5929 25.4819L21.5618 25.9317L21.9578 25.9935L22.0088 25.546L21.5929 25.4819Z" fill="#CD0000"/>
<path d="M23.5561 26.8805L23.431 27.2643L23.7204 27.7939L23.86 27.4373L23.5561 26.8805Z" fill="#FF5900"/>
<path d="M22.0089 25.546L21.9579 25.9935L22.3536 26.1636L22.4246 25.7241L22.0089 25.546Z" fill="#D10000"/>
<path d="M23.2089 26.4008L23.1003 26.8079L23.4308 27.2643L23.556 26.8805L23.2089 26.4008Z" fill="#FF3000"/>
<path d="M22.4244 25.7243L22.3533 26.1637L22.7378 26.4376L22.8282 26.0118L22.4244 25.7243Z" fill="#DF0000"/>
<path d="M22.8282 26.0116L22.7378 26.4374L23.1003 26.8077L23.2089 26.4006L22.8282 26.0116Z" fill="#FA0F00"/>
<path d="M21.8829 22.0292L21.4146 22.1745L21.745 22.1442L22.1506 22.0065L21.8829 22.0292Z" fill="#9F0000"/>
<path d="M22.1507 22.0063L21.7451 22.144L22.0853 22.2384L22.4265 22.1049L22.1507 22.0063Z" fill="#960000"/>
<path d="M23.8307 24.8958L23.8167 25.0777L23.9779 25.8053L23.9616 25.6057L23.8307 24.8958Z" fill="#FFAB00"/>
<path d="M22.4264 22.1049L22.0852 22.2385L22.426 22.4558L22.7026 22.3227L22.4264 22.1049Z" fill="#960000"/>
<path d="M23.6611 24.2277L23.6079 24.394L23.8167 25.0776L23.8306 24.8958L23.6611 24.2277Z" fill="#FF6C00"/>
<path d="M22.7027 22.3228L22.4261 22.4559L22.7578 22.7908L22.9716 22.6544L22.7027 22.3228Z" fill="#A80000"/>
<path d="M23.4575 23.6206L23.3569 23.7738L23.6078 24.3942L23.6611 24.2279L23.4575 23.6206Z" fill="#FF3400"/>
<path d="M22.9714 22.6545L22.7576 22.7909L23.0708 23.2343L23.2254 23.0911L22.9714 22.6545Z" fill="#C80000"/>
<path d="M23.2255 23.0912L23.0709 23.2343L23.357 23.7738L23.4576 23.6206L23.2255 23.0912Z" fill="#F10800"/>
<path d="M19.028 28.074L19.0827 28.4876L19.0272 27.7352L18.9722 27.3185L19.028 28.074Z" fill="#53FFA4"/>
<path d="M18.9722 27.3186L19.0272 27.7353L19.0425 26.9935L18.9873 26.5736L18.9722 27.3186Z" fill="#97FF60"/>
<path d="M18.9874 26.5736L19.0426 26.9935L19.1291 26.2813L19.0738 25.8582L18.9874 26.5736Z" fill="#D7FF1F"/>
<path d="M19.0738 25.8581L19.1291 26.2812L19.2854 25.6173L19.2302 25.191L19.0738 25.8581Z" fill="#FFD000"/>
<path d="M19.2302 25.1912L19.2854 25.6174L19.5084 25.0198L19.4534 24.5905L19.2302 25.1912Z" fill="#FF8D00"/>
<path d="M19.4534 24.5904L19.5084 25.0197L19.7931 24.505L19.7384 24.0729L19.4534 24.5904Z" fill="#FF4E00"/>
<path d="M19.7384 24.0731L19.793 24.5053L20.1326 24.0883L20.0784 23.6536L19.7384 24.0731Z" fill="#FF1A00"/>
<path d="M20.0786 23.6535L20.1328 24.0882L20.5186 23.7813L20.465 23.3445L20.0786 23.6535Z" fill="#D10000"/>
<path d="M24.3421 26.6869L24.4329 27.5643L24.5761 28.3245L24.4876 27.4552L24.3421 26.6869Z" fill="#FFE600"/>
<path d="M20.4649 23.3446L20.5185 23.7814L20.9405 23.5942L20.8876 23.1557L20.4649 23.3446Z" fill="#A80000"/>
<path d="M24.1268 25.9474L24.1732 26.3807L24.3878 27.1174L24.342 26.6868L24.1268 25.9474Z" fill="#FF9F00"/>
<path d="M20.8876 23.1556L20.9405 23.5941L21.3875 23.5328L21.3353 23.0931L20.8876 23.1556Z" fill="#8D0000"/>
<path d="M23.8473 25.2576L23.8943 25.6933L24.1733 26.3807L24.1269 25.9474L23.8473 25.2576Z" fill="#FF6000"/>
<path d="M21.3352 23.0932L21.3873 23.5329L21.8469 23.6002L21.7957 23.1598L21.3352 23.0932Z" fill="#800000"/>
<path d="M23.5103 24.6372L23.5581 25.0748L23.8941 25.6934L23.847 25.2578L23.5103 24.6372Z" fill="#FF2900"/>
<path d="M21.7959 23.1597L21.8472 23.6001L22.3067 23.7947L22.2563 23.3542L21.7959 23.1597Z" fill="#800000"/>
<path d="M23.1257 24.1035L23.1744 24.5426L23.5583 25.0748L23.5104 24.6372L23.1257 24.1035Z" fill="#DF0000"/>
<path d="M22.2563 23.3541L22.3067 23.7947L22.7533 24.1117L22.7038 23.6716L22.2563 23.3541Z" fill="#920000"/>
<path d="M22.7036 23.6717L22.7531 24.1118L23.1742 24.5426L23.1256 24.1034L22.7036 23.6717Z" fill="#B20000"/>
<path d="M24.2444 26.3306L24.3419 26.687L24.4874 27.4553L24.3846 27.0985L24.2444 26.3306Z" fill="#FFE600"/>
<path d="M21.103 22.3274L20.7368 22.5867L21.1003 22.4205L21.4145 22.1743L21.103 22.3274Z" fill="#B20000"/>
<path d="M21.4146 22.1745L21.1004 22.4207L21.4858 22.3796L21.745 22.1442L21.4146 22.1745Z" fill="#960000"/>
<path d="M21.7451 22.1442L21.4859 22.3795L21.8827 22.4656L22.0854 22.2386L21.7451 22.1442Z" fill="#890000"/>
<path d="M22.0853 22.2384L21.8826 22.4654L22.2797 22.6772L22.426 22.4558L22.0853 22.2384Z" fill="#890000"/>
<path d="M23.3571 23.7737L23.3639 23.9953L23.6556 24.6212L23.608 24.3941L23.3571 23.7737Z" fill="#FF2D00"/>
<path d="M22.4261 22.456L22.2798 22.6774L22.6662 23.0095L22.7578 22.7909L22.4261 22.456Z" fill="#9B0000"/>
<path d="M23.0709 23.2342L23.0308 23.4529L23.3637 23.9953L23.357 23.7737L23.0709 23.2342Z" fill="#E80000"/>
<path d="M22.7575 22.7909L22.666 23.0096L23.0308 23.453L23.0708 23.2343L22.7575 22.7909Z" fill="#BB0000"/>
<path d="M23.6077 24.3941L23.6554 24.6213L23.898 25.3129L23.8165 25.0778L23.6077 24.3941Z" fill="#FF6400"/>
<path d="M20.4048 22.8724L20.1495 23.2399L20.52 22.9388L20.7368 22.5869L20.4048 22.8724Z" fill="#D10000"/>
<path d="M20.7368 22.5869L20.52 22.9387L20.9255 22.7576L21.1004 22.4207L20.7368 22.5869Z" fill="#A80000"/>
<path d="M21.1004 22.4207L20.9254 22.7577L21.355 22.7027L21.4858 22.3796L21.1004 22.4207Z" fill="#8D0000"/>
<path d="M21.4858 22.3794L21.355 22.7025L21.797 22.7762L21.8825 22.4655L21.4858 22.3794Z" fill="#800000"/>
<path d="M21.8826 22.4655L21.797 22.7762L22.2391 22.9773L22.2797 22.6773L21.8826 22.4655Z" fill="#840000"/>
<path d="M23.3638 23.9954L23.4443 24.2752L23.7682 24.8988L23.6556 24.6213L23.3638 23.9954Z" fill="#FF2900"/>
<path d="M22.2797 22.6774L22.2391 22.9773L22.6689 23.3006L22.666 23.0095L22.2797 22.6774Z" fill="#920000"/>
<path d="M23.031 23.453L23.0745 23.7373L23.4444 24.2751L23.3639 23.9953L23.031 23.453Z" fill="#DF0000"/>
<path d="M22.666 23.0094L22.6688 23.3005L23.0743 23.7372L23.0307 23.4528L22.666 23.0094Z" fill="#B20000"/>
<path d="M20.113 23.268L19.8238 23.6514L20.1497 23.2397L20.4049 22.8723L20.113 23.268Z" fill="#FF1A00"/>
<path d="M19.3367 24.7551L19.2301 25.1911L19.4534 24.5904L19.5505 24.1615L19.3367 24.7551Z" fill="#FF8D00"/>
<path d="M19.5505 24.1615L19.4534 24.5905L19.7384 24.073L19.8236 23.6515L19.5505 24.1615Z" fill="#FF4E00"/>
<path d="M19.8236 23.6515L19.7384 24.073L20.0784 23.6535L20.1495 23.2398L19.8236 23.6515Z" fill="#FF1600"/>
<path d="M20.1495 23.2397L20.0785 23.6534L20.4649 23.3444L20.52 22.9386L20.1495 23.2397Z" fill="#D10000"/>
<path d="M20.52 22.9386L20.4649 23.3444L20.8876 23.1555L20.9255 22.7575L20.52 22.9386Z" fill="#A40000"/>
<path d="M20.9256 22.7577L20.8877 23.1557L21.3355 23.0932L21.3551 22.7027L20.9256 22.7577Z" fill="#890000"/>
<path d="M23.7682 24.8987L23.8473 25.2577L24.1269 25.9475L24.0374 25.5904L23.7682 24.8987Z" fill="#FF6000"/>
<path d="M21.3551 22.7025L21.3354 23.093L21.7958 23.1595L21.797 22.7762L21.3551 22.7025Z" fill="#800000"/>
<path d="M23.4444 24.2751L23.5105 24.6371L23.8473 25.2577L23.7683 24.8987L23.4444 24.2751Z" fill="#FF2900"/>
<path d="M21.7971 22.7762L21.7959 23.1595L22.2563 23.3541L22.2392 22.9772L21.7971 22.7762Z" fill="#800000"/>
<path d="M23.0744 23.7373L23.1257 24.1034L23.5104 24.6371L23.4442 24.2751L23.0744 23.7373Z" fill="#DF0000"/>
<path d="M22.2391 22.9773L22.2563 23.3542L22.7038 23.6716L22.669 23.3006L22.2391 22.9773Z" fill="#920000"/>
<path d="M22.6689 23.3007L22.7037 23.6717L23.1257 24.1034L23.0744 23.7374L22.6689 23.3007Z" fill="#B20000"/>
<path d="M26.4227 27.7136L25.7769 27.7083L25.7879 28.1938L26.447 28.1676L26.4227 27.7136Z" fill="#23FFD4"/>
<path d="M26.4136 27.2253L25.774 27.1839L25.7771 27.7084L26.4229 27.7138L26.4136 27.2253Z" fill="#53FFA4"/>
<path d="M26.4198 26.7146L25.7787 26.6337L25.7739 27.1837L26.4136 27.2251L26.4198 26.7146Z" fill="#80FF77"/>
<path d="M26.4414 26.1956L25.7914 26.0725L25.7787 26.6336L26.4198 26.7146L26.4414 26.1956Z" fill="#ADFF49"/>
<path d="M26.4778 25.6821L25.8117 25.5156L25.7914 26.0727L26.4413 26.1958L26.4778 25.6821Z" fill="#DBFF1C"/>
<path d="M26.5283 25.1877L25.839 24.9778L25.8116 25.5157L26.4777 25.6822L26.5283 25.1877Z" fill="#FFE200"/>
<path d="M27.1264 23.2498L26.1505 22.8313L26.1017 22.8973L27.0309 23.3027L27.1264 23.2498Z" fill="#FF3800"/>
<path d="M26.5916 24.7259L25.8729 24.4737L25.839 24.9777L26.5283 25.1877L26.5916 24.7259Z" fill="#FFB600"/>
<path d="M27.0307 23.3027L26.1015 22.8973L26.0519 23.0541L26.9343 23.4398L27.0307 23.3027Z" fill="#FF3800"/>
<path d="M26.666 24.3095L25.9122 24.0175L25.8729 24.4736L26.5916 24.7258L26.666 24.3095Z" fill="#FF9100"/>
<path d="M26.9344 23.4397L26.052 23.054L26.0031 23.2978L26.8398 23.6574L26.9344 23.4397Z" fill="#FF4300"/>
<path d="M26.7494 23.95L25.9559 23.6219L25.9122 24.0175L26.6659 24.3094L26.7494 23.95Z" fill="#FF6F00"/>
<path d="M26.8399 23.6576L26.0031 23.2979L25.9561 23.622L26.7496 23.9501L26.8399 23.6576Z" fill="#FF5500"/>
<path d="M27.0794 27.7677L26.4226 27.7138L26.4469 28.1678L27.1142 28.1901L27.0794 27.7677Z" fill="#2CFFCA"/>
<path d="M27.0654 27.3151L26.4134 27.2252L26.4227 27.7137L27.0794 27.7676L27.0654 27.3151Z" fill="#56FFA0"/>
<path d="M27.0727 26.8444L26.4195 26.7148L26.4133 27.2253L27.0653 27.3152L27.0727 26.8444Z" fill="#80FF77"/>
<path d="M27.1016 26.3676L26.4413 26.1958L26.4198 26.7148L27.0729 26.8444L27.1016 26.3676Z" fill="#AAFF4D"/>
<path d="M27.1509 25.8974L26.4779 25.6821L26.4413 26.1958L27.1016 26.3676L27.1509 25.8974Z" fill="#D4FF23"/>
<path d="M27.2197 25.4466L26.5284 25.1877L26.4778 25.6821L27.1509 25.8974L27.2197 25.4466Z" fill="#FBF100"/>
<path d="M28.1726 23.7593L27.2185 23.2822L27.1265 23.2498L28.0445 23.7202L28.1726 23.7593Z" fill="#FF5500"/>
<path d="M27.3061 25.0273L26.5915 24.7259L26.5282 25.1877L27.2195 25.4466L27.3061 25.0273Z" fill="#FFC400"/>
<path d="M28.0446 23.7203L27.1265 23.2499L27.031 23.3028L27.912 23.7595L28.0446 23.7203Z" fill="#FF4E00"/>
<path d="M27.4082 24.6511L26.6659 24.3096L26.5915 24.7259L27.3062 25.0273L27.4082 24.6511Z" fill="#FFA300"/>
<path d="M27.9118 23.7596L27.0308 23.3029L26.9344 23.4399L27.7783 23.8764L27.9118 23.7596Z" fill="#FF5200"/>
<path d="M27.5232 24.3283L26.7495 23.9503L26.6661 24.3097L27.4083 24.6512L27.5232 24.3283Z" fill="#FF8200"/>
<path d="M27.7785 23.8763L26.9345 23.4399L26.8399 23.6577L27.6477 24.0676L27.7785 23.8763Z" fill="#FF5900"/>
<path d="M27.6474 24.0676L26.8396 23.6577L26.7493 23.9503L27.523 24.3283L27.6474 24.0676Z" fill="#FF6C00"/>
<path d="M27.6921 27.8636L27.0794 27.7675L27.1142 28.19L27.7347 28.2552L27.6921 27.8636Z" fill="#33FFC4"/>
<path d="M27.6746 27.4466L27.0654 27.3152L27.0794 27.7677L27.6922 27.8637L27.6746 27.4466Z" fill="#5AFF9D"/>
<path d="M27.6828 27.0146L27.0728 26.8444L27.0655 27.3152L27.6747 27.4466L27.6828 27.0146Z" fill="#80FF77"/>
<path d="M27.7166 26.5788L27.1015 26.3674L27.0729 26.8442L27.6829 27.0144L27.7166 26.5788Z" fill="#A7FF50"/>
<path d="M27.7753 26.1514L27.1508 25.8975L27.1015 26.3676L27.7166 26.579L27.7753 26.1514Z" fill="#CEFF29"/>
<path d="M27.8573 25.7431L27.2196 25.4466L27.1507 25.8974L27.7751 26.1513L27.8573 25.7431Z" fill="#F1FC06"/>
<path d="M27.9608 25.3651L27.3062 25.0271L27.2196 25.4464L27.8573 25.7429L27.9608 25.3651Z" fill="#FFD700"/>
<path d="M29.0027 24.2696L28.1727 23.7592L28.0446 23.7201L28.848 24.2238L29.0027 24.2696Z" fill="#FF6F00"/>
<path d="M28.0831 25.0282L27.4083 24.651L27.3062 25.0273L27.9609 25.3652L28.0831 25.0282Z" fill="#FFB600"/>
<path d="M28.8478 24.2239L28.0443 23.7203L27.9117 23.7595L28.688 24.2497L28.8478 24.2239Z" fill="#FF6800"/>
<path d="M28.2208 24.7409L27.5232 24.3281L27.4084 24.6509L28.0831 25.0281L28.2208 24.7409Z" fill="#FF9800"/>
<path d="M28.6882 24.2497L27.912 23.7595L27.7785 23.8763L28.5275 24.3464L28.6882 24.2497Z" fill="#FF6C00"/>
<path d="M28.3702 24.5118L27.6476 24.0676L27.5231 24.3282L28.2207 24.7411L28.3702 24.5118Z" fill="#FF8200"/>
<path d="M28.5274 24.3465L27.7784 23.8763L27.6476 24.0676L28.3702 24.5118L28.5274 24.3465Z" fill="#FF7300"/>
<path d="M28.2056 27.9942L27.6923 27.8636L27.7349 28.2551L28.2533 28.3562L28.2056 27.9942Z" fill="#39FFBE"/>
<path d="M28.1855 27.6108L27.6746 27.4464L27.6921 27.8635L28.2054 27.9942L28.1855 27.6108Z" fill="#5AFF9D"/>
<path d="M28.1939 27.2157L27.6827 27.0144L27.6746 27.4464L28.1854 27.6107L28.1939 27.2157Z" fill="#80FF77"/>
<path d="M28.231 26.8195L27.7166 26.579L27.6828 27.0146L28.1941 27.2159L28.231 26.8195Z" fill="#A4FF53"/>
<path d="M28.2955 26.4323L27.7751 26.1514L27.7165 26.579L28.2309 26.8195L28.2955 26.4323Z" fill="#C7FF30"/>
<path d="M28.3862 26.0644L27.8574 25.743L27.7753 26.1513L28.2956 26.4322L28.3862 26.0644Z" fill="#E7FF0F"/>
<path d="M28.5006 25.7261L27.9609 25.3653L27.8574 25.7431L28.3862 26.0645L28.5006 25.7261Z" fill="#FFE600"/>
<path d="M28.6356 25.4261L28.083 25.0282L27.9607 25.3653L28.5004 25.726L28.6356 25.4261Z" fill="#FFC400"/>
<path d="M29.6568 24.7941L29.0027 24.2698L28.848 24.2239L29.4846 24.7418L29.6568 24.7941Z" fill="#FF8600"/>
<path d="M28.7882 25.1727L28.2208 24.7409L28.0831 25.0281L28.6358 25.426L28.7882 25.1727Z" fill="#FFAB00"/>
<path d="M29.4844 24.7418L28.8478 24.2239L28.688 24.2496L29.3067 24.7547L29.4844 24.7418Z" fill="#FF8200"/>
<path d="M28.954 24.973L28.3703 24.5116L28.2209 24.7409L28.7883 25.1727L28.954 24.973Z" fill="#FF9800"/>
<path d="M29.3067 24.7545L28.688 24.2495L28.5274 24.3462L29.1283 24.8323L29.3067 24.7545Z" fill="#FF8200"/>
<path d="M29.1282 24.8325L28.5272 24.3465L28.3701 24.5117L28.9537 24.9732L29.1282 24.8325Z" fill="#FF8900"/>
<path d="M28.5688 28.1508L28.2055 27.9941L28.2532 28.3561L28.6195 28.4852L28.5688 28.1508Z" fill="#3CFFBA"/>
<path d="M28.5476 27.7989L28.1857 27.6109L28.2057 27.9943L28.5691 28.151L28.5476 27.7989Z" fill="#5DFF9A"/>
<path d="M28.556 27.4382L28.1942 27.216L28.1857 27.611L28.5475 27.799L28.556 27.4382Z" fill="#80FF77"/>
<path d="M28.5942 27.0779L28.231 26.8194L28.194 27.2157L28.5559 27.438L28.5942 27.0779Z" fill="#A0FF56"/>
<path d="M28.6616 26.7279L28.2955 26.4321L28.2309 26.8194L28.5942 27.0779L28.6616 26.7279Z" fill="#C1FF36"/>
<path d="M28.7565 26.3976L28.3861 26.0646L28.2955 26.4323L28.6616 26.7281L28.7565 26.3976Z" fill="#DEFF19"/>
<path d="M28.8764 26.0954L28.5005 25.7261L28.3861 26.0645L28.7565 26.3976L28.8764 26.0954Z" fill="#FBF100"/>
<path d="M29.0182 25.8295L28.6357 25.4261L28.5005 25.726L28.8763 26.0953L29.0182 25.8295Z" fill="#FFD700"/>
<path d="M30.264 25.429L29.8186 24.9098L29.6566 24.794L30.0927 25.3133L30.264 25.429Z" fill="#FFA700"/>
<path d="M29.1784 25.6073L28.7882 25.1727L28.6357 25.426L29.0182 25.8295L29.1784 25.6073Z" fill="#FFC100"/>
<path d="M30.093 25.3134L29.6568 24.7941L29.4846 24.7418L29.9113 25.2553L30.093 25.3134Z" fill="#FF9C00"/>
<path d="M29.3525 25.4348L28.9539 24.973L28.7883 25.1727L29.1784 25.6072L29.3525 25.4348Z" fill="#FFAE00"/>
<path d="M29.9112 25.2553L29.4846 24.7418L29.3068 24.7546L29.7239 25.2565L29.9112 25.2553Z" fill="#FF9800"/>
<path d="M29.536 25.3169L29.1284 24.8325L28.954 24.9731L29.3526 25.4349L29.536 25.3169Z" fill="#FF9F00"/>
<path d="M29.7239 25.2565L29.3069 24.7547L29.1284 24.8324L29.536 25.3169L29.7239 25.2565Z" fill="#FF9800"/>
<path d="M28.7422 28.3254L28.569 28.1511L28.6197 28.4855L28.7941 28.635L28.7422 28.3254Z" fill="#43FFB4"/>
<path d="M28.7197 28.0011L28.5474 27.7988L28.5688 28.1509L28.742 28.3252L28.7197 28.0011Z" fill="#60FF97"/>
<path d="M28.7279 27.6711L28.5559 27.4381L28.5475 27.7989L28.7198 28.0013L28.7279 27.6711Z" fill="#7DFF7A"/>
<path d="M28.7661 27.3435L28.5942 27.078L28.5558 27.4381L28.7278 27.6712L28.7661 27.3435Z" fill="#9DFF5A"/>
<path d="M28.8341 27.0267L28.6618 26.7281L28.5944 27.078L28.7663 27.3434L28.8341 27.0267Z" fill="#BAFF3C"/>
<path d="M28.9295 26.7294L28.7565 26.3975L28.6616 26.7281L28.8339 27.0267L28.9295 26.7294Z" fill="#D4FF23"/>
<path d="M29.0506 26.4595L28.8765 26.0954L28.7566 26.3976L28.9296 26.7295L29.0506 26.4595Z" fill="#EEFF09"/>
<path d="M30.7559 26.2994L30.5574 25.8185L30.4203 25.5989L30.616 26.0905L30.7559 26.2994Z" fill="#FFDE00"/>
<path d="M29.1938 26.2239L29.0183 25.8295L28.8764 26.0953L29.0505 26.4594L29.1938 26.2239Z" fill="#FFE600"/>
<path d="M30.6162 26.0904L30.4205 25.5989L30.2642 25.4289L30.457 25.9261L30.6162 26.0904Z" fill="#FFCC00"/>
<path d="M29.3558 26.0295L29.1785 25.6073L29.0184 25.8295L29.1939 26.224L29.3558 26.0295Z" fill="#FFD000"/>
<path d="M30.4569 25.926L30.264 25.4289L30.0928 25.3133L30.2827 25.8106L30.4569 25.926Z" fill="#FFB900"/>
<path d="M29.532 25.8812L29.3526 25.4349L29.1785 25.6073L29.3558 26.0295L29.532 25.8812Z" fill="#FFC100"/>
<path d="M30.2827 25.8107L30.0928 25.3133L29.911 25.2552L30.0981 25.7475L30.2827 25.8107Z" fill="#FFB200"/>
<path d="M29.7175 25.7833L29.5358 25.3168L29.3524 25.4349L29.5317 25.8812L29.7175 25.7833Z" fill="#FFB200"/>
<path d="M30.0983 25.7474L29.9112 25.2552L29.7239 25.2563L29.9082 25.7382L30.0983 25.7474Z" fill="#FFAB00"/>
<path d="M29.9081 25.7382L29.7238 25.2563L29.5359 25.3167L29.7176 25.7831L29.9081 25.7382Z" fill="#FFAE00"/>
<path d="M28.8814 27.0481L28.9297 26.7293L28.8341 27.0266L28.7877 27.317L28.8814 27.0481Z" fill="#CEFF29"/>
<path d="M30.9111 28.7256L30.9799 28.4299L31.0366 28.1101L30.9663 28.4332L30.9111 28.7256Z" fill="#50FFA7"/>
<path d="M30.9663 28.4332L31.0365 28.1101L31.0637 27.7815L30.9923 28.131L30.9663 28.4332Z" fill="#6AFF8D"/>
<path d="M30.9925 28.1309L31.0639 27.7814L31.0609 27.4523L30.9886 27.8268L30.9925 28.1309Z" fill="#87FF70"/>
<path d="M30.9885 27.8269L31.0607 27.4524L31.0273 27.1314L30.9545 27.5288L30.9885 27.8269Z" fill="#A0FF56"/>
<path d="M30.9546 27.5287L31.0274 27.1313L30.9644 26.8269L30.8913 27.2444L30.9546 27.5287Z" fill="#BEFF39"/>
<path d="M30.8913 27.2443L30.9643 26.8268L30.8731 26.547L30.8003 26.9814L30.8913 27.2443Z" fill="#D4FF23"/>
<path d="M29.0001 26.8059L29.0506 26.4595L28.9296 26.7295L28.8813 27.0483L29.0001 26.8059Z" fill="#E4FF13"/>
<path d="M30.8002 26.9814L30.8731 26.547L30.756 26.2993L30.6838 26.7468L30.8002 26.9814Z" fill="#EBFF0C"/>
<path d="M29.1407 26.5964L29.1937 26.224L29.0504 26.4594L28.9999 26.8059L29.1407 26.5964Z" fill="#F8F500"/>
<path d="M30.6839 26.747L30.7561 26.2995L30.6162 26.0907L30.545 26.5471L30.6839 26.747Z" fill="#FEED00"/>
<path d="M29.3 26.4257L29.3556 26.0294L29.1937 26.2239L29.1408 26.5964L29.3 26.4257Z" fill="#FFDE00"/>
<path d="M30.545 26.547L30.6162 26.0906L30.457 25.9262L30.3873 26.3873L30.545 26.547Z" fill="#FFDB00"/>
<path d="M29.4736 26.2982L29.5319 25.8812L29.3557 26.0294L29.3001 26.4257L29.4736 26.2982Z" fill="#FFD000"/>
<path d="M30.3871 26.3872L30.4569 25.9261L30.2827 25.8107L30.2147 26.2719L30.3871 26.3872Z" fill="#FFCC00"/>
<path d="M29.6568 26.2176L29.7178 25.7833L29.532 25.8812L29.4737 26.2983L29.6568 26.2176Z" fill="#FFC400"/>
<path d="M30.2147 26.2719L30.2827 25.8107L30.0981 25.7475L30.0322 26.2042L30.2147 26.2719Z" fill="#FFC400"/>
<path d="M29.8447 26.1861L29.9083 25.7384L29.7178 25.7834L29.6568 26.2177L29.8447 26.1861Z" fill="#FFC100"/>
<path d="M30.0323 26.2043L30.0982 25.7476L29.9082 25.7384L29.8446 26.186L30.0323 26.2043Z" fill="#FFBD00"/>
<path d="M29.9629 29.9815L30.2745 29.8016L30.4396 29.6574L30.1228 29.8552L29.9629 29.9815Z" fill="#00D4FF"/>
<path d="M30.1228 29.8552L30.4396 29.6574L30.5894 29.4727L30.2677 29.6903L30.1228 29.8552Z" fill="#00E4F8"/>
<path d="M30.2678 29.6903L30.5895 29.4727L30.7202 29.252L30.394 29.4908L30.2678 29.6903Z" fill="#0FF8E7"/>
<path d="M30.3941 29.4909L30.7203 29.2521L30.8284 29.001L30.4985 29.2618L30.3941 29.4909Z" fill="#26FFD1"/>
<path d="M30.4983 29.2617L30.8283 29.0009L30.9111 28.7256L30.5779 29.0088L30.4983 29.2617Z" fill="#3CFFBA"/>
<path d="M30.5779 29.0088L30.9111 28.7256L30.9663 28.4331L30.6307 28.7385L30.5779 29.0088Z" fill="#53FFA4"/>
<path d="M30.6307 28.7386L30.9664 28.4333L30.9924 28.1311L30.6551 28.4579L30.6307 28.7386Z" fill="#6DFF8A"/>
<path d="M30.655 28.4578L30.9923 28.131L30.9884 27.8268L30.6502 28.1738L30.655 28.4578Z" fill="#87FF70"/>
<path d="M30.6503 28.1737L30.9884 27.8268L30.9544 27.5286L30.6164 27.8938L30.6503 28.1737Z" fill="#A0FF56"/>
<path d="M30.6164 27.894L30.9545 27.5288L30.8913 27.2445L30.5542 27.6257L30.6164 27.894Z" fill="#B7FF40"/>
<path d="M30.554 27.6255L30.8911 27.2443L30.8001 26.9814L30.4649 27.3759L30.554 27.6255Z" fill="#CEFF29"/>
<path d="M30.465 27.3758L30.8002 26.9814L30.6838 26.7468L30.3513 27.1515L30.465 27.3758Z" fill="#E4FF13"/>
<path d="M29.0094 26.7849L29.3001 26.4256L29.1409 26.5964L28.8557 26.9361L29.0094 26.7849Z" fill="#FEED00"/>
<path d="M30.3512 27.1516L30.6837 26.747L30.5448 26.5471L30.2159 26.9585L30.3512 27.1516Z" fill="#F4F802"/>
<path d="M29.1772 26.6748L29.4737 26.2983L29.3002 26.4258L29.0095 26.785L29.1772 26.6748Z" fill="#FFDE00"/>
<path d="M30.2161 26.9585L30.545 26.5471L30.3873 26.3874L30.0627 26.802L30.2161 26.9585Z" fill="#FFE600"/>
<path d="M29.3543 26.6086L29.6568 26.2177L29.4736 26.2984L29.1771 26.6748L29.3543 26.6086Z" fill="#FFD300"/>
<path d="M30.0627 26.8019L30.3873 26.3873L30.2149 26.272L29.8952 26.6862L30.0627 26.8019Z" fill="#FFDB00"/>
<path d="M29.536 26.5881L29.8445 26.1859L29.6566 26.2175L29.3541 26.6084L29.536 26.5881Z" fill="#FFD000"/>
<path d="M29.8952 26.686L30.2149 26.2718L30.0324 26.2041L29.7182 26.6141L29.8952 26.686Z" fill="#FFD000"/>
<path d="M29.7181 26.6144L30.0323 26.2044L29.8446 26.1861L29.5362 26.5883L29.7181 26.6144Z" fill="#FFCC00"/>
<path d="M29.2591 30.2436L29.7922 30.0659L29.9628 29.9813L29.4226 30.1716L29.2591 30.2436Z" fill="#00D0FF"/>
<path d="M29.4225 30.1717L29.9628 29.9814L30.1227 29.8551L29.5754 30.0595L29.4225 30.1717Z" fill="#00DCFE"/>
<path d="M29.5754 30.0595L30.1227 29.8551L30.2676 29.6902L29.7139 29.91L29.5754 30.0595Z" fill="#06ECF1"/>
<path d="M29.714 29.9101L30.2677 29.6903L30.394 29.4908L29.8345 29.727L29.714 29.9101Z" fill="#19FFDE"/>
<path d="M29.8345 29.7269L30.394 29.4908L30.4983 29.2617L29.9339 29.5147L29.8345 29.7269Z" fill="#29FFCE"/>
<path d="M29.934 29.5145L30.4985 29.2616L30.5781 29.0087L30.0096 29.2785L29.934 29.5145Z" fill="#40FFB7"/>
<path d="M30.0096 29.2787L30.5781 29.0089L30.6308 28.7386L30.0593 29.0249L30.0096 29.2787Z" fill="#56FFA0"/>
<path d="M30.0592 29.0247L30.6307 28.7384L30.6551 28.4576L30.0816 28.7597L30.0592 29.0247Z" fill="#6DFF8A"/>
<path d="M30.0816 28.7597L30.6551 28.4577L30.6503 28.1737L30.0761 28.4903L30.0816 28.7597Z" fill="#87FF70"/>
<path d="M30.0761 28.4904L30.6503 28.1738L30.6164 27.894L30.0426 28.2236L30.0761 28.4904Z" fill="#9DFF5A"/>
<path d="M30.0425 28.2234L30.6163 27.8938L30.554 27.6255L29.982 27.9662L30.0425 28.2234Z" fill="#B4FF43"/>
<path d="M29.9822 27.9662L30.5542 27.6254L30.4651 27.3758L29.8959 27.7255L29.9822 27.9662Z" fill="#CAFF2C"/>
<path d="M29.8958 27.7258L30.465 27.376L30.3513 27.1516L29.7861 27.508L29.8958 27.7258Z" fill="#DEFF19"/>
<path d="M29.7861 27.5079L30.3513 27.1515L30.216 26.9585L29.6558 27.3188L29.7861 27.5079Z" fill="#EEFF09"/>
<path d="M28.8294 26.9478L29.3543 26.6084L29.1771 26.6746L28.66 27.0024L28.8294 26.9478Z" fill="#FFDE00"/>
<path d="M29.6557 27.3189L30.2159 26.9586L30.0625 26.802L29.5081 27.1636L29.6557 27.3189Z" fill="#FBF100"/>
<path d="M29.0036 26.9369L29.5363 26.588L29.3544 26.6084L28.8295 26.9478L29.0036 26.9369Z" fill="#FFDB00"/>
<path d="M29.5083 27.1634L30.0627 26.8018L29.8952 26.6861L29.3476 27.0461L29.5083 27.1634Z" fill="#FFE600"/>
<path d="M29.1777 26.9701L29.7181 26.6143L29.5362 26.5882L29.0035 26.937L29.1777 26.9701Z" fill="#FFD700"/>
<path d="M29.3476 27.0461L29.8952 26.686L29.7182 26.6141L29.1778 26.9699L29.3476 27.0461Z" fill="#FFDB00"/>
<path d="M28.5373 30.437L29.2592 30.2436L29.4226 30.1716L28.6927 30.3747L28.5373 30.437Z" fill="#00D8FF"/>
<path d="M28.6929 30.3748L29.4228 30.1718L29.5757 30.0596L28.8381 30.2732L28.6929 30.3748Z" fill="#00E4F8"/>
<path d="M28.8379 30.2731L29.5755 30.0595L29.714 29.91L28.9693 30.1347L28.8379 30.2731Z" fill="#0CF4EB"/>
<path d="M28.9695 30.1347L29.7142 29.91L29.8347 29.7268L29.0836 29.9629L28.9695 30.1347Z" fill="#1CFFDB"/>
<path d="M29.0835 29.963L29.8347 29.727L29.934 29.5147L29.1774 29.7621L29.0835 29.963Z" fill="#2CFFCA"/>
<path d="M29.1775 29.7619L29.9341 29.5145L30.0096 29.2785L29.2486 29.5369L29.1775 29.7619Z" fill="#43FFB4"/>
<path d="M29.2484 29.5371L30.0094 29.2787L30.0591 29.0249L29.2949 29.2937L29.2484 29.5371Z" fill="#56FFA0"/>
<path d="M29.2951 29.2937L30.0593 29.0249L30.0817 28.7599L29.3155 29.0383L29.2951 29.2937Z" fill="#6DFF8A"/>
<path d="M29.3155 29.038L30.0817 28.7596L30.0762 28.4902L29.3093 28.7771L29.3155 29.038Z" fill="#83FF73"/>
<path d="M29.3093 28.7771L30.0762 28.4902L30.0428 28.2233L29.2766 28.5175L29.3093 28.7771Z" fill="#9AFF5D"/>
<path d="M29.2764 28.5176L30.0426 28.2234L29.982 27.9663L29.2178 28.2661L29.2764 28.5176Z" fill="#B1FF46"/>
<path d="M29.2178 28.2662L29.982 27.9663L29.8957 27.7256L29.1348 28.0296L29.2178 28.2662Z" fill="#C4FF33"/>
<path d="M29.1349 28.0295L29.8958 27.7255L29.7861 27.5078L29.0297 27.8141L29.1349 28.0295Z" fill="#D7FF1F"/>
<path d="M28.1175 27.2313L28.8292 26.948L28.6599 27.0026L27.9567 27.2767L28.1175 27.2313Z" fill="#FFE600"/>
<path d="M29.0299 27.8142L29.7863 27.5079L29.6559 27.3188L28.9052 27.6257L29.0299 27.8142Z" fill="#E7FF0F"/>
<path d="M28.2832 27.2282L29.0036 26.9369L28.8294 26.9478L28.1177 27.2311L28.2832 27.2282Z" fill="#FFE200"/>
<path d="M28.905 27.6258L29.6557 27.3189L29.5082 27.1637L28.7641 27.4693L28.905 27.6258Z" fill="#F4F802"/>
<path d="M28.4489 27.2677L29.1777 26.9701L29.0034 26.937L28.2831 27.2282L28.4489 27.2677Z" fill="#FFE200"/>
<path d="M28.7641 27.4692L29.5082 27.1636L29.3474 27.0463L28.6107 27.3488L28.7641 27.4692Z" fill="#FEED00"/>
<path d="M28.6109 27.3487L29.3476 27.0461L29.1779 26.9699L28.4491 27.2676L28.6109 27.3487Z" fill="#FFE200"/>
<path d="M27.6767 30.6493L28.5374 30.437L28.6927 30.3747L27.8236 30.5943L27.6767 30.6493Z" fill="#00DCFE"/>
<path d="M27.8237 30.5944L28.6929 30.3748L28.8381 30.2733L27.961 30.5L27.8237 30.5944Z" fill="#02E8F4"/>
<path d="M27.9609 30.4999L28.838 30.2732L28.9693 30.1348L28.0849 30.3684L27.9609 30.4999Z" fill="#0FF8E7"/>
<path d="M28.0849 30.3684L28.9693 30.1348L29.0834 29.963L28.1924 30.2031L28.0849 30.3684Z" fill="#1FFFD7"/>
<path d="M28.1925 30.2029L29.0835 29.9628L29.1774 29.7619L28.2808 30.0077L28.1925 30.2029Z" fill="#30FFC7"/>
<path d="M28.2806 30.0078L29.1772 29.762L29.2484 29.5369L28.3473 29.7878L28.2806 30.0078Z" fill="#43FFB4"/>
<path d="M28.3474 29.7879L29.2486 29.537L29.295 29.2936L28.3906 29.5487L28.3474 29.7879Z" fill="#5AFF9D"/>
<path d="M28.3906 29.5486L29.295 29.2936L29.3155 29.0381L28.4091 29.2963L28.3906 29.5486Z" fill="#6DFF8A"/>
<path d="M28.409 29.2963L29.3154 29.0381L29.3092 28.7772L28.4022 29.0375L28.409 29.2963Z" fill="#83FF73"/>
<path d="M28.4023 29.0374L29.3093 28.7771L29.2765 28.5175L28.3703 28.7788L28.4023 29.0374Z" fill="#9AFF5D"/>
<path d="M28.3702 28.7788L29.2764 28.5175L29.2178 28.2661L28.3137 28.5272L28.3702 28.7788Z" fill="#B1FF46"/>
<path d="M28.3139 28.5274L29.218 28.2663L29.135 28.0297L28.2344 28.2895L28.3139 28.5274Z" fill="#C4FF33"/>
<path d="M28.2342 28.2896L29.1349 28.0297L29.0297 27.8143L28.1338 28.0718L28.2342 28.2896Z" fill="#D7FF1F"/>
<path d="M27.4246 27.4605L28.2833 27.2281L28.1177 27.2311L27.2679 27.4567L27.4246 27.4605Z" fill="#FFE600"/>
<path d="M28.1339 28.0717L29.0298 27.8142L28.9051 27.6257L28.015 27.8798L28.1339 28.0717Z" fill="#E4FF13"/>
<path d="M27.5816 27.5064L28.4489 27.2677L28.2831 27.2282L27.4244 27.4605L27.5816 27.5064Z" fill="#FFE600"/>
<path d="M28.0148 27.8798L28.9049 27.6257L28.764 27.4691L27.8807 27.7189L28.0148 27.8798Z" fill="#F1FC06"/>
<path d="M27.735 27.5934L28.6106 27.3488L28.4489 27.2678L27.5815 27.5066L27.735 27.5934Z" fill="#FFE600"/>
<path d="M27.8809 27.7188L28.7641 27.4691L28.6108 27.3487L27.7352 27.5933L27.8809 27.7188Z" fill="#FEED00"/>
<path d="M26.9718 30.7753L27.8935 30.552L27.751 30.627L26.828 30.8513L26.9718 30.7753Z" fill="#00E4F8"/>
<path d="M27.1039 30.6603L28.0248 30.4386L27.8937 30.5519L26.9719 30.7752L27.1039 30.6603Z" fill="#0CF4EB"/>
<path d="M27.2206 30.5095L28.1409 30.2898L28.0247 30.4387L27.1038 30.6605L27.2206 30.5095Z" fill="#19FFDE"/>
<path d="M27.3192 30.326L28.2392 30.1089L28.141 30.2897L27.2207 30.5094L27.3192 30.326Z" fill="#29FFCE"/>
<path d="M27.3969 30.1147L28.317 29.9007L28.2393 30.1089L27.3193 30.326L27.3969 30.1147Z" fill="#3CFFBA"/>
<path d="M27.4514 29.881L28.372 29.6703L28.3169 29.9006L27.3968 30.1147L27.4514 29.881Z" fill="#53FFA4"/>
<path d="M27.4815 29.6307L28.4029 29.4237L28.372 29.6703L27.4514 29.8809L27.4815 29.6307Z" fill="#66FF90"/>
<path d="M27.4861 29.3703L28.4088 29.1672L28.4029 29.4236L27.4814 29.6306L27.4861 29.3703Z" fill="#7DFF7A"/>
<path d="M27.4651 29.1068L28.3893 28.9076L28.4087 29.1672L27.4861 29.3703L27.4651 29.1068Z" fill="#94FF63"/>
<path d="M27.419 28.847L28.3449 28.6518L28.3893 28.9077L27.4652 29.1069L27.419 28.847Z" fill="#AAFF4D"/>
<path d="M27.3487 28.5976L28.2767 28.4062L28.3449 28.6517L27.4189 28.8469L27.3487 28.5976Z" fill="#BEFF39"/>
<path d="M27.2562 28.3656L28.1863 28.1777L28.2766 28.4063L27.3487 28.5977L27.2562 28.3656Z" fill="#D1FF26"/>
<path d="M26.4022 27.6293L27.3458 27.4532L27.5033 27.4782L26.5617 27.6547L26.4022 27.6293Z" fill="#FFE200"/>
<path d="M27.1439 28.1566L28.0763 27.972L28.1863 28.1775L27.2562 28.3654L27.1439 28.1566Z" fill="#E1FF16"/>
<path d="M26.5616 27.655L27.5032 27.4784L27.659 27.545L26.7196 27.7227L26.5616 27.655Z" fill="#FFE600"/>
<path d="M27.0149 27.9769L27.9497 27.7951L28.0766 27.9721L27.1442 28.1567L27.0149 27.9769Z" fill="#EEFF09"/>
<path d="M26.7197 27.7226L27.6591 27.5449L27.8092 27.6514L26.8721 27.8309L26.7197 27.7226Z" fill="#FFEA00"/>
<path d="M26.872 27.831L27.8091 27.6515L27.9495 27.7952L27.0147 27.977L26.872 27.831Z" fill="#FBF100"/>
<path d="M26.0411 31.023L26.9719 30.7753L26.8281 30.8513L25.8925 31.1017L26.0411 31.023Z" fill="#00E0FB"/>
<path d="M26.177 30.9036L27.1037 30.6604L26.9717 30.7752L26.0408 31.0229L26.177 30.9036Z" fill="#09F0EE"/>
<path d="M26.2975 30.7467L27.2208 30.5093L27.104 30.6603L26.1773 30.9036L26.2975 30.7467Z" fill="#16FFE1"/>
<path d="M26.3984 30.5563L27.3191 30.326L27.2206 30.5094L26.2973 30.7469L26.3984 30.5563Z" fill="#29FFCE"/>
<path d="M26.4778 30.3367L27.3967 30.1147L27.3191 30.326L26.3984 30.5562L26.4778 30.3367Z" fill="#3CFFBA"/>
<path d="M26.5332 30.0936L27.4513 29.8809L27.3967 30.1147L26.4778 30.3366L26.5332 30.0936Z" fill="#50FFA7"/>
<path d="M26.5633 29.8335L27.4815 29.6308L27.4514 29.8811L26.5334 30.0938L26.5633 29.8335Z" fill="#66FF90"/>
<path d="M26.5668 29.5628L27.4862 29.3705L27.4815 29.6308L26.5633 29.8335L26.5668 29.5628Z" fill="#7DFF7A"/>
<path d="M26.5438 29.2885L27.4652 29.1069L27.4862 29.3704L26.5668 29.5627L26.5438 29.2885Z" fill="#94FF63"/>
<path d="M26.4944 29.0181L27.4189 28.847L27.4651 29.1068L26.5436 29.2885L26.4944 29.0181Z" fill="#AAFF4D"/>
<path d="M26.4206 28.7586L27.349 28.5976L27.4192 28.8469L26.4947 29.018L26.4206 28.7586Z" fill="#C1FF36"/>
<path d="M26.3235 28.517L27.2563 28.3655L27.3488 28.5976L26.4205 28.7586L26.3235 28.517Z" fill="#D4FF23"/>
<path d="M25.4342 27.7503L26.4022 27.6294L26.5616 27.6548L25.5996 27.7769L25.4342 27.7503Z" fill="#FFDE00"/>
<path d="M26.2059 28.2997L27.144 28.1567L27.2563 28.3655L26.3234 28.517L26.2059 28.2997Z" fill="#E4FF13"/>
<path d="M25.5996 27.7769L26.5616 27.6548L26.7197 27.7226L25.7638 27.8475L25.5996 27.7769Z" fill="#FFDE00"/>
<path d="M26.0711 28.1124L27.0149 27.9769L27.1441 28.1567L26.206 28.2996L26.0711 28.1124Z" fill="#F1FC06"/>
<path d="M25.7639 27.8477L26.7198 27.7227L26.8722 27.8311L25.9224 27.9605L25.7639 27.8477Z" fill="#FFE600"/>
<path d="M25.9223 27.9604L26.872 27.8309L27.0147 27.9769L26.071 28.1125L25.9223 27.9604Z" fill="#FEED00"/>
<path d="M25.0012 31.3793L25.8925 31.1017L25.7353 31.138L24.8351 31.4176L25.0012 31.3793Z" fill="#00CCFF"/>
<path d="M25.1579 31.2958L26.041 31.0228L25.8924 31.1015L25.0011 31.3791L25.1579 31.2958Z" fill="#00D8FF"/>
<path d="M25.3014 31.1695L26.1773 30.9035L26.0411 31.0228L25.158 31.2958L25.3014 31.1695Z" fill="#02E8F4"/>
<path d="M25.4278 31.0033L26.2974 30.7468L26.1771 30.9036L25.3013 31.1696L25.4278 31.0033Z" fill="#13FCE4"/>
<path d="M25.534 30.8013L26.3986 30.5564L26.2975 30.7469L25.4279 31.0035L25.534 30.8013Z" fill="#23FFD4"/>
<path d="M25.6168 30.5682L26.4779 30.3366L26.3985 30.5561L25.5339 30.8011L25.6168 30.5682Z" fill="#39FFBE"/>
<path d="M25.6743 30.3104L26.5333 30.0937L26.4779 30.3367L25.6168 30.5683L25.6743 30.3104Z" fill="#50FFA7"/>
<path d="M25.7046 30.0341L26.5632 29.8335L26.5332 30.0938L25.6742 30.3104L25.7046 30.0341Z" fill="#66FF90"/>
<path d="M25.7073 29.7466L26.5669 29.5628L26.5634 29.8335L25.7048 30.0341L25.7073 29.7466Z" fill="#7DFF7A"/>
<path d="M25.6813 29.4553L26.5436 29.2886L26.5667 29.5628L25.7071 29.7465L25.6813 29.4553Z" fill="#97FF60"/>
<path d="M25.6279 29.1678L26.4944 29.018L26.5436 29.2884L25.6813 29.4551L25.6279 29.1678Z" fill="#ADFF49"/>
<path d="M25.5483 28.8921L26.4204 28.7586L26.4945 29.0181L25.6279 29.1679L25.5483 28.8921Z" fill="#C4FF33"/>
<path d="M25.4444 28.6352L26.3234 28.517L26.4205 28.7586L25.5483 28.8921L25.4444 28.6352Z" fill="#D7FF1F"/>
<path d="M24.4991 27.82L25.4344 27.7504L25.5998 27.777L24.6744 27.8483L24.4991 27.82Z" fill="#FFD700"/>
<path d="M25.3189 28.4043L26.206 28.2998L26.3235 28.5171L25.4445 28.6354L25.3189 28.4043Z" fill="#EBFF0C"/>
<path d="M24.6741 27.8483L25.5996 27.777L25.7637 27.8476L24.8483 27.9234L24.6741 27.8483Z" fill="#FFD700"/>
<path d="M25.1751 28.2052L26.071 28.1125L26.2059 28.2998L25.3189 28.4042L25.1751 28.2052Z" fill="#F8F500"/>
<path d="M24.8483 27.9234L25.7637 27.8476L25.9223 27.9605L25.0168 28.0434L24.8483 27.9234Z" fill="#FFDB00"/>
<path d="M25.017 28.0434L25.9225 27.9604L26.0712 28.1124L25.1752 28.2051L25.017 28.0434Z" fill="#FFE600"/>
<path d="M22.1565 32.1899L22.7441 31.8658L22.5553 31.7027L21.9496 32.011L22.1565 32.1899Z" fill="#00A0FF"/>
<path d="M21.9497 32.011L22.5554 31.7027L22.3801 31.4949L21.7572 31.7832L21.9497 32.011Z" fill="#00B0FF"/>
<path d="M22.3727 32.3153L22.9415 31.98L22.744 31.8657L22.1564 32.1897L22.3727 32.3153Z" fill="#0094FF"/>
<path d="M21.7571 31.783L22.38 31.4946L22.2224 31.2473L21.5839 31.512L21.7571 31.783Z" fill="#00C4FF"/>
<path d="M22.593 32.3844L23.1427 32.0428L22.9415 31.9801L22.3727 32.3154L22.593 32.3844Z" fill="#0094FF"/>
<path d="M21.5838 31.5122L22.2223 31.2476L22.0865 30.9669L21.4343 31.2046L21.5838 31.5122Z" fill="#00E0FB"/>
<path d="M22.8118 32.395L23.3428 32.0522L23.1428 32.0429L22.5931 32.3844L22.8118 32.395Z" fill="#0094FF"/>
<path d="M21.4344 31.2045L22.0866 30.9667L21.9761 30.6596L21.3124 30.8679L21.4344 31.2045Z" fill="#13FCE4"/>
<path d="M23.0236 32.3468L23.5366 32.0078L23.3429 32.0522L22.8119 32.395L23.0236 32.3468Z" fill="#009CFF"/>
<path d="M21.3125 30.8681L21.9761 30.6597L21.8937 30.3338L21.2211 30.5109L21.3125 30.8681Z" fill="#30FFC7"/>
<path d="M23.2229 32.2407L23.719 31.9106L23.5365 32.0078L23.0235 32.3468L23.2229 32.2407Z" fill="#00ACFF"/>
<path d="M21.2209 30.5106L21.8935 30.3336L21.8414 29.997L21.1625 30.1417L21.2209 30.5106Z" fill="#49FFAD"/>
<path d="M21.1625 30.1419L21.8414 29.9972L21.821 29.6585L21.1389 29.7706L21.1625 30.1419Z" fill="#6AFF8D"/>
<path d="M21.1389 29.7706L21.821 29.6585L21.8331 29.3264L21.1507 29.4063L21.1389 29.7706Z" fill="#87FF70"/>
<path d="M21.1508 29.4062L21.8332 29.3263L21.8776 29.0092L21.1982 29.0583L21.1508 29.4062Z" fill="#A7FF50"/>
<path d="M21.1981 29.0585L21.8776 29.0094L21.9534 28.7157L21.2799 28.7362L21.1981 29.0585Z" fill="#C4FF33"/>
<path d="M21.2801 28.736L21.9536 28.7156L22.059 28.453L21.3944 28.4478L21.2801 28.736Z" fill="#DEFF19"/>
<path d="M21.3941 28.4479L22.0587 28.4531L22.1911 28.2288L21.5382 28.2015L21.3941 28.4479Z" fill="#F8F500"/>
<path d="M21.5383 28.2014L22.1912 28.2287L22.3473 28.0486L21.7085 28.0036L21.5383 28.2014Z" fill="#FFDB00"/>
<path d="M21.7084 28.0038L22.3472 28.0488L22.523 27.918L21.9004 27.86L21.7084 28.0038Z" fill="#FFC800"/>
<path d="M21.9004 27.8599L22.523 27.9179L22.7138 27.8401L22.1091 27.7743L21.9004 27.8599Z" fill="#FFB900"/>
<path d="M22.1093 27.7743L22.7139 27.8401L22.9149 27.8176L22.3293 27.7494L22.1093 27.7743Z" fill="#FFAE00"/>
<path d="M21.7212 32.5152L22.1565 32.1899L21.9495 32.011L21.494 32.3188L21.7212 32.5152Z" fill="#008CFF"/>
<path d="M21.4939 32.3188L21.9495 32.0109L21.757 31.7832L21.2825 32.0688L21.4939 32.3188Z" fill="#009CFF"/>
<path d="M21.9584 32.6531L22.3727 32.3153L22.1564 32.1897L21.7211 32.5151L21.9584 32.6531Z" fill="#0080FF"/>
<path d="M21.2824 32.0688L21.757 31.7832L21.5838 31.5122L21.0919 31.7714L21.2824 32.0688Z" fill="#00B4FF"/>
<path d="M22.2 32.7291L22.593 32.3842L22.3727 32.3152L21.9584 32.6531L22.2 32.7291Z" fill="#007CFF"/>
<path d="M21.0919 31.7714L21.5837 31.5122L21.4342 31.2046L20.9272 31.4339L21.0919 31.7714Z" fill="#00D0FF"/>
<path d="M22.4398 32.7412L22.8118 32.3949L22.593 32.3843L22.2 32.7292L22.4398 32.7412Z" fill="#007CFF"/>
<path d="M20.9273 31.4339L21.4344 31.2046L21.3123 30.8681L20.7926 31.0646L20.9273 31.4339Z" fill="#09F0EE"/>
<path d="M22.6718 32.6886L23.0235 32.3466L22.8117 32.3948L22.4397 32.7411L22.6718 32.6886Z" fill="#0088FF"/>
<path d="M20.7925 31.0646L21.3122 30.8681L21.2208 30.5109L20.6913 30.6726L20.7925 31.0646Z" fill="#26FFD1"/>
<path d="M22.8903 32.5728L23.223 32.2406L23.0236 32.3466L22.6719 32.6887L22.8903 32.5728Z" fill="#0098FF"/>
<path d="M20.6913 30.6724L21.2209 30.5108L21.1625 30.1419L20.6262 30.2675L20.6913 30.6724Z" fill="#46FFB1"/>
<path d="M23.0896 32.3959L23.4049 32.079L23.223 32.2405L22.8904 32.5727L23.0896 32.3959Z" fill="#00ACFF"/>
<path d="M20.6262 30.2676L21.1625 30.142L21.1389 29.7707L20.5991 29.8598L20.6262 30.2676Z" fill="#66FF90"/>
<path d="M20.5991 29.8599L21.1389 29.7707L21.1508 29.4064L20.611 29.4597L20.5991 29.8599Z" fill="#8AFF6D"/>
<path d="M20.6111 29.4596L21.1509 29.4064L21.1982 29.0585L20.6618 29.0774L20.6111 29.4596Z" fill="#AAFF4D"/>
<path d="M20.6618 29.0773L21.1982 29.0585L21.28 28.7362L20.7504 28.723L20.6618 29.0773Z" fill="#CAFF2C"/>
<path d="M20.7505 28.723L21.28 28.7362L21.3943 28.448L20.875 28.406L20.7505 28.723Z" fill="#E7FF0F"/>
<path d="M20.8748 28.406L21.3941 28.448L21.5382 28.2016L21.0321 28.1349L20.8748 28.406Z" fill="#FFE600"/>
<path d="M21.0321 28.1347L21.5382 28.2014L21.7084 28.0035L21.2183 27.9169L21.0321 28.1347Z" fill="#FFCC00"/>
<path d="M21.2185 27.9171L21.7086 28.0037L21.9006 27.86L21.4288 27.7587L21.2185 27.9171Z" fill="#FFB600"/>
<path d="M21.4286 27.7587L21.9004 27.86L22.1091 27.7744L21.6576 27.6643L21.4286 27.7587Z" fill="#FFA300"/>
<path d="M21.6576 27.6642L22.1092 27.7743L22.3292 27.7494L21.8992 27.6367L21.6576 27.6642Z" fill="#FF9800"/>
<path d="M21.8992 27.6368L22.3292 27.7495L22.5547 27.7862L22.147 27.6771L21.8992 27.6368Z" fill="#FF9400"/>
<path d="M22.1469 27.6769L22.5546 27.786L22.7795 27.8835L22.3942 27.7842L22.1469 27.6769Z" fill="#FF9400"/>
<path d="M21.4327 32.8285L21.7212 32.5152L21.494 32.3187L21.1837 32.6132L21.4327 32.8285Z" fill="#0074FF"/>
<path d="M21.1838 32.6132L21.4941 32.3187L21.2826 32.0687L20.952 32.3394L21.1838 32.6132Z" fill="#0084FF"/>
<path d="M21.6926 32.9799L21.9585 32.6532L21.7212 32.5152L21.4327 32.8286L21.6926 32.9799Z" fill="#0068FF"/>
<path d="M20.9518 32.3393L21.2825 32.0686L21.092 31.7712L20.7428 32.0135L20.9518 32.3393Z" fill="#00A0FF"/>
<path d="M21.9569 33.0634L22.1999 32.7291L21.9584 32.6531L21.6924 32.9798L21.9569 33.0634Z" fill="#0064FF"/>
<path d="M20.7429 32.0136L21.0921 31.7713L20.9274 31.4337L20.562 31.6439L20.7429 32.0136Z" fill="#00C0FF"/>
<path d="M22.2195 33.077L22.4398 32.7411L22.2 32.7291L21.957 33.0634L22.2195 33.077Z" fill="#0064FF"/>
<path d="M20.562 31.644L20.9274 31.4338L20.7927 31.0645L20.4138 31.2394L20.562 31.644Z" fill="#00E4F8"/>
<path d="M22.4737 33.0201L22.6719 32.6887L22.4399 32.7412L22.2196 33.0771L22.4737 33.0201Z" fill="#0070FF"/>
<path d="M20.4138 31.2394L20.7927 31.0645L20.6914 30.6724L20.3021 30.8099L20.4138 31.2394Z" fill="#1FFFD7"/>
<path d="M22.7126 32.8938L22.8902 32.573L22.6718 32.6889L22.4735 33.0203L22.7126 32.8938Z" fill="#0080FF"/>
<path d="M20.3021 30.81L20.6914 30.6725L20.6263 30.2675L20.2298 30.3662L20.3021 30.81Z" fill="#40FFB7"/>
<path d="M22.9308 32.7005L23.0896 32.396L22.8903 32.5728L22.7127 32.8937L22.9308 32.7005Z" fill="#0098FF"/>
<path d="M20.2297 30.3661L20.6262 30.2674L20.5991 29.8597L20.1991 29.9192L20.2297 30.3661Z" fill="#66FF90"/>
<path d="M23.1222 32.445L23.2644 32.1625L23.0895 32.396L22.9308 32.7005L23.1222 32.445Z" fill="#00B4FF"/>
<path d="M20.1991 29.9191L20.5991 29.8596L20.6109 29.4595L20.2111 29.4803L20.1991 29.9191Z" fill="#8AFF6D"/>
<path d="M20.2113 29.4804L20.6111 29.4596L20.6619 29.0774L20.266 29.0611L20.2113 29.4804Z" fill="#ADFF49"/>
<path d="M20.2659 29.0611L20.6618 29.0775L20.7504 28.7231L20.3621 28.6722L20.2659 29.0611Z" fill="#D1FF26"/>
<path d="M20.3622 28.6722L20.7505 28.7231L20.8749 28.4061L20.4978 28.324L20.3622 28.6722Z" fill="#F4F802"/>
<path d="M20.4978 28.324L20.8749 28.406L21.0322 28.1349L20.6696 28.026L20.4978 28.324Z" fill="#FFD700"/>
<path d="M20.6697 28.026L21.0323 28.1348L21.2185 27.917L20.8733 27.7866L20.6697 28.026Z" fill="#FFB900"/>
<path d="M20.8733 27.7865L21.2185 27.9169L21.4288 27.7586L21.1036 27.6122L20.8733 27.7865Z" fill="#FF9F00"/>
<path d="M21.1035 27.6122L21.4287 27.7585L21.6577 27.6642L21.3545 27.5083L21.1035 27.6122Z" fill="#FF8D00"/>
<path d="M21.3545 27.5085L21.6577 27.6644L21.8993 27.6368L21.6195 27.478L21.3545 27.5085Z" fill="#FF8200"/>
<path d="M21.6194 27.4778L21.8992 27.6367L22.1469 27.677L21.8913 27.5219L21.6194 27.4778Z" fill="#FF7A00"/>
<path d="M21.8913 27.522L22.1469 27.6771L22.3941 27.7844L22.1628 27.6398L21.8913 27.522Z" fill="#FF7E00"/>
<path d="M23.2643 32.1624L23.5646 31.8659L23.4048 32.0791L23.0895 32.396L23.2643 32.1624Z" fill="#00C8FF"/>
<path d="M21.2185 33.5414L21.2122 33.3574L20.9177 33.1027L20.9017 33.2674L21.2185 33.5414Z" fill="#0028FF"/>
<path d="M20.9017 33.2675L20.9177 33.1028L20.6434 32.7791L20.6064 32.9192L20.9017 33.2675Z" fill="#0040FF"/>
<path d="M21.5494 33.7348L21.5197 33.5369L21.2123 33.3576L21.2186 33.5416L21.5494 33.7348Z" fill="#0018FF"/>
<path d="M20.6067 32.9193L20.6436 32.7791L20.3961 32.3942L20.3403 32.5051L20.6067 32.9193Z" fill="#0060FF"/>
<path d="M21.8861 33.842L21.8325 33.6363L21.5198 33.5368L21.5495 33.7346L21.8861 33.842Z" fill="#0010FF"/>
<path d="M20.3403 32.5051L20.3961 32.3942L20.1816 31.9573L20.1094 32.0351L20.3403 32.5051Z" fill="#0088FF"/>
<path d="M22.2201 33.8607L22.1428 33.6535L21.8323 33.6365L21.8859 33.8421L22.2201 33.8607Z" fill="#0014FF"/>
<path d="M20.1092 32.035L20.1815 31.9572L20.0054 31.4789L19.9195 31.5203L20.1092 32.035Z" fill="#00B4FF"/>
<path d="M22.544 33.7897L22.4435 33.5871L22.143 33.6534L22.2203 33.8606L22.544 33.7897Z" fill="#0020FF"/>
<path d="M19.9196 31.5203L20.0054 31.4789L19.8723 30.9709L19.7761 30.9735L19.9196 31.5203Z" fill="#02E8F4"/>
<path d="M22.8489 33.6301L22.7265 33.4384L22.4434 33.5869L22.5439 33.7895L22.8489 33.6301Z" fill="#0038FF"/>
<path d="M19.776 30.9736L19.8723 30.971L19.7857 30.4457L19.6826 30.408L19.776 30.9736Z" fill="#30FFC7"/>
<path d="M23.1275 33.386L22.9849 33.2112L22.7265 33.4386L22.8489 33.6304L23.1275 33.386Z" fill="#0054FF"/>
<path d="M19.6827 30.4081L19.7858 30.4458L19.7483 29.9163L19.642 29.8378L19.6827 30.4081Z" fill="#60FF97"/>
<path d="M23.3723 33.0617L23.2118 32.9097L22.9847 33.211L23.1273 33.3858L23.3723 33.0617Z" fill="#007CFF"/>
<path d="M19.6418 29.8376L19.7482 29.9162L19.7611 29.396L19.6554 29.277L19.6418 29.8376Z" fill="#8DFF6A"/>
<path d="M23.5771 32.6658L23.4014 32.5417L23.2118 32.9099L23.3723 33.0619L23.5771 32.6658Z" fill="#00A8FF"/>
<path d="M19.6555 29.277L19.7612 29.396L19.8247 28.8984L19.7236 28.7404L19.6555 29.277Z" fill="#BEFF39"/>
<path d="M23.7361 32.2069L23.5484 32.1155L23.4014 32.5416L23.5771 32.6657L23.7361 32.2069Z" fill="#00D8FF"/>
<path d="M19.7235 28.7407L19.8246 28.8986L19.9374 28.4366L19.8448 28.2422L19.7235 28.7407Z" fill="#EBFF0C"/>
<path d="M23.845 31.6969L23.6488 31.642L23.5486 32.1155L23.7363 32.207L23.845 31.6969Z" fill="#23FFD4"/>
<path d="M19.8449 28.2422L19.9375 28.4366L20.0973 28.0226L20.0168 27.7952L19.8449 28.2422Z" fill="#FFD300"/>
<path d="M23.8998 31.1481L23.6991 31.1328L23.6487 31.6419L23.8448 31.6967L23.8998 31.1481Z" fill="#50FFA7"/>
<path d="M20.0168 27.7951L20.0972 28.0225L20.3001 27.6677L20.2352 27.4119L20.0168 27.7951Z" fill="#FFA700"/>
<path d="M23.8992 30.5751L23.698 30.6014L23.6992 31.1329L23.8999 31.1482L23.8992 30.5751Z" fill="#80FF77"/>
<path d="M20.2353 27.4119L20.3001 27.6677L20.5411 27.3822L20.4949 27.1033L20.2353 27.4119Z" fill="#FF8200"/>
<path d="M23.8423 29.9928L23.6447 30.0616L23.698 30.6016L23.8992 30.5753L23.8423 29.9928Z" fill="#B1FF46"/>
<path d="M20.4949 27.1033L20.5411 27.3823L20.814 27.1742L20.7892 26.8781L20.4949 27.1033Z" fill="#FF6000"/>
<path d="M23.7303 29.4163L23.5404 29.5273L23.6446 30.0614L23.8423 29.9926L23.7303 29.4163Z" fill="#DEFF19"/>
<path d="M20.789 26.8779L20.8138 27.174L21.1116 27.0495L21.1103 26.7429L20.789 26.8779Z" fill="#FF4A00"/>
<path d="M23.5657 28.8618L23.3875 29.0136L23.5403 29.5273L23.7302 29.4163L23.5657 28.8618Z" fill="#FFE200"/>
<path d="M21.1102 26.743L21.1116 27.0496L21.4264 27.0125L21.4499 26.7024L21.1102 26.743Z" fill="#FF3800"/>
<path d="M23.3531 28.3442L23.1901 28.5341L23.3876 29.0135L23.5659 28.8617L23.3531 28.3442Z" fill="#FFB200"/>
<path d="M21.4502 26.7022L21.4267 27.0123L21.7499 27.0642L21.799 26.7578L21.4502 26.7022Z" fill="#FF3000"/>
<path d="M23.0974 27.8781L22.9531 28.1025L23.1901 28.5342L23.3531 28.3442L23.0974 27.8781Z" fill="#FF8D00"/>
<path d="M21.7988 26.758L21.7497 27.0644L22.0727 27.2042L22.1474 26.9085L21.7988 26.758Z" fill="#FF3400"/>
<path d="M22.8057 27.4764L22.6826 27.7304L22.9529 28.1026L23.0972 27.8782L22.8057 27.4764Z" fill="#FF6800"/>
<path d="M22.1475 26.9086L22.0727 27.2042L22.3866 27.4282L22.4862 27.1502L22.1475 26.9086Z" fill="#FF3B00"/>
<path d="M22.4862 27.1501L22.3866 27.4282L22.6827 27.7304L22.8057 27.4764L22.4862 27.1501Z" fill="#FF4E00"/>
<path d="M21.2124 33.3576L21.2725 33.1148L21.0009 32.8799L20.9179 33.103L21.2124 33.3576Z" fill="#0040FF"/>
<path d="M20.9177 33.1027L21.0006 32.8797L20.7476 32.581L20.6433 32.779L20.9177 33.1027Z" fill="#0058FF"/>
<path d="M21.5196 33.5368L21.5559 33.2799L21.2724 33.1146L21.2123 33.3575L21.5196 33.5368Z" fill="#0034FF"/>
<path d="M20.6435 32.7791L20.7477 32.5811L20.5196 32.2259L20.396 32.3941L20.6435 32.7791Z" fill="#0074FF"/>
<path d="M21.8324 33.6365L21.8444 33.3716L21.5559 33.2801L21.5196 33.537L21.8324 33.6365Z" fill="#002CFF"/>
<path d="M20.3961 32.3942L20.5197 32.2259L20.322 31.8228L20.1815 31.9573L20.3961 32.3942Z" fill="#009CFF"/>
<path d="M22.1428 33.6532L22.1306 33.3867L21.8443 33.3714L21.8323 33.6363L22.1428 33.6532Z" fill="#0030FF"/>
<path d="M20.1816 31.9572L20.322 31.8228L20.1599 31.3816L20.0055 31.479L20.1816 31.9572Z" fill="#00C4FF"/>
<path d="M22.4433 33.5871L22.4077 33.3252L22.1306 33.3868L22.1428 33.6534L22.4433 33.5871Z" fill="#003CFF"/>
<path d="M20.0054 31.479L20.1598 31.3816L20.0373 30.9131L19.8722 30.971L20.0054 31.479Z" fill="#0CF4EB"/>
<path d="M22.7263 33.4385L22.6685 33.1877L22.4076 33.3252L22.4433 33.587L22.7263 33.4385Z" fill="#0050FF"/>
<path d="M19.8723 30.971L20.0374 30.9131L19.958 30.4288L19.7858 30.4457L19.8723 30.971Z" fill="#36FFC1"/>
<path d="M22.9848 33.2111L22.9066 32.9775L22.6686 33.1878L22.7265 33.4386L22.9848 33.2111Z" fill="#006CFF"/>
<path d="M19.7857 30.4456L19.9579 30.4287L19.9238 29.9408L19.7482 29.9162L19.7857 30.4456Z" fill="#60FF97"/>
<path d="M23.2118 32.9097L23.1156 32.6992L22.9066 32.9774L22.9848 33.211L23.2118 32.9097Z" fill="#0090FF"/>
<path d="M19.7483 29.9162L19.9239 29.9408L19.9363 29.4616L19.7613 29.396L19.7483 29.9162Z" fill="#8DFF6A"/>
<path d="M23.4015 32.5416L23.29 32.3595L23.1156 32.6991L23.2119 32.9097L23.4015 32.5416Z" fill="#00B8FF"/>
<path d="M19.7612 29.396L19.9362 29.4616L19.9952 29.0034L19.8247 28.8984L19.7612 29.396Z" fill="#B7FF40"/>
<path d="M23.5485 32.1156L23.4251 31.9666L23.29 32.3596L23.4015 32.5417L23.5485 32.1156Z" fill="#02E8F4"/>
<path d="M19.8248 28.8984L19.9953 29.0034L20.0997 28.5783L19.9376 28.4364L19.8248 28.8984Z" fill="#E1FF16"/>
<path d="M23.6486 31.642L23.5169 31.5301L23.425 31.9666L23.5483 32.1155L23.6486 31.642Z" fill="#29FFCE"/>
<path d="M19.9374 28.4364L20.0995 28.5782L20.247 28.1974L20.0971 28.0223L19.9374 28.4364Z" fill="#FFDE00"/>
<path d="M23.6991 31.1328L23.563 31.0611L23.517 31.53L23.6487 31.6419L23.6991 31.1328Z" fill="#53FFA4"/>
<path d="M20.0973 28.0225L20.2472 28.1977L20.4343 27.8716L20.3001 27.6678L20.0973 28.0225Z" fill="#FFB600"/>
<path d="M23.6979 30.6014L23.5616 30.5717L23.5631 31.0611L23.6991 31.1329L23.6979 30.6014Z" fill="#80FF77"/>
<path d="M20.3 27.6677L20.4342 27.8715L20.6563 27.6092L20.541 27.3822L20.3 27.6677Z" fill="#FF9400"/>
<path d="M23.6445 30.0616L23.5121 30.075L23.5615 30.5719L23.6978 30.6016L23.6445 30.0616Z" fill="#ADFF49"/>
<path d="M20.541 27.3822L20.6563 27.6093L20.9077 27.4183L20.814 27.1741L20.541 27.3822Z" fill="#FF7700"/>
<path d="M23.5404 29.5273L23.416 29.5834L23.5123 30.0748L23.6446 30.0614L23.5404 29.5273Z" fill="#D7FF1F"/>
<path d="M20.8138 27.1741L20.9076 27.4183L21.1817 27.3043L21.1116 27.0496L20.8138 27.1741Z" fill="#FF6000"/>
<path d="M23.3875 29.0134L23.2752 29.1109L23.416 29.5834L23.5403 29.5272L23.3875 29.0134Z" fill="#FEED00"/>
<path d="M21.1117 27.0496L21.1818 27.3043L21.4714 27.2706L21.4265 27.0125L21.1117 27.0496Z" fill="#FF5200"/>
<path d="M23.1899 28.5343L23.0933 28.6704L23.2752 29.1111L23.3875 29.0137L23.1899 28.5343Z" fill="#FFC400"/>
<path d="M21.4265 27.0126L21.4715 27.2707L21.7688 27.3187L21.7498 27.0645L21.4265 27.0126Z" fill="#FF4A00"/>
<path d="M22.953 28.1026L22.8754 28.2735L23.0935 28.6704L23.1901 28.5343L22.953 28.1026Z" fill="#FF9F00"/>
<path d="M21.7498 27.0643L21.7688 27.3185L22.0658 27.4472L22.0728 27.2041L21.7498 27.0643Z" fill="#FF4A00"/>
<path d="M22.6829 27.7304L22.6269 27.9313L22.8754 28.2734L22.9531 28.1025L22.6829 27.7304Z" fill="#FF7E00"/>
<path d="M22.0728 27.2042L22.0659 27.4474L22.3545 27.6534L22.3866 27.4282L22.0728 27.2042Z" fill="#FF5500"/>
<path d="M22.3867 27.4281L22.3546 27.6534L22.6268 27.9313L22.6828 27.7304L22.3867 27.4281Z" fill="#FF6800"/>
<path d="M21.2725 33.1146L21.4328 32.8285L21.1838 32.6132L21.0009 32.8797L21.2725 33.1146Z" fill="#005CFF"/>
<path d="M21.0009 32.8796L21.1838 32.6131L20.9519 32.3393L20.7479 32.581L21.0009 32.8796Z" fill="#0070FF"/>
<path d="M21.5558 33.2799L21.6925 32.9798L21.4325 32.8284L21.2723 33.1146L21.5558 33.2799Z" fill="#004CFF"/>
<path d="M20.7479 32.5812L20.952 32.3395L20.743 32.0137L20.5197 32.226L20.7479 32.5812Z" fill="#008CFF"/>
<path d="M21.8444 33.3715L21.9571 33.0635L21.6926 32.9799L21.5559 33.28L21.8444 33.3715Z" fill="#0048FF"/>
<path d="M20.5195 32.226L20.7427 32.0138L20.5618 31.6441L20.3218 31.8229L20.5195 32.226Z" fill="#00ACFF"/>
<path d="M22.1306 33.3868L22.2195 33.0772L21.957 33.0635L21.8443 33.3715L22.1306 33.3868Z" fill="#004CFF"/>
<path d="M20.3219 31.8229L20.5619 31.6441L20.4137 31.2395L20.1598 31.3817L20.3219 31.8229Z" fill="#00D4FF"/>
<path d="M22.4077 33.3253L22.4736 33.0203L22.2196 33.0773L22.1307 33.3869L22.4077 33.3253Z" fill="#0054FF"/>
<path d="M20.1597 31.3816L20.4136 31.2395L20.3019 30.81L20.0373 30.9131L20.1597 31.3816Z" fill="#16FFE1"/>
<path d="M22.6686 33.1877L22.7126 32.8937L22.4735 33.0201L22.4077 33.3251L22.6686 33.1877Z" fill="#0068FF"/>
<path d="M20.0375 30.9132L20.3021 30.8101L20.2299 30.3663L19.9581 30.4289L20.0375 30.9132Z" fill="#3CFFBA"/>
<path d="M22.9066 32.9776L22.9308 32.7006L22.7127 32.8938L22.6686 33.1878L22.9066 32.9776Z" fill="#0080FF"/>
<path d="M19.9578 30.4288L20.2297 30.3662L20.1991 29.9192L19.9237 29.9409L19.9578 30.4288Z" fill="#63FF94"/>
<path d="M23.1156 32.6993L23.1222 32.4452L22.9308 32.7006L22.9066 32.9776L23.1156 32.6993Z" fill="#00A0FF"/>
<path d="M19.924 29.9408L20.1993 29.9191L20.2114 29.4803L19.9364 29.4615L19.924 29.9408Z" fill="#8DFF6A"/>
<path d="M23.29 32.3595L23.2819 32.1334L23.1222 32.445L23.1156 32.6992L23.29 32.3595Z" fill="#00C8FF"/>
<path d="M19.9362 29.4616L20.2112 29.4803L20.2659 29.061L19.9952 29.0034L19.9362 29.4616Z" fill="#B4FF43"/>
<path d="M23.4251 31.9665L23.4055 31.7731L23.2819 32.1333L23.29 32.3594L23.4251 31.9665Z" fill="#0CF4EB"/>
<path d="M19.9952 29.0033L20.2659 29.0609L20.3621 28.6719L20.0996 28.5782L19.9952 29.0033Z" fill="#DBFF1C"/>
<path d="M23.517 31.5301L23.4896 31.3733L23.4055 31.7732L23.4251 31.9666L23.517 31.5301Z" fill="#30FFC7"/>
<path d="M20.0996 28.5782L20.3622 28.672L20.4978 28.3238L20.2471 28.1974L20.0996 28.5782Z" fill="#FEED00"/>
<path d="M23.5631 31.0611L23.5317 30.9438L23.4897 31.3732L23.5171 31.5301L23.5631 31.0611Z" fill="#56FFA0"/>
<path d="M20.2473 28.1977L20.498 28.324L20.6697 28.0261L20.4344 27.8716L20.2473 28.1977Z" fill="#FFC800"/>
<path d="M23.5674 30.5719L23.5303 30.496L23.532 30.9439L23.5692 31.0613L23.5674 30.5719Z" fill="#80FF77"/>
<path d="M20.4343 27.8714L20.6696 28.0259L20.8732 27.7864L20.6563 27.6092L20.4343 27.8714Z" fill="#FFA700"/>
<path d="M23.5123 30.0748L23.4851 30.0414L23.5303 30.496L23.5617 30.5718L23.5123 30.0748Z" fill="#A7FF50"/>
<path d="M20.6563 27.6093L20.8732 27.7866L21.1035 27.6123L20.9077 27.4183L20.6563 27.6093Z" fill="#FF8D00"/>
<path d="M23.4161 29.5836L23.3971 29.5921L23.4851 30.0414L23.5123 30.0749L23.4161 29.5836Z" fill="#CEFF29"/>
<path d="M20.9078 27.4183L21.1036 27.6123L21.3546 27.5083L21.1819 27.3042L20.9078 27.4183Z" fill="#FF7700"/>
<path d="M23.2752 29.1111L23.2682 29.1602L23.3969 29.5921L23.416 29.5836L23.2752 29.1111Z" fill="#F4F802"/>
<path d="M21.1818 27.3041L21.3544 27.5083L21.6194 27.4778L21.4714 27.2705L21.1818 27.3041Z" fill="#FF6C00"/>
<path d="M23.0934 28.6701L23.102 28.7572L23.2682 29.16L23.2752 29.1109L23.0934 28.6701Z" fill="#FFD300"/>
<path d="M21.4715 27.2706L21.6195 27.4779L21.8914 27.5221L21.7688 27.3186L21.4715 27.2706Z" fill="#FF6400"/>
<path d="M22.8754 28.2734L22.9029 28.3947L23.1022 28.7573L23.0935 28.6703L22.8754 28.2734Z" fill="#FFB200"/>
<path d="M21.7688 27.3186L21.8914 27.522L22.163 27.6398L22.0658 27.4473L21.7688 27.3186Z" fill="#FF6400"/>
<path d="M22.6269 27.9312L22.6757 28.0821L22.9029 28.3947L22.8754 28.2733L22.6269 27.9312Z" fill="#FF9400"/>
<path d="M22.0658 27.4472L22.1629 27.6397L22.4267 27.8281L22.3544 27.6533L22.0658 27.4472Z" fill="#FF6C00"/>
<path d="M22.3544 27.6532L22.4267 27.828L22.6755 28.082L22.6267 27.9311L22.3544 27.6532Z" fill="#FF7E00"/>
<path d="M21.2567 33.6535L21.2186 33.5417L20.9018 33.2676L20.9186 33.3611L21.2567 33.6535Z" fill="#000CFF"/>
<path d="M20.9186 33.3611L20.9017 33.2676L20.6065 32.9193L20.6036 32.9895L20.9186 33.3611Z" fill="#0028FF"/>
<path d="M21.6098 33.8596L21.5494 33.7347L21.2187 33.5416L21.2568 33.6534L21.6098 33.8596Z" fill="#0000FF"/>
<path d="M20.6035 32.9895L20.6064 32.9193L20.34 32.5052L20.3192 32.5476L20.6035 32.9895Z" fill="#004CFF"/>
<path d="M21.9689 33.9743L21.8859 33.842L21.5493 33.7347L21.6096 33.8596L21.9689 33.9743Z" fill="#0000FF"/>
<path d="M20.3193 32.5473L20.3401 32.5049L20.1092 32.0349L20.0728 32.0457L20.3193 32.5473Z" fill="#0074FF"/>
<path d="M22.3257 33.9942L22.2201 33.8605L21.8858 33.8419L21.9689 33.9741L22.3257 33.9942Z" fill="#0000FF"/>
<path d="M20.0728 32.046L20.1091 32.0351L19.9195 31.5205L19.8702 31.4967L20.0728 32.046Z" fill="#00A8FF"/>
<path d="M22.6715 33.9188L22.5438 33.7896L22.2201 33.8606L22.3258 33.9943L22.6715 33.9188Z" fill="#0008FF"/>
<path d="M19.8703 31.4966L19.9195 31.5204L19.776 30.9736L19.717 30.9128L19.8703 31.4966Z" fill="#00E0FB"/>
<path d="M22.9977 33.7489L22.849 33.6301L22.544 33.7895L22.6717 33.9187L22.9977 33.7489Z" fill="#0020FF"/>
<path d="M19.7168 30.9129L19.7759 30.9737L19.6824 30.4082L19.6169 30.3088L19.7168 30.9129Z" fill="#2CFFCA"/>
<path d="M23.2956 33.4885L23.1275 33.386L22.8489 33.6304L22.9976 33.7492L23.2956 33.4885Z" fill="#0040FF"/>
<path d="M19.6171 30.3086L19.6826 30.4079L19.642 29.8377L19.5734 29.6993L19.6171 30.3086Z" fill="#5DFF9A"/>
<path d="M23.5576 33.1426L23.3723 33.0618L23.1274 33.3858L23.2954 33.4883L23.5576 33.1426Z" fill="#0068FF"/>
<path d="M19.5733 29.6995L19.6418 29.8379L19.6554 29.2772L19.5876 29.1001L19.5733 29.6995Z" fill="#90FF66"/>
<path d="M23.777 32.7199L23.5771 32.6658L23.3723 33.0619L23.5576 33.1427L23.777 32.7199Z" fill="#0098FF"/>
<path d="M19.5876 29.1001L19.6554 29.2772L19.7235 28.7406L19.6601 28.5262L19.5876 29.1001Z" fill="#C1FF36"/>
<path d="M23.9477 32.2298L23.7362 32.2069L23.5772 32.6656L23.7771 32.7197L23.9477 32.2298Z" fill="#00CCFF"/>
<path d="M19.6602 28.5259L19.7236 28.7404L19.8449 28.2419L19.7896 27.9925L19.6602 28.5259Z" fill="#F4F802"/>
<path d="M24.0646 31.6848L23.8449 31.6969L23.7363 32.207L23.9478 32.2299L24.0646 31.6848Z" fill="#1CFFDB"/>
<path d="M19.7895 27.9925L19.8448 28.2419L20.0167 27.7949L19.973 27.5138L19.7895 27.9925Z" fill="#FFC400"/>
<path d="M24.1242 31.0981L23.8999 31.1482L23.845 31.6968L24.0647 31.6847L24.1242 31.0981Z" fill="#4DFFAA"/>
<path d="M19.973 27.5139L20.0166 27.7951L20.2351 27.4118L20.2064 27.1033L19.973 27.5139Z" fill="#FF9800"/>
<path d="M24.1242 30.4852L23.8992 30.5751L23.8999 31.1482L24.1242 31.0981L24.1242 30.4852Z" fill="#80FF77"/>
<path d="M20.2064 27.1033L20.2351 27.4119L20.4947 27.1032L20.484 26.7722L20.2064 27.1033Z" fill="#FF6F00"/>
<path d="M24.0641 29.8619L23.8424 29.9925L23.8992 30.575L24.1242 30.4851L24.0641 29.8619Z" fill="#B4FF43"/>
<path d="M20.4841 26.7721L20.4949 27.1031L20.7892 26.8778L20.7989 26.5303L20.4841 26.7721Z" fill="#FF4A00"/>
<path d="M23.9448 29.2452L23.7303 29.4163L23.8422 29.9927L24.0639 29.862L23.9448 29.2452Z" fill="#E4FF13"/>
<path d="M20.799 26.5303L20.7893 26.8778L21.1105 26.7428L21.1426 26.3849L20.799 26.5303Z" fill="#FF3000"/>
<path d="M23.7694 28.6516L23.5659 28.8619L23.7303 29.4164L23.9448 29.2453L23.7694 28.6516Z" fill="#FFD300"/>
<path d="M21.1424 26.3852L21.1103 26.743L21.4499 26.7025L21.5058 26.3411L21.1424 26.3852Z" fill="#FF2200"/>
<path d="M23.5421 28.0974L23.3531 28.3442L23.566 28.8617L23.7695 28.6515L23.5421 28.0974Z" fill="#FFA300"/>
<path d="M21.5059 26.341L21.45 26.7024L21.7989 26.7579L21.8793 26.3999L21.5059 26.341Z" fill="#FF1A00"/>
<path d="M23.2687 27.5983L23.0974 27.8781L23.353 28.3442L23.542 28.0974L23.2687 27.5983Z" fill="#FF7A00"/>
<path d="M21.8793 26.3999L21.7989 26.758L22.1475 26.9086L22.2524 26.5607L21.8793 26.3999Z" fill="#FF1A00"/>
<path d="M22.9569 27.168L22.8058 27.4762L23.0973 27.878L23.2687 27.5982L22.9569 27.168Z" fill="#FF5500"/>
<path d="M22.2525 26.5606L22.1476 26.9085L22.4863 27.1502L22.615 26.8191L22.2525 26.5606Z" fill="#FF2500"/>
<path d="M22.6149 26.819L22.4862 27.15L22.8058 27.4762L22.9568 27.1681L22.6149 26.819Z" fill="#FF3800"/>
<defs>
<linearGradient id="paint0_linear" x1="18.9804" y1="21.9813" x2="18.9804" y2="34.0373" gradientUnits="userSpaceOnUse">
<stop stop-color="#FF1A00"/>
<stop offset="0.244946" stop-color="#F8F500"/>
<stop offset="0.494291" stop-color="#87FF70"/>
<stop offset="0.747869" stop-color="#00E0FB"/>
<stop offset="1" stop-color="#004CFF"/>
</linearGradient>
</defs>
</svg>
