<svg width="80" height="80" viewBox="0 0 80 80" fill="none" xmlns="http://www.w3.org/2000/svg">
<circle cx="40" cy="40" r="40" fill="white"/>
<path fill-rule="evenodd" clip-rule="evenodd" d="M41.6525 23.1948C36.0835 23.919 31.0619 27.5074 28.5652 32.5472C26.828 36.0544 26.7999 36.2716 26.6798 47.1991L26.5719 56.9873H31.9758H37.3797V45.2767V33.5662L36.8845 34.0117C36.6123 34.2568 36.0343 35.1739 35.6005 36.0496L34.8117 37.6419L34.6894 45.9163L34.5671 54.1907H32.1214H29.6756L29.6003 46.2872C29.5499 40.9891 29.6179 37.9428 29.8064 37.0461C30.5101 33.6987 33.1351 30.0213 36.2601 28.0048C37.6385 27.1154 41.0215 25.8596 42.0394 25.8596C42.5068 25.8596 42.5158 26.1595 42.5158 41.4595V57.0591L44.5864 56.9007C47.2506 56.6972 48.8878 56.3482 50.6964 55.5982C56.0243 53.3894 60.1131 48.5252 61.0787 43.2474C61.2335 42.4016 61.3719 37.8265 61.4081 32.3648L61.4705 22.9414H56.1509H50.8314V34.6143C50.8314 41.0344 50.8811 46.2872 50.942 46.2872C51.0029 46.2872 51.3925 45.7959 51.8078 45.1955C53.3486 42.9689 53.3745 42.7967 53.5154 33.8847L53.644 25.738H56.0898H58.5356L58.6001 33.589C58.6718 42.3155 58.5581 43.3023 57.1486 46.1768C56.206 48.0989 54.0363 50.5208 52.1296 51.7793C50.715 52.7128 47.2486 54.0599 46.2456 54.0659L45.6953 54.0691V38.5052V22.9414L44.4113 22.9723C43.705 22.9893 42.4635 23.0893 41.6525 23.1948ZM20.494 24.5705C20.0572 25.0654 19.468 25.9681 19.1848 26.5768C18.6819 27.6573 18.668 28.0291 18.5995 42.2138L18.5293 56.7441H20.0058H21.4823V40.2075C21.4823 31.1124 21.4388 23.671 21.3855 23.671C21.3321 23.671 20.931 24.0759 20.494 24.5705Z" fill="#1454C4"/>
</svg>
