<svg width="50" height="40" viewBox="0 0 50 40" fill="none" xmlns="http://www.w3.org/2000/svg">
<path fill-rule="evenodd" clip-rule="evenodd" d="M26.9243 0.297088C20.4398 1.14616 14.5927 5.35329 11.6857 11.262C9.66288 15.3739 9.63013 15.6285 9.4903 28.4401L9.36471 39.9159H15.6569H21.9491V26.1863V12.4566L21.3725 12.9789C21.0555 13.2663 20.3826 14.3415 19.8774 15.3682L18.959 17.2351L18.8166 26.9361L18.6742 36.6371H15.8264H12.9786L12.8909 27.3709C12.8322 21.1594 12.9114 17.5878 13.1309 16.5366C13.9502 12.612 17.0068 8.30051 20.6454 5.93635C22.2504 4.89369 26.1895 3.42136 27.3748 3.42136C27.919 3.42136 27.9295 3.77291 27.9295 21.7108V40L30.3405 39.8144C33.4426 39.5758 35.3489 39.1666 37.4549 38.2873C43.6585 35.6976 48.4195 29.9948 49.5438 23.807C49.724 22.8154 49.8852 17.4515 49.9274 11.0481L50 0H43.806H37.6121V13.6854C37.6121 21.2124 37.6699 27.3709 37.7408 27.3709C37.8117 27.3709 38.2654 26.795 38.7489 26.091C40.543 23.4805 40.5732 23.2787 40.7372 12.8301L40.887 3.27881H43.7348H46.5826L46.6578 12.4834C46.7413 22.7144 46.6088 23.8714 44.9676 27.2415C43.8701 29.495 41.3438 32.3344 39.1237 33.8099C37.4765 34.9045 33.4403 36.4837 32.2724 36.4908L31.6317 36.4945V18.2473V0L30.1366 0.0362096C29.3141 0.0561676 27.8686 0.173349 26.9243 0.297088ZM2.28764 1.90998C1.77902 2.49018 1.09299 3.54852 0.763211 4.26216C0.177703 5.52892 0.16147 5.96486 0.0817316 22.5952L0 39.6308H1.71922H3.43844V20.2431C3.43844 9.57981 3.38775 0.855341 3.32566 0.855341C3.26358 0.855341 2.79654 1.33005 2.28764 1.90998Z" fill="#0C0C0C"/>
</svg>
