<svg width="80" height="80" viewBox="0 0 80 80" fill="none" xmlns="http://www.w3.org/2000/svg">
<circle cx="40" cy="40" r="40" fill="#FF6B6B"/>
<path fill-rule="evenodd" clip-rule="evenodd" d="M36.3345 13.5866C33.4103 14.0936 32.2412 14.523 30.1252 15.867C26.506 18.1654 22.9439 23.1266 21.3887 28.035C20.6833 30.2606 20.697 30.9243 21.4661 31.7964C22.2743 32.7132 22.249 33.3519 21.327 35.2851C20.6605 36.6828 20.5784 37.0294 20.5892 38.3993C20.599 39.6201 20.7334 40.2795 21.2357 41.5709C22.2003 44.0511 22.3828 45.2312 22.1066 47.1998C21.6258 50.626 21.9419 53.4568 23.2118 57.097C24.4703 60.7047 27.4601 66.003 28.2379 66.0044C28.4237 66.0048 28.475 65.6294 28.4267 64.6209C28.3903 63.8599 28.4381 62.9386 28.533 62.5738L28.7058 61.9103L29.3701 62.9315C30.8018 65.1316 33.3429 66.4135 36.8801 66.7202C39.4411 66.9421 43.6623 66.2827 42.4596 65.8484C41.8268 65.6198 40.4212 64.1088 39.8748 63.0695C39.5572 62.4655 39.3422 61.9271 39.3967 61.8728C39.4511 61.8184 39.999 61.947 40.6139 62.1584C41.7973 62.5652 44.1699 62.6912 44.3764 62.3582C44.444 62.2494 44.1328 61.6992 43.6851 61.1351C43.2375 60.571 42.5002 59.3715 42.047 58.4697C41.3402 57.0635 41.2227 56.6441 41.2227 55.5267C41.2227 54.6367 41.3469 53.9854 41.6148 53.4712C42.1219 52.4975 46.2606 47.4645 46.6218 47.3824C46.8008 47.3416 47.4397 48.4391 48.4357 50.498C50.3105 54.3734 51.7925 56.6337 53.5046 58.2286C56.3768 60.9043 59.4562 60.594 59.4114 57.6333C59.3968 56.6571 58.4639 54.4254 58.0164 54.2955C57.8991 54.2615 57.6425 54.6787 57.4462 55.2229C56.975 56.5275 56.084 57.4014 55.5273 57.1047C54.4747 56.5439 53.9712 53.9692 54.0912 49.7631C54.169 47.0302 54.3513 45.9658 54.615 46.7043C54.969 47.6965 57.3688 49.4096 57.925 49.0672C58.0448 48.9936 57.9511 48.605 57.6908 48.0973C56.3754 45.5295 55.7122 41.6981 56.2846 39.9714C56.5188 39.2648 56.5508 39.2443 56.9671 39.5345C57.3958 39.8335 58.9426 39.9676 58.9426 39.7057C58.9426 39.6325 58.5788 39.1029 58.1344 38.5291C56.7429 36.7331 56.4673 35.8599 56.2793 32.6526C56.0485 28.7114 55.9064 28.307 54.0553 26.3262C53.1858 25.3958 52.705 24.6328 52.1387 23.2838C49.8378 17.804 47.1436 15.1414 42.7175 13.9734C41.5545 13.6663 37.3449 13.4113 36.3345 13.5866ZM42.3256 16.5095C43.192 16.7302 44.3544 17.1567 44.909 17.4571C46.1012 18.1033 47.5269 19.5617 48.144 20.7661C48.6532 21.7601 49.1573 23.9393 49.1626 25.1682C49.1657 25.9282 49.0887 26.0613 48.4023 26.4832C47.3084 27.1555 46.134 28.2541 45.7798 28.936C45.4032 29.6611 44.8889 32.2684 44.8889 33.4523C44.8889 34.0807 45.0266 34.4953 45.3714 34.905C47.1884 37.0643 47.2876 37.7967 46.2022 41.0304C44.7504 45.3553 42.3722 48.7849 40.1145 49.8092C39.6796 50.0065 39.5249 49.9978 39.2957 49.7629C39.1403 49.6037 38.5816 47.785 38.0541 45.7212C36.7514 40.6241 36.1155 39.4331 34.1183 38.3506C32.9325 37.7079 31.3142 37.447 30.6639 37.7937C30.4221 37.9225 30.2242 38.1042 30.2242 38.1971C30.2242 38.2902 30.7741 38.604 31.4462 38.8942C32.4713 39.337 32.6683 39.5035 32.6683 39.9276C32.6683 40.6947 32.1149 40.8533 29.4374 40.8533C26.6834 40.8533 26.4781 40.7639 26.2584 39.4684C26.1629 38.9052 26.2494 38.3464 26.5657 37.4868C27.999 33.5899 28.0446 33.3793 28.1693 30.0582C28.3281 25.8333 28.076 26.0795 32.4819 25.8473C34.3207 25.7504 36.1461 25.5611 36.5381 25.4266C37.353 25.1473 37.9046 24.7034 37.6954 24.4948C37.5154 24.3157 37.0606 24.3182 32.5212 24.5226C29.1056 24.6766 28.7992 24.6622 28.6752 24.3407C28.4387 23.7269 28.9693 23.5172 31.0987 23.3829C33.2335 23.2483 34.2977 22.9428 34.2977 22.4647C34.2977 22.154 34.2054 22.1441 31.0389 22.1141C28.8447 22.0932 28.6966 22.0662 28.6966 21.6885C28.6966 21.3595 28.8832 21.2589 29.7121 21.1407C31.3847 20.9026 31.6499 20.7963 31.6499 20.3638C31.6499 20.0119 31.5106 19.962 30.5297 19.962C29.1219 19.962 29.0868 19.7014 30.3407 18.5506C31.4028 17.5756 33.0298 16.7947 34.8069 16.4071C36.7434 15.9848 40.464 16.0355 42.3256 16.5095ZM32.8316 28.4636C31.808 28.6713 31.4462 29.0183 31.4462 29.7925C31.4462 30.9373 31.9558 31.1805 34.6765 31.3346C35.9939 31.4092 37.7777 31.6362 38.6409 31.8388C40.5553 32.2883 40.8809 32.1309 40.3465 31.0147C39.5283 29.3061 35.4701 27.9285 32.8316 28.4636ZM33.4066 32.8353C32.5893 33.1256 32.112 33.4708 32.2872 33.6452C32.5546 33.9115 36.3222 34.2202 37.1589 34.0444L38.0561 33.8558L37.5626 33.398C36.653 32.554 34.8763 32.3137 33.4066 32.8353ZM34.0319 44.4188C34.779 44.9626 35.4035 46.2323 35.4063 47.2132C35.4096 48.3338 34.6348 48.9664 33.2587 48.9664C32.1025 48.9664 31.7173 48.6723 30.7894 47.0795C30.2999 46.2394 30.1523 46.1269 29.5412 46.1269C28.7732 46.1269 28.5338 46.3439 27.78 47.7245C27.222 48.7466 26.7839 48.9595 26.2771 48.4551C25.8838 48.0632 25.8201 46.0175 26.1771 45.2374C26.5957 44.3223 28.2862 43.899 31.2823 43.959C33.1133 43.9959 33.5518 44.0692 34.0319 44.4188Z" fill="#151619"/>
</svg>
