<svg width="30" height="40" viewBox="0 0 30 40" fill="none" xmlns="http://www.w3.org/2000/svg">
<path fill-rule="evenodd" clip-rule="evenodd" d="M11.7987 0.0430247C9.60759 0.424027 8.73157 0.74666 7.14603 1.75647C4.43417 3.48348 1.76505 7.21121 0.599668 10.8993C0.0711548 12.5716 0.0813802 13.0703 0.657663 13.7256C1.26325 14.4144 1.24432 14.8944 0.553425 16.3469C0.0540617 17.3971 -0.00744302 17.6575 0.000645693 18.6869C0.00797132 19.6042 0.108699 20.0996 0.485053 21.07C1.20785 22.9335 1.34459 23.8202 1.13764 25.2994C0.777315 27.8737 1.01418 30.0008 1.96574 32.736C2.90877 35.4467 5.14903 39.4277 5.73188 39.4288C5.87107 39.4291 5.90952 39.147 5.87335 38.3893C5.84604 37.8175 5.8819 37.1253 5.95302 36.8511L6.08244 36.3526L6.58028 37.1199C7.65302 38.773 9.55708 39.7362 12.2076 39.9666C14.1266 40.1333 17.2896 39.6379 16.3884 39.3116C15.9142 39.1398 14.861 38.0045 14.4515 37.2236C14.2136 36.7697 14.0524 36.3652 14.0933 36.3244C14.1341 36.2835 14.5446 36.3802 15.0054 36.539C15.8921 36.8447 17.6699 36.9393 17.8247 36.6891C17.8753 36.6074 17.6421 36.1939 17.3067 35.7701C16.9712 35.3463 16.4187 34.445 16.0792 33.7674C15.5496 32.7108 15.4615 32.3956 15.4615 31.5561C15.4615 30.8873 15.5546 30.398 15.7553 30.0116C16.1353 29.28 19.2365 25.4983 19.5071 25.4366C19.6413 25.4059 20.12 26.2306 20.8663 27.7776C22.2712 30.6895 23.3816 32.3879 24.6645 33.5862C26.8167 35.5967 29.1241 35.3635 29.0905 33.1389C29.0796 32.4054 28.3806 30.7285 28.0453 30.631C27.9574 30.6054 27.7651 30.9189 27.6179 31.3278C27.2649 32.308 26.5972 32.9647 26.1801 32.7417C25.3914 32.3204 25.0141 30.3858 25.104 27.2254C25.1623 25.172 25.2989 24.3722 25.4966 24.9271C25.7618 25.6726 27.5599 26.9598 27.9767 26.7025C28.0665 26.6472 27.9963 26.3552 27.8012 25.9738C26.8156 24.0444 26.3187 21.1655 26.7476 19.8681C26.9231 19.3372 26.947 19.3218 27.259 19.5398C27.5802 19.7645 28.7392 19.8652 28.7392 19.6685C28.7392 19.6135 28.4666 19.2155 28.1336 18.7844C27.091 17.4349 26.8845 16.7788 26.7436 14.3689C26.5707 11.4076 26.4642 11.1037 25.0772 9.61534C24.4257 8.91627 24.0653 8.34294 23.641 7.32932C21.9169 3.2119 19.8981 1.21133 16.5816 0.333654C15.7101 0.102918 12.5559 -0.0886499 11.7987 0.0430247ZM16.288 2.23928C16.9372 2.40509 17.8082 2.72559 18.2237 2.95129C19.117 3.43684 20.1853 4.53261 20.6478 5.43757C21.0293 6.18448 21.407 7.82188 21.411 8.74528C21.4133 9.31633 21.3556 9.4163 20.8413 9.73329C20.0216 10.2385 19.1416 11.0639 18.8762 11.5763C18.594 12.1211 18.2086 14.0802 18.2086 14.9698C18.2086 15.4419 18.3118 15.7534 18.5702 16.0613C19.9317 17.6838 20.006 18.2341 19.1927 20.6638C18.1049 23.9135 16.3229 26.4904 14.6311 27.26C14.3053 27.4083 14.1893 27.4018 14.0176 27.2253C13.9012 27.1056 13.4825 25.7391 13.0873 24.1884C12.1111 20.3585 11.6347 19.4636 10.1381 18.6503C9.24955 18.1673 8.03701 17.9713 7.5497 18.2318C7.36855 18.3286 7.2202 18.4651 7.2202 18.5349C7.2202 18.6049 7.63227 18.8406 8.1359 19.0587C8.90403 19.3914 9.05161 19.5165 9.05161 19.8352C9.05161 20.4116 8.63695 20.5308 6.63064 20.5308C4.5671 20.5308 4.41327 20.4635 4.24859 19.4902C4.17701 19.0669 4.24188 18.6471 4.47889 18.0012C5.55286 15.0731 5.58704 14.9149 5.68045 12.4195C5.79949 9.245 5.61055 9.43002 8.91196 9.25552C10.2898 9.18267 11.6575 9.04048 11.9513 8.93944C12.562 8.72958 12.9752 8.39598 12.8185 8.23931C12.6836 8.10474 12.3428 8.10657 8.94142 8.26019C6.38203 8.37586 6.15249 8.36504 6.05955 8.12348C5.88236 7.66232 6.27993 7.50473 7.87554 7.40384C9.47512 7.30265 10.2725 7.07313 10.2725 6.71392C10.2725 6.48045 10.2034 6.47298 7.83067 6.45042C6.18652 6.43473 6.07557 6.41446 6.07557 6.13069C6.07557 5.88349 6.21537 5.8079 6.83652 5.71905C8.08981 5.54013 8.28852 5.46027 8.28852 5.13535C8.28852 4.87094 8.18413 4.83345 7.44913 4.83345C6.39424 4.83345 6.36799 4.63761 7.3075 3.77289C8.1034 3.0403 9.3225 2.45355 10.6541 2.16231C12.1052 1.84501 14.893 1.88312 16.288 2.23928ZM9.17401 11.2213C8.40695 11.3774 8.1359 11.6382 8.1359 12.2199C8.1359 13.08 8.51775 13.2628 10.5564 13.3786C11.5435 13.4347 12.8802 13.6052 13.527 13.7574C14.9614 14.0952 15.2054 13.9769 14.805 13.1382C14.1919 11.8544 11.151 10.8193 9.17401 11.2213ZM9.60484 14.5062C8.99239 14.7243 8.63481 14.9837 8.76606 15.1147C8.96645 15.3148 11.7896 15.5468 12.4165 15.4147L13.0888 15.2729L12.719 14.929C12.0374 14.2948 10.7061 14.1142 9.60484 14.5062ZM10.0734 23.2098C10.6332 23.6184 11.1011 24.5724 11.1032 25.3094C11.1057 26.1515 10.5251 26.6268 9.49404 26.6268C8.62764 26.6268 8.33904 26.4058 7.64371 25.209C7.27697 24.5778 7.16633 24.4932 6.70848 24.4932C6.13296 24.4932 5.95363 24.6563 5.38879 25.6936C4.97062 26.4616 4.64234 26.6216 4.26263 26.2426C3.96793 25.9482 3.92016 24.411 4.1877 23.8249C4.50133 23.1373 5.76805 22.8192 8.01305 22.8643C9.38508 22.8921 9.71366 22.9471 10.0734 23.2098Z" fill="#0C0C0C"/>
</svg>
