<svg width="80" height="80" viewBox="0 0 80 80" fill="none" xmlns="http://www.w3.org/2000/svg">
<circle cx="40" cy="40" r="40" fill="white"/>
<mask id="mask0_1649_2104" style="mask-type:alpha" maskUnits="userSpaceOnUse" x="16" y="17" width="48" height="46">
<path d="M34.637 51.7786C28.0269 55.0737 20.2739 51.7671 17.3201 44.3932C14.3664 37.0192 17.3304 28.3701 23.9404 25.0749C30.5504 21.7797 38.3033 25.0863 41.2572 32.4603C44.2109 39.8343 41.247 48.4834 34.637 51.7786Z" fill="black"/>
<path d="M58.4484 36.7382C53.8723 39.0196 48.5047 36.7304 46.4599 31.6253C44.415 26.5202 46.4669 20.5324 51.0431 18.2511C55.6193 15.9698 60.9867 18.259 63.0316 23.3641C65.0766 28.4692 63.0247 34.457 58.4484 36.7382Z" fill="black"/>
<path d="M55.2397 61.9205C51.5533 63.7581 47.2296 61.9141 45.5822 57.8017C43.935 53.6892 45.5879 48.8657 49.2744 47.0281C52.9607 45.1904 57.2844 47.0344 58.9317 51.1468C60.579 55.2592 58.926 60.0828 55.2397 61.9205Z" fill="black"/>
</mask>
<g mask="url(#mask0_1649_2104)">
<path d="M18.1706 49.6234C24.6961 63.2553 41.8238 69.3679 56.4268 63.2763C71.0296 57.1848 77.5775 41.1959 71.052 27.564C64.5266 13.9323 47.3988 7.81972 32.7959 13.9113C18.1931 20.0027 11.6451 35.9917 18.1706 49.6234Z" fill="#1567CA"/>
<path d="M28.2248 46.669C31.704 55.319 40.8363 59.1977 48.6222 55.3323C56.4081 51.4669 59.8994 41.3213 56.4202 32.6714C52.941 24.0215 43.8087 20.1427 36.0227 24.0082C28.2368 27.8734 24.7455 38.019 28.2248 46.669Z" fill="#8FD8E7"/>
</g>
</svg>
