<svg width="43" height="40" viewBox="0 0 43 40" fill="none" xmlns="http://www.w3.org/2000/svg">
<mask id="mask0_1767_816" style="mask-type:alpha" maskUnits="userSpaceOnUse" x="0" y="0" width="43" height="40">
<path d="M16.3135 30.4088C10.4723 33.3207 3.62106 30.3987 1.01083 23.8824C-1.59939 17.366 1.01986 9.72292 6.86109 6.81101C12.7023 3.8991 19.5535 6.8211 22.1638 13.3374C24.774 19.8537 22.1548 27.4969 16.3135 30.4088Z" fill="black"/>
<path d="M37.3552 17.1176C33.3113 19.1336 28.5681 17.1107 26.7611 12.5993C24.954 8.08804 26.7673 2.79667 30.8112 0.780702C34.8552 -1.23527 39.5983 0.787694 41.4054 5.29898C43.2125 9.81035 41.3992 15.1017 37.3552 17.1176Z" fill="black"/>
<path d="M34.5195 39.371C31.262 40.9949 27.4411 39.3653 25.9853 35.7312C24.5297 32.0971 25.9904 27.8346 29.248 26.2107C32.5056 24.5867 36.3265 26.2163 37.7821 29.8504C39.2378 33.4845 37.7771 37.747 34.5195 39.371Z" fill="black"/>
</mask>
<g mask="url(#mask0_1767_816)">
<path d="M1.76219 28.5038C7.52871 40.5501 22.6643 45.9518 35.5688 40.5687C48.4732 35.1856 54.2596 21.0564 48.493 9.01008C42.7266 -3.03618 27.5909 -8.43781 14.6864 -3.05476C1.7821 2.3282 -4.00431 16.4575 1.76219 28.5038Z" fill="white"/>
<path d="M10.647 25.8932C13.7215 33.5371 21.7916 36.9646 28.672 33.5489C35.5523 30.133 38.6375 21.1674 35.563 13.5236C32.4884 5.87977 24.4183 2.45214 17.5379 5.868C10.6576 9.28368 7.57236 18.2492 10.647 25.8932Z" fill="#0C0C0C"/>
</g>
</svg>
