<svg xmlns="http://www.w3.org/2000/svg" width="32" height="32" viewBox="0 0 32 32">
  <g fill="none" fill-rule="evenodd">
    <path fill="#FFF" d="M32,15.999936 C32,13.905856 31.58336,11.811776 30.78208,9.877056 C29.98048,7.942336 28.79424,6.166976 27.3136,4.686336 C25.83296,3.205376 24.0576,2.019456 22.12288,1.217856 C20.18816,0.416576 18.09408,-6.4e-05 16,-6.4e-05 C13.90592,-6.4e-05 11.81152,0.416576 9.8768,1.217856 C7.94208,2.019456 6.16704,3.205376 4.68608,4.686336 C3.20544,6.166976 2.0192,7.942336 1.21792,9.877056 C0.41632,11.811776 0,13.905856 0,15.999936 C0,18.094016 0.41632,20.188096 1.21792,22.122816 C2.0192,24.057536 3.20544,25.832896 4.68608,27.313856 C6.16704,28.794496 7.94208,29.980736 9.8768,30.782016 C11.81152,31.583296 13.90592,31.999936 16,31.999936 C18.09408,31.999936 20.18816,31.583296 22.12288,30.782016 C24.0576,29.980736 25.83296,28.794496 27.3136,27.313856 C28.79424,25.832896 29.98048,24.057536 30.78208,22.122816 C31.58336,20.188096 32,18.094016 32,15.999936 Z"/>
    <g fill="#000" transform="translate(8.725 6.494)">
      <path d="M5.68795082 7.17093443C5.54336066 7.21642623 5.41696721 7.3172459 5.32278689 7.4362623 5.22860656 7.55552459 5.16663934 7.69322951 5.14377049 7.85036066 5.12065574 8.0077377 5.13663934 8.18454098 5.22786885 8.28978689 5.31934426 8.39503279 5.48606557 8.42896721 5.64344262 8.43511475 5.80081967 8.44101639 5.94860656 8.41937705 6.09713115 8.38347541 6.24565574 8.34757377 6.39491803 8.29740984 6.51418033 8.2015082 6.63344262 8.10560656 6.72270492 7.96372131 6.72295133 7.81937705 6.72319672 7.67478689 6.63442623 7.5274918 6.5257377 7.41486885 6.41680328 7.302 6.28770492 7.22380328 6.14163934 7.17954098 5.99557377 7.13552459 5.83254098 7.12568852 5.68795082 7.17093443zM13.752541 7.49060656C13.4136885 6.90536066 13.0047541 6.70544262 12.532377 6.61691803 12.06 6.52839344 11.5239344 6.5512623 10.9040164 6.48462295 10.2840984 6.41798361 9.58057377 6.26208197 9.00295082 5.85290164 8.42508197 5.44396721 7.97336066 4.782 7.40827869 4.05732787 6.84295082 3.33290164 6.1647541 2.54601639 4.68172131 2.3212623 5.94786885 2.17962295 6.8702459 2.8312623 7.82729508 3.92306557 8.66286885 3.78954098 9.55155738 3.77134426 10.3765574 3.98478689 11.2015574 4.19822951 11.9628689 4.64355738 12.5754098 5.25659016 13.1879508 5.86962295 13.6517213 6.65060656 13.752541 7.49060656zM8.9845082 6.33388525C8.87557377 7.4074918 9.34672131 8.01142623 10.0293443 8.47298361 10.7119672 8.93454098 11.6058197 9.25372131 12.2577049 9.51904918 12.9095902 9.78437705 13.3190164 9.99560656 13.6829508 10.2921639 14.0468852 10.5887213 14.365082 10.9703607 14.3181148 11.656918 14.8357377 10.819623 14.8586066 9.8824918 14.6077869 9.16298361 14.3569672 8.44322951 13.8327049 7.94134426 13.2258197 7.63445902 12.6189344 7.32781967 11.9294262 7.21642623 11.1445082 7.09765574 10.3595902 6.97888525 9.4795082 6.8527377 8.9845082 6.33388525zM4.65639344 2.73954098C5.3995082 2.88167213 5.64762295 3.15708197 5.80401639 3.42806557 5.96040984 3.69880328 6.02483607 3.96462295 6.07819672 4.21642623 6.13155738 4.46822951 6.17360656 4.70601639 6.2407377 4.90618033 6.30786885 5.10634426 6.40008197 5.26888525 6.48172131 5.3962623 6.56311475 5.52363934 6.63393443 5.61609836 6.66245902 5.6817541 6.69098361 5.74716393 6.67696721 5.78601639 6.63983607 5.80962295 6.60295082 5.83322951 6.54270492 5.84183607 6.4502459 5.83642623 6.35778689 5.83101639 6.23336066 5.81159016 6.01278689 5.697 5.79221311 5.58216393 5.4757377 5.37216393 5.16442623 4.89093443 4.85311475 4.40945902 4.54696721 3.6567541 4.65639344 2.73954098z"/>
      <path d="M10.954918 9.41404918C10.7417213 10.0305246 10.8577869 10.602 11.0692623 11.0938033 11.2807377 11.5853607 11.587377 11.9972459 11.860082 12.3828197 12.1330328 12.7683934 12.3720492 13.1274098 12.5717213 13.5847869 12.7713934 14.041918 12.9317213 14.596918 12.4878689 15.484623 13.4754098 15.0090492 13.8378689 14.3404426 14.020082 13.7824918 14.202541 13.2242951 14.205 12.7767541 14.1422951 12.3828197 14.0798361 11.9888852 13.9519672 11.6485574 13.7109836 11.3192951 13.47 10.9900328 13.1156557 10.6715902 12.6661475 10.3915082 12.2168852 10.1114262 11.672459 9.86945902 10.954918 9.41404918zM6.09122951 12.3678197C6.32409836 12.1981475 6.47459016 12.119459 6.63491803 12.0471639 6.7952459 11.9748689 6.96540984 11.9089672 7.17860656 11.8484754 7.39155738 11.7879836 7.64729508 11.7331475 7.91188525 11.6864262 8.17647541 11.6397049 8.44991803 11.6010984 8.68942623 11.5501967 8.92918033 11.4992951 9.1352459 11.4363443 9.31844262 11.3485574 9.50188525 11.2607705 9.66245902 11.1486393 9.79795082 11.0087213 9.93344262 10.8688033 10.0436066 10.7013443 10.1186066 10.5301967 10.1933607 10.3588033 10.2329508 10.1842131 10.2454918 9.9867541 10.2577869 9.78929508 10.2430328 9.56921311 10.0627869 8.97978689 10.3610656 9.30659016 10.4717213 9.57290164 10.5236066 9.84560656 10.5757377 10.1180656 10.5693443 10.3971639 10.5115574 10.6312623 10.4540164 10.8651148 10.345082 11.0539672 10.1906557 11.2438033 10.0362295 11.4336393 9.83631148 11.6242131 9.57860656 11.7550328 9.32090164 11.8856066 9.00565574 11.9564262 8.70221311 11.9977377 8.39901639 12.0390492 8.10786885 12.0513443 7.73139344 12.0712623 7.35491803 12.0911803 6.89286885 12.1192131 6.09122951 12.3678197zM1.52581967 14.4899508C1.99991803 14.419377 2.39040984 14.3003607 2.71032787 14.1739672 3.0302459 14.0475738 3.27934426 13.9138033 3.49622951 13.7539672 3.71336066 13.5941311 3.89778689 13.4082295 3.99442623 13.1960164 4.09106557 12.9838033 4.09991803 12.7452787 4.065 12.5549508 4.03008197 12.364377 3.95163934 12.222 3.78442623 12.0651148 3.61721311 11.9079836 3.36147541 11.7365902 3.13106557 11.5504426 2.90065574 11.364541 2.69581967 11.1638852 2.58762295 10.9334754 2.47918033 10.7030656 2.46762295 10.4429016 2.54163934 10.164541 2.61590164 9.88618033 2.7757377 9.58962295 2.90581967 9.30634426 3.03590164 9.02281967 3.13622951 8.75257377 3.18934426 8.44667213 3.24221311 8.14052459 3.24811475 7.79896721 3.3004918 7.57077049 3.35286885 7.34257377 3.45172131 7.2277377 3.59483607 7.15593443 3.73795082 7.08388525 3.92557377 7.05486885 4.13778689 7.01503279 4.35 6.97519672 4.58704918 6.92454098 4.78893443 6.81216393 4.99057377 6.69978689 5.15680328 6.52568852 5.25147541 6.34003279 5.34614754 6.15462295 5.3692623 5.95765574 5.37196721 5.83691803 5.37491803 5.71642623 5.35745902 5.67216393 5.29131148 5.58732787 5.22491803 5.5027377 5.11008197 5.37732787 4.83270492 5.07363934 4.55532787 4.77019672 4.11540984 4.28872131 3.54467213 3.67322951 2.97368852 3.0577377 2.27188525 2.30822951 1.6942623 1.68880328 1.11639344 1.06937705.662704918.580032787.408442623.317409836.15442623.0547868852.0998360656.0183934426.0882786885.0284754098.0767213115.0383114754.10795082.0943770492.328032787.386508197.548114754.678639344.957295082 1.20708197 1.48770492 1.88601639 2.01811475 2.56470492 2.67 3.39413115 3.19598361 4.06003279 3.72196721 4.72593443 4.12229508 5.22855738 4.35713115 5.52413115 4.59221311 5.81970492 4.66180328 5.90872131 4.6795082 5.99109836 4.69745902 6.07347541 4.66327869 6.14945902 4.60647541 6.20478689 4.54967213 6.26011475 4.4697541 6.29454098 4.37213115 6.32503279 4.2745082 6.35527869 4.15893443 6.38159016 4.0497541 6.37372131 3.94057377 6.36609836 3.83754098 6.32429508 3.74754098 6.24806557 3.65778689 6.17183607 3.58081967 6.06118033 3.37991803 5.76732787 3.17877049 5.47372131 2.85368852 4.99691803 2.53868852 4.55036066 2.22344262 4.10380328 1.91852459 3.6874918 1.73704918 3.44798361 1.55557377 3.20847541 1.49778689 3.14577049 1.48401639 3.15265574 1.4702459 3.15978689 1.5007377 3.2365082 1.64360656 3.50355738 1.78622951 3.77036066 2.04147541 4.2277377 2.30557377 4.71486885 2.56967213 5.2022459 2.84286885 5.71962295 2.98819672 6.00093443 3.13352459 6.2822459 3.1507377 6.3272459 3.13672131 6.38945902 3.12295082 6.45142623 3.07770492 6.53085246 3.00663934 6.61519672 2.93532787 6.69978689 2.83770492 6.78978689 2.75311475 6.93536066 2.66852459 7.08068852 2.59672131 7.28159016 2.54557377 7.54298361 2.49442623 7.80437705 2.46393443 8.1262623 2.39704918 8.41544262 2.33040984 8.70462295 2.22762295 8.96085246 2.06360656 9.24388525 1.89934426 9.52691803 1.67409836 9.8365082 1.4404918 10.1306066 1.20663934 10.424459.96442623 10.7030656.798934426 11.0072459.633688525 11.3114262.544918033 11.6414262.550081967 11.9938033.555 12.3461803.653852459 12.7211803.789590164 13.0354426.925081967 13.3497049 1.09745902 13.6032295 1.24229508 13.8353607 1.38688525 14.0672459 1.50368852 14.2779836 1.52581967 14.4899508zM3.66836066 14.2548689C4.96696721 13.1212623 5.97491803 12.8928197 6.76622951 12.8923261 7.55754098 12.8915902 8.13245902 13.1188033 8.50327869 13.447082 8.87409836 13.7753607 9.04081967 14.2047049 9.13967213 14.6792951 9.23852459 15.1538852 9.2692623 15.6739672 9.41581967 16.0165082 9.56237705 16.3588033 9.8247541 16.5235574 10.1353279 16.5712623 10.4456557 16.6192131 10.8046721 16.5501148 11.2991803 16.3524098 10.9364754 16.6425738 10.6945082 16.7579016 10.4355738 16.8142131 10.1768852 16.8707705 9.90122951 16.8683115 9.64377049 16.7623279 9.38655738 16.6560984 9.14729508 16.4458525 8.95131148 16.1500328 8.75557377 15.8542131 8.60286885 15.4725738 8.43762295 15.1275738 8.27213115 14.7823279 8.09409836 14.4734754 7.8002459 14.2651967 7.50614754 14.056918 7.09622951 13.9492131 6.77311475 14.0232295 6.4497541 14.0974918 6.21295082 14.3534754 6.15614754 14.622 6.09909836 14.8907705 6.22180328 15.1718361 6.4197541 15.3375738 6.61795082 15.5030656 6.89114754 15.5529836 7.08959016 15.5079836 7.28803279 15.4627377 7.41147541 15.3223279 7.47614754 15.1892951 7.54057377 15.0565082 7.54598361 14.9310984 7.56614754 14.8511803 7.58631148 14.7715082 7.62122951 14.7373279 7.65270492 14.7363443 7.68418033 14.7356066 7.71196721 14.7680656 7.73188525 14.8406066 7.75155738 14.9131475 7.76336066 15.0257705 7.74762295 15.1447869 7.73188525 15.2640492 7.68885246 15.3899508 7.60672131 15.5087213 7.52483607 15.6274918 7.40385246 15.7391311 7.22877049 15.8052787 7.05393443 15.8716721 6.8247541 15.8925738 6.60885246 15.841918 6.39295082 15.7912623 6.19008197 15.6692951 5.99409836 15.4924918 5.79811475 15.3156885 5.6092623 15.0842951 5.39262295 14.8924918 5.17598361 14.7006885 4.93180328 14.5484754 4.63032787 14.4479016 4.32909836 14.3473279 3.97057377 14.2988852 3.66836066 14.2548689z"/>
    </g>
    <path fill="#0657F9" d="M11.85472,3.383616 C13.34528,2.893696 14.93824,2.669696 16.51616,2.730176 C18.0944,2.790656 19.65792,3.135936 21.11296,3.743936 C22.56832,4.351936 23.9152,5.222976 25.06752,6.297536 C26.59168,7.719296 27.77504,9.497536 28.4848,11.486656 C29.19488,13.476096 29.43136,15.676416 29.15744,17.771136 C28.88384,19.865856 28.09984,21.855296 26.91392,23.566016 C25.728,25.276736 24.13984,26.708416 22.27456,27.700416 C20.40928,28.692096 18.26624,29.243776 16.15392,29.275776 C14.0416,29.307776 11.95968,28.820416 10.09504,27.894976 C8.23072,26.969536 6.58336,25.606336 5.33248,23.903616 C4.0816,22.200896 3.2272,20.158656 2.888,18.074816 C2.5488,15.990656 2.7248,13.864576 3.37472,11.881216 C3.86592,10.381696 4.62816,8.964096 5.6048,7.735616 L4.12032,7.735616 L4.12032,5.281856 L9.93696,5.281856 L9.93696,10.713536 L7.4832,10.713536 L7.4832,9.229376 C6.6832,10.235456 6.05856,11.396736 5.65632,12.625536 C5.12416,14.251136 4.9808,15.995136 5.25632,17.696896 C5.59872,19.813696 6.5888,21.864896 8.06656,23.445696 C9.83424,25.336256 12.29952,26.554176 14.86592,26.820736 C17.432,27.087296 20.0992,26.402816 22.21728,24.928576 C24.33536,23.454336 25.90496,21.190336 26.54208,18.689856 C27.1792,16.189376 26.88384,13.452416 25.73504,11.142016 C24.58624,8.831616 22.58368,6.948416 20.18912,5.958976 C17.79456,4.969216 15.00768,4.873856 12.60384,5.663616 L11.85472,3.383616 Z"/>
  </g>
</svg>
