<svg width="32" height="32" viewBox="0 0 32 32" fill="none" xmlns="http://www.w3.org/2000/svg">
<circle cx="14.5" cy="14.5" r="14.5" fill="white"/>
<path d="M14.3785 15.5329L14.435 16.8522C14.435 17.6305 14.2404 18.2506 13.8512 18.7125H20V21H10.0282V18.7125H10.8945C11.3465 18.5986 11.5725 18.0323 11.5725 17.0136L11.5254 15.5329H10V13.2929H11.4501L11.3842 11.1383C11.3842 9.86011 11.7702 8.85085 12.5424 8.11051C13.3208 7.37017 14.3597 7 15.6591 7C16.99 7 18.0352 7.35751 18.7947 8.07254C19.5543 8.78124 19.9341 9.74305 19.9341 10.958H17.2316C17.2316 10.4201 17.0935 10.0088 16.8173 9.72407C16.5474 9.43932 16.1582 9.29695 15.6497 9.29695C15.2354 9.29695 14.8901 9.45198 14.6139 9.76203C14.344 10.0721 14.209 10.5308 14.209 11.1383L14.2938 13.2929H17.2034V15.5329H14.3785Z" fill="black"/>
<circle cx="25" cy="25" r="7" fill="#69E2DC"/>
<path d="M22.5924 29H21V21H22.5924V29Z" fill="black"/>
<path d="M23.9303 29V21H26.3676C27.1909 21 27.8156 21.1868 28.2417 21.5604C28.6714 21.9304 28.8863 22.4744 28.8863 23.1923C28.8863 23.5989 28.7978 23.9487 28.6209 24.2418C28.4439 24.5348 28.202 24.7491 27.8951 24.8846C28.2489 24.9872 28.5216 25.1941 28.7129 25.5055C28.9043 25.8132 29 26.1941 29 26.6484C29 27.4249 28.7888 28.011 28.3663 28.4066C27.9474 28.8022 27.339 29 26.541 29H23.9303ZM25.5227 25.522V27.6593H26.541C26.8262 27.6593 27.0429 27.5696 27.1909 27.3901C27.339 27.2106 27.413 26.956 27.413 26.6264C27.413 25.9084 27.1566 25.5403 26.6439 25.522H25.5227ZM25.5227 24.3462H26.3514C26.9761 24.3462 27.2884 24.0183 27.2884 23.3626C27.2884 23 27.2162 22.7399 27.0718 22.5824C26.9273 22.4249 26.6926 22.3462 26.3676 22.3462H25.5227V24.3462Z" fill="black"/>
</svg>
