<svg width="40" height="40" viewBox="0 0 40 40" fill="none" xmlns="http://www.w3.org/2000/svg">
<g clip-path="url(#clip0_102_11)">
<mask id="mask0_102_11" style="mask-type:luminance" maskUnits="userSpaceOnUse" x="0" y="0" width="40" height="40">
<path d="M40 0H0V40H40V0Z" fill="white"/>
</mask>
<g mask="url(#mask0_102_11)">
<path d="M6.66666 16.6669H9.99999V13.3335H6.66666V16.6669Z" fill="#FED955"/>
<path d="M6.66666 23.3331H9.99999V19.9997H6.66666V23.3331Z" fill="#FED955"/>
<path d="M6.66666 20H9.99999V16.6666H6.66666V20Z" fill="#FED955"/>
<path d="M6.66666 26.6669H9.99999V23.3335H6.66666V26.6669Z" fill="#FED955"/>
<path d="M20 10H23.3334V6.66666H20V10Z" fill="#FED955"/>
<path d="M20 30H23.3334V33.3334H20V30Z" fill="#FED955"/>
<path d="M23.3333 10H26.6666V6.66666H23.3333V10Z" fill="#FED955"/>
<path d="M26.6666 10H30V6.66666H26.6666V10Z" fill="#9695F8"/>
<path d="M13.3334 10H10V6.66666H13.3334V10Z" fill="#9695F8"/>
<path d="M33.3334 30H30V26.6666H33.3334V30Z" fill="#9695F8"/>
<path d="M6.66666 30H9.99999V26.6666H6.66666V30Z" fill="#9695F8"/>
<path d="M23.3333 6.66688H26.6666V3.33354H23.3333V6.66688Z" fill="#9695F8"/>
<path d="M23.3333 3.33317H26.6666V-0.00015831H23.3333V3.33317Z" fill="#5552FD"/>
<path d="M23.3333 40H26.6666V36.6666H23.3333V40Z" fill="#5552FD"/>
<path d="M23.3333 36.6669H26.6666V33.3335H23.3333V36.6669Z" fill="#9695F8"/>
<path d="M16.6666 6.66688H20V3.33354H16.6666V6.66688Z" fill="#9695F8"/>
<path d="M16.6666 3.33317H20V-0.00015831H16.6666V3.33317Z" fill="#5552FD"/>
<path d="M16.6666 40H20V36.6666H16.6666V40Z" fill="#5552FD"/>
<path d="M16.6666 36.6669H20V33.3335H16.6666V36.6669Z" fill="#9695F8"/>
<path d="M20 6.66688H23.3334V3.33354H20V6.66688Z" fill="#9695F8"/>
<path d="M20 3.33317H23.3334V-0.00015831H20V3.33317Z" fill="#5552FD"/>
<path d="M20 40H23.3334V36.6666H20V40Z" fill="#5552FD"/>
<path d="M20 36.6669H23.3334V33.3335H20V36.6669Z" fill="#9695F8"/>
<path d="M13.3333 6.66688H16.6666V3.33354H13.3333V6.66688Z" fill="#9695F8"/>
<path d="M13.3333 3.33317H16.6666V-0.00015831H13.3333V3.33317Z" fill="#5552FD"/>
<path d="M13.3333 40H16.6666V36.6666H13.3333V40Z" fill="#5552FD"/>
<path d="M13.3333 36.6669H16.6666V33.3335H13.3333V36.6669Z" fill="#9695F8"/>
<path d="M30 13.3331H33.3334V9.9998H30V13.3331Z" fill="#9695F8"/>
<path d="M9.99996 13.3331H6.66663V9.9998H9.99996V13.3331Z" fill="#9695F8"/>
<path d="M30 33.3331H26.6666V29.9997H30V33.3331Z" fill="#9695F8"/>
<path d="M10 33.3331H13.3334V29.9997H10V33.3331Z" fill="#9695F8"/>
<path d="M33.3333 16.6669H36.6666V13.3335H33.3333V16.6669Z" fill="#9695F8"/>
<path d="M3.33331 16.6669H6.66664V13.3335H3.33331V16.6669Z" fill="#9695F8"/>
<path d="M3.05176e-05 16.6669H3.33337V13.3335H3.05176e-05V16.6669Z" fill="#5552FD"/>
<path d="M3.33331 13.3331H6.66664V9.9998H3.33331V13.3331Z" fill="#5552FD"/>
<path d="M36.6667 13.3331H33.3334V9.9998H36.6667V13.3331Z" fill="#5552FD"/>
<path d="M26.6666 36.6669H30V33.3335H26.6666V36.6669Z" fill="#5552FD"/>
<path d="M3.33337 26.6666V30H6.6667V26.6666H3.33337Z" fill="#5552FD"/>
<path d="M6.66666 10H9.99999V6.66666H6.66666V10Z" fill="#5552FD"/>
<path d="M33.3334 10H30V6.66666H33.3334V10Z" fill="#5552FD"/>
<path d="M30 33.3331H33.3334V29.9997H30V33.3331Z" fill="#5552FD"/>
<path d="M6.66663 29.9997V33.3331H9.99996V29.9997H6.66663Z" fill="#5552FD"/>
<path d="M10 6.66688H13.3334V3.33354H10V6.66688Z" fill="#5552FD"/>
<path d="M30 6.66688H26.6666V3.33354H30V6.66688Z" fill="#5552FD"/>
<path d="M33.3333 30H36.6666V26.6666H33.3333V30Z" fill="#5552FD"/>
<path d="M10 33.3335V36.6669H13.3334V33.3335H10Z" fill="#5552FD"/>
<path d="M36.6666 16.6669H40V13.3335H36.6666V16.6669Z" fill="#5552FD"/>
<path d="M33.3333 20H36.6666V16.6666H33.3333V20Z" fill="#9695F8"/>
<path d="M3.33331 20H6.66664V16.6666H3.33331V20Z" fill="#9695F8"/>
<path d="M3.05176e-05 20H3.33337V16.6666H3.05176e-05V20Z" fill="#5552FD"/>
<path d="M36.6666 20H40V16.6666H36.6666V20Z" fill="#5552FD"/>
<path d="M33.3333 23.3331H36.6666V19.9997H33.3333V23.3331Z" fill="#9695F8"/>
<path d="M3.33331 23.3331H6.66664V19.9997H3.33331V23.3331Z" fill="#9695F8"/>
<path d="M3.05176e-05 23.3331H3.33337V19.9997H3.05176e-05V23.3331Z" fill="#5552FD"/>
<path d="M36.6666 23.3331H40V19.9997H36.6666V23.3331Z" fill="#5552FD"/>
<path d="M33.3333 26.6669H36.6666V23.3335H33.3333V26.6669Z" fill="#9695F8"/>
<path d="M3.33331 26.6669H6.66664V23.3335H3.33331V26.6669Z" fill="#9695F8"/>
<path d="M3.05176e-05 26.6669H3.33337V23.3335H3.05176e-05V26.6669Z" fill="#5552FD"/>
<path d="M36.6666 26.6669H40V23.3335H36.6666V26.6669Z" fill="#5552FD"/>
<path d="M23.3333 30H26.6666V33.3334H23.3333V30Z" fill="#FED955"/>
<path d="M20 16.6669H23.3334V13.3335H20V16.6669Z" fill="#FED955"/>
<path d="M20 23.3331H23.3334V19.9997H20V23.3331Z" fill="#FED955"/>
<path d="M20 26.6669H23.3334V23.3335H20V26.6669Z" fill="#FED955"/>
<path d="M20 13.3331H23.3334V9.9998H20V13.3331Z" fill="#FED955"/>
<path d="M20 26.6669H23.3334V30.0003H20V26.6669Z" fill="#FED955"/>
<path d="M13.3333 23.3331H16.6666V19.9997H13.3333V23.3331Z" fill="#FED955"/>
<path d="M13.3333 20H16.6666V16.6666H13.3333V20Z" fill="#FED955"/>
<path d="M13.3333 26.6669H16.6666V23.3335H13.3333V26.6669Z" fill="#FED955"/>
<path d="M13.3333 13.3331H16.6666V9.9998H13.3333V13.3331Z" fill="#FED955"/>
<path d="M13.3333 26.6669H16.6666V30.0003H13.3333V26.6669Z" fill="#FED955"/>
<path d="M23.3333 23.3331H26.6666V19.9997H23.3333V23.3331Z" fill="#FED955"/>
<path d="M23.3333 20H26.6666V16.6666H23.3333V20Z" fill="#FED955"/>
<path d="M23.3333 26.6669H26.6666V23.3335H23.3333V26.6669Z" fill="#FED955"/>
<path d="M23.3333 13.3331H26.6666V9.9998H23.3333V13.3331Z" fill="#FED955"/>
<path d="M23.3333 26.6669H26.6666V30.0003H23.3333V26.6669Z" fill="#FED955"/>
<path d="M16.6666 10H20V6.66666H16.6666V10Z" fill="#FED955"/>
<path d="M16.6666 30H20V33.3334H16.6666V30Z" fill="#FED955"/>
<path d="M13.3333 10H16.6666V6.66666H13.3333V10Z" fill="#FED955"/>
<path d="M13.3333 30H16.6666V33.3334H13.3333V30Z" fill="#FED955"/>
<path d="M16.6666 16.6669H20V13.3335H16.6666V16.6669Z" fill="#FED955"/>
<path d="M16.6666 23.3331H20V19.9997H16.6666V23.3331Z" fill="#FED955"/>
<path d="M13.3333 16.6669H16.6666V13.3335H13.3333V16.6669Z" fill="#5552FD"/>
<path d="M20 20H23.3334V16.6666H20V20Z" fill="#5552FD"/>
<path d="M26.6666 16.6669H30V13.3335H26.6666V16.6669Z" fill="#5552FD"/>
<path d="M26.6666 23.3331H30V19.9997H26.6666V23.3331Z" fill="#5552FD"/>
<path d="M26.6666 20H30V16.6666H26.6666V20Z" fill="#5552FD"/>
<path d="M26.6666 26.6669H30V23.3335H26.6666V26.6669Z" fill="#5552FD"/>
<path d="M26.6666 13.3331H30V9.9998H26.6666V13.3331Z" fill="#5552FD"/>
<path d="M26.6666 26.6669H30V30.0003H26.6666V26.6669Z" fill="#5552FD"/>
<path d="M10 16.6669H13.3334V13.3335H10V16.6669Z" fill="#5552FD"/>
<path d="M10 23.3331H13.3334V19.9997H10V23.3331Z" fill="#5552FD"/>
<path d="M10 20H13.3334V16.6666H10V20Z" fill="#5552FD"/>
<path d="M10 26.6669H13.3334V23.3335H10V26.6669Z" fill="#5552FD"/>
<path d="M10 13.3331H13.3334V9.9998H10V13.3331Z" fill="#5552FD"/>
<path d="M10 26.6669H13.3334V30.0003H10V26.6669Z" fill="#5552FD"/>
<path d="M23.3333 16.6669H26.6666V13.3335H23.3333V16.6669Z" fill="#5552FD"/>
<path d="M16.6666 20H20V16.6666H16.6666V20Z" fill="#5552FD"/>
<path d="M16.6666 26.6669H20V23.3335H16.6666V26.6669Z" fill="#FED955"/>
<path d="M16.6666 13.3331H20V9.9998H16.6666V13.3331Z" fill="#FED955"/>
<path d="M16.6666 26.6669H20V30.0003H16.6666V26.6669Z" fill="#FED955"/>
<path d="M30 16.6669H33.3334V13.3335H30V16.6669Z" fill="#FED955"/>
<path d="M30 23.3331H33.3334V19.9997H30V23.3331Z" fill="#FED955"/>
<path d="M30 20H33.3334V16.6666H30V20Z" fill="#FED955"/>
<path d="M30 26.6669H33.3334V23.3335H30V26.6669Z" fill="#FED955"/>
</g>
</g>
<defs>
<clipPath id="clip0_102_11">
<rect width="40" height="40" fill="white"/>
</clipPath>
</defs>
</svg>
