<svg width="40" height="40" viewBox="0 0 40 40" fill="none" xmlns="http://www.w3.org/2000/svg">
<mask id="mask0_114_219" style="mask-type:luminance" maskUnits="userSpaceOnUse" x="0" y="0" width="40" height="40">
<path d="M40 0H0V40H40V0Z" fill="white"/>
</mask>
<g mask="url(#mask0_114_219)">
<path d="M6.66666 16.6667H9.99999V13.3334H6.66666V16.6667Z" fill="white"/>
<path d="M6.66666 23.3333H9.99999V19.9999H6.66666V23.3333Z" fill="white"/>
<path d="M6.66666 20H9.99999V16.6667H6.66666V20Z" fill="white"/>
<path d="M6.66666 26.6667H9.99999V23.3334H6.66666V26.6667Z" fill="white"/>
<path d="M20 10H23.3333V6.66667H20V10Z" fill="white"/>
<path d="M20 30H23.3333V33.3333H20V30Z" fill="white"/>
<path d="M23.3333 10H26.6667V6.66667H23.3333V10Z" fill="white"/>
<path d="M26.6667 10H30V6.66667H26.6667V10Z" fill="#9D9D9D"/>
<path d="M13.3333 10H10V6.66667H13.3333V10Z" fill="#9D9D9D"/>
<path d="M33.3333 30H30V26.6667H33.3333V30Z" fill="#9D9D9D"/>
<path d="M6.66666 30H9.99999V26.6667H6.66666V30Z" fill="#9D9D9D"/>
<path d="M23.3333 6.66675H26.6667V3.33341H23.3333V6.66675Z" fill="#9D9D9D"/>
<path d="M23.3333 3.33325H26.6667V-8.2016e-05H23.3333V3.33325Z" fill="#0C0C0C"/>
<path d="M23.3333 40H26.6667V36.6667H23.3333V40Z" fill="#0C0C0C"/>
<path d="M23.3333 36.6667H26.6667V33.3334H23.3333V36.6667Z" fill="#9D9D9D"/>
<path d="M16.6667 6.66675H20V3.33341H16.6667V6.66675Z" fill="#9D9D9D"/>
<path d="M16.6667 3.33325H20V-8.2016e-05H16.6667V3.33325Z" fill="#0C0C0C"/>
<path d="M16.6667 40H20V36.6667H16.6667V40Z" fill="#0C0C0C"/>
<path d="M16.6667 36.6667H20V33.3334H16.6667V36.6667Z" fill="#9D9D9D"/>
<path d="M20 6.66675H23.3333V3.33341H20V6.66675Z" fill="#9D9D9D"/>
<path d="M20 3.33325H23.3333V-8.2016e-05H20V3.33325Z" fill="#0C0C0C"/>
<path d="M20 40H23.3333V36.6667H20V40Z" fill="#0C0C0C"/>
<path d="M20 36.6667H23.3333V33.3334H20V36.6667Z" fill="#9D9D9D"/>
<path d="M13.3333 6.66675H16.6667V3.33341H13.3333V6.66675Z" fill="#9D9D9D"/>
<path d="M13.3333 3.33325H16.6667V-8.2016e-05H13.3333V3.33325Z" fill="#0C0C0C"/>
<path d="M13.3333 40H16.6667V36.6667H13.3333V40Z" fill="#0C0C0C"/>
<path d="M13.3333 36.6667H16.6667V33.3334H13.3333V36.6667Z" fill="#9D9D9D"/>
<path d="M30 13.3333H33.3333V9.99992H30V13.3333Z" fill="#9D9D9D"/>
<path d="M9.99999 13.3333H6.66666V9.99992H9.99999V13.3333Z" fill="#9D9D9D"/>
<path d="M30 33.3333H26.6667V29.9999H30V33.3333Z" fill="#9D9D9D"/>
<path d="M10 33.3333H13.3333V29.9999H10V33.3333Z" fill="#9D9D9D"/>
<path d="M33.3333 16.6667H36.6667V13.3334H33.3333V16.6667Z" fill="#9D9D9D"/>
<path d="M3.33334 16.6667H6.66667V13.3334H3.33334V16.6667Z" fill="#9D9D9D"/>
<path d="M0 16.6667H3.33334V13.3334H0V16.6667Z" fill="#0C0C0C"/>
<path d="M3.33334 13.3333H6.66667V9.99992H3.33334V13.3333Z" fill="#0C0C0C"/>
<path d="M36.6667 13.3333H33.3333V9.99992H36.6667V13.3333Z" fill="#0C0C0C"/>
<path d="M26.6667 36.6667H30V33.3334H26.6667V36.6667Z" fill="#0C0C0C"/>
<path d="M3.33334 26.6667V30H6.66667V26.6667H3.33334Z" fill="#0C0C0C"/>
<path d="M6.66666 10H9.99999V6.66667H6.66666V10Z" fill="#0C0C0C"/>
<path d="M33.3333 10H30V6.66667H33.3333V10Z" fill="#0C0C0C"/>
<path d="M30 33.3333H33.3333V29.9999H30V33.3333Z" fill="#0C0C0C"/>
<path d="M6.66666 29.9999V33.3333H9.99999V29.9999H6.66666Z" fill="#0C0C0C"/>
<path d="M10 6.66675H13.3333V3.33341H10V6.66675Z" fill="#0C0C0C"/>
<path d="M30 6.66675H26.6667V3.33341H30V6.66675Z" fill="#0C0C0C"/>
<path d="M33.3333 30H36.6667V26.6667H33.3333V30Z" fill="#0C0C0C"/>
<path d="M10 33.3334V36.6667H13.3333V33.3334H10Z" fill="#0C0C0C"/>
<path d="M36.6667 16.6667H40V13.3334H36.6667V16.6667Z" fill="#0C0C0C"/>
<path d="M33.3333 20H36.6667V16.6667H33.3333V20Z" fill="#9D9D9D"/>
<path d="M3.33334 20H6.66667V16.6667H3.33334V20Z" fill="#9D9D9D"/>
<path d="M0 20H3.33334V16.6667H0V20Z" fill="#0C0C0C"/>
<path d="M36.6667 20H40V16.6667H36.6667V20Z" fill="#0C0C0C"/>
<path d="M33.3333 23.3333H36.6667V19.9999H33.3333V23.3333Z" fill="#9D9D9D"/>
<path d="M3.33334 23.3333H6.66667V19.9999H3.33334V23.3333Z" fill="#9D9D9D"/>
<path d="M0 23.3333H3.33334V19.9999H0V23.3333Z" fill="#0C0C0C"/>
<path d="M36.6667 23.3333H40V19.9999H36.6667V23.3333Z" fill="#0C0C0C"/>
<path d="M33.3333 26.6667H36.6667V23.3334H33.3333V26.6667Z" fill="#9D9D9D"/>
<path d="M3.33334 26.6667H6.66667V23.3334H3.33334V26.6667Z" fill="#9D9D9D"/>
<path d="M0 26.6667H3.33334V23.3334H0V26.6667Z" fill="#0C0C0C"/>
<path d="M36.6667 26.6667H40V23.3334H36.6667V26.6667Z" fill="#0C0C0C"/>
<path d="M23.3333 30H26.6667V33.3333H23.3333V30Z" fill="white"/>
<path d="M20 16.6667H23.3333V13.3334H20V16.6667Z" fill="white"/>
<path d="M20 23.3333H23.3333V19.9999H20V23.3333Z" fill="white"/>
<path d="M20 26.6667H23.3333V23.3334H20V26.6667Z" fill="white"/>
<path d="M20 13.3333H23.3333V9.99992H20V13.3333Z" fill="white"/>
<path d="M20 26.6667H23.3333V30.0001H20V26.6667Z" fill="white"/>
<path d="M13.3333 23.3333H16.6667V19.9999H13.3333V23.3333Z" fill="white"/>
<path d="M13.3333 20H16.6667V16.6667H13.3333V20Z" fill="white"/>
<path d="M13.3333 26.6667H16.6667V23.3334H13.3333V26.6667Z" fill="white"/>
<path d="M13.3333 13.3333H16.6667V9.99992H13.3333V13.3333Z" fill="white"/>
<path d="M13.3333 26.6667H16.6667V30.0001H13.3333V26.6667Z" fill="white"/>
<path d="M23.3333 23.3333H26.6667V19.9999H23.3333V23.3333Z" fill="white"/>
<path d="M23.3333 20H26.6667V16.6667H23.3333V20Z" fill="white"/>
<path d="M23.3333 26.6667H26.6667V23.3334H23.3333V26.6667Z" fill="white"/>
<path d="M23.3333 13.3333H26.6667V9.99992H23.3333V13.3333Z" fill="white"/>
<path d="M23.3333 26.6667H26.6667V30.0001H23.3333V26.6667Z" fill="white"/>
<path d="M16.6667 10H20V6.66667H16.6667V10Z" fill="white"/>
<path d="M16.6667 30H20V33.3333H16.6667V30Z" fill="white"/>
<path d="M13.3333 10H16.6667V6.66667H13.3333V10Z" fill="white"/>
<path d="M13.3333 30H16.6667V33.3333H13.3333V30Z" fill="white"/>
<path d="M16.6667 16.6667H20V13.3334H16.6667V16.6667Z" fill="white"/>
<path d="M16.6667 23.3333H20V19.9999H16.6667V23.3333Z" fill="white"/>
<path d="M13.3333 16.6667H16.6667V13.3334H13.3333V16.6667Z" fill="#0C0C0C"/>
<path d="M20 20H23.3333V16.6667H20V20Z" fill="#0C0C0C"/>
<path d="M26.6667 16.6667H30V13.3334H26.6667V16.6667Z" fill="#0C0C0C"/>
<path d="M26.6667 23.3333H30V19.9999H26.6667V23.3333Z" fill="#0C0C0C"/>
<path d="M26.6667 20H30V16.6667H26.6667V20Z" fill="#0C0C0C"/>
<path d="M26.6667 26.6667H30V23.3334H26.6667V26.6667Z" fill="#0C0C0C"/>
<path d="M26.6667 13.3333H30V9.99992H26.6667V13.3333Z" fill="#0C0C0C"/>
<path d="M26.6667 26.6667H30V30.0001H26.6667V26.6667Z" fill="#0C0C0C"/>
<path d="M10 16.6667H13.3333V13.3334H10V16.6667Z" fill="#0C0C0C"/>
<path d="M10 23.3333H13.3333V19.9999H10V23.3333Z" fill="#0C0C0C"/>
<path d="M10 20H13.3333V16.6667H10V20Z" fill="#0C0C0C"/>
<path d="M10 26.6667H13.3333V23.3334H10V26.6667Z" fill="#0C0C0C"/>
<path d="M10 13.3333H13.3333V9.99992H10V13.3333Z" fill="#0C0C0C"/>
<path d="M10 26.6667H13.3333V30.0001H10V26.6667Z" fill="#0C0C0C"/>
<path d="M23.3333 16.6667H26.6667V13.3334H23.3333V16.6667Z" fill="#0C0C0C"/>
<path d="M16.6667 20H20V16.6667H16.6667V20Z" fill="#0C0C0C"/>
<path d="M16.6667 26.6667H20V23.3334H16.6667V26.6667Z" fill="white"/>
<path d="M16.6667 13.3333H20V9.99992H16.6667V13.3333Z" fill="white"/>
<path d="M16.6667 26.6667H20V30.0001H16.6667V26.6667Z" fill="white"/>
<path d="M30 16.6667H33.3333V13.3334H30V16.6667Z" fill="white"/>
<path d="M30 23.3333H33.3333V19.9999H30V23.3333Z" fill="white"/>
<path d="M30 20H33.3333V16.6667H30V20Z" fill="white"/>
<path d="M30 26.6667H33.3333V23.3334H30V26.6667Z" fill="white"/>
</g>
</svg>
