<svg width="32" height="32" viewBox="0 0 32 32" fill="none" xmlns="http://www.w3.org/2000/svg">
<g clip-path="url(#clip0_631_15173)">
<path fill-rule="evenodd" clip-rule="evenodd" d="M32 15.9999C32 13.9059 31.5834 11.8118 30.7821 9.87706C29.9805 7.94234 28.7942 6.16698 27.3136 4.68634C25.833 3.20538 24.0576 2.01946 22.1229 1.21786C20.1882 0.416579 18.0941 -6.10352e-05 16 -6.10352e-05C13.9059 -6.10352e-05 11.8115 0.416579 9.8768 1.21786C7.94208 2.01946 6.16704 3.20538 4.68608 4.68634C3.20544 6.16698 2.0192 7.94234 1.21792 9.87706C0.41632 11.8118 0 13.9059 0 15.9999C0 18.094 0.41632 20.1881 1.21792 22.1228C2.0192 24.0575 3.20544 25.8329 4.68608 27.3139C6.16704 28.7945 7.94208 29.9807 9.8768 30.782C11.8115 31.5833 13.9059 31.9999 16 31.9999C18.0941 31.9999 20.1882 31.5833 22.1229 30.782C24.0576 29.9807 25.833 28.7945 27.3136 27.3139C28.7942 25.8329 29.9805 24.0575 30.7821 22.1228C31.5834 20.1881 32 18.094 32 15.9999Z" fill="white"/>
<path fill-rule="evenodd" clip-rule="evenodd" d="M11.8547 3.38363C13.3453 2.89371 14.9382 2.66971 16.5161 2.73019C18.0944 2.79067 19.6579 3.13595 21.1129 3.74395C22.5683 4.35195 23.9152 5.22299 25.0675 6.29755C26.5917 7.71931 27.775 9.49755 28.4848 11.4867C29.1949 13.4761 29.4314 15.6764 29.1574 17.7711C28.8838 19.8659 28.0998 21.8553 26.9139 23.566C25.728 25.2767 24.1398 26.7084 22.2745 27.7004C20.4093 28.6921 18.2662 29.2438 16.1539 29.2758C14.0416 29.3078 11.9597 28.8204 10.095 27.895C8.23071 26.9695 6.58335 25.6063 5.33247 23.9036C4.08159 22.2009 3.22719 20.1587 2.88799 18.0748C2.54879 15.9907 2.72479 13.8646 3.37471 11.8812C3.86591 10.3817 4.62815 8.96411 5.60479 7.73563H4.12031V5.28187H9.93695V10.7135H7.48319V9.22939C6.68319 10.2355 6.05855 11.3967 5.65631 12.6255C5.12415 14.2511 4.98079 15.9951 5.25631 17.6969C5.59871 19.8137 6.58879 21.8649 8.06655 23.4457C9.83423 25.3363 12.2995 26.5542 14.8659 26.8207C17.432 27.0873 20.0992 26.4028 22.2173 24.9286C24.3353 23.4543 25.905 21.1903 26.5421 18.6899C27.1792 16.1894 26.8838 13.4524 25.735 11.142C24.5862 8.83163 22.5837 6.94843 20.1891 5.95899C17.7945 4.96923 15.0077 4.87387 12.6038 5.66363L11.8547 3.38363Z" fill="#0657F9"/>
<path fill-rule="evenodd" clip-rule="evenodd" d="M24 16C24 14.953 23.7917 13.9059 23.391 12.9386C22.9904 11.9712 22.3973 11.0835 21.6568 10.3432C20.9165 9.60272 20.0288 9.0096 19.0614 8.60896C18.0941 8.20832 17.047 8 16 8C14.953 8 13.9059 8.20832 12.9386 8.60896C11.9712 9.0096 11.0835 9.60272 10.3432 10.3432C9.60272 11.0835 9.0096 11.9712 8.60896 12.9386C8.20832 13.9059 8 14.953 8 16C8 17.047 8.20832 18.0941 8.60896 19.0614C9.0096 20.0288 9.60272 20.9165 10.3432 21.6568C11.0835 22.3973 11.9712 22.9904 12.9386 23.391C13.9059 23.7917 14.953 24 16 24C17.047 24 18.0941 23.7917 19.0614 23.391C20.0288 22.9904 20.9165 22.3973 21.6568 21.6568C22.3973 20.9165 22.9904 20.0288 23.391 19.0614C23.7917 18.0941 24 17.047 24 16Z" fill="#898989"/>
<path fill-rule="evenodd" clip-rule="evenodd" d="M16.0939 10.3333L12.6667 15.9643L16.0939 17.9705L19.5218 15.9643L16.0939 10.3333Z" fill="white"/>
<path fill-rule="evenodd" clip-rule="evenodd" d="M12.6667 16.6081L16.0939 21.3902L19.5237 16.6081L16.0939 18.6131L12.6667 16.6081Z" fill="white"/>
<path fill-rule="evenodd" clip-rule="evenodd" d="M20.8115 11.2808C20.6801 11.2872 20.5485 11.2917 20.4168 11.2951C20.4262 11.3551 20.435 11.4152 20.4431 11.4755C20.4607 11.6065 20.4755 11.7378 20.4881 11.8695C20.4966 11.9578 20.5042 12.046 20.5105 12.1345C20.5166 12.2217 20.5211 12.309 20.5237 12.3964C20.5292 12.5856 20.5261 12.775 20.5181 12.964C20.5108 13.1368 20.4994 13.3094 20.4856 13.4818C21.0475 13.2316 21.4759 13.137 21.7955 13.0664L21.8001 13.0654C22.3161 12.9512 22.5471 12.8986 22.7495 12.8478C22.9519 12.797 23.1256 12.748 23.2701 12.6891C23.4145 12.6303 23.5297 12.5615 23.6202 12.4767C23.7107 12.3919 23.7767 12.291 23.8351 12.1473C23.8933 12.0036 23.9439 11.817 23.9729 11.6108C24.0018 11.4046 24.0092 11.1787 23.9872 10.9995C23.9652 10.8204 23.9139 10.688 23.8563 10.5545C23.7987 10.4211 23.735 10.2865 23.6392 10.1425C23.5436 9.99839 23.416 9.8449 23.2356 9.67924C23.0553 9.51359 22.8221 9.33589 22.5467 9.16665C22.2714 8.9973 21.9539 8.83641 21.5601 8.66718C21.1665 8.49782 20.6964 8.32012 20.2884 8.19955C19.8803 8.07885 19.5343 8.01528 19.2311 8.0024C18.9279 7.98964 18.6675 8.02769 18.4419 8.1169C18.2163 8.2061 18.0252 8.34648 17.8593 8.5076C17.6932 8.66861 17.552 8.85036 17.4344 9.05073C17.3167 9.25109 17.2225 9.47006 17.152 9.71634C17.0816 9.96261 17.0351 10.2361 17.0121 10.6925C16.989 11.149 16.9895 11.7884 17.0991 12.3958C17.2086 13.0032 17.4271 13.5786 17.65 13.9752C17.8728 14.372 18.0999 14.59 18.2888 14.7322C18.4776 14.8744 18.6283 14.9407 18.7792 14.9745C18.9301 15.0083 19.0812 15.0098 19.2208 14.9711C19.3605 14.9323 19.4888 14.8534 19.5999 14.7513C19.711 14.6493 19.8048 14.5242 19.8892 14.3787C19.9735 14.2332 20.0482 14.0672 20.108 13.8976C20.14 13.8068 20.1676 13.7151 20.1913 13.6216C20.21 13.5471 20.2261 13.4718 20.2397 13.3962C20.2554 13.3084 20.2676 13.2199 20.2765 13.1312C20.2854 13.0437 20.2911 12.9559 20.2949 12.8681C20.2988 12.7797 20.3007 12.6914 20.3013 12.6029C20.3028 12.3958 20.2984 12.1885 20.2876 11.9817C20.2829 11.8891 20.2765 11.7964 20.2684 11.704C20.2566 11.5686 20.2404 11.4336 20.2203 11.2992C20.203 11.1836 20.183 11.0683 20.1604 10.9536C20.1202 10.7496 20.0718 10.5466 20.0079 10.3489C19.9896 10.2924 19.97 10.2364 19.9499 10.1806C19.9328 10.1332 19.9155 10.0857 19.8981 10.0383C19.8862 10.0057 19.8743 9.97322 19.8625 9.94067C19.852 9.90978 19.8422 9.87853 19.8343 9.84693C19.8269 9.81687 19.8208 9.78622 19.8197 9.75522C19.8195 9.74687 19.8196 9.73852 19.8203 9.73017C19.8209 9.72182 19.8222 9.71347 19.8244 9.70536C19.8264 9.69725 19.8294 9.68938 19.8332 9.68199C19.8371 9.67483 19.8418 9.66803 19.8473 9.66195C19.8592 9.64883 19.8742 9.63846 19.8897 9.62951C19.912 9.61651 19.9365 9.60709 19.9617 9.60041C20.0157 9.58622 20.0729 9.58407 20.1288 9.58598C20.1865 9.58801 20.244 9.59457 20.301 9.6028C20.3876 9.6152 20.4737 9.63178 20.5593 9.64991C20.6465 9.66827 20.7335 9.68855 20.8199 9.71001C20.9518 9.74281 21.0829 9.77859 21.2129 9.81819C21.4162 9.88032 21.6165 9.95367 21.8111 10.0389C21.9445 10.0973 22.0758 10.1608 22.2035 10.2306C22.2896 10.2777 22.3743 10.3276 22.4558 10.3821C22.5108 10.4188 22.5646 10.4576 22.6152 10.5001C22.6492 10.5288 22.6818 10.5593 22.7103 10.5933C22.7183 10.6028 22.7258 10.6127 22.733 10.6229C22.7401 10.6331 22.7466 10.6437 22.7524 10.6547C22.7581 10.6658 22.7631 10.6774 22.7667 10.6893C22.7703 10.7011 22.7726 10.7135 22.773 10.7258C22.7733 10.7378 22.7719 10.7501 22.7688 10.7618C22.7655 10.7732 22.7608 10.7842 22.7548 10.7945C22.7416 10.8168 22.723 10.836 22.7032 10.8528C22.6733 10.8783 22.6397 10.8994 22.6055 10.9186C22.573 10.9369 22.5394 10.9536 22.5051 10.9681C22.4709 10.9826 22.4361 10.9953 22.401 11.0075C22.3651 11.0199 22.3289 11.0317 22.2928 11.0431C22.2385 11.0603 22.184 11.0769 22.1294 11.0932C22.0747 11.1094 22.0198 11.1257 21.9646 11.14C21.8829 11.1611 21.8001 11.1784 21.717 11.1929C21.6322 11.2076 21.5471 11.2196 21.4616 11.2298C21.375 11.24 21.2882 11.2485 21.2014 11.2558C21.0716 11.2665 20.9416 11.2745 20.8115 11.2808ZM18.5953 11.5608C18.6557 11.5401 18.722 11.5378 18.7819 11.5478C18.8417 11.5578 18.8951 11.5803 18.9561 11.6184C19.0171 11.6566 19.086 11.7103 19.1632 11.814C19.2403 11.9177 19.3259 12.0715 19.3887 12.2302C19.4515 12.3891 19.4916 12.553 19.5124 12.7315C19.5334 12.91 19.5352 13.103 19.5188 13.2627C19.5024 13.4224 19.4678 13.5489 19.4263 13.6457C19.3847 13.7425 19.3362 13.8097 19.2753 13.8632C19.2142 13.9167 19.1409 13.9567 19.055 13.9681C18.9692 13.9797 18.8709 13.9627 18.7871 13.9307C18.7032 13.8986 18.6339 13.8513 18.5642 13.7787C18.4946 13.7061 18.4246 13.608 18.3619 13.4893C18.2991 13.3705 18.2434 13.2311 18.2078 13.0893C18.1723 12.9475 18.1569 12.8033 18.1492 12.6685C18.1415 12.5339 18.1415 12.4086 18.1605 12.2769C18.1793 12.1451 18.2173 12.0068 18.2647 11.9028C18.3121 11.7988 18.369 11.7292 18.4246 11.6748C18.4803 11.6204 18.5348 11.5815 18.5953 11.5608Z" fill="black"/>
<path fill-rule="evenodd" clip-rule="evenodd" d="M20.8115 20.2808C20.6801 20.2872 20.5485 20.2917 20.4168 20.2951C20.4262 20.3551 20.435 20.4152 20.4431 20.4755C20.4607 20.6065 20.4755 20.7378 20.4881 20.8695C20.4966 20.9578 20.5042 21.046 20.5105 21.1345C20.5166 21.2217 20.5211 21.309 20.5237 21.3964C20.5292 21.5856 20.5261 21.775 20.5181 21.964C20.5108 22.1368 20.4994 22.3094 20.4856 22.4818C21.0475 22.2316 21.4759 22.137 21.7955 22.0664L21.8001 22.0654C22.3161 21.9512 22.5471 21.8986 22.7495 21.8478C22.9519 21.797 23.1256 21.748 23.2701 21.6891C23.4145 21.6303 23.5297 21.5615 23.6202 21.4767C23.7107 21.3919 23.7767 21.291 23.8351 21.1473C23.8933 21.0036 23.9439 20.817 23.9729 20.6108C24.0018 20.4046 24.0092 20.1787 23.9872 19.9995C23.9652 19.8204 23.9139 19.688 23.8563 19.5545C23.7987 19.4211 23.735 19.2865 23.6392 19.1425C23.5436 18.9984 23.416 18.8449 23.2356 18.6792C23.0553 18.5136 22.8221 18.3359 22.5467 18.1667C22.2714 17.9973 21.9539 17.8364 21.5601 17.6672C21.1665 17.4978 20.6964 17.3201 20.2884 17.1995C19.8803 17.0789 19.5343 17.0153 19.2311 17.0024C18.9279 16.9896 18.6675 17.0277 18.4419 17.1169C18.2163 17.2061 18.0252 17.3465 17.8593 17.5076C17.6932 17.6686 17.552 17.8504 17.4344 18.0507C17.3167 18.2511 17.2225 18.4701 17.152 18.7163C17.0816 18.9626 17.0351 19.2361 17.0121 19.6925C16.989 20.149 16.9895 20.7884 17.0991 21.3958C17.2086 22.0032 17.4271 22.5786 17.65 22.9752C17.8728 23.372 18.0999 23.59 18.2888 23.7322C18.4776 23.8744 18.6283 23.9407 18.7792 23.9745C18.9301 24.0083 19.0812 24.0098 19.2208 23.9711C19.3605 23.9323 19.4888 23.8534 19.5999 23.7513C19.711 23.6493 19.8048 23.5242 19.8892 23.3787C19.9735 23.2332 20.0482 23.0672 20.108 22.8976C20.14 22.8068 20.1676 22.7151 20.1913 22.6216C20.21 22.5471 20.2261 22.4718 20.2397 22.3962C20.2554 22.3084 20.2676 22.2199 20.2765 22.1312C20.2854 22.0437 20.2911 21.9559 20.2949 21.8681C20.2988 21.7797 20.3007 21.6914 20.3013 21.6029C20.3028 21.3958 20.2984 21.1885 20.2876 20.9817C20.2829 20.8891 20.2765 20.7964 20.2684 20.704C20.2566 20.5686 20.2404 20.4336 20.2203 20.2992C20.203 20.1836 20.183 20.0683 20.1604 19.9536C20.1202 19.7496 20.0718 19.5466 20.0079 19.3489C19.9896 19.2924 19.97 19.2364 19.9499 19.1806C19.9328 19.1332 19.9155 19.0857 19.8981 19.0383C19.8862 19.0057 19.8743 18.9732 19.8625 18.9407C19.852 18.9098 19.8422 18.8785 19.8343 18.8469C19.8269 18.8169 19.8208 18.7862 19.8197 18.7552C19.8195 18.7469 19.8196 18.7385 19.8203 18.7302C19.8209 18.7218 19.8222 18.7135 19.8244 18.7054C19.8264 18.6973 19.8294 18.6894 19.8332 18.682C19.8371 18.6748 19.8418 18.668 19.8473 18.662C19.8592 18.6488 19.8742 18.6385 19.8897 18.6295C19.912 18.6165 19.9365 18.6071 19.9617 18.6004C20.0157 18.5862 20.0729 18.5841 20.1288 18.586C20.1865 18.588 20.244 18.5946 20.301 18.6028C20.3876 18.6152 20.4737 18.6318 20.5593 18.6499C20.6465 18.6683 20.7335 18.6885 20.8199 18.71C20.9518 18.7428 21.0829 18.7786 21.2129 18.8182C21.4162 18.8803 21.6165 18.9537 21.8111 19.0389C21.9445 19.0973 22.0758 19.1608 22.2035 19.2306C22.2896 19.2777 22.3743 19.3276 22.4558 19.3821C22.5108 19.4188 22.5646 19.4576 22.6152 19.5001C22.6492 19.5288 22.6818 19.5593 22.7103 19.5933C22.7183 19.6028 22.7258 19.6127 22.733 19.6229C22.7401 19.6331 22.7466 19.6437 22.7524 19.6547C22.7581 19.6658 22.7631 19.6774 22.7667 19.6893C22.7703 19.7011 22.7726 19.7135 22.773 19.7258C22.7733 19.7378 22.7719 19.7501 22.7688 19.7618C22.7655 19.7732 22.7608 19.7842 22.7548 19.7945C22.7416 19.8168 22.723 19.836 22.7032 19.8528C22.6733 19.8783 22.6397 19.8994 22.6055 19.9186C22.573 19.9369 22.5394 19.9536 22.5051 19.9681C22.4709 19.9826 22.4361 19.9953 22.401 20.0075C22.3651 20.0199 22.3289 20.0317 22.2928 20.0431C22.2385 20.0603 22.184 20.0769 22.1294 20.0932C22.0747 20.1094 22.0198 20.1257 21.9646 20.14C21.8829 20.1611 21.8001 20.1784 21.717 20.1929C21.6322 20.2076 21.5471 20.2196 21.4616 20.2298C21.375 20.24 21.2882 20.2485 21.2014 20.2558C21.0716 20.2665 20.9416 20.2745 20.8115 20.2808ZM18.5953 20.5608C18.6557 20.5401 18.722 20.5378 18.7819 20.5478C18.8417 20.5578 18.8951 20.5803 18.9561 20.6184C19.0171 20.6566 19.086 20.7103 19.1632 20.814C19.2403 20.9177 19.3259 21.0715 19.3887 21.2302C19.4515 21.3891 19.4916 21.553 19.5124 21.7315C19.5334 21.91 19.5352 22.103 19.5188 22.2627C19.5024 22.4224 19.4678 22.5489 19.4263 22.6457C19.3847 22.7425 19.3362 22.8097 19.2753 22.8632C19.2142 22.9167 19.1409 22.9567 19.055 22.9681C18.9692 22.9797 18.8709 22.9627 18.7871 22.9307C18.7032 22.8986 18.6339 22.8513 18.5642 22.7787C18.4946 22.7061 18.4246 22.608 18.3619 22.4893C18.2991 22.3705 18.2434 22.2311 18.2078 22.0893C18.1723 21.9475 18.1569 21.8033 18.1492 21.6685C18.1415 21.5339 18.1415 21.4086 18.1605 21.2769C18.1793 21.1451 18.2173 21.0068 18.2647 20.9028C18.3121 20.7988 18.369 20.7292 18.4246 20.6748C18.4803 20.6204 18.5348 20.5815 18.5953 20.5608Z" fill="black"/>
</g>
<defs>
<clipPath id="clip0_631_15173">
<rect width="32" height="32" fill="white"/>
</clipPath>
</defs>
</svg>
