<svg width="48" height="32" viewBox="0 0 48 32" fill="none" xmlns="http://www.w3.org/2000/svg">
<path fill-rule="evenodd" clip-rule="evenodd" d="M32.0008 16.0022C32.0008 7.17437 24.8291 0.00366211 16.0004 0.00366211C7.17169 0.00366211 0 7.17437 0 16.0022C0 24.8299 7.17169 32.0007 16.0004 32.0007C24.8291 32.0007 32.0008 24.8299 32.0008 16.0022Z" fill="url(#paint0_linear)"/>
<path fill-rule="evenodd" clip-rule="evenodd" d="M19.1501 23.3217C21.2722 24.1011 23.1856 24.4279 24.7702 24.6506C26.355 24.8732 27.6111 24.9916 28.2683 25.084C28.9255 25.1764 28.9838 25.2429 28.9549 25.3134C28.9258 25.3837 28.8095 25.4583 28.5061 25.5489C28.2028 25.6396 27.7122 25.7466 26.7319 26.288C25.7514 26.8296 24.2811 27.8057 22.8229 28.5786C21.3647 29.3516 19.9186 29.9213 18.2145 30.4077C16.5104 30.894 14.5483 31.2969 12.7393 31.2231C10.9303 31.1494 9.27427 30.599 7.75497 29.6923C6.23551 28.7854 4.85265 27.5222 4.1056 25.9906C3.3584 24.4589 3.24718 22.6588 3.44861 21.3693C3.65004 20.08 4.16429 19.3013 4.97017 18.8133C5.77606 18.3254 6.87359 18.1283 8.15476 18.3877C9.43593 18.6472 10.9011 19.363 12.799 20.3369C14.6969 21.3107 17.0278 22.5425 19.1501 23.3217Z" fill="#00F8FF" fill-opacity="0.396061"/>
<path opacity="0.699544" fill-rule="evenodd" clip-rule="evenodd" d="M22.2916 26.6913C23.779 27.1903 25.2582 27.6768 25.5536 28.2142C25.8489 28.7516 24.9606 29.3399 23.7625 29.979C22.5644 30.6181 21.0565 31.3083 19.1641 31.6836C17.2718 32.0591 14.9949 32.1198 12.8955 31.6843C10.7963 31.2488 8.87445 30.3174 7.76754 29.3664C6.66064 28.4156 6.36879 27.4455 6.37375 26.4675C6.37855 25.4895 6.68016 24.5037 7.4757 23.8669C8.27107 23.2302 9.56038 22.9425 11.3655 23.2177C13.1707 23.493 15.4919 24.3312 17.4002 25.006C19.3086 25.6808 20.8042 26.1923 22.2916 26.6913Z" fill="#053FBE"/>
<path fill-rule="evenodd" clip-rule="evenodd" d="M18.588 27.7371C20.4632 28.3585 22.49 29.189 22.6042 29.9348C22.7183 30.6809 20.9197 31.3422 19.0277 31.704C17.1356 32.0659 15.1501 32.1282 13.4651 31.6856C11.7803 31.2429 10.3961 30.295 9.8289 29.2978C9.26185 28.3004 9.51178 27.2537 10.2206 26.7443C10.9294 26.2349 12.097 26.263 13.5429 26.4832C14.9887 26.7035 16.7126 27.1157 18.588 27.7371Z" fill="#001EC3"/>
<path fill-rule="evenodd" clip-rule="evenodd" d="M14.6986 28.6753C13.679 28.6323 12.9028 28.9598 12.687 29.4338C12.4712 29.9078 12.8156 30.5284 13.5216 30.9429C14.2275 31.3575 15.2949 31.5659 16.4138 31.5536C17.5327 31.5413 18.7033 31.3082 19.0171 30.9367C19.3308 30.5652 18.7876 30.0553 17.8844 29.5936C16.9813 29.1319 15.7183 28.7183 14.6986 28.6753Z" fill="#000086"/>
<path opacity="0.8" fill-rule="evenodd" clip-rule="evenodd" d="M14.9013 30.6085C16.8033 30.3566 18.7406 29.6885 20.884 28.4212C23.0276 27.1541 25.3772 25.2879 27.0011 23.3222C28.625 21.3563 29.5232 19.2907 30.0956 17.3664C30.6679 15.4419 30.9143 13.6589 30.7199 11.8376C30.5253 10.0165 29.89 8.15699 28.86 6.68897C27.8301 5.22078 26.4054 4.14376 24.6735 3.4723C22.9416 2.80084 20.9024 2.53495 18.8086 2.82084C16.7148 3.10673 14.5664 3.94458 12.4963 5.19294C10.4263 6.44131 8.43475 8.10004 6.74703 10.0911C5.05931 12.0819 3.6756 14.4049 3.02822 16.8794C2.38085 19.354 2.46981 21.9802 2.97382 23.917C3.47783 25.8538 4.39689 27.101 5.515 28.0886C6.63295 29.076 7.94994 29.8038 9.54149 30.2499C11.1332 30.6959 12.9995 30.8604 14.9013 30.6085Z" fill="url(#paint1_linear)"/>
<path fill-rule="evenodd" clip-rule="evenodd" d="M13.5563 11.1679C15.8962 12.3254 18.3295 13.8298 20.1056 15.477C21.8815 17.124 22.9999 18.9141 23.2623 20.6504C23.5247 22.3868 22.9309 24.0696 21.8301 25.4764C20.7291 26.8832 19.1211 28.0141 17.597 28.7524C16.073 29.4908 14.6331 29.8368 13.1013 29.9334C11.5694 30.0302 9.94534 29.8778 8.50114 29.4765C7.05695 29.0751 5.7926 28.4248 4.76586 27.485C3.73895 26.5451 2.94981 25.3158 2.3938 23.9151C1.83779 22.5144 1.51506 20.9423 1.29778 19.2843C1.08065 17.6264 0.968807 15.8826 0.930567 14.2331C0.892486 12.5838 0.927847 11.0289 1.3677 10.0479C1.80771 9.06702 2.65237 8.66018 3.61255 8.47939C4.57257 8.29861 5.64812 8.34389 7.30912 8.77185C8.97012 9.19997 11.2164 10.0105 13.5563 11.1679Z" fill="#1CEFFF" fill-opacity="0.6"/>
<g style="mix-blend-mode:multiply">
<path fill-rule="evenodd" clip-rule="evenodd" d="M17.6185 11.3642C20.5187 12.8927 23.5732 14.631 25.8905 16.5327C28.208 18.4346 29.7884 20.5 30.2202 21.8863C30.6519 23.2724 29.9349 23.9795 28.5608 24.1496C27.1867 24.3197 25.1553 23.953 22.7797 23.1598C20.4041 22.3666 17.6844 21.1468 15.2107 19.8489C12.7372 18.5511 10.5097 17.1747 8.67747 15.8756C6.84511 14.5767 5.40796 13.3549 4.38873 12.3406C3.36967 11.3263 2.76853 10.5197 2.44613 9.59286C2.12356 8.66606 2.07956 7.61928 3.25607 7.20012C4.43241 6.78096 6.82927 6.98958 9.40069 7.75319C11.9721 8.51696 14.7183 9.83572 17.6185 11.3642Z" fill="#94FF63" fill-opacity="0.6"/>
</g>
<path fill-rule="evenodd" clip-rule="evenodd" d="M15.8582 18.8363C17.387 19.779 19.3075 20.7786 21.4677 21.5507C23.628 22.3227 26.0279 22.8675 27.7959 22.8867C29.5641 22.9061 30.7791 22.4048 31.3515 20.4827C31.9238 18.5608 32.2391 15.9223 31.7659 13.2385C31.2928 10.5549 29.9526 7.82119 28.6598 6.42244C27.3669 5.02369 25.7358 4.2556 23.8814 3.85884C22.027 3.46207 19.9488 3.43648 17.9517 3.93019C15.9545 4.42375 14.038 5.43629 12.5927 6.75601C11.1472 8.07573 10.1728 9.70246 10.1616 11.3148C10.1504 12.927 11.1024 14.5249 12.147 15.7665C13.1919 17.0082 14.3292 17.8939 15.8582 18.8363Z" fill="url(#paint2_linear)"/>
<path fill-rule="evenodd" clip-rule="evenodd" d="M0.46512 13.4396C0.771847 12.4909 1.29442 11.6721 2.23924 11.3411C3.18406 11.0099 4.5513 11.1665 5.97389 11.5041C7.39664 11.8418 8.87492 12.3603 10.5121 13.3052C12.1494 14.2501 13.9456 15.6212 15.205 17.0917C16.4645 18.5622 17.1874 20.1321 17.311 21.6496C17.4343 23.1672 16.9585 24.6323 16.0965 25.7479C15.2347 26.8635 13.987 27.6293 12.6673 28.068C11.3476 28.5065 9.95558 28.618 8.53523 28.4014C7.11488 28.185 5.66604 27.6407 4.52234 26.8145C3.37879 25.9884 2.54053 24.8806 1.92531 23.7426C1.31026 22.6045 0.91841 21.4363 0.630723 20.2318C0.343037 19.0271 0.159672 17.7862 0.113591 16.6263C0.0673502 15.4666 0.158232 14.3881 0.46512 13.4396Z" fill="url(#paint3_linear)"/>
<path fill-rule="evenodd" clip-rule="evenodd" d="M7.70308 26.128C8.65686 26.1563 9.65336 26.0307 10.4603 25.5855C11.2672 25.1401 11.8846 24.375 12.2216 23.4289C12.5584 22.4827 12.6146 21.3555 12.2318 20.2109C11.8491 19.0662 11.0273 17.9044 9.86921 16.9727C8.71126 16.0408 7.21715 15.3387 5.9976 14.8559C4.77805 14.3731 3.83307 14.1091 2.96425 14.2968C2.09527 14.4843 1.30229 15.1232 0.917318 15.9646C0.532189 16.8058 0.55523 17.8495 0.680993 18.7978C0.806756 19.7462 1.03524 20.5994 1.39605 21.4225C1.7567 22.2456 2.24983 23.0387 2.86024 23.7525C3.47082 24.4664 4.19868 25.1012 5.01837 25.5095C5.83791 25.9178 6.74929 26.0998 7.70308 26.128Z" fill="url(#paint4_linear)"/>
<path fill-rule="evenodd" clip-rule="evenodd" d="M7.29312 19.2455C8.02593 20.1356 8.35394 21.256 8.19922 22.0564C8.04465 22.8568 7.4072 23.3371 6.59294 23.4147C5.77868 23.4923 4.78762 23.167 4.0292 22.6056C3.27062 22.0442 2.74469 21.2465 2.46388 20.4353C2.18308 19.6241 2.14739 18.7993 2.49204 18.2303C2.83653 17.6616 3.56119 17.3488 4.49225 17.5222C5.42315 17.6957 6.56046 18.3555 7.29312 19.2455Z" fill="#0A0FCA" fill-opacity="0.8"/>
<path fill-rule="evenodd" clip-rule="evenodd" d="M23.3748 16.8106C24.8355 17.384 26.623 17.6384 27.8693 17.3435C29.1156 17.0485 29.8207 16.2043 30.0949 15.16C30.3692 14.116 30.2127 12.8718 29.658 11.6338C29.1032 10.396 28.1503 9.16442 26.8523 8.41345C25.5544 7.66248 23.9116 7.39194 22.5519 7.52713C21.192 7.66232 20.1154 8.20307 19.4705 8.959C18.8259 9.71493 18.6129 10.686 18.7142 11.6373C18.8155 12.5887 19.2307 13.5205 20.0053 14.4326C20.78 15.3447 21.914 16.2372 23.3748 16.8106Z" fill="#FF6D00" fill-opacity="0.856971"/>
<path fill-rule="evenodd" clip-rule="evenodd" d="M21.4596 18.8247C23.2111 19.6165 25.106 20.1961 26.6962 20.2682C28.2863 20.3405 29.5718 19.9052 30.4113 18.9955C31.251 18.0857 31.6448 16.7015 31.6201 14.8911C31.5956 13.0806 31.1527 10.844 29.8286 9.04638C28.5044 7.24894 26.2989 5.89051 24.0081 5.46383C21.7172 5.03731 19.3411 5.54222 17.6544 6.59045C15.9676 7.63867 14.9703 9.23004 14.8914 10.8929C14.8125 12.556 15.6521 14.2904 16.8759 15.6597C18.1 17.029 19.7082 18.0329 21.4596 18.8247Z" fill="#FFFD00" fill-opacity="0.749399"/>
<path fill-rule="evenodd" clip-rule="evenodd" d="M19.2044 10.2274C21.0569 11.1113 22.9447 12.043 24.5674 12.5516C26.1902 13.0604 27.5481 13.1461 28.4266 12.6366C29.3048 12.1272 29.7036 11.0225 29.7468 9.96274C29.79 8.90284 29.4775 7.88805 28.852 6.79903C28.2264 5.71001 27.2878 4.54676 25.8079 3.64332C24.3281 2.74004 22.3069 2.09658 20.2347 2.01163C18.1626 1.92684 16.0396 2.40039 14.3099 2.99346C12.5801 3.58668 11.2439 4.2991 10.0709 4.95664C8.89779 5.61418 7.888 6.21684 6.84206 6.57569C5.79611 6.93454 4.71385 7.04973 4.07559 6.95566C3.4375 6.86175 3.24325 6.55857 3.34869 6.2986C3.4543 6.03846 3.85975 5.82152 4.68553 5.73161C5.51131 5.6417 6.75758 5.67913 8.33297 6.02358C9.90853 6.36803 11.8132 7.01965 13.6741 7.76358C15.5351 8.50751 17.3521 9.3436 19.2044 10.2274Z" fill="url(#paint5_radial)"/>
<path fill-rule="evenodd" clip-rule="evenodd" d="M16.834 5.99336C18.9136 6.6677 21.0176 7.25021 22.7858 7.46715C24.554 7.68393 25.9864 7.53514 26.5808 6.87424C27.175 6.21334 26.9313 5.04033 26.0756 3.95755C25.2199 2.87477 23.7521 1.8819 22.0445 1.34291C20.3368 0.803915 18.3892 0.718803 16.725 0.831433C15.0608 0.944223 13.68 1.25475 12.3961 1.6416C11.1124 2.02828 9.9255 2.49112 8.91876 2.78565C7.91202 3.08003 7.08528 3.20626 6.64335 3.28561C6.20142 3.3648 6.1443 3.39728 6.21454 3.4064C6.28478 3.41536 6.4827 3.4008 7.24224 3.46031C8.00178 3.51983 9.32293 3.65325 11.0111 4.10313C12.6993 4.55285 14.7544 5.31902 16.834 5.99336Z" fill="url(#paint6_linear)"/>
<path fill-rule="evenodd" clip-rule="evenodd" d="M13.7048 2.63656C14.8802 2.92885 15.9748 3.2789 17.1737 3.52784C18.3727 3.77677 19.676 3.92476 20.7637 3.91404C21.8514 3.90348 22.7234 3.73438 23.0381 3.2909C23.3529 2.84758 23.11 2.13004 22.4269 1.57921C21.7439 1.02839 20.6203 0.64442 19.5072 0.381404C18.394 0.118388 17.2911 -0.0235186 16.0628 0.00319896C14.8344 0.0299165 13.4806 0.225259 12.4273 0.457237C11.374 0.689056 10.6212 0.957512 10.0881 1.15285C9.55478 1.3482 9.24133 1.47026 9.14869 1.56434C9.05604 1.65825 9.18437 1.724 9.36597 1.77104C9.54742 1.81807 9.7823 1.84639 10.5278 1.9779C11.2732 2.10941 12.5294 2.34426 13.7048 2.63656Z" fill="url(#paint7_linear)"/>
<path fill-rule="evenodd" clip-rule="evenodd" d="M16.9122 1.7201C17.745 1.73001 18.5859 1.63242 19.09 1.475C19.5942 1.31757 19.7619 1.10047 19.5806 0.866253C19.3995 0.631875 18.8694 0.380538 18.2058 0.225992C17.5421 0.071446 16.7452 0.0138513 15.9608 0.0165711C15.1765 0.0192908 14.4051 0.082485 13.8518 0.207914C13.2985 0.333342 12.9635 0.521005 13.0963 0.742585C13.2289 0.964164 13.8293 1.21966 14.5418 1.40604C15.2544 1.59259 16.0794 1.71018 16.9122 1.7201Z" fill="#A60000"/>
<g style="mix-blend-mode:multiply">
<path fill-rule="evenodd" clip-rule="evenodd" d="M26.1692 14.9748C27.1404 14.8479 27.8805 14.029 27.9936 13.0977C28.1067 12.1664 27.5929 11.1228 26.6846 10.4962C25.7761 9.86965 24.473 9.65991 23.5848 9.88501C22.6967 10.1101 22.2235 10.7701 22.1608 11.5236C22.0979 12.2771 22.4456 13.1241 23.2205 13.8303C23.9956 14.5364 25.1978 15.1017 26.1692 14.9748Z" fill="#FF6D00" fill-opacity="0.418187"/>
</g>
<g style="mix-blend-mode:screen">
<path fill-rule="evenodd" clip-rule="evenodd" d="M2.47289 24.6205C3.01435 25.4344 3.687 26.1956 4.52238 26.8049C5.66609 27.639 7.11492 28.1887 8.53528 28.4072C9.95563 28.6258 11.3477 28.5134 12.6674 28.0704C13.9871 27.6275 15.2348 26.8543 16.0966 25.7279C16.9585 24.6016 17.4344 23.1223 17.311 21.5901C17.1875 20.0578 16.4646 18.4729 15.205 16.9881C13.9456 15.5035 12.1494 14.1191 10.5121 13.1651C8.87496 12.2111 7.39669 11.6874 5.97394 11.3466C4.55134 11.0058 3.18411 10.8476 2.23929 11.1818C1.29447 11.5162 0.771895 12.3428 0.465168 13.3007C0.188361 14.1647 0.0872388 15.1357 0.104039 16.177C0.14372 14.348 0.450927 13.5357 0.737814 12.9351C1.02454 12.3345 1.29079 11.9459 1.69336 11.6676C2.09577 11.3893 2.6345 11.2213 3.4342 11.2142C4.2339 11.207 5.29456 11.3608 6.43267 11.6905C7.57077 12.0202 8.78616 12.5256 9.94107 13.1643C11.0958 13.8029 12.1899 14.5747 13.1429 15.3775C14.096 16.1804 14.9081 17.0146 15.5588 18.0014C16.2097 18.9883 16.6991 20.1279 16.851 21.27C17.0028 22.4122 16.8169 23.5569 16.3411 24.519C15.8652 25.4813 15.0994 26.2607 14.2079 26.8798C13.3165 27.499 12.2994 27.9579 11.1827 28.1414C10.066 28.3247 8.84968 28.2328 7.79286 27.9913C6.7362 27.7498 5.83905 27.3589 5.14784 26.9686C4.45646 26.5784 3.97101 26.1889 3.54172 25.7951C3.11227 25.4013 2.73898 25.0031 2.47289 24.6205Z" fill="white"/>
</g>
<path fill-rule="evenodd" clip-rule="evenodd" d="M10.4603 25.5992C9.65339 26.0513 8.65688 26.1788 7.7031 26.1502C6.74932 26.1215 5.83794 25.9368 5.0184 25.522C4.1987 25.1075 3.47084 24.463 2.86027 23.738C2.24985 23.0132 1.75672 22.208 1.39607 21.3723C1.03526 20.5365 0.806778 19.6702 0.681016 18.7072C0.555253 17.7442 0.532212 16.6846 0.917341 15.8303C1.30231 14.9761 2.09529 14.3272 2.96427 14.1368C3.83309 13.9464 4.77807 14.2142 5.99762 14.7045C7.21717 15.1949 8.71128 15.9076 9.86923 16.8539C11.0273 17.8001 11.8491 18.9798 12.2318 20.1419C12.6146 21.3041 12.5584 22.4489 12.2216 23.4096C11.8846 24.3703 11.2672 25.1471 10.4603 25.5992ZM10.2904 17.5604C9.56318 16.8189 8.64396 16.1714 7.71034 15.6629C6.77671 15.1544 5.82869 14.7849 5.07571 14.5238C4.32274 14.2628 3.76448 14.1104 3.11183 14.2298C2.45917 14.3492 1.7118 14.7404 1.24746 15.4951C0.783293 16.2497 0.601849 17.3681 0.780413 18.7052C0.958818 20.0425 1.49707 21.5986 2.34141 22.8634C3.18591 24.1283 4.33666 25.1017 5.74021 25.5819C7.14392 26.0621 8.80044 26.0491 9.95599 25.5382C11.1115 25.0275 11.7663 24.019 12.0381 23.0086C12.31 21.9983 12.1989 20.9861 11.8759 20.0621C11.5528 19.1381 11.0176 18.3022 10.2904 17.5604Z" fill="white"/>
<path fill-rule="evenodd" clip-rule="evenodd" d="M3.8825 26.522C4.15434 26.8667 4.44875 27.187 4.76588 27.4796C5.79262 28.4271 7.05697 29.0826 8.50117 29.4873C9.94536 29.892 11.5694 30.0457 13.1013 29.9481C14.6331 29.8505 16.073 29.5018 17.5971 28.7573C19.1211 28.013 20.7291 26.873 21.8301 25.4546C22.9309 24.0364 23.5247 22.34 23.2623 20.5895C22.9999 18.8389 21.8815 17.0344 20.1056 15.3738C18.3296 13.7133 15.8962 12.1967 13.5563 11.0298C11.2164 9.86291 8.97014 9.04566 7.30914 8.61422C5.64814 8.18277 4.57259 8.13713 3.61257 8.31938C2.65239 8.50148 1.80773 8.91179 1.36772 9.90065C1.26692 10.1273 1.18739 10.3844 1.12499 10.6661C1.41684 9.67581 1.87765 9.15905 2.53207 8.81566C3.18648 8.47228 4.03434 8.30212 5.31405 8.42067C6.59376 8.53922 8.305 8.94647 10.4366 9.79275C12.568 10.639 15.1197 11.9243 17.2279 13.3959C19.3363 14.8673 21.0011 16.5249 21.9327 18.182C22.8642 19.8392 23.0623 21.4956 22.6909 22.9169C22.3194 24.338 21.3784 25.5236 20.1814 26.5856C18.9846 27.6475 17.5316 28.5859 15.8746 29.1281C14.2176 29.6705 12.3563 29.817 10.7969 29.7131C9.23734 29.6094 7.97971 29.2554 6.87921 28.7388C5.7787 28.2222 4.83532 27.543 3.8825 26.522Z" fill="white"/>
<path fill-rule="evenodd" clip-rule="evenodd" d="M2.25224 8.5328C2.24712 7.97219 2.48937 7.55736 2.93834 7.30108C3.38731 7.0448 4.043 6.94692 5.02991 7.00128C6.01697 7.05564 7.3354 7.26225 8.8588 7.71268C10.3822 8.16326 12.1106 8.85783 14.09 9.80625C16.0692 10.7547 18.2995 11.9568 20.1442 13.0151C21.9889 14.0732 23.4478 14.9875 24.7437 15.9506C26.0395 16.9139 27.1725 17.9262 28.0037 18.8206C28.8351 19.715 29.3647 20.4916 29.7111 21.0758C30.0575 21.66 30.2209 22.0521 30.283 22.4195C30.3451 22.7868 30.3059 23.1294 30.0297 23.5451C30.3583 23.1673 30.4451 22.6235 30.2203 21.8935C29.7884 20.4916 28.2081 18.4029 25.8906 16.4797C23.5732 14.5563 20.5188 12.7984 17.6185 11.2527C14.7183 9.70691 11.9722 8.37327 9.40073 7.60104C6.82931 6.82865 4.43245 6.61784 3.25611 7.04173C2.46297 7.32745 2.22456 7.90165 2.25224 8.5328Z" fill="white"/>
<path fill-rule="evenodd" clip-rule="evenodd" d="M28.2931 25.0871C28.2965 25.0876 28.2999 25.0881 28.3031 25.0886C28.9566 25.1826 29.0146 25.2502 28.9859 25.3219C28.9569 25.3935 28.8413 25.4693 28.5396 25.5615C28.238 25.6537 27.7068 25.7372 26.7319 26.288C25.7569 26.8389 24.273 27.7923 22.8229 28.5786C21.3729 29.365 19.9348 29.9445 18.2402 30.4392C16.5457 30.9339 14.6595 31.4087 12.8606 31.3337C11.1876 31.2639 9.64617 30.7748 8.22311 29.9646C10.9604 31.3632 13.0317 31.2562 14.7131 31.0237C16.3943 30.7913 17.6856 30.4336 19.1167 29.8831C20.5476 29.3329 22.1184 28.5898 23.319 27.9272C24.5197 27.2647 25.3502 26.6824 26.0556 26.2952C26.7611 25.9081 27.3414 25.7159 27.7882 25.5957C28.2348 25.4758 28.5481 25.428 28.7291 25.3839C28.9103 25.3399 28.9593 25.2998 28.9045 25.2535C28.8495 25.2073 28.6907 25.1549 28.2931 25.0871Z" fill="white"/>
<path fill-rule="evenodd" clip-rule="evenodd" d="M28.4759 6.18827C28.6127 6.39049 28.7375 6.59207 28.8521 6.79141C29.4775 7.88043 29.79 8.89522 29.7468 9.95496C29.7036 11.0147 29.3049 12.1194 28.4266 12.629C27.5482 13.1385 26.1903 13.0526 24.5675 12.544C22.9447 12.0353 21.057 11.1037 19.2045 10.2197C17.3521 9.33582 15.5351 8.49974 13.6741 7.7558C11.8133 7.01203 9.9086 6.36041 8.33305 6.01596C6.75765 5.67136 5.51138 5.63408 4.6856 5.72383C3.85982 5.81374 3.45437 6.03084 3.34877 6.29082C3.33789 6.31786 3.33021 6.34521 3.32573 6.37289C3.38541 6.12763 3.62206 6.00381 3.9555 5.92269C4.28895 5.84174 4.7192 5.8035 5.43042 5.83134C6.14164 5.85918 7.13366 5.95293 8.19016 6.18507C9.24667 6.41721 10.3675 6.78773 11.5637 7.24481C12.7599 7.70173 14.0313 8.24536 15.6236 8.96273C17.216 9.67995 19.1296 10.5709 20.8562 11.3481C22.583 12.1252 24.123 12.7883 25.4032 13.0721C26.6836 13.3559 27.7041 13.2603 28.3929 12.9101C29.0817 12.5598 29.439 11.9553 29.6503 11.3064C29.8619 10.6575 29.9276 9.9644 29.8497 9.3243C29.7716 8.6842 29.5497 8.09705 29.3028 7.58366C29.0558 7.07027 28.7838 6.63079 28.4759 6.18827Z" fill="white"/>
<path fill-rule="evenodd" clip-rule="evenodd" d="M24.8628 2.77045C25.3178 3.12676 25.7096 3.51344 26.0201 3.91233C26.8663 4.9996 27.1073 6.17731 26.5196 6.84095C25.9318 7.50458 24.5153 7.65415 22.7666 7.43631C21.0179 7.21863 18.9371 6.63355 16.8805 5.95642C14.8239 5.27929 12.7916 4.5101 11.122 4.05836C9.45246 3.60678 7.99342 3.52006 7.24227 3.4603C6.49113 3.4007 6.28365 3.41608 6.21419 3.40708C6.19694 3.40483 6.18745 3.40114 6.18966 3.39567C6.17811 3.41383 6.22416 3.44162 6.36214 3.45688C6.49996 3.47214 6.74161 3.47428 7.21363 3.52778C7.68565 3.58127 8.39993 3.68537 9.25883 3.88955C10.1177 4.09374 11.2739 4.35058 12.5912 4.80666C13.9085 5.2629 15.5396 5.87063 16.9902 6.36173C18.4407 6.85283 19.7107 7.22698 20.9372 7.47117C22.1636 7.71535 23.3464 7.82957 24.2524 7.80724C25.1587 7.78491 25.7883 7.62587 26.2119 7.38956C26.6353 7.15325 26.8527 6.8395 26.9428 6.48093C27.033 6.12237 26.9958 5.71882 26.872 5.32539C26.7481 4.93197 26.5374 4.5485 26.2968 4.19363C26.0562 3.83876 25.7856 3.51232 24.8628 2.77045Z" fill="white"/>
<path fill-rule="evenodd" clip-rule="evenodd" d="M21.3502 0.960083C21.7632 1.13687 22.1313 1.34021 22.4206 1.57347C23.1037 2.1243 23.3475 2.81951 23.0328 3.26283C22.718 3.70615 21.8514 3.8523 20.7637 3.86302C19.676 3.87358 18.3728 3.72559 17.1737 3.47665C15.9748 3.22772 14.8802 2.87783 13.7048 2.58537C12.5295 2.29308 11.2664 2.08881 10.5209 1.9573C9.77546 1.8258 9.54057 1.79748 9.35913 1.75044C9.22216 1.71493 9.1156 1.66885 9.11112 1.60806C9.11144 1.65813 9.14872 1.70277 9.19816 1.73477C9.24761 1.76676 9.30937 1.78596 9.64521 1.85987C9.98122 1.93379 10.5984 2.03166 11.3155 2.19373C12.0326 2.3558 12.8565 2.55162 13.6152 2.75832C14.374 2.96502 15.0676 3.18244 15.8446 3.39826C16.6216 3.61408 17.4819 3.82814 18.3987 3.98205C19.3154 4.13595 20.2885 4.2297 21.078 4.17931C21.8674 4.12891 22.4732 3.93437 22.8254 3.71055C23.1774 3.48689 23.2761 3.23411 23.3115 3.01318C23.3468 2.79224 23.319 2.60313 23.2195 2.37963C23.1198 2.15613 22.9422 1.94367 22.669 1.70433C22.3957 1.465 22.0205 1.24438 21.3502 0.960083Z" fill="white"/>
<path fill-rule="evenodd" clip-rule="evenodd" d="M17.9078 0.161896C18.0096 0.180454 18.1091 0.200932 18.2059 0.22349C18.8695 0.377876 19.3995 0.629373 19.5807 0.863592C19.762 1.09781 19.5943 1.31507 19.0901 1.4725C18.5859 1.62976 17.7451 1.72751 16.9123 1.71759C16.0795 1.70751 15.2545 1.58993 14.5418 1.40354C13.8293 1.217 13.229 0.961663 13.0964 0.740083C12.9935 0.568259 13.1717 0.416752 13.5151 0.298843C12.978 0.481387 12.9351 0.654331 13.0664 0.849193C13.198 1.04406 13.5037 1.26052 14.1474 1.46338C14.7911 1.66624 15.7726 1.85534 16.6972 1.89278C17.6219 1.93037 18.4896 1.8163 19.0032 1.68496C19.517 1.55345 19.6764 1.40482 19.7511 1.25524C19.8258 1.10565 19.8157 0.955103 19.6781 0.815756C19.5405 0.676249 19.2754 0.5481 18.9823 0.43899C18.689 0.32988 18.3678 0.239809 17.9078 0.161896Z" fill="white"/>
<path fill-rule="evenodd" clip-rule="evenodd" d="M10.3387 30.3582C12.4386 30.7814 15.0823 30.8188 17.95 29.7191C20.8178 28.6193 23.9094 26.3824 26.0366 24.0362C28.1639 21.6899 29.3266 19.2345 29.9631 16.942C30.5998 14.6496 30.7102 12.5201 30.4251 10.7598C30.1398 8.99949 29.3988 7.60456 28.7063 6.53853C28.014 5.47266 27.1875 4.51563 25.7779 3.62228C27.0515 4.34992 28.0377 5.38058 28.7999 6.47962C29.8299 7.96481 30.5254 9.84962 30.7199 11.692C30.9143 13.5344 30.6679 15.338 30.0956 17.2846C29.5233 19.2312 28.625 21.3207 27.0011 23.3094C25.3773 25.298 23.0276 27.1857 20.884 28.4676C18.7406 29.7494 16.8033 30.4254 14.9013 30.6801C12.9995 30.935 11.1332 30.7687 9.54153 30.3174C7.94997 29.8661 6.66946 29.1275 5.55151 28.1284C6.72082 29.1262 8.23862 29.935 10.3387 30.3582Z" fill="white"/>
<path fill-rule="evenodd" clip-rule="evenodd" d="M48 16C48 13.9059 47.5834 11.8118 46.7821 9.87712C45.9808 7.9424 44.7946 6.16704 43.3136 4.6864C41.833 3.20544 40.0576 2.0192 38.1229 1.21792C36.1882 0.41664 34.0941 0 32 0C29.9059 0 27.8118 0.41664 25.8771 1.21792C23.9424 2.0192 22.167 3.20544 20.6864 4.6864C19.2054 6.16704 18.0192 7.9424 17.2179 9.87712C16.4166 11.8118 16 13.9059 16 16C16 18.0941 16.4166 20.1882 17.2179 22.1229C18.0192 24.0576 19.2054 25.833 20.6864 27.3136C22.167 28.7946 23.9424 29.9808 25.8771 30.7821C27.8118 31.5834 29.9059 32 32 32C34.0941 32 36.1882 31.5834 38.1229 30.7821C40.0576 29.9808 41.833 28.7946 43.3136 27.3136C44.7946 25.833 45.9808 24.0576 46.7821 22.1229C47.5834 20.1882 48 18.0941 48 16Z" fill="white"/>
<path fill-rule="evenodd" clip-rule="evenodd" d="M31.9974 4.94308L25.143 16.2051L31.9974 20.2174L38.8532 16.2051L31.9974 4.94308Z" fill="#62688F"/>
<path fill-rule="evenodd" clip-rule="evenodd" d="M25.143 17.4927L31.9974 27.0569L38.857 17.4927L31.9974 21.5027L25.143 17.4927Z" fill="#62688F"/>
<defs>
<linearGradient id="paint0_linear" x1="-2.23318" y1="3.19899" x2="4.15681" y2="35.1963" gradientUnits="userSpaceOnUse">
<stop offset="0.000519012" stop-color="#B00000"/>
<stop offset="1" stop-color="#005CCD"/>
</linearGradient>
<linearGradient id="paint1_linear" x1="2.56915" y1="2.70706" x2="2.56915" y2="30.7268" gradientUnits="userSpaceOnUse">
<stop stop-color="#FFCC35" stop-opacity="0.6"/>
<stop offset="1" stop-color="#24E9FF" stop-opacity="0.6"/>
</linearGradient>
<linearGradient id="paint2_linear" x1="30.9875" y1="3.85917" x2="9.88048" y2="6.13215" gradientUnits="userSpaceOnUse">
<stop stop-color="#F9FF53" stop-opacity="0.6"/>
<stop offset="1" stop-color="#B8FF53" stop-opacity="0.6"/>
</linearGradient>
<linearGradient id="paint3_linear" x1="9.66698" y1="9.93396" x2="-1.87919" y2="20.5925" gradientUnits="userSpaceOnUse">
<stop stop-color="#33B1FF" stop-opacity="0.631501"/>
<stop offset="1" stop-color="#338BFF" stop-opacity="0.638139"/>
</linearGradient>
<linearGradient id="paint4_linear" x1="6.28684" y1="12.8915" x2="-0.659845" y2="20.0665" gradientUnits="userSpaceOnUse">
<stop stop-color="#0A76FF" stop-opacity="0.7"/>
<stop offset="1" stop-color="#0A4FFF" stop-opacity="0.7"/>
</linearGradient>
<radialGradient id="paint5_radial" cx="0" cy="0" r="1" gradientUnits="userSpaceOnUse" gradientTransform="translate(17.6605 4.50091) scale(10.718 1.98047)">
<stop stop-color="#FF3000" stop-opacity="0.6"/>
<stop offset="1" stop-color="#FFB900" stop-opacity="0.6"/>
</radialGradient>
<linearGradient id="paint6_linear" x1="3.33331" y1="3.60153" x2="5.01272" y2="11.545" gradientUnits="userSpaceOnUse">
<stop stop-color="#FF0400" stop-opacity="0.7"/>
<stop offset="1" stop-color="#FF8800" stop-opacity="0.7"/>
</linearGradient>
<linearGradient id="paint7_linear" x1="6.50537" y1="1.14952" x2="7.34403" y2="6.27715" gradientUnits="userSpaceOnUse">
<stop stop-color="#BC0000" stop-opacity="0.8"/>
<stop offset="1" stop-color="#EC1A00" stop-opacity="0.8"/>
</linearGradient>
</defs>
</svg>
