<svg width="80" height="80" viewBox="0 0 80 80" fill="none" xmlns="http://www.w3.org/2000/svg">
<path fill-rule="evenodd" clip-rule="evenodd" d="M80 40C80 17.9288 62.0712 0 40 0C17.9288 0 0 17.9288 0 40C0 62.0712 17.9288 80 40 80C62.0712 80 80 62.0712 80 40Z" fill="white"/>
<g filter="url(#filter0_f_1767_733)">
<path fill-rule="evenodd" clip-rule="evenodd" d="M39.9957 20C40.6803 20 41.4077 20.1754 42.0238 20.5525L55.9719 28.5332C56.5804 28.8777 57.0887 29.3815 57.445 29.9932C57.8013 30.6049 57.9928 31.3025 58 32.0149V48.0464C58 49.4496 57.1956 50.7914 55.9719 51.5193L42.0238 59.4474C41.4085 59.815 40.7079 60.0059 39.9957 59.9999C39.2846 59.9976 38.5861 59.8073 37.9677 59.4474L24.0195 51.4667C23.412 51.1196 22.9051 50.6137 22.5504 50.0006C22.1956 49.3875 22.0057 48.689 22 47.9762V32.0149C22 30.6117 22.7958 29.2699 24.028 28.5332L38.0361 20.5525C38.6327 20.1927 39.312 20.002 40.0043 20H39.9957Z" fill="url(#paint0_linear_1767_733)"/>
</g>
<g filter="url(#filter1_f_1767_733)">
<path fill-rule="evenodd" clip-rule="evenodd" d="M39.9957 20C40.6803 20 41.4077 20.1754 42.0238 20.5525L55.9719 28.5332C56.5804 28.8777 57.0887 29.3815 57.445 29.9932C57.8013 30.6049 57.9928 31.3025 58 32.0149V48.0464C58 49.4496 57.1956 50.7914 55.9719 51.5193L42.0238 59.4474C41.4085 59.815 40.7079 60.0059 39.9957 59.9999C39.2846 59.9976 38.5861 59.8073 37.9677 59.4474L24.0195 51.4667C23.412 51.1196 22.9051 50.6137 22.5504 50.0006C22.1956 49.3875 22.0057 48.689 22 47.9762V32.0149C22 30.6117 22.7958 29.2699 24.028 28.5332L38.0361 20.5525C38.6327 20.1927 39.312 20.002 40.0043 20H39.9957Z" fill="url(#paint1_linear_1767_733)"/>
</g>
<path fill-rule="evenodd" clip-rule="evenodd" d="M40.23 20.0004C41.19 20.0004 42.09 20.2704 42.93 20.7004L55.75 27.8904C56.5644 28.3321 57.2448 28.9848 57.7199 29.7801C58.1949 30.5755 58.4472 31.484 58.45 32.4104V46.7204C58.45 48.6004 57.42 50.3204 55.75 51.2404L42.93 58.3704C42.1067 58.8459 41.1707 59.0911 40.22 59.0804C39.2703 59.0941 38.3343 58.8524 37.51 58.3804L24.71 51.2304C23.8938 50.7901 23.2113 50.1379 22.7344 49.3425C22.2575 48.5471 22.0038 47.6378 22 46.7104V32.4104C22 30.5304 23.03 28.8104 24.7 27.8904L37.53 20.7004C38.3514 20.2302 39.2836 19.9885 40.23 20.0004ZM40.23 21.6804C39.5974 21.6828 38.9765 21.8518 38.43 22.1704L25.54 29.3004C24.9881 29.6119 24.5266 30.0613 24.2005 30.6047C23.8745 31.1481 23.6951 31.7669 23.68 32.4004V46.6704C23.68 47.9704 24.42 49.1204 25.54 49.7704L38.35 56.9004C38.9193 57.2211 39.5616 57.3896 40.215 57.3896C40.8684 57.3896 41.5107 57.2211 42.08 56.9004L54.89 49.8304C55.4419 49.5189 55.9034 49.0695 56.2295 48.5261C56.5555 47.9827 56.7349 47.364 56.75 46.7304V32.4004C56.7409 31.7656 56.564 31.1444 56.2373 30.6C55.9107 30.0556 55.4459 29.6072 54.89 29.3004L42.09 22.1604C41.5213 21.8438 40.8809 21.6785 40.23 21.6804ZM40.32 26.3304C40.82 26.3304 41.33 26.4304 41.79 26.7604L50.98 31.8604C51.4204 32.0956 51.7887 32.4457 52.0458 32.8736C52.3029 33.3016 52.4392 33.7912 52.44 34.2904V44.4804C52.44 45.4504 51.88 46.4304 50.97 46.9104L41.78 52.0104C41.33 52.2804 40.83 52.3904 40.32 52.3904C39.81 52.3904 39.3 52.2804 38.85 52.0104L29.66 46.9104C29.2196 46.6753 28.8513 46.3251 28.5942 45.8972C28.3371 45.4693 28.2008 44.9796 28.2 44.4804V34.2404C28.2 33.2604 28.76 32.2904 29.66 31.8004L38.86 26.7004C39.3 26.4404 39.81 26.3304 40.32 26.3304ZM40.32 27.7304C40.09 27.7304 39.82 27.7904 39.59 27.9504L30.45 33.0504C30.2341 33.1794 30.0542 33.3605 29.9266 33.5772C29.799 33.7938 29.728 34.0391 29.72 34.2904V44.5304C29.72 45.0704 30 45.5104 30.45 45.7804L39.65 50.8704C39.87 51.0304 40.09 51.0904 40.38 51.0904C40.66 51.0904 40.88 50.9804 41.11 50.8704L50.3 45.7704C50.5165 45.6422 50.697 45.4612 50.8246 45.2444C50.9523 45.0276 51.0229 44.7819 51.03 44.5304V34.3004C51.03 33.7604 50.75 33.3304 50.3 33.0504L41.05 27.9604C40.8381 27.8076 40.5811 27.7302 40.32 27.7404V27.7304ZM40.42 32.6604C40.69 32.6604 40.92 32.7104 41.14 32.8804L45.88 35.4804C46.32 35.7504 46.6 36.2204 46.61 36.7304V41.9904C46.61 42.5304 46.33 42.9604 45.88 43.2304L41.14 45.8304C40.92 46.0004 40.69 46.0504 40.41 46.0504C40.18 46.0504 39.91 45.9504 39.68 45.8404L34.95 43.2404C34.7309 43.1118 34.548 42.9296 34.4186 42.711C34.2892 42.4923 34.2174 42.2444 34.21 41.9904V36.7304C34.21 36.1804 34.49 35.7504 34.95 35.4804L39.68 32.8804C39.9 32.7104 40.13 32.6604 40.41 32.6604H40.42ZM40.47 33.9604H40.35L35.62 36.5604L35.57 41.9304L40.35 44.6404L45.2 42.0404L45.26 36.6704L40.46 33.9704L40.47 33.9604Z" fill="white"/>
<defs>
<filter id="filter0_f_1767_733" x="7" y="5" width="66" height="70" filterUnits="userSpaceOnUse" color-interpolation-filters="sRGB">
<feFlood flood-opacity="0" result="BackgroundImageFix"/>
<feBlend mode="normal" in="SourceGraphic" in2="BackgroundImageFix" result="shape"/>
<feGaussianBlur stdDeviation="7.5" result="effect1_foregroundBlur_1767_733"/>
</filter>
<filter id="filter1_f_1767_733" x="7" y="5" width="66" height="70" filterUnits="userSpaceOnUse" color-interpolation-filters="sRGB">
<feFlood flood-opacity="0" result="BackgroundImageFix"/>
<feBlend mode="normal" in="SourceGraphic" in2="BackgroundImageFix" result="shape"/>
<feGaussianBlur stdDeviation="7.5" result="effect1_foregroundBlur_1767_733"/>
</filter>
<linearGradient id="paint0_linear_1767_733" x1="55.8008" y1="40.1709" x2="22" y2="40.1709" gradientUnits="userSpaceOnUse">
<stop stop-color="#5346E6"/>
<stop offset="1" stop-color="#EF359C"/>
</linearGradient>
<linearGradient id="paint1_linear_1767_733" x1="57" y1="38.5" x2="25" y2="38.5" gradientUnits="userSpaceOnUse">
<stop stop-color="#5346E6"/>
<stop offset="1" stop-color="#EF359C"/>
</linearGradient>
</defs>
</svg>
