<svg width="38" height="40" viewBox="0 0 38 40" fill="none" xmlns="http://www.w3.org/2000/svg">
<path fill-rule="evenodd" clip-rule="evenodd" d="M18.6587 0.000430685C19.6413 0.000430685 20.5624 0.27678 21.4222 0.716892L34.5437 8.07597C35.3772 8.52801 36.0736 9.19611 36.5599 10.0101C37.0461 10.8242 37.3042 11.7541 37.3072 12.7023V27.3488C37.3072 29.273 36.2529 31.0334 34.5437 31.9751L21.4222 39.2727C20.5795 39.7594 19.6215 40.0104 18.6485 39.9994C17.6764 40.0135 16.7184 39.766 15.8747 39.283L2.77373 31.9648C1.93831 31.5141 1.23981 30.8466 0.7517 30.0325C0.263589 29.2184 0.00391651 28.2878 0 27.3385V12.7023C0 10.7781 1.05422 9.01761 2.76349 8.07597L15.8952 0.716892C16.7359 0.235614 17.6901 -0.011774 18.6587 0.000430685ZM18.6587 1.71994C18.0112 1.72233 17.3757 1.89531 16.8164 2.22146L3.62325 9.51913C3.05839 9.83793 2.58599 10.2979 2.25228 10.8541C1.91857 11.4103 1.73499 12.0436 1.71951 12.692V27.2976C1.71951 28.6282 2.47691 29.8052 3.62325 30.4705L16.7345 37.7682C17.3172 38.0964 17.9746 38.2688 18.6433 38.2688C19.3121 38.2688 19.9695 38.0964 20.5522 37.7682L33.6634 30.5319C34.2283 30.2131 34.7007 29.7531 35.0344 29.1969C35.3681 28.6407 35.5517 28.0074 35.5672 27.359V12.692C35.5578 12.0423 35.3768 11.4065 35.0425 10.8493C34.7081 10.292 34.2324 9.83315 33.6634 9.51913L20.5624 2.21123C19.9804 1.88713 19.3249 1.71796 18.6587 1.71994ZM18.7508 6.47929C19.2626 6.47929 19.7846 6.58164 20.2554 6.9194L29.6615 12.1393C30.1122 12.38 30.4892 12.7384 30.7524 13.1764C31.0155 13.6144 31.155 14.1155 31.1558 14.6265V25.0561C31.1558 26.0489 30.5827 27.052 29.6513 27.5432L20.2451 32.7632C19.7846 33.0395 19.2728 33.1521 18.7508 33.1521C18.2288 33.1521 17.7068 33.0395 17.2462 32.7632L7.84013 27.5432C7.38941 27.3026 7.01239 26.9442 6.74924 26.5062C6.48609 26.0682 6.34666 25.5671 6.3458 25.0561V14.5753C6.3458 13.5723 6.91897 12.5794 7.84013 12.0779L17.2565 6.85799C17.7068 6.59187 18.2288 6.47929 18.7508 6.47929ZM18.7508 7.91221C18.5154 7.91221 18.2391 7.97362 18.0036 8.13738L8.64871 13.3573C8.42778 13.4893 8.24357 13.6747 8.11301 13.8965C7.98245 14.1182 7.90973 14.3693 7.90154 14.6265V25.1073C7.90154 25.66 8.18813 26.1103 8.64871 26.3867L18.0651 31.5964C18.2902 31.7601 18.5154 31.8215 18.8122 31.8215C19.0988 31.8215 19.324 31.709 19.5594 31.5964L28.9655 26.3764C29.1871 26.2452 29.3718 26.06 29.5024 25.838C29.6331 25.6161 29.7054 25.3647 29.7127 25.1073V14.6367C29.7127 14.084 29.4261 13.6439 28.9655 13.3573L19.498 8.14762C19.281 7.99124 19.018 7.91197 18.7508 7.92244V7.91221ZM18.8532 12.9581C19.1295 12.9581 19.3649 13.0093 19.5901 13.1833L24.4416 15.8445C24.8919 16.1208 25.1785 16.6019 25.1887 17.1239V22.5075C25.1887 23.0602 24.9021 23.5004 24.4416 23.7767L19.5901 26.4378C19.3649 26.6118 19.1295 26.663 18.8429 26.663C18.6075 26.663 18.3312 26.5607 18.0958 26.4481L13.2545 23.7869C13.0303 23.6553 12.8431 23.4688 12.7106 23.245C12.5781 23.0213 12.5047 22.7675 12.4971 22.5075V17.1239C12.4971 16.5609 12.7837 16.1208 13.2545 15.8445L18.0958 13.1833C18.3209 13.0093 18.5563 12.9581 18.8429 12.9581H18.8532ZM18.9043 14.2887H18.7815L13.9403 16.9499L13.8891 22.4461L18.7815 25.2199L23.7456 22.5587L23.807 17.0624L18.8941 14.2989L18.9043 14.2887Z" fill="black"/>
</svg>
