<?xml version="1.0" standalone="no"?>
<!DOCTYPE svg PUBLIC "-//W3C//DTD SVG 20010904//EN"
 "http://www.w3.org/TR/2001/REC-SVG-20010904/DTD/svg10.dtd">
<svg version="1.0" xmlns="http://www.w3.org/2000/svg"
 width="129.000000pt" height="129.000000pt" viewBox="0 0 129.000000 129.000000"
 preserveAspectRatio="xMidYMid meet">
<metadata>
Created by potrace 1.11, written by Peter Selinger 2001-2013
</metadata>
<g transform="translate(0.000000,129.000000) scale(0.100000,-0.100000)"
fill="#000000" stroke="none">
<path d="M481 1259 c-174 -44 -332 -171 -409 -329 -56 -114 -72 -191 -67 -315
7 -174 66 -309 190 -430 126 -123 293 -188 465 -180 99 5 124 9 198 35 143 50
282 173 352 310 85 166 91 382 15 548 -38 84 -71 129 -145 202 -156 154 -383
214 -599 159z"/>
</g>
</svg>
