<svg width="80" height="80" viewBox="0 0 80 80" fill="none" xmlns="http://www.w3.org/2000/svg">
<path d="M40 0C17.9094 0 0 17.9094 0 40C0 62.0906 17.9094 80 40 80C62.0906 80 80 62.0906 80 40C79.9303 17.9094 62.0209 0 40 0Z" fill="#FEEAE1"/>
<path fill-rule="evenodd" clip-rule="evenodd" d="M31.7205 20C27.4566 20 24 23.523 24 27.8688V52.1312C24 56.477 27.4566 60 31.7205 60H42.6579C53.3177 60 61.9592 51.1925 61.9592 40.3278V39.6721C61.9592 28.8075 53.3177 20 42.6579 20H31.7205ZM38.0283 39.7894C38.0283 38.6267 37.1047 37.6841 35.9653 37.6841C34.826 37.6841 33.9023 38.6267 33.9023 39.7894C33.9023 44.6092 37.628 48.6315 42.3607 48.6315C47.0933 48.6315 50.8189 44.6092 50.8189 39.7894C50.8189 38.6267 49.8953 37.6841 48.7559 37.6841C47.6165 37.6841 46.6929 38.6267 46.6929 39.7894C46.6929 42.4109 44.692 44.421 42.3607 44.421C40.0292 44.421 38.0283 42.4109 38.0283 39.7894Z" fill="#FF7C7C"/>
</svg>
