<svg width="38" height="40" viewBox="0 0 38 40" fill="none" xmlns="http://www.w3.org/2000/svg">
<path fill-rule="evenodd" clip-rule="evenodd" d="M7.7205 0C3.45659 0 0 3.523 0 7.86885V32.1312C0 36.477 3.45659 40 7.7205 40H18.6579C29.3177 40 37.9592 31.1925 37.9592 20.3278V19.6721C37.9592 8.80751 29.3177 0 18.6579 0H7.7205ZM14.0283 19.7894C14.0283 18.6267 13.1047 17.6841 11.9653 17.6841C10.826 17.6841 9.90228 18.6267 9.90228 19.7894C9.90228 24.6092 13.628 28.6315 18.3607 28.6315C23.0933 28.6315 26.8189 24.6092 26.8189 19.7894C26.8189 18.6267 25.8953 17.6841 24.7559 17.6841C23.6165 17.6841 22.6929 18.6267 22.6929 19.7894C22.6929 22.4109 20.692 24.421 18.3607 24.421C16.0292 24.421 14.0283 22.4109 14.0283 19.7894Z" fill="black"/>
</svg>
