<svg width="32" height="32" viewBox="0 0 32 32" fill="none" xmlns="http://www.w3.org/2000/svg">
<path d="M0 16C0 7.16344 7.16344 0 16 0V0C24.8366 0 32 7.16344 32 16V16C32 24.8366 24.8366 32 16 32V32C7.16344 32 0 24.8366 0 16V16Z" fill="white"/>
<g clip-path="url(#clip0_144_596767)">
<g clip-path="url(#clip1_144_596767)">
<path d="M25 16C25 20.9706 20.9706 25 16 25C11.0294 25 7 20.9706 7 16C7 11.0294 11.0294 7 16 7C20.9706 7 25 11.0294 25 16Z" fill="url(#paint0_linear_144_596767)"/>
<path fill-rule="evenodd" clip-rule="evenodd" d="M13.1875 9.8125L13.1875 22.1875C13.1875 22.1875 14.6366 22.0593 15.0268 21.9795C18.0789 21.3549 19.7734 18.9652 19.9234 15.0742L19.9375 14.3665L15.7872 13.129V14.5645L18.6063 15.422C18.6063 15.422 18.4696 16.5803 18.3629 17.0105C18.1263 17.965 17.7875 18.662 17.2756 19.247C16.8957 19.6812 16.5622 19.9389 16.03 20.2095C15.6591 20.3982 14.9754 20.6173 14.647 20.6529L14.4873 20.6701L14.4417 10.1863L13.1875 9.8125ZM15.7872 12.0895L18.8885 12.9805V11.545L15.7872 10.654V12.0895Z" fill="black"/>
</g>
</g>
<path fill-rule="evenodd" clip-rule="evenodd" d="M11.8545 3.38363C13.345 2.89371 14.938 2.66971 16.5159 2.73019C18.0941 2.79067 19.6577 3.13595 21.1127 3.74395C22.5681 4.35195 23.9149 5.22299 25.0673 6.29755C26.5914 7.71931 27.7748 9.49755 28.4845 11.4867C29.1946 13.4761 29.4311 15.6764 29.1572 17.7711C28.8836 19.8659 28.0996 21.8553 26.9137 23.566C25.7277 25.2767 24.1396 26.7084 22.2743 27.7004C20.409 28.6921 18.266 29.2438 16.1537 29.2758C14.0413 29.3078 11.9594 28.8204 10.0948 27.895C8.23047 26.9695 6.58311 25.6063 5.33223 23.9036C4.08135 22.2009 3.22695 20.1587 2.88775 18.0748C2.54855 15.9907 2.72455 13.8646 3.37447 11.8812C3.86567 10.3817 4.62791 8.96411 5.60455 7.73563H4.12007V5.28187H9.93671V10.7135H7.48295V9.22939C6.68295 10.2355 6.05831 11.3967 5.65607 12.6255C5.12391 14.2511 4.98055 15.9951 5.25607 17.6969C5.59847 19.8137 6.58855 21.8649 8.06631 23.4457C9.83399 25.3363 12.2993 26.5542 14.8657 26.8207C17.4317 27.0873 20.0989 26.4028 22.217 24.9286C24.3351 23.4543 25.9047 21.1903 26.5418 18.6899C27.1789 16.1894 26.8836 13.4524 25.7348 11.142C24.586 8.83163 22.5834 6.94843 20.1889 5.95899C17.7943 4.96923 15.0074 4.87387 12.6036 5.66363L11.8545 3.38363Z" fill="url(#paint1_linear_144_596767)"/>
<circle cx="25" cy="7" r="7" fill="white"/>
<path fill-rule="evenodd" clip-rule="evenodd" d="M25.4451 6.6869C25.2573 6.69593 25.0692 6.70241 24.8811 6.70735C24.8946 6.79305 24.9071 6.87892 24.9187 6.96496C24.9438 7.1522 24.965 7.33978 24.983 7.52788C24.9951 7.65396 25.006 7.78003 25.0151 7.90645C25.0238 8.031 25.0301 8.15571 25.0339 8.2806C25.0417 8.55082 25.0373 8.82137 25.0258 9.09142C25.0154 9.33829 24.9992 9.58483 24.9794 9.83119C25.7822 9.47376 26.3941 9.33857 26.8508 9.23769L26.8573 9.23624C27.5945 9.07319 27.9244 8.99805 28.2136 8.92547C28.5026 8.85289 28.7509 8.78287 28.9572 8.6987C29.1636 8.61471 29.3281 8.5164 29.4574 8.39526C29.5868 8.27413 29.6811 8.12999 29.7644 7.92468C29.8476 7.71938 29.9199 7.45291 29.9612 7.15833C30.0026 6.86375 30.0132 6.54106 29.9817 6.28498C29.9503 6.02908 29.877 5.83996 29.7947 5.64931C29.7125 5.45866 29.6214 5.26648 29.4846 5.06066C29.3479 4.85485 29.1657 4.63557 28.908 4.39892C28.6504 4.16227 28.3173 3.90841 27.9239 3.66664C27.5306 3.42471 27.077 3.19487 26.5145 2.95311C25.9521 2.71118 25.2805 2.45732 24.6977 2.28506C24.1148 2.11264 23.6204 2.02183 23.1873 2.00343C22.7541 1.9852 22.3822 2.03955 22.0598 2.16699C21.7376 2.29444 21.4646 2.49497 21.2275 2.72515C20.9902 2.95515 20.7886 3.21481 20.6205 3.50104C20.4524 3.78727 20.3178 4.10008 20.2172 4.45191C20.1166 4.80373 20.0501 5.19441 20.0173 5.84644C19.9844 6.49864 19.985 7.41202 20.1415 8.27975C20.298 9.14747 20.6101 9.96937 20.9286 10.536C21.2468 11.1029 21.5712 11.4143 21.8411 11.6174C22.1109 11.8205 22.3261 11.9152 22.5417 11.9636C22.7573 12.0118 22.9731 12.0141 23.1726 11.9587C23.3722 11.9033 23.5555 11.7905 23.7142 11.6447C23.8729 11.499 24.0068 11.3203 24.1274 11.1124C24.2479 10.9046 24.3546 10.6674 24.44 10.4251C24.4857 10.2955 24.5251 10.1644 24.5589 10.0309C24.5858 9.92439 24.6087 9.81688 24.6281 9.70886C24.6505 9.58347 24.6679 9.45705 24.6807 9.33029C24.6934 9.20523 24.7016 9.07983 24.7071 8.95444C24.7125 8.82819 24.7153 8.70194 24.7161 8.57552C24.7183 8.27975 24.712 7.98363 24.6966 7.6882C24.6898 7.55582 24.6807 7.42344 24.6691 7.2914C24.6522 7.09802 24.6292 6.90515 24.6005 6.71314C24.5757 6.54805 24.5472 6.38329 24.5149 6.21939C24.4575 5.92805 24.3883 5.63807 24.2971 5.35558C24.2709 5.27482 24.2429 5.19492 24.2142 5.11518C24.1898 5.04738 24.165 4.97963 24.1402 4.91188C24.1232 4.86539 24.1062 4.8189 24.0893 4.77239C24.0743 4.72826 24.0603 4.68362 24.049 4.63847C24.0384 4.59554 24.0297 4.55175 24.0282 4.50745C24.0278 4.49552 24.028 4.4836 24.029 4.47167C24.0299 4.45975 24.0318 4.44782 24.0348 4.43623C24.0377 4.42465 24.042 4.4134 24.0475 4.40284C24.0529 4.39262 24.0598 4.38291 24.0676 4.37422C24.0845 4.35548 24.1061 4.34065 24.1281 4.32787C24.16 4.3093 24.1951 4.29584 24.2309 4.2863C24.3082 4.26603 24.3898 4.26296 24.4698 4.26569C24.5521 4.26858 24.6343 4.27795 24.7158 4.28971C24.8395 4.30743 24.9625 4.33111 25.0848 4.35701C25.2093 4.38325 25.3335 4.41221 25.457 4.44288C25.6454 4.48973 25.8327 4.54084 26.0184 4.59741C26.3088 4.68618 26.5949 4.79096 26.8731 4.91278C27.0635 4.99609 27.2511 5.0869 27.4336 5.18657C27.5566 5.25387 27.6775 5.32509 27.794 5.40295C27.8726 5.45542 27.9495 5.5108 28.0217 5.57162C28.0703 5.61251 28.1169 5.65613 28.1576 5.70468C28.169 5.71831 28.1798 5.73246 28.19 5.74694C28.2001 5.76159 28.2095 5.77675 28.2177 5.79243C28.2259 5.80827 28.2331 5.8248 28.2382 5.84184C28.2433 5.8587 28.2466 5.87642 28.2471 5.89397C28.2476 5.91118 28.2455 5.92873 28.2411 5.94543C28.2365 5.96178 28.2297 5.97746 28.2211 5.99211C28.2023 6.02397 28.1757 6.0514 28.1475 6.07542C28.1048 6.11188 28.0568 6.14204 28.0079 6.16947C27.9614 6.19554 27.9134 6.21939 27.8644 6.24018C27.8156 6.26079 27.7658 6.27902 27.7158 6.2964C27.6644 6.31412 27.6128 6.33099 27.5612 6.34734C27.4836 6.37188 27.4057 6.39556 27.3277 6.4189C27.2496 6.44207 27.1712 6.46524 27.0922 6.48569C26.9756 6.51584 26.8573 6.54055 26.7386 6.56133C26.6175 6.58229 26.4959 6.5995 26.3737 6.61398C26.25 6.62863 26.126 6.64073 26.002 6.65112C25.8166 6.66646 25.6309 6.67787 25.4451 6.6869ZM22.279 7.08693C22.3654 7.05747 22.4601 7.05409 22.5456 7.06847C22.6311 7.0827 22.7073 7.11484 22.7945 7.16925C22.8817 7.2238 22.9801 7.30063 23.0903 7.44878C23.2006 7.59692 23.3228 7.81654 23.4124 8.04334C23.5022 8.27029 23.5594 8.50442 23.5892 8.75942C23.6192 9.01442 23.6218 9.29013 23.5983 9.51835C23.575 9.74642 23.5255 9.92713 23.4661 10.0654C23.4068 10.2037 23.3375 10.2997 23.2505 10.3761C23.1633 10.4526 23.0585 10.5097 22.9358 10.5261C22.8132 10.5426 22.6728 10.5183 22.5531 10.4725C22.4332 10.4267 22.3342 10.3592 22.2347 10.2554C22.1352 10.1517 22.0352 10.0116 21.9456 9.84199C21.8559 9.67228 21.7763 9.4731 21.7256 9.27054C21.6748 9.06798 21.6528 8.86204 21.6417 8.66949C21.6307 8.47708 21.6307 8.2982 21.6579 8.11002C21.6848 7.9217 21.7391 7.72421 21.8068 7.57564C21.8745 7.42707 21.9558 7.32755 22.0352 7.24988C22.1148 7.17221 22.1927 7.11653 22.279 7.08693Z" fill="black"/>
<path d="M22.3587 23.6413L22.3587 23.6413C22.7983 24.0808 23.1506 24.608 23.3884 25.1823C23.6263 25.7565 23.75 26.3784 23.75 27C23.75 27.6216 23.6263 28.2435 23.3884 28.8177C23.1506 29.392 22.7983 29.9192 22.3587 30.3587L22.3587 30.3587C21.9192 30.7983 21.392 31.1506 20.8177 31.3884C20.2435 31.6263 19.6216 31.75 19 31.75C18.3784 31.75 17.7565 31.6263 17.1823 31.3884C16.608 31.1506 16.0808 30.7983 15.6413 30.3587L15.6413 30.3587C15.2017 29.9192 14.8494 29.392 14.6116 28.8177C14.3737 28.2435 14.25 27.6216 14.25 27C14.25 26.3784 14.3737 25.7565 14.6116 25.1823C14.8494 24.608 15.2017 24.0808 15.6413 23.6413L15.6413 23.6413C16.0808 23.2017 16.608 22.8494 17.1823 22.6116C17.7565 22.3737 18.3784 22.25 19 22.25C19.6216 22.25 20.2435 22.3737 20.8177 22.6116C21.392 22.8494 21.9192 23.2017 22.3587 23.6413Z" fill="#99999E" stroke="white" stroke-width="0.5"/>
<path fill-rule="evenodd" clip-rule="evenodd" d="M16.6191 28.0752V29.7861L16.6182 29.7867V29.7899C17.3412 29.78 18.0642 29.78 18.787 29.7899C19.0325 29.7933 19.2778 29.7776 19.5183 29.7311C19.7723 29.6819 20.0211 29.607 20.2559 29.4992C20.3575 29.4526 20.455 29.3963 20.5533 29.3395C20.5791 29.3246 20.6049 29.3097 20.6309 29.2949C20.7475 29.2128 20.8593 29.124 20.9653 29.029C21.256 28.7687 21.481 28.4442 21.6216 28.0822C21.6311 28.0416 21.6712 28.0154 21.7123 28.0234H22.3029C22.3499 28.0234 22.3655 28.0077 22.3655 27.9551V27.5807C22.3687 27.5447 22.3687 27.5085 22.3655 27.4726C22.3655 27.4632 22.3679 27.4538 22.3704 27.4445C22.3752 27.4259 22.38 27.4073 22.3655 27.3888H21.872C21.8124 27.3888 21.8124 27.3827 21.8124 27.3301C21.8295 27.1416 21.8226 26.9529 21.8124 26.764C21.8093 26.7083 21.8219 26.7083 21.8656 26.7083H22.2968C22.347 26.7083 22.3635 26.6957 22.3658 26.6463C22.3736 26.4769 22.3736 26.3078 22.3658 26.1388C22.3642 26.1053 22.3634 26.0883 22.3545 26.0797C22.3453 26.0707 22.3273 26.0707 22.2908 26.0707H21.7314C21.6878 26.078 21.646 26.0489 21.638 26.0056C21.5739 25.8397 21.4937 25.6799 21.3939 25.5322C21.2949 25.3856 21.1857 25.2456 21.0596 25.1208C20.8951 24.9581 20.7111 24.8156 20.5097 24.6999C20.207 24.526 19.8761 24.4041 19.5315 24.3411C19.3644 24.3105 19.1956 24.2853 19.0253 24.2853H16.6817C16.6191 24.2853 16.6191 24.2978 16.6191 24.3473V26.015C16.6191 26.0739 16.6065 26.0739 16.5597 26.0739H15.8879C15.8379 26.0739 15.8379 26.0829 15.8379 26.117V26.6615C15.8379 26.711 15.8534 26.711 15.891 26.711H16.5692C16.6191 26.711 16.6191 26.7201 16.6191 26.7572V27.3389C16.6191 27.3916 16.6033 27.3916 16.5629 27.3916H15.8379V27.9794C15.8379 28.0289 15.8534 28.0289 15.891 28.0289H16.5692C16.6191 28.0289 16.6191 28.0348 16.6191 28.0752ZM21.0845 27.3882H19.1847H17.322C17.284 27.3882 17.2653 27.3882 17.2561 27.3789C17.2472 27.3698 17.2472 27.3521 17.2472 27.3171V26.7664C17.2472 26.723 17.2597 26.7076 17.3064 26.7076H21.0877C21.1285 26.7076 21.1471 26.723 21.1471 26.7601C21.1626 26.9517 21.1578 27.1439 21.1471 27.3356C21.1442 27.3882 21.1251 27.3882 21.0845 27.3882ZM20.9349 26.064C20.9403 26.0499 20.9403 26.0346 20.9349 26.0208C20.9032 25.9524 20.8656 25.8871 20.822 25.8258C20.7563 25.7211 20.6788 25.6246 20.5907 25.538C20.5491 25.4856 20.5009 25.4387 20.4469 25.3988C20.1764 25.1709 19.8548 25.0096 19.5093 24.9285C19.3353 24.8877 19.1568 24.8713 18.978 24.8728C18.4187 24.8775 17.8594 24.8775 17.3 24.8728C17.2531 24.8724 17.2469 24.8913 17.2469 24.9316V26.0299C17.2469 26.0762 17.2469 26.0887 17.3063 26.0887H20.9124L20.9124 26.0887C20.914 26.0884 20.9436 26.0825 20.95 26.064H20.9349ZM20.7751 28.0319C20.8282 28.026 20.8818 28.026 20.9349 28.0319V28.0322C20.9593 28.0444 20.939 28.0883 20.9376 28.0912L20.9376 28.0913C20.7455 28.4637 20.4408 28.7672 20.0657 28.9603H20.0439C19.9717 29.0029 19.8943 29.0358 19.816 29.0654C19.5982 29.1477 19.3698 29.1976 19.1375 29.2141C19.0626 29.2298 18.9861 29.2351 18.9096 29.2295H17.3096C17.2472 29.2295 17.2472 29.2169 17.2472 29.1675V28.0937C17.2472 28.0319 17.2629 28.0319 17.3096 28.0319H20.7751Z" fill="white"/>
<path d="M26.3587 16.6413L26.3587 16.6413C26.7983 17.0808 27.1506 17.608 27.3884 18.1823C27.6263 18.7565 27.75 19.3784 27.75 20C27.75 20.6216 27.6263 21.2435 27.3884 21.8177C27.1506 22.392 26.7983 22.9192 26.3587 23.3587L26.3587 23.3587C25.9192 23.7983 25.392 24.1506 24.8177 24.3884C24.2435 24.6263 23.6216 24.75 23 24.75C22.3784 24.75 21.7565 24.6263 21.1823 24.3884C20.608 24.1506 20.0808 23.7983 19.6413 23.3587L19.6413 23.3587C19.2017 22.9192 18.8494 22.392 18.6116 21.8177C18.3737 21.2435 18.25 20.6216 18.25 20C18.25 19.3784 18.3737 18.7565 18.6116 18.1823C18.8494 17.608 19.2017 17.0808 19.6413 16.6413L19.6413 16.6413C20.0808 16.2017 20.608 15.8494 21.1823 15.6116C21.7565 15.3737 22.3784 15.25 23 15.25C23.6216 15.25 24.2435 15.3737 24.8177 15.6116C25.392 15.8494 25.9192 16.2017 26.3587 16.6413Z" fill="#68686D" stroke="white" stroke-width="0.5"/>
<path fill-rule="evenodd" clip-rule="evenodd" d="M20.8186 17.5H23.125H25.4314V18.6151H23.7374V19.2436L23.7426 19.2438C24.4355 19.2753 25.0427 19.3585 25.4843 19.477C25.7052 19.5363 25.8846 19.6036 26.0171 19.6838C26.0833 19.7238 26.1384 19.7671 26.1801 19.8188C26.2218 19.8705 26.25 19.9338 26.25 20.0014C26.25 20.069 26.2218 20.1322 26.1801 20.184C26.1384 20.2356 26.0833 20.2789 26.0171 20.319C25.8846 20.3992 25.7052 20.4665 25.4844 20.5257C25.0427 20.6442 24.4355 20.7274 23.7426 20.759L23.7378 20.7592V23H23.125H22.5122V20.7592L22.5074 20.759C21.8145 20.7274 21.2073 20.6442 20.7656 20.5257C20.5448 20.4665 20.3654 20.3992 20.2329 20.319C20.1667 20.2789 20.1116 20.2356 20.0699 20.184C20.0282 20.1322 20 20.069 20 20.0014C20 19.9338 20.0282 19.8705 20.0699 19.8188C20.1116 19.7671 20.1667 19.7238 20.2329 19.6838C20.3654 19.6036 20.5448 19.5363 20.7657 19.477C21.2073 19.3585 21.8145 19.2753 22.5074 19.2438L22.5126 19.2436V18.6151H20.8186V17.5ZM22.5146 20.3987L23.125 20.4121L23.7354 20.3987C24.3394 20.3721 24.8669 20.3064 25.2392 20.2175C25.4255 20.1731 25.5732 20.1224 25.6694 20.0709C25.7176 20.0453 25.7525 20.0192 25.7731 19.9967C25.7936 19.9742 25.7992 19.958 25.7992 19.9441C25.7992 19.9302 25.7936 19.914 25.7731 19.8915C25.7525 19.869 25.7176 19.843 25.6695 19.8173C25.5733 19.7658 25.4256 19.7152 25.2394 19.6707C24.8676 19.582 24.3411 19.5164 23.738 19.4897V20.1174L23.7259 20.1185C23.7103 20.1198 23.6548 20.1246 23.5548 20.1288C23.5048 20.1308 23.4437 20.1329 23.371 20.1344C23.3346 20.1351 23.2954 20.1357 23.2531 20.1361C23.232 20.1363 23.2102 20.1365 23.1874 20.1366H23.125H23.0626C23.0398 20.1365 23.018 20.1363 22.9969 20.1361C22.9546 20.1357 22.9154 20.1351 22.879 20.1344C22.8063 20.1329 22.7452 20.1308 22.6952 20.1288C22.5952 20.1246 22.5397 20.1198 22.5241 20.1185L22.512 20.1174V19.4897C21.9089 19.5164 21.3824 19.582 21.0106 19.6707C20.8244 19.7152 20.6767 19.7658 20.5805 19.8173C20.5324 19.843 20.4975 19.869 20.4769 19.8915C20.4564 19.914 20.4508 19.9302 20.4508 19.9441C20.4508 19.958 20.4564 19.9742 20.4769 19.9967C20.4975 20.0192 20.5324 20.0453 20.5806 20.0709C20.6768 20.1224 20.8245 20.1731 21.0108 20.2175C21.3831 20.3064 21.9106 20.3721 22.5146 20.3987Z" fill="white"/>
<path d="M30.3587 23.6413L30.3587 23.6413C30.7983 24.0808 31.1506 24.608 31.3884 25.1823C31.6263 25.7565 31.75 26.3784 31.75 27C31.75 27.6216 31.6263 28.2435 31.3884 28.8177C31.1506 29.392 30.7983 29.9192 30.3587 30.3587L30.3587 30.3587C29.9192 30.7983 29.392 31.1506 28.8177 31.3884C28.2435 31.6263 27.6216 31.75 27 31.75C26.3784 31.75 25.7565 31.6263 25.1823 31.3884C24.608 31.1506 24.0808 30.7983 23.6413 30.3587L23.6413 30.3587C23.2017 29.9192 22.8494 29.392 22.6116 28.8177C22.3737 28.2435 22.25 27.6216 22.25 27C22.25 26.3784 22.3737 25.7565 22.6116 25.1823C22.8494 24.608 23.2017 24.0808 23.6413 23.6413L23.6413 23.6413C24.0808 23.2017 24.608 22.8494 25.1823 22.6116C25.7565 22.3737 26.3784 22.25 27 22.25C27.6216 22.25 28.2435 22.3737 28.8177 22.6116C29.392 22.8494 29.9192 23.2017 30.3587 23.6413Z" fill="black" stroke="white" stroke-width="0.5"/>
<path fill-rule="evenodd" clip-rule="evenodd" d="M26.0844 30.4638C26.0844 30.5859 25.9994 30.6266 25.8761 30.6266C24.3328 30.1327 23.25 28.7295 23.25 27.0793C23.25 25.4291 24.3328 24.0259 25.8761 23.532C25.9998 23.4924 26.0844 23.5727 26.0844 23.6976V23.9852C26.0844 24.0694 26.0406 24.1508 25.9583 24.1915C24.7494 24.6447 23.9161 25.7603 23.9161 27.0793C23.9161 28.4011 24.7906 29.5545 25.9583 29.9671C26.0406 30.0078 26.0844 30.092 26.0844 30.1734V30.4638ZM27.3344 29.4324C27.3344 29.5138 27.2494 29.5952 27.1672 29.5952H26.8328C26.7506 29.5952 26.6656 29.5138 26.6656 29.4324V28.9357C25.9994 28.8543 25.6678 28.4824 25.5417 27.9451C25.5417 27.8636 25.5828 27.7822 25.6678 27.7822H26.0406C26.1256 27.7822 26.1667 27.8229 26.2078 27.9043C26.2928 28.1948 26.4572 28.4417 27 28.4417C27.4167 28.4417 27.7072 28.2355 27.7072 27.9043C27.7072 27.576 27.5428 27.4511 26.9589 27.3697C26.084 27.2477 25.6678 26.9979 25.6678 26.2949C25.6678 25.7603 26.0844 25.3477 26.6656 25.2635V24.7696C26.6656 24.6882 26.7506 24.604 26.8328 24.604H27.1672C27.2494 24.604 27.3344 24.6882 27.3344 24.7696V25.2635C27.8333 25.3477 28.1678 25.6354 28.25 26.0887C28.25 26.1728 28.2089 26.2542 28.1239 26.2542H27.7922C27.7072 26.2542 27.6661 26.2135 27.625 26.132C27.5428 25.8416 27.3344 25.7196 26.9589 25.7196C26.5422 25.7196 26.3339 25.9258 26.3339 26.2135C26.3339 26.5011 26.4572 26.6667 27.0822 26.7509C27.96 26.8691 28.3761 27.12 28.3761 27.8229C28.3761 28.3576 27.9594 28.8136 27.3344 28.9357V29.4324ZM27.9156 30.4637C27.9156 30.5859 28.0006 30.6701 28.1239 30.6266C29.6672 30.1326 30.75 28.7295 30.75 27.0793C30.75 25.4291 29.6261 24.0259 28.1239 23.5319C28.0006 23.5319 27.9156 23.5726 27.9156 23.6976V23.9852C27.9156 24.0694 27.9594 24.1507 28.0417 24.1914C29.2094 24.604 30.0839 25.7603 30.0839 27.0793C30.0839 28.401 29.2506 29.5138 28.0417 29.9671C27.9594 30.0078 27.9156 30.0919 27.9156 30.1733V30.4637Z" fill="white"/>
<defs>
<linearGradient id="paint0_linear_144_596767" x1="8.96875" y1="9.25" x2="24.1563" y2="24.1562" gradientUnits="userSpaceOnUse">
<stop stop-color="#E3E3E3"/>
<stop offset="0.552083" stop-color="#BEBEBE"/>
<stop offset="1" stop-color="#484848"/>
</linearGradient>
<linearGradient id="paint1_linear_144_596767" x1="2.04317" y1="13.2971" x2="15.2219" y2="29.5764" gradientUnits="userSpaceOnUse">
<stop stop-color="#004CFF"/>
<stop offset="0.252131" stop-color="#00E0FB"/>
<stop offset="0.505709" stop-color="#87FF70"/>
<stop offset="0.755054" stop-color="#F8F500"/>
<stop offset="1" stop-color="#FF1A00"/>
</linearGradient>
<clipPath id="clip0_144_596767">
<rect width="18" height="18" fill="white" transform="translate(7 7)"/>
</clipPath>
<clipPath id="clip1_144_596767">
<rect width="18" height="18" fill="white" transform="translate(7 7)"/>
</clipPath>
</defs>
</svg>
