<svg width="272" height="272" viewBox="0 0 272 272" fill="none" xmlns="http://www.w3.org/2000/svg">
<circle cx="136" cy="136" r="136" fill="#031316"/>
<path d="M112.98 102.564H113.104C100.852 102.559 89.8239 95.1256 85.2205 83.7676C83.7553 87.3552 83 91.1938 83 95.0706V177.892C83.3705 194.255 96.7362 207.327 113.097 207.327C129.457 207.327 142.821 194.255 143.191 177.892V132.849C143.191 116.157 129.665 102.626 112.98 102.626" fill="#0E560E"/>
<path d="M142.314 65.3538C140.302 65.1196 138.28 65 136.255 65H113.135C100.876 64.9785 89.8311 72.4048 85.2205 83.7676C89.8239 95.1256 100.852 102.559 113.104 102.564C129.766 102.633 143.227 116.18 143.191 132.849V169.859C169.459 166.288 188.975 143.737 188.752 117.22C188.53 90.7014 168.637 68.4849 142.314 65.3538ZM92.5726 124.03C91.9511 124.032 91.356 123.781 90.9234 123.334C88.9611 121.374 87.8616 118.714 87.8616 115.941C87.8616 113.169 88.9611 110.509 90.9234 108.546C91.8388 107.631 93.3207 107.631 94.2361 108.546C95.1516 109.462 95.1516 110.946 94.2361 111.861C92.0037 114.118 92.0037 117.751 94.2361 120.005C94.9078 120.679 95.1085 121.692 94.7452 122.572C94.3819 123.451 93.5239 124.027 92.5726 124.03ZM92.5726 150.044C91.9535 150.044 91.3608 149.8 90.9234 149.365C86.8386 145.276 86.8386 138.65 90.9234 134.561C91.8412 133.645 93.3303 133.65 94.2457 134.568C95.1587 135.488 95.1563 136.977 94.2361 137.893C92.0037 140.147 92.0037 143.78 94.2361 146.034C94.6807 146.473 94.9317 147.073 94.9317 147.699C94.9317 148.326 94.6807 148.926 94.2361 149.365C93.7916 149.8 93.194 150.042 92.5726 150.044ZM92.5726 176.028C91.9511 176.03 91.356 175.779 90.9234 175.332C88.9611 173.372 87.8616 170.712 87.8616 167.939C87.8616 165.164 88.9611 162.507 90.9234 160.544C91.8412 159.629 93.3303 159.634 94.2457 160.551C95.1587 161.472 95.1563 162.961 94.2361 163.876C92.0037 166.13 92.0037 169.763 94.2361 172.017C94.8982 172.693 95.0918 173.7 94.7285 174.572C94.3676 175.447 93.5167 176.018 92.5726 176.028ZM104.581 137.03C103.957 137.035 103.357 136.791 102.915 136.351C98.8467 132.254 98.8467 125.643 102.915 121.546C103.84 120.638 105.322 120.638 106.244 121.546C106.689 121.986 106.94 122.586 106.94 123.212C106.94 123.839 106.689 124.436 106.244 124.878C104.012 127.132 104.012 130.765 106.244 133.019C106.921 133.691 107.124 134.704 106.761 135.584C106.395 136.463 105.532 137.035 104.581 137.03ZM104.581 163.059C103.957 163.059 103.359 162.815 102.915 162.38C98.8467 158.283 98.8467 151.672 102.915 147.575C103.84 146.667 105.322 146.667 106.244 147.575C106.689 148.017 106.94 148.615 106.94 149.241C106.94 149.867 106.689 150.467 106.244 150.907C103.966 153.13 103.911 156.775 106.12 159.065C106.565 159.504 106.816 160.104 106.816 160.731C106.816 161.354 106.565 161.954 106.12 162.394C105.675 162.829 105.078 163.073 104.456 163.073" fill="#48C148"/>
</svg>
