<svg width="30" height="40" viewBox="0 0 30 40" fill="none" xmlns="http://www.w3.org/2000/svg">
<path d="M15.3982 1.29778e-05C15.9584 1.29778e-05 16.518 0.0330774 17.0749 0.0978353C24.359 0.963237 29.8639 7.10395 29.9254 14.4338C29.9869 21.7629 24.5865 27.9962 17.3177 28.9831V18.7537C17.3276 14.1464 13.6025 10.4018 8.99184 10.3827C5.60143 10.3814 2.54972 8.32677 1.27583 5.18742C2.5517 2.0467 5.60805 -0.00595475 9.00043 1.29778e-05H15.3982Z" fill="black"/>
<path fill-rule="evenodd" clip-rule="evenodd" d="M8.33043 11.0434C4.94006 11.042 1.88831 8.98741 0.61446 5.84806C0.208991 6.83967 0 7.90072 0 8.97225V31.8642C0.102538 36.3869 3.80112 40 8.32845 40C12.8558 40 16.5538 36.3869 16.6563 31.8642V19.4144C16.6563 14.8005 12.9133 11.0606 8.29607 11.0606V11.0434H8.33043ZM2.64891 16.9765C2.47693 16.9771 2.31227 16.9078 2.19253 16.7842C1.64953 16.2426 1.34526 15.5072 1.34526 14.7409C1.34526 13.9745 1.64953 13.2393 2.19253 12.6968C2.44585 12.4439 2.85592 12.4439 3.10924 12.6968C3.36255 12.9499 3.36255 13.3601 3.10924 13.6131C2.49151 14.2368 2.49151 15.241 3.10924 15.864C3.2951 16.0503 3.35068 16.3304 3.25012 16.5735C3.14961 16.8166 2.91215 16.9759 2.64891 16.9765ZM2.64891 24.167C2.47762 24.167 2.31356 24.0996 2.19253 23.9793C1.06219 22.849 1.06219 21.0176 2.19253 19.8873C2.44654 19.6342 2.85858 19.6356 3.1119 19.8892C3.36457 20.1436 3.36388 20.5552 3.10924 20.8083C2.49151 21.4313 2.49151 22.4354 3.10924 23.0583C3.23228 23.18 3.30172 23.3458 3.30172 23.5188C3.30172 23.692 3.23228 23.8578 3.10924 23.9793C2.98623 24.0996 2.82088 24.1662 2.64891 24.167ZM2.64891 31.3488C2.47693 31.3495 2.31227 31.2801 2.19253 31.1566C1.64953 30.6149 1.34526 29.8795 1.34526 29.1132C1.34526 28.3462 1.64953 27.6116 2.19253 27.0691C2.44654 26.8162 2.85858 26.8175 3.1119 27.0712C3.36457 27.3255 3.36388 27.737 3.10924 27.9901C2.49151 28.6131 2.49151 29.6173 3.10924 30.2403C3.29247 30.4272 3.34604 30.7053 3.24552 30.9465C3.14565 31.1882 2.91018 31.3461 2.64891 31.3488ZM5.97182 20.5697C5.7992 20.5711 5.6332 20.5037 5.51084 20.3821C4.3851 19.2498 4.3851 17.4225 5.51084 16.2901C5.76678 16.039 6.17685 16.039 6.43219 16.2901C6.55519 16.4117 6.62463 16.5775 6.62463 16.7505C6.62463 16.9237 6.55519 17.0888 6.43219 17.211C5.81442 17.834 5.81442 18.8382 6.43219 19.4612C6.61934 19.6468 6.67557 19.9269 6.57505 20.17C6.47385 20.4132 6.23506 20.5711 5.97182 20.5697ZM5.97182 27.7641C5.7992 27.7641 5.63385 27.6968 5.51084 27.5766C4.3851 26.4441 4.3851 24.6168 5.51084 23.4845C5.76678 23.2334 6.17685 23.2334 6.43219 23.4845C6.55519 23.6067 6.62463 23.7719 6.62463 23.945C6.62463 24.118 6.55519 24.2839 6.43219 24.4054C5.80186 25.0199 5.78664 26.0273 6.39779 26.6602C6.5208 26.7818 6.59023 26.9476 6.59023 27.1207C6.59023 27.2931 6.5208 27.4589 6.39779 27.5805C6.27475 27.7008 6.10939 27.7681 5.93742 27.7681L5.97182 27.7641Z" fill="black"/>
</svg>
