<svg width="32" height="32" viewBox="0 0 32 32" fill="none" xmlns="http://www.w3.org/2000/svg">
<g clip-path="url(#clip0)">
<path d="M32 16C32 13.9059 31.5834 11.8118 30.7821 9.87712C29.9808 7.9424 28.7946 6.16704 27.3136 4.6864C25.833 3.20544 24.0576 2.0192 22.1229 1.21792C20.1882 0.41664 18.0941 0 16 0C13.9059 0 11.8118 0.41664 9.87712 1.21792C7.9424 2.0192 6.16704 3.20544 4.6864 4.6864C3.20544 6.16704 2.0192 7.9424 1.21792 9.87712C0.41664 11.8118 0 13.9059 0 16C0 18.0941 0.41664 20.1882 1.21792 22.1229C2.0192 24.0576 3.20544 25.833 4.6864 27.3136C6.16704 28.7946 7.9424 29.9808 9.87712 30.7821C11.8118 31.5834 13.9059 32 16 32C18.0941 32 20.1882 31.5834 22.1229 30.7821C24.0576 29.9808 25.833 28.7946 27.3136 27.3136C28.7946 25.833 29.9808 24.0576 30.7821 22.1229C31.5834 20.1882 32 18.0941 32 16Z" fill="url(#paint0_linear)"/>
<path fill-rule="evenodd" clip-rule="evenodd" d="M26.2238 12.3695L26.2382 12.3448C26.7892 11.3848 26.9975 10.1842 26.7902 9.07027C26.5831 7.95635 25.9601 6.92947 25.0798 6.22387C24.1995 5.51827 23.0615 5.13395 21.9294 5.17427C20.7969 5.21459 19.6705 5.67923 18.8535 6.42611L18.7998 6.47507L18.7518 6.52947C15.0727 10.6834 11.1195 14.2949 7.04074 17.2386C6.30186 17.7717 5.70698 18.4776 5.30506 19.2914C4.90282 20.1048 4.70826 21.0159 4.73482 21.9205C4.76138 22.8248 5.0177 23.7253 5.46506 24.5103C5.91242 25.2949 6.56138 25.9723 7.32458 26.4546C7.70602 26.6959 8.11658 26.8914 8.54826 27.0344C8.97962 27.1775 9.4241 27.2635 9.85418 27.3016C10.2843 27.34 10.7041 27.332 11.1054 27.284C11.3063 27.2597 11.4971 27.2267 11.6948 27.1794C11.8929 27.1323 12.1179 27.0619 12.3428 26.9627C12.5678 26.8639 12.7902 26.7397 13.0254 26.589C13.2606 26.4383 13.5111 26.2594 13.8075 26.0357C14.1038 25.8117 14.4452 25.5426 14.8571 25.2111C15.2689 24.8792 15.7534 24.4882 16.3316 24.0018C17.4878 23.0293 18.9745 21.6933 20.6593 19.8191C22.3441 17.9451 24.2299 15.5317 26.2087 12.3938L26.2238 12.3695Z" fill="#011D07"/>
<path fill-rule="evenodd" clip-rule="evenodd" d="M19.7842 7.44298C18.8891 8.45354 17.9695 9.44233 17.0251 10.4094C15.1365 12.3435 13.1471 14.1684 11.0571 15.8843C10.0123 16.7422 8.94258 17.5659 7.84818 18.3556C7.21554 18.8123 6.7141 19.4494 6.42002 20.1713C6.12562 20.8932 6.0389 21.6999 6.17234 22.4683C6.30578 23.2366 6.6597 23.9662 7.18002 24.5467C7.70066 25.1275 8.3877 25.5585 9.13682 25.7748C9.88594 25.9911 10.6975 25.9924 11.3323 25.85C11.9675 25.7076 12.4261 25.4215 14.62 23.6308C16.7896 21.8599 20.6565 18.6177 25.045 11.6593C25.4373 10.9755 25.5858 10.1201 25.4383 9.32649C25.2904 8.53321 24.8469 7.80138 24.2197 7.29898C23.5925 6.79626 22.7819 6.52234 21.9755 6.55114C21.1688 6.57994 20.3663 6.91082 19.7842 7.44298Z" fill="#13A10E"/>
<path fill-rule="evenodd" clip-rule="evenodd" d="M6.11139 21.7331C6.11011 21.9795 6.13027 22.2259 6.17251 22.4685C6.30595 23.2368 6.65987 23.9664 7.18019 24.5469C7.70083 25.1277 8.38787 25.5587 9.13699 25.775C9.88611 25.9914 10.6976 25.9926 11.3325 25.8502C11.9677 25.7078 12.4263 25.4218 14.6202 23.631C16.7898 21.8602 20.6567 18.6179 25.0451 11.6595C25.1632 11.4534 25.2595 11.2349 25.3338 11.0038C25.4823 10.5414 25.5296 10.0691 25.4765 9.58656C25.4496 9.34528 25.3991 9.112 25.3242 8.88672C20.7405 15.3734 17.0941 18.712 14.7255 20.6784C12.3565 22.6448 11.2653 23.239 10.2983 23.455C9.33123 23.671 8.48867 23.5091 7.45955 22.8934C7.02595 22.6339 6.55971 22.2941 6.11139 21.7331Z" fill="#107C10"/>
<path fill-rule="evenodd" clip-rule="evenodd" d="M8.54851 19.6582C8.39964 19.6576 8.25077 19.6915 8.10255 19.76C7.80578 19.8966 7.61337 20.1222 7.52533 20.4365C7.48115 20.5936 7.47123 20.7456 7.49492 20.8928C7.50772 20.9709 7.55414 21.047 7.62009 21.0947C7.68572 21.1424 7.7712 21.1622 7.85124 21.1491C7.93127 21.1363 8.00586 21.0905 8.05325 21.0243C8.10031 20.9581 8.12016 20.8713 8.10767 20.7933C8.09775 20.7318 8.10191 20.6685 8.12016 20.6029C8.15697 20.472 8.23733 20.3779 8.3609 20.3209C8.42269 20.2925 8.4848 20.2784 8.54691 20.2784C8.62598 20.2787 8.70858 20.2454 8.76653 20.1881C8.82447 20.1312 8.85777 20.0502 8.85809 19.9693C8.85841 19.8883 8.82543 19.807 8.76781 19.7497C8.71018 19.6921 8.6279 19.6582 8.54851 19.6582Z" fill="#16C50C"/>
<path fill-rule="evenodd" clip-rule="evenodd" d="M11.3397 19.6255C11.1905 19.6252 11.0419 19.6591 10.8937 19.7273C10.5969 19.8639 10.4045 20.0895 10.3165 20.4037C10.2723 20.5609 10.2621 20.7132 10.2861 20.8604C10.2989 20.9385 10.3453 21.0143 10.4109 21.062C10.4769 21.11 10.5624 21.1295 10.6421 21.1167C10.7221 21.1036 10.797 21.0578 10.8441 20.9916C10.8915 20.9253 10.9113 20.8386 10.8985 20.7605C10.8886 20.6994 10.8927 20.6357 10.9113 20.5705C10.9481 20.4393 11.0282 20.3452 11.1521 20.2882C11.2138 20.2597 11.2756 20.2457 11.3377 20.246C11.4171 20.246 11.4997 20.2127 11.5577 20.1557C11.6156 20.0985 11.6489 20.0175 11.6492 19.9365C11.6492 19.8556 11.6166 19.7746 11.559 19.717C11.5013 19.6594 11.4187 19.6258 11.3397 19.6255Z" fill="#16C50C"/>
<path fill-rule="evenodd" clip-rule="evenodd" d="M12.0955 16.8342C11.9463 16.8339 11.7978 16.8678 11.6496 16.9363C11.3528 17.073 11.1604 17.2982 11.0723 17.6128C11.0282 17.7699 11.0179 17.9219 11.0419 18.0691C11.0547 18.1472 11.1012 18.223 11.1668 18.271C11.2327 18.3187 11.3182 18.3386 11.3979 18.3254C11.478 18.3123 11.5529 18.2666 11.5999 18.2006C11.6473 18.1344 11.6672 18.0477 11.6544 17.9696C11.6444 17.9082 11.6486 17.8448 11.6672 17.7792C11.704 17.648 11.784 17.5542 11.9076 17.4973C11.9697 17.4688 12.0315 17.4544 12.0936 17.4547C12.173 17.455 12.2556 17.4218 12.3135 17.3645C12.3715 17.3075 12.4048 17.2266 12.4051 17.1453C12.4051 17.0643 12.3724 16.9834 12.3148 16.9258C12.2572 16.8685 12.1746 16.8346 12.0955 16.8342Z" fill="#16C50C"/>
<path fill-rule="evenodd" clip-rule="evenodd" d="M14.7869 16.8669C14.6378 16.8666 14.4892 16.9005 14.3407 16.9687C14.0442 17.1053 13.8518 17.3309 13.7634 17.6452C13.7196 17.8023 13.7093 17.9546 13.7334 18.1018C13.7462 18.1799 13.7926 18.2557 13.8582 18.3034C13.9242 18.3514 14.0093 18.3709 14.0894 18.3578C14.1694 18.345 14.244 18.2993 14.2914 18.233C14.3387 18.1668 14.3586 18.0801 14.3458 18.002C14.3359 17.9405 14.34 17.8772 14.3586 17.8119C14.3954 17.6807 14.4754 17.5866 14.599 17.5297C14.6608 17.5012 14.7229 17.4871 14.785 17.4874C14.8644 17.4874 14.9467 17.4541 15.005 17.3972C15.0629 17.3399 15.0962 17.2589 15.0962 17.178C15.0965 17.097 15.0636 17.0157 15.0062 16.9585C14.9486 16.9009 14.866 16.8673 14.7869 16.8669Z" fill="#16C50C"/>
<path fill-rule="evenodd" clip-rule="evenodd" d="M15.4784 14.1094C15.3292 14.1091 15.1807 14.143 15.0321 14.2111C14.7357 14.3478 14.5433 14.5734 14.4549 14.8876C14.4108 15.0447 14.4008 15.1971 14.4248 15.3439C14.4373 15.4223 14.4837 15.4982 14.5497 15.5459C14.6156 15.5939 14.7008 15.6134 14.7808 15.6003C14.8609 15.5875 14.9355 15.5417 14.9828 15.4755C15.0302 15.4092 15.0501 15.3225 15.0373 15.2444C15.0273 15.183 15.0315 15.1196 15.0498 15.054C15.0866 14.9231 15.1669 14.8291 15.2905 14.7721C15.3523 14.7436 15.4144 14.7295 15.4765 14.7295C15.5556 14.7299 15.6382 14.6966 15.6961 14.6396C15.7541 14.5823 15.7874 14.5014 15.7877 14.4204C15.788 14.3395 15.755 14.2582 15.6974 14.2009C15.6398 14.1433 15.5575 14.1097 15.4784 14.1094Z" fill="#16C50C"/>
<path fill-rule="evenodd" clip-rule="evenodd" d="M18.2692 14.1421C18.1203 14.1415 17.9715 14.1754 17.8233 14.2439C17.5265 14.3805 17.3341 14.6061 17.246 14.9203C17.2019 15.0775 17.1919 15.2295 17.2156 15.3767C17.2284 15.4547 17.2748 15.5309 17.3408 15.5786C17.4064 15.6263 17.4919 15.6461 17.5719 15.633C17.652 15.6199 17.7266 15.5744 17.7739 15.5082C17.821 15.4419 17.8409 15.3552 17.8284 15.2771C17.8184 15.2157 17.8226 15.1523 17.8409 15.0867C17.8777 14.9559 17.958 14.8618 18.0816 14.8048C18.1434 14.7763 18.2055 14.7619 18.2676 14.7623C18.3467 14.7626 18.4293 14.7293 18.4872 14.672C18.5452 14.6151 18.5785 14.5341 18.5788 14.4531C18.5791 14.3719 18.5461 14.2909 18.4885 14.2333C18.4309 14.176 18.3486 14.1421 18.2692 14.1421Z" fill="#16C50C"/>
<path fill-rule="evenodd" clip-rule="evenodd" d="M18.2692 11.3506C18.1203 11.35 17.9715 11.3842 17.8233 11.4524C17.5265 11.589 17.3341 11.8146 17.246 12.1288C17.2019 12.286 17.1919 12.4383 17.2156 12.5852C17.2284 12.6632 17.2748 12.7394 17.3408 12.7871C17.4064 12.8351 17.4919 12.8546 17.5719 12.8415C17.652 12.8287 17.7266 12.7829 17.7739 12.7167C17.821 12.6504 17.8409 12.5637 17.8284 12.4856C17.8184 12.4242 17.8226 12.3608 17.8409 12.2952C17.8777 12.1644 17.958 12.0703 18.0816 12.0133C18.1434 11.9848 18.2055 11.9708 18.2676 11.9708C18.3467 11.9711 18.4293 11.9378 18.4872 11.8805C18.5452 11.8236 18.5785 11.7426 18.5788 11.6616C18.5791 11.5807 18.5461 11.4994 18.4885 11.4421C18.4309 11.3845 18.3486 11.3509 18.2692 11.3506Z" fill="#16C50C"/>
<path fill-rule="evenodd" clip-rule="evenodd" d="M21.7166 10.6287C21.5678 10.6283 21.4189 10.6623 21.2707 10.7307C20.9739 10.8674 20.7815 11.0927 20.6934 11.4072C20.6493 11.5643 20.639 11.7163 20.663 11.8635C20.6758 11.9416 20.7223 12.0175 20.7879 12.0655C20.8538 12.1131 20.9393 12.133 21.0193 12.1199C21.0991 12.1067 21.174 12.0613 21.221 11.9951C21.2684 11.9288 21.2883 11.8421 21.2758 11.764C21.2655 11.7026 21.2697 11.6392 21.2883 11.5736C21.3251 11.4427 21.4051 11.3487 21.529 11.2917C21.5908 11.2632 21.6526 11.2488 21.715 11.2491C21.7941 11.2495 21.8767 11.2162 21.9346 11.1589C21.9926 11.1019 22.0259 11.021 22.0262 10.94C22.0262 10.8587 21.9935 10.7778 21.9359 10.7202C21.8783 10.6629 21.796 10.629 21.7166 10.6287Z" fill="#16C50C"/>
<path fill-rule="evenodd" clip-rule="evenodd" d="M21.7499 7.93653C21.6007 7.93589 21.4522 7.96981 21.3036 8.03829C21.0072 8.17493 20.8148 8.40053 20.7264 8.71477C20.6822 8.87189 20.6723 9.02389 20.6963 9.17109C20.7091 9.24917 20.7552 9.32533 20.8212 9.37301C20.8871 9.42069 20.9723 9.44053 21.0523 9.42741C21.1324 9.41429 21.2069 9.36885 21.2543 9.30261C21.3017 9.23637 21.3216 9.14965 21.3088 9.07157C21.2988 9.01013 21.303 8.94677 21.3216 8.88117C21.3581 8.75029 21.4384 8.65621 21.562 8.59925C21.6238 8.57077 21.6859 8.55669 21.748 8.55669C21.8271 8.55701 21.9097 8.52373 21.9676 8.46645C22.0256 8.40949 22.0592 8.32853 22.0592 8.24757C22.0595 8.16661 22.0265 8.08533 21.9689 8.02805C21.9113 7.97045 21.829 7.93653 21.7499 7.93653Z" fill="#16C50C"/>
<path fill-rule="evenodd" clip-rule="evenodd" d="M24.0449 12.3216C24.0449 12.2406 24.0113 12.1596 23.954 12.1024C23.8966 12.0451 23.8156 12.0115 23.7345 12.0115C23.6535 12.0115 23.5721 12.0451 23.5148 12.1024C23.4575 12.1596 23.4238 12.2406 23.4238 12.3216C23.4238 12.4025 23.4575 12.4838 23.5148 12.5411C23.5721 12.5984 23.6535 12.632 23.7345 12.632C23.8156 12.632 23.8966 12.5984 23.954 12.5411C24.0113 12.4838 24.0449 12.4025 24.0449 12.3216Z" fill="#13A00E"/>
<path fill-rule="evenodd" clip-rule="evenodd" d="M12.6475 24.5092C12.7963 24.5099 12.9452 24.476 13.0934 24.4075C13.3902 24.2708 13.5826 24.0452 13.6707 23.731C13.7148 23.5739 13.7251 23.4219 13.7011 23.2747C13.6883 23.1966 13.6418 23.1204 13.5759 23.0728C13.5103 23.0251 13.4248 23.0052 13.3447 23.0184C13.2647 23.0315 13.1901 23.0769 13.1427 23.1432C13.0957 23.2094 13.0758 23.2961 13.0883 23.3742C13.0986 23.4356 13.0941 23.499 13.0758 23.5646C13.039 23.6955 12.9587 23.7896 12.8351 23.8465C12.7733 23.875 12.7112 23.8891 12.6491 23.8891C12.57 23.8888 12.4874 23.922 12.4295 23.9793C12.3715 24.0363 12.3382 24.1172 12.3379 24.1982C12.3376 24.2792 12.3705 24.3604 12.4282 24.4177C12.4858 24.4753 12.5681 24.5092 12.6475 24.5092Z" fill="#13A00E"/>
<path fill-rule="evenodd" clip-rule="evenodd" d="M15.4131 21.8091C15.562 21.8094 15.7108 21.7755 15.8591 21.7073C16.1558 21.5707 16.3482 21.3451 16.4363 21.0308C16.4804 20.8737 16.4907 20.7214 16.4667 20.5745C16.4539 20.4964 16.4075 20.4203 16.3415 20.3726C16.2759 20.3246 16.1904 20.3051 16.1104 20.3182C16.0306 20.331 15.9557 20.3768 15.9087 20.443C15.8613 20.5092 15.8414 20.596 15.8539 20.674C15.8642 20.7355 15.8597 20.7988 15.8414 20.8644C15.8046 20.9953 15.7246 21.0894 15.6007 21.1464C15.5389 21.1748 15.4771 21.1889 15.4147 21.1889C15.3356 21.1886 15.253 21.2219 15.1951 21.2788C15.1371 21.3361 15.1038 21.4171 15.1035 21.498C15.1035 21.579 15.1362 21.6603 15.1938 21.7176C15.2514 21.7752 15.3337 21.8088 15.4131 21.8091Z" fill="#13A00E"/>
<path fill-rule="evenodd" clip-rule="evenodd" d="M18.1807 19.0647C18.3299 19.0651 18.4784 19.0311 18.6266 18.9627C18.9234 18.826 19.1158 18.6007 19.2038 18.2862C19.248 18.1291 19.2583 17.9771 19.2343 17.8299C19.2215 17.7518 19.175 17.6759 19.1094 17.6279C19.0435 17.5803 18.958 17.5604 18.8779 17.5735C18.7982 17.5867 18.7233 17.6324 18.6763 17.6983C18.6289 17.7646 18.609 17.8513 18.6215 17.9297C18.6318 17.9908 18.6276 18.0542 18.609 18.1198C18.5722 18.251 18.4922 18.3447 18.3683 18.4017C18.3065 18.4302 18.2447 18.4446 18.1823 18.4443C18.1032 18.4439 18.0206 18.4775 17.9627 18.5345C17.9047 18.5915 17.8714 18.6724 17.8711 18.7537C17.8711 18.8347 17.9037 18.9156 17.9614 18.9732C18.019 19.0305 18.1013 19.0644 18.1807 19.0647Z" fill="#13A00E"/>
<path fill-rule="evenodd" clip-rule="evenodd" d="M20.8464 16.2654C20.9956 16.2657 21.1441 16.2318 21.2926 16.1633C21.5891 16.0267 21.7815 15.8014 21.8699 15.4869C21.9137 15.3297 21.924 15.1777 21.9 15.0305C21.8872 14.9525 21.8411 14.8766 21.7751 14.8286C21.7092 14.7809 21.624 14.7611 21.544 14.7742C21.4639 14.7873 21.3893 14.8331 21.342 14.899C21.2946 14.9653 21.2747 15.052 21.2875 15.1304C21.2975 15.1915 21.2933 15.2549 21.2747 15.3205C21.2382 15.4517 21.1579 15.5454 21.0343 15.6024C20.9725 15.6309 20.9104 15.6453 20.8483 15.6449C20.7689 15.6446 20.6866 15.6782 20.6287 15.7352C20.5707 15.7925 20.5371 15.8731 20.5371 15.9544C20.5368 16.0353 20.5698 16.1163 20.6274 16.1739C20.685 16.2312 20.7673 16.2651 20.8464 16.2654Z" fill="#13A00E"/>
<ellipse cx="26" cy="6" rx="6" ry="6" fill="#A60000"/>
<ellipse cx="25.875" cy="5.875" rx="5.5" ry="5.5" fill="#DB1301"/>
<ellipse cx="26.125" cy="6.125" rx="5" ry="5" fill="#FA7C09"/>
<ellipse cx="26" cy="6" rx="4.5" ry="4.5" fill="#FCA802"/>
<ellipse cx="25.875" cy="5.875" rx="4" ry="4" fill="#FCDD03"/>
<ellipse cx="26.125" cy="6.125" rx="3.5" ry="3.5" fill="#E4F819"/>
<ellipse cx="26.0026" cy="6" rx="3.00067" ry="3" fill="#90E867"/>
<ellipse cx="25.8775" cy="5.875" rx="2.50056" ry="2.5" fill="#23C78C"/>
<ellipse cx="26.1254" cy="6.125" rx="2.00045" ry="2" fill="#27D7EA"/>
<ellipse cx="26.0007" cy="6" rx="1.50067" ry="1.5" fill="#239CD3"/>
<ellipse cx="25.8754" cy="5.875" rx="1.00045" ry="1" fill="#1682FB"/>
<ellipse cx="26.1269" cy="6.125" rx="0.499944" ry="0.5" fill="#001EC3"/>
<path fill-rule="evenodd" clip-rule="evenodd" d="M32 26C32 25.2147 31.8438 24.4294 31.5433 23.7039C31.2428 22.9784 30.798 22.3126 30.2426 21.7574C29.6874 21.202 29.0216 20.7572 28.2961 20.4567C27.5706 20.1562 26.7853 20 26 20C25.2147 20 24.4294 20.1562 23.7039 20.4567C22.9784 20.7572 22.3126 21.202 21.7574 21.7574C21.202 22.3126 20.7572 22.9784 20.4567 23.7039C20.1562 24.4294 20 25.2147 20 26C20 26.7853 20.1562 27.5706 20.4567 28.2961C20.7572 29.0216 21.202 29.6874 21.7574 30.2426C22.3126 30.798 22.9784 31.2428 23.7039 31.5433C24.4294 31.8438 25.2147 32 26 32C26.7853 32 27.5706 31.8438 28.2961 31.5433C29.0216 31.2428 29.6874 30.798 30.2426 30.2426C30.798 29.6874 31.2428 29.0216 31.5433 28.2961C31.8438 27.5706 32 26.7853 32 26Z" fill="black"/>
<path fill-rule="evenodd" clip-rule="evenodd" d="M26.071 21.75L23.5 25.9733L26.071 27.4779L28.6425 25.9733L26.071 21.75Z" fill="white"/>
<path fill-rule="evenodd" clip-rule="evenodd" d="M23.5 26.4558L26.071 30.0424L28.6439 26.4558L26.071 27.9596L23.5 26.4558Z" fill="white"/>
</g>
<defs>
<linearGradient id="paint0_linear" x1="-4.70182" y1="-9.40364" x2="-4.70182" y2="32" gradientUnits="userSpaceOnUse">
<stop stop-color="#08021E"/>
<stop offset="1" stop-color="#074007"/>
</linearGradient>
<clipPath id="clip0">
<rect width="32" height="32" fill="white"/>
</clipPath>
</defs>
</svg>
