<svg width="80" height="80" viewBox="0 0 80 80" fill="none" xmlns="http://www.w3.org/2000/svg">
<path d="M40 0C17.9094 0 0 17.9094 0 40C0 62.0906 17.9094 80 40 80C62.0906 80 80 62.0906 80 40C79.9303 17.9094 62.0209 0 40 0Z" fill="#6C5DFE"/>
<path d="M53.4531 46.1911C53.4772 46.3234 53.4832 46.4581 53.47 46.5928C53.3002 47.4095 53.3628 48.261 52.9861 49.0584C52.7874 49.4806 52.8091 50.0062 52.7453 50.4872C52.6526 51.192 52.5708 51.8981 52.4865 52.5968C52.3396 53.8633 51.3068 55.0083 49.8369 54.9999C42.973 54.9577 36.1089 54.9577 29.2449 54.9999C28.6464 55.005 28.064 54.8065 27.5933 54.437C27.1288 54.0723 26.8068 53.5565 26.6833 52.9793C26.3498 51.6262 26.2114 50.2611 25.9718 48.9044C25.7816 47.8497 25.5385 46.7949 25.323 45.7232C25.3122 45.6451 25.3218 45.5656 25.3507 45.4923C25.3797 45.4184 25.4264 45.3528 25.4867 45.3011C25.7647 45.1931 26.0557 45.1223 26.3522 45.0906C28.6948 44.7803 31.0506 44.7923 33.4004 44.903C34.7173 44.9631 36.0259 45.1579 37.3392 45.3011C37.923 45.3648 38.5466 45.348 39.0703 45.55C40.3029 46.0227 41.6115 46.0335 42.8778 46.1658C45.0663 46.3943 47.2837 46.4256 49.4902 46.4425C50.8072 46.4593 52.1061 46.2861 53.4531 46.1911ZM24.059 44.1007C24.0422 42.8836 23.7809 41.6303 24.5116 40.5791C25.0569 39.7974 25.8093 39.1022 26.865 38.9867C27.2778 38.9455 27.6926 38.9287 28.1073 38.9362H50.859C51.692 38.9362 52.5166 38.959 53.222 39.4089C53.8708 39.8154 54.4932 40.3229 54.6425 41.0963C54.8267 42.0609 54.8832 43.0495 55 44.0911C54.427 44.2378 53.9611 44.3713 53.4856 44.4736C52.8115 44.648 52.1278 44.7803 51.4368 44.8729C50.2763 44.9908 49.1111 45.0533 47.9434 45.0569C46.7233 45.055 45.5044 44.9844 44.2923 44.8452C42.9296 44.6853 41.5814 44.3978 40.2247 44.1837C39.6457 44.0923 39.057 44.0514 38.4768 43.972C37.5884 43.8554 36.706 43.7002 35.8164 43.616C34.16 43.4597 32.5024 43.2793 30.8412 43.2336C29.5677 43.2087 28.2941 43.2791 27.0312 43.444C26.0513 43.5547 25.1063 43.8578 24.059 44.1007ZM51.3874 35.5493C51.1707 36.0689 51.5259 36.5091 51.0347 36.8771C50.6254 37.1826 50.1006 37.4628 49.6877 37.2391C49.2736 37.0154 48.9931 36.722 49.0099 36.2084C49.063 35.0593 48.8405 33.9142 48.3611 32.8684C47.9917 32.0466 47.5162 31.2768 46.9466 30.5784C46.1792 29.7174 45.2993 28.9633 44.3308 28.3365C43.7939 27.9649 43.0801 27.8314 42.4409 27.6125C42.0315 27.4744 41.6152 27.3576 41.1937 27.2625C40.0399 27.0125 38.8458 27.0125 37.6919 27.2625C36.7112 27.4532 35.7637 27.7867 34.8799 28.2523C33.653 28.8713 32.5941 29.7774 31.7934 30.8935C31.3187 31.5908 30.9082 32.3294 30.5667 33.1005C30.0864 34.1409 29.9564 35.1969 29.9179 36.2818C29.9103 36.4246 29.8744 36.5646 29.8122 36.6934C29.75 36.8223 29.6627 36.9375 29.5555 37.0323C29.336 37.2269 29.0494 37.3286 28.7562 37.3161C28.1543 37.3329 27.739 36.894 27.7258 36.2794C27.697 34.9105 27.9346 33.5491 28.4251 32.2706C28.7573 31.4854 29.1799 30.7415 29.6843 30.054C30.0914 29.4001 30.5837 28.8032 31.1481 28.2788C31.8475 27.6822 32.494 26.9967 33.398 26.6431C33.9433 26.4326 34.4345 26.085 34.975 25.8589C35.7165 25.5462 36.4352 25.1853 37.2874 25.1625C38.3925 25.1312 39.4988 24.9664 40.5991 25.0061C41.5513 25.041 42.5155 25.1529 43.3943 25.64C43.9456 25.9479 44.6125 26.0609 45.1686 26.3616C45.7766 26.7128 46.3556 27.1109 46.8985 27.5523C47.4029 27.9372 47.87 28.3678 48.3479 28.7875C48.4947 28.909 48.6223 29.0521 48.7271 29.2097C49.1725 29.9337 49.5553 30.7011 50.05 31.3939C50.6676 32.2514 50.8277 33.2268 51.013 34.2143C51.1154 34.6653 51.2394 35.1103 51.3874 35.5493Z" fill="white"/>
</svg>
