<svg width="42" height="40" viewBox="0 0 42 40" fill="none" xmlns="http://www.w3.org/2000/svg">
<path d="M39.2364 28.2548C39.2685 28.4312 39.2765 28.6108 39.2588 28.7904C39.0327 29.8793 39.1161 31.0147 38.6142 32.0779C38.3496 32.6407 38.3785 33.3415 38.2935 33.983C38.17 34.9227 38.0609 35.8641 37.9487 36.7958C37.753 38.4844 36.3771 40.0111 34.4191 39.9999C25.2752 39.9436 16.131 39.9436 6.98711 39.9999C6.18978 40.0067 5.41386 39.7421 4.78692 39.2494C4.1681 38.7631 3.73913 38.0754 3.57454 37.3058C3.13033 35.5016 2.94593 33.6815 2.62681 31.8726C2.37343 30.4662 2.04949 29.0598 1.76244 27.631C1.74813 27.5269 1.76082 27.4208 1.79932 27.3231C1.83805 27.2246 1.90026 27.137 1.98054 27.0681C2.35083 26.9241 2.73852 26.8298 3.13355 26.7874C6.25424 26.3737 9.39257 26.3897 12.5229 26.5373C14.2773 26.6175 16.0204 26.8772 17.77 27.0681C18.5478 27.1531 19.3785 27.1306 20.0761 27.4C21.7182 28.0303 23.4613 28.0447 25.1484 28.2211C28.0638 28.5258 31.0177 28.5675 33.9572 28.5899C35.7116 28.6124 37.4419 28.3815 39.2364 28.2548ZM0.0786091 25.4676C0.0561581 23.8448 -0.291846 22.1738 0.681566 20.7722C1.40802 19.7298 2.4103 18.8029 3.8167 18.6489C4.36655 18.594 4.91916 18.5715 5.47165 18.5816H35.7806C36.8903 18.5816 37.9888 18.6121 38.9285 19.2118C39.7929 19.7539 40.622 20.4306 40.8208 21.4617C41.0662 22.7479 41.1415 24.0661 41.2971 25.4548C40.5338 25.6505 39.9131 25.8285 39.2797 25.9648C38.3817 26.1973 37.4708 26.3737 36.5503 26.4972C35.0044 26.6543 33.4521 26.7377 31.8965 26.7425C30.2712 26.74 28.6474 26.6458 27.0327 26.4603C25.2173 26.247 23.4213 25.8637 21.614 25.5783C20.8426 25.4564 20.0584 25.4019 19.2855 25.2961C18.102 25.1405 16.9265 24.9336 15.7414 24.8214C13.5348 24.6129 11.3266 24.3724 9.11355 24.3114C7.41707 24.2783 5.72048 24.3721 4.038 24.5921C2.73263 24.7396 1.47378 25.1437 0.0786091 25.4676ZM36.4845 14.0657C36.1959 14.7585 36.669 15.3454 36.0147 15.8362C35.4694 16.2435 34.7702 16.6171 34.2202 16.3188C33.6685 16.0206 33.2949 15.6293 33.3174 14.9445C33.388 13.4124 33.0916 11.8856 32.453 10.4912C31.9609 9.39552 31.3274 8.36901 30.5687 7.43786C29.5463 6.28985 28.3742 5.28445 27.084 4.44867C26.3688 3.95314 25.4178 3.77514 24.5663 3.48327C24.0209 3.29924 23.4663 3.14348 22.9049 3.01661C21.3677 2.68327 19.777 2.68327 18.2399 3.01661C16.9333 3.27095 15.6712 3.71562 14.4938 4.33641C12.8594 5.16168 11.4487 6.36987 10.382 7.85802C9.74977 8.78767 9.20284 9.77257 8.74792 10.8007C8.10807 12.1879 7.93487 13.5959 7.88356 15.0423C7.87355 15.2328 7.8257 15.4194 7.74283 15.5912C7.65996 15.763 7.54369 15.9166 7.40084 16.043C7.10841 16.3025 6.72661 16.4382 6.33602 16.4215C5.5342 16.4439 4.98096 15.8586 4.96332 15.0391C4.92505 13.214 5.24147 11.3988 5.89503 9.69419C6.33751 8.64723 6.90045 7.65537 7.57245 6.73867C8.1148 5.86683 8.77052 5.07087 9.52246 4.37169C10.4542 3.57629 11.3153 2.66221 12.5197 2.19074C13.2461 1.9101 13.9004 1.44665 14.6204 1.14516C15.6083 0.728213 16.5657 0.247119 17.7011 0.21665C19.1732 0.174955 20.647 -0.0447443 22.1127 0.008176C23.3812 0.0546817 24.6657 0.203821 25.8363 0.853297C26.5708 1.26383 27.4592 1.41457 28.2001 1.81548C29.01 2.28375 29.7813 2.81455 30.5045 3.40309C31.1765 3.91626 31.7987 4.49036 32.4354 5.05004C32.631 5.212 32.801 5.40284 32.9405 5.61291C33.5339 6.57831 34.0438 7.60143 34.7029 8.52513C35.5256 9.66853 35.7388 10.9691 35.9858 12.2857C36.1221 12.887 36.2873 13.4804 36.4845 14.0657Z" fill="black"/>
</svg>
