<svg width="32" height="32" viewBox="0 0 32 32" fill="none" xmlns="http://www.w3.org/2000/svg">
<g clip-path="url(#clip0_1938_14441)">
<path d="M15.9089 31.985C24.6884 31.985 31.8056 24.8677 31.8056 16.0882C31.8056 7.30863 24.6884 0.191406 15.9089 0.191406C7.12931 0.191406 0.012085 7.30863 0.012085 16.0882C0.012085 24.8677 7.12931 31.985 15.9089 31.985Z" fill="url(#paint0_linear_1938_14441)"/>
<path d="M24.6024 13.8989L15.9194 5.03223L7.2356 13.8989L11.5771 18.3318L15.9194 13.8989L20.261 18.3318L24.6024 13.8989Z" fill="white"/>
<path d="M7.98212 26.3023V26.3645H8.04416H11.4769H11.5389V26.3023V25.3989V25.3369H11.4769H9.09987V24.1587H11.2209H11.283V24.0966V23.1934V23.1312H11.2209H9.09987V21.9982H11.4317H11.4938V21.9361V21.0328V20.9707H11.4317H8.04416H7.98212V21.0328V26.3023ZM14.4112 26.2292L14.4123 26.2299C14.7339 26.3907 15.1152 26.4697 15.5542 26.4697C15.9931 26.4697 16.3721 26.3907 16.6889 26.2296L16.6893 26.2294C17.0107 26.0637 17.2558 25.8293 17.4227 25.5269C17.5943 25.2201 17.6789 24.8605 17.6789 24.4504V21.0328V20.9707H17.6168H16.6232H16.5611V21.0328V24.4806C16.5611 24.7892 16.4723 25.0254 16.3008 25.197L16.3002 25.1976C16.1347 25.3677 15.8896 25.4573 15.5542 25.4573C15.2191 25.4573 14.9711 25.3679 14.8004 25.1974C14.6337 25.0258 14.5473 24.7894 14.5473 24.4806V21.0328V20.9707H14.4852H13.4915H13.4295V21.0328V24.4504C13.4295 24.8603 13.5115 25.2197 13.6779 25.5265L13.6785 25.5275C13.8502 25.8293 14.095 26.0635 14.4112 26.2292ZM19.8267 26.3023V26.3645H19.8887H20.8824H20.9443V26.3023V24.3769H22.2675C22.4041 24.3769 22.4842 24.4123 22.5278 24.4665L22.5292 24.4684C22.5829 24.5303 22.612 24.6127 22.612 24.7215V26.3023V26.3645H22.674H23.6678H23.7298V26.3023V24.5784C23.7298 24.3569 23.6715 24.173 23.5491 24.0336C23.4372 23.9015 23.2846 23.8268 23.0974 23.8061V23.7687C23.3119 23.6736 23.4934 23.5293 23.6416 23.3364C23.8026 23.1273 23.8803 22.8568 23.8803 22.5309V22.4404C23.8803 22.1442 23.8101 21.8838 23.6672 21.6617C23.525 21.4402 23.3249 21.2696 23.0693 21.1497C22.8135 21.0297 22.5156 20.9707 22.1772 20.9707H19.8887H19.8267V21.0328V26.3023ZM22.585 22.1758L22.5858 22.1766C22.7022 22.2885 22.7625 22.4394 22.7625 22.6361V22.7115C22.7625 22.9076 22.7002 23.0614 22.5784 23.1787C22.4626 23.29 22.2968 23.3496 22.0717 23.3496H20.9443V21.9982H22.0717C22.3015 21.9982 22.4694 22.0601 22.585 22.1758Z" fill="#1F2333" stroke="#1F2333" stroke-width="0.600874"/>
</g>
<g clip-path="url(#clip1_1938_14441)">
<path d="M25.9658 31.9948C29.2581 31.9948 31.9271 29.3259 31.9271 26.0336C31.9271 22.7412 29.2581 20.0723 25.9658 20.0723C22.6735 20.0723 20.0045 22.7412 20.0045 26.0336C20.0045 29.3259 22.6735 31.9948 25.9658 31.9948Z" fill="url(#paint1_linear_1938_14441)"/>
<path d="M29.2259 25.2117L25.9698 21.8867L22.7133 25.2117L24.3414 26.874L25.9698 25.2117L27.5978 26.874L29.2259 25.2117Z" fill="white"/>
<path d="M22.9933 29.8636V29.8869H23.0166H24.3038H24.3271V29.8636V29.5248V29.5016H24.3038H23.4124V29.0598H24.2078H24.2311V29.0365V28.6978V28.6745H24.2078H23.4124V28.2496H24.2869H24.3102V28.2263V27.8876V27.8643H24.2869H23.0166H22.9933V27.8876V29.8636ZM25.4042 29.8362L25.4046 29.8364C25.5252 29.8967 25.6682 29.9264 25.8328 29.9264C25.9974 29.9264 26.1395 29.8967 26.2583 29.8364L26.2585 29.8363C26.379 29.7741 26.4709 29.6862 26.5335 29.5728C26.5978 29.4578 26.6296 29.3229 26.6296 29.1692V27.8876V27.8643H26.6063H26.2337H26.2104V27.8876V29.1805C26.2104 29.2962 26.1771 29.3848 26.1128 29.4491L26.1126 29.4493C26.0505 29.5131 25.9586 29.5467 25.8328 29.5467C25.7072 29.5467 25.6142 29.5132 25.5501 29.4493C25.4876 29.3849 25.4552 29.2963 25.4552 29.1805V27.8876V27.8643H25.432H25.0593H25.0361V27.8876V29.1692C25.0361 29.3228 25.0668 29.4576 25.1292 29.5727L25.1294 29.5731C25.1938 29.6862 25.2856 29.774 25.4042 29.8362ZM27.435 29.8636V29.8869H27.4583H27.8309H27.8541V29.8636V29.1416H28.3503C28.4015 29.1416 28.4316 29.1548 28.4479 29.1752L28.4485 29.1759C28.4686 29.1991 28.4795 29.23 28.4795 29.2708V29.8636V29.8869H28.5027H28.8754H28.8986V29.8636V29.2172C28.8986 29.1341 28.8768 29.0651 28.8309 29.0129C28.7889 28.9633 28.7317 28.9353 28.6615 28.9275V28.9135C28.742 28.8778 28.81 28.8237 28.8656 28.7514C28.926 28.673 28.9551 28.5716 28.9551 28.4493V28.4154C28.9551 28.3043 28.9288 28.2067 28.8752 28.1234C28.8218 28.0403 28.7468 27.9764 28.651 27.9314C28.5551 27.8864 28.4433 27.8643 28.3165 27.8643H27.4583H27.435V27.8876V29.8636ZM28.4694 28.3162L28.4697 28.3165C28.5133 28.3584 28.5359 28.415 28.5359 28.4888V28.5171C28.5359 28.5906 28.5126 28.6483 28.4669 28.6923C28.4234 28.734 28.3613 28.7564 28.2769 28.7564H27.8541V28.2496H28.2769C28.3631 28.2496 28.426 28.2728 28.4694 28.3162Z" fill="#1F2333" stroke="#1F2333" stroke-width="0.2"/>
</g>
<circle cx="26" cy="6" r="6" fill="#0C0C0C"/>
<path d="M22 6.11511V6.09651C22.0084 6.0706 22.0151 6.04371 22.0198 6.01667L22.2419 3.93853C22.2456 3.8959 22.2596 3.85502 22.2826 3.82002C22.5364 3.47396 22.7922 3.12971 23.0499 2.78723C23.0737 2.75787 23.1063 2.73842 23.1422 2.73233C23.4262 2.69598 23.7106 2.66282 23.9955 2.6328C24.1016 2.62305 24.2048 2.58917 24.2979 2.53368C24.4691 2.43064 24.6419 2.33038 24.8146 2.23012C24.9342 2.16076 25.0537 2.0914 25.1727 2.02111C25.1925 2.00734 25.2155 2 25.239 2C25.2605 2 25.2816 2.00615 25.3002 2.01772C25.5946 2.17342 25.8896 2.3277 26.1846 2.48202L26.5771 2.68751C26.5932 2.69603 26.609 2.7053 26.6294 2.71734C26.6438 2.72582 26.6605 2.73568 26.6814 2.74761L26.334 3.10892C26.3427 3.11141 26.3503 3.11378 26.3571 3.11594C26.3697 3.11989 26.38 3.12311 26.3905 3.12492C26.5111 3.14551 26.6318 3.16563 26.7526 3.18574C27.0288 3.23176 27.305 3.27779 27.5802 3.32956C27.6392 3.3406 27.6985 3.35104 27.7577 3.36149C28.1291 3.42695 28.5015 3.4926 28.833 3.70521C28.9889 3.80524 29.142 3.91025 29.2951 4.01525C29.4194 4.10047 29.5436 4.18567 29.6693 4.26818C29.8018 4.35507 29.8519 4.48215 29.843 4.63639C29.8286 4.90189 29.8102 5.16755 29.7829 5.43212C29.7581 5.67118 29.7016 5.90114 29.5571 6.09594C29.5441 6.1136 29.5441 6.14858 29.5482 6.17371C29.6839 6.99444 29.8201 7.81492 29.9567 8.63515C29.9704 8.71815 29.9791 8.80214 29.9878 8.88612C29.9917 8.92411 29.9956 8.9621 30 9H28.9584C28.975 8.97954 28.9912 8.95856 29.0073 8.93761C29.0417 8.89285 29.0761 8.84821 29.1147 8.80893C29.1625 8.76113 29.17 8.72408 29.1403 8.65861C28.8456 8.00978 28.5536 7.35973 28.2644 6.70845C28.2297 6.63178 28.1925 6.61673 28.118 6.62846C27.875 6.6667 27.6315 6.70086 27.388 6.73502C27.3022 6.74706 27.2162 6.75912 27.1304 6.77134L25.6786 6.97822C25.624 6.98584 25.5858 7.00482 25.558 7.0638C25.2533 7.70889 24.9465 8.35393 24.6377 8.9989H23.5792C23.5876 8.96697 23.5988 8.93563 23.6124 8.90583C23.6608 8.81944 23.7101 8.73356 23.7593 8.64774C23.8025 8.57261 23.8456 8.49747 23.8881 8.42209C23.9093 8.38539 23.9264 8.34577 23.9385 8.30452C24.1662 7.47215 24.3925 6.63934 24.6174 5.8061C24.6189 5.79756 24.6197 5.78888 24.6197 5.78015C24.6197 5.74894 24.6097 5.71864 24.5913 5.69445C24.4649 5.55399 24.3343 5.41763 24.2011 5.28516C24.1785 5.26571 24.1504 5.2551 24.1215 5.2551C24.1154 5.2551 24.1093 5.25557 24.1033 5.25648C23.9448 5.29155 23.7867 5.32825 23.6285 5.36496C23.4704 5.40166 23.3122 5.43836 23.1538 5.47343C23.0994 5.48535 23.0843 5.51361 23.0777 5.56515C23.0632 5.68894 23.0483 5.81263 23.0334 5.9363C23.0138 6.09849 22.9942 6.26068 22.9757 6.42303C22.9726 6.45094 22.9757 6.48962 22.9917 6.5086C23.0768 6.61175 23.1649 6.7125 23.2562 6.81699L23.3083 6.87662L23.6839 6.49056L23.8044 7.365L23.6959 7.38718C23.53 7.42114 23.3675 7.45437 23.2048 7.48649L23.2025 7.48652C23.186 7.48652 23.1695 7.4832 23.1541 7.47683C23.1218 7.46842 23.0894 7.46035 23.0571 7.45228C22.9711 7.43087 22.8852 7.40945 22.8012 7.38175C22.7562 7.36625 22.717 7.33545 22.6897 7.2941C22.6089 7.15939 22.531 7.0228 22.453 6.88619C22.4057 6.80337 22.3584 6.72052 22.3105 6.63809C22.2102 6.46585 22.1077 6.29471 22.0052 6.12355L22 6.11511Z" fill="white"/>
<path d="M27.4774 8.91508C27.5137 8.84762 27.5501 8.78019 27.5919 8.71702C27.6346 8.65341 27.6577 8.57687 27.6577 8.49847L27.6574 8.48426C27.6558 8.26128 27.6558 8.03823 27.6559 7.81517C27.6559 7.60467 27.656 7.39391 27.6546 7.1834C27.6546 7.11979 27.672 7.08051 27.7227 7.04776C27.7949 7.00058 27.8653 6.95043 27.9385 6.8982L28.011 6.84666L28.0224 6.86499C28.0366 6.88797 28.0488 6.90778 28.0609 6.92853L28.1597 7.10639C28.2982 7.35565 28.4367 7.60499 28.5724 7.85598C28.5904 7.89133 28.5999 7.93108 28.5999 7.97142C28.5999 7.97894 28.5996 7.98657 28.5989 7.99403C28.5737 8.24468 28.5458 8.49534 28.5178 8.74637L28.4897 8.99962H27.4313C27.4469 8.97165 27.4622 8.94335 27.4774 8.91508Z" fill="white"/>
<path d="M25.4277 8.96846C25.4131 8.97898 25.3985 8.98949 25.3837 8.99947L26.5464 8.99953C26.5461 8.97189 26.544 8.94413 26.5405 8.91672C26.4401 8.37332 26.3393 7.82998 26.2379 7.28673C26.2287 7.23722 26.2179 7.18779 26.2068 7.13706C26.2021 7.11535 26.1973 7.0934 26.1926 7.0711C26.1515 7.08221 26.1114 7.09266 26.0721 7.10292C25.973 7.12875 25.8788 7.1533 25.7863 7.18366C25.7451 7.1994 25.7105 7.23058 25.6889 7.27146C25.5866 7.47959 25.4885 7.68995 25.3947 7.90253C25.3843 7.92923 25.3789 7.95793 25.3789 7.98688C25.3789 8.00517 25.3811 8.02343 25.3853 8.04115C25.4459 8.28947 25.5109 8.53659 25.5804 8.78255C25.5987 8.84749 25.584 8.8765 25.5293 8.90329C25.4936 8.92083 25.4606 8.94465 25.4277 8.96846Z" fill="white"/>
<defs>
<linearGradient id="paint0_linear_1938_14441" x1="8.24102" y1="2.75498" x2="4.63276" y2="27.1097" gradientUnits="userSpaceOnUse">
<stop stop-color="#87DCC9"/>
<stop offset="1" stop-color="#FDCEAA"/>
</linearGradient>
<linearGradient id="paint1_linear_1938_14441" x1="23.0904" y1="21.0336" x2="21.7373" y2="30.1666" gradientUnits="userSpaceOnUse">
<stop stop-color="#87DCC9"/>
<stop offset="1" stop-color="#FDCEAA"/>
</linearGradient>
<clipPath id="clip0_1938_14441">
<rect width="32" height="32" fill="white"/>
</clipPath>
<clipPath id="clip1_1938_14441">
<rect width="12" height="12" fill="white" transform="translate(20 20)"/>
</clipPath>
</defs>
</svg>
