<svg width="32" height="32" viewBox="0 0 32 32" fill="none" xmlns="http://www.w3.org/2000/svg">
<path fill-rule="evenodd" clip-rule="evenodd" d="M32 16C32 13.9059 31.5834 11.8118 30.7821 9.87712C29.9805 7.9424 28.7942 6.16704 27.3136 4.6864C25.833 3.20544 24.0576 2.01952 22.1229 1.21792C20.1882 0.41664 18.0941 0 16 0C13.9059 0 11.8115 0.41664 9.8768 1.21792C7.94208 2.01952 6.16704 3.20544 4.68608 4.6864C3.20544 6.16704 2.0192 7.9424 1.21792 9.87712C0.41632 11.8118 0 13.9059 0 16C0 18.0941 0.41632 20.1882 1.21792 22.1229C2.0192 24.0576 3.20544 25.833 4.68608 27.3139C6.16704 28.7946 7.94208 29.9808 9.8768 30.7821C11.8115 31.5834 13.9059 32 16 32C18.0941 32 20.1882 31.5834 22.1229 30.7821C24.0576 29.9808 25.833 28.7946 27.3136 27.3139C28.7942 25.833 29.9805 24.0576 30.7821 22.1229C31.5834 20.1882 32 18.0941 32 16Z" fill="white"/>
<path fill-rule="evenodd" clip-rule="evenodd" d="M11.8547 3.38381C13.3453 2.89389 14.9382 2.66989 16.5161 2.73037C18.0944 2.79085 19.6579 3.13613 21.1129 3.74413C22.5683 4.35213 23.9152 5.22317 25.0675 6.29773C26.5917 7.71949 27.775 9.49773 28.4848 11.4868C29.1949 13.4763 29.4314 15.6766 29.1574 17.7713C28.8838 19.866 28.0998 21.8555 26.9139 23.5662C25.728 25.2769 24.1398 26.7086 22.2745 27.7006C20.4093 28.6923 18.2662 29.244 16.1539 29.276C14.0416 29.308 11.9597 28.8206 10.095 27.8952C8.23071 26.9697 6.58335 25.6065 5.33247 23.9038C4.08159 22.2011 3.22719 20.1588 2.88799 18.075C2.54879 15.9908 2.72479 13.8648 3.37471 11.8814C3.86591 10.3819 4.62815 8.96429 5.60479 7.73581H4.12031V5.28205H9.93695V10.7137H7.48319V9.22957C6.68319 10.2356 6.05855 11.3969 5.65631 12.6257C5.12415 14.2513 4.98079 15.9953 5.25631 17.6971C5.59871 19.8139 6.58879 21.8651 8.06655 23.4459C9.83423 25.3364 12.2995 26.5544 14.8659 26.8209C17.432 27.0875 20.0992 26.403 22.2173 24.9288C24.3353 23.4545 25.905 21.1905 26.5421 18.69C27.1792 16.1896 26.8838 13.4526 25.735 11.1422C24.5862 8.83181 22.5837 6.94861 20.1891 5.95917C17.7945 4.96941 15.0077 4.87405 12.6038 5.66381L11.8547 3.38381Z" fill="url(#paint0_linear_525_7186)"/>
<path fill-rule="evenodd" clip-rule="evenodd" d="M14.1041 22.9535C14.1041 23.2028 13.9307 23.2858 13.6791 23.2858C10.5297 22.2778 8.32001 19.4144 8.32001 16.0469C8.32001 12.6793 10.5297 9.8159 13.6791 8.80788C13.9315 8.72706 14.1041 8.89092 14.1041 9.14591C14.1041 9.34149 14.1041 9.53728 14.1041 9.73286C14.1041 9.9046 14.0147 10.0707 13.8468 10.1537C11.3798 11.0787 9.67931 13.3552 9.67931 16.0469C9.67931 18.7442 11.4639 21.0981 13.8468 21.94C14.0147 22.023 14.1041 22.1948 14.1041 22.3609C14.1041 22.5585 14.1041 22.7561 14.1041 22.9535Z" fill="black"/>
<path fill-rule="evenodd" clip-rule="evenodd" d="M16.655 20.8489C16.655 21.015 16.4815 21.1811 16.3138 21.1811C16.0862 21.1811 15.8589 21.1811 15.6314 21.1811C15.4636 21.1811 15.2902 21.015 15.2902 20.8489C15.2902 20.5111 15.2902 20.173 15.2902 19.8352C13.9307 19.6691 13.254 18.9102 12.9966 17.8137C12.9966 17.6474 13.0805 17.4813 13.254 17.4813C13.5074 17.4813 13.7611 17.4813 14.0147 17.4813C14.1882 17.4813 14.2721 17.5644 14.3559 17.7305C14.5294 18.3233 14.8649 18.8272 15.9726 18.8272C16.8229 18.8272 17.4157 18.4063 17.4157 17.7305C17.4157 17.0605 17.0803 16.8057 15.8887 16.6394C14.1033 16.3905 13.254 15.8807 13.254 14.4462C13.254 13.3551 14.1041 12.5132 15.2902 12.3414C15.2902 12.0054 15.2902 11.6694 15.2902 11.3334C15.2902 11.1673 15.4636 10.9956 15.6314 10.9956C15.8589 10.9956 16.0862 10.9956 16.3138 10.9956C16.4815 10.9956 16.655 11.1673 16.655 11.3334C16.655 11.6694 16.655 12.0054 16.655 12.3414C17.6731 12.5132 18.3557 13.1003 18.5234 14.0253C18.5234 14.1971 18.4396 14.3631 18.2661 14.3631C18.0404 14.3631 17.8149 14.3631 17.5892 14.3631C17.4157 14.3631 17.3319 14.2801 17.248 14.1138C17.0803 13.5212 16.655 13.2721 15.8887 13.2721C15.0383 13.2721 14.6133 13.6929 14.6133 14.2801C14.6133 14.867 14.8649 15.2049 16.1403 15.3766C17.9316 15.6179 18.7808 16.1298 18.7808 17.5644C18.7808 18.6555 17.9304 19.5861 16.655 19.8352V20.8489Z" fill="black"/>
<path fill-rule="evenodd" clip-rule="evenodd" d="M18.2661 23.2861C18.0145 23.3748 17.841 23.203 17.841 22.9537C17.841 22.7563 17.841 22.5587 17.841 22.3611C17.841 22.195 17.9304 22.0233 18.0984 21.9402C20.5653 21.0152 22.2659 18.7444 22.2659 16.0471C22.2659 13.3554 20.4813 10.9959 18.0984 10.1539C17.9304 10.0709 17.841 9.90482 17.841 9.73308C17.841 9.5375 17.841 9.34171 17.841 9.14613C17.841 8.89115 18.0145 8.80811 18.2661 8.80811C21.3316 9.81612 23.6252 12.6795 23.6252 16.0471C23.6252 19.4146 21.4155 22.278 18.2661 23.2861Z" fill="black"/>
<defs>
<linearGradient id="paint0_linear_525_7186" x1="2.04341" y1="13.2972" x2="15.2222" y2="29.5766" gradientUnits="userSpaceOnUse">
<stop stop-color="#004CFF"/>
<stop offset="0.252131" stop-color="#00E0FB"/>
<stop offset="0.505709" stop-color="#87FF70"/>
<stop offset="0.755054" stop-color="#F8F500"/>
<stop offset="1" stop-color="#FF1A00"/>
</linearGradient>
</defs>
</svg>
