<svg xmlns="http://www.w3.org/2000/svg" width="100" height="100" viewBox="0 0 100 100">
  <g fill="none" fill-rule="evenodd">
    <path fill="#FFF" d="M100,49.9998 C100,43.4558 98.698,36.9118 96.194,30.8658 C93.689,24.8198 89.982,19.2718 85.355,14.6448 C80.728,10.0168 75.18,6.3108 69.134,3.8058 C63.088,1.3018 56.544,-0.0002 50,-0.0002 C43.456,-0.0002 36.911,1.3018 30.865,3.8058 C24.819,6.3108 19.272,10.0168 14.644,14.6448 C10.017,19.2718 6.31,24.8198 3.806,30.8658 C1.301,36.9118 0,43.4558 0,49.9998 C0,56.5438 1.301,63.0878 3.806,69.1338 C6.31,75.1798 10.017,80.7278 14.644,85.3558 C19.272,89.9828 24.819,93.6898 30.865,96.1938 C36.911,98.6978 43.456,99.9998 50,99.9998 C56.544,99.9998 63.088,98.6978 69.134,96.1938 C75.18,93.6898 80.728,89.9828 85.355,85.3558 C89.982,80.7278 93.689,75.1798 96.194,69.1338 C98.698,63.0878 100,56.5438 100,49.9998 Z"/>
    <path fill="#0657F9" d="M37.046,10.5738 C41.704,9.0428 46.682,8.3428 51.613,8.5318 C56.545,8.7208 61.431,9.7998 65.978,11.6998 C70.526,13.5998 74.735,16.3218 78.336,19.6798 C83.099,24.1228 86.797,29.6798 89.015,35.8958 C91.234,42.1128 91.973,48.9888 91.117,55.5348 C90.262,62.0808 87.812,68.2978 84.106,73.6438 C80.4,78.9898 75.437,83.4638 69.608,86.5638 C63.779,89.6628 57.082,91.3868 50.481,91.4868 C43.88,91.5868 37.374,90.0638 31.547,87.1718 C25.721,84.2798 20.573,80.0198 16.664,74.6988 C12.755,69.3778 10.085,62.9958 9.025,56.4838 C7.965,49.9708 8.515,43.3268 10.546,37.1288 C12.081,32.4428 14.463,28.0128 17.515,24.1738 L12.876,24.1738 L12.876,16.5058 L31.053,16.5058 L31.053,33.4798 L23.385,33.4798 L23.385,28.8418 C20.885,31.9858 18.933,35.6148 17.676,39.4548 C16.013,44.5348 15.565,49.9848 16.426,55.3028 C17.496,61.9178 20.59,68.3278 25.208,73.2678 C30.732,79.1758 38.436,82.9818 46.456,83.8148 C54.475,84.6478 62.81,82.5088 69.429,77.9018 C76.048,73.2948 80.953,66.2198 82.944,58.4058 C84.935,50.5918 84.012,42.0388 80.422,34.8188 C76.832,27.5988 70.574,21.7138 63.091,18.6218 C55.608,15.5288 46.899,15.2308 39.387,17.6988 L37.046,10.5738 Z"/>
    <path fill="#000" d="M65.0961299,34.561337 L65.0961299,41.8598701 L54.0083817,41.8598701 L54.0083817,45.9737878 L54.0422792,45.9750758 C58.578028,46.1818021 62.5525122,46.7259882 65.4429276,47.5020168 C66.8887872,47.8897091 68.0628147,48.33021 68.929809,48.8550758 C69.3633061,49.1171867 69.7237932,49.4005499 69.9969289,49.7386537 C70.2700647,50.0774014 70.4545455,50.491498 70.4545455,50.9339309 C70.4545455,51.3763638 70.2700647,51.7904604 69.9969289,52.1292082 C69.7237932,52.467312 69.3633061,52.7506751 68.929809,53.012786 C68.0628147,53.5376519 66.8887872,53.9781528 65.4435795,54.3658451 C62.5525122,55.1418737 58.578028,55.6860597 54.0422792,55.892786 L54.0422792,55.892786 L54.0109892,55.894074 L54.0109892,70.561337 L45.9890108,70.561337 L45.9890108,55.894074 L45.9577208,55.892786 C41.421972,55.6860597 37.4474878,55.1418737 34.5564205,54.3658451 C33.1112128,53.9781528 31.9371853,53.5376519 31.070191,53.012786 C30.6366939,52.7506751 30.2762068,52.467312 30.0030711,52.1292082 C29.7299353,51.7904604 29.5454545,51.3763638 29.5454545,50.9339309 C29.5454545,50.491498 29.7299353,50.0774014 30.0030711,49.7386537 C30.2762068,49.4005499 30.6366939,49.1171867 31.070191,48.8550758 C31.9371853,48.33021 33.1112128,47.8897091 34.5570724,47.5020168 C37.4474878,46.7259882 41.421972,46.1818021 45.9577208,45.9750758 L45.9577208,45.9750758 L45.9916183,45.9737878 L45.9916183,41.8598701 L34.9038701,41.8598701 L34.9038701,34.561337 L65.0961299,34.561337 Z M54.0122929,47.5850937 L54.0122929,51.6932154 L53.933416,51.7002994 C53.8310716,51.7093155 53.467977,51.7402279 52.8134941,51.7679202 C52.4862527,51.7814443 52.0860012,51.7949685 51.6101322,51.8046286 C51.3721977,51.8091367 51.1153588,51.8130007 50.8383117,51.8155767 C50.7001142,51.8168647 50.5573534,51.8181528 50.4087259,51.8187968 L50.4087259,51.8187968 L49.5912741,51.8187968 C49.4426466,51.8181528 49.2998858,51.8168647 49.1616883,51.8155767 C48.8846412,51.8130007 48.6278023,51.8091367 48.3898678,51.8046286 C47.9139988,51.7949685 47.5137473,51.7814443 47.1865059,51.7679202 C46.532023,51.7402279 46.1689284,51.7093155 46.066584,51.7002994 L46.066584,51.7002994 L45.9877071,51.6932154 L45.9877071,47.5850937 C42.0399498,47.7596197 38.5941366,48.1891724 36.160034,48.7694229 C34.9416789,49.0605141 33.9749477,49.3921778 33.3452361,49.7289935 C33.0303803,49.8970794 32.801572,50.0677413 32.6672857,50.2145749 C32.5329994,50.3620526 32.4958425,50.4683138 32.4958425,50.5591188 C32.4958425,50.6499238 32.5329994,50.756185 32.6672857,50.9036626 C32.801572,51.0504962 33.0303803,51.2211581 33.345888,51.389244 C33.9755996,51.7260597 34.9423308,52.0577234 36.1613377,52.3488147 C38.5986997,52.9303531 42.0510317,53.3605499 46.0046558,53.5344318 L46.0046558,53.5344318 L50,53.6226608 L53.9953442,53.5344318 C57.9489683,53.3605499 61.4013003,52.9303531 63.8386623,52.3488147 C65.0576692,52.0577234 66.0244004,51.7260597 66.654112,51.389244 C66.9696197,51.2211581 67.198428,51.0504962 67.3327143,50.9036626 C67.4670006,50.756185 67.5041575,50.6499238 67.5041575,50.5591188 C67.5041575,50.4683138 67.4670006,50.3620526 67.3327143,50.2145749 C67.198428,50.0677413 66.9696197,49.8970794 66.6547639,49.7289935 C66.0250523,49.3921778 65.0583211,49.0605141 63.839966,48.7694229 C61.4058634,48.1891724 57.9600502,47.7596197 54.0122929,47.5850937 L54.0122929,47.5850937 Z"/>
  </g>
</svg>
