<svg width="272" height="272" viewBox="0 0 272 272" fill="none" xmlns="http://www.w3.org/2000/svg">
<circle cx="136" cy="136" r="136" fill="white"/>
<mask id="mask0_1719_988" style="mask-type:luminance" maskUnits="userSpaceOnUse" x="52" y="96" width="168" height="81">
<path d="M219.849 96H52V176.803H219.849V96Z" fill="white"/>
</mask>
<g mask="url(#mask0_1719_988)">
<path d="M219.784 110.013C202.247 98.8698 181.393 94.1498 160.77 96.6562C158.082 96.9819 155.436 97.4181 152.835 97.9648C135.539 101.605 119.698 110.264 107.29 122.861C106.791 123.415 106.277 123.949 105.747 124.465C103.192 126.973 100.317 129.131 97.1957 130.884C92.5653 133.486 87.4678 135.149 82.1946 135.779C71.5538 137.056 60.842 134.052 52.4133 127.428C52.2744 127.321 52.1461 127.211 52 127.097C52.0499 127.197 52.0962 127.293 52.1461 127.389C57.1702 137.273 63.9724 145.749 72.2069 153.169C75.9865 156.574 80.045 159.655 84.3396 162.379C95.7692 169.645 108.689 174.236 122.138 175.811C129.207 176.632 136.352 177.013 143.417 176.168C144.558 176.033 145.687 175.477 146.81 175.694C159.413 173.708 171.453 168.662 182.128 161.67C192.805 154.676 201.875 145.493 208.738 134.727C213.699 126.983 217.443 118.924 219.849 110.045L219.784 110.013Z" fill="url(#paint0_linear_1719_988)"/>
<path d="M219.784 110.013C202.247 98.8698 181.393 94.1498 160.77 96.6562C158.082 96.9819 155.436 97.4181 152.835 97.9648C135.539 101.605 119.698 110.264 107.29 122.861C106.791 123.415 106.277 123.949 105.747 124.465C103.192 126.973 100.317 129.131 97.1957 130.884C92.5653 133.486 87.4678 135.149 82.1946 135.779C71.5538 137.056 60.842 134.052 52.4133 127.428C52.2744 127.321 52.1461 127.211 52 127.097C52.0499 127.197 52.0962 127.293 52.1461 127.389C57.1702 137.273 63.9724 145.749 72.2069 153.169C75.9865 156.574 80.045 159.655 84.3396 162.379C95.7692 169.645 108.689 174.236 122.138 175.811C129.207 176.632 136.352 177.013 143.417 176.168C144.558 176.033 145.687 175.477 146.81 175.694C159.413 173.708 171.453 168.662 182.128 161.67C192.805 154.676 201.875 145.493 208.738 134.727C213.699 126.983 217.443 118.924 219.849 110.045L219.784 110.013Z" fill="url(#paint1_linear_1719_988)"/>
<path d="M154.52 154.564C154.947 153.908 155.392 153.263 155.852 152.628C155.445 153.296 155 153.939 154.52 154.557V154.564Z" fill="url(#paint2_linear_1719_988)"/>
<path d="M190.956 133.175C190.842 133.175 190.728 133.203 190.618 133.214C190.439 133.235 190.262 133.253 190.066 133.267C189.869 133.282 189.709 133.299 189.513 133.314L188.879 133.353C189.727 133.253 190.575 133.175 191.423 133.118L190.956 133.175Z" fill="url(#paint3_linear_1719_988)"/>
<path d="M208.658 135.098C201.794 145.864 192.724 155.047 182.048 162.041C171.37 169.034 159.299 173.729 146.693 175.719C145.575 175.897 144.481 176.041 143.341 176.176C136.274 177.01 129.131 176.985 122.057 176.19C108.609 174.616 95.6885 170.025 84.2588 162.761C79.9701 160.033 75.9176 156.95 72.1438 153.543C63.8584 146.044 57.0325 137.074 52.0117 127.086C54.3866 130.698 57.3048 133.922 60.6632 136.642C68.7316 142.988 78.9095 146.025 89.1332 145.139C89.5715 145.1 90.0133 145.054 90.4516 145L91.1642 144.947C95.492 144.693 99.8221 145.404 103.842 147.029C107.861 148.654 111.47 151.151 114.407 154.342C115.023 155.191 115.692 155.999 116.409 156.763C119.067 159.645 122.375 161.847 126.058 163.187C129.739 164.527 133.689 164.965 137.575 164.466C144.292 163.564 150.349 159.83 154.411 154.524C154.881 153.915 155.327 153.287 155.747 152.635C156.049 152.214 156.361 151.799 156.685 151.39C160.589 146.416 165.435 142.261 170.945 139.162C176.454 136.063 182.52 134.081 188.796 133.33H188.821C189.641 133.283 190.464 133.208 191.29 133.094H191.344C204.193 131.369 215.47 122.155 219.86 110.038C219.871 110.049 216.233 124.822 208.658 135.098Z" fill="url(#paint4_linear_1719_988)"/>
</g>
<defs>
<linearGradient id="paint0_linear_1719_988" x1="130.547" y1="181.445" x2="135.607" y2="122.373" gradientUnits="userSpaceOnUse">
<stop stop-color="#0038FF"/>
<stop offset="1" stop-color="#001259"/>
</linearGradient>
<linearGradient id="paint1_linear_1719_988" x1="115.413" y1="96" x2="120.093" y2="150.645" gradientUnits="userSpaceOnUse">
<stop stop-color="#0038FF"/>
<stop offset="1" stop-color="#001259"/>
</linearGradient>
<linearGradient id="paint2_linear_1719_988" x1="540.45" y1="473.493" x2="541.399" y2="465.77" gradientUnits="userSpaceOnUse">
<stop stop-color="#0038FF"/>
<stop offset="1" stop-color="#001259"/>
</linearGradient>
<linearGradient id="paint3_linear_1719_988" x1="1176.13" y1="110.843" x2="1176.13" y2="110.864" gradientUnits="userSpaceOnUse">
<stop stop-color="#0038FF"/>
<stop offset="1" stop-color="#001259"/>
</linearGradient>
<linearGradient id="paint4_linear_1719_988" x1="139.417" y1="134.727" x2="149.001" y2="179.157" gradientUnits="userSpaceOnUse">
<stop stop-color="#00B9FF"/>
<stop offset="1" stop-color="#3E1FFF"/>
</linearGradient>
</defs>
</svg>
