<svg width="81" height="40" viewBox="0 0 81 40" fill="none" xmlns="http://www.w3.org/2000/svg">
<path d="M80.0941 6.6895C71.7222 1.36998 61.7675 -0.883222 51.923 0.313275C50.6395 0.468744 49.3767 0.676949 48.1349 0.937949C39.8785 2.67579 32.3166 6.80937 26.3935 12.8223C26.1554 13.0867 25.9099 13.3421 25.657 13.5882C24.4374 14.7854 23.0647 15.8157 21.5748 16.6521C19.3644 17.8944 16.931 18.6885 14.4138 18.9892C9.33428 19.5985 4.22084 18.1646 0.197309 15.0027C0.162375 14.9759 0.128868 14.9485 0.0948083 14.9207C0.0700137 14.9004 0.0448985 14.88 0.0187344 14.8592C1.15002 16.5754 2.53853 18.1073 4.1355 19.401C7.98703 22.4302 12.8456 23.8802 17.726 23.4571C17.9352 23.4384 18.1462 23.4163 18.3554 23.3907L18.6956 23.3652C20.7615 23.244 22.8285 23.5835 24.7473 24.3591C26.6661 25.1348 28.3888 26.3271 29.7909 27.8503C30.085 28.2555 30.4042 28.6413 30.7467 29.0061C32.0154 30.3816 33.5945 31.4329 35.3523 32.0726C37.1099 32.7122 38.9954 32.9214 40.8502 32.6829C44.0567 32.2523 46.9482 30.4699 48.8874 27.9372C49.1118 27.6462 49.3246 27.3466 49.5251 27.0352C49.6693 26.8342 49.8182 26.6363 49.9725 26.441C51.8362 24.0667 54.1495 22.0834 56.7798 20.6039C59.41 19.1246 62.3055 18.1785 65.3014 17.8197H65.3133C65.5792 17.8047 65.8458 17.7834 66.1132 17.7542C66.2393 17.7404 66.3656 17.7249 66.4921 17.7074H66.5177C72.634 16.8858 78.0044 12.5096 80.1125 6.74964L80.1247 6.70483L80.0941 6.6895Z" fill="black"/>
<path d="M0 14.8445L0.0136065 14.8551C0.393219 15.6095 0.79445 16.3518 1.21657 17.0809C0.815224 16.397 0.432785 15.6982 0.0697514 14.984C0.054018 14.9537 0.0390422 14.9233 0.0238332 14.8925L0 14.8445Z" fill="black"/>
<path d="M62.0799 32.9575C67.1764 29.6188 71.5063 25.235 74.7826 20.0961C78.3987 15.1905 80.1352 8.13849 80.1301 8.13336C78.0344 13.9173 72.6511 18.3156 66.5177 19.1395H66.4921C66.0975 19.1939 65.7046 19.2297 65.3133 19.2518H65.3014C62.3055 19.6106 59.41 20.5567 56.7798 22.036C54.1495 23.5154 51.8362 25.4988 49.9725 27.8731C49.8894 27.9783 49.8078 28.0843 49.7277 28.1911C49.6591 28.2825 49.5916 28.3746 49.5251 28.4673C49.3246 28.7787 49.1118 29.0783 48.8874 29.3693C46.9482 31.902 44.0567 33.6844 40.8502 34.115C38.9954 34.3535 37.1099 34.1443 35.3523 33.5046C33.5945 32.865 32.0154 31.8137 30.7467 30.4381C30.4042 30.0734 30.085 29.6875 29.7909 29.2824C28.3888 27.7592 26.6661 26.5669 24.7473 25.7912C22.8285 25.0156 20.7615 24.676 18.6956 24.7973L18.3554 24.8228C18.1462 24.8484 17.9352 24.8705 17.726 24.8892C12.8456 25.3123 7.98705 23.8623 4.13548 20.8331C2.53232 19.5344 1.13926 17.9956 0.0055941 16.2713C2.40235 21.0389 5.66075 25.3211 9.61591 28.9011C11.4174 30.527 13.3519 31.9988 15.3991 33.3013C20.8553 36.769 27.0229 38.9602 33.4427 39.7116C36.8196 40.0912 40.2295 40.1032 43.6028 39.7051C44.1469 39.6404 44.6692 39.572 45.2032 39.4868C51.2205 38.5368 56.9829 36.2957 62.0799 32.9575Z" fill="black"/>
</svg>
