<svg width="79" height="40" viewBox="0 0 79 40" fill="none" xmlns="http://www.w3.org/2000/svg">
<path d="M58.6873 40H63.205C64.7466 38.5568 65.7315 36.3597 65.9884 35.1104C63.205 33.9041 61.9632 33.021 60.4216 31.5132L60.2289 31.7071C60.7213 32.6117 60.7641 33.4518 60.7641 34.098C60.8284 35.9074 60.3788 37.1998 58.6873 40ZM32.5446 40H36.1202C36.1202 34.5073 34.9854 32.0517 32.6945 29.8546L32.4375 30.0054C33.3796 32.0517 33.3796 33.9472 33.3796 35.3473C33.3796 37.049 33.0584 38.2553 32.5232 40H32.5446ZM38.3041 40H43.3143C43.5712 37.2213 43.3143 34.4211 42.5649 31.7501C41.9226 29.51 40.7235 26.602 38.4968 24.3619L38.6467 24.2111C41.5372 26.4513 42.6291 28.4545 43.7211 30.35C46.4617 30.35 49.138 32.0517 52.157 32.0517C54.1054 32.0517 56.1394 31.7501 59.4153 30.1992C58.4732 28.5407 57.8309 27.0544 57.681 24.2973H57.8737C59.8649 32.4394 68.5149 33.7964 71.8764 34.3996C74.8739 34.895 75.9017 37.1567 75.9017 39.3538C75.9017 39.5692 75.9017 39.7846 75.8588 40H78.6851C78.7921 39.2676 78.835 38.5353 78.835 37.8029C78.835 36.2089 78.7279 34.5934 77.9999 33.2579C75.3236 28.713 73.0754 27.0113 73.0754 23.5218C73.0754 20.0323 75.709 17.5337 75.8588 17.3829C74.3172 17.1244 73.782 15.6381 72.7328 14.0442C70.4419 10.49 66.6307 9.95154 64.6395 9.95154C62.6483 9.95154 61.5564 10.21 59.6294 10.21C50.7438 10.1454 46.269 0 35.435 0C27.877 0 23.0595 5.98815 23.1666 11.4378L23.0167 11.4809C22.1175 10.49 20.5759 9.13301 18.7988 8.52989C18.7988 8.78837 18.8416 9.06839 18.8416 9.36995C18.8416 14.1734 16.8504 19.3646 11.9901 19.3646C10.1059 19.3646 8.37167 18.5245 6.76585 16.909C6.44468 17.469 6.29481 18.1152 6.31622 18.7614C6.33763 19.4723 6.4875 20.1831 6.76585 20.8508L6.65879 21.0016C3.76832 20.8508 1.94839 20.0108 0.192698 18.6537C-6.38095e-08 19.9031 0 20.4416 0 21.9494C0 28.3468 5.71671 34.4857 13.2748 34.4857C20.8328 34.4857 26.4853 28.3899 26.4853 21.3463H26.7422C27.042 22.7033 27.2775 24.1465 27.042 25.8051C36.0774 29.4453 38.3041 34.8088 38.3041 39.9569V40Z" fill="black"/>
</svg>
