<svg width="80" height="80" viewBox="0 0 80 80" fill="none" xmlns="http://www.w3.org/2000/svg">
<path d="M40 0C17.9094 0 0 17.9094 0 40C0 62.0906 17.9094 80 40 80C62.0906 80 80 62.0906 80 40C79.9303 17.9094 62.0209 0 40 0Z" fill="#34344E"/>
<path d="M48.4137 35.0863L54.0075 46.9929C54.0343 47.0545 54.042 47.1228 54.0298 47.1889C54.0176 47.255 53.986 47.3159 53.939 47.364L39.2238 61.5823C39.2003 61.6045 39.1707 61.6193 39.1388 61.6247C39.1068 61.6301 39.074 61.6258 39.0445 61.6125C39.0149 61.5992 38.99 61.5774 38.9729 61.5499C38.9558 61.5224 38.9472 61.4904 38.9483 61.4581V48.396L48.2209 39.4449C48.253 39.4152 48.2783 39.3788 48.2949 39.3384C48.3116 39.298 48.3192 39.2544 48.3173 39.2107L48.3444 35.0863C48.3444 35.0585 48.4031 35.0585 48.4137 35.0863Z" fill="#6000FF"/>
<path fill-rule="evenodd" clip-rule="evenodd" d="M38.9483 48.3936V61.4564C38.9474 61.4887 38.9559 61.5205 38.9731 61.5479C38.9903 61.5753 39.0153 61.5972 39.0448 61.6104C39.0743 61.6236 39.107 61.6276 39.1389 61.6222C39.1708 61.6167 39.2003 61.6021 39.2238 61.5799L53.9383 47.3625C53.9855 47.3148 54.0174 47.254 54.0298 47.188C54.0421 47.1219 54.0342 47.0536 54.0074 46.992L48.2622 39.3982L38.9483 48.3936Z" fill="url(#paint0_linear_1767_772)"/>
<path fill-rule="evenodd" clip-rule="evenodd" d="M48.3767 35.0508C48.3724 35.0506 48.3683 35.0515 48.3642 35.053C48.3602 35.0546 48.3563 35.057 48.3532 35.06C48.3501 35.063 48.3479 35.0666 48.3462 35.0707C48.3446 35.0747 48.3436 35.0788 48.3437 35.0832L48.3205 39.2076C48.3219 39.2754 48.3031 39.3425 48.2668 39.3998L54.0346 47.1841C54.046 47.1138 54.0362 47.0419 54.0067 46.9771L48.4131 35.0707C48.4097 35.065 48.4046 35.06 48.3988 35.0567C48.393 35.0534 48.3867 35.0516 48.3801 35.0515L48.3767 35.0508Z" fill="url(#paint1_linear_1767_772)"/>
<path fill-rule="evenodd" clip-rule="evenodd" d="M54.0323 47.1795C54.0438 47.1095 54.0343 47.0378 54.0047 46.9733L53.7154 46.3543L48.5078 39.7246L54.0323 47.1795Z" fill="url(#paint2_linear_1767_772)"/>
<path d="M35.1872 25.0894L32.5525 32.5418C32.5228 32.6273 32.5277 32.721 32.5661 32.803L35.0194 37.629L28.2678 41.4515C28.2275 41.4725 28.1806 41.4771 28.1369 41.4644C28.0933 41.4516 28.0563 41.4225 28.0337 41.383L26.5733 38.3441C26.5469 38.2942 26.5355 38.2378 26.5404 38.1815C26.5454 38.1253 26.5665 38.0717 26.6011 38.0272L35.1157 25.0472C35.1222 25.0397 35.131 25.0347 35.1408 25.033C35.1506 25.0314 35.1606 25.0333 35.1691 25.0383C35.1777 25.0433 35.1842 25.0512 35.1875 25.0605C35.1908 25.0699 35.1907 25.0801 35.1872 25.0894Z" fill="#6000FF"/>
<path fill-rule="evenodd" clip-rule="evenodd" d="M35.1463 25.037C35.1414 25.0368 35.1365 25.0377 35.132 25.0395C35.1275 25.0413 35.1235 25.0441 35.12 25.0476L26.969 37.4727L26.96 37.4893L32.5576 32.5415L32.5749 32.4915V32.4871L35.1877 25.0895C35.1896 25.0832 35.1902 25.0765 35.189 25.07C35.1878 25.0635 35.1849 25.0576 35.1809 25.0524C35.1768 25.0472 35.1716 25.043 35.1656 25.0403C35.1596 25.0376 35.1529 25.0365 35.1463 25.037Z" fill="url(#paint3_linear_1767_772)"/>
<path fill-rule="evenodd" clip-rule="evenodd" d="M26.6034 38.0295C26.569 38.0738 26.5481 38.1271 26.5433 38.1831C26.5385 38.2391 26.55 38.2952 26.5764 38.3448L28.036 41.3846C28.0589 41.4239 28.0961 41.4528 28.1398 41.4654C28.1836 41.4781 28.2305 41.4733 28.2708 41.4522L35.0217 37.6303L32.5691 32.8042C32.5498 32.7636 32.5386 32.7198 32.5362 32.6748C32.5339 32.6299 32.5405 32.5849 32.5555 32.5425L26.6034 38.0295Z" fill="url(#paint4_linear_1767_772)"/>
<path fill-rule="evenodd" clip-rule="evenodd" d="M38.9496 19.0669V30.6595C38.9479 30.7294 38.9238 30.7971 38.8811 30.8524L25.7234 48.6862C25.676 48.7495 25.654 48.8281 25.6616 48.9068C25.6693 48.9855 25.7062 49.0585 25.7649 49.1115L34.9954 58.022C35.0139 58.0412 35.0371 58.0553 35.0626 58.0631C35.0882 58.071 35.1153 58.0723 35.1415 58.0668C35.1676 58.0613 35.192 58.0493 35.2122 58.0319C35.2325 58.0144 35.248 57.9919 35.2572 57.9668L45.2871 34.4957C45.3151 34.4155 45.3151 34.3282 45.2871 34.248L39.0738 19.0419C39.07 19.0301 39.0625 19.0202 39.0525 19.0129C39.0425 19.0056 39.0305 19.0015 39.0182 19.0015C39.0004 19.0013 38.9834 19.008 38.9706 19.0202C38.9577 19.0325 38.9502 19.0492 38.9496 19.0669Z" fill="url(#paint5_linear_1767_772)"/>
<path fill-rule="evenodd" clip-rule="evenodd" d="M39.0156 19C38.9975 19 38.9802 19.0072 38.9674 19.0198C38.9546 19.0325 38.9474 19.0496 38.9472 19.0676L38.9516 30.6602C38.9507 30.6928 38.9449 30.7249 38.9343 30.7558L45.2072 34.0591L39.0712 19.0419C39.0675 19.03 39.0603 19.0197 39.0503 19.0121C39.0403 19.0046 39.0281 19.0004 39.0156 19Z" fill="url(#paint6_linear_1767_772)"/>
<path fill-rule="evenodd" clip-rule="evenodd" d="M45.3073 34.3755C45.3074 34.3346 45.3009 34.2938 45.2878 34.2549L45.2079 34.0594L38.9307 30.7561L40.135 31.4434L45.3073 34.3755Z" fill="url(#paint7_linear_1767_772)"/>
<path d="M26.9561 37.4935L26.6099 38.0204L32.5567 32.541L26.9561 37.4935Z" fill="#B46CF3"/>
<defs>
<linearGradient id="paint0_linear_1767_772" x1="47.3066" y1="52.2895" x2="39.2829" y2="50.4342" gradientUnits="userSpaceOnUse">
<stop stop-color="#6000FF"/>
<stop offset="0.651" stop-color="#4900C3"/>
<stop offset="1" stop-color="#320086"/>
</linearGradient>
<linearGradient id="paint1_linear_1767_772" x1="48.6132" y1="33.9952" x2="54.4833" y2="38.8463" gradientUnits="userSpaceOnUse">
<stop stop-color="#6A0AFF"/>
<stop offset="0.047" stop-color="#892AFF"/>
<stop offset="0.102" stop-color="#6A0AFF"/>
<stop offset="0.902" stop-color="#A94AFF"/>
<stop offset="1" stop-color="#A94AFF"/>
</linearGradient>
<linearGradient id="paint2_linear_1767_772" x1="48.7069" y1="39.747" x2="55.5233" y2="44.9038" gradientUnits="userSpaceOnUse">
<stop stop-color="#9335FE"/>
<stop offset="0.031" stop-color="#A954FE"/>
<stop offset="1" stop-color="#BF73FF"/>
</linearGradient>
<linearGradient id="paint3_linear_1767_772" x1="35.7739" y1="25.8089" x2="24.5438" y2="33.3144" gradientUnits="userSpaceOnUse">
<stop stop-color="#6A0AFF"/>
<stop offset="0.51" stop-color="#8C2DFF"/>
<stop offset="0.969" stop-color="#AF50FF"/>
<stop offset="1" stop-color="#AF50FF"/>
</linearGradient>
<linearGradient id="paint4_linear_1767_772" x1="30.341" y1="35.1947" x2="31.1846" y2="39.6712" gradientUnits="userSpaceOnUse">
<stop stop-color="#6000FF"/>
<stop offset="1" stop-color="#3E00A5"/>
</linearGradient>
<linearGradient id="paint5_linear_1767_772" x1="15.2664" y1="60.7659" x2="47.5096" y2="58.6752" gradientUnits="userSpaceOnUse">
<stop stop-color="#9838FF"/>
<stop offset="0.322" stop-color="#AF50FF"/>
<stop offset="1" stop-color="#6000FF"/>
</linearGradient>
<linearGradient id="paint6_linear_1767_772" x1="38.2372" y1="23.1262" x2="48.5003" y2="27.2582" gradientUnits="userSpaceOnUse">
<stop stop-color="#6F0FFF"/>
<stop offset="0.702" stop-color="#A94AFF"/>
<stop offset="1" stop-color="#A94AFF"/>
</linearGradient>
<linearGradient id="paint7_linear_1767_772" x1="39.0263" y1="30.7814" x2="42.0914" y2="36.0202" gradientUnits="userSpaceOnUse">
<stop stop-color="#AE60FF"/>
<stop offset="0.031" stop-color="#B669FF"/>
<stop offset="1" stop-color="#BF73FF"/>
</linearGradient>
</defs>
</svg>
