<svg width="27" height="40" viewBox="0 0 27 40" fill="none" xmlns="http://www.w3.org/2000/svg">
<path d="M12.4705 10.9396V0.0613985C12.471 0.0447847 12.4781 0.029082 12.4901 0.0175948C12.5021 0.00610761 12.5182 -0.000189552 12.5348 4.34845e-06C12.5464 3.65336e-05 12.5576 0.00384548 12.567 0.0106966C12.5764 0.0175477 12.5835 0.0268859 12.587 0.0379446L18.4174 14.3069C18.4436 14.3822 18.4436 14.4641 18.4174 14.5394L13.1064 26.9679L21.17 19.1837C21.2001 19.1559 21.2238 19.1218 21.2394 19.0839C21.255 19.0459 21.2622 19.0051 21.2604 18.9641L21.2858 15.0938C21.2858 15.0677 21.3409 15.0677 21.3508 15.0938L26.5999 26.2666C26.6251 26.3245 26.6324 26.3885 26.6209 26.4505C26.6095 26.5126 26.5798 26.5698 26.5357 26.6148L12.7274 39.9569C12.7053 39.9778 12.6775 39.9917 12.6475 39.9967C12.6175 40.0018 12.5867 39.9978 12.559 39.9853C12.5313 39.9728 12.508 39.9524 12.4919 39.9265C12.4758 39.9007 12.4678 39.8707 12.4688 39.8404V28.4598L9.00565 36.564C8.99694 36.5876 8.9824 36.6087 8.9634 36.6251C8.9444 36.6415 8.92156 36.6527 8.897 36.6579C8.87245 36.663 8.84701 36.6618 8.82302 36.6544C8.79903 36.647 8.77733 36.6338 8.7599 36.6158L0.0983204 28.2544C0.0432283 28.2047 0.00858848 28.1362 0.00140039 28.0623C-0.0057877 27.9885 0.014871 27.9148 0.0593455 27.8554L6.94798 18.5186L2.44617 21.0674C2.40833 21.0871 2.36434 21.0914 2.3234 21.0794C2.28246 21.0674 2.24773 21.0401 2.22649 21.0031L0.856114 18.1514C0.831347 18.1046 0.820637 18.0517 0.825274 17.9989C0.829911 17.9461 0.849697 17.8958 0.88225 17.8541L8.87209 5.67398C8.87814 5.66692 8.88647 5.66222 8.89564 5.66069C8.90481 5.65917 8.91422 5.66092 8.92222 5.66564C8.93023 5.67036 8.93632 5.67774 8.93942 5.6865C8.94252 5.69526 8.94244 5.70483 8.9392 5.71354L6.46687 12.7067C6.43898 12.7869 6.44354 12.8749 6.47959 12.9518L8.34611 16.6236L12.4061 11.1206C12.4463 11.0687 12.4688 11.0051 12.4705 10.9396Z" fill="black"/>
</svg>
