<svg width="80" height="80" viewBox="0 0 80 80" fill="none" xmlns="http://www.w3.org/2000/svg">
<circle cx="40" cy="40" r="40" fill="black"/>
<path fill-rule="evenodd" clip-rule="evenodd" d="M19.4116 27.1649V32.2713H20.5822H21.7528V28.338V24.4047H28.363H34.9733V23.2317V22.0586H27.1925H19.4116V27.1649ZM45.0264 23.2317V24.4047H51.6367H58.247V28.338V32.2713H59.4175H60.5881V27.1649V22.0586H52.8073H45.0264V23.2317ZM34.8988 32.3058C34.8626 32.4007 34.8489 35.9251 34.8686 40.1378L34.9044 47.7973H39.9999H45.0953L45.1355 46.7277L45.1757 45.6581H41.1762H37.1767V38.8957V32.1333H36.0707C35.3128 32.1333 34.944 32.1875 34.8988 32.3058ZM19.4116 52.8346V57.9409H27.1925H34.9733V56.7679V55.5948H28.363H21.7528V51.6615V47.7283H20.5822H19.4116V52.8346ZM58.247 51.6615V55.5948H51.6367H45.0264V56.7679V57.9409H52.8073H60.5881V52.8346V47.7283H59.4175H58.247V51.6615Z" fill="white"/>
</svg>
