<svg width="46" height="40" viewBox="0 0 46 40" fill="none" xmlns="http://www.w3.org/2000/svg">
<path fill-rule="evenodd" clip-rule="evenodd" d="M0 5.69231V11.3846H1.30769H2.61538V7V2.61538H10H17.3846V1.30769V0H8.69231H0V5.69231ZM28.6154 1.30769V2.61538H36H43.3846V7V11.3846H44.6923H46V5.69231V0H37.3077H28.6154V1.30769ZM17.3014 11.4231C17.2609 11.5289 17.2457 15.4577 17.2677 20.1538L17.3077 28.6923H23H28.6923L28.7372 27.5L28.7822 26.3077H24.3142H19.8462V18.7692V11.2308H18.6106C17.7638 11.2308 17.3518 11.2912 17.3014 11.4231ZM0 34.3077V40H8.69231H17.3846V38.6923V37.3846H10H2.61538V33V28.6154H1.30769H0V34.3077ZM43.3846 33V37.3846H36H28.6154V38.6923V40H37.3077H46V34.3077V28.6154H44.6923H43.3846V33Z" fill="#0C0C0C"/>
</svg>
