<svg xmlns="http://www.w3.org/2000/svg" width="32" height="32" viewBox="0 0 32 32">
  <g fill="none" fill-rule="evenodd">
    <circle cx="16" cy="16" r="16" fill="#4D495C"/>
    <g fill="#FFF" transform="translate(5.636 7)">
      <path d="M5.57737775,7.69524081 C6.50701492,7.67119847 7.43709731,7.67119847 8.3671797,7.69524081 C11.05636,7.76425123 13.2206159,9.91693116 13.2206159,12.6070019 C13.2206159,15.2966274 11.0572505,17.4862613 8.3671797,17.518763 C5.96917886,17.5472576 3.57028755,17.5472576 1.17139625,17.518763 C0.58636597,17.5116394 0.119766474,17.0250046 0.119766474,16.4395291 C0.119766474,15.8544988 0.58636597,15.3754329 1.17139625,15.3607404 C3.5693971,15.2992988 5.96784317,15.2992988 8.3671797,15.3607404 C9.88763512,15.3994752 11.1213634,14.1279026 11.1213634,12.6070019 C11.1213634,11.0861013 9.88808035,9.85326348 8.3671797,9.85326348 C8.17127915,9.85326348 7.9753786,9.85326348 7.77947805,9.85326348 C6.84984088,9.87686059 5.91975849,9.87686059 4.9896761,9.85326348 C2.3004958,9.78425306 0.136239929,7.6311279 0.136239929,4.94150237 C0.136239929,2.25143161 2.29960534,0.062242948 4.9896761,0.0297412656 C7.38767694,0.000801411348 9.78612301,0.000801411348 12.1845691,0.0297412656 C12.7700446,0.036864922 13.2361989,0.523499702 13.2361989,1.10852999 C13.2361989,1.6940055 12.7695994,2.17262616 12.1845691,2.18776393 C9.78701347,2.24920547 7.3885674,2.24920547 4.9896761,2.18776393 C3.46922068,2.14858382 2.23549243,3.42060172 2.23549243,4.94150237 C2.23549243,6.46240302 3.46877545,7.69524081 4.9896761,7.69524081 C5.18557665,7.69524081 5.3814772,7.69524081 5.57737775,7.69524081 Z"/>
      <path d="M1.58278741 14.6639577C1.73371988 14.6608411 1.88420712 14.6572793 2.0351396 14.6546079 2.46701127 14.6461486 2.89932817 14.6399154 3.33164506 14.6354631L6.26124877 10.5571698C6.01503739 10.5567245 5.76838079 10.5544984 5.52216942 10.5509366 5.39572451 10.5487104 5.26927961 10.5464843 5.14283471 10.5433677 5.07961226 10.542032 5.01950641 10.5406963 4.9522769 10.5389154 4.88460217 10.5366893 4.81781789 10.5340179 4.75058838 10.5295656 4.68825639 10.5255586 4.62592439 10.520661 4.5635924 10.5144278L1.58278741 14.6639577zM7.0951618 6.99088928C7.34137318 6.99133451 7.58802978 6.99356065 7.83468638 6.99756771 7.96113128 6.99979385 8.08757619 7.00201999 8.21402109 7.00469136 8.27724354 7.00647228 8.33734939 7.00736273 8.40502413 7.00958888 8.47225363 7.01136979 8.53948314 7.01448639 8.60626742 7.01893868 8.66859941 7.02294573 8.73048618 7.02784325 8.79237294 7.03363122L11.7731779 2.88410135C11.6226907 2.88766318 11.4717582 2.89077978 11.321271 2.89389638 10.8889541 2.90235572 10.4566372 2.90858892 10.0243203 2.9130412L7.0951618 6.99088928z"/>
      <path d="M3.35381269.202683918C3.35381269.12786135 3.4150346.0596686301 3.49060539.0596686301 3.79480175.0596686301 4.09899811.0596686301 4.40319447.0596686301 4.47876526.0596686301 4.54763991.126914229 4.54763991.202683918 4.54763991 1.07119398 4.54763991 1.93970404 4.54763991 2.8082141 4.54763991 4.35249507 3.66566178 5.24799808 2.26616721 5.24799808.87480368 5.24799808 2.0036432e-14 4.35249507 2.0036432e-14 2.8082141 2.0036432e-14 1.93970404 2.0036432e-14 1.07119398 2.0036432e-14.202683918 2.0036432e-14.12786135.0617002049.0596686301.136792702.0596686301.440989061.0596686301.74518542.0596686301 1.04938178.0596686301 1.12543087.0596686301 1.19382722.126914229 1.19382722.202683918 1.19382722 1.08350655 1.19382722 1.96432919 1.19382722 2.84515182 1.19382722 3.60616364 1.58889985 4.14744335 2.27381995 4.14744335 2.95874006 4.14744335 3.35381269 3.60616364 3.35381269 2.84515182 3.35381269 1.96432919 3.35381269 1.08350655 3.35381269.202683918zM8.73847088 1.73133739C8.61698365 1.73133739 8.57871996 1.68587558 8.53280353 1.59589907 8.37305261 1.2269954 8.02293982.993530047 7.49107449.993530047 7.01182173.993530047 6.60909636 1.15927624 6.60909636 1.47561469 6.60909636 1.82226102 6.98216737 1.96527631 7.80292358 2.06282978 9.04984168 2.21105424 9.76489444 2.58279927 9.76489444 3.56117538 9.76489444 4.66030943 8.79060516 5.23994755 7.54464366 5.23994755 6.46465092 5.23994755 5.53723467 4.72045162 5.39231093 3.6293681 5.37844034 3.5237641 5.43057462 3.48635282 5.53723467 3.48635282 5.81608133 3.48635282 6.09492799 3.48635282 6.37377465 3.48635282 6.4799564 3.48635282 6.54165661 3.53181463 6.57178926 3.61421417 6.70284241 3.96985814 7.07400023 4.25446804 7.63647652 4.25446804 8.13103475 4.25446804 8.56437107 4.0735679 8.56437107 3.68998385 8.56437107 3.23063011 8.10855483 3.14823058 7.19548746 3.03457604 6.14562738 2.90387333 5.41622574 2.59795321 5.41622574 1.64088733 5.41622574.684768564 6.24559128-2.32000792e-14 7.54607854-2.32000792e-14 8.71646925-2.32000792e-14 9.53052932.625099934 9.69841127 1.55896135 9.71706482 1.66503892 9.69028024 1.73228451 9.57644575 1.73228451 9.29712079 1.73228451 9.01779583 1.73228451 8.73847088 1.73228451L8.73847088 1.73133739zM12.8671233.0596686301C14.4034106.0596686301 15.5972378 1.10623746 15.5972378 2.63489093 15.5972378 4.1408135 14.4187161 5.18027892 12.8671233 5.18027892L10.7989707 5.18027892 10.7989707 5.18027892C10.7233999 5.18027892 10.662178 5.11161264 10.662178 5.03679008L10.662178.202683918 10.662178.202683918C10.662178.12786135 10.7233999.0596686301 10.7989707.0596686301L12.8671233.0596686301 12.8671233.0596686301zM12.8594706 1.07498246L12.0004507 1.07498246 12.0004507 1.07498246C11.9248799 1.07498246 11.8631797 1.14222806 11.8631797 1.21799775L11.8631797 4.02621185 11.8631797 4.02621185C11.8631797 4.10103442 11.9248799 4.16165017 12.0004507 4.16165017L12.8671233 4.16165017 12.8671233 4.16165017 12.8671233 4.16307085C13.6964889 4.16307085 14.3421887 3.51476645 14.3421887 2.61878988 14.3421887 1.72328686 13.6955323 1.07498246 12.8594706 1.07498246z" transform="rotate(-90 15.867 .72)"/>
    </g>
  </g>
</svg>
