<svg xmlns="http://www.w3.org/2000/svg" width="32" height="32" viewBox="0 0 32 32">
  <g fill="none" fill-rule="evenodd">
    <path fill="#FFF" d="M32,15.999936 C32,13.905856 31.58336,11.811776 30.78208,9.877056 C29.98048,7.942336 28.79424,6.166976 27.3136,4.686336 C25.83296,3.205376 24.0576,2.019456 22.12288,1.217856 C20.18816,0.416576 18.09408,-6.4e-05 16,-6.4e-05 C13.90592,-6.4e-05 11.81152,0.416576 9.8768,1.217856 C7.94208,2.019456 6.16704,3.205376 4.68608,4.686336 C3.20544,6.166976 2.0192,7.942336 1.21792,9.877056 C0.41632,11.811776 0,13.905856 0,15.999936 C0,18.094016 0.41632,20.188096 1.21792,22.122816 C2.0192,24.057536 3.20544,25.832896 4.68608,27.313856 C6.16704,28.794496 7.94208,29.980736 9.8768,30.782016 C11.81152,31.583296 13.90592,31.999936 16,31.999936 C18.09408,31.999936 20.18816,31.583296 22.12288,30.782016 C24.0576,29.980736 25.83296,28.794496 27.3136,27.313856 C28.79424,25.832896 29.98048,24.057536 30.78208,22.122816 C31.58336,20.188096 32,18.094016 32,15.999936 Z"/>
    <path fill="#0657F9" d="M11.85472,3.383616 C13.34528,2.893696 14.93824,2.669696 16.51616,2.730176 C18.0944,2.790656 19.65792,3.135936 21.11296,3.743936 C22.56832,4.351936 23.9152,5.222976 25.06752,6.297536 C26.59168,7.719296 27.77504,9.497536 28.4848,11.486656 C29.19488,13.476096 29.43136,15.676416 29.15744,17.771136 C28.88384,19.865856 28.09984,21.855296 26.91392,23.566016 C25.728,25.276736 24.13984,26.708416 22.27456,27.700416 C20.40928,28.692096 18.26624,29.243776 16.15392,29.275776 C14.0416,29.307776 11.95968,28.820416 10.09504,27.894976 C8.23072,26.969536 6.58336,25.606336 5.33248,23.903616 C4.0816,22.200896 3.2272,20.158656 2.888,18.074816 C2.5488,15.990656 2.7248,13.864576 3.37472,11.881216 C3.86592,10.381696 4.62816,8.964096 5.6048,7.735616 L4.12032,7.735616 L4.12032,5.281856 L9.93696,5.281856 L9.93696,10.713536 L7.4832,10.713536 L7.4832,9.229376 C6.6832,10.235456 6.05856,11.396736 5.65632,12.625536 C5.12416,14.251136 4.9808,15.995136 5.25632,17.696896 C5.59872,19.813696 6.5888,21.864896 8.06656,23.445696 C9.83424,25.336256 12.29952,26.554176 14.86592,26.820736 C17.432,27.087296 20.0992,26.402816 22.21728,24.928576 C24.33536,23.454336 25.90496,21.190336 26.54208,18.689856 C27.1792,16.189376 26.88384,13.452416 25.73504,11.142016 C24.58624,8.831616 22.58368,6.948416 20.18912,5.958976 C17.79456,4.969216 15.00768,4.873856 12.60384,5.663616 L11.85472,3.383616 Z"/>
    <path fill="#000" fill-rule="nonzero" d="M12.7787519,13.6493244 C12.6916074,13.549591 12.5842963,13.4996021 12.4565741,13.4996021 L9.84492556,13.4996021 C9.82173185,13.4996021 9.80275074,13.4922688 9.78845889,13.4776021 C9.77393074,13.4631392 9.76666667,13.4468021 9.76666667,13.4292836 L9.76666667,11.6692429 C9.76666667,11.6516836 9.77393074,11.635591 9.78845889,11.6209244 C9.80275074,11.606217 9.82173185,11.5988836 9.84492556,11.5988836 L12.6046667,11.5988836 C13.3010481,11.5988836 13.9018519,11.8835799 14.4067926,12.4524836 L15.0771407,13.2708021 L13.7713185,14.8636429 L12.7787519,13.6493244 Z M17.6018852,12.4437244 C18.1068259,11.8804836 18.7104407,11.5988836 19.4126481,11.5988836 L22.1637481,11.5988836 C22.1869296,11.5988836 22.2042852,11.604791 22.2159778,11.6164021 C22.2274667,11.6282577 22.2333333,11.6457762 22.2333333,11.6692429 L22.2333333,13.4292836 C22.2333333,13.4468021 22.2274667,13.4631392 22.2159778,13.4776021 C22.2042852,13.4922688 22.1869296,13.4996021 22.1637481,13.4996021 L19.552063,13.4996021 C19.4243815,13.4996021 19.3170704,13.549591 19.2298852,13.6493244 L17.3059444,15.9901244 L19.238563,18.3484429 C19.3257481,18.4424725 19.4300037,18.4893651 19.552063,18.4893651 L22.1637481,18.4893651 C22.1869296,18.4893651 22.2042852,18.4967392 22.2159778,18.5114058 C22.2274667,18.5261133 22.2333333,18.5452614 22.2333333,18.5684836 L22.2333333,20.3285244 C22.2333333,20.3460836 22.2274667,20.3624207 22.2159778,20.3768429 C22.2042852,20.3915503 22.1869296,20.3988836 22.1637481,20.3988836 L19.4126481,20.3988836 C18.7104407,20.3988836 18.109637,20.1144318 17.610563,19.5452836 L16.0088,17.5917244 L14.4067926,19.5452836 C13.9018519,20.1144318 13.298237,20.3988836 12.5959889,20.3988836 L9.84492556,20.3988836 C9.82173185,20.3988836 9.8041563,20.3915503 9.79267556,20.3768429 C9.78095852,20.3621762 9.7753363,20.3432318 9.7753363,20.3195207 L9.7753363,18.5594799 C9.7753363,18.5419614 9.78095852,18.5258688 9.79267556,18.5111614 C9.8041563,18.4964947 9.82173185,18.4891614 9.84492556,18.4891614 L12.4565741,18.4891614 C12.5784296,18.4891614 12.6857407,18.439417 12.7787519,18.3394392 L14.6678185,16.0339207 L17.6018852,12.4437244 Z"/>
  </g>
</svg>
