<svg width="40" height="40" viewBox="0 0 40 40" fill="none" xmlns="http://www.w3.org/2000/svg">
<g filter="url(#filter0_d_457_407836)">
<path d="M4 16C4 7.16344 11.1634 0 20 0C28.8366 0 36 7.16344 36 16C36 24.8366 28.8366 32 20 32C11.1634 32 4 24.8366 4 16Z" fill="white"/>
<path fill-rule="evenodd" clip-rule="evenodd" d="M20 26C25.5228 26 30 21.5228 30 16C30 10.4772 25.5228 6 20 6C14.4772 6 10 10.4772 10 16C10 21.5228 14.4772 26 20 26ZM20 24.75C24.8325 24.75 28.75 20.8325 28.75 16C28.75 11.1675 24.8325 7.25 20 7.25C15.1675 7.25 11.25 11.1675 11.25 16C11.25 20.8325 15.1675 24.75 20 24.75Z" fill="#BDBDBF"/>
<path fill-rule="evenodd" clip-rule="evenodd" d="M20 24.75C24.8325 24.75 28.75 20.8325 28.75 16C28.75 11.1675 24.8325 7.25 20 7.25C15.1675 7.25 11.25 11.1675 11.25 16C11.25 20.8325 15.1675 24.75 20 24.75ZM20 23.5C24.1421 23.5 27.5 20.1421 27.5 16C27.5 11.8579 24.1421 8.5 20 8.5C15.8579 8.5 12.5 11.8579 12.5 16C12.5 20.1421 15.8579 23.5 20 23.5Z" fill="#99999E"/>
<path fill-rule="evenodd" clip-rule="evenodd" d="M20 23.5C24.1421 23.5 27.5 20.1421 27.5 16C27.5 11.8579 24.1421 8.5 20 8.5C15.8579 8.5 12.5 11.8579 12.5 16C12.5 20.1421 15.8579 23.5 20 23.5ZM20 22.25C23.4518 22.25 26.25 19.4518 26.25 16C26.25 12.5482 23.4518 9.75 20 9.75C16.5482 9.75 13.75 12.5482 13.75 16C13.75 19.4518 16.5482 22.25 20 22.25Z" fill="#68686D"/>
<circle cx="20" cy="16" r="6.25" fill="black"/>
<path fill-rule="evenodd" clip-rule="evenodd" d="M17.6829 12.6873L17.2458 13.1246L18.3124 14.1914L19.3791 15.2582V16.2513V17.2443H20.0006H20.6222V16.2513V15.2582L21.6862 14.194L22.7503 13.1297L22.3104 12.6902L21.8706 12.2506L20.9414 13.1775C20.4303 13.6873 20.0071 14.1044 20.0009 14.1044C19.9947 14.1044 19.5708 13.6872 19.0591 13.1772C18.5473 12.6672 18.1266 12.25 18.1243 12.25C18.1219 12.25 17.9233 12.4468 17.6829 12.6873ZM17.1901 15.2503C17.051 15.544 16.9704 15.7972 16.9186 16.1035C16.7702 16.9793 17.0047 17.8812 17.563 18.5824C17.6551 18.6982 17.9262 18.9692 18.0411 19.0604C18.5583 19.4712 19.1471 19.6989 19.8075 19.7432C20.2026 19.7698 20.5976 19.718 20.9856 19.5888C22.1072 19.2152 22.9169 18.2509 23.092 17.0804C23.1594 16.63 23.123 16.1482 22.9881 15.7038C22.9344 15.5272 22.8257 15.2625 22.7689 15.1702L22.7472 15.1349L22.2743 15.6074C21.8928 15.9886 21.8025 16.0841 21.8074 16.1011C21.8464 16.2377 21.8671 16.3798 21.8726 16.5489C21.8834 16.8766 21.8316 17.1415 21.7025 17.4182C21.4517 17.956 20.9624 18.3398 20.3641 18.468C20.2602 18.4903 20.222 18.4928 19.9954 18.4925C19.7729 18.4922 19.7292 18.4893 19.6319 18.4682C19.0387 18.34 18.5722 17.9771 18.309 17.4392C18.19 17.1961 18.1362 16.9711 18.1281 16.6833C18.1222 16.4751 18.1337 16.3492 18.1735 16.1854L18.1991 16.0801L17.7277 15.6085C17.4685 15.3492 17.2535 15.137 17.2501 15.137C17.2466 15.137 17.2196 15.188 17.1901 15.2503Z" fill="white"/>
<path fill-rule="evenodd" clip-rule="evenodd" d="M15.8545 3.38356C17.345 2.89364 18.938 2.66964 20.5159 2.73012C22.0941 2.7906 23.6577 3.13588 25.1127 3.74388C26.5681 4.35188 27.9149 5.22292 29.0673 6.29748C30.5914 7.71924 31.7748 9.49748 32.4845 11.4866C33.1946 13.476 33.4311 15.6764 33.1572 17.7711C32.8836 19.8658 32.0996 21.8552 30.9137 23.566C29.7277 25.2767 28.1396 26.7084 26.2743 27.7004C24.409 28.692 22.266 29.2437 20.1537 29.2757C18.0413 29.3077 15.9594 28.8204 14.0948 27.8949C12.2305 26.9695 10.5831 25.6063 9.33223 23.9036C8.08135 22.2008 7.22695 20.1586 6.88775 18.0748C6.54855 15.9906 6.72455 13.8645 7.37447 11.8812C7.86567 10.3816 8.62791 8.96404 9.60455 7.73556H8.12007V5.2818H13.9367V10.7135H11.4829V9.22932C10.6829 10.2354 10.0583 11.3967 9.65607 12.6255C9.12391 14.2511 8.98055 15.9951 9.25607 17.6968C9.59847 19.8136 10.5885 21.8648 12.0663 23.4456C13.834 25.3362 16.2993 26.5541 18.8657 26.8207C21.4317 27.0872 24.0989 26.4028 26.217 24.9285C28.3351 23.4543 29.9047 21.1903 30.5418 18.6898C31.1789 16.1893 30.8836 13.4524 29.7348 11.142C28.586 8.83156 26.5834 6.94836 24.1889 5.95892C21.7943 4.96916 19.0074 4.87381 16.6036 5.66356L15.8545 3.38356Z" fill="#0657F9"/>
</g>
<defs>
<filter id="filter0_d_457_407836" x="0" y="0" width="40" height="40" filterUnits="userSpaceOnUse" color-interpolation-filters="sRGB">
<feFlood flood-opacity="0" result="BackgroundImageFix"/>
<feColorMatrix in="SourceAlpha" type="matrix" values="0 0 0 0 0 0 0 0 0 0 0 0 0 0 0 0 0 0 127 0" result="hardAlpha"/>
<feOffset dy="4"/>
<feGaussianBlur stdDeviation="2"/>
<feComposite in2="hardAlpha" operator="out"/>
<feColorMatrix type="matrix" values="0 0 0 0 0 0 0 0 0 0 0 0 0 0 0 0 0 0 0.25 0"/>
<feBlend mode="normal" in2="BackgroundImageFix" result="effect1_dropShadow_457_407836"/>
<feBlend mode="normal" in="SourceGraphic" in2="effect1_dropShadow_457_407836" result="shape"/>
</filter>
</defs>
</svg>
