<svg width="272" height="272" viewBox="0 0 272 272" fill="none" xmlns="http://www.w3.org/2000/svg">
<circle cx="136" cy="136" r="136" fill="black"/>
<path fill-rule="evenodd" clip-rule="evenodd" d="M161.393 191.686C162.487 192.438 163.606 192.973 164.968 193C167.641 192.781 169.533 191.063 171.35 189.413C171.512 189.265 171.674 189.118 171.836 188.973C174.501 186.573 177.06 184.057 179.62 181.54C180.893 180.289 182.166 179.037 183.452 177.8C184.251 177.031 185.066 176.28 185.881 175.528C187.123 174.384 188.364 173.24 189.546 172.037C191.849 169.693 192.673 165.615 191.292 163.552C189.013 160.143 186.502 156.925 183.476 154.129C182.618 153.336 181.755 152.549 180.893 151.761C177.204 148.393 173.514 145.024 170.198 141.259C167.066 137.706 166.973 134.873 170.14 131.378L170.441 131.046C172.549 128.715 174.662 126.381 177.204 124.475C181.366 121.356 185.036 117.664 188.697 113.979L188.937 113.738C193.028 109.626 192.996 106.64 188.992 102.474C188.949 102.429 188.905 102.386 188.861 102.343C188.803 102.285 188.745 102.227 188.69 102.166C186.759 99.9452 184.574 97.9947 182.389 96.0444C181.634 95.3703 180.879 94.6962 180.134 94.0108C178 92.0464 176.273 89.7403 174.545 87.4339C173.388 85.8892 172.23 84.3442 170.951 82.9018C166.491 77.877 163.542 77.7137 158.659 82.3641C154.864 85.9788 151.295 89.8129 147.752 93.6763C147.409 94.0505 147.068 94.4268 146.727 94.803C144.32 97.4548 141.917 100.104 138.85 102.048C137.087 103.164 135.437 103.276 133.704 102.005C129.88 99.2016 126.38 96.023 123.203 92.5126C122.16 91.3603 121.143 90.1834 120.126 89.0069C117.441 85.8994 114.756 82.7921 111.592 80.1353C109.923 78.7333 108.132 78.744 106.446 79.7554C103.383 81.5962 100.4 83.5681 98.1264 86.4551C95.6675 89.5775 92.6707 92.1193 89.4779 94.4605C86.8785 96.3681 84.6077 98.6288 82.5092 101.128C80.7047 103.276 80.9459 105.195 82.0349 107.429C83.4258 110.281 85.5509 112.528 87.6708 114.77C88.2041 115.334 88.7371 115.897 89.2579 116.47C91.9535 119.434 94.7184 122.335 97.4836 125.235C99.0756 126.905 100.668 128.575 102.247 130.257C103.876 131.994 103.913 133.875 102.761 135.959C101.025 139.103 98.5848 141.636 95.8689 143.833C90.3337 148.312 85.2543 153.216 80.8584 158.849C80.1801 159.721 79.9045 160.569 80.0291 161.626C80.3453 164.309 81.9159 166.392 83.4323 168.403L83.7227 168.788C85.4047 171.032 87.4423 172.939 89.4842 174.85C91.4695 176.708 93.459 178.569 95.1296 180.748C97.1302 183.36 99.4407 185.768 101.839 188.021C105.034 191.023 107.7 192.211 111.531 188.786C112.041 188.331 112.554 187.878 113.067 187.426C114.812 185.889 116.559 184.35 118.166 182.675C119.418 181.37 120.639 180.037 121.861 178.705C124.559 175.762 127.256 172.819 130.28 170.174C134.435 166.541 137.45 166.493 141.359 170.479C143.876 173.048 146.147 175.82 148.412 178.605C152.31 183.397 156.242 188.152 161.393 191.686ZM102.854 96.3742C103.004 96.6106 103.157 96.8526 103.251 97.1227C104.027 96.2772 103.908 95.5359 103.23 94.8456C103.023 94.6371 102.583 94.5916 102.493 94.843C102.271 95.4536 102.556 95.9033 102.854 96.3742ZM164.341 95.9532C164.415 95.9569 164.49 95.9608 164.566 95.9637C164.667 95.9679 164.77 95.971 164.875 95.972C163.69 94.6719 162.731 94.1475 161.69 95.5762C161.634 95.653 161.558 95.7243 161.481 95.7959C161.248 96.0136 161.012 96.2336 161.353 96.6143C161.663 96.9594 162.101 96.7961 162.291 96.5393C162.784 95.8748 163.446 95.9083 164.273 95.9501L164.341 95.9532ZM105.077 103.635C104.243 104.34 103.415 104.61 102.645 104.863C102.268 104.986 101.906 105.105 101.563 105.267C100.956 105.553 100.339 105.722 99.8567 105.061C99.5387 104.625 99.5175 104.079 99.7586 103.64C100.085 103.049 100.638 102.712 101.356 102.856C102.16 103.018 102.966 103.188 103.883 103.383L103.887 103.383C104.262 103.463 104.656 103.547 105.077 103.635ZM117.761 109.872C119.724 106.321 119.562 105.813 115.633 103.927C118.134 109.166 118.606 110.811 111.433 111.523C111.346 111.531 111.258 111.538 111.169 111.544C110.551 111.587 109.932 111.631 109.846 112.534C109.79 113.136 109.849 113.757 110.418 114.04C111.155 114.404 112.387 114.458 112.604 113.904C113.394 111.88 114.095 112.577 114.994 113.473C115.072 113.55 115.152 113.629 115.233 113.709C116.065 114.517 117.263 114.455 117.88 113.615C118.469 112.813 117.934 112.715 117.39 112.615C117.209 112.581 117.028 112.548 116.886 112.489C116.476 112.317 116.632 111.887 116.812 111.557C117.125 110.993 117.448 110.436 117.761 109.872ZM131.295 125.027C131.397 125.072 131.513 125.14 131.629 125.208C131.874 125.351 132.117 125.493 132.225 125.422C134.167 124.161 134.6 125.45 135.024 126.709C135.054 126.799 135.085 126.889 135.115 126.978C135.131 127.022 135.146 127.066 135.162 127.109L135.19 127.188L135.204 127.224C135.522 128.084 135.724 128.632 136.971 128.154C138.298 127.646 138.982 128.588 138.481 129.96C138.364 130.281 138.205 130.586 138.045 130.89C137.957 131.059 137.869 131.228 137.788 131.4C137.739 131.502 137.694 131.605 137.652 131.71C136.966 133.433 137.037 134.878 138.937 135.857C140.024 136.417 141.075 137.05 142.126 137.683C142.727 138.044 143.329 138.406 143.937 138.755C144.332 138.982 144.689 139.21 144.644 139.713C144.586 140.363 143.953 140.593 143.561 140.523C143.188 140.458 142.755 140.519 142.319 140.581C141.148 140.747 139.957 140.916 139.864 138.645C139.833 137.885 138.518 137.104 137.474 137.155C136.56 137.198 135.662 137.682 135.572 138.795C135.532 139.277 135.31 139.534 134.986 139.416C134.756 139.333 134.485 138.8 134.549 138.552C134.63 138.238 134.779 137.943 134.928 137.647C135.072 137.362 135.216 137.077 135.299 136.775C135.377 136.49 135.562 136.192 135.748 135.892C136.271 135.047 136.805 134.186 135 133.57C135.67 129.55 133.217 131.266 132.182 131.99L132.18 131.991C132.034 132.093 131.917 132.175 131.841 132.218C129.923 133.313 130.267 135.132 131.401 136.812C131.442 136.871 131.418 136.972 131.392 137.088C131.378 137.147 131.363 137.21 131.356 137.273C130.96 137.607 130.734 137.35 130.509 137.094C130.323 136.883 130.138 136.673 129.859 136.796C130.16 137.453 129.809 137.877 129.468 138.288C129.229 138.575 128.996 138.856 128.993 139.207C128.985 140.042 129.48 140.101 130.09 139.552C130.447 139.231 130.914 138.822 131.393 139.269C131.779 139.626 131.75 140.095 131.72 140.568C131.704 140.823 131.689 141.08 131.738 141.321C131.858 141.914 131.519 141.871 131.167 141.825L131.162 141.824C131.077 141.814 130.992 141.803 130.912 141.801C130.844 141.799 130.779 141.804 130.723 141.821C129.324 142.247 128.495 143.277 128.2 144.692C128.041 145.457 128.325 146.185 129.242 146.07C130.93 145.858 130.575 146.666 130.168 147.592L130.137 147.662C130.097 147.755 130.054 147.85 130.011 147.944C129.485 149.116 128.944 150.317 131.364 149.631C131.746 149.524 132.056 149.706 132.297 150.003C132.695 150.491 132.325 150.734 132.01 150.942L131.936 150.99C131.412 151.343 131.282 151.886 131.154 152.42C131.134 152.505 131.113 152.591 131.091 152.676C131.061 152.791 131.033 152.907 131.006 153.023L131.005 153.028C130.759 154.056 130.529 155.019 128.974 154.008C128.733 153.851 128.517 154.059 128.303 154.266C128.179 154.386 128.055 154.505 127.928 154.552C127.852 154.579 127.776 154.608 127.7 154.638L127.563 154.691C126.577 155.078 125.524 155.49 124.777 154.15C124.405 153.484 123.856 153.503 123.301 153.522C123.014 153.532 122.725 153.542 122.459 153.457C122.631 152.542 123.351 152.371 124.007 152.216L124.069 152.201C124.127 152.188 124.183 152.174 124.239 152.16C125.271 151.894 125.749 151.112 126.223 150.337L126.224 150.335C126.412 150.028 126.599 149.721 126.82 149.449C127.164 149.026 127.003 148.245 126.401 147.975C125.842 147.723 125.789 148.168 125.742 148.567C125.737 148.613 125.732 148.657 125.726 148.7C125.643 149.278 125.257 149.315 124.782 149.235C124.525 149.192 124.215 149.155 123.993 149.257C123.701 149.391 123.641 149.81 123.585 150.201C123.506 150.755 123.435 151.253 122.724 150.803C121.89 150.274 121.985 148.62 122.745 147.496C122.339 146.934 121.743 146.616 121.15 146.934C120.572 147.242 120.809 147.516 121.052 147.798C121.192 147.959 121.333 148.123 121.324 148.296C121.322 148.34 121.325 148.39 121.328 148.441L121.329 148.474C121.334 148.572 121.335 148.665 121.293 148.697C120.917 148.988 120.831 149.417 120.745 149.853C120.664 150.259 120.582 150.671 120.262 150.982C119.538 150.719 119.692 150.213 119.82 149.793C119.844 149.715 119.867 149.64 119.883 149.57C119.917 149.418 119.958 149.269 119.997 149.121C120.226 148.268 120.439 147.47 119.475 146.699C118.871 146.214 119.631 145.318 119.917 145.612C120.415 146.127 121.027 146.117 121.624 146.108C122.209 146.099 122.78 146.09 123.214 146.576L123.219 146.573C123.286 146.558 123.356 146.547 123.425 146.537C123.572 146.515 123.718 146.494 123.839 146.423L123.923 146.374C124.577 145.992 125.255 145.595 125.042 144.631C124.863 143.82 124.371 143.909 123.871 143.998C123.511 144.062 123.148 144.127 122.896 143.857C122.783 143.377 123.085 143.232 123.391 143.085C123.596 142.986 123.803 142.887 123.887 142.685C124.189 141.955 124.136 141.275 123.619 140.665C123.09 140.043 122.721 140.439 122.391 140.792L122.314 140.875C122.289 140.901 122.264 140.927 122.239 140.952C121.637 141.537 120.885 141.776 120.368 141.15C119.862 140.537 120.437 140.004 121.014 139.6C121.476 139.279 121.807 138.918 121.674 138.174C121.25 135.804 121.96 134.937 124.451 134.525C124.015 134.12 123.717 133.843 123.373 133.759C122.626 133.575 121.66 134.293 118.601 136.572C118.624 134.062 118.01 131.777 116.817 129.583C117.226 129.207 117.559 129.399 117.904 129.597C118.158 129.743 118.418 129.893 118.72 129.821C120.662 129.358 121.621 129.813 120.254 131.93C120.023 132.285 119.928 132.786 120.349 133.099C120.659 133.329 121.139 133.275 121.327 132.975C122.745 130.726 124.025 131.641 125.331 133.085C125.393 133.153 125.551 133.134 125.705 133.116C125.776 133.107 125.846 133.099 125.906 133.099C125.991 132.684 125.794 132.446 125.604 132.216C125.527 132.123 125.452 132.032 125.397 131.932C124.621 130.527 125 129.864 126.634 129.797L126.673 129.796C126.69 129.796 126.706 129.796 126.722 129.796L126.746 129.797C126.791 129.798 126.835 129.8 126.879 129.802C126.941 129.805 127.002 129.808 127.064 129.808C130.702 129.813 131.301 129.139 130.911 125.481L130.903 125.487C130.703 125.412 130.614 125.185 130.524 124.957C130.378 124.585 130.233 124.214 129.605 124.518C128.934 124.844 128.818 125.353 128.937 126.113C129.178 127.619 128.179 127.954 127.213 128.278C126.798 128.418 126.388 128.555 126.086 128.783C125.241 129.42 124.448 128.376 124.34 127.306C124.312 127.032 124.108 126.811 123.91 126.596C123.607 126.267 123.315 125.951 123.677 125.476C124.138 124.874 124.83 124.299 125.696 124.467C127.742 124.863 128.82 123.911 129.414 122.035C129.518 121.703 129.76 121.416 130.064 121.054L130.175 120.922C130.214 120.876 130.253 120.828 130.293 120.779C130.387 120.665 130.484 120.542 130.583 120.408L124.104 119.311C124.197 119.243 124.292 119.177 124.386 119.112C125.06 118.642 125.677 118.213 125.174 117.297C125.136 117.227 125.102 117.15 125.067 117.071C124.924 116.75 124.771 116.408 124.324 116.481C123.444 116.628 122.668 117.008 122.445 117.984C122.393 118.214 122.252 118.436 122.111 118.658C121.741 119.24 121.37 119.824 122.599 120.556C123.473 121.075 122.888 122.589 122.175 123.467C121.317 124.521 120.042 125.136 118.847 125.5C115.747 126.445 114.52 128.299 115.206 131.632C115.235 131.77 115.271 131.907 115.308 132.044L115.357 132.217L115.358 132.22C115.386 132.32 115.414 132.421 115.441 132.522L115.459 132.591L115.483 132.689C115.498 132.754 115.512 132.819 115.524 132.885C115.617 133.374 115.392 133.778 114.947 133.909C114.425 134.065 114.333 133.687 114.244 133.327C114.229 133.265 114.214 133.203 114.197 133.144C114.161 133.022 114.124 132.9 114.086 132.779C114.051 132.665 114.015 132.551 113.979 132.437L113.977 132.433C113.812 131.915 113.648 131.398 113.548 130.867C113.517 130.702 113.497 130.527 113.477 130.355C113.38 129.493 113.29 128.707 111.87 129.663C111.495 129.915 111.177 129.553 110.916 129.257C110.881 129.217 110.846 129.178 110.813 129.142C109.16 127.351 107.52 125.548 105.882 123.742C105.86 123.718 105.836 123.693 105.812 123.667L105.768 123.622C105.495 123.341 105.156 122.991 105.567 122.691L105.654 122.626L105.772 122.539C106.372 122.092 106.997 121.627 107.803 121.569C108.317 121.532 108.68 121.711 108.617 122.265C108.458 123.651 109.139 123.857 110.251 123.536C110.601 123.435 110.999 123.33 111.197 123.721C111.457 124.232 111.065 124.523 110.681 124.721L110.6 124.763L110.483 124.821C109.884 125.117 109.269 125.421 109.947 126.249C109.994 126.306 110.041 126.365 110.088 126.424L110.094 126.431C110.716 127.206 111.411 128.071 112.599 127.523L112.8 127.431L113.042 127.321C114.694 126.573 116.347 125.825 116.778 123.633C116.939 122.809 117.593 122.653 118.27 122.492C118.794 122.366 119.331 122.238 119.663 121.794C119.441 121.158 118.908 121.115 118.344 121.115C118.19 121.116 118.032 121.126 117.875 121.137C117.065 121.192 116.27 121.246 116.099 119.943C116.094 119.902 116.088 119.862 116.083 119.821L116.07 119.739C116.046 119.585 116.019 119.435 115.992 119.288C115.815 118.313 115.66 117.458 116.627 116.304C118.251 114.366 120.064 114.518 121.912 114.672C122.401 114.713 122.892 114.755 123.383 114.757C123.841 114.759 124.299 114.817 124.881 114.89C125.192 114.929 125.537 114.972 125.938 115.014C125.086 114.147 124.122 113.993 123.084 113.827C122.223 113.689 121.311 113.543 120.368 112.976C123.815 112.877 124.586 111.148 124.189 108.454C124.325 108.647 124.452 108.845 124.574 109.038C125.234 110.071 125.786 110.936 127.204 110.04C127.429 109.899 128.256 110.222 128.076 110.613C127.683 111.457 127.924 112.212 128.169 112.983C128.364 113.595 128.562 114.217 128.447 114.899C128.153 116.633 131.086 119.352 133.198 119.44C132.199 119.782 132.185 120.398 132.17 121.006C132.164 121.301 132.157 121.594 132.037 121.853C131.806 122.353 131.396 122.599 130.979 122.849C130.666 123.037 130.349 123.227 130.1 123.528C130.4 123.901 130.689 124.265 130.976 124.625L131.001 124.657L131.295 125.027ZM138.765 118.014C138.101 116.48 138.562 115.685 139.132 114.703C139.222 114.548 139.314 114.388 139.406 114.22C140.287 112.595 141.552 111.689 142.827 110.777C143.311 110.431 143.797 110.083 144.263 109.695C145.201 108.914 145.514 109.401 145.741 110.19C145.799 110.391 145.936 110.618 146.075 110.849C146.453 111.475 146.851 112.134 145.749 112.406C144.279 112.767 144.281 113.385 144.557 114.492C144.658 114.899 144.721 115.389 144.112 115.498C143.622 115.589 143.169 115.327 143.086 114.915C142.792 113.444 141.783 113.679 141.022 114.166C140.158 114.72 139.822 115.884 140.28 116.759C140.383 116.955 140.483 117.157 140.583 117.361C141.207 118.625 141.857 119.943 143.455 120.328C144.847 120.663 145.163 121.742 145.478 122.817C145.641 123.375 145.804 123.933 146.118 124.384C146.695 124.052 146.838 123.598 146.86 123.073C146.865 122.936 146.868 122.801 146.87 122.669C146.889 121.66 146.905 120.781 148.378 120.277C150.572 119.528 151.629 120.593 152.872 121.995C153.894 123.148 153.704 124.146 153.02 125.305C152.241 126.627 152.57 127.889 152.929 129.266C153.052 129.734 153.177 130.216 153.264 130.717C154.108 129.755 154.278 128.711 154.479 127.478C154.585 126.823 154.701 126.115 154.93 125.337C155.588 128.424 157.196 129.532 159.793 129.323L159.647 129.384C158.318 129.937 157.164 130.417 157.959 132.165C158.102 132.481 157.76 133.299 157.373 133.069C156.583 132.598 155.862 132.865 155.138 133.135C154.468 133.383 153.794 133.633 153.06 133.302C152.423 133.014 151.938 133.492 151.463 133.962C151.281 134.141 151.1 134.319 150.914 134.452C150.789 134.542 150.666 134.642 150.544 134.743C150.007 135.184 149.465 135.628 148.68 135.164C147.678 134.57 147.506 133.626 147.723 132.539C147.899 131.659 148.06 130.775 148.218 129.902L148.22 129.893L148.221 129.885L148.35 129.179L148.423 128.78C149.027 128.685 149.128 128.999 149.227 129.305C149.253 129.385 149.278 129.465 149.313 129.537C149.607 130.147 150.005 130.439 150.659 129.968C151.205 129.575 151.661 129.192 151.438 128.384C151.046 126.955 148.733 126.172 147.519 127.105C146.422 127.948 145.331 127.466 144.639 126.72C143.471 125.462 142.411 124.034 141.979 122.292C141.499 120.357 140.373 119.327 138.335 119.472L137.84 119.507L137.321 119.546C136.451 119.61 135.58 119.674 134.708 119.721C134.207 119.747 133.908 119.389 133.783 118.961C133.613 118.376 134.128 118.285 134.46 118.227L134.544 118.212C134.708 118.178 134.871 118.135 135.035 118.087C135.183 118.043 135.332 117.995 135.481 117.946L135.486 117.945C136.462 117.629 137.475 117.302 138.765 118.014ZM154.178 143.153C154.066 143.086 153.953 143.019 153.839 142.953C153.545 143.96 153.982 144.625 154.461 145.354L154.491 145.398C156.348 148.216 156.017 149.505 153.171 150.988C153.074 151.038 152.978 151.09 152.882 151.143C152.806 151.185 152.731 151.227 152.656 151.269L152.49 151.362C152.323 151.457 152.155 151.551 151.986 151.642C151.881 151.699 151.775 151.755 151.669 151.809C151.404 151.942 151.144 152.09 150.883 152.239L150.881 152.239C149.725 152.896 148.567 153.554 147.098 152.895C146.727 152.727 146.335 152.812 146.391 153.315C146.4 153.402 146.406 153.493 146.411 153.587C146.418 153.72 146.421 153.86 146.424 154.001C146.442 154.84 146.461 155.738 147.257 155.911C147.306 155.921 147.36 155.934 147.416 155.947L147.439 155.953C148.208 156.136 149.534 156.453 149.925 154.755C150.182 153.639 151.179 153.198 152.032 154.544C152.065 154.596 152.097 154.649 152.129 154.703L152.218 154.851C152.416 155.186 152.615 155.523 152.89 155.774C153.554 156.376 154.332 156.252 155.093 156.131C155.313 156.096 155.532 156.061 155.747 156.044C156.308 156.002 156.473 155.357 156.446 154.865C156.411 154.163 155.976 154.115 155.504 154.063C155.151 154.023 154.777 153.981 154.533 153.663C154.824 153.01 155.139 152.358 155.456 151.699C156.11 150.344 156.777 148.962 157.278 147.485C157.922 145.588 157.731 145.085 156.271 144.36C155.707 144.08 155.167 143.752 154.614 143.417L154.178 143.153ZM131.089 144.181L131.092 144.179C132.789 143.402 134.283 142.718 133.921 140.229C135.216 141.16 136.635 141.474 138.044 141.787C138.912 141.98 139.777 142.172 140.606 142.506C140.005 143.442 139.218 144.039 138.37 144.55C138.29 144.598 138.203 144.677 138.115 144.757C137.798 145.046 137.456 145.358 137.265 144.363C137.199 144.015 133.407 144.818 133.235 145.238C133.072 145.636 133.309 145.892 133.533 146.134C133.598 146.203 133.662 146.272 133.714 146.343C134.596 147.519 135.495 148.68 136.435 149.895C136.772 150.331 137.115 150.773 137.464 151.226C135.688 151.697 135.288 150.615 134.921 149.621C134.677 148.962 134.448 148.343 133.842 148.243C132.792 148.071 132.355 147.331 131.91 146.579C131.448 145.796 130.977 144.999 129.801 144.812C130.225 144.576 130.663 144.375 131.089 144.181ZM164.221 120.402L164.118 120.608C163.923 120.996 163.746 121.351 163.579 121.708L163.543 121.784C163.063 122.809 162.781 123.41 161.131 122.846C159.631 122.332 158.256 121.861 156.984 120.901C156.361 120.432 155.577 120.459 155.431 121.54L155.426 121.584L155.419 121.649C155.416 121.685 155.413 121.722 155.411 121.759C155.385 122.12 155.36 122.459 154.811 122.361C154.353 122.278 154.125 121.917 154.056 121.438C153.908 120.398 153.966 119.485 154.912 118.749C155.667 118.163 155.892 117.441 154.679 117.053C153.651 116.722 153.75 115.885 153.832 115.18C153.844 115.082 153.855 114.985 153.863 114.894C153.92 114.218 154.442 114.174 154.962 114.13C155.188 114.111 155.413 114.092 155.601 114.022C156.073 113.845 156.353 114.22 156.216 114.57C155.779 115.679 156.218 116.575 156.664 117.483C156.969 118.105 157.277 118.733 157.307 119.44C157.381 121.141 159.422 121.941 161.059 121.232C161.633 120.984 162.204 120.727 162.775 120.469L162.78 120.467L162.785 120.465C163.016 120.361 163.247 120.257 163.479 120.153C163.646 120.078 163.814 120.004 163.982 119.929C164.024 119.911 164.098 119.967 164.387 120.068C164.33 120.183 164.275 120.294 164.221 120.402ZM109.525 145.241C109.433 145.717 109.835 145.792 110.286 145.746C111.017 145.06 111.542 145.442 112.084 145.835C112.321 146.008 112.562 146.183 112.824 146.271C114.319 146.775 115.143 147.924 115.978 149.09L116.06 149.204L116.187 149.38C116.494 149.805 116.847 150.292 117.384 150.011C117.757 149.817 117.63 149.474 117.506 149.139C117.471 149.045 117.437 148.952 117.414 148.863C117.245 148.217 116.991 147.595 116.737 146.973C116.238 145.752 115.737 144.528 115.885 143.108C115.94 142.586 115.315 142.024 114.714 142.161C114.205 142.276 113.436 142.961 113.741 143.322C114.48 144.198 113.821 144.169 113.416 144.151L113.375 144.149C113.343 144.147 113.312 144.146 113.285 144.146C113.181 144.145 113.074 144.148 112.966 144.151C112.235 144.17 111.469 144.189 111.205 143.156C111.086 142.685 110.638 142.635 110.379 142.883C109.832 143.406 109.712 144.132 109.594 144.842C109.572 144.976 109.55 145.109 109.525 145.241ZM148.057 138.337C147.249 138.586 146.499 138.479 145.884 137.869C145.711 137.697 145.55 137.491 145.389 137.286C144.756 136.479 144.137 135.687 142.856 137.042C142.559 137.355 142.183 136.735 141.979 136.358C141.758 135.948 141.992 135.872 142.188 135.807C142.274 135.779 142.354 135.752 142.384 135.702C142.802 135.023 142.478 134.495 142.149 133.958C141.969 133.664 141.787 133.368 141.724 133.042C141.201 133.001 141.129 133.299 141.059 133.59C141.017 133.764 140.976 133.936 140.839 134.03C140.386 134.34 139.992 134.367 139.464 134.158C138.847 133.912 138.839 133.556 138.892 132.992C139.051 131.306 140.246 130.359 141.584 130.327C142.798 130.297 143.28 131.622 143.198 132.901C143.113 134.217 143.661 135.236 144.933 135.499C146.196 135.76 147.223 136.41 148.257 137.064C148.384 137.144 148.511 137.224 148.638 137.303C148.749 137.373 148.861 137.442 148.974 137.511C149.024 137.583 149.075 137.654 149.127 137.725C149.182 137.802 149.238 137.879 149.292 137.957C149.342 138.03 149.39 138.104 149.435 138.18C149.687 138.602 150.015 139.175 149.483 139.461C149.04 139.7 148.936 139.401 148.828 139.092C148.767 138.917 148.705 138.738 148.579 138.653C148.473 138.583 148.363 138.518 148.253 138.454L148.151 138.394L148.117 138.374L148.057 138.337ZM111.595 156.612L111.613 156.572L111.704 156.522L111.75 156.497C111.716 156.535 111.682 156.571 111.648 156.609L111.595 156.612ZM115.901 151.838L111.75 156.497C113.645 155.441 115.528 154.374 115.901 151.838ZM111.586 156.612L111.595 156.612C111.226 157.409 110.564 157.898 109.901 158.388C109.559 158.642 109.216 158.895 108.913 159.191C108.534 159.566 108.198 159.579 107.843 159.17L107.742 159.052C107.543 158.819 107.342 158.584 107.106 158.394C106.855 158.193 106.505 158.051 106.16 157.91C105.483 157.635 104.823 157.366 104.949 156.679C105.132 155.683 106.06 155.059 106.951 154.46C107.057 154.389 107.162 154.318 107.265 154.247C107.32 154.21 107.375 154.172 107.429 154.134C107.535 154.059 107.638 153.984 107.737 153.907C108.723 153.141 109.512 154.129 109.47 154.902C109.366 156.732 110.408 156.676 111.586 156.612ZM153.126 166.348C152.963 166.899 152.634 167.386 152.31 167.867C151.677 168.806 151.059 169.723 151.708 171.044C151.875 171.381 151.189 171.52 150.731 171.368C150.632 171.335 150.526 171.302 150.416 171.267C149.561 170.999 148.472 170.657 148.796 169.835C149.304 168.543 148.791 167.776 148.25 166.968L148.247 166.964C148.137 166.8 148.026 166.633 147.922 166.461L147.887 166.404L147.852 166.349C147.719 166.144 147.593 165.947 147.752 165.695C147.917 165.436 148.243 165.246 148.46 165.46C149.258 166.247 150.188 166.217 151.166 166.185C151.807 166.164 152.468 166.142 153.126 166.348ZM139.252 163.156C139.602 163.194 139.962 163.164 140.317 163.164C140.317 163.178 140.317 163.191 140.32 163.204C140.532 163.204 140.747 163.226 140.959 163.202C141.168 163.179 141.406 163.194 141.646 163.209C142.323 163.252 143.018 163.296 143.155 162.49C143.317 161.543 143.267 160.328 142.127 159.657C141.059 159.027 140.555 159.667 140.007 160.362L139.896 160.502C139.642 160.818 139.306 161.07 138.974 161.318L138.958 161.33L138.946 161.34L138.934 161.349C138.877 161.391 138.821 161.433 138.765 161.476C138.626 161.584 138.434 161.65 138.242 161.717C137.806 161.867 137.37 162.018 137.562 162.656C137.737 163.238 138.241 163.201 138.734 163.165H138.743C138.826 163.159 138.909 163.153 138.99 163.15C139.026 163.149 139.061 163.148 139.096 163.148C139.15 163.149 139.202 163.151 139.252 163.156ZM164.602 169.131C162.242 168.79 161.067 170.188 159.891 171.586C159.462 172.096 159.034 172.606 158.547 173.032C158.536 173.042 158.525 173.052 158.514 173.063C158.501 173.075 158.488 173.088 158.476 173.101C158.447 173.131 158.418 173.163 158.389 173.197C158.344 173.249 158.3 173.304 158.255 173.361C157.967 173.719 157.664 174.096 157.233 173.709C156.661 173.195 156.825 172.384 157.445 171.823C157.795 171.506 158.143 171.187 158.491 170.868C159.506 169.939 160.52 169.009 161.584 168.138C162.829 167.116 163.873 167.311 164.602 169.131ZM138.753 126.267C139.199 126.559 139.664 126.863 140.225 126.942C140.295 126.455 140.288 125.971 140.282 125.482C140.268 124.44 140.254 123.38 140.983 122.238C140.551 122.416 140.162 122.601 139.796 122.774L139.787 122.779C138.85 123.224 138.067 123.597 137.114 123.589C136.408 123.585 136.214 124.353 136.041 125.036C136.007 125.171 135.974 125.303 135.938 125.425C135.818 125.826 136.269 126.019 136.404 125.936C137.36 125.355 138.033 125.796 138.753 126.267ZM150.317 144.218C152.914 145.008 153.757 147.124 152.336 148.831C151.976 149.265 151.557 149.471 151.054 149.401C150.574 149.337 150.587 148.962 150.6 148.625C150.603 148.539 150.606 148.454 150.601 148.379C150.57 147.939 150.503 147.501 150.435 147.059C150.296 146.153 150.154 145.227 150.317 144.218ZM143.948 147.046C144.817 147.804 145.58 148.631 145.582 150.027C147.535 148.419 146.865 146.99 145.847 145.57C145.28 144.775 144.536 144.745 143.834 145.281C143.07 145.859 143.309 146.49 143.948 147.046ZM107.687 118.846C108.007 120.395 106.963 120.374 106.033 120.232C105.777 120.192 105.447 120.233 105.119 120.273C104.411 120.361 103.711 120.448 103.765 119.726C103.839 118.731 104.846 117.374 106.295 117.275C107.263 117.208 107.92 117.719 107.687 118.846ZM149.339 108.3C148.948 107.89 148.524 107.446 147.668 107.319C147.668 107.689 147.666 108.045 147.665 108.39C147.663 109.185 147.66 109.925 147.673 110.664C147.681 111.186 147.798 111.769 148.452 111.68C149.3 111.568 150.156 111.175 150.609 110.471C151.086 109.725 150.412 109.209 149.855 108.782L149.811 108.748C149.737 108.691 149.666 108.629 149.597 108.563C149.511 108.48 149.428 108.393 149.342 108.304L149.339 108.3ZM163.216 105.897C163.472 106.716 163.753 107.612 164.615 108.523C164.672 108.245 164.726 107.981 164.779 107.727L164.912 107.09C165.106 106.165 165.272 105.373 165.41 104.574C165.524 103.903 165.013 103.533 164.538 103.226C164.077 102.926 163.584 103.004 163.147 103.333C162.599 103.747 162.572 104.285 162.842 104.863C162.994 105.189 163.103 105.536 163.216 105.897ZM139.128 156.636C139.408 157.603 138.883 158.193 138.373 158.768C137.879 159.325 137.398 159.866 137.673 160.719C137.629 160.723 137.582 160.733 137.536 160.743C137.441 160.763 137.346 160.783 137.268 160.756C136.412 160.446 136.189 159.708 135.968 158.976C135.861 158.624 135.755 158.274 135.58 157.974C135.179 157.289 135.901 157.18 136.48 157.094C136.591 157.077 136.697 157.061 136.788 157.043C137.302 156.935 137.82 156.851 138.359 156.763C138.61 156.722 138.866 156.681 139.128 156.636ZM149.459 157.849L149.623 157.797C149.721 157.163 149.422 156.984 149.165 157.005C147.09 157.195 145.055 157.235 143.007 156.617C142.321 156.408 142.172 157.16 142.355 157.821C142.527 158.445 142.742 158.993 143.492 158.509C144.263 158.008 144.814 157.677 145.911 158.158C146.986 158.63 148.339 158.203 149.459 157.849ZM163.484 117.685C162.972 118.517 162.297 119.458 161.112 119.322C160.344 119.234 159.032 118.79 159.355 117.851C159.688 116.884 160.79 116.805 161.781 116.734C161.903 116.725 162.022 116.717 162.139 116.707C162.201 116.701 162.263 116.696 162.323 116.689C162.805 116.638 163.553 116.628 163.484 117.685ZM159.398 112.776L159.358 112.805L159.32 112.833L159.26 112.877C159.145 112.959 159.029 113.044 158.909 113.131L158.816 113.199L158.5 113.43C160.346 114.752 161.881 114.576 162.472 113.08C162.681 112.55 162.84 111.991 162.257 111.523C161.751 111.119 161.367 111.303 160.932 111.64C160.448 112.016 159.952 112.375 159.398 112.776ZM112.541 106.337C112.591 106.187 112.598 105.994 112.605 105.797C112.624 105.288 112.644 104.746 113.407 104.796C114.573 104.874 114.992 105.981 115.098 106.955C115.185 107.753 114.989 108.724 113.964 108.959C113.352 109.104 112.575 107.643 112.541 106.337ZM110.58 107.929C110.392 106.811 109.801 105.805 108.553 105.532C107.925 105.489 107.588 105.797 107.506 106.361C107.435 106.84 109.245 109.508 109.56 109.398C110.233 109.166 110.654 108.371 110.58 107.929ZM133.984 134.472L133.984 134.469L134.012 133.901C134.02 133.736 134.029 133.572 134.038 133.409C133.423 133.24 132.97 133.463 132.93 133.719C132.896 133.968 132.88 134.221 132.866 134.473C132.812 135.377 132.759 136.269 131.801 136.911C131.677 136.994 132.249 138.345 132.893 138.514C133.465 138.664 133.762 137.893 133.81 137.321C133.892 136.368 133.939 135.41 133.984 134.472ZM152.766 117.465C151.743 116.301 151.589 115.485 151.899 114.541C151.943 114.406 151.994 114.272 152.044 114.138C152.338 113.356 152.628 112.584 151.658 111.86C151.271 111.571 151.512 110.947 151.944 110.827C152.707 110.615 153.219 111.105 153.19 111.841C153.147 113.041 153.042 114.239 152.922 115.615C152.872 116.196 152.818 116.808 152.766 117.465ZM147.476 144.755C147.809 144.794 148.156 144.835 148.521 144.879C147.918 143.773 147.037 143.227 146.192 142.703C146.054 142.617 145.916 142.531 145.781 142.444C145.143 142.038 144.475 142.319 144.3 143.063C144.146 143.713 144.395 144.349 145.198 144.467C145.916 144.572 146.638 144.657 147.438 144.75L147.455 144.753L147.476 144.755ZM112.88 115.178C111.948 115.94 110.946 115.935 109.954 115.929C109.131 115.924 108.315 115.919 107.551 116.355C107.249 116.526 106.855 116.181 106.984 115.721C107.143 115.159 107.377 114.584 108.11 114.656C109.241 114.764 110.371 114.893 111.502 115.022C111.961 115.074 112.42 115.127 112.88 115.178ZM152.254 108.084C152.723 108.29 153.086 108.012 153.036 107.86C152.973 107.657 152.928 107.453 152.891 107.254C152.861 107.094 152.837 106.936 152.814 106.786L152.814 106.784C152.694 106.001 152.601 105.389 151.889 105.379C151.141 105.371 149.626 105.585 149.782 106.623C149.857 107.112 150.825 107.502 151.673 107.844L151.919 107.943C152.036 107.991 152.149 108.038 152.254 108.084ZM164.753 172.101C164.774 173.546 165.031 174.643 165.619 175.657C165.794 175.959 165.943 176.371 165.582 176.631C165.268 176.857 165.065 176.653 164.851 176.438C164.807 176.394 164.762 176.349 164.716 176.307C162.88 174.653 162.85 174.263 164.753 172.101ZM145.699 163.173C146.665 162.648 147.693 162.09 147.699 160.743C147.677 160.618 147.676 160.492 147.676 160.372C147.674 160.082 147.673 159.829 147.366 159.729C146.987 159.603 146.603 159.852 146.465 160.162C146.054 161.094 145.551 161.88 144.695 162.503C144.318 162.776 144.65 163.782 145.15 163.48C145.326 163.375 145.511 163.274 145.699 163.173ZM116.865 144.505C116.801 142.824 117.302 141.733 118.799 141.398C119.197 141.31 119.788 141.701 119.724 142.11C119.491 143.614 118.333 144.16 116.865 144.505ZM157.101 106.883C158.616 105.548 159.888 104.427 161.163 103.306C161.041 103.156 160.919 103.004 160.8 102.848C160.42 103.186 159.927 103.399 159.425 103.616L159.423 103.616C158.242 104.125 157.015 104.654 157.101 106.883ZM99.6129 107.014C100.118 107.573 100.649 108.112 101.212 108.685L101.215 108.688L101.234 108.706C101.942 109.427 102.702 110.201 103.529 111.132C101.305 110.942 100.769 109.605 100.266 108.348C100.075 107.869 99.8874 107.402 99.6129 107.014ZM104.026 116.055L104.523 115.159C101.182 115.691 101.129 115.801 102.864 118.158C103.245 117.467 103.611 116.805 104.026 116.055ZM150.235 115.498C150.596 115.651 150.869 115.335 150.866 114.779C150.635 114.616 150.403 114.446 150.167 114.274C149.516 113.8 148.841 113.307 148.118 112.903C147.816 112.732 147.48 113.283 147.625 113.61C148.075 114.611 149.02 114.999 149.937 115.375C150.037 115.416 150.137 115.457 150.235 115.498ZM120.776 157.08L120.674 156.981C119.787 156.125 118.988 155.354 118.511 154.222C120.885 154.115 121.16 154.452 120.776 157.08ZM168.637 164.927C168.518 164.154 167.986 163.731 167.358 163.544C166.573 163.552 166.433 164.039 166.496 164.561C166.594 165.324 167.013 165.926 167.829 165.939C168.38 165.947 168.727 165.503 168.637 164.927ZM117.098 156.735C116.334 156.499 115.8 156.777 115.241 157.068C114.739 157.329 114.217 157.601 113.489 157.524C113.554 157.467 113.618 157.41 113.682 157.351L113.798 157.244C113.927 157.123 114.055 157 114.183 156.877L114.185 156.876C114.716 156.365 115.246 155.855 115.866 155.509C116.421 155.203 116.74 155.924 117.076 156.685L117.098 156.735ZM163.131 115.472C163.131 115.147 163.127 114.846 163.123 114.562C163.114 113.951 163.107 113.414 163.145 112.879C163.184 112.331 163.465 111.876 164.122 112.087C164.655 112.258 165.015 112.644 164.663 113.23L164.642 113.266C164.626 113.293 164.612 113.32 164.597 113.346C164.556 113.424 164.518 113.504 164.481 113.585C164.439 113.68 164.398 113.776 164.357 113.873C164.118 114.439 163.864 115.04 163.131 115.472ZM135.461 122.409C136.187 122.23 136.905 121.947 137.254 121.23C137.146 120.636 136.698 120.406 136.319 120.51L136.254 120.528C135.549 120.718 134.732 120.94 134.562 121.783C134.478 122.209 135.039 122.514 135.461 122.409ZM110.622 147.204C110.702 148.467 110.416 149.342 109.343 149.749C108.993 149.883 108.519 149.695 108.54 149.321C108.591 148.46 109.17 148.124 109.794 147.762C110.076 147.598 110.367 147.429 110.622 147.204ZM110.733 105.296C110.92 105.326 111.106 105.355 111.29 105.39L111.497 105.037C111.323 104.925 111.151 104.811 110.979 104.696C110.575 104.426 110.171 104.157 109.745 103.929C109.703 103.907 109.661 103.882 109.619 103.854C109.568 103.821 109.516 103.786 109.465 103.75C109.152 103.532 108.826 103.305 108.413 103.597C108.267 103.699 108.145 103.972 108.161 104.157C108.209 104.758 108.647 104.842 109.065 104.921C109.198 104.946 109.33 104.971 109.446 105.013C109.857 105.159 110.295 105.228 110.733 105.296ZM111.346 118.276C111.054 119.18 110.514 119.956 109.47 120.202C109.123 120.285 108.961 119.734 109.094 119.657C109.508 119.42 109.675 118.977 109.839 118.54C110.049 117.983 110.254 117.437 110.964 117.348C111.294 117.307 111.308 117.628 111.323 117.969C111.328 118.073 111.332 118.178 111.346 118.276ZM105.273 106.831C105.019 106.714 104.766 106.597 104.552 106.439C104.157 106.426 103.945 106.597 104.019 106.936C104.135 107.448 104.56 107.636 104.987 107.824C105.439 108.024 105.893 108.224 105.983 108.812C106.05 108.725 106.14 108.63 106.231 108.535C106.427 108.329 106.623 108.122 106.582 107.996C106.364 107.336 105.813 107.082 105.273 106.831ZM108.736 173.639C108.49 173.407 108.146 173.336 107.807 173.266C107.283 173.158 106.769 173.052 106.637 172.358C106.592 172.127 106.963 171.715 107.377 171.729C108.481 171.758 108.707 172.58 108.736 173.639ZM165.741 109.069C165.646 109.569 165.937 109.84 166.483 109.864L166.542 109.842C167.081 109.64 167.671 109.418 167.766 108.711C167.842 108.122 167.379 108.052 166.944 108.103C166.359 108.173 165.86 108.438 165.741 109.069ZM106.505 151.745C106.399 151.925 106.307 152.105 106.218 152.277C105.853 152.988 105.553 153.572 104.669 153.484C104.298 153.447 104.043 153.016 104.173 152.657C104.501 151.745 105.189 151.747 106.035 151.749C106.187 151.749 106.344 151.75 106.505 151.745ZM105.362 164.693C105.847 164.556 106.351 164.413 106.439 163.734C106.155 163.344 105.826 162.953 105.289 163.004C104.629 163.071 104.324 163.55 104.348 164.173C104.369 164.713 104.769 164.866 105.236 164.73L105.362 164.693ZM158.667 157.259C158.608 157.242 158.547 157.225 158.486 157.208C158.052 157.09 157.578 156.961 157.678 156.387C157.766 155.873 158.266 155.582 158.823 155.67C159.31 155.75 159.877 155.932 159.83 156.537C159.789 157.052 159.363 157.128 158.954 157.201C158.855 157.218 158.758 157.236 158.667 157.259ZM148.349 102.95C147.366 103.055 147.037 103.64 147.249 104.874C147.416 104.8 147.584 104.736 147.75 104.673C148.444 104.41 149.073 104.17 149.189 103.362C149.244 102.982 148.706 102.913 148.349 102.95ZM150.519 162.819L150.556 162.835C150.967 163.007 151.443 163.208 151.34 163.681C151.221 164.232 150.826 164.77 150.169 164.687C149.711 164.63 149.504 164.103 149.528 163.702C149.554 163.154 149.981 162.867 150.519 162.819ZM116.515 165.155C117.315 165.439 117.83 164.997 118.299 164.152C118.041 164.173 117.809 164.188 117.595 164.202C117.148 164.231 116.778 164.255 116.415 164.315C116.236 164.344 116.071 164.134 115.912 163.932C115.648 163.595 115.401 163.282 115.143 164.149C114.983 164.691 115.645 164.889 116.193 165.053L116.198 165.055L116.271 165.077L116.354 165.102C116.411 165.119 116.465 165.137 116.515 165.155ZM156.234 169.463C156.279 170.11 156.033 170.394 155.532 170.447C154.994 170.504 154.443 170.348 154.318 169.824C154.178 169.23 154.761 168.978 155.217 168.828C155.842 168.623 156.078 169.085 156.234 169.463ZM146.255 130.712C146.682 130.701 146.96 130.316 147.146 129.866C147.042 129.46 146.799 129.112 146.364 129.024C145.874 128.922 145.556 129.222 145.519 129.7C145.479 130.214 145.643 130.728 146.255 130.712ZM139.133 145.548C140.206 145.863 140.777 146.549 141.346 147.234L141.422 147.325C141.192 147.091 140.824 147.075 140.448 147.059C139.747 147.029 139.023 146.998 139.133 145.548ZM105.559 102.487C105.972 102.471 106.213 102.265 106.354 101.834L106.32 101.778C106.055 101.331 105.772 100.853 105.164 100.751C104.724 100.673 104.48 100.914 104.547 101.358C104.634 101.941 104.772 102.514 105.559 102.487ZM99.446 161.987C99.3268 162.701 98.7836 162.975 98.1503 163.103C97.7767 163.178 97.4561 163.052 97.4269 162.592C97.382 161.885 97.8904 161.709 98.3884 161.537L98.4789 161.506C98.9373 161.345 99.3029 161.407 99.446 161.987ZM136.809 155.673C136.551 155.443 136.276 155.283 136.02 155.134C135.548 154.86 135.143 154.624 135.031 154.062C135.013 153.968 135.484 153.62 135.628 153.674C136.369 153.947 136.894 154.442 136.809 155.673ZM160.775 100.607L160.83 100.623L160.924 100.652C161.274 100.638 161.451 100.331 161.409 100.09C161.298 99.4824 160.898 99.0785 160.251 99.0411C159.851 99.0197 159.57 99.1882 159.658 99.6698C159.773 100.306 160.266 100.454 160.775 100.607ZM111.499 162.795L109.364 164.184C111.203 164.596 111.505 164.376 111.499 162.795ZM146.899 117.508C146.854 117.974 147.23 118.26 147.652 118.444C148.123 118.522 148.293 118.126 148.357 117.821C148.455 117.342 148.176 116.984 147.681 116.935C147.294 116.898 146.934 117.155 146.899 117.508ZM158.444 101.738C158.338 102.089 158.168 102.468 157.755 102.311C157.281 102.131 157.029 101.676 156.976 101.165C156.934 100.757 157.263 100.771 157.505 100.781L157.554 100.783C158.142 100.796 158.391 101.187 158.444 101.738ZM169.53 97.8076C168.701 97.6229 168.126 98.0537 167.485 98.835C168.505 99.1104 169.218 99.0383 169.724 98.3132C169.785 98.2249 169.634 97.8316 169.53 97.8076ZM96.2558 167.986C97.0692 168.082 97.5594 167.622 97.7873 166.736C97.5591 166.94 97.2484 166.945 96.9405 166.95C96.4976 166.957 96.0603 166.963 95.8821 167.563C95.8504 167.665 96.11 167.97 96.2558 167.986ZM170.169 110.204C170.115 110.298 170.088 110.418 170.061 110.538C169.996 110.828 169.931 111.117 169.493 111.054C169.149 111.004 168.876 110.733 168.939 110.311C169.006 109.861 169.228 109.481 169.713 109.481C170.134 109.479 170.288 109.783 170.169 110.204ZM96.2955 108.483C96.9553 108.355 97.1673 107.833 97.2918 107.135C97.3262 106.806 96.9526 106.765 96.7354 106.806C96.1021 106.913 95.7709 107.333 95.7868 108.001C95.7947 108.339 95.9564 108.547 96.2955 108.483ZM177.294 168.537C177.681 168.604 177.94 168.834 177.906 169.225L177.9 169.306C177.866 169.754 177.827 170.282 177.22 170.3C176.78 170.313 176.764 169.848 176.74 169.516C176.711 169.085 176.79 168.679 177.294 168.537ZM143.932 153.356C143.86 153.701 144.117 154.008 144.47 154.169C144.925 153.891 145.143 153.473 145.121 152.952C145.108 152.684 145.082 152.342 144.719 152.328C144.112 152.307 144.031 152.781 143.962 153.189L143.952 153.249L143.942 153.3L143.932 153.356ZM139.671 153.942C140.174 153.971 140.503 154.281 140.614 154.696C140.731 155.135 140.392 155.336 139.986 155.285C139.52 155.228 139.228 154.918 139.149 154.461C139.094 154.15 139.313 154.073 139.52 154L139.554 153.988C139.574 153.981 139.595 153.973 139.614 153.966C139.634 153.958 139.653 153.95 139.671 153.942ZM124.47 121.856C124.475 122.244 124.793 122.447 125.363 122.436C125.379 122.43 125.397 122.425 125.416 122.419L125.422 122.417L125.427 122.415L125.474 122.401C125.725 122.324 126.088 122.214 126.049 121.752C126.022 121.412 125.694 121.152 125.299 121.139C124.817 121.123 124.464 121.366 124.47 121.856ZM98.0708 111.121C97.4243 111.137 97.2732 110.787 97.2414 110.431C97.2017 109.976 97.5568 109.834 97.9357 109.808C98.2934 109.783 98.7041 109.783 98.7147 110.281C98.7223 110.654 98.4773 110.821 98.2738 110.96C98.1938 111.014 98.1201 111.065 98.0708 111.121ZM162.225 184.548C162.493 183.493 162.185 182.945 160.982 182.653L161.011 182.754C161.237 183.55 161.411 184.165 162.225 184.548Z" fill="#FE0000"/>
</svg>
