<svg width="40" height="40" viewBox="0 0 40 40" fill="none" xmlns="http://www.w3.org/2000/svg">
<path fill-rule="evenodd" clip-rule="evenodd" d="M28.559 39.539C28.943 39.8028 29.3353 39.9906 29.8132 40C30.7512 39.9233 31.4149 39.3204 32.0526 38.7412C32.1096 38.6895 32.1663 38.638 32.223 38.587C33.1581 37.745 34.0562 36.862 34.9543 35.979C35.401 35.5398 35.8477 35.1007 36.2989 34.6666C36.5793 34.3969 36.8653 34.1332 37.1513 33.8695C37.587 33.468 38.0224 33.0667 38.4372 32.6444C39.2451 31.822 39.5343 30.3913 39.0499 29.6675C38.2503 28.4714 37.369 27.3421 36.3072 26.361C36.0063 26.0829 35.7036 25.8066 35.4009 25.5303C34.1066 24.3484 32.8119 23.1662 31.6484 21.8453C30.5495 20.5986 30.517 19.6044 31.628 18.3783L31.7335 18.2617C32.4735 17.4438 33.2146 16.6248 34.1066 15.9562C35.567 14.8619 36.8546 13.5662 38.1394 12.2732L38.2234 12.1888C39.6589 10.7458 39.6477 9.69813 38.2429 8.23638C38.2278 8.2207 38.2123 8.20557 38.1969 8.19045C38.1764 8.17018 38.156 8.14992 38.1369 8.12847C37.4592 7.34919 36.6926 6.66479 35.9261 5.98049C35.6611 5.74396 35.3961 5.50742 35.1349 5.26695C34.386 4.57769 33.7798 3.76852 33.1736 2.95926C32.7676 2.41725 32.3615 1.87514 31.9125 1.36907C30.3478 -0.394032 29.313 -0.451332 27.5995 1.18039C26.2682 2.4487 25.0158 3.79401 23.7728 5.1496C23.6523 5.28088 23.5326 5.4129 23.4128 5.54492C22.5686 6.47538 21.7254 7.40475 20.649 8.08712C20.0307 8.4786 19.4515 8.51802 18.8435 8.07209C17.5019 7.08827 16.2737 5.97298 15.159 4.74125C14.7931 4.33694 14.4362 3.92401 14.0794 3.51118C13.1372 2.42083 12.195 1.33056 11.085 0.39836C10.4993 -0.0935962 9.87076 -0.0898373 9.27946 0.265057C8.20471 0.910944 7.15785 1.60285 6.36015 2.61583C5.49738 3.71141 4.44587 4.60327 3.32556 5.42473C2.41351 6.09409 1.61675 6.8873 0.88041 7.76422C0.247274 8.51802 0.331881 9.19114 0.713993 9.97509C1.20204 10.9757 1.94768 11.7641 2.69151 12.5508C2.87863 12.7486 3.06564 12.9464 3.2484 13.1473C4.1942 14.1875 5.16434 15.2052 6.13458 16.2228C6.69318 16.8088 7.25182 17.3947 7.80586 17.985C8.37764 18.5942 8.39066 19.2542 7.98623 19.9856C7.37727 21.0887 6.521 21.9777 5.56804 22.7484C3.62586 24.32 1.8436 26.0409 0.301199 28.017C0.0631917 28.3231 -0.0334996 28.6207 0.0101972 28.9915C0.12116 29.9329 0.672245 30.6637 1.2043 31.3694L1.30622 31.5047C1.8964 32.292 2.61133 32.9611 3.32779 33.6315C4.0244 34.2834 4.72244 34.9366 5.30865 35.7012C6.01058 36.6175 6.8213 37.4624 7.66269 38.2528C8.78392 39.3062 9.71922 39.723 11.0636 38.5214C11.2423 38.3616 11.4223 38.203 11.6023 38.0444C12.2147 37.5047 12.8276 36.9647 13.3916 36.3771C13.8308 35.9192 14.2594 35.4517 14.688 34.9843C15.6346 33.9516 16.5812 32.919 17.6423 31.991C19.1001 30.7161 20.1581 30.6992 21.5294 32.098C22.4126 32.9993 23.2094 33.9719 24.0043 34.9492C25.3719 36.6306 26.7516 38.2989 28.559 39.539ZM8.01893 6.09619C8.07151 6.17916 8.12526 6.26406 8.15823 6.35886C8.43063 6.06218 8.38879 5.80208 8.15079 5.55986C8.07827 5.4867 7.92393 5.47075 7.89232 5.55895C7.81436 5.7732 7.9143 5.93099 8.01893 6.09619ZM29.5933 5.9485C29.6192 5.94978 29.6456 5.95116 29.6725 5.95216C29.7077 5.95363 29.7438 5.95473 29.7806 5.9551C29.365 5.4989 29.0285 5.3149 28.6631 5.8162C28.6436 5.84316 28.6168 5.86819 28.5899 5.89331C28.508 5.96968 28.4254 6.04687 28.545 6.18045C28.6538 6.30156 28.8072 6.24426 28.8742 6.15414C29.047 5.92099 29.2793 5.93273 29.5695 5.9474L29.5933 5.9485ZM8.7988 8.6438C8.50649 8.89107 8.21586 8.98614 7.94552 9.07461C7.81345 9.11788 7.68622 9.15951 7.566 9.21653C7.35309 9.31692 7.13647 9.37615 6.96726 9.14419C6.85569 8.99118 6.84826 8.79966 6.93286 8.64573C7.04722 8.43826 7.24153 8.31999 7.49348 8.37069C7.77559 8.42726 8.05816 8.48712 8.37997 8.55533L8.38138 8.55561C8.51306 8.58348 8.65132 8.61282 8.7988 8.6438ZM13.2493 10.8322C13.9383 9.58646 13.8816 9.40805 12.5028 8.74621C13.3804 10.5844 13.5459 11.1618 11.0292 11.4114C10.9987 11.4145 10.9676 11.4167 10.9365 11.4189C10.7196 11.4341 10.5024 11.4493 10.4723 11.7663C10.4528 11.9776 10.4732 12.1954 10.6731 12.2949C10.9316 12.4226 11.3639 12.4414 11.4401 12.247C11.7173 11.537 11.963 11.7815 12.2786 12.0957C12.306 12.1229 12.3339 12.1507 12.3624 12.1784C12.6543 12.462 13.0746 12.4404 13.2912 12.1456C13.4979 11.8643 13.3102 11.8297 13.1192 11.7946C13.0559 11.7829 12.9923 11.7712 12.9425 11.7504C12.7984 11.6903 12.8533 11.5392 12.9165 11.4236C13.0262 11.2256 13.1396 11.0303 13.2493 10.8322ZM17.9983 16.1497C18.0342 16.1655 18.0749 16.1894 18.1155 16.2132C18.2014 16.2634 18.2868 16.3134 18.3247 16.2886C19.0058 15.846 19.158 16.2981 19.3066 16.7399C19.3173 16.7715 19.3279 16.8031 19.3387 16.8343C19.3441 16.8498 19.3495 16.8652 19.3549 16.8804L19.365 16.9081L19.3697 16.9208C19.4813 17.2224 19.5524 17.4147 19.9898 17.2471C20.4556 17.0687 20.6954 17.3992 20.5197 17.8808C20.4787 17.9934 20.4228 18.1003 20.3668 18.2072C20.3358 18.2664 20.3048 18.3257 20.2764 18.3859C20.2594 18.4218 20.2434 18.458 20.2287 18.4948C19.9879 19.0993 20.013 19.6063 20.6796 19.9499C21.0611 20.1464 21.4298 20.3683 21.7986 20.5904C22.0096 20.7174 22.2206 20.8443 22.434 20.9666C22.5725 21.0464 22.6981 21.1262 22.6823 21.3027C22.6618 21.5308 22.4396 21.6116 22.302 21.5871C22.1713 21.5642 22.0192 21.5858 21.8662 21.6075C21.4555 21.6657 21.0376 21.725 21.005 20.9281C20.9939 20.6615 20.5327 20.3874 20.1664 20.4052C19.8457 20.4202 19.5305 20.5902 19.4989 20.9807C19.485 21.1497 19.4069 21.2398 19.2934 21.1985C19.2126 21.1694 19.1177 20.9826 19.14 20.8953C19.1684 20.7853 19.2207 20.6817 19.273 20.578C19.3235 20.478 19.3739 20.3779 19.4031 20.2719C19.4307 20.172 19.4954 20.0674 19.5606 19.9622C19.7443 19.6655 19.9314 19.3634 19.2981 19.1472C19.5334 17.737 18.6725 18.3391 18.3096 18.5929L18.3087 18.5935C18.2577 18.6292 18.2166 18.6579 18.1899 18.6731C17.5168 19.0571 17.6376 19.6955 18.0355 20.2851C18.0497 20.3055 18.0415 20.3412 18.0321 20.3817C18.0273 20.4024 18.0222 20.4245 18.0197 20.4465C17.8806 20.5639 17.8013 20.4737 17.7223 20.3839C17.6572 20.3098 17.5924 20.2361 17.4944 20.2794C17.6001 20.51 17.4768 20.6585 17.3571 20.8028C17.2735 20.9035 17.1916 21.0021 17.1904 21.1252C17.1876 21.4182 17.3615 21.4388 17.5753 21.2464C17.7008 21.1337 17.8645 20.9901 18.0327 21.1469C18.168 21.2724 18.1578 21.4368 18.1475 21.6027C18.1419 21.6923 18.1363 21.7823 18.1536 21.8669C18.1959 22.0751 18.0767 22.0598 17.9532 22.0439L17.9514 22.0436C17.9218 22.0398 17.8919 22.0361 17.864 22.0354C17.8399 22.0348 17.8173 22.0365 17.7975 22.0425C17.3066 22.1918 17.0156 22.5532 16.9124 23.0498C16.8566 23.3183 16.9561 23.5737 17.2778 23.5333C17.8701 23.4591 17.7456 23.7423 17.6028 24.0674L17.5921 24.0919C17.5777 24.1247 17.5628 24.1578 17.5479 24.191C17.3631 24.6019 17.1735 25.0235 18.0225 24.7828C18.1564 24.7453 18.2652 24.8091 18.3498 24.9134C18.4894 25.0847 18.3598 25.17 18.2491 25.2427L18.2233 25.2597C18.0391 25.3835 17.9936 25.574 17.9489 25.7612C17.9417 25.7914 17.9345 25.8215 17.9268 25.8512C17.9162 25.8914 17.9065 25.9322 17.8968 25.9729L17.8964 25.9747C17.8103 26.3354 17.7296 26.6735 17.1839 26.3187C17.0993 26.2635 17.0236 26.3366 16.9486 26.409C16.9049 26.4512 16.8615 26.4931 16.8167 26.5093C16.7903 26.519 16.7636 26.5292 16.7367 26.5396L16.6886 26.5584C16.3427 26.6939 15.9733 26.8385 15.7112 26.3685C15.5807 26.1346 15.388 26.1413 15.1933 26.1481C15.0925 26.1516 14.9913 26.1552 14.8977 26.1254C14.9583 25.8043 15.2109 25.7444 15.441 25.6898L15.4629 25.6846C15.483 25.6798 15.503 25.6751 15.5225 25.67C15.8845 25.5767 16.0521 25.3025 16.2184 25.0305L16.219 25.0297C16.2849 24.922 16.3505 24.8145 16.4281 24.719C16.5489 24.5707 16.4922 24.2966 16.2812 24.2018C16.0849 24.1132 16.0664 24.2693 16.0499 24.4096C16.048 24.4255 16.0462 24.4411 16.0441 24.4562C16.0153 24.659 15.8795 24.6721 15.7131 24.6439C15.6229 24.6289 15.5141 24.6158 15.436 24.6514C15.3337 24.6985 15.3127 24.8455 15.2931 24.9828C15.2653 25.1772 15.2404 25.352 14.9907 25.194C14.6983 25.0084 14.7314 24.428 14.9981 24.0337C14.8559 23.8366 14.6467 23.7248 14.4385 23.8366C14.2357 23.9446 14.3189 24.0409 14.4043 24.1396C14.4532 24.1962 14.5029 24.2536 14.4998 24.3144C14.4989 24.3296 14.4999 24.3475 14.5009 24.3654L14.5015 24.3767C14.5033 24.4112 14.5035 24.4437 14.4887 24.4552C14.3568 24.5573 14.3268 24.7078 14.2964 24.8607C14.268 25.0032 14.2392 25.1478 14.127 25.257C13.873 25.1644 13.9271 24.9869 13.972 24.8396C13.9803 24.8122 13.9884 24.7858 13.9941 24.7613C14.0061 24.7082 14.0202 24.6558 14.0341 24.6039C14.1143 24.3044 14.1892 24.0244 13.8509 23.754C13.6389 23.584 13.9057 23.2696 14.0061 23.3728C14.1806 23.5532 14.3953 23.5499 14.6048 23.5467C14.8101 23.5436 15.0104 23.5405 15.1628 23.7107L15.1646 23.7098C15.1881 23.7044 15.2125 23.7008 15.2368 23.6972C15.2884 23.6896 15.3398 23.6821 15.3821 23.6573L15.4117 23.6399C15.6412 23.5058 15.8791 23.3666 15.8042 23.0282C15.7415 22.7439 15.5686 22.7749 15.3934 22.8063C15.2671 22.8288 15.1395 22.8517 15.0511 22.7569C15.0116 22.5884 15.1176 22.5375 15.2248 22.486C15.2968 22.4514 15.3694 22.4166 15.3989 22.3457C15.5048 22.0894 15.4863 21.851 15.305 21.6369C15.1193 21.4186 14.9899 21.5574 14.8742 21.6816L14.847 21.7105C14.8381 21.7198 14.8293 21.7288 14.8206 21.7374C14.6095 21.9429 14.3455 22.0265 14.1642 21.8069C13.9866 21.5919 14.1884 21.405 14.391 21.2633C14.5528 21.1506 14.669 21.0238 14.6225 20.7629C14.4738 19.9311 14.723 19.6269 15.5969 19.4823C15.444 19.3404 15.3394 19.2433 15.2185 19.2135C14.9563 19.149 14.6176 19.4012 13.5441 20.2006C13.5524 19.32 13.3367 18.5182 12.9184 17.7484C13.0618 17.6165 13.1787 17.6837 13.2996 17.7532C13.3888 17.8045 13.4802 17.857 13.5859 17.8319C14.2674 17.6695 14.6039 17.8292 14.1242 18.5718C14.0433 18.6965 14.0099 18.8721 14.1577 18.9819C14.2665 19.0627 14.4347 19.0439 14.5008 18.9388C14.9981 18.1493 15.4472 18.4704 15.9056 18.9773C15.9272 19.0011 15.9826 18.9944 16.0369 18.9879C16.0617 18.9849 16.0863 18.9819 16.1073 18.9819C16.1372 18.8365 16.068 18.7528 16.0013 18.6722C15.9745 18.6398 15.9482 18.6079 15.9288 18.5727C15.6564 18.0798 15.7893 17.8469 16.363 17.8235L16.3766 17.8231C16.3823 17.823 16.388 17.8231 16.3937 17.8232L16.4021 17.8234C16.4177 17.8237 16.4333 17.8245 16.4489 17.8252C16.4705 17.8262 16.492 17.8272 16.5136 17.8272C17.7901 17.8292 18.0002 17.5925 17.8635 16.3092L17.8607 16.3111C17.7905 16.2851 17.7591 16.2051 17.7278 16.1253C17.6766 15.9948 17.6255 15.8646 17.4052 15.9713C17.17 16.0858 17.1291 16.2642 17.1709 16.5308C17.2554 17.0591 16.9049 17.1768 16.566 17.2906C16.4202 17.3396 16.2765 17.3878 16.1705 17.4678C15.8739 17.6912 15.596 17.325 15.5578 16.9495C15.5479 16.8533 15.4766 16.7759 15.407 16.7004C15.3007 16.5851 15.1984 16.4741 15.3254 16.3074C15.4872 16.0961 15.7298 15.8942 16.0338 15.9534C16.7516 16.0924 17.13 15.7581 17.3382 15.1C17.3748 14.9837 17.4598 14.8826 17.5664 14.7559L17.6053 14.7096C17.6189 14.6933 17.6327 14.6765 17.6468 14.6593C17.6796 14.6192 17.7136 14.5761 17.7482 14.5292L15.4751 14.1443C15.5078 14.1204 15.541 14.0972 15.5739 14.0743C15.8106 13.9096 16.027 13.7589 15.8507 13.4374C15.8373 13.413 15.8252 13.3859 15.8129 13.3583C15.7627 13.2457 15.709 13.1255 15.5523 13.1511C15.2436 13.2027 14.9712 13.336 14.8931 13.6787C14.8749 13.7594 14.8253 13.8372 14.7758 13.9151C14.6459 14.1193 14.5157 14.324 14.947 14.5809C15.2538 14.763 15.0484 15.2944 14.7983 15.6023C14.497 15.9722 14.0498 16.1881 13.6305 16.3158C12.5428 16.6472 12.1123 17.2978 12.3531 18.4675C12.3632 18.5159 12.3757 18.564 12.3889 18.6118L12.406 18.6728L12.4062 18.6736C12.4162 18.7089 12.4261 18.7442 12.4354 18.7796L12.4417 18.8037L12.4501 18.8381C12.4554 18.8609 12.4603 18.8838 12.4647 18.9069C12.4972 19.0787 12.4182 19.2205 12.262 19.2664C12.0789 19.3209 12.0465 19.1884 12.0156 19.0622C12.0102 19.0402 12.0049 19.0185 11.9989 18.998C11.9864 18.9552 11.9734 18.9124 11.9601 18.8697C11.9477 18.8298 11.935 18.7899 11.9223 18.75L11.9218 18.7483C11.864 18.5668 11.8062 18.3851 11.7711 18.199C11.7603 18.1411 11.7533 18.0797 11.7464 18.0193C11.7122 17.7169 11.6808 17.4409 11.1826 17.7765C11.0508 17.865 10.9392 17.738 10.8477 17.634C10.8353 17.6198 10.8233 17.6062 10.8116 17.5935C10.2315 16.9654 9.656 16.3327 9.08143 15.699C9.07372 15.6904 9.06544 15.6817 9.05681 15.6727L9.04134 15.6568C8.94559 15.5581 8.82666 15.4356 8.9708 15.33L9.00143 15.3075L9.04275 15.2768C9.25342 15.12 9.47262 14.9569 9.75548 14.9366C9.93584 14.9235 10.0632 14.9864 10.0409 15.1808C9.98512 15.6671 10.2241 15.7394 10.6145 15.6267C10.7373 15.5911 10.8767 15.5544 10.9464 15.6914C11.0376 15.8708 10.9 15.9731 10.7652 16.0426L10.7367 16.0571L10.6959 16.0774C10.4857 16.1814 10.27 16.288 10.5076 16.5786C10.5241 16.5987 10.5406 16.6192 10.5572 16.64L10.5592 16.6424C10.7776 16.9145 11.0214 17.2178 11.4383 17.0255L11.5086 16.9932L11.5937 16.9547C12.1732 16.6924 12.7534 16.4299 12.9044 15.6605C12.961 15.3716 13.1907 15.3168 13.4281 15.2602C13.6119 15.2163 13.8004 15.1713 13.9169 15.0156C13.8388 14.7922 13.6519 14.7771 13.4539 14.7771C13.3999 14.7774 13.3445 14.7812 13.2893 14.7849C13.0053 14.8043 12.7264 14.8233 12.6664 14.3659C12.6646 14.3516 12.6626 14.3374 12.6606 14.3233L12.6562 14.2942C12.6478 14.2402 12.6382 14.1877 12.6288 14.1361C12.5667 13.7939 12.5122 13.4941 12.8514 13.0891C13.4213 12.409 14.0574 12.4623 14.706 12.5167C14.8776 12.531 15.0499 12.5454 15.2222 12.5464C15.3829 12.5471 15.5435 12.5673 15.7477 12.5929C15.8567 12.6067 15.9781 12.6219 16.1185 12.6366C15.8196 12.3322 15.4815 12.2782 15.1172 12.2199C14.8152 12.1716 14.495 12.1204 14.1642 11.9213C15.3738 11.8865 15.6443 11.2801 15.5048 10.3347C15.5527 10.4026 15.5971 10.4721 15.6401 10.5396C15.8714 10.902 16.0652 11.2056 16.5629 10.8913C16.6419 10.8417 16.932 10.9552 16.8687 11.0923C16.731 11.3883 16.8154 11.6535 16.9014 11.9238C16.9698 12.1387 17.0392 12.3568 16.9989 12.5962C16.8957 13.2046 17.9249 14.1585 18.6659 14.1894C18.3154 14.3095 18.3104 14.5256 18.3054 14.7389C18.303 14.8425 18.3006 14.9454 18.2587 15.0362C18.1774 15.2116 18.0336 15.2978 17.8873 15.3856C17.7775 15.4514 17.6663 15.5181 17.579 15.6239C17.6841 15.7546 17.7857 15.8824 17.8864 16.0089L17.8951 16.0199L17.9983 16.1497ZM20.6192 13.689C20.3864 13.1507 20.548 12.8721 20.7479 12.5275C20.7795 12.473 20.8121 12.4168 20.8442 12.3578C21.1534 11.7877 21.5973 11.4699 22.0444 11.15C22.2143 11.0284 22.3847 10.9065 22.5484 10.7702C22.8775 10.4961 22.9872 10.6669 23.0671 10.9439C23.0874 11.0145 23.1354 11.094 23.1843 11.1751C23.3169 11.3949 23.4564 11.626 23.0699 11.7212C22.5539 11.8479 22.5549 12.0649 22.6516 12.4535C22.6869 12.5962 22.7092 12.7679 22.4954 12.8065C22.3234 12.8384 22.1644 12.7464 22.1356 12.6018C22.0324 12.0855 21.6782 12.1681 21.4113 12.339C21.1082 12.5332 20.9902 12.9417 21.151 13.2486C21.1871 13.3176 21.2221 13.3884 21.2573 13.4599C21.4761 13.9036 21.7042 14.3659 22.2648 14.5011C22.7532 14.6184 22.8641 14.9971 22.9746 15.3744C23.032 15.5702 23.0892 15.7658 23.1992 15.9242C23.4018 15.8079 23.4521 15.6483 23.4595 15.4643C23.4615 15.4163 23.4624 15.3689 23.4633 15.3223C23.4698 14.9685 23.4755 14.6599 23.9922 14.4832C24.762 14.2203 25.133 14.5939 25.569 15.0859C25.9279 15.4905 25.8609 15.8407 25.6211 16.2472C25.3477 16.7111 25.4632 17.154 25.5893 17.6373C25.6321 17.8016 25.6762 17.9704 25.7066 18.1464C26.0029 17.8086 26.0625 17.4424 26.1329 17.0099C26.1703 16.7801 26.2107 16.5315 26.2914 16.2585C26.522 17.3419 27.0863 17.7305 27.9974 17.6573L27.9463 17.6785C27.4799 17.8726 27.0751 18.0411 27.3541 18.6543C27.4043 18.7651 27.2843 19.0524 27.1486 18.9716C26.8713 18.8062 26.6184 18.9002 26.3641 18.9946C26.129 19.0819 25.8927 19.1696 25.635 19.0533C25.4117 18.9521 25.2415 19.1201 25.0746 19.2848C25.0108 19.3477 24.9475 19.4102 24.882 19.4569C24.8381 19.4883 24.7952 19.5235 24.7522 19.5588C24.5637 19.7136 24.3738 19.8695 24.0982 19.7067C23.7468 19.4983 23.6863 19.1669 23.7626 18.7857C23.8243 18.4767 23.8806 18.1666 23.9362 17.8603L23.9367 17.8573L23.9373 17.8543L23.9823 17.6066L24.008 17.4667C24.2199 17.4333 24.2554 17.5434 24.29 17.6507C24.2991 17.679 24.3082 17.7071 24.3204 17.7324C24.4236 17.9464 24.5631 18.0487 24.7927 17.8835C24.9842 17.7455 25.1441 17.6113 25.066 17.3278C24.9284 16.8264 24.1168 16.5514 23.691 16.879C23.3061 17.1747 22.923 17.0058 22.6804 16.7438C22.2704 16.3026 21.8985 15.8013 21.747 15.1901C21.5787 14.5113 21.1835 14.1499 20.4686 14.2006L20.2947 14.2131L20.1125 14.2266C19.8072 14.2491 19.5017 14.2717 19.1958 14.2879C19.0201 14.2973 18.915 14.1715 18.8713 14.0213C18.8116 13.8162 18.9924 13.7843 19.1088 13.7638L19.1382 13.7585C19.1959 13.7467 19.2531 13.7316 19.3104 13.7146C19.3626 13.6992 19.4147 13.6824 19.4672 13.6654L19.4689 13.6649C19.8113 13.5541 20.1667 13.4391 20.6192 13.689ZM26.0273 22.51C25.988 22.4864 25.9484 22.4629 25.9084 22.4396C25.8054 22.7929 25.9588 23.0262 26.1268 23.282L26.1371 23.2976C26.7888 24.2862 26.6726 24.7387 25.6741 25.2588C25.64 25.2766 25.6062 25.2949 25.5725 25.3134C25.546 25.328 25.5196 25.3427 25.4933 25.3575L25.4352 25.3902C25.3764 25.4234 25.3176 25.4565 25.2582 25.4886C25.2214 25.5086 25.1843 25.5281 25.1469 25.547C25.0542 25.5936 24.9627 25.6457 24.8712 25.6978L24.8705 25.6981C24.4649 25.9286 24.0587 26.1594 23.5432 25.9282C23.413 25.8691 23.2754 25.899 23.2949 26.0756C23.2982 26.1061 23.3005 26.138 23.3021 26.1708C23.3044 26.2177 23.3055 26.2666 23.3066 26.316C23.3129 26.6104 23.3197 26.9256 23.5989 26.9862C23.6163 26.9899 23.635 26.9944 23.6547 26.9991L23.6627 27.001C23.9326 27.0654 24.398 27.1763 24.5352 26.5807C24.6254 26.1892 24.9749 26.0343 25.2743 26.5065C25.2859 26.5248 25.2972 26.5435 25.3085 26.5623L25.3395 26.6145C25.409 26.7319 25.479 26.8502 25.5755 26.9383C25.8083 27.1494 26.0814 27.106 26.3483 27.0636C26.4257 27.0513 26.5025 27.0391 26.5778 27.0331C26.7749 27.0182 26.8325 26.7919 26.8232 26.6192C26.811 26.3731 26.6583 26.3561 26.4925 26.3377C26.3686 26.3239 26.2374 26.3092 26.1519 26.1976C26.2541 25.9683 26.3645 25.7395 26.4759 25.5086C26.7053 25.033 26.9393 24.548 27.1151 24.0299C27.3411 23.3643 27.2741 23.1878 26.7618 22.9334C26.5639 22.8351 26.3742 22.72 26.1803 22.6024L26.0273 22.51ZM17.9259 22.8705L17.9269 22.8699C18.5223 22.5974 19.0468 22.3572 18.9197 21.4839C19.3741 21.8104 19.872 21.9208 20.3663 22.0306C20.671 22.0982 20.9743 22.1654 21.2654 22.2828C21.0543 22.6114 20.7782 22.8208 20.4807 23.0001C20.4525 23.0169 20.4222 23.0445 20.3912 23.0727C20.2801 23.174 20.1599 23.2837 20.093 22.9344C20.0698 22.8123 18.7393 23.094 18.6789 23.2413C18.6219 23.3812 18.7049 23.4708 18.7837 23.5557C18.8064 23.5802 18.8287 23.6043 18.8472 23.629C19.1565 24.0416 19.4719 24.4491 19.8018 24.8754C19.9201 25.0283 20.0403 25.1836 20.1627 25.3423C19.5395 25.5077 19.3992 25.1279 19.2704 24.7794C19.185 24.5482 19.1046 24.3308 18.8918 24.2956C18.5235 24.2353 18.3702 23.9759 18.2142 23.7118C18.052 23.4371 17.8868 23.1576 17.474 23.0921C17.623 23.0091 17.7766 22.9388 17.9259 22.8705ZM29.5513 14.5269L29.5151 14.5994C29.4468 14.7356 29.3846 14.8599 29.326 14.9854L29.3134 15.0121C29.1448 15.3716 29.0459 15.5823 28.4669 15.3844C27.9407 15.2042 27.4582 15.039 27.0119 14.7019C26.7935 14.5377 26.5183 14.547 26.4671 14.9263L26.4652 14.9417L26.4629 14.9645C26.4618 14.9773 26.4608 14.9903 26.4599 15.0031C26.4507 15.13 26.4421 15.2488 26.2496 15.2145C26.0887 15.1854 26.0088 15.0587 25.9846 14.8906C25.9325 14.5255 25.953 14.2053 26.2849 13.9471C26.5499 13.7415 26.6289 13.4881 26.2031 13.3519C25.8426 13.2358 25.877 12.942 25.906 12.6949C25.91 12.6602 25.914 12.6265 25.9167 12.5943C25.9368 12.3572 26.1199 12.3417 26.3026 12.3263C26.3818 12.3196 26.4609 12.3129 26.5266 12.2883C26.6921 12.2263 26.7907 12.3578 26.7423 12.4807C26.589 12.87 26.7432 13.1843 26.8995 13.5028C27.0066 13.7211 27.1148 13.9415 27.1254 14.1894C27.1514 14.7864 27.8673 15.0671 28.4418 14.8184C28.6432 14.7313 28.8436 14.641 29.044 14.5507L29.0457 14.5498L29.0474 14.549C29.1285 14.5125 29.2096 14.476 29.2907 14.4397C29.3495 14.4134 29.4084 14.3872 29.4673 14.3612C29.4822 14.3546 29.5082 14.3743 29.6096 14.4099C29.5896 14.4502 29.5703 14.4891 29.5513 14.5269ZM10.3598 23.2423C10.3273 23.4094 10.4686 23.4357 10.6266 23.4197C10.8832 23.1789 11.0674 23.3128 11.2574 23.4509C11.3408 23.5115 11.4252 23.5728 11.5173 23.6037C12.0419 23.7806 12.331 24.184 12.624 24.593L12.6527 24.633L12.6971 24.6946C12.8049 24.8439 12.9286 25.0148 13.1173 24.9162C13.2481 24.848 13.2035 24.7276 13.16 24.6102C13.1478 24.5773 13.1357 24.5446 13.1276 24.5135C13.0686 24.2866 12.9794 24.0685 12.8902 23.8503C12.7149 23.4216 12.5394 22.9923 12.5911 22.494C12.6106 22.311 12.3912 22.1138 12.1802 22.1617C12.0017 22.2021 11.7321 22.4424 11.839 22.5692C12.0984 22.8764 11.867 22.8662 11.7248 22.8598L11.7105 22.8593C11.6991 22.8587 11.6885 22.8584 11.6791 22.8583C11.6424 22.858 11.6048 22.859 11.5669 22.86C11.3104 22.8665 11.0416 22.8734 10.9492 22.511C10.9074 22.3457 10.7503 22.3279 10.6592 22.4152C10.4675 22.5984 10.4253 22.8535 10.384 23.1026C10.3762 23.1495 10.3685 23.1963 10.3598 23.2423ZM23.8797 20.8201C23.5962 20.9075 23.333 20.8699 23.1174 20.6558C23.0566 20.5954 22.9999 20.5232 22.9436 20.4513C22.7216 20.1679 22.504 19.8903 22.0547 20.3658C21.9506 20.4756 21.8185 20.2579 21.747 20.1255C21.6694 19.9818 21.7514 19.9549 21.8205 19.9322C21.8507 19.9223 21.8784 19.9131 21.8892 19.8954C22.0358 19.6571 21.9223 19.472 21.8068 19.2837C21.7435 19.1805 21.6797 19.0765 21.6577 18.9622C21.4739 18.9476 21.4487 19.0524 21.4243 19.1545C21.4096 19.2155 21.3952 19.2757 21.3472 19.3087C21.1882 19.4176 21.0497 19.427 20.8647 19.3538C20.648 19.2673 20.6452 19.1426 20.6638 18.9444C20.7196 18.353 21.1389 18.0207 21.6084 18.0094C22.0342 17.999 22.2034 18.4638 22.1746 18.9125C22.1449 19.3744 22.3373 19.7321 22.7836 19.8241C23.2265 19.9157 23.5871 20.1438 23.9498 20.3733C23.9943 20.4013 24.0388 20.4295 24.0835 20.4573C24.1226 20.4818 24.1619 20.5061 24.2014 20.5301C24.2189 20.5553 24.2369 20.5802 24.255 20.6051C24.2746 20.6322 24.2941 20.6593 24.313 20.6868C24.3305 20.7123 24.3474 20.7382 24.3632 20.7648C24.4515 20.9131 24.5668 21.114 24.3799 21.2144C24.2245 21.2983 24.1879 21.1934 24.1502 21.0849C24.1287 21.0235 24.1069 20.9609 24.0629 20.931C24.0255 20.9062 23.9871 20.8837 23.9485 20.861L23.9127 20.84L23.9007 20.8329L23.8797 20.8201ZM11.086 27.2322L11.0924 27.2181L11.1244 27.2008L11.1403 27.1919C11.1284 27.2053 11.1164 27.2178 11.1045 27.2312L11.086 27.2322ZM12.5967 25.5573L11.1403 27.1919C11.8053 26.8215 12.4659 26.447 12.5967 25.5573ZM11.0827 27.2323L11.086 27.2322C10.9566 27.5118 10.7241 27.6836 10.4917 27.8555C10.3714 27.9444 10.2511 28.0333 10.145 28.1372C10.0121 28.2686 9.89401 28.2734 9.76942 28.1297L9.73409 28.0884C9.6642 28.0066 9.59371 27.9241 9.51096 27.8574C9.42267 27.787 9.29997 27.737 9.17879 27.6877C8.94141 27.5911 8.70986 27.4968 8.75417 27.2556C8.81823 26.9064 9.1438 26.6875 9.45645 26.4773C9.49352 26.4523 9.53042 26.4275 9.56667 26.4026C9.58604 26.3893 9.60522 26.376 9.62415 26.3627C9.66133 26.3364 9.69753 26.31 9.73224 26.2831C10.0781 26.0145 10.3551 26.361 10.3403 26.6323C10.3037 27.2744 10.6694 27.2547 11.0827 27.2323ZM25.6583 30.6485C25.6009 30.8417 25.4857 31.0127 25.3718 31.1816C25.1497 31.511 24.9329 31.8326 25.1609 32.2961C25.2194 32.4145 24.9786 32.4632 24.8178 32.4097C24.7832 32.3981 24.746 32.3865 24.7075 32.3744C24.4075 32.2802 24.0254 32.1605 24.1391 31.8718C24.3173 31.4185 24.1371 31.1494 23.9473 30.866L23.9464 30.8646C23.9077 30.8069 23.8687 30.7485 23.8323 30.6879L23.8201 30.6682L23.8078 30.6489C23.7612 30.5767 23.7168 30.5079 23.7728 30.4194C23.8304 30.3284 23.9448 30.2617 24.021 30.3368C24.3009 30.6131 24.6273 30.6024 24.9707 30.5911C25.1954 30.5837 25.4273 30.5761 25.6583 30.6485ZM20.7903 29.5286C20.913 29.5417 21.0394 29.5313 21.164 29.5313C21.164 29.536 21.164 29.5408 21.1649 29.5454C21.2393 29.5454 21.3146 29.5529 21.389 29.5445C21.4626 29.5364 21.546 29.5417 21.6302 29.547C21.8677 29.562 22.1117 29.5775 22.1597 29.2948C22.2165 28.9624 22.1988 28.5362 21.799 28.3006C21.4243 28.0796 21.2472 28.3043 21.055 28.5481L21.0162 28.5972C20.9272 28.708 20.809 28.7965 20.6925 28.8837L20.6871 28.8878L20.6828 28.8911L20.6786 28.8943C20.6586 28.9092 20.6388 28.924 20.6192 28.939C20.5704 28.9768 20.5031 29.0001 20.4358 29.0234C20.2827 29.0763 20.1299 29.1292 20.1971 29.353C20.2584 29.5573 20.4355 29.5443 20.6085 29.5317H20.6117C20.6408 29.5296 20.6698 29.5275 20.6981 29.5264C20.7108 29.5259 20.7233 29.5256 20.7356 29.5257C20.7543 29.5258 20.7726 29.5266 20.7903 29.5286ZM29.6849 31.6249C28.857 31.5052 28.4446 31.9957 28.0319 32.4864C27.8815 32.6653 27.7311 32.8443 27.5605 32.9937C27.5565 32.9972 27.5526 33.0008 27.5487 33.0045C27.5442 33.0088 27.5397 33.0132 27.5353 33.0178C27.5251 33.0284 27.515 33.0397 27.5048 33.0516C27.4892 33.0698 27.4735 33.0892 27.4578 33.1089C27.3568 33.2348 27.2506 33.3671 27.0993 33.2312C26.8985 33.0509 26.9561 32.7664 27.1737 32.5693C27.2965 32.4583 27.4186 32.3464 27.5407 32.2345C27.8967 31.9083 28.2528 31.582 28.6259 31.2766C29.0629 30.918 29.4292 30.9865 29.6849 31.6249ZM20.6151 16.5848C20.7717 16.6874 20.9346 16.7941 21.1315 16.8218C21.1561 16.651 21.1538 16.481 21.1515 16.3096C21.1467 15.944 21.1417 15.5721 21.3974 15.1713C21.246 15.2336 21.1094 15.2985 20.9812 15.3594L20.9778 15.361C20.6492 15.5173 20.3743 15.6481 20.04 15.6454C19.7924 15.6439 19.7243 15.9132 19.6637 16.153C19.6517 16.2004 19.64 16.2467 19.6272 16.2895C19.5854 16.4303 19.7434 16.4979 19.7908 16.4688C20.1265 16.2648 20.3626 16.4195 20.6151 16.5848ZM24.6728 22.8837C25.5839 23.1606 25.8795 23.9032 25.3812 24.5022C25.2548 24.6543 25.1079 24.7265 24.9312 24.7021C24.7626 24.6798 24.7675 24.5481 24.7719 24.4299C24.7731 24.3995 24.7742 24.37 24.7722 24.3435C24.7616 24.1891 24.738 24.0355 24.7141 23.8802C24.6653 23.5625 24.6153 23.2375 24.6728 22.8837ZM22.4377 23.8759C22.7427 24.1416 23.0104 24.4318 23.0114 24.9218C23.6966 24.3576 23.4613 23.8562 23.1043 23.3577C22.9054 23.0789 22.6441 23.0686 22.3978 23.2563C22.13 23.4591 22.2137 23.6807 22.4377 23.8759ZM9.71457 13.981C9.82706 14.5245 9.46075 14.517 9.13442 14.4672C9.0445 14.4532 8.92877 14.4676 8.81353 14.4819C8.56539 14.5126 8.31954 14.5431 8.33859 14.2898C8.36462 13.9406 8.71791 13.4646 9.22647 13.4299C9.56581 13.4064 9.79638 13.5857 9.71457 13.981ZM24.3295 10.2808C24.1923 10.1369 24.0437 9.98105 23.743 9.93659C23.743 10.0664 23.7426 10.1911 23.7422 10.3121C23.7413 10.5911 23.7404 10.8508 23.7449 11.1101C23.7477 11.2932 23.7886 11.4978 24.0182 11.4668C24.3158 11.4274 24.6161 11.2894 24.775 11.0425C24.9426 10.7809 24.706 10.5995 24.5106 10.4497L24.4952 10.4379C24.4691 10.4178 24.4443 10.396 24.4202 10.3729C24.3899 10.344 24.3605 10.3132 24.3307 10.2819L24.3295 10.2808ZM29.1986 9.43757C29.2886 9.7249 29.387 10.0393 29.6895 10.359C29.7093 10.2615 29.7285 10.1686 29.7471 10.0795L29.7937 9.85628C29.8617 9.53154 29.92 9.25357 29.9684 8.97339C30.0084 8.73778 29.829 8.60814 29.6625 8.50023C29.5008 8.39508 29.3279 8.42231 29.1744 8.53773C28.982 8.68332 28.9727 8.872 29.0675 9.07479C29.1208 9.18921 29.1588 9.31078 29.1986 9.43757ZM20.7466 27.2407C20.8449 27.5799 20.6608 27.7872 20.4817 27.9889C20.3083 28.1842 20.1397 28.3741 20.2362 28.6733C20.2206 28.6748 20.2044 28.6783 20.1881 28.6818C20.1548 28.6889 20.1214 28.6959 20.0939 28.6865C19.7938 28.5774 19.7154 28.3185 19.6378 28.0618C19.6004 27.9384 19.5633 27.8155 19.5017 27.7101C19.3612 27.4697 19.6145 27.4317 19.8176 27.4013C19.8565 27.3955 19.8935 27.3899 19.9256 27.3833C20.1059 27.3456 20.2876 27.316 20.477 27.2853C20.5649 27.271 20.6546 27.2564 20.7466 27.2407ZM24.3714 27.6663L24.4292 27.6481C24.4636 27.4256 24.3585 27.3627 24.2683 27.3702C23.5404 27.4369 22.8263 27.4509 22.1077 27.2341C21.8669 27.1608 21.8148 27.4247 21.879 27.6565C21.9394 27.8753 22.0147 28.0677 22.2778 27.8978C22.5484 27.7223 22.7417 27.6058 23.1267 27.7748C23.504 27.9403 23.9785 27.7904 24.3714 27.6663ZM29.2925 13.5735C29.1131 13.8655 28.876 14.196 28.4604 14.1481C28.1908 14.1171 27.7306 13.9613 27.844 13.6318C27.9606 13.2927 28.3473 13.265 28.6953 13.24C28.7378 13.237 28.7798 13.234 28.8206 13.2305C28.8425 13.2285 28.8641 13.2265 28.8853 13.2242C29.0545 13.2065 29.3167 13.2027 29.2925 13.5735ZM27.8589 11.8513L27.8449 11.8615L27.8317 11.8711L27.8104 11.8865C27.7703 11.9156 27.7293 11.9452 27.6873 11.9758L27.6546 11.9996L27.5437 12.0808C28.1917 12.5446 28.73 12.4826 28.9374 11.9579C29.0108 11.7719 29.0666 11.5757 28.8621 11.4114C28.6845 11.2697 28.5497 11.3344 28.3972 11.4528C28.2273 11.5845 28.0532 11.7106 27.8589 11.8513ZM11.4178 9.59205C11.4355 9.53924 11.438 9.47168 11.4405 9.40237C11.4471 9.22396 11.454 9.03363 11.7218 9.05123C12.1309 9.07846 12.2778 9.46718 12.315 9.80888C12.3457 10.0887 12.2769 10.4295 11.9171 10.5121C11.7023 10.5628 11.4299 10.0502 11.4178 9.59205ZM10.7298 10.1507C10.6638 9.75827 10.4565 9.4053 10.0186 9.30949C9.79824 9.29446 9.68017 9.40246 9.65135 9.60049C9.62625 9.76854 10.2612 10.7046 10.3719 10.6661C10.608 10.5844 10.7559 10.3056 10.7298 10.1507ZM18.9418 19.464L18.9419 19.4629L18.9516 19.2634C18.9545 19.2056 18.9575 19.1481 18.9606 19.0909C18.7449 19.0317 18.5859 19.1097 18.572 19.1998C18.5598 19.2871 18.5546 19.3758 18.5493 19.4642C18.5305 19.7816 18.5119 20.0943 18.1759 20.3197C18.1322 20.3489 18.333 20.823 18.559 20.8821C18.7598 20.9346 18.8639 20.6643 18.8806 20.4634C18.9096 20.129 18.9259 19.7931 18.9418 19.464ZM25.5318 13.4965C25.173 13.0881 25.119 12.8018 25.2278 12.4704C25.2433 12.4233 25.261 12.3762 25.2787 12.3292C25.3818 12.0549 25.4836 11.7838 25.1432 11.5297C25.0075 11.4283 25.0921 11.2096 25.2436 11.1673C25.5114 11.0931 25.6908 11.2649 25.6806 11.5231C25.6655 11.9443 25.6289 12.3646 25.5868 12.8473C25.569 13.0511 25.5503 13.2659 25.5318 13.4965ZM23.6759 23.072C23.7927 23.0857 23.9143 23.1 24.0424 23.1155C23.8308 22.7275 23.5217 22.5357 23.2254 22.3518C23.1768 22.3217 23.1285 22.2917 23.0811 22.2612C22.857 22.1185 22.6227 22.2171 22.5614 22.4781C22.5075 22.7062 22.5949 22.9296 22.8766 22.9709C23.1285 23.0076 23.3819 23.0375 23.6623 23.0703L23.6683 23.0712L23.6759 23.072ZM11.5368 12.6939C11.2097 12.9616 10.8582 12.9596 10.5103 12.9575C10.2214 12.9558 9.93501 12.9541 9.66716 13.107C9.56117 13.167 9.42264 13.0459 9.4682 12.8845C9.52398 12.6874 9.6058 12.4855 9.86333 12.5109C10.2599 12.5489 10.6566 12.5941 11.0532 12.6393C11.2144 12.6577 11.3756 12.676 11.5368 12.6939ZM25.3524 10.205C25.517 10.2774 25.6443 10.1797 25.6267 10.1262C25.6046 10.0549 25.5887 9.98334 25.5758 9.91358C25.5654 9.85738 25.557 9.80228 25.5489 9.74947L25.5488 9.74864C25.5068 9.47397 25.474 9.25925 25.2241 9.25595C24.9619 9.25311 24.4301 9.3282 24.485 9.69244C24.5112 9.86398 24.851 10.0009 25.1485 10.1206L25.2348 10.1555C25.2759 10.1723 25.3155 10.1888 25.3524 10.205ZM29.7379 32.667C29.7453 33.1739 29.8355 33.5588 30.0419 33.9146C30.1032 34.0207 30.1553 34.1653 30.0289 34.2563C29.9187 34.3357 29.8475 34.2642 29.7723 34.1888C29.7568 34.1732 29.7411 34.1574 29.7248 34.1427C29.0805 33.5626 29.0703 33.4255 29.7379 32.667ZM23.0522 29.5342C23.3911 29.3501 23.7519 29.1542 23.7542 28.6818C23.7463 28.638 23.7461 28.5936 23.7459 28.5514C23.7453 28.4498 23.7448 28.3611 23.6371 28.326C23.5041 28.2818 23.3693 28.3692 23.321 28.478C23.1769 28.8047 23.0002 29.0807 22.6999 29.2994C22.5679 29.3953 22.6841 29.7482 22.8598 29.6422C22.9212 29.6053 22.9863 29.57 23.0522 29.5342ZM12.9351 22.9841C12.9128 22.3946 13.0885 22.0115 13.6138 21.8942C13.7533 21.8632 13.9606 22.0002 13.9383 22.1439C13.8565 22.6715 13.4502 22.863 12.9351 22.9841ZM27.0528 9.78357C27.5846 9.31509 28.0309 8.92178 28.4781 8.52838C28.4353 8.47585 28.3926 8.42231 28.3507 8.36785C28.2174 8.48648 28.0444 8.56111 27.8684 8.63702L27.8676 8.63729C27.4535 8.8157 27.0228 9.00127 27.0528 9.78357ZM6.88172 9.8296C7.05891 10.0255 7.24514 10.2148 7.44296 10.4159L7.44387 10.4167L7.45047 10.4233C7.69895 10.6762 7.96573 10.9476 8.25584 11.2744C7.47528 11.2078 7.28743 10.7385 7.11102 10.2977C7.04369 10.1295 6.97803 9.96547 6.88172 9.8296ZM8.43028 13.0017L8.60449 12.6873C7.43212 12.8741 7.41352 12.9126 8.02249 13.7397C8.15598 13.4974 8.28459 13.2649 8.43028 13.0017ZM24.6439 12.8065C24.7704 12.86 24.8662 12.7492 24.8652 12.554C24.7843 12.4969 24.7026 12.4373 24.6199 12.3769C24.3917 12.2104 24.1549 12.0377 23.9011 11.8958C23.7951 11.8357 23.677 12.0291 23.7282 12.1437C23.8858 12.495 24.2174 12.6311 24.5394 12.7632C24.5744 12.7776 24.6094 12.7919 24.6439 12.8065ZM14.3074 27.3964L14.2715 27.3619C13.9604 27.0614 13.6799 26.7907 13.5125 26.3938C14.3455 26.3562 14.4422 26.4745 14.3074 27.3964ZM31.1008 30.15C31.059 29.8787 30.8721 29.7303 30.6518 29.6646C30.3766 29.6675 30.3273 29.8383 30.3496 30.0213C30.384 30.289 30.5309 30.5002 30.8173 30.5049C31.0106 30.5077 31.1324 30.3518 31.1008 30.15ZM13.0169 27.2753C12.7487 27.1926 12.5614 27.2902 12.3651 27.3924C12.1892 27.484 12.0059 27.5793 11.7506 27.5523C11.7733 27.5324 11.7958 27.5122 11.8181 27.4917L11.8589 27.454C11.9042 27.4117 11.9491 27.3685 11.994 27.3253L11.9946 27.3247C12.1809 27.1457 12.3671 26.9667 12.5846 26.8454C12.7794 26.7378 12.8913 26.991 13.0093 27.258L13.0169 27.2753ZM29.1689 12.7971C29.1689 12.6833 29.1674 12.5777 29.1659 12.4778C29.1629 12.2635 29.1602 12.075 29.1735 11.8874C29.1875 11.6949 29.286 11.5353 29.5166 11.6095C29.7035 11.6696 29.8299 11.8048 29.7062 12.0104L29.6988 12.0233C29.6935 12.0325 29.6883 12.0419 29.6833 12.0514C29.6689 12.0786 29.6554 12.1067 29.6425 12.1353C29.6276 12.1683 29.6134 12.202 29.599 12.2361C29.5151 12.4347 29.426 12.6457 29.1689 12.7971ZM19.4599 15.2314C19.7146 15.1685 19.9665 15.069 20.0893 14.8175C20.0511 14.609 19.894 14.5283 19.7611 14.5649L19.7381 14.5712C19.491 14.638 19.2042 14.7159 19.1447 15.0117C19.1149 15.161 19.312 15.2681 19.4599 15.2314ZM10.7447 23.9314C10.7726 24.3745 10.6722 24.6815 10.2956 24.8242C10.1729 24.8711 10.0065 24.8054 10.0139 24.674C10.0319 24.3719 10.2352 24.2539 10.4542 24.1269C10.553 24.0695 10.6551 24.0102 10.7447 23.9314ZM10.7837 9.2268C10.849 9.23707 10.9144 9.24734 10.979 9.25971L11.0515 9.13576C10.9905 9.09661 10.9302 9.05637 10.87 9.01612C10.7281 8.92141 10.5864 8.82689 10.437 8.74713C10.4221 8.73934 10.4073 8.73035 10.3926 8.72082C10.3746 8.70926 10.3566 8.6968 10.3385 8.68414C10.2288 8.60777 10.1144 8.5282 9.96931 8.63069C9.91818 8.66636 9.87541 8.76216 9.88099 8.82689C9.89788 9.03803 10.0517 9.06728 10.1981 9.09505C10.2451 9.10395 10.2913 9.11275 10.3319 9.12733C10.4761 9.17876 10.6299 9.20278 10.7837 9.2268ZM10.9985 13.781C10.8962 14.0983 10.7066 14.3706 10.3403 14.457C10.2185 14.486 10.1618 14.2927 10.2082 14.2655C10.3537 14.1825 10.4122 14.0269 10.4699 13.8738C10.5434 13.6783 10.6155 13.4868 10.8646 13.4553C10.9802 13.4409 10.9852 13.5536 10.9905 13.6735C10.9921 13.7098 10.9937 13.7467 10.9985 13.781ZM8.86785 9.76542C8.77843 9.72407 8.68983 9.68309 8.61472 9.62772C8.47619 9.62304 8.40181 9.68309 8.42785 9.80228C8.46847 9.98188 8.6176 10.0477 8.7673 10.1138C8.92592 10.1838 9.08519 10.2542 9.11676 10.4604C9.14023 10.4299 9.17195 10.3965 9.20369 10.3632C9.27253 10.2909 9.34151 10.2184 9.32688 10.174C9.25045 9.94255 9.05731 9.85316 8.86785 9.76542ZM10.0827 33.2068C9.99643 33.1252 9.8759 33.1003 9.75677 33.0758C9.57303 33.0379 9.39265 33.0008 9.3464 32.7571C9.3306 32.6763 9.46076 32.5317 9.60579 32.5364C9.99349 32.5468 10.0725 32.835 10.0827 33.2068ZM30.0846 10.5506C30.0512 10.7261 30.1534 10.821 30.345 10.8295L30.3655 10.8218C30.5546 10.7508 30.7618 10.6731 30.7949 10.4248C30.8219 10.2182 30.6592 10.1938 30.5067 10.2117C30.3013 10.2361 30.1265 10.3291 30.0846 10.5506ZM9.29992 25.5245C9.26289 25.5876 9.23046 25.6508 9.19939 25.7113C9.0713 25.9608 8.96612 26.1657 8.65562 26.1347C8.52546 26.1216 8.43621 25.9704 8.48176 25.8447C8.59684 25.5247 8.83822 25.5252 9.13508 25.526C9.18837 25.5261 9.24345 25.5263 9.29992 25.5245ZM8.89902 30.0678C9.06896 30.0197 9.2459 29.9695 9.27667 29.7314C9.17719 29.5943 9.06191 29.4572 8.87318 29.475C8.64168 29.4985 8.53476 29.6665 8.54313 29.8853C8.55056 30.0749 8.69095 30.1284 8.85458 30.0806L8.89902 30.0678ZM27.6023 27.4593C27.5818 27.4532 27.5605 27.4473 27.5388 27.4415C27.3865 27.3999 27.2205 27.3547 27.2555 27.1533C27.2862 26.9731 27.4619 26.8707 27.6572 26.9017C27.8282 26.9299 28.0272 26.9937 28.0105 27.2059C27.9962 27.3867 27.8468 27.4133 27.7032 27.4389C27.6686 27.445 27.6343 27.4512 27.6023 27.4593ZM23.982 8.40351C23.6371 8.44018 23.5218 8.64573 23.5962 9.07855C23.6546 9.0527 23.7138 9.03024 23.7718 9.00823C24.0154 8.91564 24.2361 8.83175 24.2767 8.54809C24.2962 8.41479 24.1075 8.3904 23.982 8.40351ZM24.7434 29.4102L24.7564 29.4157C24.9006 29.4763 25.0677 29.5466 25.0316 29.7125C24.9898 29.9059 24.8513 30.0946 24.6207 30.0655C24.4599 30.0457 24.3873 29.8608 24.3957 29.72C24.405 29.5275 24.5547 29.4271 24.7434 29.4102ZM12.8124 30.2298C13.0932 30.3294 13.2735 30.1744 13.4381 29.8778C13.3478 29.8851 13.2664 29.8904 13.1913 29.8953C13.0344 29.9055 12.9047 29.9141 12.7771 29.9351C12.7144 29.9452 12.6565 29.8715 12.6008 29.8008C12.5079 29.6826 12.4215 29.5727 12.3308 29.8769C12.2747 30.0669 12.5069 30.1365 12.6994 30.1941L12.7009 30.1946L12.7266 30.2023L12.7559 30.2112C12.7757 30.2174 12.7947 30.2235 12.8124 30.2298ZM26.7488 31.7413C26.7646 31.9684 26.6782 32.068 26.5024 32.0868C26.3137 32.1065 26.1203 32.0521 26.0766 31.8681C26.0274 31.6596 26.2319 31.5714 26.3918 31.5188C26.6112 31.4465 26.694 31.6089 26.7488 31.7413ZM23.2475 18.1445C23.3972 18.1408 23.4948 18.0056 23.5599 17.8479C23.5236 17.7052 23.4381 17.5832 23.2856 17.5522C23.1136 17.5165 23.0021 17.6217 22.989 17.7896C22.9751 17.97 23.0327 18.1502 23.2475 18.1445ZM20.7484 23.3502C21.125 23.4608 21.3251 23.7013 21.5251 23.9417L21.5517 23.9736C21.471 23.8917 21.3416 23.8861 21.2099 23.8804C20.9639 23.8699 20.7097 23.859 20.7484 23.3502ZM8.96801 8.24114C9.11304 8.23546 9.19765 8.16322 9.24692 8.01204L9.23521 7.99232C9.14209 7.83537 9.04273 7.66787 8.82948 7.63184C8.67515 7.60461 8.58961 7.68914 8.61286 7.84499C8.64354 8.04962 8.69188 8.2505 8.96801 8.24114ZM6.82316 29.1183C6.78132 29.3689 6.59073 29.4647 6.36852 29.5098C6.23743 29.5361 6.12494 29.492 6.11471 29.3304C6.09894 29.0826 6.27735 29.0208 6.45207 28.9603L6.48381 28.9493C6.64465 28.8929 6.77295 28.9146 6.82316 29.1183ZM19.9331 26.9027C19.8425 26.8222 19.7459 26.766 19.6561 26.7137C19.4907 26.6175 19.3484 26.5347 19.3092 26.3375C19.3027 26.3047 19.4682 26.1826 19.5184 26.2014C19.7787 26.2972 19.9628 26.4708 19.9331 26.9027ZM28.3423 7.58123L28.3613 7.58701L28.3944 7.59709C28.5171 7.59242 28.5794 7.48451 28.5646 7.39998C28.5255 7.18682 28.3851 7.04508 28.1583 7.03197C28.0179 7.02446 27.9193 7.08359 27.95 7.25256C27.9907 7.47589 28.1634 7.52769 28.3423 7.58123ZM11.0524 29.4018L10.3031 29.889C10.9483 30.0336 11.0543 29.9566 11.0524 29.4018ZM23.4734 13.5116C23.4576 13.6749 23.5896 13.7754 23.7375 13.8401C23.903 13.8674 23.9625 13.7285 23.9848 13.6214C24.0192 13.4533 23.9216 13.3276 23.7477 13.3107C23.612 13.2976 23.4855 13.3877 23.4734 13.5116ZM27.5242 7.9783C27.487 8.10124 27.4275 8.23454 27.2825 8.17917C27.1161 8.11628 27.0277 7.95666 27.0091 7.77733C26.9943 7.63413 27.1099 7.6389 27.1949 7.64238L27.2118 7.64311C27.4182 7.64779 27.5056 7.78485 27.5242 7.9783ZM31.4141 6.59915C31.1231 6.53433 30.9214 6.68551 30.6964 6.95964C31.0543 7.05627 31.3044 7.03097 31.482 6.77655C31.5034 6.74556 31.4504 6.60759 31.4141 6.59915ZM5.70377 31.2231C5.9892 31.2569 6.16119 31.0954 6.24115 30.7847C6.16108 30.8563 6.05207 30.8579 5.94402 30.8596C5.78862 30.862 5.6352 30.8643 5.57268 31.0747C5.56153 31.1104 5.65264 31.2175 5.70377 31.2231ZM31.6382 10.9486C31.6194 10.9819 31.6099 11.024 31.6005 11.0661C31.5777 11.1676 31.5549 11.2691 31.4011 11.2472C31.2803 11.2294 31.1845 11.1345 31.2068 10.9861C31.2301 10.8285 31.3082 10.6951 31.4783 10.6951C31.6261 10.6942 31.68 10.8012 31.6382 10.9486ZM5.71772 10.3449C5.94922 10.2999 6.0236 10.1168 6.0673 9.87177C6.07938 9.75634 5.94829 9.74222 5.87206 9.75634C5.64986 9.79393 5.53364 9.94126 5.53922 10.176C5.54201 10.2942 5.59872 10.3675 5.71772 10.3449ZM34.1382 31.4164C34.2739 31.4399 34.3651 31.5207 34.353 31.6577L34.3508 31.6863C34.339 31.8435 34.3251 32.0289 34.1122 32.0351C33.9578 32.0398 33.9523 31.8765 33.9439 31.7601C33.9337 31.6089 33.9616 31.4662 34.1382 31.4164ZM22.4322 26.0897C22.4071 26.2108 22.4972 26.3187 22.6209 26.3751C22.7808 26.2775 22.857 26.131 22.8496 25.948C22.8449 25.8541 22.8356 25.7339 22.7083 25.7292C22.4956 25.7217 22.4672 25.8881 22.4428 26.0311L22.4391 26.0522L22.436 26.07L22.4322 26.0897ZM20.9372 26.2953C21.1138 26.3056 21.2291 26.4145 21.2681 26.56C21.3091 26.714 21.1901 26.7844 21.0478 26.7665C20.8842 26.7468 20.7819 26.638 20.754 26.4774C20.7348 26.3682 20.8116 26.3413 20.8841 26.3158L20.8961 26.3116C20.9033 26.309 20.9104 26.3065 20.9173 26.3037C20.9242 26.301 20.9308 26.2982 20.9372 26.2953ZM15.6034 15.0371C15.6053 15.1733 15.7168 15.2446 15.9167 15.2408C15.9225 15.2387 15.9288 15.2367 15.9355 15.2347L15.9377 15.2339L15.9392 15.2333L15.9557 15.2283C16.0437 15.2015 16.1711 15.1628 16.1575 15.0005C16.1482 14.8813 16.0329 14.7902 15.8944 14.7856C15.7252 14.7799 15.6015 14.8653 15.6034 15.0371ZM6.34063 11.2706C6.11378 11.2763 6.06079 11.1533 6.04963 11.0284C6.03569 10.8688 6.16027 10.8191 6.29322 10.8097C6.41873 10.8012 6.56283 10.8012 6.56655 10.9759C6.56922 11.1066 6.48327 11.1653 6.41185 11.214C6.38378 11.2331 6.35795 11.2507 6.34063 11.2706ZM28.8509 37.0342C28.9448 36.6643 28.837 36.4719 28.4149 36.3696L28.4249 36.4049C28.5042 36.6844 28.5653 36.8999 28.8509 37.0342Z" fill="black"/>
</svg>
