<svg width="32" height="32" viewBox="0 0 32 32" fill="none" xmlns="http://www.w3.org/2000/svg">
<circle cx="14.5" cy="14.5" r="14.5" fill="white"/>
<path fill-rule="evenodd" clip-rule="evenodd" d="M13.5741 14.5L11.7873 21.75H10.0718L8.5785 14.5H6.34375V13.05H8.27985L7.08523 7.25H8.97639L10.0691 13.05H12.3705L13.7508 7.25H15.3319L16.6707 13.05H18.948L20.0236 7.25H21.9148L20.716 13.05H22.6562V14.5H20.4163L18.9179 21.75H17.2127L15.4897 14.5H13.5741ZM11.0432 18.8022L10.8469 17.1789L10.3422 14.5H12.0255L11.3429 17.3681L11.0432 18.8022ZM15.1451 13.05H13.9315L14.3915 11.1837L14.5465 10.3273L14.7015 11.1837L15.1451 13.05ZM17.0054 14.5L17.6674 17.3681L17.9671 18.842L18.1841 17.169L18.6791 14.5H17.0054Z" fill="black"/>
<circle cx="25" cy="25" r="7" fill="#69E2DC"/>
<path d="M22.5924 29H21V21H22.5924V29Z" fill="black"/>
<path d="M23.9303 29V21H26.3676C27.1909 21 27.8156 21.1868 28.2417 21.5604C28.6714 21.9304 28.8863 22.4744 28.8863 23.1923C28.8863 23.5989 28.7978 23.9487 28.6209 24.2418C28.4439 24.5348 28.202 24.7491 27.8951 24.8846C28.2489 24.9872 28.5216 25.1941 28.7129 25.5055C28.9043 25.8132 29 26.1941 29 26.6484C29 27.4249 28.7888 28.011 28.3663 28.4066C27.9474 28.8022 27.339 29 26.541 29H23.9303ZM25.5227 25.522V27.6593H26.541C26.8262 27.6593 27.0429 27.5696 27.1909 27.3901C27.339 27.2106 27.413 26.956 27.413 26.6264C27.413 25.9084 27.1566 25.5403 26.6439 25.522H25.5227ZM25.5227 24.3462H26.3514C26.9761 24.3462 27.2884 24.0183 27.2884 23.3626C27.2884 23 27.2162 22.7399 27.0718 22.5824C26.9273 22.4249 26.6926 22.3462 26.3676 22.3462H25.5227V24.3462Z" fill="black"/>
</svg>
