<svg width="80" height="80" viewBox="0 0 80 80" fill="none" xmlns="http://www.w3.org/2000/svg">
<path d="M40 0C17.9094 0 0 17.9094 0 40C0 62.0906 17.9094 80 40 80C62.0906 80 80 62.0906 80 40C79.9303 17.9094 62.0209 0 40 0Z" fill="#41DFAB"/>
<path fill-rule="evenodd" clip-rule="evenodd" d="M49.5385 33.1367C47.8923 37.612 46.3101 41.9106 46.0225 42.6892L45.4996 44.105L43.4907 39.7098L41.482 35.3147L38.8119 35.3395L36.1419 35.3644L33.8115 41.2266C32.5299 44.4508 31.434 47.1936 31.3763 47.3217C31.2821 47.5308 31.1225 47.1599 29.8225 43.7106C29.0257 41.5963 28.2657 39.5817 28.1337 39.2334L27.8937 38.6003H24.9469C22.7089 38.6003 22 38.6275 22 38.7134C22 38.7949 27.3553 53.761 27.7856 54.8824C27.8294 54.9963 28.3151 55.0132 30.9443 54.9923L34.0514 54.9676L36.3628 49.16L38.6743 43.3525L39.2281 44.5171C39.5327 45.1577 40.3929 46.9797 41.1398 48.5659L42.4977 51.4499L45.5931 51.4267L48.6887 51.4034L53.309 38.4127C55.8501 31.2679 57.9551 25.3271 57.9865 25.211C58.0437 25 58.0437 25 55.2876 25H52.5314L49.5385 33.1367Z" fill="black"/>
</svg>
