<svg width="49" height="40" viewBox="0 0 49 40" fill="none" xmlns="http://www.w3.org/2000/svg">
<path fill-rule="evenodd" clip-rule="evenodd" d="M37.0888 10.849C34.8717 16.816 32.7409 22.5474 32.3536 23.5857L31.6493 25.4733L28.9438 19.6131L26.2384 13.7529L22.6423 13.786L19.0463 13.8192L15.9078 21.6355C14.1817 25.9344 12.7057 29.5914 12.628 29.7623C12.5012 30.041 12.2863 29.5465 10.5354 24.9474C9.4622 22.1285 8.43868 19.4423 8.26091 18.9779L7.9376 18.1338H3.96886C0.954786 18.1338 0 18.17 0 18.2846C0 18.3931 7.21251 38.348 7.79205 39.8431C7.85105 39.9951 8.50514 40.0176 12.0462 39.9897L16.2309 39.9568L19.3439 32.2133L22.457 24.47L23.2028 26.0228C23.613 26.877 24.7716 29.3063 25.7775 31.4212L27.6063 35.2666L31.7753 35.2355L35.9444 35.2045L42.167 17.8836C45.5894 8.35717 48.4243 0.436086 48.4667 0.281386C48.5437 0 48.5437 0 44.8317 0H41.1197L37.0888 10.849Z" fill="black"/>
</svg>
