<svg width="32" height="32" viewBox="0 0 32 32" fill="none" xmlns="http://www.w3.org/2000/svg">
<circle cx="16" cy="16" r="16" fill="white"/>
<path fill-rule="evenodd" clip-rule="evenodd" d="M11.8547 3.38381C13.3453 2.89389 14.9382 2.66989 16.5161 2.73037C18.0944 2.79085 19.6579 3.13613 21.1129 3.74413C22.5683 4.35213 23.9152 5.22317 25.0675 6.29773C26.5917 7.71949 27.775 9.49773 28.4848 11.4868C29.1949 13.4763 29.4314 15.6766 29.1574 17.7713C28.8838 19.866 28.0998 21.8555 26.9139 23.5662C25.728 25.2769 24.1398 26.7086 22.2745 27.7006C20.4093 28.6923 18.2662 29.244 16.1539 29.276C14.0416 29.308 11.9597 28.8206 10.095 27.8952C8.23071 26.9697 6.58335 25.6065 5.33247 23.9038C4.08159 22.2011 3.22719 20.1588 2.88799 18.075C2.54879 15.9908 2.72479 13.8648 3.37471 11.8814C3.86591 10.3819 4.62815 8.96429 5.60479 7.73581H4.12031V5.28205H9.93695V10.7137H7.48319V9.22957C6.68319 10.2356 6.05855 11.3969 5.65631 12.6257C5.12415 14.2513 4.98079 15.9953 5.25631 17.6971C5.59871 19.8139 6.58879 21.8651 8.06655 23.4459C9.83423 25.3364 12.2995 26.5544 14.8659 26.8209C17.432 27.0875 20.0992 26.403 22.2173 24.9288C24.3354 23.4545 25.905 21.1905 26.5421 18.69C27.1792 16.1896 26.8838 13.4526 25.735 11.1422C24.5862 8.83181 22.5837 6.94861 20.1891 5.95917C17.7945 4.96941 15.0077 4.87405 12.6038 5.66381L11.8547 3.38381Z" fill="#0657F9"/>
<circle cx="16" cy="16" r="8" fill="black"/>
<circle cx="16" cy="16" r="7" fill="#616161"/>
<circle cx="16" cy="16" r="6" fill="#757575"/>
<circle cx="16" cy="16" r="5" fill="#969696"/>
<circle cx="16" cy="16" r="4" fill="#656565"/>
<circle cx="16" cy="16" r="3" fill="#656565"/>
<circle cx="16" cy="16" r="2" fill="#656565"/>
<path d="M15.5596 17.2582V18H13.6013V17.2582H15.5596ZM13.9339 14V18H13V14H13.9339Z" fill="white"/>
<path d="M17.4993 16.6429H16.5361V15.8984H17.4993C17.6306 15.8984 17.737 15.8755 17.8186 15.8297C17.9002 15.7839 17.9596 15.7207 17.9969 15.6401C18.0359 15.5577 18.0554 15.4652 18.0554 15.3626C18.0554 15.2527 18.0359 15.1511 17.9969 15.0577C17.9596 14.9643 17.9002 14.8892 17.8186 14.8324C17.737 14.7738 17.6306 14.7445 17.4993 14.7445H16.8874V18H15.9534V14H17.4993C17.8098 14 18.0767 14.0586 18.3002 14.1758C18.5255 14.293 18.6984 14.4542 18.8191 14.6593C18.9397 14.8626 19 15.0952 19 15.3571C19 15.6154 18.9397 15.8407 18.8191 16.033C18.6984 16.2253 18.5255 16.3755 18.3002 16.4835C18.0767 16.5897 17.8098 16.6429 17.4993 16.6429Z" fill="white"/>
</svg>
