<svg width="32" height="32" viewBox="0 0 32 32" fill="none" xmlns="http://www.w3.org/2000/svg">
<path d="M5.71429 0H26.2857L32 13.7143L16 32L0 13.7143L5.71429 0Z" fill="#8890B2"/>
<path fill-rule="evenodd" clip-rule="evenodd" d="M7.56532 4.57178H16H24.4346V8.64969H18.2396V10.9483L18.2585 10.949C20.7928 11.0645 23.0134 11.3685 24.6284 11.8021C25.4363 12.0187 26.0922 12.2649 26.5766 12.5581C26.8188 12.7046 27.0203 12.8629 27.1729 13.0518C27.3255 13.2411 27.4286 13.4724 27.4286 13.7196C27.4286 13.9668 27.3255 14.1982 27.1729 14.3875C27.0203 14.5764 26.8188 14.7347 26.5766 14.8812C26.0922 15.1744 25.4363 15.4205 24.6288 15.6372C23.0134 16.0707 20.7928 16.3748 18.2585 16.4903L18.241 16.491V24.6861H16H13.7589V16.491L13.7414 16.4903C11.2072 16.3748 8.98652 16.0707 7.37119 15.6372C6.56371 15.4205 5.90774 15.1744 5.42333 14.8812C5.18112 14.7347 4.9797 14.5764 4.8271 14.3875C4.67449 14.1982 4.57141 13.9668 4.57141 13.7196C4.57141 13.4724 4.67449 13.2411 4.8271 13.0518C4.9797 12.8629 5.18112 12.7046 5.42333 12.5581C5.90774 12.2649 6.56371 12.0187 7.37155 11.8021C8.98652 11.3685 11.2072 11.0645 13.7414 10.949L13.7604 10.9483V8.64969H7.56532V4.57178ZM13.7676 15.1723L16 15.2216L18.2323 15.1723C20.4413 15.0751 22.3702 14.8348 23.732 14.5098C24.4131 14.3472 24.9533 14.1619 25.3051 13.9737C25.4814 13.8798 25.6092 13.7844 25.6843 13.7024C25.7593 13.62 25.7801 13.5606 25.7801 13.5099C25.7801 13.4592 25.7593 13.3998 25.6843 13.3174C25.6092 13.2353 25.4814 13.14 25.3055 13.0461C24.9536 12.8579 24.4135 12.6726 23.7328 12.5099C22.3728 12.1857 20.4475 11.9457 18.2418 11.8482V14.1435L18.1977 14.1475C18.1405 14.1525 17.9376 14.1698 17.5719 14.1853C17.3891 14.1928 17.1655 14.2004 16.8996 14.2058C16.7667 14.2083 16.6232 14.2105 16.4684 14.2119C16.3911 14.2126 16.3114 14.2134 16.2283 14.2137H16H15.7716C15.6886 14.2134 15.6088 14.2126 15.5316 14.2119C15.3768 14.2105 15.2333 14.2083 15.1003 14.2058C14.8345 14.2004 14.6108 14.1928 14.428 14.1853C14.0623 14.1698 13.8594 14.1525 13.8022 14.1475L13.7582 14.1435V11.8482C11.5524 11.9457 9.62717 12.1857 8.26716 12.5099C7.58643 12.6726 7.04629 12.8579 6.69445 13.0461C6.51853 13.14 6.39069 13.2353 6.31566 13.3174C6.24063 13.3998 6.21987 13.4592 6.21987 13.5099C6.21987 13.5606 6.24063 13.62 6.31566 13.7024C6.39069 13.7844 6.51853 13.8798 6.69481 13.9737C7.04665 14.1619 7.58679 14.3472 8.26789 14.5098C9.62972 14.8348 11.5586 15.0751 13.7676 15.1723Z" fill="white"/>
<path d="M26.5349 31.5002C29.2738 31.5002 31.5 29.2944 31.5 26.566C31.5 23.8377 29.2738 21.6318 26.5349 21.6318C23.796 21.6318 21.5698 23.8377 21.5698 26.566C21.5698 29.2944 23.796 31.5002 26.5349 31.5002Z" fill="white" stroke="white"/>
<path d="M19.4651 31.4997C22.204 31.4997 24.4302 29.2939 24.4302 26.5655C24.4302 23.8372 22.204 21.6313 19.4651 21.6313C16.7262 21.6313 14.5 23.8372 14.5 26.5655C14.5 29.2939 16.7262 31.4997 19.4651 31.4997Z" fill="white" stroke="white"/>
<path d="M23 24.3684C25.7388 24.3684 27.9651 22.1625 27.9651 19.4342C27.9651 16.7058 25.7388 14.5 23 14.5C20.2611 14.5 18.0349 16.7058 18.0349 19.4342C18.0349 22.1625 20.2611 24.3684 23 24.3684Z" fill="white" stroke="white"/>
<path fill-rule="evenodd" clip-rule="evenodd" d="M31 26.566C31 25.9857 30.8837 25.4053 30.6601 24.8692C30.4365 24.333 30.1055 23.841 29.6922 23.4306C29.279 23.0202 28.7835 22.6914 28.2436 22.4694C27.7037 22.2473 27.1193 22.1318 26.5349 22.1318C25.9505 22.1318 25.3661 22.2473 24.8262 22.4694C24.2862 22.6914 23.7908 23.0202 23.3776 23.4306C22.9643 23.841 22.6333 24.333 22.4096 24.8692C22.186 25.4053 22.0698 25.9857 22.0698 26.566C22.0698 27.1464 22.186 27.7267 22.4096 28.2629C22.6333 28.7991 22.9643 29.2911 23.3776 29.7014C23.7908 30.1119 24.2862 30.4406 24.8262 30.6627C25.3661 30.8848 25.9505 31.0002 26.5349 31.0002C27.1193 31.0002 27.7037 30.8848 28.2436 30.6627C28.7835 30.4406 29.279 30.1119 29.6922 29.7014C30.1055 29.2911 30.4365 28.7991 30.6601 28.2629C30.8837 27.7267 31 27.1464 31 26.566Z" fill="#2775CA"/>
<path fill-rule="evenodd" clip-rule="evenodd" d="M25.7172 29.6378C25.7172 29.7462 25.6413 29.7823 25.5312 29.7823C24.153 29.3442 23.186 28.0998 23.186 26.6364C23.186 25.1729 24.153 23.9285 25.5312 23.4905C25.6417 23.4554 25.7172 23.5266 25.7172 23.6374C25.7172 23.7224 25.7172 23.8075 25.7172 23.8924C25.7172 23.9671 25.6781 24.0393 25.6046 24.0753C24.525 24.4773 23.7809 25.4666 23.7809 26.6364C23.7809 27.8086 24.5618 28.8315 25.6046 29.1974C25.6781 29.2335 25.7172 29.3081 25.7172 29.3803C25.7172 29.4662 25.7172 29.5521 25.7172 29.6378Z" fill="white"/>
<path fill-rule="evenodd" clip-rule="evenodd" d="M26.8335 28.7234C26.8335 28.7956 26.7576 28.8678 26.6842 28.8678C26.5846 28.8678 26.4851 28.8678 26.3855 28.8678C26.3121 28.8678 26.2362 28.7956 26.2362 28.7234C26.2362 28.5766 26.2362 28.4297 26.2362 28.2829C25.6413 28.2107 25.3452 27.8809 25.2325 27.4044C25.2325 27.3321 25.2692 27.26 25.3452 27.26C25.4561 27.26 25.5671 27.26 25.6781 27.26C25.754 27.26 25.7907 27.2961 25.8274 27.3682C25.9033 27.6259 26.0501 27.8448 26.5348 27.8448C26.907 27.8448 27.1664 27.6619 27.1664 27.3682C27.1664 27.0771 27.0196 26.9663 26.4981 26.8941C25.7168 26.7859 25.3452 26.5644 25.3452 25.941C25.3452 25.4668 25.7172 25.1009 26.2362 25.0263C26.2362 24.8803 26.2362 24.7342 26.2362 24.5882C26.2362 24.516 26.3121 24.4414 26.3855 24.4414C26.4851 24.4414 26.5846 24.4414 26.6842 24.4414C26.7576 24.4414 26.8335 24.516 26.8335 24.5882C26.8335 24.7342 26.8335 24.8803 26.8335 25.0263C27.279 25.1009 27.5777 25.3561 27.6511 25.7581C27.6511 25.8327 27.6144 25.9049 27.5385 25.9049C27.4397 25.9049 27.3411 25.9049 27.2423 25.9049C27.1664 25.9049 27.1297 25.8688 27.093 25.7965C27.0196 25.539 26.8335 25.4307 26.4981 25.4307C26.126 25.4307 25.94 25.6136 25.94 25.8688C25.94 26.1239 26.0501 26.2707 26.6082 26.3453C27.3921 26.4501 27.7637 26.6726 27.7637 27.2961C27.7637 27.7702 27.3916 28.1746 26.8335 28.2829V28.7234Z" fill="white"/>
<path fill-rule="evenodd" clip-rule="evenodd" d="M27.5386 29.782C27.4284 29.8206 27.3525 29.746 27.3525 29.6376C27.3525 29.5518 27.3525 29.4659 27.3525 29.3801C27.3525 29.3079 27.3917 29.2333 27.4651 29.1972C28.5447 28.7952 29.2889 27.8083 29.2889 26.6361C29.2889 25.4664 28.5079 24.441 27.4651 24.0751C27.3917 24.039 27.3525 23.9668 27.3525 23.8922C27.3525 23.8072 27.3525 23.7221 27.3525 23.6371C27.3525 23.5263 27.4284 23.4902 27.5386 23.4902C28.8801 23.9283 29.8837 25.1727 29.8837 26.6361C29.8837 28.0996 28.9168 29.344 27.5386 29.782Z" fill="white"/>
<path fill-rule="evenodd" clip-rule="evenodd" d="M23.9302 26.5655C23.9302 25.9852 23.814 25.4048 23.5903 24.8687C23.3667 24.3325 23.0357 23.8405 22.6224 23.4301C22.2092 23.0197 21.7137 22.6909 21.1738 22.4689C20.6339 22.2468 20.0495 22.1313 19.4651 22.1313C18.8807 22.1313 18.2963 22.2468 17.7564 22.4689C17.2165 22.6909 16.721 23.0197 16.3078 23.4301C15.8945 23.8405 15.5635 24.3325 15.3399 24.8687C15.1163 25.4048 15 25.9852 15 26.5655C15 27.1459 15.1163 27.7262 15.3399 28.2624C15.5635 28.7986 15.8945 29.2906 16.3078 29.701C16.721 30.1114 17.2165 30.4401 17.7564 30.6622C18.2963 30.8843 18.8807 30.9997 19.4651 30.9997C20.0495 30.9997 20.6339 30.8843 21.1738 30.6622C21.7137 30.4401 22.2092 30.1114 22.6224 29.701C23.0357 29.2906 23.3667 28.7986 23.5903 28.2624C23.814 27.7262 23.9302 27.1459 23.9302 26.5655Z" fill="#54AE94"/>
<path fill-rule="evenodd" clip-rule="evenodd" d="M17.5171 24.3486H19.5767H21.6363V25.3375H20.1236V25.8949L20.1282 25.8951C20.747 25.9231 21.2893 25.9968 21.6837 26.102C21.8809 26.1545 22.0411 26.2142 22.1594 26.2853C22.2185 26.3208 22.2677 26.3592 22.305 26.405C22.3422 26.4509 22.3674 26.507 22.3674 26.5669C22.3674 26.6269 22.3422 26.683 22.305 26.7289C22.2677 26.7747 22.2185 26.8131 22.1594 26.8486C22.0411 26.9197 21.8809 26.9794 21.6837 27.0319C21.2893 27.1371 20.747 27.2108 20.1282 27.2388L20.1239 27.239V29.2262H19.5767H19.0295V27.239L19.0252 27.2388C18.4064 27.2108 17.8641 27.1371 17.4697 27.0319C17.2725 26.9794 17.1123 26.9197 16.994 26.8486C16.9349 26.8131 16.8857 26.7747 16.8484 26.7289C16.8112 26.683 16.786 26.6269 16.786 26.5669C16.786 26.507 16.8112 26.4509 16.8484 26.405C16.8857 26.3592 16.9349 26.3208 16.994 26.2853C17.1123 26.2142 17.2725 26.1545 17.4698 26.102C17.8641 25.9968 18.4064 25.9231 19.0252 25.8951L19.0298 25.8949V25.3375H17.5171V24.3486ZM19.0316 26.9193L19.5767 26.9312L20.1218 26.9193C20.6612 26.8957 21.1323 26.8374 21.4648 26.7586C21.6311 26.7192 21.763 26.6743 21.8489 26.6286C21.892 26.6058 21.9232 26.5827 21.9415 26.5628C21.9598 26.5428 21.9649 26.5285 21.9649 26.5161C21.9649 26.5038 21.9598 26.4894 21.9415 26.4695C21.9232 26.4496 21.892 26.4264 21.849 26.4037C21.7631 26.358 21.6312 26.3131 21.465 26.2737C21.1329 26.195 20.6628 26.1368 20.1241 26.1132V26.6698L20.1134 26.6708C20.0994 26.672 20.0499 26.6762 19.9606 26.6799C19.9159 26.6818 19.8613 26.6836 19.7964 26.6849C19.7639 26.6855 19.7289 26.686 19.6911 26.6864L19.6325 26.6868H19.5767H19.521L19.4624 26.6864C19.4246 26.686 19.3895 26.6855 19.3571 26.6849C19.2921 26.6836 19.2375 26.6818 19.1929 26.6799C19.1036 26.6762 19.054 26.672 19.0401 26.6708L19.0293 26.6698V26.1132C18.4907 26.1368 18.0206 26.195 17.6885 26.2737C17.5223 26.3131 17.3904 26.358 17.3045 26.4037C17.2615 26.4264 17.2303 26.4496 17.212 26.4695C17.1936 26.4894 17.1886 26.5038 17.1886 26.5161C17.1886 26.5285 17.1936 26.5428 17.212 26.5628C17.2303 26.5827 17.2615 26.6058 17.3045 26.6286C17.3905 26.6743 17.5223 26.7192 17.6887 26.7586C18.0212 26.8374 18.4922 26.8957 19.0316 26.9193Z" fill="white"/>
<path fill-rule="evenodd" clip-rule="evenodd" d="M27.4651 19.4342C27.4651 18.8538 27.3488 18.2735 27.1252 17.7373C26.9016 17.2011 26.5705 16.7091 26.1573 16.2988C25.744 15.8883 25.2486 15.5596 24.7087 15.3375C24.1688 15.1155 23.5844 15 23 15C22.4156 15 21.8312 15.1155 21.2913 15.3375C20.7513 15.5596 20.2559 15.8883 19.8427 16.2988C19.4294 16.7091 19.0983 17.2011 18.8747 17.7373C18.6511 18.2735 18.5349 18.8538 18.5349 19.4342C18.5349 20.0145 18.6511 20.5949 18.8747 21.1311C19.0983 21.6673 19.4294 22.1593 19.8427 22.5696C20.2559 22.98 20.7513 23.3088 21.2913 23.5309C21.8312 23.7529 22.4156 23.8684 23 23.8684C23.5844 23.8684 24.1688 23.7529 24.7087 23.5309C25.2486 23.3088 25.744 22.98 26.1573 22.5696C26.5705 22.1593 26.9016 21.6673 27.1252 21.1311C27.3488 20.5949 27.4651 20.0145 27.4651 19.4342Z" fill="#F4B731"/>
<path fill-rule="evenodd" clip-rule="evenodd" d="M20.8735 20.3879V21.9052L20.8727 21.9057V21.9085C21.5183 21.8997 22.164 21.8997 22.8095 21.9085C23.0287 21.9115 23.2478 21.8976 23.4625 21.8563C23.6894 21.8127 23.9115 21.7463 24.1212 21.6507C24.2119 21.6094 24.299 21.5595 24.3868 21.5091L24.3868 21.5091C24.4098 21.4959 24.4329 21.4827 24.4561 21.4696C24.5602 21.3967 24.6601 21.3179 24.7547 21.2337C25.0143 21.0029 25.2153 20.715 25.3408 20.394C25.3493 20.358 25.3851 20.3349 25.4218 20.3419H25.9492C25.9912 20.3419 26.0051 20.328 26.0051 20.2814V19.9493C26.008 19.9174 26.008 19.8853 26.0051 19.8534C26.0051 19.8451 26.0073 19.8368 26.0095 19.8285C26.0138 19.812 26.0181 19.7956 26.0051 19.7791H25.5644C25.5112 19.7791 25.5112 19.7737 25.5112 19.7271C25.5265 19.5599 25.5203 19.3925 25.5112 19.225C25.5084 19.1756 25.5197 19.1756 25.5587 19.1756H25.9438C25.9886 19.1756 26.0034 19.1645 26.0054 19.1207C26.0124 18.9704 26.0124 18.8205 26.0054 18.6706C26.004 18.641 26.0033 18.6259 25.9954 18.6182C25.9871 18.6102 25.9711 18.6102 25.9384 18.6102H25.4389C25.3999 18.6167 25.3626 18.5909 25.3555 18.5525C25.2982 18.4053 25.2266 18.2636 25.1375 18.1326C25.0491 18.0026 24.9516 17.8785 24.8389 17.7678C24.692 17.6235 24.5277 17.4971 24.3479 17.3945C24.0776 17.2403 23.782 17.1321 23.4743 17.0763C23.3251 17.0492 23.1743 17.0269 23.0223 17.0269H20.9294C20.8735 17.0269 20.8735 17.0379 20.8735 17.0818V18.5608C20.8735 18.613 20.8622 18.613 20.8204 18.613H20.2205C20.1758 18.613 20.1758 18.621 20.1758 18.6513V19.1341C20.1758 19.178 20.1897 19.178 20.2233 19.178H20.8289C20.8735 19.178 20.8735 19.1861 20.8735 19.219V19.7349C20.8735 19.7816 20.8594 19.7816 20.8233 19.7816H20.1758V20.3029C20.1758 20.3468 20.1897 20.3468 20.2233 20.3468H20.8289C20.8735 20.3468 20.8735 20.3521 20.8735 20.3879ZM24.8612 19.7786H23.1646H21.5012C21.4671 19.7786 21.4504 19.7786 21.4423 19.7702C21.4344 19.7622 21.4344 19.7464 21.4344 19.7155V19.2271C21.4344 19.1886 21.4455 19.175 21.4872 19.175H24.864C24.9005 19.175 24.9171 19.1886 24.9171 19.2215C24.9309 19.3914 24.9266 19.5619 24.9171 19.7319C24.9145 19.7786 24.8974 19.7786 24.8612 19.7786ZM24.7276 18.6042C24.7324 18.5917 24.7324 18.5782 24.7276 18.5659C24.6993 18.5052 24.6657 18.4473 24.6268 18.393C24.5681 18.3001 24.4989 18.2146 24.4202 18.1377C24.3831 18.0913 24.34 18.0497 24.2918 18.0143C24.0502 17.8122 23.763 17.6691 23.4545 17.5972C23.2991 17.561 23.1397 17.5465 22.98 17.5478C22.4806 17.552 21.9811 17.552 21.4815 17.5478C21.4397 17.5474 21.4341 17.5642 21.4341 17.5999V18.574C21.4341 18.6151 21.4341 18.6261 21.4872 18.6261H24.7075L24.7075 18.6261C24.709 18.6258 24.7354 18.6206 24.7411 18.6042H24.7276ZM24.5849 20.3495C24.6323 20.3443 24.6802 20.3443 24.7276 20.3495V20.3497C24.7494 20.3605 24.7312 20.3995 24.73 20.4021L24.73 20.4021C24.5584 20.7324 24.2863 21.0016 23.9514 21.1728H23.9319C23.8674 21.2106 23.7983 21.2398 23.7284 21.2661C23.5339 21.339 23.3299 21.3833 23.1225 21.3979C23.0556 21.4118 22.9873 21.4166 22.9189 21.4116H21.4901C21.4344 21.4116 21.4344 21.4004 21.4344 21.3566V20.4042C21.4344 20.3495 21.4484 20.3495 21.4901 20.3495H24.5849Z" fill="white"/>
</svg>
