<svg width="32" height="33" viewBox="0 0 32 33" fill="none" xmlns="http://www.w3.org/2000/svg">
<rect width="32" height="32" rx="16" fill="white"/>
<g clip-path="url(#clip0_327_466984)">
<path d="M16 24.9998C20.9706 24.9998 25 20.9703 25 15.9998C25 11.0292 20.9706 6.99976 16 6.99976C11.0294 6.99976 7 11.0292 7 15.9998C7 20.9703 11.0294 24.9998 16 24.9998Z" fill="white"/>
<path d="M21.5383 15.4599V14.8286H20.2581V11.8459H18.7253L17.6606 14.8286H14.3395L13.2747 11.8459H11.7417V14.8286H10.4614V15.4599H11.7417V17.2755H10.4614V17.9068H11.7417V20.8459H12.8541V17.9068H14.4637L15.5127 20.8459H16.487L17.5361 17.9071H19.1456V20.8459H20.2581V17.9068H21.5383V17.2755H20.2581V15.4599H21.5383ZM19.1456 13.3974V14.8282H18.6349L19.1456 13.3974ZM17.4353 15.4599L16.7867 17.2755H15.2126L14.5645 15.4599H17.4353ZM12.8541 13.3974L13.3649 14.8282H12.8541V13.3974ZM12.8541 17.2751V15.4599H13.5903L14.2383 17.2755L12.8541 17.2751ZM15.9998 19.4805L15.438 17.9062H16.5613L15.9998 19.4805ZM19.1456 17.2751H17.7614L18.4095 15.4595H19.1456V17.2751Z" fill="black"/>
</g>
<path fill-rule="evenodd" clip-rule="evenodd" d="M11.8545 3.61721C13.345 3.12729 14.938 2.90329 16.5159 2.96377C18.0941 3.02425 19.6577 3.36953 21.1127 3.97753C22.5681 4.58553 23.9149 5.45657 25.0673 6.53113C26.5914 7.95289 27.7748 9.73113 28.4845 11.7202C29.1946 13.7097 29.4311 15.91 29.1572 18.0047C28.8836 20.0994 28.0996 22.0889 26.9137 23.7996C25.7277 25.5103 24.1396 26.942 22.2743 27.934C20.409 28.9257 18.266 29.4774 16.1537 29.5094C14.0413 29.5414 11.9594 29.054 10.0948 28.1286C8.23047 27.2031 6.58311 25.8399 5.33223 24.1372C4.08135 22.4345 3.22695 20.3922 2.88775 18.3084C2.54855 16.2242 2.72455 14.0982 3.37447 12.1148C3.86567 10.6153 4.62791 9.19769 5.60455 7.96921H4.12007V5.51545H9.93671V10.9471H7.48295V9.46297C6.68295 10.469 6.05831 11.6303 5.65607 12.8591C5.12391 14.4847 4.98055 16.2287 5.25607 17.9305C5.59847 20.0473 6.58855 22.0985 8.06631 23.6793C9.83399 25.5698 12.2993 26.7878 14.8657 27.0543C17.4317 27.3209 20.0989 26.6364 22.217 25.1622C24.3351 23.6879 25.9047 21.4239 26.5418 18.9234C27.1789 16.423 26.8836 13.686 25.7348 11.3756C24.586 9.06521 22.5834 7.18201 20.1889 6.19257C17.7943 5.20281 15.0074 5.10745 12.6036 5.89721L11.8545 3.61721Z" fill="url(#paint0_linear_327_466984)"/>
<defs>
<linearGradient id="paint0_linear_327_466984" x1="2.04317" y1="13.5306" x2="15.2219" y2="29.81" gradientUnits="userSpaceOnUse">
<stop stop-color="#FF1100"/>
<stop offset="0.34375" stop-color="#FDBF41"/>
<stop offset="0.692708" stop-color="#F1ECE2"/>
<stop offset="1" stop-color="#007FFF"/>
</linearGradient>
<clipPath id="clip0_327_466984">
<rect width="18" height="18" fill="white" transform="translate(7 7)"/>
</clipPath>
</defs>
</svg>
