<svg xmlns="http://www.w3.org/2000/svg" width="32" height="32" viewBox="0 0 32 32">
  <g fill="none" fill-rule="evenodd">
    <path fill="#FFF" d="M32,15.999936 C32,13.905856 31.58336,11.811776 30.78208,9.877056 C29.98048,7.942336 28.79424,6.166976 27.3136,4.686336 C25.83296,3.205376 24.0576,2.019456 22.12288,1.217856 C20.18816,0.416576 18.09408,-6.4e-05 16,-6.4e-05 C13.90592,-6.4e-05 11.81152,0.416576 9.8768,1.217856 C7.94208,2.019456 6.16704,3.205376 4.68608,4.686336 C3.20544,6.166976 2.0192,7.942336 1.21792,9.877056 C0.41632,11.811776 0,13.905856 0,15.999936 C0,18.094016 0.41632,20.188096 1.21792,22.122816 C2.0192,24.057536 3.20544,25.832896 4.68608,27.313856 C6.16704,28.794496 7.94208,29.980736 9.8768,30.782016 C11.81152,31.583296 13.90592,31.999936 16,31.999936 C18.09408,31.999936 20.18816,31.583296 22.12288,30.782016 C24.0576,29.980736 25.83296,28.794496 27.3136,27.313856 C28.79424,25.832896 29.98048,24.057536 30.78208,22.122816 C31.58336,20.188096 32,18.094016 32,15.999936 Z"/>
    <path fill="#0657F9" d="M11.85472,3.383616 C13.34528,2.893696 14.93824,2.669696 16.51616,2.730176 C18.0944,2.790656 19.65792,3.135936 21.11296,3.743936 C22.56832,4.351936 23.9152,5.222976 25.06752,6.297536 C26.59168,7.719296 27.77504,9.497536 28.4848,11.486656 C29.19488,13.476096 29.43136,15.676416 29.15744,17.771136 C28.88384,19.865856 28.09984,21.855296 26.91392,23.566016 C25.728,25.276736 24.13984,26.708416 22.27456,27.700416 C20.40928,28.692096 18.26624,29.243776 16.15392,29.275776 C14.0416,29.307776 11.95968,28.820416 10.09504,27.894976 C8.23072,26.969536 6.58336,25.606336 5.33248,23.903616 C4.0816,22.200896 3.2272,20.158656 2.888,18.074816 C2.5488,15.990656 2.7248,13.864576 3.37472,11.881216 C3.86592,10.381696 4.62816,8.964096 5.6048,7.735616 L4.12032,7.735616 L4.12032,5.281856 L9.93696,5.281856 L9.93696,10.713536 L7.4832,10.713536 L7.4832,9.229376 C6.6832,10.235456 6.05856,11.396736 5.65632,12.625536 C5.12416,14.251136 4.9808,15.995136 5.25632,17.696896 C5.59872,19.813696 6.5888,21.864896 8.06656,23.445696 C9.83424,25.336256 12.29952,26.554176 14.86592,26.820736 C17.432,27.087296 20.0992,26.402816 22.21728,24.928576 C24.33536,23.454336 25.90496,21.190336 26.54208,18.689856 C27.1792,16.189376 26.88384,13.452416 25.73504,11.142016 C24.58624,8.831616 22.58368,6.948416 20.18912,5.958976 C17.79456,4.969216 15.00768,4.873856 12.60384,5.663616 L11.85472,3.383616 Z"/>
    <path fill="#000" fill-rule="nonzero" d="M8.23343397,5.80070134 C8.52846778,5.80070134 8.76036301,6.03326721 8.76036301,6.32924974 L8.76036301,6.32924974 L8.76036301,8.2743759 C8.76036301,8.57039114 8.52846778,8.80297337 8.23343397,8.80297337 L8.23343397,8.80297337 L6.28366238,8.80297337 C5.98853042,8.80297337 5.75673333,8.57039114 5.75673333,8.2743759 L5.75673333,8.2743759 L5.75673333,6.85784721 L4.2812535,6.85784721 L4.2812535,8.28495897 C4.2812535,9.39492206 5.17706886,10.2935018 6.28366238,10.2935018 L6.28366238,10.2935018 L8.23343397,10.2935018 C9.34002749,10.2935018 10.2358428,9.39492206 10.2358428,8.28495897 L10.2358428,8.28495897 L10.2358428,6.32924974 C10.2358428,5.21928665 9.34002749,4.32072329 8.23343397,4.32072329 L8.23343397,4.32072329 L0.655448149,4.31997975 C1.37085515,2.74491318 2.62491813,1.46639986 4.18242022,0.719656676 L4.2812535,0.673103027 L4.2812535,3.25297798 L5.75673333,3.25297798 L5.75673333,0.17523245 L5.75673333,0.17523245 L5.9348556,0.138001293 C6.3961486,0.0474552944 6.87288989,0 7.36071489,0 C11.4259232,0 14.7214298,3.29550656 14.7214298,7.36071489 C14.7214298,11.4259232 11.4259232,14.7214298 7.36071489,14.7214298 C3.29550656,14.7214298 0,11.4259232 0,7.36071489 C0,6.82531453 0.0571628522,6.30326518 0.165718403,5.80033699 Z" transform="translate(8.634 8.639)"/>
  </g>
</svg>
