<svg xmlns="http://www.w3.org/2000/svg" width="100" height="100" viewBox="0 0 100 100">
  <defs>
    <filter id="ytoken-usdc-a">
      <feColorMatrix in="SourceGraphic" values="0 0 0 0 0.000000 0 0 0 0 0.000000 0 0 0 0 0.000000 0 0 0 1.000000 0"/>
    </filter>
  </defs>
  <g fill="none" fill-rule="evenodd">
    <path fill="#FFF" d="M100,49.9998 C100,43.4558 98.698,36.9118 96.194,30.8658 C93.689,24.8198 89.982,19.2718 85.355,14.6448 C80.728,10.0168 75.18,6.3108 69.134,3.8058 C63.088,1.3018 56.544,-0.0002 50,-0.0002 C43.456,-0.0002 36.911,1.3018 30.865,3.8058 C24.819,6.3108 19.272,10.0168 14.644,14.6448 C10.017,19.2718 6.31,24.8198 3.806,30.8658 C1.301,36.9118 0,43.4558 0,49.9998 C0,56.5438 1.301,63.0878 3.806,69.1338 C6.31,75.1798 10.017,80.7278 14.644,85.3558 C19.272,89.9828 24.819,93.6898 30.865,96.1938 C36.911,98.6978 43.456,99.9998 50,99.9998 C56.544,99.9998 63.088,98.6978 69.134,96.1938 C75.18,93.6898 80.728,89.9828 85.355,85.3558 C89.982,80.7278 93.689,75.1798 96.194,69.1338 C98.698,63.0878 100,56.5438 100,49.9998 Z"/>
    <path fill="#0657F9" d="M37.046,10.5738 C41.704,9.0428 46.682,8.3428 51.613,8.5318 C56.545,8.7208 61.431,9.7998 65.978,11.6998 C70.526,13.5998 74.735,16.3218 78.336,19.6798 C83.099,24.1228 86.797,29.6798 89.015,35.8958 C91.234,42.1128 91.973,48.9888 91.117,55.5348 C90.262,62.0808 87.812,68.2978 84.106,73.6438 C80.4,78.9898 75.437,83.4638 69.608,86.5638 C63.779,89.6628 57.082,91.3868 50.481,91.4868 C43.88,91.5868 37.374,90.0638 31.547,87.1718 C25.721,84.2798 20.573,80.0198 16.664,74.6988 C12.755,69.3778 10.085,62.9958 9.025,56.4838 C7.965,49.9708 8.515,43.3268 10.546,37.1288 C12.081,32.4428 14.463,28.0128 17.515,24.1738 L12.876,24.1738 L12.876,16.5058 L31.053,16.5058 L31.053,33.4798 L23.385,33.4798 L23.385,28.8418 C20.885,31.9858 18.933,35.6148 17.676,39.4548 C16.013,44.5348 15.565,49.9848 16.426,55.3028 C17.496,61.9178 20.59,68.3278 25.208,73.2678 C30.732,79.1758 38.436,82.9818 46.456,83.8148 C54.475,84.6478 62.81,82.5088 69.429,77.9018 C76.048,73.2948 80.953,66.2198 82.944,58.4058 C84.935,50.5918 84.012,42.0388 80.422,34.8188 C76.832,27.5988 70.574,21.7138 63.091,18.6218 C55.608,15.5288 46.899,15.2308 39.387,17.6988 L37.046,10.5738 Z"/>
    <g filter="url(#ytoken-usdc-a)">
      <g transform="translate(26 27.46)">
        <path fill="#FFF" d="M18.0753737,44.2698812 C18.0753737,45.0490291 17.5333166,45.3085347 16.7470149,45.3085347 C6.90517029,42.1584786 0,33.2102738 0,22.6867253 C0,12.1631768 6.90517029,3.214972 16.7470149,0.0649159868 C17.5358674,-0.187644126 18.0753737,0.324421503 18.0753737,1.12124866 C18.0753737,1.73244413 18.0753737,2.34427101 18.0753737,2.95546648 C18.0753737,3.49215672 17.7960549,4.01116775 17.271216,4.27067327 C9.561888,7.16122377 4.24781486,14.2752108 4.24781486,22.6867253 C4.24781486,31.1159191 9.82462629,38.4717324 17.271216,41.1027774 C17.7960549,41.3622829 18.0753737,41.8989731 18.0753737,42.4179842 C18.0753737,43.0354936 18.0753737,43.6530031 18.0753737,44.2698812 Z"/>
        <path fill="#FFF" d="M26.0468023,37.6932158 C26.0468023,38.2122269 25.5047451,38.7312379 24.980544,38.7312379 C24.2694926,38.7312379 23.5590789,38.7312379 22.8480274,38.7312379 C22.3238263,38.7312379 21.7817691,38.2122269 21.7817691,37.6932158 C21.7817691,36.6375146 21.7817691,35.5811819 21.7817691,34.5254806 C17.5333166,34.0064696 15.418656,31.6349301 14.6144983,28.2083208 C14.6144983,27.6886784 14.8765989,27.1696673 15.418656,27.1696673 C16.2106971,27.1696673 17.003376,27.1696673 17.7960549,27.1696673 C18.338112,27.1696673 18.6002126,27.4291728 18.8623131,27.9481839 C19.4043703,29.8007123 20.4527726,31.3754246 23.9142857,31.3754246 C26.5716411,31.3754246 28.4242011,30.0602178 28.4242011,27.9481839 C28.4242011,25.8544605 27.3757989,25.0582648 23.6521851,24.5386224 C18.0728229,23.7607372 15.418656,22.1677143 15.418656,17.6847723 C15.418656,14.2752108 18.0753737,11.6441658 21.7817691,11.1074755 C21.7817691,10.0574569 21.7817691,9.00743819 21.7817691,7.95741952 C21.7817691,7.43840849 22.3238263,6.90171825 22.8480274,6.90171825 C23.5590789,6.90171825 24.2694926,6.90171825 24.980544,6.90171825 C25.5047451,6.90171825 26.0468023,7.43840849 26.0468023,7.95741952 C26.0468023,9.00743819 26.0468023,10.0574569 26.0468023,11.1074755 C29.2283589,11.6441658 31.3615131,13.479015 31.8857143,16.3695655 C31.8857143,16.9062557 31.6236137,17.4252668 31.0815566,17.4252668 C30.3762446,17.4252668 29.6715703,17.4252668 28.9662583,17.4252668 C28.4242011,17.4252668 28.1621006,17.1657612 27.9,16.6461188 C27.3757989,14.7942218 26.0468023,14.0157052 23.6521851,14.0157052 C20.9948297,14.0157052 19.6664709,15.330912 19.6664709,17.1657612 C19.6664709,18.9999791 20.4527726,20.0556803 24.4384869,20.5923706 C30.0363429,21.3462625 32.689872,22.9462308 32.689872,27.4291728 C32.689872,30.8387344 30.0325166,33.7469641 26.0468023,34.5254806 L26.0468023,37.6932158 Z"/>
        <path fill="#FFF" d="M31.0815566,45.3085347 C30.2952549,45.5857194 29.7531977,45.0490291 29.7531977,44.2698812 C29.7531977,43.6530031 29.7531977,43.0354936 29.7531977,42.4179842 C29.7531977,41.8989731 30.0325166,41.3622829 30.5573554,41.1027774 C38.2666834,38.2122269 43.5807566,31.1159191 43.5807566,22.6867253 C43.5807566,14.2752108 38.0039451,6.90171825 30.5573554,4.27067327 C30.0325166,4.01116775 29.7531977,3.49215672 29.7531977,2.95546648 C29.7531977,2.34427101 29.7531977,1.73244413 29.7531977,1.12124866 C29.7531977,0.324421503 30.2952549,0.0649159868 31.0815566,0.0649159868 C40.6613006,3.214972 47.8285714,12.1631768 47.8285714,22.6867253 C47.8285714,33.2102738 40.9234011,42.1584786 31.0815566,45.3085347 Z"/>
      </g>
    </g>
  </g>
</svg>
