<svg xmlns="http://www.w3.org/2000/svg" width="32" height="32" viewBox="0 0 32 32">
  <g fill="none" fill-rule="evenodd">
    <path fill="#FFF" d="M32,15.999936 C32,13.905856 31.58336,11.811776 30.78208,9.877056 C29.98048,7.942336 28.79424,6.166976 27.3136,4.686336 C25.83296,3.205376 24.0576,2.019456 22.12288,1.217856 C20.18816,0.416576 18.09408,-6.4e-05 16,-6.4e-05 C13.90592,-6.4e-05 11.81152,0.416576 9.8768,1.217856 C7.94208,2.019456 6.16704,3.205376 4.68608,4.686336 C3.20544,6.166976 2.0192,7.942336 1.21792,9.877056 C0.41632,11.811776 0,13.905856 0,15.999936 C0,18.094016 0.41632,20.188096 1.21792,22.122816 C2.0192,24.057536 3.20544,25.832896 4.68608,27.313856 C6.16704,28.794496 7.94208,29.980736 9.8768,30.782016 C11.81152,31.583296 13.90592,31.999936 16,31.999936 C18.09408,31.999936 20.18816,31.583296 22.12288,30.782016 C24.0576,29.980736 25.83296,28.794496 27.3136,27.313856 C28.79424,25.832896 29.98048,24.057536 30.78208,22.122816 C31.58336,20.188096 32,18.094016 32,15.999936 Z"/>
    <path fill="#0657F9" d="M11.85472,3.383616 C13.34528,2.893696 14.93824,2.669696 16.51616,2.730176 C18.0944,2.790656 19.65792,3.135936 21.11296,3.743936 C22.56832,4.351936 23.9152,5.222976 25.06752,6.297536 C26.59168,7.719296 27.77504,9.497536 28.4848,11.486656 C29.19488,13.476096 29.43136,15.676416 29.15744,17.771136 C28.88384,19.865856 28.09984,21.855296 26.91392,23.566016 C25.728,25.276736 24.13984,26.708416 22.27456,27.700416 C20.40928,28.692096 18.26624,29.243776 16.15392,29.275776 C14.0416,29.307776 11.95968,28.820416 10.09504,27.894976 C8.23072,26.969536 6.58336,25.606336 5.33248,23.903616 C4.0816,22.200896 3.2272,20.158656 2.888,18.074816 C2.5488,15.990656 2.7248,13.864576 3.37472,11.881216 C3.86592,10.381696 4.62816,8.964096 5.6048,7.735616 L4.12032,7.735616 L4.12032,5.281856 L9.93696,5.281856 L9.93696,10.713536 L7.4832,10.713536 L7.4832,9.229376 C6.6832,10.235456 6.05856,11.396736 5.65632,12.625536 C5.12416,14.251136 4.9808,15.995136 5.25632,17.696896 C5.59872,19.813696 6.5888,21.864896 8.06656,23.445696 C9.83424,25.336256 12.29952,26.554176 14.86592,26.820736 C17.432,27.087296 20.0992,26.402816 22.21728,24.928576 C24.33536,23.454336 25.90496,21.190336 26.54208,18.689856 C27.1792,16.189376 26.88384,13.452416 25.73504,11.142016 C24.58624,8.831616 22.58368,6.948416 20.18912,5.958976 C17.79456,4.969216 15.00768,4.873856 12.60384,5.663616 L11.85472,3.383616 Z"/>
    <g fill="#000" fill-rule="nonzero" transform="translate(9.434 8.587)">
      <polygon points="2.031 3.123 3.123 2.496 3.27 2.749 7.297 .426 7.003 .257 6.707 .085 6.56 0 0 3.79 0 3.959 1.883 2.869"/>
      <polygon points="2.031 5.509 5.187 3.685 5.335 3.942 9.361 1.618 9.067 1.446 8.771 1.277 8.624 1.194 0 6.173 0 6.342 1.883 5.253"/>
      <polygon points="2.031 6.702 6.219 4.284 6.367 4.538 10.392 2.211 10.098 2.045 9.804 1.872 9.656 1.788 0 7.362 0 7.534 1.883 6.447"/>
      <polygon points="2.031 7.892 7.28 4.862 7.429 5.116 11.425 2.81 11.131 2.637 10.835 2.468 10.688 2.383 0 8.556 0 8.725 1.883 7.636"/>
      <polygon points="2.031 9.082 8.313 5.457 8.46 5.713 12.457 3.403 12.162 3.235 11.868 3.064 11.719 2.979 0 9.746 0 9.915 1.883 8.828"/>
      <polygon points="12.9 3.66 12.752 3.575 0 10.939 0 11.109 1.883 10.022 2.031 10.276 8.313 6.651 8.46 6.904 13.12 4.215 13.12 3.874 13.12 3.79"/>
      <polygon points=".808 11.832 1.864 11.222 2.011 11.477 8.283 7.856 8.43 8.113 13.12 5.405 13.12 5.064 13.12 4.722 13.12 4.553 .663 11.747"/>
      <polyline points="8.283 9.05 8.43 9.307 13.12 6.599 13.12 6.258 13.12 5.916 13.12 5.747 1.695 12.343 1.843 12.427 2.915 11.807 3.064 12.064"/>
      <polygon points="2.875 13.024 3.948 12.402 4.095 12.659 8.283 10.24 8.43 10.497 13.12 7.789 13.12 7.447 13.12 7.108 13.12 6.937 2.725 12.937"/>
      <polygon points="3.906 13.62 4.979 13.001 5.127 13.254 8.283 11.433 8.43 11.687 13.12 8.979 13.12 8.641 13.12 8.299 13.12 8.13 3.759 13.535"/>
      <polygon points="4.791 14.13 4.939 14.215 6.014 13.595 6.159 13.851 8.283 12.623 8.43 12.88 13.12 10.172 13.12 9.83 13.12 9.489 13.12 9.319"/>
      <polygon points="5.97 14.813 7.043 14.19 7.19 14.447 8.283 13.814 8.43 14.071 13.12 11.365 13.12 11.024 13.12 10.682 13.12 10.513 5.823 14.729"/>
      <polygon points="8.33 1.021 8.034 .852 8.034 .852 7.74 .683 7.593 .596 0 4.979 0 5.148 1.883 4.063 2.031 4.315 4.154 3.09 4.306 3.347"/>
    </g>
  </g>
</svg>
