<svg xmlns="http://www.w3.org/2000/svg" width="32" height="32" viewBox="0 0 32 32">
  <g fill="none" fill-rule="evenodd">
    <path fill="#FFF" d="M32,15.999936 C32,13.905856 31.58336,11.811776 30.78208,9.877056 C29.98048,7.942336 28.79424,6.166976 27.3136,4.686336 C25.83296,3.205376 24.0576,2.019456 22.12288,1.217856 C20.18816,0.416576 18.09408,-6.4e-05 16,-6.4e-05 C13.90592,-6.4e-05 11.81152,0.416576 9.8768,1.217856 C7.94208,2.019456 6.16704,3.205376 4.68608,4.686336 C3.20544,6.166976 2.0192,7.942336 1.21792,9.877056 C0.41632,11.811776 0,13.905856 0,15.999936 C0,18.094016 0.41632,20.188096 1.21792,22.122816 C2.0192,24.057536 3.20544,25.832896 4.68608,27.313856 C6.16704,28.794496 7.94208,29.980736 9.8768,30.782016 C11.81152,31.583296 13.90592,31.999936 16,31.999936 C18.09408,31.999936 20.18816,31.583296 22.12288,30.782016 C24.0576,29.980736 25.83296,28.794496 27.3136,27.313856 C28.79424,25.832896 29.98048,24.057536 30.78208,22.122816 C31.58336,20.188096 32,18.094016 32,15.999936 Z"/>
    <path fill="#0657F9" d="M11.85472,3.383616 C13.34528,2.893696 14.93824,2.669696 16.51616,2.730176 C18.0944,2.790656 19.65792,3.135936 21.11296,3.743936 C22.56832,4.351936 23.9152,5.222976 25.06752,6.297536 C26.59168,7.719296 27.77504,9.497536 28.4848,11.486656 C29.19488,13.476096 29.43136,15.676416 29.15744,17.771136 C28.88384,19.865856 28.09984,21.855296 26.91392,23.566016 C25.728,25.276736 24.13984,26.708416 22.27456,27.700416 C20.40928,28.692096 18.26624,29.243776 16.15392,29.275776 C14.0416,29.307776 11.95968,28.820416 10.09504,27.894976 C8.23072,26.969536 6.58336,25.606336 5.33248,23.903616 C4.0816,22.200896 3.2272,20.158656 2.888,18.074816 C2.5488,15.990656 2.7248,13.864576 3.37472,11.881216 C3.86592,10.381696 4.62816,8.964096 5.6048,7.735616 L4.12032,7.735616 L4.12032,5.281856 L9.93696,5.281856 L9.93696,10.713536 L7.4832,10.713536 L7.4832,9.229376 C6.6832,10.235456 6.05856,11.396736 5.65632,12.625536 C5.12416,14.251136 4.9808,15.995136 5.25632,17.696896 C5.59872,19.813696 6.5888,21.864896 8.06656,23.445696 C9.83424,25.336256 12.29952,26.554176 14.86592,26.820736 C17.432,27.087296 20.0992,26.402816 22.21728,24.928576 C24.33536,23.454336 25.90496,21.190336 26.54208,18.689856 C27.1792,16.189376 26.88384,13.452416 25.73504,11.142016 C24.58624,8.831616 22.58368,6.948416 20.18912,5.958976 C17.79456,4.969216 15.00768,4.873856 12.60384,5.663616 L11.85472,3.383616 Z"/>
    <path fill="#000" fill-rule="nonzero" d="M4.91822826,-0.5 C5.58137549,-0.5 6.22016567,-0.429945024 6.83104871,-0.290188734 C7.34501334,-0.175864548 7.91880347,0.0218706348 8.55492747,0.302395919 C9.06648308,0.52803077 9.27149552,1.14046604 9.01116998,1.63255331 C8.76609396,2.09582346 8.19898419,2.27961306 7.72602935,2.05744778 C7.19945848,1.81008778 6.74339746,1.63079507 6.37490265,1.52337856 C5.90512822,1.40200561 5.42799259,1.34136442 4.94287985,1.34136442 C4.34353533,1.34136442 3.90413566,1.47273815 3.59954784,1.72675942 C3.30731862,1.96053884 3.16940638,2.25348484 3.16940638,2.64779786 C3.16940638,3.0571196 3.29166763,3.39389501 3.52578794,3.66399665 C3.6556338,3.80033219 3.86527772,3.97155047 4.15288304,4.17551772 L4.46640749,4.39032227 L4.83149806,4.6264853 L5.24774664,4.88353263 L5.71474507,5.16099009 C6.8155097,5.8056306 7.61654279,6.36028917 8.1261431,6.83559655 C8.66860647,7.342353 9.07159954,7.89252446 9.33579151,8.49785779 C9.57607026,9.09005271 9.69381235,9.78827316 9.69381235,10.5914427 C9.69381235,12.1800515 9.24741524,13.4661802 8.34367777,14.4268365 C7.43581539,15.373 6.17575452,15.8425259 4.59692013,15.8425259 C3.07322418,15.8425259 1.8278444,15.3934123 0.889217046,14.4908788 C-0.0374788513,13.5998033 -0.5,12.4048438 -0.5,10.9374303 C-0.5,9.56580234 -0.104455333,8.42401669 0.682929995,7.54425496 C1.18897844,6.95302221 1.88409402,6.46876857 2.76508392,6.08718886 L3.06562708,5.96379246 L3.206,5.911 L3.10700504,5.84477847 C2.72308661,5.57578972 2.40399166,5.31021922 2.14894545,5.04589348 L2.00359737,4.88743002 L1.87358381,4.72916098 C1.41371267,4.11555364 1.1805624,3.42490387 1.1805624,2.67247736 C1.1805624,1.73361182 1.54225894,0.94891836 2.25530542,0.353941049 C2.95934865,-0.21734656 3.85339594,-0.5 4.91822826,-0.5 Z M5.26137812,7.16943404 L5.153,7.113 L5.04139443,7.14226438 C4.28282516,7.34109903 3.7063914,7.54360101 3.31319793,7.74722752 C2.87626044,7.96599239 2.53402839,8.22299322 2.27485323,8.52498629 C2.02663424,8.80135658 1.83894048,9.13558573 1.70669063,9.54681324 C1.5620098,9.95210471 1.48863739,10.4150548 1.48863739,10.9374303 C1.48863739,11.8809442 1.76808731,12.6085648 2.32644658,13.1537768 C2.8869098,13.7006687 3.64261585,13.9764262 4.62179506,13.9764262 C5.6292614,13.9764262 6.378411,13.6960638 6.89908307,13.1469571 C7.43125716,12.5717345 7.70543181,11.7196953 7.70543181,10.5667632 C7.70543181,9.8129469 7.5070771,9.17482924 7.105481,8.62896967 C6.7503118,8.12840669 6.13650348,7.63829692 5.26137812,7.16943404 Z" transform="translate(11.354 8.48)"/>
  </g>
</svg>
