<svg width="32" height="32" viewBox="0 0 32 32" fill="none" xmlns="http://www.w3.org/2000/svg">
<path d="M0 16C0 7.16344 7.16344 0 16 0V0C24.8366 0 32 7.16344 32 16V16C32 24.8366 24.8366 32 16 32V32C7.16344 32 0 24.8366 0 16V16Z" fill="white"/>
<g clip-path="url(#clip0_144_593254)">
<path d="M25 16C25 20.9706 20.9706 25 16 25C11.0294 25 7 20.9706 7 16C7 11.0294 11.0294 7 16 7C20.9706 7 25 11.0294 25 16Z" fill="black"/>
<path fill-rule="evenodd" clip-rule="evenodd" d="M17.6496 8.125L17.7361 8.13856L16.9263 13.3038L16.8398 13.2903L17.6496 8.125ZM18.0894 9.22708L18.2241 9.26093L17.1937 13.3631L17.059 13.3292L18.0894 9.22708ZM16.9762 9.39323L16.8019 9.38189L16.5494 13.2646L16.7238 13.2759L16.9762 9.39323ZM16.2093 8.56118L16.3249 8.55815L16.4481 13.2638L16.3325 13.2668L16.2093 8.56118ZM18.6122 10.1385L18.4315 10.0752L17.2718 13.3868L17.4525 13.4501L17.4526 13.4497L17.5263 13.483L19.4563 9.19934L19.351 9.15191L17.585 13.0717L18.6122 10.1385ZM15.0185 9.18524L15.1547 9.15777L15.9907 13.3039L15.8545 13.3314L15.0185 9.18524ZM14.231 8.35489L14.1471 8.37989L15.6399 13.3906L15.7238 13.3656L14.231 8.35489ZM13.923 9.87935L14.0853 9.81451L15.529 13.4276L15.3667 13.4925L13.923 9.87935ZM13.1378 9.34106L13.0347 9.39358L15.1718 13.5878L15.2749 13.5353L13.1378 9.34106ZM15.6662 9.73612L15.8557 9.71506L16.2417 13.1887L16.0522 13.2098L15.6662 9.73612ZM14.8687 13.7301L14.7537 13.818L12.1246 10.2627L12.2399 10.1751L14.8687 13.7301ZM14.5803 13.9701L14.6474 13.9083L11.0185 9.83154L10.9511 9.89338L14.5803 13.9701ZM14.4931 14.0545L14.3705 14.1893L11.4096 11.4171L11.5326 11.2819L14.4931 14.0545ZM14.2302 14.3696L14.3031 14.2731L10.4369 11.2611L10.3643 11.3577L13.6491 13.9169L10.9622 12.2606L10.8479 12.4301L14.1013 14.4356L14.1748 14.3265L14.2302 14.3696ZM15.107 13.5748L14.9385 13.6804L13.0299 10.5427L13.1987 10.4371L15.107 13.5748ZM13.9856 14.6413L14.0568 14.5114L9.92136 12.444L9.85049 12.5739L13.9856 14.6413ZM13.9245 14.7698L13.8876 14.8553L8.55469 12.7542L8.59151 12.6688L13.9245 14.7698ZM13.7851 15.1464L13.8421 14.9699L9.74141 13.7572L9.68443 13.9336L13.7851 15.1464ZM13.7577 15.2517L13.7313 15.3712L8.65196 14.3384L8.67836 14.2192L13.7577 15.2517ZM20.95 10.6753L20.843 10.5867L18.1469 13.8457L18.254 13.9343L20.95 10.6753ZM20.9205 9.40293L20.9928 9.4524L18.0382 13.7659L17.9659 13.7164L20.9205 9.40293ZM19.7671 10.2576L19.6146 10.1723L17.7152 13.568L17.8678 13.6533L19.7671 10.2576ZM15.4916 18.6517L15.6295 18.6965L14.4508 23.2971L14.3128 23.2523L15.4916 18.6517ZM16.1516 18.7945L15.972 18.7733L15.6048 23.1623L15.7844 23.1835L16.1516 18.7945ZM16.2579 18.8L16.3771 18.8021L16.3695 24.4168L16.25 24.4147L16.2579 18.8ZM15.4103 18.6225L15.2258 18.5423L13.9356 22.2403L14.1204 22.3206L15.4103 18.6225ZM15.6945 18.7163L15.9241 18.7667L15.3207 22.3484L15.0914 22.298L15.6945 18.7163ZM13.6677 15.8648L13.6747 15.7262L9.13589 15.6835L9.12929 15.8221L13.6677 15.8648ZM13.6823 16.2011L13.708 16.3731L9.5677 17.0366L9.54234 16.8647L13.6823 16.2011ZM13.7574 16.5847L13.7292 16.4731L8.80308 17.6911L8.83087 17.8026L13.7574 16.5847ZM13.7091 15.4539L13.6813 15.6439L9.94742 15.2909L9.97521 15.1009L13.7091 15.4539ZM13.6768 16.1549L13.6656 15.9298L10.2111 16.189L10.2219 16.4141L13.6768 16.1549ZM13.8147 16.9376L13.8678 17.0693L9.67227 18.9935L9.61912 18.8619L13.8147 16.9376ZM14.1228 17.5233L14.0255 17.3746L10.4998 19.7821L10.5971 19.9308L14.1228 17.5233ZM14.1857 17.6067L14.2594 17.6981L10.2479 20.9602L10.1743 20.8688L14.1857 17.6067ZM13.7855 16.8584L13.7296 16.6698L10.1416 17.9583L10.1975 18.1466L13.7855 16.8584ZM13.8939 17.1304L14.0005 17.3343L10.932 19.0696L10.8253 18.8657L13.8939 17.1304ZM14.5519 18.0771L14.4459 17.977L11.402 21.6112L11.5079 21.7112L14.5519 18.0771ZM14.8291 18.2942L14.9826 18.3908L12.7648 22.1851L12.6109 22.0885L14.8291 18.2942ZM15.1838 18.4954L15.0764 18.4419L12.778 23.2485L12.8854 23.302L15.1838 18.4954ZM14.2524 17.7634L14.3851 17.9155L11.6278 20.6888L11.4951 20.5367L14.2524 17.7634ZM14.7884 18.2675L14.6022 18.1229L12.5171 21.088L12.7033 21.2325L14.7884 18.2675ZM16.7203 18.8219L16.8694 18.8035L17.7768 23.5955L17.6274 23.614L16.7203 18.8219ZM17.4026 18.6684L17.2244 18.7264L18.8009 22.9695L18.9788 22.9112L17.4026 18.6684ZM16.423 18.8351L16.6314 18.8296L17.0389 22.8302L16.8308 22.8358L16.423 18.8351ZM17.1765 18.741L16.9392 18.7938L17.9408 22.3883L18.178 22.3355L17.1765 18.741ZM17.4395 18.6559L17.6772 18.5512L17.6524 18.5096L17.841 18.4116L19.9623 21.9739L19.774 22.0718L17.708 18.603L19.14 21.655L18.8968 21.7623L17.4395 18.6559ZM18.0478 18.2807L17.9192 18.3644L20.8436 22.4443L20.9725 22.3609L18.0478 18.2807ZM18.3017 18.0854L18.1075 18.2407L20.5949 21.1575L20.7894 21.0022L18.3017 18.0854Z" fill="#464646"/>
<path fill-rule="evenodd" clip-rule="evenodd" d="M17.2705 10.098L17.494 10.133L16.9958 13.3139L16.7724 13.2789L17.2705 10.098ZM16.1887 10.3276L16.4373 10.3211L16.5143 13.2619L16.2657 13.2684L16.1887 10.3276ZM14.8713 10.2592L14.6545 10.3239L15.5744 13.4094L15.7911 13.3448L14.8713 10.2592ZM13.7765 10.9971L13.9981 10.8841L15.3337 13.5053L15.1121 13.6182L13.7765 10.9971ZM14.7001 13.8597L14.5264 14.0192L12.2916 11.5081L12.4653 11.349L14.7001 13.8597ZM14.1877 14.4249L14.3444 14.2175L11.9285 12.3353L11.7715 12.5427L14.1877 14.4249ZM13.9528 14.7028L13.858 14.9231L10.574 13.629L10.6689 13.4084L13.9528 14.7028ZM13.7156 15.4397L13.7725 15.1829L10.5983 14.5378L10.541 14.7945L13.7156 15.4397ZM19.9159 11.148L19.7292 11.0202L17.9102 13.6769L18.0968 13.8046L19.9159 11.148ZM18.6534 10.7619L18.8806 10.8631L17.6841 13.5505L17.4568 13.4493L18.6534 10.7619ZM16.1887 18.799L16.4454 18.8032L16.4423 22.1403L16.1852 22.1358L16.1887 18.799ZM13.7729 16.649L13.7128 16.4089L10.6341 17.1701L10.6942 17.4098L13.7729 16.649ZM14.1429 17.5543L14.3009 17.7509L11.7941 19.7895L11.6357 19.5928L14.1429 17.5543ZM15.2452 18.526L15.0145 18.411L13.578 21.415L13.8087 21.5299L15.2452 18.526Z" fill="#898989"/>
<path fill-rule="evenodd" clip-rule="evenodd" d="M15.5412 10.7256L15.2687 10.7805L15.7859 13.3455L16.0584 13.2906L15.5412 10.7256ZM17.8981 10.8426L17.6285 10.7749L16.9911 13.3127L17.2606 13.3804L17.8981 10.8426ZM14.6956 13.8617L14.9259 13.6863L13.2994 11.4869L13.0694 11.6623L14.6956 13.8617ZM14.0918 14.4464L13.9497 14.7063L11.3914 13.4275L11.5335 13.1676L14.0918 14.4464ZM19.7607 11.7855L19.9749 11.9627L18.307 13.9788L18.0928 13.8016L19.7607 11.7855ZM15.422 18.6291L15.6982 18.7187L14.969 21.565L14.6928 21.4753L15.422 18.6291ZM13.6638 15.9343L13.6773 15.6567L10.87 15.6303L10.8564 15.9079L13.6638 15.9343ZM13.7875 16.8716L13.8941 17.1349L11.2987 18.3255L11.192 18.0621L13.7875 16.8716ZM14.6046 18.1271L14.3926 17.927L12.5094 20.175L12.7213 20.3751L14.6046 18.1271ZM16.6452 18.8309L16.9436 18.7945L17.505 21.7588L17.2066 21.7953L16.6452 18.8309ZM18.1116 18.239L17.8541 18.4064L19.6634 20.9303L19.9208 20.7628L18.1116 18.239Z" fill="#616161"/>
<path fill-rule="evenodd" clip-rule="evenodd" d="M16.6522 10.8911L16.9299 10.9091L16.7763 13.2783L16.4986 13.2603L16.6522 10.8911ZM17.9068 11.3889L18.2019 11.4923L17.5095 13.4694L17.2145 13.366L17.9068 11.3889ZM14.6965 11.2027L14.4381 11.306L15.3194 13.5105L15.5778 13.4072L14.6965 11.2027ZM15.7846 11.2149L16.0954 11.1811L16.3216 13.2637L16.0108 13.2975L15.7846 11.2149ZM14.529 14.0146L14.3338 14.2296L12.5273 12.5378L12.7225 12.3227L14.529 14.0146ZM14.8847 13.7137L15.1602 13.5411L14.0207 11.6676L13.7453 11.8406L14.8847 13.7137ZM13.8585 14.9182L13.7675 15.1989L11.2655 14.4586L11.3565 14.1779L13.8585 14.9182ZM14.0649 14.4895L14.2518 14.2123L12.3091 13.0148L12.1222 13.2923L14.0649 14.4895ZM19.0725 11.6063L18.8296 11.4705L17.671 13.5428L17.9139 13.6785L19.0725 11.6063ZM16.2049 18.8007L15.9186 18.767L15.6945 21.4451L15.9808 21.4788L16.2049 18.8007ZM15.1668 18.5166L15.4687 18.6479L14.6982 20.8559L14.3966 20.7246L15.1668 18.5166ZM13.7154 16.4242L13.6747 16.1504L11.1484 16.5551L11.1887 16.8289L13.7154 16.4242ZM13.7178 15.3938L13.672 15.7043L11.4427 15.4935L11.4882 15.1829L13.7178 15.3938ZM14.1517 17.5675L13.9968 17.3309L11.8453 18.7997L12.0003 19.0363L14.1517 17.5675ZM13.7116 16.61L13.8029 16.9182L11.6605 17.6873L11.5691 17.3792L13.7116 16.61ZM15.0282 18.4196L14.7836 18.2657L13.4298 20.5808L13.6747 20.7347L15.0282 18.4196ZM14.2101 17.7151L14.4269 17.9635L12.7805 19.6195L12.5637 19.3712L14.2101 17.7151ZM17.4551 18.651L17.172 18.7438L18.1336 21.3329L18.4168 21.2398L17.4551 18.651ZM16.3567 18.8369L16.6971 18.8278L16.9406 21.2165L16.5998 21.2256L16.3567 18.8369ZM17.9005 18.3804L17.5924 18.5409L18.859 20.6677L19.1671 20.5075L17.9005 18.3804Z" fill="#777777"/>
<path fill-rule="evenodd" clip-rule="evenodd" d="M16.5215 11.6202L16.1742 11.6293L16.2172 13.2695L16.5645 13.2604L16.5215 11.6202ZM17.647 12.0229L17.2932 11.9341L16.9496 13.302L17.3034 13.3909L17.647 12.0229ZM15.4656 11.9715L15.8232 11.8994L16.1019 13.282L15.7444 13.3541L15.4656 11.9715ZM14.6336 12.0202L14.3241 12.178L15.069 13.6399L15.3785 13.4822L14.6336 12.0202ZM14.6606 13.8892L14.9625 13.6589L14.086 12.4735L13.7841 12.7039L14.6606 13.8892ZM14.3764 14.1765L14.1572 14.4662L14.1045 14.4251L13.9283 14.7469L12.5495 14.0577L12.736 13.7165L14.0178 14.3576L12.8097 13.4164L13.0289 13.1267L14.3764 14.1765ZM13.7848 15.1322L13.7049 15.4907L11.9346 15.1308L12.0141 14.7723L13.7848 15.1322ZM18.9588 12.6871L19.2399 12.9196L18.3408 14.0064L18.0598 13.7739L18.9588 12.6871ZM18.3976 12.0715L18.0802 11.9302L17.4128 13.4291L17.7302 13.5704L18.3976 12.0715ZM15.7421 18.733L15.3797 18.6152L14.9865 20.1494L15.3492 20.2668L15.7421 18.733ZM16.1385 18.798L16.4973 18.8042L16.4952 20.6656L16.1367 20.6593L16.1385 18.798ZM13.6625 15.9778L13.6803 15.6137L12.167 15.5995L12.1493 15.9635L13.6625 15.9778ZM13.7018 16.3613L13.7855 16.6962L12.0683 17.1211L11.9846 16.7858L13.7018 16.3613ZM13.9116 17.1763L13.7716 16.8306L12.3726 17.4723L12.5126 17.8176L13.9116 17.1763ZM14.1121 17.5154L14.3334 17.7898L12.9351 18.9269L12.7138 18.6524L14.1121 17.5154ZM14.6384 18.1581L14.3605 17.8958L13.3454 19.1075L13.6233 19.3698L14.6384 18.1581ZM14.9695 18.3884L15.2915 18.5489L14.4904 20.2244L14.1684 20.0639L14.9695 18.3884ZM16.9913 18.7886L16.5995 18.8365L16.902 20.4342L17.2936 20.3866L16.9913 18.7886ZM17.3919 18.6774L17.7309 18.5273L18.5439 20.2602L18.2048 20.4099L17.3919 18.6774ZM18.1527 18.2126L17.8147 18.4325L18.7898 19.7929L19.1278 19.573L18.1527 18.2126Z" fill="#B8B8B8"/>
<path fill-rule="evenodd" clip-rule="evenodd" d="M17.3371 11.4729L17.0111 11.4219L16.7215 13.2708L17.0476 13.3218L17.3371 11.4729ZM15.3068 11.5366L14.9905 11.6308L15.5252 13.4243L15.8415 13.33L15.3068 11.5366ZM14.4873 14.0556L14.7409 13.8232L13.442 12.3638L13.1884 12.5962L14.4873 14.0556ZM13.9756 14.6521L13.837 14.9741L11.928 14.2217L12.0666 13.8996L13.9756 14.6521ZM18.9251 12.1036L19.1974 12.2901L18.1401 13.8342L17.8678 13.6478L18.9251 12.1036ZM15.642 18.7049L15.9773 18.7782L15.6264 20.8602L15.2915 20.7869L15.642 18.7049ZM13.6796 16.2067L13.6636 15.8784L11.6553 16.0289L11.6716 16.3571L13.6796 16.2067ZM13.8696 17.0836L14.0256 17.3813L12.242 18.3901L12.086 18.0921L13.8696 17.0836ZM14.8319 18.3005L14.5599 18.0896L13.3478 19.8134L13.6198 20.0243L14.8319 18.3005ZM16.885 18.806L17.2317 18.7289L17.8136 20.8181L17.4669 20.8952L16.885 18.806ZM18.3469 18.0497L18.0631 18.2765L19.509 19.9718L19.7928 19.745L18.3469 18.0497Z" fill="#9A9A9A"/>
<path fill-rule="evenodd" clip-rule="evenodd" d="M15.2826 13.5314L14.8309 12.4041L15.17 12.2686L15.6216 13.3966C15.5057 13.4337 15.3924 13.4788 15.2826 13.5314ZM13.6401 13.1197L14.5933 14.0063C14.5007 14.0937 14.4143 14.1875 14.3349 14.287L14.334 14.2862C14.2611 14.3767 14.194 14.4718 14.133 14.5708L13.1214 13.949L13.3489 13.611L14.1163 14.0837L13.384 13.4025L13.6401 13.1197ZM16.4623 13.2636H16.4599L16.5342 12.0508L16.8983 12.0744L16.824 13.2882C16.7041 13.2719 16.5833 13.2637 16.4623 13.2636ZM18.2237 12.4645L18.5422 12.6434L17.9513 13.7051C17.8494 13.6383 17.7431 13.5785 17.6331 13.5262L18.2237 12.4645ZM12.5992 14.4954L13.9611 14.9015V14.9036C13.9097 15.0213 13.8667 15.1425 13.8325 15.2663L12.4801 14.8633L12.5992 14.4954ZM12.3828 16.312L13.7377 16.0959V16.098C13.7423 16.2192 13.7549 16.3401 13.7755 16.4596L12.436 16.6709L12.3828 16.312ZM16.1361 20.1678L15.7609 20.1237L15.8863 18.6556C16.0098 18.6818 16.1349 18.6996 16.2608 18.7087L16.1361 20.1678ZM17.0925 18.645L17.0918 18.643V18.6451C17.0921 18.6451 17.0923 18.645 17.0925 18.645ZM17.0925 18.645L17.6185 20.0747L17.9899 19.9531L17.4649 18.526C17.3438 18.5745 17.2194 18.6143 17.0925 18.645ZM14.3779 19.6206L14.0569 19.4188L14.7997 18.1525C14.9 18.2294 15.0057 18.299 15.1158 18.361L14.3779 19.6206ZM12.8779 18.0403L14.0423 17.2472V17.2493C14.0996 17.3584 14.1642 17.4634 14.2358 17.5637L13.0807 18.3505L12.8779 18.0403ZM12.6632 15.2594L13.8072 15.3691C13.778 15.4937 13.7577 15.6201 13.7464 15.7475L12.6076 15.638L12.6632 15.2594ZM17.5132 12.4128L17.8731 12.5385L17.5434 13.4859C17.4265 13.4356 17.3063 13.3935 17.1835 13.3598L17.5132 12.4128ZM15.8707 12.3089L16.2497 12.2676L16.3585 13.2653C16.2313 13.2701 16.1047 13.2838 15.9794 13.3063L15.8707 12.3089ZM14.6493 12.6313L15.2218 13.5616V13.563C15.1035 13.6231 14.9898 13.6919 14.8817 13.7687L14.3137 12.8418L14.6493 12.6313ZM12.6837 16.9408L13.7915 16.5461V16.5475C13.8184 16.6751 13.8541 16.8005 13.8985 16.9231L12.7948 17.3163L12.6837 16.9408ZM16.3477 18.715C16.3859 18.7177 16.4238 18.7177 16.4623 18.7177C16.5627 18.7177 16.6631 18.712 16.7628 18.7007L16.8511 19.9618L16.4359 19.9726L16.3477 18.715ZM17.5313 18.4999C17.6613 18.4444 17.7867 18.3788 17.9065 18.3036L18.5374 19.3733L18.1618 19.5685L17.5313 18.4999ZM15.136 19.7117L14.7684 19.5515L15.1825 18.3995C15.3007 18.4624 15.4233 18.5165 15.5494 18.5614L15.136 19.7117ZM13.6685 18.7775L13.4042 18.4746L14.2692 17.6137C14.3489 17.7217 14.4366 17.8237 14.5315 17.9187L13.6685 18.7775Z" fill="white"/>
<path d="M14.8076 13.8235L14.2087 13.1506L13.8814 13.4508L14.4775 14.1209C14.5793 14.013 14.6897 13.9135 14.8076 13.8235ZM15.8883 13.3247L15.6524 12.534L15.2443 12.6556L15.4812 13.448C15.6134 13.3962 15.7496 13.355 15.8883 13.3247ZM17.2192 12.5208L16.7982 12.4548L16.6696 13.2729C16.8115 13.2837 16.9522 13.3056 17.0907 13.3382L17.2192 12.5208ZM13.7345 15.9917C13.7345 15.9364 13.7365 15.8819 13.7397 15.8277L12.7822 15.8972L12.8031 16.3213L13.7473 16.2539C13.7386 16.1667 13.7345 16.0795 13.7345 15.9917ZM18.6415 13.1857L18.2896 12.945L17.8213 13.6276C17.9447 13.6985 18.0624 13.779 18.1732 13.8683L18.6415 13.1857ZM14.0905 14.6448L13.1609 14.2745L12.9816 14.6913L13.8995 15.0568C13.9512 14.9148 14.0148 14.7775 14.0895 14.6462L14.0905 14.6448ZM13.9269 16.9949L13.0671 17.4813L13.2682 17.8659L14.1166 17.3861C14.0427 17.2615 13.979 17.1311 13.9259 16.9963L13.9269 16.9949ZM18.35 17.9583C18.2371 18.0669 18.1151 18.1655 17.9852 18.2532L18.7405 19.1533L19.1073 18.8612L18.35 17.9583ZM16.8069 18.6951L17.0896 19.73L17.5371 19.6307L17.2554 18.6003C17.1085 18.6451 16.9581 18.6773 16.8058 18.6965L16.8069 18.6951ZM15.4405 19.6036L15.873 19.6984L16.0415 18.6854C15.8952 18.6624 15.7511 18.6275 15.6104 18.5812L15.4405 19.6036ZM13.9901 18.8119L14.3414 19.0842L14.934 18.2505C14.8109 18.1674 14.6947 18.0745 14.5866 17.9725L13.9901 18.8119Z" fill="#E6E6E6"/>
<path fill-rule="evenodd" clip-rule="evenodd" d="M13.6608 14.1316L13.5686 14.0602L13.8385 13.7048L14.434 14.1675C14.3618 14.2477 14.2945 14.3322 14.2324 14.4204L14.2325 14.4204C14.1419 14.5495 14.0626 14.6862 13.9955 14.829L13.4032 14.5309L13.6301 14.1161L13.6608 14.1316ZM15.0388 13.6645L14.722 13.0472L15.1017 12.8543L15.4185 13.472C15.287 13.526 15.1601 13.5904 15.0388 13.6645ZM17.6551 12.7863L18.0445 12.96L17.7617 13.594C17.6366 13.526 17.5064 13.4679 17.3723 13.4203L17.6551 12.7863ZM16.179 13.2799L16.1592 12.5851L16.5851 12.5743L16.6052 13.2691C16.5576 13.2653 16.5097 13.2653 16.4614 13.2653C16.3671 13.2653 16.2728 13.2701 16.179 13.2799ZM13.053 14.9412L13.8799 15.1121C13.8308 15.2544 13.7937 15.4006 13.769 15.5491L12.9551 15.3806L13.053 14.9412ZM17.3104 18.584C17.4549 18.5371 17.5951 18.4778 17.7294 18.4068L18.1095 19.234L17.6926 19.4178L17.3104 18.584ZM16.1043 18.695L16.1043 18.6948H16.1029C16.1033 18.6949 16.1038 18.695 16.1043 18.695ZM16.1043 18.695L16.0966 19.5755L16.5364 19.5828L16.5427 18.7171C16.5291 18.7171 16.5156 18.7176 16.502 18.7181C16.4885 18.7186 16.4749 18.7192 16.4614 18.7192C16.3419 18.719 16.2226 18.7109 16.1043 18.695ZM13.7746 18.2964L13.5033 17.9594L14.1498 17.4366C14.2266 17.559 14.3129 17.6751 14.4079 17.784L14.4074 17.7844C14.5081 17.8999 14.6183 18.0068 14.7369 18.1039L14.2954 18.6302L13.9573 18.3113L14.383 17.8041L13.7746 18.2964ZM13.7534 16.3123L13.7548 16.312H13.7534C13.7534 16.3121 13.7534 16.3122 13.7534 16.3123ZM13.7534 16.3123L12.9749 16.501L13.0791 16.9116L13.8378 16.7279C13.7988 16.5918 13.7706 16.4529 13.7534 16.3123ZM14.994 19.2674L14.5986 19.0704L14.9832 18.2832C15.1071 18.363 15.2372 18.4327 15.3723 18.4916L14.994 19.2674ZM14.656 13.948L14.3058 13.479L14.6723 13.1993L15.0263 13.6725C14.8953 13.7537 14.7714 13.8459 14.656 13.948ZM17.3414 13.4105C17.2012 13.3628 17.0573 13.3265 16.9113 13.3021L17.0353 12.7904L17.4657 12.8985L17.3414 13.4105ZM13.7656 15.5783C13.7447 15.7151 13.7343 15.8533 13.7343 15.9917C13.7343 16.0014 13.7343 16.0112 13.735 16.0209L13.1052 16.0119L13.1267 15.5689L13.7656 15.5783ZM18.3603 13.3501L18.7021 13.6329L18.3676 14.0404C18.2617 13.9371 18.1476 13.8425 18.0264 13.7576L18.3603 13.3501ZM15.7114 13.3699L15.604 12.8547L16.0386 12.7671L16.1463 13.283C15.9992 13.3001 15.8537 13.3292 15.7114 13.3699ZM16.6674 19.4286L16.5427 18.7178C16.7029 18.7132 16.8623 18.6948 17.0193 18.6625L17.1437 19.3705L16.6674 19.4286ZM18.1355 18.9557L17.7433 18.3999V18.3992C17.8877 18.3223 18.0248 18.2324 18.1529 18.1307L18.5461 18.6886L18.1355 18.9557ZM15.6363 19.3084L15.1955 19.1642L15.3789 18.4958C15.521 18.5573 15.6681 18.6063 15.8187 18.6424L15.6363 19.3084ZM13.2427 17.028L13.8434 16.7557V16.7563C13.8857 16.9017 13.94 17.0432 14.006 17.1795L13.4126 17.448L13.2427 17.028Z" fill="#D0D0D0"/>
</g>
<path fill-rule="evenodd" clip-rule="evenodd" d="M11.8545 3.38363C13.345 2.89371 14.938 2.66971 16.5159 2.73019C18.0941 2.79067 19.6577 3.13595 21.1127 3.74395C22.5681 4.35195 23.9149 5.22299 25.0673 6.29755C26.5914 7.71931 27.7748 9.49755 28.4845 11.4867C29.1946 13.4761 29.4311 15.6764 29.1572 17.7711C28.8836 19.8659 28.0996 21.8553 26.9137 23.566C25.7277 25.2767 24.1396 26.7084 22.2743 27.7004C20.409 28.6921 18.266 29.2438 16.1537 29.2758C14.0413 29.3078 11.9594 28.8204 10.0948 27.895C8.23047 26.9695 6.58311 25.6063 5.33223 23.9036C4.08135 22.2009 3.22695 20.1587 2.88775 18.0748C2.54855 15.9907 2.72455 13.8646 3.37447 11.8812C3.86567 10.3817 4.62791 8.96411 5.60455 7.73563H4.12007V5.28187H9.93671V10.7135H7.48295V9.22939C6.68295 10.2355 6.05831 11.3967 5.65607 12.6255C5.12391 14.2511 4.98055 15.9951 5.25607 17.6969C5.59847 19.8137 6.58855 21.8649 8.06631 23.4457C9.83399 25.3363 12.2993 26.5542 14.8657 26.8207C17.4317 27.0873 20.0989 26.4028 22.217 24.9286C24.3351 23.4543 25.9047 21.1903 26.5418 18.6899C27.1789 16.1894 26.8836 13.4524 25.7348 11.142C24.586 8.83163 22.5834 6.94843 20.1889 5.95899C17.7943 4.96923 15.0074 4.87387 12.6036 5.66363L11.8545 3.38363Z" fill="url(#paint0_linear_144_593254)"/>
<circle cx="25" cy="7" r="7" fill="white"/>
<path fill-rule="evenodd" clip-rule="evenodd" d="M25.4451 6.6869C25.2573 6.69593 25.0692 6.70241 24.8811 6.70735C24.8946 6.79305 24.9071 6.87892 24.9187 6.96496C24.9438 7.1522 24.965 7.33978 24.983 7.52788C24.9951 7.65396 25.006 7.78003 25.0151 7.90645C25.0238 8.031 25.0301 8.15571 25.0339 8.2806C25.0417 8.55082 25.0373 8.82137 25.0258 9.09142C25.0154 9.33829 24.9992 9.58483 24.9794 9.83119C25.7822 9.47376 26.3941 9.33857 26.8508 9.23769L26.8573 9.23624C27.5945 9.07319 27.9244 8.99805 28.2136 8.92547C28.5026 8.85289 28.7509 8.78287 28.9572 8.6987C29.1636 8.61471 29.3281 8.5164 29.4574 8.39526C29.5868 8.27413 29.6811 8.12999 29.7644 7.92468C29.8476 7.71938 29.9199 7.45291 29.9612 7.15833C30.0026 6.86375 30.0132 6.54106 29.9817 6.28498C29.9503 6.02908 29.877 5.83996 29.7947 5.64931C29.7125 5.45866 29.6214 5.26648 29.4846 5.06066C29.3479 4.85485 29.1657 4.63557 28.908 4.39892C28.6504 4.16227 28.3173 3.90841 27.9239 3.66664C27.5306 3.42471 27.077 3.19487 26.5145 2.95311C25.9521 2.71118 25.2805 2.45732 24.6977 2.28506C24.1148 2.11264 23.6204 2.02183 23.1873 2.00343C22.7541 1.9852 22.3822 2.03955 22.0598 2.16699C21.7376 2.29444 21.4646 2.49497 21.2275 2.72515C20.9902 2.95515 20.7886 3.21481 20.6205 3.50104C20.4524 3.78727 20.3178 4.10008 20.2172 4.45191C20.1166 4.80373 20.0501 5.19441 20.0173 5.84644C19.9844 6.49864 19.985 7.41202 20.1415 8.27975C20.298 9.14747 20.6101 9.96937 20.9286 10.536C21.2468 11.1029 21.5712 11.4143 21.8411 11.6174C22.1109 11.8205 22.3261 11.9152 22.5417 11.9636C22.7573 12.0118 22.9731 12.0141 23.1726 11.9587C23.3722 11.9033 23.5555 11.7905 23.7142 11.6447C23.8729 11.499 24.0068 11.3203 24.1274 11.1124C24.2479 10.9046 24.3546 10.6674 24.44 10.4251C24.4857 10.2955 24.5251 10.1644 24.5589 10.0309C24.5858 9.92439 24.6087 9.81688 24.6281 9.70886C24.6505 9.58347 24.6679 9.45705 24.6807 9.33029C24.6934 9.20523 24.7016 9.07983 24.7071 8.95444C24.7125 8.82819 24.7153 8.70194 24.7161 8.57552C24.7183 8.27975 24.712 7.98363 24.6966 7.6882C24.6898 7.55582 24.6807 7.42344 24.6691 7.2914C24.6522 7.09802 24.6292 6.90515 24.6005 6.71314C24.5757 6.54805 24.5472 6.38329 24.5149 6.21939C24.4575 5.92805 24.3883 5.63807 24.2971 5.35558C24.2709 5.27482 24.2429 5.19492 24.2142 5.11518C24.1898 5.04738 24.165 4.97963 24.1402 4.91188C24.1232 4.86539 24.1062 4.8189 24.0893 4.77239C24.0743 4.72826 24.0603 4.68362 24.049 4.63847C24.0384 4.59554 24.0297 4.55175 24.0282 4.50745C24.0278 4.49552 24.028 4.4836 24.029 4.47167C24.0299 4.45975 24.0318 4.44782 24.0348 4.43623C24.0377 4.42465 24.042 4.4134 24.0475 4.40284C24.0529 4.39262 24.0598 4.38291 24.0676 4.37422C24.0845 4.35548 24.1061 4.34065 24.1281 4.32787C24.16 4.3093 24.1951 4.29584 24.2309 4.2863C24.3082 4.26603 24.3898 4.26296 24.4698 4.26569C24.5521 4.26858 24.6343 4.27795 24.7158 4.28971C24.8395 4.30743 24.9625 4.33111 25.0848 4.35701C25.2093 4.38325 25.3335 4.41221 25.457 4.44288C25.6454 4.48973 25.8327 4.54084 26.0184 4.59741C26.3088 4.68618 26.5949 4.79096 26.8731 4.91278C27.0635 4.99609 27.2511 5.0869 27.4336 5.18657C27.5566 5.25387 27.6775 5.32509 27.794 5.40295C27.8726 5.45542 27.9495 5.5108 28.0217 5.57162C28.0703 5.61251 28.1169 5.65613 28.1576 5.70468C28.169 5.71831 28.1798 5.73246 28.19 5.74694C28.2001 5.76159 28.2095 5.77675 28.2177 5.79243C28.2259 5.80827 28.2331 5.8248 28.2382 5.84184C28.2433 5.8587 28.2466 5.87642 28.2471 5.89397C28.2476 5.91118 28.2455 5.92873 28.2411 5.94543C28.2365 5.96178 28.2297 5.97746 28.2211 5.99211C28.2023 6.02397 28.1757 6.0514 28.1475 6.07542C28.1048 6.11188 28.0568 6.14204 28.0079 6.16947C27.9614 6.19554 27.9134 6.21939 27.8644 6.24018C27.8156 6.26079 27.7658 6.27902 27.7158 6.2964C27.6644 6.31412 27.6128 6.33099 27.5612 6.34734C27.4836 6.37188 27.4057 6.39556 27.3277 6.4189C27.2496 6.44207 27.1712 6.46524 27.0922 6.48569C26.9756 6.51584 26.8573 6.54055 26.7386 6.56133C26.6175 6.58229 26.4959 6.5995 26.3737 6.61398C26.25 6.62863 26.126 6.64073 26.002 6.65112C25.8166 6.66646 25.6309 6.67787 25.4451 6.6869ZM22.279 7.08693C22.3654 7.05747 22.4601 7.05409 22.5456 7.06847C22.6311 7.0827 22.7073 7.11484 22.7945 7.16925C22.8817 7.2238 22.9801 7.30063 23.0903 7.44878C23.2006 7.59692 23.3228 7.81654 23.4124 8.04334C23.5022 8.27029 23.5594 8.50442 23.5892 8.75942C23.6192 9.01442 23.6218 9.29013 23.5983 9.51835C23.575 9.74642 23.5255 9.92713 23.4661 10.0654C23.4068 10.2037 23.3375 10.2997 23.2505 10.3761C23.1633 10.4526 23.0585 10.5097 22.9358 10.5261C22.8132 10.5426 22.6728 10.5183 22.5531 10.4725C22.4332 10.4267 22.3342 10.3592 22.2347 10.2554C22.1352 10.1517 22.0352 10.0116 21.9456 9.84199C21.8559 9.67228 21.7763 9.4731 21.7256 9.27054C21.6748 9.06798 21.6528 8.86204 21.6417 8.66949C21.6307 8.47708 21.6307 8.2982 21.6579 8.11002C21.6848 7.9217 21.7391 7.72421 21.8068 7.57564C21.8745 7.42707 21.9558 7.32755 22.0352 7.24988C22.1148 7.17221 22.1927 7.11653 22.279 7.08693Z" fill="black"/>
<path fill-rule="evenodd" clip-rule="evenodd" d="M32 25C32 24.0838 31.8177 23.1677 31.4672 22.3212C31.1166 21.4748 30.5976 20.6981 29.9497 20.0503C29.3019 19.4024 28.5252 18.8834 27.6788 18.5328C26.8323 18.1823 25.9162 18 25 18C24.0838 18 23.1677 18.1823 22.3212 18.5328C21.4748 18.8834 20.6981 19.4024 20.0503 20.0503C19.4024 20.6981 18.8834 21.4748 18.5328 22.3212C18.1823 23.1677 18 24.0838 18 25C18 25.9162 18.1823 26.8323 18.5328 27.6788C18.8834 28.5252 19.4024 29.3019 20.0503 29.9497C20.6981 30.5976 21.4748 31.1166 22.3212 31.4672C23.1677 31.8177 24.0838 32 25 32C25.9162 32 26.8323 31.8177 27.6788 31.4672C28.5252 31.1166 29.3019 30.5976 29.9497 29.9497C30.5976 29.3019 31.1166 28.5252 31.4672 27.6788C31.8177 26.8323 32 25.9162 32 25Z" fill="white"/>
<path fill-rule="evenodd" clip-rule="evenodd" d="M21.9375 24.8746L24.9988 19.75L28.0608 24.8746L24.9988 26.7003L21.9375 24.8746ZM24.9988 29.8125L21.9375 25.4605L24.9988 27.2852L28.0625 25.4605L24.9988 29.8125Z" fill="black"/>
<defs>
<linearGradient id="paint0_linear_144_593254" x1="2.04317" y1="13.2971" x2="15.2219" y2="29.5764" gradientUnits="userSpaceOnUse">
<stop stop-color="#004CFF"/>
<stop offset="0.252131" stop-color="#00E0FB"/>
<stop offset="0.505709" stop-color="#87FF70"/>
<stop offset="0.755054" stop-color="#F8F500"/>
<stop offset="1" stop-color="#FF1A00"/>
</linearGradient>
<clipPath id="clip0_144_593254">
<rect width="18" height="18" fill="white" transform="translate(7 7)"/>
</clipPath>
</defs>
</svg>
