<svg width="40" height="40" viewBox="0 0 40 40" fill="none" xmlns="http://www.w3.org/2000/svg">
<g clip-path="url(#clip0_102_2)">
<path d="M0 20C0 8.9543 8.9543 0 20 0C31.0457 0 40 8.9543 40 20C40 31.0457 31.0457 40 20 40C8.9543 40 0 31.0457 0 20Z" fill="black"/>
<path fill-rule="evenodd" clip-rule="evenodd" d="M29.6969 16.2011C29.2271 15.071 29.7101 13.7849 30.7772 13.2286C29.7781 11.6914 28.4799 10.4205 26.9941 9.46089C26.5839 10.2421 25.7778 10.7086 24.9294 10.7154C26.8956 12.4812 29.5706 15.3751 29.5706 19.7176C29.5706 24.989 25.2809 29.2622 19.9894 29.2622C14.6974 29.2622 10.4078 24.989 10.4078 19.7176C10.4078 15.3751 13.0831 12.4812 15.0491 10.7154C14.2005 10.7086 13.3944 10.2414 12.984 9.46045C11.4408 10.4559 10.1649 11.7489 9.20204 13.2289C10.2689 13.7851 10.7512 15.0715 10.2815 16.2011C9.81194 17.3311 8.55795 17.8999 7.40855 17.5425C7.03855 19.2671 7.02297 21.0801 7.40729 22.8709C8.5569 22.5126 9.81172 23.0822 10.2815 24.2124C10.7515 25.3426 10.2684 26.6284 9.20115 27.1848C10.2007 28.7221 11.4985 29.993 12.9841 30.9523C13.5427 29.8896 14.834 29.4089 15.9682 29.8767C17.1022 30.3449 17.6735 31.594 17.3146 32.7389C19.046 33.1075 20.8662 33.1229 22.6639 32.74C22.3041 31.5951 22.876 30.345 24.0104 29.8769C25.145 29.4088 26.436 29.8901 26.9945 30.9533C28.5376 29.9575 29.8138 28.6646 30.7765 27.1848C29.7099 26.6283 29.2271 25.3419 29.6969 24.2124C30.1665 23.0825 31.4208 22.5134 32.5699 22.8709C32.9399 21.1465 32.9555 19.3331 32.5711 17.5425C31.4214 17.9006 30.1667 17.3312 29.6969 16.2011Z" fill="white"/>
<path fill-rule="evenodd" clip-rule="evenodd" d="M16.2983 7.25097C15.029 9.48005 15.7938 11.1301 16.261 12.8163C18.0243 19.177 10.827 20.7872 13.6248 14.0536C12.5171 15.8626 11.5356 17.2438 11.5356 20.4054C11.5356 23.6078 13.2286 26.3993 15.7358 27.8668C15.1705 24.3563 18.3046 23.7876 19.7745 21.1291C22.4419 16.3039 15.0051 12.107 16.2983 7.25097Z" fill="#F17300"/>
<path fill-rule="evenodd" clip-rule="evenodd" d="M21.6241 9.8378C19.4027 7.3786 17.5504 4.99436 19.8947 0.625C18.3026 2.08391 15.2562 7.63051 17.7882 11.3215C20.0337 14.5949 21.9674 17.3939 20.7875 20.6989C19.7454 23.6179 15.8649 25.0049 16.8357 28.1871C22.1487 29.9479 27.7078 25.9095 27.7078 20.1039C27.7078 14.8546 22.7349 11.0676 21.6241 9.8378Z" fill="#E03597"/>
<path fill-rule="evenodd" clip-rule="evenodd" d="M22.9154 2.83325C19.714 6.30238 21.1412 7.1641 24.0165 10.196C24.2909 7.47304 20.8735 5.95244 22.9154 2.83325Z" fill="#F17300"/>
</g>
<defs>
<clipPath id="clip0_102_2">
<rect width="40" height="40" fill="white"/>
</clipPath>
</defs>
</svg>
