<svg width="32" height="40" viewBox="0 0 32 40" fill="none" xmlns="http://www.w3.org/2000/svg">
<g clip-path="url(#clip0_114_220)">
<path fill-rule="evenodd" clip-rule="evenodd" d="M14.4683 2.24725C12.029 7.23519 12.1764 9.57803 15.2225 14.2517C19.2295 20.399 19.2126 23.0999 15.1389 27.8241C11.2135 32.377 11.9493 34.4041 17.3095 33.8025C20.417 33.4536 23.5626 31.4197 25.1467 28.7347C26.2502 26.865 26.485 25.9063 26.4705 23.3334C26.4473 19.2329 25.4308 17.3559 20.231 11.8078C15.6645 6.93487 14.8026 5.08052 15.6631 1.97677C16.422 -0.762164 15.88 -0.638957 14.4683 2.24725ZM18.5115 4.20267C17.9849 5.06319 17.5535 6.04259 17.5526 6.379C17.5501 7.21208 21.5837 11.5209 21.7895 10.9054C21.8799 10.6359 21.3779 9.28301 20.674 7.89935C19.8706 6.3198 19.4696 4.87309 19.5966 4.01112C19.8556 2.25447 19.6855 2.28431 18.5115 4.20267ZM11.0063 10.0983C11.1227 11.4218 11.3594 13.8041 11.5329 15.3923C11.8082 17.9214 11.715 18.4475 10.7782 19.6295C10.0854 20.5039 9.34626 20.9279 8.67811 20.8327C7.80994 20.7094 7.64665 20.3629 7.64665 18.6404C7.64665 17.5147 7.58143 16.5945 7.50219 16.595C7.42296 16.595 6.93839 17.5162 6.4258 18.6409C4.51989 22.8237 5.91369 29.086 9.28153 31.4756L10.7869 32.543V31.2951C10.7869 30.4326 11.7 29.0692 13.7417 26.8832C16.6825 23.7338 16.695 23.7078 16.4892 21.236C16.3375 19.4114 15.7331 17.8309 14.2127 15.2811C13.074 13.3719 11.8392 10.8833 11.4686 9.75081L10.7947 7.69192L11.0063 10.0983ZM4.81846 12.4614C2.59224 14.6165 2.59031 14.6213 3.38214 15.9954C4.40394 17.7689 3.94788 19.6247 2.30768 20.3692C1.6173 20.683 0.873782 20.8293 0.655895 20.695C0.196447 20.4125 -0.152849 23.3377 0.0679369 25.6194C0.19065 26.8832 0.431244 27.1836 1.32164 27.1836C3.64641 27.1836 4.85518 30.2825 3.22899 32.0728C2.48161 32.8953 2.56809 33.0797 4.68415 35.1881C6.8007 37.2961 6.98574 37.3823 7.81139 36.6377C9.62889 34.999 12.7194 36.2277 12.7194 38.5888C12.7194 39.7323 14.9973 40.2959 17.7922 39.844C19.1328 39.6274 19.4831 39.3502 19.4831 38.5051C19.4831 37.2258 20.8885 35.8465 22.1915 35.8465C22.7094 35.8465 23.6317 36.1945 24.2409 36.6194C25.3119 37.3669 25.4197 37.3178 27.5232 35.1313C29.5296 33.045 29.6388 32.8053 28.9387 32.0343C27.2937 30.2238 28.5967 27.1836 31.0171 27.1836C32.0302 27.1836 32.0805 27.0098 31.9457 23.9812C31.8128 21.0107 31.7181 20.7662 30.6326 20.6026C29.9895 20.5059 29.174 20.1877 28.8209 19.8961C27.9416 19.1689 28.0116 16.3708 28.9286 15.6127C29.5851 15.0699 29.3948 14.7075 27.3855 12.6755C25.3264 10.5926 25.0139 10.4299 24.3037 11.0705C23.8693 11.4622 23.2336 11.7828 22.8915 11.7828C22.5495 11.7828 23.0461 12.6394 23.9954 13.6862C26.9174 16.9079 27.9073 19.2786 27.9232 23.0927C27.9353 25.8942 27.714 26.8568 26.6091 28.8083C25.1095 31.4573 25.0327 31.7128 25.8844 31.2282C26.2168 31.0395 25.8361 31.5877 25.039 32.4473C22.5702 35.1082 20.2087 36.0645 16.1013 36.0665C13.5132 36.0674 11.9947 35.8147 10.7869 35.1814C8.74575 34.111 5.90452 31.5054 6.22144 30.9943C6.34705 30.7922 5.95814 29.7974 5.35762 28.7848C4.48414 27.3125 4.2648 26.2181 4.2648 23.3334C4.2648 19.2998 5.30931 16.6561 8.01817 13.8354C8.84044 12.9792 9.41922 12.2188 9.30472 12.1456C9.18973 12.073 8.63511 11.6283 8.07179 11.1581C7.07029 10.3221 6.9983 10.351 4.81846 12.4614Z" fill="#0C0C0C"/>
</g>
<defs>
<clipPath id="clip0_114_220">
<rect width="32" height="40" fill="white"/>
</clipPath>
</defs>
</svg>
