<svg width="32" height="32" viewBox="0 0 32 32" fill="none" xmlns="http://www.w3.org/2000/svg">
<path d="M0 16C0 7.16344 7.16344 0 16 0V0C24.8366 0 32 7.16344 32 16V16C32 24.8366 24.8366 32 16 32V32C7.16344 32 0 24.8366 0 16V16Z" fill="white"/>
<g clip-path="url(#clip0_144_582744)">
<g clip-path="url(#clip1_144_582744)">
<path d="M19.6 7.9V7H12.4V7.9H10.6V8.8H8.8V10.6H7.9V12.4H7V19.6H7.9V21.4H8.8V23.2H10.6V24.1H12.4V25H19.6V24.1H21.4V23.2H23.2V21.4H24.1V19.6H25V12.4H24.1V10.6H23.2V8.8H21.4V7.9H19.6Z" fill="#BDBDBF"/>
<path d="M20.3193 19.6187L19.2393 19.6142V20.8157H20.3193V19.6187Z" fill="#68686D"/>
<path d="M19.2397 19.6225H11.6797V20.8195H19.2397V19.6225Z" fill="#BDBDBF"/>
<path fill-rule="evenodd" clip-rule="evenodd" d="M20.3196 18.4255H16.5846V19.6225H20.3196V20.8195H17.7809V22.0165H20.3196V20.8195H21.3996V19.6225H20.3196V18.4255ZM17.7809 20.8195H14.1906V22.0165H17.7809V20.8195ZM11.6796 20.8195V19.6225H10.5996V20.8195H11.6796V22.0165H14.1906V20.8195H11.6796ZM16.5846 18.4255H14.1899V19.6225H16.5831V18.4255H16.5846ZM14.1906 18.4255H11.6796V19.6225H14.1906V18.4255Z" fill="black"/>
<path fill-rule="evenodd" clip-rule="evenodd" d="M20.9728 15.8283V16.2505L20.5506 16.2505V16.6728H20.1283V17.095H19.7061V16.6727V16.2505V15.8283V15.406H20.1283V14.9838H20.5506L20.9728 14.9837H21.3951V15.406V15.8283H20.9728ZM21.3951 14.5615V14.9837H21.8173H22.2396V14.5615H22.6618V14.1392H22.2396V13.717H22.6618V13.2947H22.2396H21.8173V12.8725H21.3951L20.9728 12.8725V12.4502H20.5506H20.1283V12.028H19.7061V12.4502V12.8725V13.2947V13.717V14.1392V14.5615V14.9837L20.1283 14.9838V14.5615H20.5506H20.9728H21.3951ZM21.3951 14.1392H21.8173H22.2396V14.5615H21.8173H21.3951V14.1392Z" fill="#99999E"/>
<path fill-rule="evenodd" clip-rule="evenodd" d="M19.2835 12.028V12.4502H18.8612H18.439V12.8725H18.0168L17.5945 12.8725V13.2947L17.1722 13.2947L16.75 13.2947V13.717H17.1722V14.1393L18.0168 14.1392L18.0167 14.5615L18.439 14.5615H18.8613H19.2835L19.2835 14.9837H19.7058L19.705 14.5615V14.1392V13.717L19.705 13.2947V12.8725H19.7058L19.705 12.4502V12.0385L19.705 12.028H19.2835ZM18.0168 14.1392L17.1722 14.1393H17.5945L18.0168 14.1392Z" fill="#565656"/>
<path fill-rule="evenodd" clip-rule="evenodd" d="M20.5506 9.91671V9.49446V9.07221H20.1283V8.64996H19.7061V9.07221V9.49445V9.9167V10.339V10.7613V11.1835V11.6058V12.028H20.1283V12.4502H20.5506H20.9728V12.8725H21.3951H21.8173V13.2947H22.2396V12.8725V12.4502H21.8173V12.028V11.6057H21.3951V11.1835V10.7612H20.9728V10.339V9.9167L20.5506 9.91671Z" fill="#E1E1E1"/>
<path fill-rule="evenodd" clip-rule="evenodd" d="M18.8613 9.49446V9.91671L18.439 9.91678V10.339V10.7613L18.0167 10.7613V11.1835L18.0168 11.6057L17.5945 11.6058V12.028V12.4502H17.1722V12.8725V13.2947H17.5945V12.8725H18.0167H18.439V12.4502L18.8612 12.4502H19.2835L19.2835 12.028H19.7057L19.705 11.6058V11.1835V10.7613V10.339V9.91678L19.2835 9.91671L19.7057 9.9167L19.705 9.49445V9.0722L19.7058 9.07221L19.705 8.64996H19.2835V9.07221H18.8613V9.49446ZM17.1722 14.5615H17.5945L18.0168 14.5615V14.9838L17.5945 14.9838H17.1722V14.5615ZM17.1722 14.5615H16.75V14.1393H17.1722V14.5615ZM18.0168 15.8283V15.406V14.9838V15.8283ZM19.2835 16.6728H18.8613V16.2505L18.439 16.2505V15.8283H18.0168V14.9838H18.439L18.8613 14.9838H19.2835V15.406H19.7058V15.8283V16.2505V16.6728L19.7058 17.095H19.2835V16.6728Z" fill="#777777"/>
</g>
</g>
<path fill-rule="evenodd" clip-rule="evenodd" d="M11.8545 3.38363C13.345 2.89371 14.938 2.66971 16.5159 2.73019C18.0941 2.79067 19.6577 3.13595 21.1127 3.74395C22.5681 4.35195 23.9149 5.22299 25.0673 6.29755C26.5914 7.71931 27.7748 9.49755 28.4845 11.4867C29.1946 13.4761 29.4311 15.6764 29.1572 17.7711C28.8836 19.8659 28.0996 21.8553 26.9137 23.566C25.7277 25.2767 24.1396 26.7084 22.2743 27.7004C20.409 28.6921 18.266 29.2438 16.1537 29.2758C14.0413 29.3078 11.9594 28.8204 10.0948 27.895C8.23047 26.9695 6.58311 25.6063 5.33223 23.9036C4.08135 22.2009 3.22695 20.1587 2.88775 18.0748C2.54855 15.9907 2.72455 13.8646 3.37447 11.8812C3.86567 10.3817 4.62791 8.96411 5.60455 7.73563H4.12007V5.28187H9.93671V10.7135H7.48295V9.22939C6.68295 10.2355 6.05831 11.3967 5.65607 12.6255C5.12391 14.2511 4.98055 15.9951 5.25607 17.6969C5.59847 19.8137 6.58855 21.8649 8.06631 23.4457C9.83399 25.3363 12.2993 26.5542 14.8657 26.8207C17.4317 27.0873 20.0989 26.4028 22.217 24.9286C24.3351 23.4543 25.9047 21.1903 26.5418 18.6899C27.1789 16.1894 26.8836 13.4524 25.7348 11.142C24.586 8.83163 22.5834 6.94843 20.1889 5.95899C17.7943 4.96923 15.0074 4.87387 12.6036 5.66363L11.8545 3.38363Z" fill="url(#paint0_linear_144_582744)"/>
<circle cx="25" cy="7" r="7" fill="white"/>
<path fill-rule="evenodd" clip-rule="evenodd" d="M25.4451 6.6869C25.2573 6.69593 25.0692 6.70241 24.8811 6.70735C24.8946 6.79305 24.9071 6.87892 24.9187 6.96496C24.9438 7.1522 24.965 7.33978 24.983 7.52788C24.9951 7.65396 25.006 7.78003 25.0151 7.90645C25.0238 8.031 25.0301 8.15571 25.0339 8.2806C25.0417 8.55082 25.0373 8.82137 25.0258 9.09142C25.0154 9.33829 24.9992 9.58483 24.9794 9.83119C25.7822 9.47376 26.3941 9.33857 26.8508 9.23769L26.8573 9.23624C27.5945 9.07319 27.9244 8.99805 28.2136 8.92547C28.5026 8.85289 28.7509 8.78287 28.9572 8.6987C29.1636 8.61471 29.3281 8.5164 29.4574 8.39526C29.5868 8.27413 29.6811 8.12999 29.7644 7.92468C29.8476 7.71938 29.9199 7.45291 29.9612 7.15833C30.0026 6.86375 30.0132 6.54106 29.9817 6.28498C29.9503 6.02908 29.877 5.83996 29.7947 5.64931C29.7125 5.45866 29.6214 5.26648 29.4846 5.06066C29.3479 4.85485 29.1657 4.63557 28.908 4.39892C28.6504 4.16227 28.3173 3.90841 27.9239 3.66664C27.5306 3.42471 27.077 3.19487 26.5145 2.95311C25.9521 2.71118 25.2805 2.45732 24.6977 2.28506C24.1148 2.11264 23.6204 2.02183 23.1873 2.00343C22.7541 1.9852 22.3822 2.03955 22.0598 2.16699C21.7376 2.29444 21.4646 2.49497 21.2275 2.72515C20.9902 2.95515 20.7886 3.21481 20.6205 3.50104C20.4524 3.78727 20.3178 4.10008 20.2172 4.45191C20.1166 4.80373 20.0501 5.19441 20.0173 5.84644C19.9844 6.49864 19.985 7.41202 20.1415 8.27975C20.298 9.14747 20.6101 9.96937 20.9286 10.536C21.2468 11.1029 21.5712 11.4143 21.8411 11.6174C22.1109 11.8205 22.3261 11.9152 22.5417 11.9636C22.7573 12.0118 22.9731 12.0141 23.1726 11.9587C23.3722 11.9033 23.5555 11.7905 23.7142 11.6447C23.8729 11.499 24.0068 11.3203 24.1274 11.1124C24.2479 10.9046 24.3546 10.6674 24.44 10.4251C24.4857 10.2955 24.5251 10.1644 24.5589 10.0309C24.5858 9.92439 24.6087 9.81688 24.6281 9.70886C24.6505 9.58347 24.6679 9.45705 24.6807 9.33029C24.6934 9.20523 24.7016 9.07983 24.7071 8.95444C24.7125 8.82819 24.7153 8.70194 24.7161 8.57552C24.7183 8.27975 24.712 7.98363 24.6966 7.6882C24.6898 7.55582 24.6807 7.42344 24.6691 7.2914C24.6522 7.09802 24.6292 6.90515 24.6005 6.71314C24.5757 6.54805 24.5472 6.38329 24.5149 6.21939C24.4575 5.92805 24.3883 5.63807 24.2971 5.35558C24.2709 5.27482 24.2429 5.19492 24.2142 5.11518C24.1898 5.04738 24.165 4.97963 24.1402 4.91188C24.1232 4.86539 24.1062 4.8189 24.0893 4.77239C24.0743 4.72826 24.0603 4.68362 24.049 4.63847C24.0384 4.59554 24.0297 4.55175 24.0282 4.50745C24.0278 4.49552 24.028 4.4836 24.029 4.47167C24.0299 4.45975 24.0318 4.44782 24.0348 4.43623C24.0377 4.42465 24.042 4.4134 24.0475 4.40284C24.0529 4.39262 24.0598 4.38291 24.0676 4.37422C24.0845 4.35548 24.1061 4.34065 24.1281 4.32787C24.16 4.3093 24.1951 4.29584 24.2309 4.2863C24.3082 4.26603 24.3898 4.26296 24.4698 4.26569C24.5521 4.26858 24.6343 4.27795 24.7158 4.28971C24.8395 4.30743 24.9625 4.33111 25.0848 4.35701C25.2093 4.38325 25.3335 4.41221 25.457 4.44288C25.6454 4.48973 25.8327 4.54084 26.0184 4.59741C26.3088 4.68618 26.5949 4.79096 26.8731 4.91278C27.0635 4.99609 27.2511 5.0869 27.4336 5.18657C27.5566 5.25387 27.6775 5.32509 27.794 5.40295C27.8726 5.45542 27.9495 5.5108 28.0217 5.57162C28.0703 5.61251 28.1169 5.65613 28.1576 5.70468C28.169 5.71831 28.1798 5.73246 28.19 5.74694C28.2001 5.76159 28.2095 5.77675 28.2177 5.79243C28.2259 5.80827 28.2331 5.8248 28.2382 5.84184C28.2433 5.8587 28.2466 5.87642 28.2471 5.89397C28.2476 5.91118 28.2455 5.92873 28.2411 5.94543C28.2365 5.96178 28.2297 5.97746 28.2211 5.99211C28.2023 6.02397 28.1757 6.0514 28.1475 6.07542C28.1048 6.11188 28.0568 6.14204 28.0079 6.16947C27.9614 6.19554 27.9134 6.21939 27.8644 6.24018C27.8156 6.26079 27.7658 6.27902 27.7158 6.2964C27.6644 6.31412 27.6128 6.33099 27.5612 6.34734C27.4836 6.37188 27.4057 6.39556 27.3277 6.4189C27.2496 6.44207 27.1712 6.46524 27.0922 6.48569C26.9756 6.51584 26.8573 6.54055 26.7386 6.56133C26.6175 6.58229 26.4959 6.5995 26.3737 6.61398C26.25 6.62863 26.126 6.64073 26.002 6.65112C25.8166 6.66646 25.6309 6.67787 25.4451 6.6869ZM22.279 7.08693C22.3654 7.05747 22.4601 7.05409 22.5456 7.06847C22.6311 7.0827 22.7073 7.11484 22.7945 7.16925C22.8817 7.2238 22.9801 7.30063 23.0903 7.44878C23.2006 7.59692 23.3228 7.81654 23.4124 8.04334C23.5022 8.27029 23.5594 8.50442 23.5892 8.75942C23.6192 9.01442 23.6218 9.29013 23.5983 9.51835C23.575 9.74642 23.5255 9.92713 23.4661 10.0654C23.4068 10.2037 23.3375 10.2997 23.2505 10.3761C23.1633 10.4526 23.0585 10.5097 22.9358 10.5261C22.8132 10.5426 22.6728 10.5183 22.5531 10.4725C22.4332 10.4267 22.3342 10.3592 22.2347 10.2554C22.1352 10.1517 22.0352 10.0116 21.9456 9.84199C21.8559 9.67228 21.7763 9.4731 21.7256 9.27054C21.6748 9.06798 21.6528 8.86204 21.6417 8.66949C21.6307 8.47708 21.6307 8.2982 21.6579 8.11002C21.6848 7.9217 21.7391 7.72421 21.8068 7.57564C21.8745 7.42707 21.9558 7.32755 22.0352 7.24988C22.1148 7.17221 22.1927 7.11653 22.279 7.08693Z" fill="black"/>
<g clip-path="url(#clip2_144_582744)">
<path d="M27.8 18.7V18H22.2V18.7H20.8V19.4H19.4V20.8H18.7V22.2H18V27.8H18.7V29.2H19.4V30.6H20.8V31.3H22.2V32H27.8V31.3H29.2V30.6H30.6V29.2H31.3V27.8H32V22.2H31.3V20.8H30.6V19.4H29.2V18.7H27.8Z" fill="#BDBDBF"/>
<path d="M29.5496 24.413L28.4121 24.4086V25.5797H29.5496V24.413Z" fill="#68686D"/>
<path d="M28.4127 24.4167H20.4502V25.5833H28.4127V24.4167Z" fill="#C4C4C4"/>
<path fill-rule="evenodd" clip-rule="evenodd" d="M29.55 23.25H25.6161V24.4167H29.55V25.5833H26.8761V26.75H29.55V25.5833H30.6875V24.4167H29.55V23.25ZM26.8761 25.5833H23.0947V26.75H26.8761V25.5833ZM20.45 25.5833V24.4167H19.3125V25.5833H20.45V26.75H23.0947V25.5833H20.45ZM25.6161 23.25H23.0939V24.4167H25.6146V23.25H25.6161ZM23.0947 23.25H20.45V24.4167H23.0947V23.25Z" fill="black"/>
</g>
<defs>
<linearGradient id="paint0_linear_144_582744" x1="2.04317" y1="13.2971" x2="15.2219" y2="29.5764" gradientUnits="userSpaceOnUse">
<stop stop-color="#004CFF"/>
<stop offset="0.252131" stop-color="#00E0FB"/>
<stop offset="0.505709" stop-color="#87FF70"/>
<stop offset="0.755054" stop-color="#F8F500"/>
<stop offset="1" stop-color="#FF1A00"/>
</linearGradient>
<clipPath id="clip0_144_582744">
<rect width="18" height="18" fill="white" transform="translate(7 7)"/>
</clipPath>
<clipPath id="clip1_144_582744">
<rect width="18" height="18" fill="white" transform="translate(7 7)"/>
</clipPath>
<clipPath id="clip2_144_582744">
<rect width="14" height="14" fill="white" transform="translate(18 18)"/>
</clipPath>
</defs>
</svg>
