<?xml version="1.0" encoding="UTF-8" standalone="no"?>
<svg
   width="32"
   height="32"
   viewBox="0 0 32 32"
   version="1.1"
   id="svg37"
   sodipodi:docname="logo.svg"
   inkscape:version="1.1 (1:1.1+202105261517+ce6663b3b7)"
   xmlns:inkscape="http://www.inkscape.org/namespaces/inkscape"
   xmlns:sodipodi="http://sodipodi.sourceforge.net/DTD/sodipodi-0.dtd"
   xmlns="http://www.w3.org/2000/svg"
   xmlns:svg="http://www.w3.org/2000/svg">
  <sodipodi:namedview
     id="namedview39"
     pagecolor="#ffffff"
     bordercolor="#666666"
     borderopacity="1.0"
     inkscape:pageshadow="2"
     inkscape:pageopacity="0.0"
     inkscape:pagecheckerboard="0"
     showgrid="false"
     inkscape:zoom="11.039427"
     inkscape:cx="1.6758117"
     inkscape:cy="7.201461"
     inkscape:window-width="1848"
     inkscape:window-height="1016"
     inkscape:window-x="72"
     inkscape:window-y="27"
     inkscape:window-maximized="1"
     inkscape:current-layer="g33" />
  <defs
     id="defs13">
    <linearGradient
       id="ytoken-crv-3pool-lp-a"
       x1="28.124%"
       x2="77.719%"
       y1="15.015%"
       y2="76.329%">
      <stop
         offset="0%"
         stop-color="#004CFF"
         id="stop2" />
      <stop
         offset="25.213%"
         stop-color="#00E0FB"
         id="stop4" />
      <stop
         offset="50.571%"
         stop-color="#87FF70"
         id="stop6" />
      <stop
         offset="75.505%"
         stop-color="#F8F500"
         id="stop8" />
      <stop
         offset="100%"
         stop-color="#FF1A00"
         id="stop10" />
    </linearGradient>
    <linearGradient
       id="paint0_linear"
       x1="2.04343"
       y1="13.2971"
       x2="15.2222"
       y2="29.5764"
       gradientUnits="userSpaceOnUse"
       gradientTransform="translate(30.968726,-7.9871598)">
      <stop
         stop-color="#004CFF"
         id="stop65" />
      <stop
         offset="0.252131"
         stop-color="#00E0FB"
         id="stop67" />
      <stop
         offset="0.505709"
         stop-color="#87FF70"
         id="stop69" />
      <stop
         offset="0.755054"
         stop-color="#F8F500"
         id="stop71" />
      <stop
         offset="1"
         stop-color="#FF1A00"
         id="stop73" />
    </linearGradient>
    <linearGradient
       id="paint1_linear"
       x1="8"
       y1="8"
       x2="24"
       y2="24"
       gradientUnits="userSpaceOnUse"
       gradientTransform="translate(30.968726,-7.9871598)">
      <stop
         stop-color="white"
         id="stop76" />
      <stop
         offset="1"
         stop-color="white"
         stop-opacity="0"
         id="stop78" />
    </linearGradient>
  </defs>
  <g
     fill="none"
     fill-rule="evenodd"
     id="g35">
    <path
       fill="#FFF"
       d="M32,15.999936 C32,13.905856 31.58336,11.811776 30.78208,9.877056 C29.98048,7.942336 28.79424,6.166976 27.3136,4.686336 C25.83296,3.205376 24.0576,2.019456 22.12288,1.217856 C20.18816,0.416576 18.09408,-6.4e-05 16,-6.4e-05 C13.90592,-6.4e-05 11.81152,0.416576 9.8768,1.217856 C7.94208,2.019456 6.16704,3.205376 4.68608,4.686336 C3.20544,6.166976 2.0192,7.942336 1.21792,9.877056 C0.41632,11.811776 0,13.905856 0,15.999936 C0,18.094016 0.41632,20.188096 1.21792,22.122816 C2.0192,24.057536 3.20544,25.832896 4.68608,27.313856 C6.16704,28.794496 7.94208,29.980736 9.8768,30.782016 C11.81152,31.583296 13.90592,31.999936 16,31.999936 C18.09408,31.999936 20.18816,31.583296 22.12288,30.782016 C24.0576,29.980736 25.83296,28.794496 27.3136,27.313856 C28.79424,25.832896 29.98048,24.057536 30.78208,22.122816 C31.58336,20.188096 32,18.094016 32,15.999936 Z"
       id="path15" />
    <path
       fill="url(#ytoken-crv-3pool-lp-a)"
       d="M11.85472,3.383616 C13.34528,2.893696 14.93824,2.669696 16.51616,2.730176 C18.0944,2.790656 19.65792,3.135936 21.11296,3.743936 C22.56832,4.351936 23.9152,5.222976 25.06752,6.297536 C26.59168,7.719296 27.77504,9.497536 28.4848,11.486656 C29.19488,13.476096 29.43136,15.676416 29.15744,17.771136 C28.88384,19.865856 28.09984,21.855296 26.91392,23.566016 C25.728,25.276736 24.13984,26.708416 22.27456,27.700416 C20.40928,28.692096 18.26624,29.243776 16.15392,29.275776 C14.0416,29.307776 11.95968,28.820416 10.09504,27.894976 C8.23072,26.969536 6.58336,25.606336 5.33248,23.903616 C4.0816,22.200896 3.2272,20.158656 2.888,18.074816 C2.5488,15.990656 2.7248,13.864576 3.37472,11.881216 C3.86592,10.381696 4.62816,8.964096 5.6048,7.735616 L4.12032,7.735616 L4.12032,5.281856 L9.93696,5.281856 L9.93696,10.713536 L7.4832,10.713536 L7.4832,9.229376 C6.6832,10.235456 6.05856,11.396736 5.65632,12.625536 C5.12416,14.251136 4.9808,15.995136 5.25632,17.696896 C5.59872,19.813696 6.5888,21.864896 8.06656,23.445696 C9.83424,25.336256 12.29952,26.554176 14.86592,26.820736 C17.432,27.087296 20.0992,26.402816 22.21728,24.928576 C24.33536,23.454336 25.90496,21.190336 26.54208,18.689856 C27.1792,16.189376 26.88384,13.452416 25.73504,11.142016 C24.58624,8.831616 22.58368,6.948416 20.18912,5.958976 C17.79456,4.969216 15.00768,4.873856 12.60384,5.663616 L11.85472,3.383616 Z"
       id="path17"
       inkscape:export-filename="/home/plpp-2019/repos/yearn-assets/icons/tokens/0xcA3d75aC011BF5aD07a98d02f18225F9bD9A6BDF/logo-32.png"
       inkscape:export-xdpi="115.71"
       inkscape:export-ydpi="115.71" />
    <g
       transform="translate(6.725 6.03)"
       id="g33">
      <path
         fill="#FFF"
         stroke="#000"
         stroke-width=".525"
         d="M9.07200007,0.944999995 C9.66567176,0.944999995 10.2593434,1.06311744 10.8078366,1.29028032 C11.3563297,1.5174432 11.8596443,1.85374224 12.2794057,2.27359441 C12.6992579,2.69335585 13.0355569,3.19667042 13.2627198,3.74516354 C13.4898827,4.29365667 13.6080001,4.88732835 13.6080001,5.48100004 C13.6080001,6.07467172 13.4898827,6.66834341 13.2627198,7.21683653 C13.1114369,7.58211452 12.911751,7.9273553 12.6712182,8.24122444 C13.2613457,8.24133181 13.8525029,8.35941185 14.3988366,8.58568039 C14.9473297,8.81284327 15.4506443,9.14914231 15.8704057,9.56899447 C16.2902579,9.98875592 16.6265569,10.4920705 16.8537198,11.0405636 C17.0808827,11.5890567 17.1990001,12.1827284 17.1990001,12.7764001 C17.1990001,13.3700718 17.0808827,13.9637435 16.8537198,14.5122366 C16.6265569,15.0607297 16.2902579,15.5640443 15.8704057,15.9838057 C15.4506443,16.4036579 14.9473297,16.7399569 14.3988366,16.9671198 C13.8503435,17.1942827 13.2566718,17.3124001 12.6630001,17.3124001 C12.0693284,17.3124001 11.4756567,17.1942827 10.9271636,16.9671198 C10.3786705,16.7399569 9.87535592,16.4036579 9.45559447,15.9838057 C9.31820443,15.8464454 9.18976144,15.700138 9.07116197,15.5462282 C8.9542387,15.700138 8.82579571,15.8464454 8.68840567,15.9838057 C8.26864422,16.4036579 7.76532966,16.7399569 7.21683653,16.9671198 C6.66834341,17.1942827 6.07467172,17.3124001 5.48100004,17.3124001 C4.88732835,17.3124001 4.29365667,17.1942827 3.74516354,16.9671198 C3.19667042,16.7399569 2.69335585,16.4036579 2.27359441,15.9838057 C1.85374224,15.5640443 1.5174432,15.0607297 1.29028032,14.5122366 C1.06311744,13.9637435 0.944999995,13.3700718 0.944999995,12.7764001 C0.944999995,12.1827284 1.06311744,11.5890567 1.29028032,11.0405636 C1.5174432,10.4920705 1.85374224,9.98875592 2.27359441,9.56899447 C2.69335585,9.14914231 3.19667042,8.81284327 3.74516354,8.58568039 C4.29365667,8.3585175 4.88732835,8.24040006 5.48100004,8.24040006 C5.23224915,7.9273553 5.03256319,7.58211452 4.88128035,7.21683653 C4.65411747,6.66834341 4.53600003,6.07467172 4.53600003,5.48100004 C4.53600003,4.88732835 4.65411747,4.29365667 4.88128035,3.74516354 C5.10844323,3.19667042 5.44474228,2.69335585 5.86459444,2.27359441 C6.28435588,1.85374224 6.78767045,1.5174432 7.33616357,1.29028032 C7.8846567,1.06311744 8.47832838,0.944999995 9.07200007,0.944999995 Z"
         id="path19"
         inkscape:export-filename="/home/plpp-2019/repos/yearn-assets/icons/tokens/0xcA3d75aC011BF5aD07a98d02f18225F9bD9A6BDF/logo-32.png"
         inkscape:export-xdpi="115.71"
         inkscape:export-ydpi="115.71" />
      <path
         fill="#000000"
         d="m 14.836146,10.56691 v 1.011577 h -1.536762 v 0.570189 c 0.633353,0.02883 1.184216,0.104255 1.584828,0.211812 0.200396,0.05374 0.363116,0.114788 0.483282,0.187534 0.06008,0.03633 0.110046,0.0756 0.147902,0.122464 0.03786,0.04695 0.06343,0.104344 0.06343,0.165666 0,0.06132 -0.02557,0.118715 -0.06343,0.165665 -0.03786,0.04686 -0.08782,0.08614 -0.147902,0.122464 -0.120166,0.07275 -0.282886,0.1338 -0.483192,0.187534 -0.400702,0.107558 -0.951565,0.182982 -1.58022,0.211634 v 0 l -0.0043,1.78e-4 v 2.032883 h -1.111883 v -2.032883 c -0.632992,-0.02883 -1.183855,-0.104254 -1.584557,-0.211812 -0.200306,-0.05373 -0.363026,-0.114788 -0.483191,-0.187534 -0.06008,-0.03633 -0.110047,-0.0756 -0.1479029,-0.122464 -0.03786,-0.04695 -0.06343,-0.104344 -0.06343,-0.165665 0,-0.06132 0.02557,-0.118715 0.06343,-0.165666 0.03786,-0.04686 0.08782,-0.08613 0.1479029,-0.122464 0.120165,-0.07275 0.282885,-0.133799 0.483281,-0.187534 0.400612,-0.107557 0.951475,-0.182981 1.58013,-0.211634 v 0 l 0.0047,-1.78e-4 V 11.578487 H 10.651498 V 10.56691 Z m -1.53622,1.805093 v 0.569385 l -0.01093,9.82e-4 c -0.01418,0.0013 -0.06451,0.0055 -0.155221,0.0094 -0.04536,0.0019 -0.100831,0.0037 -0.166786,0.0051 -0.03298,6.25e-4 -0.06858,0.0012 -0.106975,0.0015 v 0 h -0.23238 c -0.0384,-3.57e-4 -0.074,-8.93e-4 -0.106974,-0.0015 -0.06596,-0.0013 -0.12143,-0.0032 -0.166786,-0.0051 -0.09071,-0.0038 -0.141036,-0.0081 -0.155221,-0.0094 v 0 l -0.01093,-9.82e-4 v -0.569385 c -0.547159,0.02419 -1.024749,0.08372 -1.362116,0.164148 -0.168864,0.04035 -0.302853,0.08631 -0.390131,0.132996 -0.04364,0.0233 -0.07535,0.04695 -0.09396,0.0673 -0.01861,0.02044 -0.02376,0.03517 -0.02376,0.04775 0,0.01258 0.0051,0.02731 0.02376,0.04775 0.01861,0.02035 0.05032,0.044 0.09405,0.0673 0.08728,0.04668 0.221267,0.09265 0.390222,0.132997 0.337818,0.0806 0.816311,0.140226 1.364284,0.164326 v 0 l 0.553754,0.01223 0.553755,-0.01223 c 0.547972,-0.0241 1.026466,-0.08372 1.364284,-0.164326 0.168954,-0.04035 0.302943,-0.08631 0.390221,-0.132997 0.04373,-0.0233 0.07544,-0.04695 0.09405,-0.0673 0.01861,-0.02044 0.02376,-0.03517 0.02376,-0.04775 0,-0.01259 -0.0052,-0.02731 -0.02376,-0.04775 -0.01861,-0.02035 -0.05033,-0.04401 -0.09396,-0.0673 -0.08728,-0.04668 -0.221267,-0.09265 -0.390131,-0.132996 -0.337366,-0.08042 -0.814956,-0.139959 -1.362115,-0.164148 z"
         id="path29"
         inkscape:export-filename="/home/plpp-2019/repos/yearn-assets/icons/tokens/0xcA3d75aC011BF5aD07a98d02f18225F9bD9A6BDF/logo-32.png"
         inkscape:export-xdpi="115.71"
         inkscape:export-ydpi="115.71" />
      <g
         id="g276"
         transform="matrix(0.62137532,0,0,0.62137532,-20.112524,-0.0839811)"
         style="fill:#000000"
         inkscape:export-filename="/home/plpp-2019/repos/yearn-assets/icons/tokens/0xcA3d75aC011BF5aD07a98d02f18225F9bD9A6BDF/logo-32.png"
         inkscape:export-xdpi="115.71"
         inkscape:export-ydpi="115.71">
        <path
           fill-rule="evenodd"
           clip-rule="evenodd"
           d="m 44.152426,8.6320402 2.8152,3.9673998 v -2.304 z"
           fill="#ffffff"
           id="path53"
           style="fill:#000000" />
        <path
           fill-rule="evenodd"
           clip-rule="evenodd"
           d="m 46.967626,10.29544 v 2.304 l 2.8174,-3.9673998 z"
           fill="#d9d9d9"
           id="path55"
           style="fill:#000000" />
        <path
           fill-rule="evenodd"
           clip-rule="evenodd"
           d="m 46.968726,6.5128402 -2.8163,1.5851 2.8152,1.6644 z"
           fill="#808080"
           id="path57"
           style="fill:#000000" />
        <path
           fill-rule="evenodd"
           clip-rule="evenodd"
           d="m 46.967626,9.7623402 2.8158,-1.6644 -2.8147,-1.5851 z"
           fill="#666666"
           id="path59"
           style="fill:#000000" />
        <path
           fill-rule="evenodd"
           clip-rule="evenodd"
           d="m 46.967626,3.4262402 -2.8152,4.6717 2.8152,-1.2796 z"
           fill="#ffffff"
           id="path61"
           style="fill:#000000" />
        <path
           fill-rule="evenodd"
           clip-rule="evenodd"
           d="m 49.783426,8.0979402 -2.8158,-4.6717 v 3.3921 z"
           fill="#d9d9d9"
           id="path63"
           style="fill:#000000" />
      </g>
      <path
         fill-rule="evenodd"
         clip-rule="evenodd"
         d="M 7.2173217,12.144726 C 7.3076941,11.545491 6.8473964,11.223844 6.2176965,11.008333 l 0.2042081,-0.811025 -0.498789,-0.122963 -0.1990896,0.78981 c -0.1309112,-0.03231 -0.2655485,-0.0631 -0.3994897,-0.09307 L 5.5243629,9.976233 5.0263521,9.853 4.8214068,10.664129 4.7532278,10.648449 h -4.09e-5 c -0.084763,-0.01946 -0.1682969,-0.03866 -0.2500702,-0.0584 l 8.189e-4,-0.003 -0.6882149,-0.169935 -0.1323851,0.527576 0.00398,9.22e-4 c 0.043036,0.0098 0.3656256,0.08357 0.3577637,0.08841 0.201915,0.04987 0.2391369,0.182547 0.2330356,0.287128 L 3.7179858,13.5441 c -0.024487,0.06077 -0.087383,0.151754 -0.2286542,0.117193 0.00528,0.0073 -0.34421,-0.0846 -0.3625955,-0.08947 L 2.879,14.136779 3.5285189,14.297334 c 0.06953,0.01716 0.1382818,0.03496 0.2062557,0.05253 l 8.19e-5,4.1e-5 c 0.050039,0.01294 0.099627,0.02576 0.1488463,0.03816 l -0.2062964,0.8206 0.498584,0.123049 0.2042082,-0.811755 c 0.1361935,0.03653 0.2680464,0.07031 0.3974833,0.1018 L 4.5742109,15.42991 5.0729998,15.552959 5.27946,14.733915 c 0.8501647,0.159616 1.4903066,0.09532 1.7595813,-0.666758 0.2168202,-0.613279 -0.011183,-0.96703 -0.4587416,-1.197897 0.3261926,-0.0739 0.5711032,-0.286348 0.6370297,-0.724535 z m -1.1396269,1.581825 c -0.1416804,0.56275 -1.0295992,0.330861 -1.4370329,0.224437 -0.037018,-0.0097 -0.070102,-0.0183 -0.098276,-0.02522 l 0.2737386,-1.087299 c 0.034274,0.0085 0.076246,0.01782 0.1237861,0.02838 v 0 c 0.4213561,0.09361 1.2821263,0.284834 1.1377842,0.859705 z M 5.0233629,12.361465 c 0.3389684,0.08976 1.0794741,0.285776 1.2083377,-0.225583 0.1316892,-0.523522 -0.5876872,-0.681295 -0.9391448,-0.75836 -0.039475,-0.0087 -0.07428,-0.0163 -0.1027385,-0.02334 l -0.2479407,0.986116 c 0.023381,0.0058 0.050776,0.01307 0.081486,0.02117 z"
         fill="#000000"
         id="path179"
         style="stroke-width:0.409481"
         inkscape:export-filename="/home/plpp-2019/repos/yearn-assets/icons/tokens/0xcA3d75aC011BF5aD07a98d02f18225F9bD9A6BDF/logo-32.png"
         inkscape:export-xdpi="115.71"
         inkscape:export-ydpi="115.71" />
    </g>
  </g>
</svg>
