<svg width="40" height="40" viewBox="0 0 40 40" fill="none" xmlns="http://www.w3.org/2000/svg">
<g clip-path="url(#clip0_105_2)">
<path fill-rule="evenodd" clip-rule="evenodd" d="M39.6491 23.7497C39.8794 22.5351 40 21.2816 40 20C40 8.9543 31.0457 0 20 0C8.9543 0 0 8.9543 0 20C0 31.0457 8.9543 40 20 40C29.1156 40 36.8068 33.9016 39.2164 25.5622C39.4382 24.8723 39.5703 24.3779 39.6491 23.7497ZM19.6489 1.166C9.40742 1.35319 1.16279 9.71377 1.16279 20C1.16279 30.2862 9.40742 38.6468 19.6489 38.834V35.6476L14.0687 31.2204H10.5944C7.16472 31.2204 6.3837 31.1311 6.3837 30.7387C6.3837 30.6284 6.86474 29.7278 7.45283 28.7373L8.52197 26.936L6.37998 25.0777L6.39115 14.8784L19.6489 4.45037V1.166ZM38.8372 20C38.8372 30.2095 30.7152 38.5219 20.58 38.8285L20.5954 35.5087L25.9639 31.3363L29.7272 31.2204C32.9211 31.1221 33.5011 31.0489 33.5611 30.7362C33.6002 30.5336 33.2088 29.6365 32.6912 28.7427C32.1739 27.8488 31.7538 27.0236 31.7577 26.9089C31.7617 26.7941 32.233 26.3491 32.805 25.9198L33.845 25.1393V15.081L33.205 14.4945C32.8532 14.1721 29.8683 11.7985 26.5724 9.21991L20.5798 4.53173V1.17154C30.7151 1.47797 38.8372 9.79047 38.8372 20ZM32.0205 14.6494C31.68 14.3682 28.8599 12.1401 25.7535 9.69835C22.6471 7.25656 20.0813 5.26005 20.0518 5.26191C20.0222 5.26353 17.5297 7.21947 14.513 9.60818C11.4962 11.9969 8.67742 14.2185 8.24921 14.5453L7.47052 15.1392L10.0572 17.1677C11.4801 18.2831 12.728 19.1813 12.8301 19.1635C12.9325 19.1456 14.5137 16.5576 16.344 13.412C18.1742 10.2667 19.746 7.61909 19.8367 7.52869C19.9275 7.43829 20.1111 7.43806 20.2447 7.52846C20.3783 7.61863 21.9862 10.2741 23.8177 13.4297C25.6492 16.5852 27.2392 19.1667 27.3511 19.1667C27.4628 19.1667 28.6984 18.2655 30.0968 17.164L32.6395 15.161L32.0205 14.6494ZM26.8361 20.3978C23.7493 15.0673 20.9696 10.2626 20.6592 9.72083C20.3487 9.17912 20.0729 8.73684 20.0464 8.73846C20.0199 8.73985 19.6429 9.39191 19.2088 10.1872C18.4232 11.6267 16.8909 14.2734 14.6922 17.9887C13.7282 19.6178 13.5925 19.9815 13.8709 20.1908C14.054 20.3287 15.6386 21.5712 17.392 22.9516L20.5798 25.4618V30.2932H26.5143C29.7782 30.2932 32.4487 30.2473 32.4487 30.1914C32.4487 30.1353 29.9232 25.7283 26.8361 20.3978ZM19.247 25.5329C19.0201 25.3727 16.4257 23.3389 13.4818 21.0133C10.5378 18.6876 7.94574 16.6264 7.72186 16.4331C7.33577 16.0998 7.31506 16.3102 7.32484 20.4637L7.33531 24.8459L19.5326 34.432L19.5961 30.1279C19.6533 26.2292 19.6205 25.7967 19.247 25.5329ZM31.1541 26.0628C31.1834 26.0948 31.5962 25.7819 32.0712 25.3674L32.9349 24.6141L32.7978 16.0986L30.296 18.1035C28.9202 19.2061 27.7942 20.1595 27.7942 20.2221C27.7942 20.3195 31.0051 25.9012 31.1541 26.0628ZM12.6672 30.2188C12.6672 30.178 12.0128 29.6244 11.2127 28.9891C10.4128 28.3535 9.63136 27.7573 9.4766 27.6646C9.29298 27.5545 8.94924 27.9223 8.48962 28.7206C8.10167 29.3943 7.78353 30.0238 7.78214 30.1193C7.78097 30.2148 8.87966 30.2932 10.2236 30.2932C11.5676 30.2932 12.6672 30.2598 12.6672 30.2188ZM22.3834 33.0505C23.3755 32.2558 24.2864 31.5189 24.4081 31.413C24.5296 31.3071 23.7181 31.2204 22.6045 31.2204H20.5798V34.4953L22.3834 33.0505Z" fill="#0C0C0C"/>
</g>
<defs>
<clipPath id="clip0_105_2">
<rect width="40" height="40" fill="white"/>
</clipPath>
</defs>
</svg>
