<svg width="80" height="80" viewBox="0 0 80 80" fill="none" xmlns="http://www.w3.org/2000/svg">
<path d="M40 0C17.9094 0 0 17.9094 0 40C0 62.0906 17.9094 80 40 80C62.0906 80 80 62.0906 80 40C79.9303 17.9094 62.0209 0 40 0Z" fill="white"/>
<path d="M57.0703 22.9297C53.1673 19.0234 46.8359 19.0234 42.9297 22.9297L57.0703 37.0703C60.9766 33.1657 60.9766 26.8343 57.0703 22.9297Z" fill="black"/>
<path d="M32.9264 32.9297C36.8327 29.0234 43.1641 29.0234 47.0703 32.9297C50.9733 36.8343 50.9733 43.1657 47.0703 47.0719L32.9264 32.9297Z" fill="black"/>
<path d="M40 50C40 44.4775 35.5241 40 30 40C24.4759 40 20 44.4775 20 50C20 55.5225 24.4759 60 30 60C35.5241 60 40 55.5225 40 50Z" fill="black"/>
<path d="M42.9297 57.0703C46.8359 60.9749 53.1673 60.9749 57.0703 57.0703C60.9766 53.1657 60.9766 46.8327 57.0703 42.9281L42.9297 57.0703Z" fill="black"/>
<path d="M22.9297 22.9297C26.8327 19.0234 33.1641 19.0234 37.0703 22.9297L22.9297 37.0703C19.0234 33.1657 19.0234 26.8343 22.9297 22.9297Z" fill="black"/>
</svg>
