<svg width="40" height="40" viewBox="0 0 40 40" fill="none" xmlns="http://www.w3.org/2000/svg">
<path d="M37.0703 2.92969C33.1673 -0.976562 26.8359 -0.976562 22.9297 2.92969L37.0703 17.0703C40.9766 13.1657 40.9766 6.83431 37.0703 2.92969Z" fill="black"/>
<path d="M12.9264 12.9297C16.8327 9.02344 23.1641 9.02344 27.0703 12.9297C30.9733 16.8343 30.9733 23.1657 27.0703 27.0719L12.9264 12.9297Z" fill="black"/>
<path d="M20 30C20 24.4775 15.5241 20 10 20C4.47591 20 0 24.4775 0 30C0 35.5225 4.47591 40 10 40C15.5241 40 20 35.5225 20 30Z" fill="black"/>
<path d="M22.9297 37.0703C26.8359 40.9749 33.1673 40.9749 37.0703 37.0703C40.9766 33.1657 40.9766 26.8327 37.0703 22.9281L22.9297 37.0703Z" fill="black"/>
<path d="M2.92969 2.92969C6.83268 -0.976562 13.1641 -0.976562 17.0703 2.92969L2.92969 17.0703C-0.976562 13.1657 -0.976562 6.83431 2.92969 2.92969Z" fill="black"/>
</svg>
