<svg width="32" height="32" viewBox="0 0 32 32" fill="none" xmlns="http://www.w3.org/2000/svg">
<g clip-path="url(#clip0_541_216605)">
<mask id="mask0_541_216605" style="mask-type:luminance" maskUnits="userSpaceOnUse" x="0" y="3" width="26" height="26">
<path d="M26 3H0V29H26V3Z" fill="white"/>
</mask>
<g mask="url(#mask0_541_216605)">
<path fill-rule="evenodd" clip-rule="evenodd" d="M26 16C26 14.2986 25.6615 12.5971 25.0104 11.0252C24.3594 9.4532 23.3956 8.01072 22.1923 6.8077C20.9893 5.60442 19.5468 4.6406 17.9748 3.98956C16.4029 3.33852 14.7014 3 13 3C11.2986 3 9.59714 3.33852 8.02517 3.98956C6.4532 4.6406 5.01072 5.60442 3.8077 6.8077C2.60442 8.01072 1.6406 9.4532 0.98956 11.0252C0.33852 12.5971 0 14.2986 0 16C0 17.7014 0.33852 19.4029 0.98956 20.9748C1.6406 22.5468 2.60442 23.9893 3.8077 25.1923C5.01072 26.3956 6.4532 27.3594 8.02517 28.0104C9.59714 28.6615 11.2986 29 13 29C14.7014 29 16.4029 28.6615 17.9748 28.0104C19.5468 27.3594 20.9893 26.3956 22.1923 25.1923C23.3956 23.9893 24.3594 22.5468 25.0104 20.9748C25.6615 19.4029 26 17.7014 26 16Z" fill="#2775CA"/>
<path fill-rule="evenodd" clip-rule="evenodd" d="M10.6194 25.0057C10.6194 25.3233 10.3984 25.4291 10.0779 25.4291C6.06526 24.1448 3.25 20.4966 3.25 16.2061C3.25 11.9155 6.06526 8.26731 10.0779 6.98301C10.3995 6.88004 10.6194 7.08881 10.6194 7.41368C10.6194 7.66287 10.6194 7.91232 10.6194 8.16151C10.6194 8.38032 10.5056 8.59192 10.2916 8.69771C7.14843 9.87621 4.98186 12.7766 4.98186 16.2061C4.98186 19.6427 7.25557 22.6417 10.2916 23.7144C10.5056 23.8202 10.6194 24.039 10.6194 24.2506C10.6194 24.5024 10.6194 24.7541 10.6194 25.0057Z" fill="white"/>
<path fill-rule="evenodd" clip-rule="evenodd" d="M13.869 22.3244C13.869 22.536 13.648 22.7476 13.4343 22.7476C13.1444 22.7476 12.8548 22.7476 12.5649 22.7476C12.3512 22.7476 12.1302 22.536 12.1302 22.3244C12.1302 21.894 12.1302 21.4633 12.1302 21.0329C10.398 20.8213 9.53588 19.8544 9.20801 18.4573C9.20801 18.2455 9.31488 18.0338 9.53588 18.0338C9.85882 18.0338 10.182 18.0338 10.5052 18.0338C10.7262 18.0338 10.833 18.1397 10.9399 18.3513C11.1609 19.1066 11.5883 19.7486 12.9996 19.7486C14.083 19.7486 14.8383 19.2124 14.8383 18.3513C14.8383 17.4977 14.4109 17.173 12.8927 16.9612C10.618 16.644 9.53588 15.9945 9.53588 14.1668C9.53588 12.7767 10.619 11.704 12.1302 11.4852C12.1302 11.0571 12.1302 10.629 12.1302 10.2009C12.1302 9.98929 12.3512 9.77051 12.5649 9.77051C12.8548 9.77051 13.1444 9.77051 13.4343 9.77051C13.648 9.77051 13.869 9.98929 13.869 10.2009C13.869 10.629 13.869 11.0571 13.869 11.4852C15.1662 11.704 16.0359 12.4521 16.2496 13.6306C16.2496 13.8494 16.1427 14.061 15.9217 14.061C15.6342 14.061 15.3469 14.061 15.0593 14.061C14.8383 14.061 14.7315 13.9552 14.6246 13.7434C14.4109 12.9883 13.869 12.6709 12.8927 12.6709C11.8093 12.6709 11.2677 13.2071 11.2677 13.9552C11.2677 14.703 11.5883 15.1334 13.2133 15.3523C15.4956 15.6596 16.5775 16.3119 16.5775 18.1397C16.5775 19.5298 15.494 20.7155 13.869 21.0329V22.3244Z" fill="white"/>
<path fill-rule="evenodd" clip-rule="evenodd" d="M15.9224 25.4293C15.6019 25.5423 15.3809 25.3234 15.3809 25.0058C15.3809 24.7543 15.3809 24.5025 15.3809 24.2508C15.3809 24.0391 15.4947 23.8204 15.7087 23.7145C18.8519 22.536 21.0184 19.6428 21.0184 16.2062C21.0184 12.7768 18.7447 9.77056 15.7087 8.69784C15.4947 8.59206 15.3809 8.38046 15.3809 8.16165C15.3809 7.91246 15.3809 7.66302 15.3809 7.41383C15.3809 7.08895 15.6019 6.98315 15.9224 6.98315C19.8282 8.26745 22.7503 11.9157 22.7503 16.2062C22.7503 20.4967 19.935 24.1449 15.9224 25.4293Z" fill="white"/>
<path d="M10.4127 28.7399C7.50447 28.1493 4.8859 26.5815 2.99193 24.2969C1.09796 22.0123 0.0426335 19.1485 0.00126416 16.1813C-0.0401052 13.214 0.934976 10.3218 2.76452 7.98534C4.59406 5.64884 7.16793 4.00862 10.0585 3.33716L10.9256 7.06965C11.264 8.52664 10.2964 9.94548 9.10341 10.8477C8.66098 11.1823 8.26058 11.5748 7.91391 12.0175C7.00478 13.1785 6.52026 14.6156 6.54084 16.09C6.56137 17.5645 7.08581 18.9876 8.0269 20.1228C8.38576 20.5557 8.79699 20.9368 9.24858 21.2589C10.4663 22.1275 11.473 23.5189 11.1753 24.9848L10.4127 28.7399Z" fill="#104884"/>
<path d="M4.21289 22.5299L6.20764 20.6982L6.54212 21.0625L6.08354 23.0832L6.09698 23.0978L7.35245 21.9449L7.73969 22.3667L5.74495 24.1983L5.4051 23.8283L5.86899 21.8153L5.85285 21.7977L4.59837 22.9497L4.21289 22.5299Z" fill="white"/>
<path d="M5.7148 19.7899L5.95108 20.3562L3.09178 20.5364L2.80762 19.8554L4.94734 17.9509L5.18363 18.5171L3.51675 19.9478L3.52489 19.9673L5.7148 19.7899ZM4.74718 20.2353L4.18904 18.8978L4.60151 18.7257L5.15966 20.0632L4.74718 20.2353Z" fill="white"/>
<path d="M2.57245 17.8166L2.10118 17.8441L1.97168 15.6237L2.44295 15.5962L2.49122 16.4239L4.7235 16.2937L4.75645 16.8587L2.52418 16.9889L2.57245 17.8166Z" fill="white"/>
<path d="M2.3183 13.8616L4.98601 14.3278L4.88744 14.8918L2.21973 14.4256L2.3183 13.8616Z" fill="white"/>
<path d="M2.76175 12.0683L4.89495 12.4021L4.90617 12.3797L3.35853 10.8735L3.64215 10.3057L5.64772 12.3509L5.31803 13.0111L2.47754 12.6373L2.76175 12.0683Z" fill="white"/>
<path d="M6.36352 11.1352L4.37109 9.30109L5.60703 7.9585L5.95435 8.27823L5.1062 9.19952L5.58098 9.6366L6.36553 8.78434L6.71284 9.10408L5.92829 9.95629L6.40404 10.3943L7.2557 9.46906L7.60302 9.78875L6.36352 11.1352Z" fill="white"/>
</g>
</g>
<path fill-rule="evenodd" clip-rule="evenodd" d="M32 25C32 24.0838 31.8177 23.1677 31.4672 22.3212C31.1166 21.4748 30.5976 20.6981 29.9497 20.0503C29.3019 19.4024 28.5252 18.8834 27.6788 18.5328C26.8323 18.1823 25.9162 18 25 18C24.0838 18 23.1677 18.1823 22.3212 18.5328C21.4748 18.8834 20.6981 19.4024 20.0503 20.0503C19.4024 20.6981 18.8834 21.4748 18.5328 22.3212C18.1823 23.1677 18 24.0838 18 25C18 25.9162 18.1823 26.8323 18.5328 27.6788C18.8834 28.5252 19.4024 29.3019 20.0503 29.9497C20.6981 30.5976 21.4748 31.1166 22.3212 31.4672C23.1677 31.8177 24.0838 32 25 32C25.9162 32 26.8323 31.8177 27.6788 31.4672C28.5252 31.1166 29.3019 30.5976 29.9497 29.9497C30.5976 29.3019 31.1166 28.5252 31.4672 27.6788C31.8177 26.8323 32 25.9162 32 25Z" fill="#2775CA"/>
<path fill-rule="evenodd" clip-rule="evenodd" d="M23.7182 29.8494C23.7182 30.0204 23.5992 30.0774 23.4265 30.0774C21.2659 29.3858 19.75 27.4214 19.75 25.1111C19.75 22.8008 21.2659 20.8364 23.4265 20.1449C23.5997 20.0894 23.7182 20.2018 23.7182 20.3768C23.7182 20.5109 23.7182 20.6453 23.7182 20.7794C23.7182 20.8973 23.6568 21.0112 23.5416 21.0682C21.8492 21.7027 20.6825 23.2645 20.6825 25.1111C20.6825 26.9616 21.9068 28.5765 23.5416 29.1541C23.6568 29.211 23.7182 29.3289 23.7182 29.4428C23.7182 29.5784 23.7182 29.7139 23.7182 29.8494Z" fill="white"/>
<path fill-rule="evenodd" clip-rule="evenodd" d="M25.4678 28.4055C25.4678 28.5195 25.3488 28.6334 25.2337 28.6334C25.0776 28.6334 24.9216 28.6334 24.7655 28.6334C24.6505 28.6334 24.5315 28.5195 24.5315 28.4055C24.5315 28.1738 24.5315 27.9419 24.5315 27.7101C23.5988 27.5962 23.1345 27.0755 22.958 26.3233C22.958 26.2092 23.0155 26.0953 23.1345 26.0953C23.3084 26.0953 23.4824 26.0953 23.6565 26.0953C23.7755 26.0953 23.833 26.1522 23.8905 26.2662C24.0095 26.6729 24.2397 27.0186 24.9996 27.0186C25.583 27.0186 25.9897 26.7298 25.9897 26.2662C25.9897 25.8065 25.7595 25.6317 24.9421 25.5177C23.7172 25.3469 23.1345 24.9972 23.1345 24.013C23.1345 23.2645 23.7178 22.6869 24.5315 22.5691C24.5315 22.3385 24.5315 22.108 24.5315 21.8775C24.5315 21.7636 24.6505 21.6458 24.7655 21.6458C24.9216 21.6458 25.0776 21.6458 25.2337 21.6458C25.3488 21.6458 25.4678 21.7636 25.4678 21.8775C25.4678 22.108 25.4678 22.3385 25.4678 22.5691C26.1662 22.6869 26.6345 23.0897 26.7496 23.7243C26.7496 23.8421 26.6921 23.956 26.5731 23.956C26.4182 23.956 26.2635 23.956 26.1087 23.956C25.9897 23.956 25.9322 23.8991 25.8746 23.785C25.7595 23.3784 25.4678 23.2075 24.9421 23.2075C24.3587 23.2075 24.0671 23.4962 24.0671 23.8991C24.0671 24.3017 24.2397 24.5335 25.1147 24.6513C26.3436 24.8168 26.9262 25.1681 26.9262 26.1522C26.9262 26.9007 26.3428 27.5392 25.4678 27.7101V28.4055Z" fill="white"/>
<path fill-rule="evenodd" clip-rule="evenodd" d="M26.5738 30.0773C26.4012 30.1381 26.2822 30.0203 26.2822 29.8493C26.2822 29.7138 26.2822 29.5783 26.2822 29.4427C26.2822 29.3288 26.3435 29.211 26.4588 29.154C28.1512 28.5194 29.3178 26.9615 29.3178 25.111C29.3178 23.2644 28.0935 21.6457 26.4588 21.0681C26.3435 21.0111 26.2822 20.8972 26.2822 20.7793C26.2822 20.6452 26.2822 20.5109 26.2822 20.3767C26.2822 20.2017 26.4012 20.1448 26.5738 20.1448C28.6769 20.8363 30.2504 22.8008 30.2504 25.111C30.2504 27.4213 28.7345 29.3857 26.5738 30.0773Z" fill="white"/>
<g clip-path="url(#clip1_541_216605)">
<mask id="mask1_541_216605" style="mask-type:luminance" maskUnits="userSpaceOnUse" x="18" y="0" width="14" height="14">
<path d="M32 0H18V14H32V0Z" fill="white"/>
</mask>
<g mask="url(#mask1_541_216605)">
<path fill-rule="evenodd" clip-rule="evenodd" d="M30.2017 8.69395e-10C29.4808 -1.37073e-05 28.391 0.162081 27.2263 0.415686C26.0345 0.675169 24.6697 1.05137 23.3724 1.5223C22.0862 1.98917 20.8079 2.57005 19.8305 3.2561C18.8883 3.91741 18.0001 4.83826 18 5.99994C18 6.17338 18.0199 6.33808 18.057 6.49443C18.0199 6.65749 18 6.82602 18 6.99994C18 7.17338 18.0199 7.33808 18.057 7.49443C18.0199 7.65749 18 7.82602 18 7.99994C18 8.17338 18.0199 8.33808 18.057 8.49443C18.0199 8.65749 18 8.82602 18 8.99994C18 9.17338 18.0199 9.33808 18.057 9.49443C18.0199 9.65749 18 9.82602 18 9.99994C17.9999 11.3404 19.1901 12.1594 20.2854 12.6288C21.426 13.1177 22.8746 13.4185 24.2246 13.6114C25.594 13.807 26.9523 13.9035 27.9611 13.9516C28.4674 13.9757 28.89 13.9878 29.1874 13.9939C29.3329 13.9968 29.574 13.9991 29.6609 13.9999L29.6667 14H30.0586C30.8085 14 31.4164 13.479 31.4164 12.8362C31.4164 12.6618 31.37 12.4911 31.2849 12.3365C31.3692 12.1849 31.4164 12.0153 31.4164 11.8362C31.4164 11.6618 31.37 11.4911 31.2849 11.3365C31.3692 11.1849 31.4164 11.0153 31.4164 10.8362C31.4164 10.6618 31.37 10.4911 31.2849 10.3365C31.3692 10.1849 31.4164 10.0153 31.4164 9.83622C31.4164 9.66127 31.3698 9.49011 31.2842 9.33517C31.3689 9.18395 31.4164 9.01478 31.4164 8.83622C31.4164 8.24339 30.8811 7.69405 30.1077 7.67184C29.7591 7.66183 28.9332 7.63155 27.9106 7.55175C29.0093 7.31903 29.9671 7.15386 30.5275 7.06339C31.3824 6.92539 32 6.28686 32 5.54138C32 5.36658 31.966 5.19857 31.9035 5.04193C31.9662 4.88429 32 4.71576 32 4.54138C32 4.36658 31.966 4.19857 31.9035 4.04193C31.9662 3.88429 32 3.71576 32 3.54138C32 3.36658 31.966 3.19857 31.9035 3.04193C31.9662 2.88429 32 2.71576 32 2.54138C32 2.36658 31.966 2.19857 31.9035 2.04193C31.9662 1.88429 32 1.71576 32 1.54138C32 0.690109 31.1949 1.69891e-05 30.2017 8.69395e-10Z" fill="white"/>
<path d="M30.202 1.16675C30.5508 1.16675 30.8336 1.4024 30.8336 1.69309C30.8336 1.95039 30.6153 2.16978 30.3119 2.2174C28.1917 2.55013 20.3337 3.92519 20.3337 6.02786C20.3337 8.26351 28.7234 8.58737 30.0689 8.62494C30.1729 8.62784 30.25 8.69863 30.25 8.78529C30.25 8.87323 30.1644 8.94452 30.0589 8.94452H29.9583H29.6667C29.6667 8.94452 19.1668 8.94453 19.167 6.02786C19.1672 3.28787 27.917 1.16669 30.202 1.16675Z" fill="#0C0D1D"/>
<path d="M30.202 2.13892C30.5508 2.13892 30.8336 2.37457 30.8336 2.66526C30.8336 2.92256 30.6153 3.14195 30.3119 3.18956C28.1917 3.5223 20.3337 4.89736 20.3337 7.00003C20.3337 9.23568 28.7234 9.55954 30.0689 9.59711C30.1729 9.60001 30.25 9.6708 30.25 9.75746C30.25 9.8454 30.1644 9.91669 30.0589 9.91669H29.9583H29.6667C29.6667 9.91669 19.1668 9.9167 19.167 7.00003C19.1672 4.26004 27.917 2.13886 30.202 2.13892Z" fill="#0433FF"/>
<path d="M30.202 3.11108C30.5508 3.11108 30.8336 3.34674 30.8336 3.63743C30.8336 3.89472 30.6153 4.11411 30.3119 4.16173C28.1917 4.49447 20.3337 5.86953 20.3337 7.9722C20.3337 10.2078 28.7234 10.5317 30.0689 10.5693C30.1729 10.5722 30.25 10.643 30.25 10.7296C30.25 10.8176 30.1644 10.8889 30.0589 10.8889H29.9583H29.6667C29.6667 10.8889 19.1668 10.8889 19.167 7.9722C19.1672 5.23221 27.917 3.11102 30.202 3.11108Z" fill="#9CADFF"/>
<path d="M30.202 4.08325C30.5508 4.08325 30.8336 4.31891 30.8336 4.6096C30.8336 4.86689 30.6153 5.08628 30.3119 5.1339C28.1917 5.46664 20.3337 6.8417 20.3337 8.94437C20.3337 11.18 28.7234 11.5039 30.0689 11.5415C30.1729 11.5444 30.25 11.6152 30.25 11.7018C30.25 11.7898 30.1644 11.8611 30.0589 11.8611H29.9583H29.6667C29.6667 11.8611 19.1668 11.8611 19.167 8.94437C19.1672 6.20438 27.917 4.08319 30.202 4.08325Z" fill="#F5F3E6"/>
<path d="M30.202 5.05566C30.5508 5.05566 30.8336 5.29131 30.8336 5.58201C30.8336 5.8393 30.6153 6.05869 30.3119 6.10631C28.1917 6.43904 20.3337 7.81411 20.3337 9.91678C20.3337 12.1525 28.7234 12.4763 30.0689 12.5139C30.1729 12.5168 30.25 12.5876 30.25 12.6742C30.25 12.7622 30.1644 12.8335 30.0589 12.8335H29.9583H29.6667C29.6667 12.8335 19.1668 12.8335 19.167 9.91678C19.1672 7.17679 27.917 5.0556 30.202 5.05566Z" fill="#FF1100"/>
</g>
</g>
<defs>
<clipPath id="clip0_541_216605">
<rect width="26" height="26" fill="white" transform="translate(0 3)"/>
</clipPath>
<clipPath id="clip1_541_216605">
<rect width="14" height="14" fill="white" transform="translate(18)"/>
</clipPath>
</defs>
</svg>
