<svg width="32" height="32" viewBox="0 0 32 32" fill="none" xmlns="http://www.w3.org/2000/svg">
<path d="M0 16C0 7.16344 7.16344 0 16 0V0C24.8366 0 32 7.16344 32 16V16C32 24.8366 24.8366 32 16 32V32C7.16344 32 0 24.8366 0 16V16Z" fill="white"/>
<g clip-path="url(#clip0_144_572259)">
<path d="M25 16C25 20.9706 20.9706 25 16 25C11.0294 25 7 20.9706 7 16C7 11.0294 11.0294 7 16 7C20.9706 7 25 11.0294 25 16Z" fill="url(#paint0_linear_144_572259)"/>
<path d="M18.8125 17.6611C18.8125 16.0316 17.9321 15.4664 16.1703 15.2331C14.911 15.0467 14.6602 14.6729 14.6602 14.0201C14.6602 13.3673 15.0793 12.9456 15.9177 12.9456C16.6737 12.9456 17.0928 13.2257 17.3024 13.9264C17.3249 13.9939 17.3655 14.0521 17.4187 14.093C17.4719 14.134 17.5351 14.1559 17.5999 14.1556H18.2707C18.3095 14.1567 18.3482 14.149 18.3843 14.1329C18.4204 14.1169 18.4532 14.0929 18.4807 14.0623C18.5081 14.0317 18.5298 13.9952 18.5442 13.955C18.5585 13.9149 18.5655 13.8719 18.5645 13.8286V13.7828C18.4835 13.2769 18.2545 12.8149 17.9132 12.4686C17.5719 12.1224 17.1374 11.9113 16.6773 11.8681V10.7478C16.6773 10.5614 16.551 10.4218 16.3415 10.375H15.7117C15.5443 10.375 15.4189 10.5145 15.3767 10.7478V11.8253C14.1147 12.0168 13.3175 12.9456 13.3175 14.1127C13.3175 15.6537 14.1568 16.2608 15.9186 16.494C17.0928 16.7272 17.4745 17.0031 17.4745 17.7538C17.4745 18.5044 16.8878 19.0147 16.0907 19.0147C14.9997 19.0147 14.6263 18.5054 14.4963 17.8006C14.4843 17.7219 14.4479 17.6503 14.3934 17.5984C14.3389 17.5465 14.2697 17.5176 14.198 17.5165H13.4814C13.4425 17.5155 13.4039 17.5233 13.3679 17.5394C13.3319 17.5555 13.2991 17.5795 13.2717 17.6101C13.2442 17.6406 13.2226 17.677 13.2082 17.7172C13.1937 17.7573 13.1867 17.8002 13.1876 17.8434V17.8902C13.356 19.0574 14.0268 19.8977 15.4116 20.1309V21.2512C15.4116 21.4376 15.537 21.5781 15.7466 21.625H16.3762C16.5437 21.625 16.67 21.4844 16.7112 21.2512V20.1309C17.9696 19.8977 18.8089 18.9169 18.8089 17.657L18.8125 17.6611Z" fill="white"/>
</g>
<path fill-rule="evenodd" clip-rule="evenodd" d="M11.8545 3.38361C13.345 2.89369 14.938 2.66969 16.5159 2.73017C18.0941 2.79065 19.6577 3.13593 21.1127 3.74393C22.5681 4.35193 23.9149 5.22297 25.0673 6.29753C26.5914 7.71929 27.7748 9.49753 28.4845 11.4867C29.1946 13.4761 29.4311 15.6764 29.1572 17.7711C28.8836 19.8659 28.0996 21.8553 26.9137 23.566C25.7277 25.2767 24.1396 26.7084 22.2743 27.7004C20.409 28.6921 18.266 29.2438 16.1537 29.2758C14.0413 29.3078 11.9594 28.8204 10.0948 27.895C8.23047 26.9695 6.58311 25.6063 5.33223 23.9036C4.08135 22.2009 3.22695 20.1587 2.88775 18.0748C2.54855 15.9907 2.72455 13.8646 3.37447 11.8812C3.86567 10.3817 4.62791 8.96409 5.60455 7.73561H4.12007V5.28185H9.93671V10.7135H7.48295V9.22937C6.68295 10.2355 6.05831 11.3967 5.65607 12.6255C5.12391 14.2511 4.98055 15.9951 5.25607 17.6969C5.59847 19.8137 6.58855 21.8649 8.06631 23.4457C9.83399 25.3363 12.2993 26.5542 14.8657 26.8207C17.4317 27.0873 20.0989 26.4028 22.217 24.9286C24.3351 23.4543 25.9047 21.1903 26.5418 18.6899C27.1789 16.1894 26.8836 13.4524 25.7348 11.142C24.586 8.83161 22.5834 6.94841 20.1889 5.95897C17.7943 4.96921 15.0074 4.87385 12.6036 5.66361L11.8545 3.38361Z" fill="url(#paint1_linear_144_572259)"/>
<circle cx="25" cy="7" r="7" fill="white"/>
<path fill-rule="evenodd" clip-rule="evenodd" d="M25.4451 6.6869C25.2573 6.69593 25.0692 6.70241 24.8811 6.70735C24.8946 6.79305 24.9071 6.87892 24.9187 6.96496C24.9438 7.1522 24.965 7.33978 24.983 7.52788C24.9951 7.65396 25.006 7.78003 25.0151 7.90645C25.0238 8.031 25.0301 8.15571 25.0339 8.2806C25.0417 8.55082 25.0373 8.82137 25.0258 9.09142C25.0154 9.33829 24.9992 9.58483 24.9794 9.83119C25.7822 9.47376 26.3941 9.33857 26.8508 9.23769L26.8573 9.23624C27.5945 9.07319 27.9244 8.99805 28.2136 8.92547C28.5026 8.85289 28.7509 8.78287 28.9572 8.6987C29.1636 8.61471 29.3281 8.5164 29.4574 8.39526C29.5868 8.27413 29.6811 8.12999 29.7644 7.92468C29.8476 7.71938 29.9199 7.45291 29.9612 7.15833C30.0026 6.86375 30.0132 6.54106 29.9817 6.28498C29.9503 6.02908 29.877 5.83996 29.7947 5.64931C29.7125 5.45866 29.6214 5.26648 29.4846 5.06066C29.3479 4.85485 29.1657 4.63557 28.908 4.39892C28.6504 4.16227 28.3173 3.90841 27.9239 3.66664C27.5306 3.42471 27.077 3.19487 26.5145 2.95311C25.9521 2.71118 25.2805 2.45732 24.6977 2.28506C24.1148 2.11264 23.6204 2.02183 23.1873 2.00343C22.7541 1.9852 22.3822 2.03955 22.0598 2.16699C21.7376 2.29444 21.4646 2.49497 21.2275 2.72515C20.9902 2.95515 20.7886 3.21481 20.6205 3.50104C20.4524 3.78727 20.3178 4.10008 20.2172 4.45191C20.1166 4.80373 20.0501 5.19441 20.0173 5.84644C19.9844 6.49864 19.985 7.41202 20.1415 8.27975C20.298 9.14747 20.6101 9.96937 20.9286 10.536C21.2468 11.1029 21.5712 11.4143 21.8411 11.6174C22.1109 11.8205 22.3261 11.9152 22.5417 11.9636C22.7573 12.0118 22.9731 12.0141 23.1726 11.9587C23.3722 11.9033 23.5555 11.7905 23.7142 11.6447C23.8729 11.499 24.0068 11.3203 24.1274 11.1124C24.2479 10.9046 24.3546 10.6674 24.44 10.4251C24.4857 10.2955 24.5251 10.1644 24.5589 10.0309C24.5858 9.92439 24.6087 9.81688 24.6281 9.70886C24.6505 9.58347 24.6679 9.45705 24.6807 9.33029C24.6934 9.20523 24.7016 9.07983 24.7071 8.95444C24.7125 8.82819 24.7153 8.70194 24.7161 8.57552C24.7183 8.27975 24.712 7.98363 24.6966 7.6882C24.6898 7.55582 24.6807 7.42344 24.6691 7.2914C24.6522 7.09802 24.6292 6.90515 24.6005 6.71314C24.5757 6.54805 24.5472 6.38329 24.5149 6.21939C24.4575 5.92805 24.3883 5.63807 24.2971 5.35558C24.2709 5.27482 24.2429 5.19492 24.2142 5.11518C24.1898 5.04738 24.165 4.97963 24.1402 4.91188C24.1232 4.86539 24.1062 4.8189 24.0893 4.77239C24.0743 4.72826 24.0603 4.68362 24.049 4.63847C24.0384 4.59554 24.0297 4.55175 24.0282 4.50745C24.0278 4.49552 24.028 4.4836 24.029 4.47167C24.0299 4.45975 24.0318 4.44782 24.0348 4.43623C24.0377 4.42465 24.042 4.4134 24.0475 4.40284C24.0529 4.39262 24.0598 4.38291 24.0676 4.37422C24.0845 4.35548 24.1061 4.34065 24.1281 4.32787C24.16 4.3093 24.1951 4.29584 24.2309 4.2863C24.3082 4.26603 24.3898 4.26296 24.4698 4.26569C24.5521 4.26858 24.6343 4.27795 24.7158 4.28971C24.8395 4.30743 24.9625 4.33111 25.0848 4.35701C25.2093 4.38325 25.3335 4.41221 25.457 4.44288C25.6454 4.48973 25.8327 4.54084 26.0184 4.59741C26.3088 4.68618 26.5949 4.79096 26.8731 4.91278C27.0635 4.99609 27.2511 5.0869 27.4336 5.18657C27.5566 5.25387 27.6775 5.32509 27.794 5.40295C27.8726 5.45542 27.9495 5.5108 28.0217 5.57162C28.0703 5.61251 28.1169 5.65613 28.1576 5.70468C28.169 5.71831 28.1798 5.73246 28.19 5.74694C28.2001 5.76159 28.2095 5.77675 28.2177 5.79243C28.2259 5.80827 28.2331 5.8248 28.2382 5.84184C28.2433 5.8587 28.2466 5.87642 28.2471 5.89397C28.2476 5.91118 28.2455 5.92873 28.2411 5.94543C28.2365 5.96178 28.2297 5.97746 28.2211 5.99211C28.2023 6.02397 28.1757 6.0514 28.1475 6.07542C28.1048 6.11188 28.0568 6.14204 28.0079 6.16947C27.9614 6.19554 27.9134 6.21939 27.8644 6.24018C27.8156 6.26079 27.7658 6.27902 27.7158 6.2964C27.6644 6.31412 27.6128 6.33099 27.5612 6.34734C27.4836 6.37188 27.4057 6.39556 27.3277 6.4189C27.2496 6.44207 27.1712 6.46524 27.0922 6.48569C26.9756 6.51584 26.8573 6.54055 26.7386 6.56133C26.6175 6.58229 26.4959 6.5995 26.3737 6.61398C26.25 6.62863 26.126 6.64073 26.002 6.65112C25.8166 6.66646 25.6309 6.67787 25.4451 6.6869ZM22.279 7.08693C22.3654 7.05747 22.4601 7.05409 22.5456 7.06847C22.6311 7.0827 22.7073 7.11484 22.7945 7.16925C22.8817 7.2238 22.9801 7.30063 23.0903 7.44878C23.2006 7.59692 23.3228 7.81654 23.4124 8.04334C23.5022 8.27029 23.5594 8.50442 23.5892 8.75942C23.6192 9.01442 23.6218 9.29013 23.5983 9.51835C23.575 9.74642 23.5255 9.92713 23.4661 10.0654C23.4068 10.2037 23.3375 10.2997 23.2505 10.3761C23.1633 10.4526 23.0585 10.5097 22.9358 10.5261C22.8132 10.5426 22.6728 10.5183 22.5531 10.4725C22.4332 10.4267 22.3342 10.3592 22.2347 10.2554C22.1352 10.1517 22.0352 10.0116 21.9456 9.84199C21.8559 9.67228 21.7763 9.4731 21.7256 9.27054C21.6748 9.06798 21.6528 8.86204 21.6417 8.66949C21.6307 8.47708 21.6307 8.2982 21.6579 8.11002C21.6848 7.9217 21.7391 7.72421 21.8068 7.57564C21.8745 7.42707 21.9558 7.32755 22.0352 7.24988C22.1148 7.17221 22.1927 7.11653 22.279 7.08693Z" fill="black"/>
<path d="M16 20.25C19.1726 20.25 21.75 22.8274 21.75 26C21.75 29.1726 19.1726 31.75 16 31.75C12.8274 31.75 10.25 29.1726 10.25 26C10.25 22.8274 12.8274 20.25 16 20.25Z" fill="white" stroke="#BDBDBF" stroke-width="0.5"/>
<path fill-rule="evenodd" clip-rule="evenodd" d="M13.194 29.75L14.2819 28.6621C15.3278 29.3372 16.6722 29.3372 17.7181 28.6621L18.806 29.75L19.75 28.806L18.6621 27.7181C19.3372 26.6722 19.3372 25.3278 18.6621 24.2819L19.75 23.194L18.806 22.25L17.7181 23.3379C16.6722 22.6628 15.3278 22.6628 14.2819 23.3379L13.194 22.25L12.25 23.194L13.3379 24.2819C12.6628 25.3278 12.6628 26.6722 13.3379 27.7181L12.25 28.806L13.194 29.75ZM16 24.0839C17.0572 24.0839 17.9161 24.9428 17.9161 26C17.9161 27.0572 17.0572 27.9161 16 27.9161C14.9428 27.9161 14.0839 27.0572 14.0839 26C14.0839 24.9428 14.9428 24.0839 16 24.0839Z" fill="black"/>
<circle cx="26" cy="26" r="5.75" fill="white" stroke="#99999E" stroke-width="0.5"/>
<path d="M25.1151 30.0446C25.1151 30.1912 25.0131 30.2401 24.8652 30.2401C23.0132 29.6473 21.7139 27.9635 21.7139 25.9833C21.7139 24.003 23.0132 22.3192 24.8652 21.7265C25.0136 21.679 25.1151 21.7753 25.1151 21.9253V22.2704C25.1151 22.3714 25.0626 22.4691 24.9638 22.5179C23.5131 23.0618 22.5132 24.4005 22.5132 25.9833C22.5132 27.5694 23.5626 28.9536 24.9638 29.4487C25.0626 29.4975 25.1151 29.5985 25.1151 29.6961V30.0446Z" fill="black"/>
<path d="M26.6151 28.8075C26.6151 28.9051 26.5131 29.0028 26.4145 29.0028H26.0132C25.9146 29.0028 25.8126 28.9051 25.8126 28.8075V28.2114C25.0131 28.1137 24.6152 27.6675 24.4639 27.0227C24.4639 26.9249 24.5132 26.8272 24.6152 26.8272H25.0626C25.1646 26.8272 25.2139 26.8761 25.2632 26.9737C25.3652 27.3223 25.5625 27.6186 26.2139 27.6186C26.7139 27.6186 27.0625 27.3712 27.0625 26.9737C27.0625 26.5797 26.8652 26.4299 26.1645 26.3321C25.1147 26.1858 24.6152 25.886 24.6152 25.0424C24.6152 24.4009 25.1151 23.9058 25.8126 23.8048V23.212C25.8126 23.1144 25.9146 23.0134 26.0132 23.0134H26.4145C26.5131 23.0134 26.6151 23.1144 26.6151 23.212V23.8048C27.2138 23.9058 27.6152 24.251 27.7139 24.795C27.7139 24.8959 27.6645 24.9936 27.5625 24.9936H27.1645C27.0625 24.9936 27.0132 24.9448 26.9639 24.847C26.8652 24.4985 26.6151 24.352 26.1645 24.352C25.6645 24.352 25.4145 24.5995 25.4145 24.9448C25.4145 25.2899 25.5625 25.4886 26.3125 25.5896C27.3659 25.7314 27.8652 26.0325 27.8652 26.8761C27.8652 27.5177 27.3651 28.0649 26.6151 28.2114V28.8075Z" fill="black"/>
<path d="M27.3126 30.0441C27.3126 30.1907 27.4146 30.2917 27.5626 30.2396C29.4145 29.6468 30.7139 27.963 30.7139 25.9828C30.7139 24.0025 29.3652 22.3187 27.5626 21.726C27.4146 21.726 27.3126 21.7748 27.3126 21.9248V22.2699C27.3126 22.3709 27.3652 22.4686 27.4639 22.5174C28.8652 23.0125 29.9146 24.4 29.9146 25.9828C29.9146 27.5689 28.9146 28.9042 27.4639 29.4482C27.3652 29.497 27.3126 29.598 27.3126 29.6956V30.0441Z" fill="black"/>
<defs>
<linearGradient id="paint0_linear_144_572259" x1="10.375" y1="9.25" x2="22.1875" y2="25" gradientUnits="userSpaceOnUse">
<stop stop-color="#68686D"/>
<stop offset="1" stop-color="#212125"/>
</linearGradient>
<linearGradient id="paint1_linear_144_572259" x1="2.04317" y1="13.297" x2="15.2219" y2="29.5764" gradientUnits="userSpaceOnUse">
<stop stop-color="#004CFF"/>
<stop offset="0.252131" stop-color="#00E0FB"/>
<stop offset="0.505709" stop-color="#87FF70"/>
<stop offset="0.755054" stop-color="#F8F500"/>
<stop offset="1" stop-color="#FF1A00"/>
</linearGradient>
<clipPath id="clip0_144_572259">
<rect width="18" height="18" fill="white" transform="translate(7 7)"/>
</clipPath>
</defs>
</svg>
