<svg xmlns="http://www.w3.org/2000/svg" width="100" height="100" viewBox="0 0 100 100">
  <g fill="none" fill-rule="evenodd">
    <path fill="#FFF" d="M100,49.9998 C100,43.4558 98.698,36.9118 96.194,30.8658 C93.689,24.8198 89.982,19.2718 85.355,14.6448 C80.728,10.0168 75.18,6.3108 69.134,3.8058 C63.088,1.3018 56.544,-0.0002 50,-0.0002 C43.456,-0.0002 36.911,1.3018 30.865,3.8058 C24.819,6.3108 19.272,10.0168 14.644,14.6448 C10.017,19.2718 6.31,24.8198 3.806,30.8658 C1.301,36.9118 0,43.4558 0,49.9998 C0,56.5438 1.301,63.0878 3.806,69.1338 C6.31,75.1798 10.017,80.7278 14.644,85.3558 C19.272,89.9828 24.819,93.6898 30.865,96.1938 C36.911,98.6978 43.456,99.9998 50,99.9998 C56.544,99.9998 63.088,98.6978 69.134,96.1938 C75.18,93.6898 80.728,89.9828 85.355,85.3558 C89.982,80.7278 93.689,75.1798 96.194,69.1338 C98.698,63.0878 100,56.5438 100,49.9998 Z"/>
    <path fill="#0657F9" d="M37.046,10.5738 C41.704,9.0428 46.682,8.3428 51.613,8.5318 C56.545,8.7208 61.431,9.7998 65.978,11.6998 C70.526,13.5998 74.735,16.3218 78.336,19.6798 C83.099,24.1228 86.797,29.6798 89.015,35.8958 C91.234,42.1128 91.973,48.9888 91.117,55.5348 C90.262,62.0808 87.812,68.2978 84.106,73.6438 C80.4,78.9898 75.437,83.4638 69.608,86.5638 C63.779,89.6628 57.082,91.3868 50.481,91.4868 C43.88,91.5868 37.374,90.0638 31.547,87.1718 C25.721,84.2798 20.573,80.0198 16.664,74.6988 C12.755,69.3778 10.085,62.9958 9.025,56.4838 C7.965,49.9708 8.515,43.3268 10.546,37.1288 C12.081,32.4428 14.463,28.0128 17.515,24.1738 L12.876,24.1738 L12.876,16.5058 L31.053,16.5058 L31.053,33.4798 L23.385,33.4798 L23.385,28.8418 C20.885,31.9858 18.933,35.6148 17.676,39.4548 C16.013,44.5348 15.565,49.9848 16.426,55.3028 C17.496,61.9178 20.59,68.3278 25.208,73.2678 C30.732,79.1758 38.436,82.9818 46.456,83.8148 C54.475,84.6478 62.81,82.5088 69.429,77.9018 C76.048,73.2948 80.953,66.2198 82.944,58.4058 C84.935,50.5918 84.012,42.0388 80.422,34.8188 C76.832,27.5988 70.574,21.7138 63.091,18.6218 C55.608,15.5288 46.899,15.2308 39.387,17.6988 L37.046,10.5738 Z"/>
    <path fill="#000" d="M33.8217799,62.84714 C32.6766244,62.1462589 31.9757433,60.9015247 31.9757433,59.5610417 L31.9757433,52.0773166 C31.9757433,51.1887678 32.6996041,50.468737 33.5881528,50.4725517 C33.8715693,50.4725517 34.1511557,50.5491659 34.3962726,50.6908742 L51.2825285,60.5376793 C52.270656,61.112172 52.879631,62.1692386 52.879631,63.3143941 L52.879631,71.0662158 C52.8834482,72.1309423 52.0217091,72.9965113 50.9569826,72.9965113 C50.6007971,72.9965113 50.2484416,72.8969326 49.9458754,72.7130949 L33.8217799,62.84714 Z M58.9922207,48.6418501 C59.9803482,49.2163428 60.5854805,50.2772394 60.5893105,51.4185649 L60.5893105,67.1520054 C60.5893105,67.6154296 60.3403637,68.0443841 59.9343888,68.2703513 L56.2384857,70.3500149 C56.1925262,70.3768245 56.1427369,70.3959743 56.0891176,70.4112941 L56.0891176,61.6751749 C56.0891176,60.5453392 55.4954751,59.4959325 54.5226674,58.9137799 L39.6930954,50.0436124 L39.6930954,40.1814874 C39.6930954,39.2929387 40.4169563,38.5729078 41.305505,38.5767225 C41.5889214,38.5767225 41.8685079,38.6533368 42.1136248,38.795045 L58.9922207,48.6418501 Z M66.384027,37.0217775 C67.3759844,37.5962702 67.9849467,38.6571667 67.9849467,39.8023222 L67.9849467,62.7820308 C67.9811168,63.2531149 67.7206801,63.6858994 67.3070453,63.9118665 L63.8026398,65.8038625 L63.8026398,49.8061554 C63.8026398,48.6763197 63.2089973,47.630743 62.2438495,47.0485903 L47.0849017,37.9562856 L47.0849017,28.6035442 C47.0849017,28.3201278 47.1615007,28.0405413 47.299379,27.7954244 C47.7474833,27.0294342 48.7317808,26.7689975 49.4977711,27.2132718 L66.384027,37.0217775 Z"/>
  </g>
</svg>
