<svg width="80" height="80" viewBox="0 0 80 80" fill="none" xmlns="http://www.w3.org/2000/svg">
<path fill-rule="evenodd" clip-rule="evenodd" d="M80 40C80 17.9288 62.0712 0 40 0C17.9288 0 0 17.9288 0 40C0 62.0712 17.9288 80 40 80C62.0712 80 80 62.0712 80 40Z" fill="#010A21"/>
<path fill-rule="evenodd" clip-rule="evenodd" d="M55.8985 23.3484L54.1272 33.9738L47.8296 26.5581L55.8985 23.3484ZM54.1653 38.5437L55.7418 44.3671L43.6876 47.6887L54.1653 38.5437ZM27.9249 35.617L34.3877 27.1693H45.6111L52.7847 35.617H27.9249ZM51.9538 37.7042L40.268 47.9029L28.3657 37.7042H51.9538ZM32.2236 26.5642L26.4486 34.1125L24.6752 23.3894L32.2236 26.5642ZM36.8069 47.6853L24.6379 44.3699L26.3054 38.6873L36.8069 47.6853ZM39.0539 50.4608L36.7565 52.9896C34.8099 51.1398 32.6695 49.4972 30.3847 48.0988L39.0539 50.4608ZM50.1963 48.0603C47.9114 49.4813 45.7763 51.1453 43.8419 53.0128L41.496 50.4574L50.1963 48.0603ZM58.5651 20.0413L45.8936 25.0821H34.0832L22 20L24.7448 36.5955L22.109 45.5785L28.9858 49.6916C32.2416 51.6392 35.1581 54.076 37.654 56.9339L40.3316 60L43.1418 56.7756C45.553 54.0088 48.3611 51.6336 51.4877 49.716L58.2316 45.5785L55.8029 36.6077L58.5651 20.0413Z" fill="white"/>
</svg>
