<svg width="37" height="40" viewBox="0 0 37 40" fill="none" xmlns="http://www.w3.org/2000/svg">
<path fill-rule="evenodd" clip-rule="evenodd" d="M33.8985 3.34843L32.1272 13.9738L25.8296 6.55813L33.8985 3.34843ZM32.1653 18.5437L33.7418 24.3671L21.6876 27.6887L32.1653 18.5437ZM5.92491 15.617L12.3877 7.16932H23.6111L30.7847 15.617H5.92491ZM29.9538 17.7042L18.268 27.9029L6.36568 17.7042H29.9538ZM10.2236 6.56424L4.44865 14.1125L2.67518 3.38938L10.2236 6.56424ZM14.8069 27.6853L2.63791 24.3699L4.30539 18.6873L14.8069 27.6853ZM17.0539 30.4608L14.7565 32.9896C12.8099 31.1398 10.6695 29.4972 8.38474 28.0988L17.0539 30.4608ZM28.1963 28.0603C25.9114 29.4813 23.7763 31.1453 21.8419 33.0128L19.496 30.4574L28.1963 28.0603ZM36.5651 0.0412557L23.8936 5.08209H12.0832L0 0L2.74482 16.5955L0.109047 25.5785L6.98576 29.6916C10.2416 31.6392 13.1581 34.076 15.654 36.9339L18.3316 40L21.1418 36.7756C23.553 34.0088 26.3611 31.6336 29.4877 29.716L36.2316 25.5785L33.8029 16.6077L36.5651 0.0412557Z" fill="black"/>
</svg>
