<svg fill="none" height="224" viewBox="0 0 224 224" width="224" xmlns="http://www.w3.org/2000/svg" xmlns:xlink="http://www.w3.org/1999/xlink"><clipPath id="a"><path d="m29.0254 29.0254h165.657v165.657h-165.657z"/></clipPath><g clip-path="url(#a)"><rect fill="#5956e9" height="165.657" rx="82.8286" width="165.657" x="29.0254" y="29.0254"/><g fill="#fff"><path d="m78.513 123.35 19.752-41.2625-17.9815 58.8855-2.4965-11.316c-.4691-2.125-.2135-4.345.726-6.307z"/><path d="m108.942 165.887-22.6973-13.019c-.868-.498-1.5403-1.274-1.9076-2.2-.3672-.927-.4077-1.95-.1145-2.902l5.3816-17.47 19.3378 16.229z"/><path d="m108.939 139.032-14.7522-12.333c-.8731-.73-1.5103-1.697-1.8326-2.781-.3223-1.085-.3155-2.239.0198-3.319l2.5048-8.098 14.0632 17.575z"/><path d="m98.2912 101.785 13.5628-44.2873 13.562 44.2873c.379 1.238.452 2.55.212 3.822s-.785 2.467-1.589 3.482l-12.184 15.383-12.1847-15.384c-.8042-1.015-1.3499-2.21-1.5901-3.482s-.1679-2.583.211-3.821z"/><path d="m128.506 112.178 2.504 8.098c.336 1.081.342 2.235.02 3.32-.322 1.084-.959 2.052-1.832 2.781l-14.756 12.332v-8.954z"/><path d="m114.442 165.887v-19.363l19.338-16.228 5.381 17.469c.294.953.254 1.976-.113 2.902-.367.927-1.04 1.703-1.908 2.201z"/><path d="m143.102 141.479-17.983-59.1099 19.753 41.4199c.938 1.968 1.194 4.196.726 6.328z"/></g></g></svg>