<svg width="32" height="32" viewBox="0 0 32 32" fill="none" xmlns="http://www.w3.org/2000/svg">
<g clip-path="url(#clip0)">
<path d="M13.4886 14.9338C13.3683 14.9278 13.2414 14.9794 13.1301 14.8931C13.2509 14.8687 13.3763 14.8829 13.4886 14.9338V14.9338Z" fill="#2A373B"/>
<path d="M13.995 14.9869C13.895 14.99 13.7899 15.0296 13.7003 14.9494C13.7999 14.9273 13.9041 14.9406 13.995 14.9869V14.9869Z" fill="#2A373B"/>
<path d="M3.50525 6.00038C3.75677 5.6493 4.03802 5.32051 4.34587 5.01763C6.45728 2.76501 9.18024 1.17761 12.1808 0.450125C12.6671 0.320152 13.1628 0.228208 13.6634 0.175125C13.72 0.338375 13.5821 0.385375 13.4884 0.4395C12.9274 0.763625 12.3694 1.093 11.806 1.41325C11.2001 1.75775 10.6035 2.118 9.99775 2.46325C9.92528 2.49247 9.8655 2.54641 9.829 2.6155C9.80075 2.65625 9.76064 2.68732 9.71413 2.7045C9.02489 3.02669 8.36311 3.40462 7.73537 3.8345C7.66528 3.89387 7.58314 3.93732 7.49463 3.96188C7.42398 3.95808 7.35395 3.97682 7.29462 4.01538C6.1625 4.6555 5.0375 5.308 3.9135 5.96225C3.83915 6.01577 3.75615 6.05611 3.66813 6.0815C3.6 6.0945 3.51137 6.12375 3.50525 6.00038Z" fill="#283036"/>
<path d="M20.5168 31.3437C19.6216 31.6219 18.7 31.8062 17.7668 31.8937C17.7178 31.7447 17.8381 31.6937 17.9279 31.6419C18.5828 31.2591 19.2428 30.8851 19.8976 30.5026C20.2298 30.3086 20.5851 30.1499 20.8755 29.8894C21.1609 29.7188 21.483 29.6339 21.7864 29.5053C23.1704 28.9103 24.4545 28.1058 25.5935 27.1199C25.774 26.9659 25.9215 26.771 26.1385 26.6597C26.2626 26.6361 26.381 26.5885 26.4869 26.5195C27.2884 26.0555 28.0856 25.5839 28.8969 25.1371C28.9559 25.1046 29.0521 24.9645 29.1114 25.1496C28.5717 25.9465 27.9531 26.6871 27.265 27.36C27.2158 27.41 27.161 27.4537 27.1089 27.5005C25.7214 28.2744 24.3561 29.0862 22.9771 29.8746C22.2811 30.2726 21.5889 30.6774 20.893 31.0754C20.7555 31.1466 20.6288 31.2369 20.5168 31.3437V31.3437Z" fill="#399584"/>
<path d="M3.50522 6.00038C3.59797 6.11288 3.6881 6.03125 3.76635 5.9865C4.33847 5.65925 4.9071 5.3255 5.4781 4.99613C6.09101 4.64246 6.70472 4.29025 7.31922 3.9395C7.37197 3.90938 7.43072 3.86575 7.48684 3.93825C7.23674 4.17249 6.97231 4.39095 6.6951 4.59238C5.981 5.19662 5.31881 5.85965 4.71547 6.5745C4.64479 6.67963 4.55359 6.76939 4.44735 6.83838C4.0711 6.94963 3.76209 7.18988 3.42509 7.37588C3.09309 7.55888 2.77159 7.76125 2.43472 7.9355C2.36447 7.97188 2.25109 8.0845 2.19397 7.90488C2.44508 7.43991 2.73194 6.99515 3.05197 6.57463C3.18582 6.37022 3.33749 6.17805 3.50522 6.00038V6.00038Z" fill="#293237"/>
<path d="M9.81372 2.58488C9.8381 2.40438 10.0157 2.39825 10.1262 2.33075C10.6287 2.02425 11.1432 1.73725 11.6532 1.44325C12.2434 1.10267 12.8336 0.76213 13.4238 0.42163C13.5276 0.362005 13.6408 0.314005 13.6633 0.17613C14.1811 0.0805863 14.7054 0.02484 15.2316 0.00937955C15.4691 -0.00549545 15.7092 0.00400458 15.9482 0.00237958C15.9642 0.14738 15.8446 0.188379 15.754 0.243129C15.2376 0.554629 14.7131 0.852004 14.1903 1.15275C14.0354 1.23514 13.8908 1.33554 13.7595 1.45188C13.3425 1.57688 12.9095 1.63075 12.4863 1.72688C11.6797 1.9158 10.8916 2.17685 10.1317 2.50688C10.0315 2.549 9.93472 2.62025 9.81372 2.58488Z" fill="#293237"/>
<path d="M29.1119 25.1497C29.0881 25.1027 29.0585 25.096 29.011 25.1234C28.3438 25.5092 27.676 25.8942 27.0078 26.2784C26.8078 26.394 26.6086 26.5119 26.4093 26.6284C26.3327 26.6795 26.2417 26.7045 26.1498 26.6996C26.1091 26.6121 26.1809 26.5687 26.227 26.5246C26.8755 25.9038 27.4652 25.2242 27.9884 24.4946C28.0228 24.4413 28.0708 24.3981 28.1275 24.3696C28.655 24.1321 29.1334 23.8071 29.6373 23.5275C29.7479 23.4661 29.8568 23.4009 29.9693 23.3435C30.0466 23.3041 30.1294 23.2426 30.2214 23.3185C29.9089 23.9619 29.5375 24.5749 29.1119 25.1497V25.1497Z" fill="#389181"/>
<path d="M20.5168 31.3441C20.5026 31.2236 20.605 31.1904 20.6779 31.1476C21.3005 30.7825 21.9258 30.4226 22.5505 30.0601C23.8972 29.2812 25.2444 28.5034 26.5923 27.7266C26.7472 27.6164 26.9232 27.5394 27.1093 27.5004C26.9009 27.6901 26.693 27.8799 26.4854 28.0696C25.8573 28.6371 25.1775 29.1446 24.4549 29.5855C23.2325 30.3561 21.9064 30.9482 20.5168 31.3441V31.3441Z" fill="#3A9987"/>
<path d="M2.19417 7.90475C2.27392 8.01162 2.34954 7.92575 2.41304 7.89C2.94292 7.59124 3.46766 7.28337 3.99866 6.98674C4.13616 6.91012 4.25704 6.77649 4.44117 6.81424C4.36404 7.04737 4.18192 7.21199 4.04642 7.40612C3.75642 7.82187 3.49642 8.25612 3.24092 8.692C3.19179 8.77562 3.15642 8.87237 3.05229 8.90862C2.82804 8.91912 2.66692 9.07112 2.48729 9.17337C2.17654 9.35075 1.86729 9.53125 1.55592 9.70787C1.46617 9.75875 1.37354 9.85362 1.25092 9.77175C1.50731 9.12176 1.82307 8.49678 2.19417 7.90475V7.90475Z" fill="#293439"/>
<path d="M13.7481 1.40049C14.0294 1.12924 14.3955 0.992244 14.7205 0.790244C15.0649 0.576119 15.4205 0.379869 15.7717 0.176744C15.8461 0.136513 15.9074 0.0757763 15.9484 0.00174402C16.4006 -0.0139798 16.8533 0.00348359 17.303 0.0539939C17.3889 0.0892439 17.4835 0.0467441 17.569 0.0841191L17.7259 0.0958693C17.7957 0.128994 17.8744 0.0936188 17.9446 0.123619V0.121369C17.9656 0.240744 17.8686 0.275619 17.7946 0.321369C17.4571 0.532994 17.1097 0.729619 16.7606 0.921369C16.5642 1.02924 16.389 1.16824 16.1934 1.27662C15.8751 1.31687 15.553 1.25387 15.236 1.31587C15.1137 1.33358 14.9901 1.3399 14.8666 1.33474C14.7824 1.32554 14.6973 1.33406 14.6166 1.35974C14.411 1.38237 14.2061 1.41137 14.0014 1.44087C13.9591 1.4555 13.9138 1.45948 13.8697 1.45243C13.8255 1.44539 13.7837 1.42755 13.7481 1.40049V1.40049Z" fill="#293439"/>
<path d="M23.5623 1.91438C23.8862 2.05449 24.1953 2.22651 24.485 2.42788C24.6914 2.55426 24.8868 2.69888 25.087 2.83551C25.1085 2.90851 25.0495 2.93713 25.006 2.96351C24.656 3.17601 24.3107 3.39838 23.9412 3.57826C23.8702 3.57649 23.8013 3.55335 23.7437 3.51188C23.3385 3.26976 22.9373 3.01976 22.5123 2.81263C22.4665 2.793 22.4282 2.75923 22.4029 2.71626C22.3744 2.60863 22.4494 2.56226 22.5242 2.52088C22.8748 2.32688 23.215 2.11388 23.5623 1.91438Z" fill="#2C4345"/>
<path d="M20.8977 29.9178C20.7451 30.145 20.4852 30.2217 20.2672 30.3507C19.4952 30.8066 18.7132 31.2454 17.9358 31.6925C17.8935 31.7101 17.856 31.7377 17.8266 31.7729C17.7972 31.8081 17.7768 31.8498 17.767 31.8946L17.5707 31.9071C17.4843 31.9425 17.3898 31.9022 17.3033 31.9364C16.9808 31.9856 16.6539 32.0001 16.3283 31.9795C16.2813 31.8515 16.3948 31.8234 16.4637 31.7835C17.0208 31.4611 17.5745 31.1326 18.135 30.816C18.3131 30.72 18.4797 30.604 18.6315 30.4701C19.3315 30.2993 20.0358 30.141 20.719 29.9076C20.7777 29.8875 20.8412 29.8653 20.8977 29.9178Z" fill="#389282"/>
<path d="M1.25092 9.77162C1.50742 9.72937 1.70004 9.55637 1.91879 9.43874C2.23129 9.27062 2.53279 9.08199 2.84217 8.90762C2.90142 8.87412 2.96967 8.80087 3.04554 8.88887C3.05868 8.92922 3.06138 8.97224 3.05341 9.01392C3.04543 9.05561 3.02702 9.09459 2.99992 9.12724C2.78853 9.5166 2.59927 9.91757 2.43304 10.3282C2.40117 10.3977 2.38479 10.4775 2.30404 10.5125C2.14991 10.5302 2.00302 10.5876 1.87779 10.6792C1.58367 10.8571 1.28304 11.0239 0.984917 11.1949C0.904792 11.2409 0.825669 11.322 0.716919 11.2574C0.850733 10.7473 1.02943 10.2501 1.25092 9.77162V9.77162Z" fill="#2A373B"/>
<path d="M14.9194 31.9486C14.4097 31.9407 13.9021 31.8834 13.4035 31.7775C13.4482 31.6974 13.5182 31.6345 13.6026 31.5986C13.9886 31.3698 14.3765 31.1443 14.7695 30.9275C14.9046 30.8525 15.0211 30.7515 15.1536 30.6729C15.7266 30.7288 16.2996 30.6214 16.872 30.6753C17.0345 30.7966 16.8863 30.854 16.813 30.9026C16.5918 31.0499 16.3589 31.1788 16.128 31.3109C15.788 31.5054 15.4446 31.6943 15.114 31.905C15.0554 31.9428 14.9951 31.9831 14.9194 31.9486Z" fill="#388D7E"/>
<path d="M16.2443 1.23074C16.438 0.974487 16.7475 0.891112 17.0031 0.727862C17.267 0.559362 17.544 0.411487 17.8156 0.254987C17.8708 0.224048 17.9157 0.177697 17.9449 0.121613C18.4235 0.153071 18.897 0.239172 19.356 0.378237C19.4039 0.387985 19.4528 0.39218 19.5016 0.390738C19.5508 0.532488 19.4213 0.554487 19.3486 0.596862C19.0824 0.752487 18.819 0.913238 18.5495 1.06349C18.368 1.16486 18.1786 1.25449 18.0584 1.43649C17.6341 1.41986 17.2159 1.34199 16.7924 1.31749C16.6835 1.29156 16.5714 1.28196 16.4596 1.28899C16.3836 1.28611 16.3031 1.29624 16.2443 1.23074Z" fill="#2A373B"/>
<path d="M20.6444 0.687744C21.1659 0.828672 21.675 1.0119 22.1667 1.23562C22.2258 1.36837 22.1134 1.40887 22.0375 1.45612C21.671 1.68399 21.2937 1.89362 20.9199 2.10987C20.6284 2.10162 20.3715 1.96199 20.0987 1.88487C19.8398 1.81187 19.5612 1.79674 19.3247 1.65087C19.2872 1.50962 19.3989 1.46737 19.4872 1.41674C19.7872 1.24487 20.0802 1.06287 20.3844 0.899244C20.4866 0.850275 20.5757 0.777795 20.6444 0.687744V0.687744Z" fill="#2A3C3F"/>
<path d="M0.125122 14.0073C0.171054 13.4473 0.269655 12.8929 0.419621 12.3515C0.585996 12.355 0.702747 12.2414 0.835247 12.1694C1.11112 12.0194 1.3775 11.8515 1.65675 11.7069C1.73175 11.6681 1.83837 11.5829 1.88837 11.7476C1.7685 12.2755 1.68025 12.8109 1.50825 13.3263C1.11237 13.5368 0.723994 13.7606 0.336494 13.9864C0.270744 14.0251 0.202372 14.0734 0.125122 14.0073Z" fill="#2A3C3F"/>
<path d="M20.9395 2.07925C21.184 1.83838 21.5204 1.74325 21.7895 1.543C21.9191 1.4465 22.1208 1.4345 22.1673 1.23563C22.6544 1.41387 23.1222 1.6413 23.5633 1.91438C23.3941 2.1425 23.1189 2.21438 22.8973 2.36588C22.7731 2.44459 22.6447 2.51645 22.5126 2.58113C22.4864 2.5914 22.4638 2.60914 22.4476 2.63213C22.4314 2.65513 22.4223 2.68238 22.4214 2.7105C22.3513 2.76525 22.286 2.72425 22.2255 2.69388C21.8595 2.51514 21.4845 2.35535 21.102 2.21513C21.0374 2.1905 20.9435 2.18388 20.9395 2.07925Z" fill="#2B4042"/>
<path d="M6.84763 29.1221C6.39756 28.8305 5.97278 28.5016 5.57776 28.1389C5.94288 27.8889 6.33351 27.6834 6.71989 27.4699C6.75159 27.4681 6.78332 27.473 6.81301 27.4843C6.8427 27.4955 6.8697 27.5129 6.89226 27.5352C7.20326 27.7782 7.51726 28.018 7.84838 28.2327C7.90726 28.2702 7.96776 28.3109 7.97663 28.391C7.97398 28.4228 7.96307 28.4534 7.94498 28.4797C7.9269 28.506 7.90226 28.5271 7.87351 28.541C7.52876 28.7302 7.20201 28.9507 6.84763 29.1221Z" fill="#34736A"/>
<path d="M31.1685 21.072C31.0337 21.5214 30.8648 21.9598 30.6634 22.3835C30.1194 22.7289 29.552 23.0345 28.9947 23.3572C28.9621 23.3841 28.9231 23.4021 28.8815 23.4095C28.8399 23.4168 28.7971 23.4134 28.7572 23.3994C28.7214 23.3322 28.7594 23.2777 28.7899 23.2244C29.0157 22.8387 29.2181 22.4397 29.3957 22.0296C29.4162 21.9694 29.4581 21.9187 29.5135 21.8872C29.9399 21.7299 30.3016 21.4534 30.6986 21.2417C30.7916 21.1917 30.8831 21.139 30.9757 21.0881C31.0362 21.0544 31.099 21.0105 31.1685 21.072Z" fill="#388C7D"/>
<path d="M0.125107 14.0072C0.371857 13.9589 0.551604 13.7801 0.769604 13.675C0.944604 13.5904 1.1101 13.4835 1.28048 13.3875C1.33874 13.3476 1.4083 13.3275 1.47886 13.3302C1.5115 13.4159 1.51644 13.5096 1.49298 13.5981C1.43936 13.9856 1.3911 14.374 1.3656 14.7647C1.36369 14.8069 1.35001 14.8476 1.32611 14.8824C0.939232 14.9972 0.622232 15.2472 0.271107 15.4312C0.189982 15.4736 0.114729 15.5662 0.00610352 15.4875V15.444C0.0467285 15.2869 -0.00714505 15.1237 0.0364799 14.9669C0.0312676 14.6447 0.0609846 14.323 0.125107 14.0072Z" fill="#2B4042"/>
<path d="M14.9194 31.9491L15.6944 31.5C16.0569 31.2899 16.4206 31.0819 16.7805 30.8672C16.8357 30.8342 16.9131 30.809 16.921 30.7237C17.021 30.6256 17.1565 30.6381 17.2765 30.6274C17.6459 30.5942 18.012 30.5415 18.3777 30.4831C18.4571 30.4706 18.5444 30.4379 18.6132 30.5162C18.5389 30.6969 18.3579 30.746 18.2112 30.8317C17.6327 31.1702 17.0487 31.4994 16.4696 31.8366C16.4142 31.8689 16.3369 31.8944 16.3287 31.9796C15.8591 32.0145 15.3871 32.0043 14.9194 31.9491V31.9491Z" fill="#389081"/>
<path d="M31.7329 13.1499C31.8268 13.5521 31.8832 13.9622 31.9013 14.3749C31.9404 14.6916 31.9396 14.6902 31.6788 14.8374C31.447 14.9682 31.2194 15.1066 30.9875 15.2374C30.9307 15.2641 30.8833 15.3072 30.8512 15.3611C30.8192 15.4151 30.8041 15.4774 30.8078 15.54C30.8071 15.6257 30.8531 15.7422 30.7216 15.7884C30.6989 15.7716 30.6809 15.7493 30.6693 15.7235C30.6576 15.6978 30.6528 15.6695 30.6553 15.6414C30.6643 15.0546 30.5884 14.4732 30.5463 13.89C30.5628 13.8189 30.6248 13.7979 30.68 13.7674C31.036 13.5706 31.3886 13.3672 31.7329 13.1499Z" fill="#34736A"/>
<path d="M23.9432 3.55898C24.2277 3.33135 24.5667 3.19273 24.8668 2.99048C24.9418 2.94048 25.0139 2.88723 25.0874 2.83548C25.4789 3.08199 25.8482 3.36222 26.1909 3.67298C26.2094 3.83035 26.0719 3.8651 25.9795 3.9201C25.6988 4.08748 25.4118 4.24448 25.1343 4.41773C25.121 4.42221 25.1066 4.42221 25.0933 4.41773C24.6933 4.17835 24.3308 3.8861 23.9519 3.6166C23.9355 3.6051 23.9365 3.57985 23.9432 3.55898Z" fill="#2D4949"/>
<path d="M27.0315 4.4155C27.3792 4.72845 27.7034 5.06657 28.0015 5.42712C28.0066 5.56975 27.8815 5.60087 27.7949 5.65887C27.536 5.83212 27.2426 5.94962 26.9979 6.14637C26.9239 6.1645 26.8779 6.11587 26.8335 6.07225C26.5625 5.80558 26.2938 5.53675 26.0273 5.26575C26.0054 5.24785 25.9875 5.22563 25.9746 5.20049C25.9617 5.17535 25.9541 5.14782 25.9523 5.11962C25.989 5.00637 26.0958 4.9735 26.184 4.92037C26.4655 4.75075 26.7633 4.60737 27.0315 4.4155Z" fill="#2E504F"/>
<path d="M0.849758 21.156C0.684027 20.731 0.5564 20.2921 0.468384 19.8445C0.506884 19.7407 0.608759 19.7109 0.690884 19.6631C0.926884 19.5256 1.16389 19.3905 1.40076 19.2546C1.48089 19.2087 1.56451 19.1597 1.64226 19.2615C1.77026 19.6849 1.92213 20.1021 1.97163 20.5457C1.64495 20.7833 1.29633 20.9892 0.930508 21.1605C0.917584 21.1659 0.903605 21.1683 0.889618 21.1675C0.875631 21.1667 0.862001 21.1628 0.849758 21.156V21.156Z" fill="#2E504F"/>
<path d="M31.7329 13.1498C31.7273 13.17 31.7283 13.2004 31.7151 13.2089C31.3526 13.442 31.0013 13.6935 30.5902 13.8381C30.5641 13.8199 30.5424 13.796 30.5269 13.7682C30.5114 13.7405 30.5024 13.7095 30.5007 13.6778C30.4532 13.344 30.3694 13.017 30.318 12.6843C30.312 12.6215 30.3259 12.5585 30.3577 12.5041C30.3894 12.4498 30.4376 12.4068 30.4952 12.3813C30.8108 12.2019 31.1235 12.0173 31.438 11.8359C31.5751 12.2642 31.6738 12.7039 31.7329 13.1498V13.1498Z" fill="#336E66"/>
<path d="M31.4379 11.8359C31.3816 12.0071 31.2016 12.0187 31.0802 12.103C30.8873 12.231 30.6865 12.3466 30.4789 12.4491C30.4403 12.4659 30.4088 12.4955 30.3896 12.5329C30.3703 12.5703 30.3646 12.6131 30.3732 12.6542C30.3646 12.6561 30.3557 12.6561 30.3471 12.6544C30.3385 12.6526 30.3303 12.6492 30.323 12.6442C30.3158 12.6392 30.3096 12.6328 30.3049 12.6253C30.3002 12.6179 30.297 12.6096 30.2956 12.6009C30.1904 12.1726 30.0377 11.7571 29.9507 11.3239C29.9524 11.2956 29.9606 11.2681 29.9745 11.2435C29.9885 11.2188 30.0079 11.1977 30.0312 11.1817C30.367 10.9817 30.685 10.7507 31.055 10.6127C31.2212 11.0073 31.3494 11.4169 31.4379 11.8359V11.8359Z" fill="#326962"/>
<path d="M6.73312 27.4985C6.3885 27.7047 6.0445 27.912 5.69837 28.1155C5.65968 28.1299 5.61889 28.1378 5.57762 28.139C5.253 27.8748 4.94449 27.5914 4.65375 27.2904C4.65725 27.2695 4.66112 27.2441 4.6775 27.2337C5.03525 27.0087 5.3795 26.7587 5.78575 26.6212C6.04362 26.7547 6.21875 26.9881 6.43812 27.1682C6.55112 27.2614 6.716 27.3177 6.73312 27.4985Z" fill="#336E66"/>
<path d="M6.84778 29.1222C7.00915 28.938 7.24615 28.8682 7.43865 28.7312C7.6079 28.6109 7.83177 28.5712 7.95452 28.3825C8.2819 28.4739 8.5509 28.6797 8.84203 28.8404C8.95078 28.9002 9.10565 28.913 9.14565 29.0691C8.85815 29.3165 8.5104 29.4691 8.18728 29.6596C8.0964 29.7132 8.02315 29.8192 7.89403 29.794C7.52704 29.5998 7.17706 29.3751 6.84778 29.1222Z" fill="#34786D"/>
<path d="M1.8605 11.7227C1.7855 11.6459 1.72925 11.7255 1.67788 11.754C1.31813 11.954 0.963378 12.1617 0.602878 12.3609C0.550379 12.39 0.470253 12.5196 0.419128 12.3515C0.481851 11.9778 0.581291 11.6112 0.716003 11.257C1.10263 11.1052 1.43888 10.8619 1.79975 10.663C1.91025 10.6021 2.02288 10.5449 2.13475 10.4864C2.18613 10.4595 2.238 10.4341 2.28325 10.4967C2.29825 10.5164 2.30714 10.54 2.30883 10.5647C2.31052 10.5894 2.30493 10.614 2.29275 10.6355C2.17875 10.9605 2.0715 11.2871 1.963 11.6137C1.94713 11.6627 1.9405 11.7299 1.8605 11.7227Z" fill="#2A393D"/>
<path d="M20.6445 0.687747C20.6989 0.794872 20.607 0.820372 20.5458 0.856622C20.2105 1.05421 19.8744 1.25025 19.5373 1.44475C19.4588 1.48987 19.3719 1.52212 19.332 1.61325C19.3082 1.63424 19.2793 1.64855 19.2482 1.65472C19.2171 1.66089 19.1849 1.6587 19.1549 1.64837C18.8529 1.5885 18.5525 1.52137 18.2468 1.48137C18.2187 1.47875 18.1915 1.47003 18.1671 1.45582C18.1428 1.44162 18.1218 1.42227 18.1056 1.39912C18.037 1.29487 18.1056 1.25612 18.1865 1.21037C18.5682 0.995039 18.9481 0.77658 19.3263 0.554997C19.3948 0.514747 19.4829 0.487497 19.5013 0.390747C19.8388 0.419622 20.1465 0.559372 20.4658 0.654122C20.526 0.66143 20.5857 0.672661 20.6445 0.687747Z" fill="#2A393D"/>
<path d="M31.0554 10.6129C30.7791 10.8014 30.4928 10.9748 30.1977 11.1322C30.1199 11.1794 30.0318 11.2107 29.9919 11.3024C29.9273 11.3094 29.907 11.2591 29.8913 11.2149C29.7709 10.8792 29.6382 10.5485 29.5132 10.2149C29.4976 10.1756 29.4936 10.1326 29.5019 10.0911C29.6078 9.93062 29.7878 9.87537 29.9428 9.78687C30.1444 9.64972 30.3595 9.53361 30.5848 9.44037C30.7769 9.81613 30.9344 10.2086 31.0554 10.6129V10.6129Z" fill="#31655F"/>
<path d="M5.7924 26.6569C5.38977 26.8265 5.03402 27.0804 4.6539 27.2902C4.35341 26.9967 4.06963 26.6866 3.80389 26.3612C3.93314 26.1917 4.1364 26.1339 4.30902 26.0309C4.49594 25.9057 4.69261 25.7958 4.89715 25.7022C5.0544 25.764 5.13215 25.9147 5.24927 26.0214C5.4044 26.1625 5.55015 26.3142 5.69502 26.4661C5.7444 26.5181 5.82352 26.5611 5.7924 26.6569Z" fill="#326962"/>
<path d="M31.8894 17.7737C31.8533 18.2433 31.7823 18.7094 31.6769 19.1684C31.2855 19.3441 30.9238 19.5735 30.5526 19.786C30.4554 19.8416 30.3541 19.938 30.2276 19.8369C30.1813 19.7229 30.2373 19.618 30.26 19.5119C30.3195 19.2334 30.3748 18.9536 30.46 18.6812C30.4962 18.6118 30.5542 18.5562 30.6251 18.523C30.9578 18.3525 31.2659 18.1379 31.6013 17.9736C31.7101 17.9199 31.7739 17.8112 31.8894 17.7737Z" fill="#368275"/>
<path d="M4.90248 25.7266C4.54777 25.9576 4.181 26.1695 3.80373 26.3614C3.52575 26.0567 3.2712 25.7315 3.04224 25.3885C3.07174 25.2989 3.15324 25.2635 3.22486 25.2234C3.45711 25.092 3.68924 24.9609 3.91886 24.8247C3.94839 24.7997 3.98313 24.7815 4.02056 24.7716C4.05799 24.7616 4.09716 24.7602 4.13523 24.7672C4.39361 24.9557 4.54686 25.2375 4.75386 25.4717C4.81699 25.5431 4.93286 25.5961 4.90248 25.7266Z" fill="#31655F"/>
<path d="M30.7535 15.7866C30.6749 15.4126 30.8396 15.191 31.1829 15.0566C31.343 14.9941 31.4765 14.8635 31.6364 14.7996C31.8406 14.7177 31.9376 14.5946 31.9014 14.3746C31.949 14.6405 31.9747 14.9099 31.9781 15.18C31.9894 15.4087 31.9835 15.6385 31.9852 15.8675C31.9362 15.9367 31.8692 15.9911 31.7915 16.0249C31.4984 16.1795 31.2201 16.3605 30.9277 16.5162C30.8891 16.54 30.8571 16.5731 30.8344 16.6123C30.8118 16.6516 30.7992 16.6959 30.798 16.7412C30.7855 16.802 30.773 16.9037 30.675 16.7974C30.6199 16.459 30.6468 16.1124 30.7535 15.7866Z" fill="#34786D"/>
<path d="M31.1686 21.072C30.8271 21.186 30.5466 21.4135 30.2304 21.574C29.9959 21.693 29.7981 21.8901 29.5186 21.9152C29.5025 21.8922 29.4933 21.8651 29.4921 21.837C29.4909 21.8089 29.4977 21.7811 29.5118 21.7567C29.642 21.4567 29.7601 21.1517 29.8702 20.8442C29.8836 20.8118 29.9051 20.7833 29.9327 20.7616C30.355 20.5674 30.7452 20.3164 31.149 20.0866C31.2466 20.031 31.3417 19.9294 31.474 20.0144C31.4033 20.3752 31.3011 20.7291 31.1686 21.072V21.072Z" fill="#37887A"/>
<path d="M0.00598145 15.4877C0.249731 15.4336 0.42998 15.2575 0.64748 15.1522C0.79748 15.0796 0.936105 14.9837 1.08335 14.9047C1.13935 14.8746 1.20336 14.8145 1.26836 14.8962C1.30478 14.9483 1.32912 15.0079 1.33961 15.0706C1.3501 15.1333 1.34647 15.1976 1.32898 15.2587C1.27998 15.645 1.3481 16.0289 1.33335 16.4137C1.33903 16.5117 1.33095 16.6099 1.30936 16.7056C1.23086 16.8181 1.19936 16.741 1.18436 16.6681C1.16556 16.5283 1.16112 16.387 1.1711 16.2464C1.1711 16.1105 1.12398 16.0822 1.00673 16.1531C0.747604 16.31 0.48973 16.47 0.215855 16.6005C0.138605 16.6372 0.0408553 16.6997 0.00635529 16.547L0.00598145 15.4877Z" fill="#2C4345"/>
<path d="M10.8291 31.1363C10.4508 31.0305 10.083 30.8902 9.73037 30.7171C9.72887 30.6252 9.79624 30.5813 9.86099 30.5421C10.2251 30.3239 10.6044 30.1313 10.9561 29.8921C10.9867 29.8751 11.0212 29.8665 11.0561 29.8671C11.4303 29.9472 11.7956 30.0644 12.1465 30.2171C12.1667 30.3345 12.0765 30.3778 12 30.4233C11.7339 30.5818 11.4684 30.7414 11.1975 30.8915C11.0689 30.964 10.9458 31.0458 10.8291 31.1363Z" fill="#368275"/>
<path d="M1.60363 19.2534C1.36963 19.2659 1.21488 19.4456 1.017 19.5355C0.826627 19.6219 0.650753 19.7402 0.468628 19.8446C0.351258 19.4584 0.267611 19.0627 0.218628 18.662C0.543628 18.4995 0.852876 18.307 1.1715 18.1321C1.2465 18.0906 1.32875 17.9907 1.42813 18.1017C1.48613 18.4056 1.55825 18.7065 1.61338 19.0106C1.62825 19.09 1.66613 19.175 1.60363 19.2534Z" fill="#2D4C4B"/>
<path d="M0.00661333 16.5464C0.0593633 16.6362 0.12224 16.5934 0.18299 16.5589C0.469115 16.3956 0.756488 16.2339 1.03999 16.0666C1.18261 15.9822 1.22749 16.0072 1.23024 16.1791C1.23286 16.3717 1.17936 16.5701 1.26636 16.7579C1.36211 16.8774 1.32986 17.0105 1.30774 17.1424C1.16174 17.3255 0.929113 17.3765 0.747363 17.5062C0.612183 17.5958 0.471487 17.6768 0.326113 17.7486C0.251113 17.7887 0.160614 17.8574 0.0918642 17.7316L0.0793634 17.5735C0.0379884 17.4742 0.0866125 17.3659 0.0479875 17.2664C0.00930013 17.0284 -0.00456517 16.7871 0.00661333 16.5464V16.5464Z" fill="#2C4647"/>
<path d="M27.0312 4.41549C26.9437 4.63861 26.7007 4.65049 26.5388 4.77324C26.3624 4.90686 26.1411 4.97324 25.9734 5.12449C25.8794 5.14824 25.8382 5.06874 25.7799 5.02449C25.5909 4.88011 25.4192 4.71486 25.2338 4.56574C25.1838 4.52511 25.1049 4.49599 25.1277 4.40436C25.3211 4.17799 25.6097 4.09911 25.8471 3.94061C25.9684 3.85949 26.1147 3.81274 26.1906 3.67361C26.403 3.81982 26.5951 3.99363 26.7617 4.19049C26.8348 4.28351 26.9266 4.36016 27.0312 4.41549V4.41549Z" fill="#2D4C4B"/>
<path d="M28.7651 23.3986C29.2476 23.1884 29.6811 22.8892 30.1422 22.6404C30.3122 22.5487 30.457 22.4029 30.6634 22.3837C30.5394 22.7061 30.3916 23.0188 30.2211 23.3192C29.9014 23.3796 29.657 23.5924 29.381 23.7399C29.0221 23.9316 28.6726 24.1411 28.3185 24.341C28.2617 24.3835 28.1934 24.4079 28.1226 24.4112C28.088 24.3516 28.1198 24.3015 28.1502 24.255C28.3233 23.9899 28.5002 23.7272 28.6655 23.457C28.6864 23.422 28.7123 23.3842 28.7651 23.3986Z" fill="#388E7E"/>
<path d="M26.9884 6.14136C27.0676 5.93473 27.2904 5.92136 27.4409 5.81086C27.623 5.67698 27.8517 5.60998 28.0015 5.42711C28.252 5.68487 28.4803 5.96337 28.6839 6.25961C28.7339 6.34298 28.6805 6.39461 28.6199 6.43098C28.3191 6.63181 28.0031 6.80885 27.6747 6.96048C27.6502 6.96258 27.6254 6.95855 27.6028 6.94876C27.5802 6.93896 27.5603 6.92371 27.545 6.90436C27.3707 6.69573 27.1941 6.48911 27.0241 6.27661C27.0063 6.25952 26.9936 6.23786 26.9872 6.214C26.9809 6.19015 26.9813 6.16501 26.9884 6.14136V6.14136Z" fill="#2F5552"/>
<path d="M0.849792 21.156C1.14454 20.9871 1.43854 20.8166 1.73504 20.6505C1.8033 20.6173 1.87361 20.5885 1.94554 20.5644C1.95929 20.5684 1.97742 20.5712 1.98304 20.5819C2.16139 20.8897 2.2833 21.227 2.34304 21.5777C2.03779 21.7839 1.71404 21.9594 1.39304 22.1402C1.36646 22.1576 1.33511 22.1663 1.30336 22.1651C1.27161 22.1638 1.24104 22.1527 1.21592 22.1332C1.06609 21.8186 0.943603 21.4916 0.849792 21.156V21.156Z" fill="#2F5552"/>
<path d="M11.0472 29.9107C10.6177 30.1949 10.1347 30.3922 9.73042 30.717C9.38858 30.596 9.05956 30.4415 8.74817 30.2556C8.93029 30.0537 9.18704 29.9654 9.40904 29.8246C9.60279 29.7016 9.80292 29.5886 9.99654 29.4644C10.3537 29.5545 10.6994 29.6855 11.0265 29.8549C11.0449 29.8636 11.047 29.8894 11.0472 29.9107Z" fill="#367F73"/>
<path d="M15.1021 30.7241C15.0836 30.875 14.9361 30.8866 14.8437 30.9424C14.3687 31.2299 13.8846 31.5011 13.4036 31.7781C13.1037 31.7548 12.8075 31.6976 12.5206 31.6075C12.4946 31.529 12.5496 31.4847 12.6005 31.4532C13.0896 31.1504 13.5838 30.8564 14.09 30.5816C14.3663 30.5872 14.6421 30.6089 14.916 30.6465C14.9507 30.6455 14.9853 30.652 15.0173 30.6654C15.0494 30.6787 15.0783 30.6988 15.1021 30.7241V30.7241Z" fill="#378A7B"/>
<path d="M31.8892 17.7737C31.7816 18.0267 31.5092 18.0544 31.3142 18.1855C31.0556 18.3596 30.7767 18.5039 30.5066 18.6605C30.4924 18.6501 30.4811 18.6362 30.474 18.6201C30.4668 18.6041 30.4641 18.5864 30.466 18.5689C30.4985 18.2366 30.5541 17.907 30.6323 17.5825C30.9198 17.3841 31.2283 17.22 31.5336 17.051C31.7107 16.9656 31.8625 16.8355 31.9738 16.6734C31.9771 17.0419 31.9488 17.41 31.8892 17.7737V17.7737Z" fill="#367F73"/>
<path d="M31.9739 16.6739C31.9651 16.7502 31.9353 16.8227 31.888 16.8832C31.8406 16.9438 31.7775 16.9902 31.7056 17.0172C31.4082 17.1731 31.1226 17.3519 30.8323 17.5214C30.7839 17.5506 30.7277 17.5644 30.6712 17.5607C30.5498 17.3119 30.6093 17.0751 30.7195 16.8419C30.7093 16.5725 30.8918 16.459 31.0988 16.3526C31.3988 16.1987 31.6901 16.0302 31.9852 15.868C32.0007 16.1365 31.997 16.4059 31.9739 16.6739V16.6739Z" fill="#357B70"/>
<path d="M9.98437 29.4832C9.87612 29.6651 9.6755 29.7171 9.50937 29.8166C9.258 29.9674 9.00162 30.1097 8.74687 30.2557C8.44773 30.1306 8.16181 29.9759 7.89337 29.794C8.29437 29.5315 8.70987 29.2929 9.1335 29.069C9.15564 29.0582 9.18032 29.0536 9.20487 29.0558C9.22942 29.058 9.25289 29.0669 9.27275 29.0815C9.46025 29.1755 9.65262 29.2597 9.84437 29.3455C9.90587 29.3719 9.98112 29.3944 9.98437 29.4832Z" fill="#357B70"/>
<path d="M4.14022 24.7949C3.89972 24.8401 3.72772 25.0199 3.51384 25.1176C3.34984 25.1926 3.19897 25.2969 3.04222 25.3881C2.83816 25.1348 2.65383 24.8662 2.49084 24.5847C2.49317 24.5671 2.49922 24.5502 2.5086 24.5351C2.51797 24.52 2.53046 24.5071 2.54522 24.4972C2.87032 24.2898 3.20562 24.0988 3.54985 23.925C3.57725 23.9308 3.60294 23.9429 3.62494 23.9602C3.64694 23.9775 3.66466 23.9997 3.67672 24.025C3.81097 24.2281 3.95759 24.4225 4.09209 24.625C4.12484 24.6747 4.17422 24.7246 4.14022 24.7949Z" fill="#31615C"/>
<path d="M1.99109 23.7373C1.80608 23.4421 1.64823 23.1308 1.51947 22.8071C1.84035 22.7279 2.09447 22.5166 2.38097 22.3696C2.47247 22.3228 2.55497 22.2411 2.67322 22.2876C2.82772 22.526 2.94897 22.7831 3.08572 23.0314C3.10133 23.0546 3.11091 23.0814 3.1136 23.1093C3.11628 23.1372 3.11198 23.1653 3.10109 23.1911C2.80397 23.3985 2.47847 23.5581 2.16684 23.7411C2.14124 23.76 2.11011 23.7699 2.07831 23.7692C2.04651 23.7685 2.01584 23.7572 1.99109 23.7373V23.7373Z" fill="#2F5A56"/>
<path d="M30.5846 9.44024C30.2585 9.69861 29.8799 9.86861 29.5221 10.074C29.5007 10.076 29.4736 10.0756 29.4649 10.0579C29.3245 9.77361 29.1371 9.50986 29.0836 9.18749C29.3086 8.98374 29.593 8.87499 29.8461 8.71611C29.9373 8.63804 30.0504 8.59002 30.1699 8.57861C30.3345 8.85236 30.4733 9.14081 30.5846 9.44024V9.44024Z" fill="#31615C"/>
<path d="M29.2104 6.97797C29.3935 7.21947 29.5566 7.47558 29.6979 7.74372C29.7209 7.84972 29.6306 7.87297 29.5691 7.90922C29.2722 8.08422 28.9758 8.26039 28.68 8.43772C28.673 8.43772 28.6631 8.43997 28.6594 8.43622C28.4076 8.19825 28.2193 7.901 28.1119 7.5716C28.1569 7.4996 28.2233 7.44348 28.3018 7.4111C28.5278 7.2831 28.7539 7.15535 28.976 7.02072C29.0479 6.97747 29.1205 6.92822 29.2104 6.97797Z" fill="#2F5A56"/>
<path d="M31.4734 20.0144C31.154 20.0725 30.9282 20.3127 30.6447 20.4407C30.4117 20.546 30.2218 20.7399 29.9553 20.776C29.9403 20.7615 29.9298 20.7428 29.9254 20.7224C29.9209 20.7019 29.9227 20.6806 29.9303 20.6611C30.0023 20.4157 30.0813 20.1725 30.1603 19.9294C30.1667 19.9094 30.1778 19.8913 30.1928 19.8766C30.2077 19.8619 30.2259 19.8511 30.246 19.845C30.5656 19.7889 30.7892 19.545 31.0739 19.4214C31.2739 19.3339 31.4289 19.1411 31.6765 19.1682C31.6341 19.4558 31.5661 19.7389 31.4734 20.0144V20.0144Z" fill="#368578"/>
<path d="M1.99109 23.7372C2.29621 23.6637 2.53097 23.4531 2.80434 23.3176C2.89151 23.2598 2.9871 23.2158 3.08772 23.1872C3.27384 23.3185 3.55872 23.7839 3.55372 23.9485L2.49121 24.5851C2.30241 24.3161 2.13518 24.0326 1.99109 23.7372V23.7372Z" fill="#305E59"/>
<path d="M28.6789 8.42836C28.8478 8.21911 29.106 8.14286 29.3189 7.99924C29.4452 7.91386 29.5978 7.86774 29.698 7.74399C29.8799 8.00759 30.0378 8.28696 30.1698 8.57874C29.8184 8.79124 29.4707 9.00899 29.0993 9.18586C29.0823 9.19089 29.0641 9.1903 29.0475 9.18418C29.0308 9.17805 29.0166 9.16672 29.0069 9.15186C28.8794 8.94345 28.7641 8.72784 28.6614 8.50611C28.6566 8.49284 28.6557 8.47846 28.6588 8.46468C28.6619 8.4509 28.6689 8.43829 28.6789 8.42836V8.42836Z" fill="#305E59"/>
<path d="M14.0474 30.6319C13.6582 30.9176 13.2216 31.1247 12.8124 31.3769C12.6961 31.4256 12.5953 31.5053 12.5211 31.6072C12.2321 31.5685 11.9482 31.498 11.6746 31.3972C11.6174 31.274 11.7209 31.2385 11.7925 31.1936C12.0466 31.034 12.3091 30.8882 12.572 30.7436C12.7441 30.6491 12.897 30.5281 13.0634 30.426C13.38 30.4159 13.6809 30.5176 13.9907 30.5559C13.9995 30.5571 14.0079 30.56 14.0155 30.5645C14.0231 30.569 14.0297 30.5749 14.035 30.582C14.0402 30.5891 14.0441 30.5971 14.0462 30.6057C14.0483 30.6143 14.0487 30.6232 14.0474 30.6319Z" fill="#37877A"/>
<path d="M13.0298 30.4597C12.8808 30.7097 12.5952 30.7641 12.376 30.9134C12.1872 31.0421 11.981 31.1457 11.7804 31.2567C11.7214 31.2894 11.6754 31.3245 11.6743 31.3974C11.3844 31.3395 11.1013 31.252 10.8293 31.1362C10.8879 30.9297 11.0965 30.9081 11.2408 30.8112C11.5348 30.6136 11.8684 30.4787 12.1442 30.2509C12.1657 30.2329 12.1916 30.2209 12.2193 30.2163C12.2469 30.2116 12.2753 30.2144 12.3015 30.2244C12.5052 30.2716 12.709 30.3181 12.913 30.3637C12.9644 30.3752 13.0272 30.3839 13.0298 30.4597Z" fill="#368577"/>
<path d="M0.0912476 17.7307C0.217748 17.8057 0.297372 17.6972 0.391247 17.6516C0.689872 17.5057 0.945123 17.2789 1.26912 17.1799C1.4032 17.4556 1.44602 17.7669 1.39137 18.0686C1.108 18.2311 0.827372 18.3989 0.539497 18.553C0.441622 18.6055 0.353998 18.7104 0.218998 18.6619C0.149929 18.3557 0.107189 18.0442 0.0912476 17.7307V17.7307Z" fill="#2D4949"/>
<path d="M29.2107 6.97812C28.8269 7.13687 28.4902 7.38113 28.1275 7.57813C28.0105 7.51113 27.9088 7.4203 27.8291 7.31151C27.7495 7.20273 27.6935 7.07841 27.665 6.94662C27.9572 6.77162 28.249 6.59512 28.5422 6.42162C28.6089 6.38225 28.6846 6.3555 28.6846 6.25912C28.8802 6.48331 29.0562 6.72386 29.2107 6.97812V6.97812Z" fill="#2F5754"/>
<path d="M2.65862 22.2992C2.35695 22.4363 2.0656 22.5951 1.78687 22.7742C1.69787 22.8242 1.61812 22.8721 1.5195 22.8065C1.39544 22.593 1.29382 22.3672 1.21625 22.1327C1.50375 22.075 1.7185 21.8775 1.9675 21.7452C2.07809 21.6737 2.19795 21.6176 2.32375 21.5786C2.51308 21.7744 2.63103 22.0283 2.65862 22.2992V22.2992Z" fill="#2F5754"/>
<path d="M0.0369969 14.9671C0.0296219 15.1264 0.0771243 15.2891 0.00662432 15.4442C-0.0122648 15.2847 -0.00197463 15.123 0.0369969 14.9671V14.9671Z" fill="#2C4345"/>
<path d="M0.0483697 17.2656C0.116495 17.3621 0.0723706 17.47 0.0797456 17.5728C0.0421662 17.475 0.0313349 17.369 0.0483697 17.2656V17.2656Z" fill="#2D4949"/>
<path d="M17.3033 31.9365C17.3866 31.8729 17.481 31.9115 17.5707 31.9074C17.4872 31.9461 17.3933 31.9563 17.3033 31.9365V31.9365Z" fill="#399584"/>
<path d="M2.65864 22.2992L2.32377 21.5799C2.1976 21.2414 2.07152 20.903 1.94552 20.5645C1.83168 20.1274 1.71777 19.6904 1.60377 19.2535C1.54202 18.857 1.40639 18.4737 1.39127 18.0689C1.35044 17.7726 1.30964 17.4764 1.26889 17.1801C1.26798 17.0392 1.26706 16.8983 1.26614 16.7574C1.27639 16.1371 1.22627 15.5166 1.26827 14.8964C1.34027 14.6759 1.31527 14.4436 1.35127 14.2184C1.39864 13.9232 1.43665 13.6266 1.47877 13.3309C1.60315 12.7942 1.69877 12.251 1.86027 11.7232L2.28364 10.4971C2.44502 10.2107 2.55289 9.89999 2.69064 9.60311C2.80252 9.36224 2.9264 9.12699 3.04502 8.88924C3.32215 8.44661 3.59202 7.99924 3.87915 7.56324C4.04264 7.29679 4.23066 7.0462 4.44077 6.81474C4.80889 6.38111 5.20077 5.96961 5.58627 5.55224C6.04539 5.05449 6.58102 4.64861 7.08264 4.20224C7.21035 4.10441 7.34547 4.01664 7.48677 3.93974C8.205 3.43266 8.96863 2.99316 9.76789 2.62686C9.78589 2.61911 9.79864 2.59911 9.81377 2.58486C10.875 2.09618 11.9923 1.74001 13.1405 1.52436C13.3469 1.50482 13.5506 1.46329 13.7481 1.40049C14.0481 1.40549 14.3356 1.29561 14.6369 1.31474C14.7008 1.26686 14.7853 1.32486 14.8485 1.27361L15.2293 1.27249C15.7503 1.2399 16.2729 1.2399 16.7939 1.27249C17.2333 1.2876 17.6714 1.3298 18.1056 1.39886L19.332 1.61299L20.9393 2.07899L22.4203 2.71061C22.9483 2.95661 23.4338 3.27861 23.9426 3.55886L25.1275 4.40411L25.9731 5.12449C26.2975 5.47732 26.6357 5.81628 26.9879 6.14136C27.1965 6.42339 27.4222 6.69227 27.6639 6.94649C27.7952 7.17281 27.9502 7.3845 28.1264 7.57799C28.2901 7.87388 28.4745 8.15791 28.678 8.42799C28.7948 8.6928 28.9356 8.94636 29.0986 9.18549L29.5213 10.0737L29.9911 11.3021L30.3726 12.6541C30.4448 13.0488 30.5169 13.4434 30.589 13.838C30.6758 14.4658 30.7208 15.0987 30.7235 15.7325C30.7235 15.7504 30.7426 15.7684 30.7528 15.7862C30.7593 16.1387 30.6903 16.4886 30.7184 16.8416C30.7135 17.082 30.6496 17.3184 30.6703 17.5605C30.6154 17.9272 30.5606 18.2938 30.5058 18.6605L30.245 19.8447C30.1482 20.1552 30.0514 20.4655 29.9545 20.7757C29.8089 21.1555 29.6631 21.5352 29.517 21.9149L28.7636 23.3981L28.1208 24.4106C27.5242 25.2242 26.8646 25.9895 26.148 26.6996C25.6695 27.1246 25.1874 27.5442 24.6695 27.9215C23.5428 28.7439 22.3044 29.401 20.9918 29.873C20.9589 29.8855 20.928 29.9022 20.8963 29.917C20.148 30.1639 19.3851 30.3638 18.6119 30.5156C18.0494 30.6014 17.4869 30.6796 16.9198 30.7232C16.3134 30.7097 15.7073 30.7867 15.1006 30.7232L14.0454 30.6311L13.0283 30.459L12.1425 30.25L11.0456 29.9099L9.98315 29.4824L9.13314 29.0674C8.82864 28.8939 8.52377 28.7211 8.22064 28.5462C8.13002 28.4942 8.04252 28.4366 7.95352 28.3815L6.73227 27.4975L5.79152 26.656L4.90164 25.7256L4.13914 24.7942L3.55277 23.9475C3.41089 23.6857 3.25535 23.4316 3.08677 23.1862C2.98877 22.8701 2.75964 22.6156 2.65864 22.2992Z" fill="#192123"/>
<path d="M16.7939 1.27274H15.2291C15.4153 1.18424 15.6124 1.24774 15.8041 1.23336C15.9503 1.22274 16.0978 1.23111 16.2445 1.23099C16.4266 1.25486 16.6165 1.18186 16.7939 1.27274Z" fill="#293237"/>
<path d="M14.8485 1.27362C14.7888 1.34262 14.7084 1.30599 14.6369 1.31474C14.6965 1.24549 14.7772 1.28337 14.8485 1.27362Z" fill="#293237"/>
<path d="M12.2679 19.8146C12.1395 19.9046 11.9877 19.9555 11.831 19.9612C11.6743 19.9669 11.5192 19.9271 11.3846 19.8466C11.1799 19.1736 11.0271 18.4869 10.8419 17.8091C10.3715 16.0862 9.91926 14.3584 9.45638 12.6334C9.42431 12.5408 9.41571 12.4417 9.43138 12.345C9.43651 12.2891 9.47801 12.2605 9.51726 12.2301C9.95601 12.0166 10.4445 11.9832 10.9048 11.8489C10.9985 11.8217 11.0941 11.8008 11.1906 11.7864C11.2826 11.8354 11.3573 11.9116 11.4045 12.0046C11.4516 12.0976 11.469 12.2029 11.4543 12.3061C11.6015 12.0282 11.6293 11.6686 12.0125 11.5885C12.1304 11.5734 12.2473 11.551 12.3625 11.5216C12.3971 11.5191 12.4315 11.5282 12.4604 11.5475C12.5147 11.6037 12.5489 11.6762 12.5579 11.7539C12.9579 13.4551 13.362 15.1554 13.7704 16.8549C13.7866 16.9089 13.7961 16.9647 13.7985 17.021C13.7784 17.2482 13.6316 17.419 13.5284 17.6077C13.1651 18.272 12.8068 18.939 12.4316 19.5969C12.3869 19.6764 12.3318 19.7496 12.2679 19.8146V19.8146Z" fill="#1FC8A7"/>
<path d="M22.5841 19.6379C22.5507 19.71 22.494 19.7687 22.4231 19.8047C22.0874 19.9612 21.7209 20.0077 21.366 20.0915C19.8992 20.4377 18.4337 20.7889 16.966 21.1326C16.246 21.3011 15.5277 21.4769 14.8066 21.6407C14.7334 21.6672 14.6539 21.6713 14.5784 21.6525C14.4746 21.5769 14.549 21.5016 14.5844 21.4322C14.8601 20.8936 15.1642 20.3705 15.4556 19.8405C15.9672 18.91 16.4736 17.9765 16.9931 17.0506C17.09 16.8782 17.1385 16.6654 17.337 16.562C17.5347 16.6115 17.7221 16.6955 17.8907 16.81C18.8096 17.3117 19.7304 17.81 20.6487 18.313C21.2585 18.6467 21.8797 18.9601 22.4737 19.3234C22.5252 19.4225 22.5624 19.5283 22.5841 19.6379V19.6379Z" fill="#1FC8A7"/>
<path d="M14.5557 21.625C15.1989 21.5125 15.8276 21.3375 16.4624 21.189C18.4015 20.7357 20.3384 20.2731 22.2765 19.8154C22.325 19.8078 22.374 19.8042 22.4231 19.8046C22.0669 20.0921 21.6592 20.3009 21.2719 20.5396C19.0512 21.9079 16.8286 23.2729 14.604 24.6347C14.3404 24.7966 14.079 24.9615 13.813 25.12C13.6451 25.2334 13.4408 25.2796 13.2404 25.2495C13.04 25.2194 12.8583 25.1152 12.7311 24.9575C12.684 24.89 12.7311 24.8369 12.7602 24.7835C13.3134 23.7724 13.8661 22.7611 14.4279 21.7547C14.4582 21.7002 14.4834 21.6389 14.5557 21.625Z" fill="#198889"/>
<path d="M12.4404 11.5541L12.3529 11.555C12.3089 11.5831 12.275 11.5779 12.2561 11.525C12.1404 11.4987 12.4186 11.495 12.258 11.4425C12.024 11.3661 11.7639 11.3104 11.658 11.0374C11.6381 10.9864 11.6054 10.9374 11.6374 10.879C12.179 10.5531 12.7229 10.231 13.2624 9.90075C14.8874 8.90475 16.5114 7.90729 18.1344 6.90837C18.5559 6.65 18.9514 6.70837 19.29 7.0665C19.1331 7.4685 18.8928 7.82687 18.689 8.204C18.3343 8.86062 17.9699 9.512 17.6111 10.1665C17.5698 10.2643 17.5028 10.3491 17.4173 10.412C16.7693 10.5953 16.1146 10.7495 15.4531 10.8745C15.2581 10.9265 15.0634 10.9801 14.8656 11.0235C14.5261 11.113 14.1866 11.2022 13.8416 11.2692C13.4633 11.3526 13.0862 11.4408 12.7104 11.534C12.6247 11.569 12.5303 11.576 12.4404 11.5541Z" fill="#198889"/>
<path d="M14.5558 21.625C13.9474 22.7359 13.3391 23.8468 12.7308 24.9576C12.6296 24.8702 12.555 24.7561 12.5155 24.6283C12.4759 24.5006 12.473 24.3643 12.5071 24.235C12.6664 23.5677 12.8274 22.9007 12.9901 22.2342C13.0212 22.1189 13.0723 22.0099 13.1413 21.9124C15.2394 18.761 17.3373 15.6093 19.4348 12.4571C19.4935 12.3358 19.5911 12.2374 19.712 12.1777C19.7566 12.2707 19.6924 12.3402 19.6561 12.412C19.462 12.7945 19.2443 13.1644 19.0403 13.5416C18.9769 13.651 18.924 13.7662 18.8824 13.8856C18.7331 14.1064 18.5973 14.336 18.4758 14.5731C18.2906 14.8964 18.1114 15.2231 17.9408 15.554C17.7783 15.8614 17.5953 16.1574 17.439 16.4681C17.4212 16.5139 17.3883 16.5522 17.3458 16.5767C17.1493 16.8017 17.0374 17.0775 16.8949 17.3335C16.1126 18.7402 15.3408 20.1529 14.5661 21.5639C14.5595 21.5836 14.556 21.6042 14.5558 21.625Z" fill="#68FDE1"/>
<path d="M17.4289 10.3691C17.939 9.44562 18.4466 8.52062 18.9613 7.59975C19.0628 7.41812 19.132 7.215 19.2885 7.0665C19.3831 7.18055 19.4475 7.31656 19.4758 7.46201C19.504 7.60747 19.4953 7.7577 19.4503 7.89887C19.292 8.51525 19.1449 9.13462 18.992 9.7525C18.9585 9.87436 18.9041 9.98946 18.8311 10.0926C16.7354 13.2399 14.6405 16.3877 12.5465 19.5362C12.4865 19.657 12.3887 19.7547 12.2679 19.8146C12.7057 19.0125 13.1437 18.2103 13.5819 17.4081C13.6537 17.2954 13.7125 17.1749 13.7569 17.0489C13.8668 16.6879 14.0881 16.3826 14.2606 16.0532C14.414 15.7602 14.5809 15.474 14.7343 15.1806C15.0056 14.7406 15.2405 14.2806 15.4909 13.8284C15.6583 13.515 15.8256 13.2014 16.0001 12.8917C16.3898 12.2101 16.7604 11.518 17.1404 10.8311C17.2176 10.6661 17.3144 10.5109 17.4289 10.3691V10.3691Z" fill="#68FDE1"/>
<path d="M22.5841 19.6379C22.462 19.5746 22.4966 19.4454 22.4605 19.3455C22.2743 19.0259 22.25 18.6555 22.1393 18.312C22.0913 18.1159 22.0298 17.9234 21.9553 17.7359C21.8563 17.2575 21.6945 16.7946 21.6004 16.3151C21.5209 15.9396 21.4179 15.5694 21.292 15.2068C21.0438 14.2752 20.7973 13.3432 20.5524 12.4109C20.5284 12.3201 20.4538 12.2109 20.5965 12.1424C20.7632 12.2212 20.895 12.3586 20.9671 12.5283C21.7129 14.0339 22.4578 15.5399 23.2019 17.0463C23.2496 17.1282 23.2803 17.2189 23.2921 17.3129C23.3038 17.407 23.2964 17.5025 23.2703 17.5936C23.0474 18.277 22.8491 18.9686 22.5841 19.6379Z" fill="#68FDE1"/>
<path d="M9.43112 12.3445C9.67971 13.2668 9.92812 14.1891 10.1764 15.1114C10.5718 16.5906 10.9648 18.0705 11.3555 19.5511C11.3799 19.6437 11.4654 19.7401 11.3845 19.8466C11.2326 19.7703 11.1111 19.6447 11.0399 19.4904C10.2967 17.9898 9.55254 16.4898 8.80737 14.9904C8.74952 14.878 8.71542 14.7549 8.70721 14.6287C8.69899 14.5026 8.71684 14.3761 8.75963 14.2571C8.94388 13.6999 9.12425 13.1411 9.30962 12.5844C9.32602 12.4943 9.36823 12.411 9.43112 12.3445V12.3445Z" fill="#68FDE1"/>
<path d="M20.5965 12.1424C20.5297 12.2049 20.5715 12.2702 20.5897 12.3369C20.8347 13.2578 21.0792 14.1789 21.323 15.1001C21.3318 15.1329 21.3507 15.1664 21.3222 15.199C21.2841 15.2055 21.245 15.2037 21.2077 15.1938C21.1703 15.1839 21.1355 15.1661 21.1057 15.1416C20.3945 14.7624 19.6898 14.3712 18.9785 13.9924C18.9292 13.9661 18.8785 13.9386 18.866 13.8759C18.8149 13.7309 18.9319 13.6421 18.9862 13.5359C19.2195 13.0786 19.502 12.6476 19.7122 12.1777C19.8398 12.0856 19.9917 12.0331 20.149 12.0268C20.3063 12.0205 20.462 12.0607 20.5965 12.1424V12.1424Z" fill="#1FC8A7"/>
<path d="M11.6365 10.879C11.7107 11.2165 11.9966 11.3012 12.2666 11.3994C12.3932 11.4454 12.3695 11.4764 12.2693 11.5184C12.1985 11.6059 12.088 11.5985 11.9955 11.6345C11.7947 11.6838 11.708 11.8416 11.6353 12.0129C11.5895 12.1216 11.5455 12.231 11.4945 12.355C11.386 12.1625 11.3548 11.955 11.2237 11.7976C11.0265 11.6905 10.7953 11.6476 10.6287 11.4823C10.6037 11.453 10.6113 11.4363 10.6481 11.4276C11.1018 11.3209 11.3856 11.0439 11.4731 10.5254L11.6365 10.879Z" fill="#FDFEFE"/>
<path d="M10.6289 11.4821C10.8327 11.5767 11.0683 11.6116 11.2239 11.7974C10.9989 11.9349 10.7342 11.9359 10.4897 12.0062C10.1705 12.0982 9.84178 12.1562 9.51715 12.2296C9.81203 11.9765 10.168 11.8171 10.4863 11.6005C10.5378 11.5654 10.6015 11.5462 10.6289 11.4821Z" fill="#19898A"/>
<path d="M14.7702 15.1872C14.5997 15.6037 14.3489 15.9777 14.1426 16.3756C14.0237 16.6051 13.886 16.8247 13.7567 17.0487C13.3302 15.2571 12.9037 13.4658 12.477 11.6749C12.4672 11.634 12.452 11.5942 12.4402 11.554C12.8967 11.4116 13.3652 11.3171 13.8316 11.2165C13.8999 11.2785 13.9434 11.3631 13.954 11.4547C14.2343 12.616 14.5108 13.7782 14.7834 14.9412C14.8114 15.0218 14.8067 15.1101 14.7702 15.1872V15.1872Z" fill="#A4E8DB"/>
<path d="M11.995 11.6345C12.0772 11.5762 12.171 11.5364 12.27 11.5179L12.353 11.5544C12.2441 11.6157 12.1196 11.6436 11.995 11.6345V11.6345Z" fill="#2AA197"/>
<path d="M21.999 17.734C22.1511 17.945 22.1578 18.2032 22.2259 18.441C22.3115 18.7404 22.383 19.0437 22.4605 19.3454C21.8051 18.9924 21.1498 18.6394 20.4945 18.2862C19.4445 17.7174 18.3949 17.1474 17.3458 16.5762C17.4833 16.2005 17.7258 15.8795 17.8974 15.5215C17.9895 15.479 18.0614 15.534 18.1336 15.5746C19.3599 16.2534 20.5944 16.9169 21.8264 17.585C21.8976 17.6162 21.9577 17.6681 21.999 17.734V17.734Z" fill="#A4E8DB"/>
<path d="M16.908 21.6409C17.0076 21.6124 17.0966 21.5553 17.1641 21.4768C17.2317 21.3983 17.2748 21.3018 17.2881 21.1991C17.3106 21.3105 17.3668 21.4123 17.4492 21.4906C17.5316 21.5689 17.6361 21.6199 17.7485 21.6366C17.6357 21.651 17.5306 21.7017 17.449 21.781C17.3675 21.8602 17.3139 21.9639 17.2963 22.0763C17.2275 21.8268 17.1116 21.6938 16.908 21.6409Z" fill="#F9FBFB"/>
<path d="M14.7703 15.1874C14.6277 14.5729 14.4869 13.958 14.3417 13.3441C14.1738 12.6345 14.0019 11.9259 13.8318 11.2169L14.8513 10.9677C14.904 11.0246 14.9374 11.0966 14.9469 11.1735C15.1344 11.9642 15.3205 12.7552 15.5128 13.5449C15.5463 13.6374 15.5528 13.7376 15.5318 13.8337C15.3104 14.3024 15.0559 14.7548 14.7703 15.1874V15.1874Z" fill="#1FC8A7"/>
<path d="M17.4289 10.3692C17.2865 10.6888 17.1236 10.9989 16.9414 11.2975C16.6841 11.7801 16.4191 12.2586 16.1551 12.7376C16.1184 12.7965 16.0782 12.8532 16.0348 12.9074C15.9385 12.8492 15.931 12.7449 15.9098 12.6522C15.8048 12.1957 15.6938 11.7409 15.5878 11.2846C15.5537 11.1276 15.5051 10.9742 15.4424 10.8262L17.4289 10.3692Z" fill="#1FC8A7"/>
<path d="M15.4428 10.8262C15.5475 10.8301 15.554 10.9079 15.5726 10.9862C15.7249 11.6271 15.8805 12.2671 16.0351 12.9074L15.5316 13.8337C15.2866 12.8826 15.0559 11.9282 14.8514 10.9676L15.4428 10.8262Z" fill="#A4E8DB"/>
<path d="M21.9988 17.7341C20.7077 17.0326 19.4164 16.3313 18.125 15.6301C18.0512 15.59 17.9731 15.5576 17.8971 15.5216C18.0798 15.1982 18.2331 14.8581 18.4455 14.5515C18.5773 14.5276 18.6741 14.612 18.7752 14.6684C19.667 15.1661 20.5722 15.6389 21.4646 16.1354C21.543 16.1679 21.6098 16.2234 21.6561 16.2946C21.7615 16.7129 21.8677 17.1307 21.9716 17.5492C21.9838 17.6104 21.9929 17.6721 21.9988 17.7341V17.7341Z" fill="#1FC8A7"/>
<path d="M21.6562 16.2946L18.4456 14.5515C18.5771 14.321 18.6456 14.0509 18.866 13.8765L21.322 15.1997C21.4817 15.4087 21.4707 15.6762 21.563 15.9091C21.6035 16.0352 21.6347 16.164 21.6562 16.2946Z" fill="#A4E8DB"/>
<path d="M14.2463 12.2575C14.3567 12.2423 14.4591 12.1919 14.5384 12.1137C14.6178 12.0356 14.6697 11.9338 14.6865 11.8237C14.7057 11.9313 14.7581 12.0302 14.8364 12.1064C14.9147 12.1826 15.0149 12.2324 15.123 12.2487C14.898 12.3294 14.7407 12.4269 14.6957 12.6505C14.665 12.5496 14.6066 12.4593 14.5272 12.3898C14.4477 12.3203 14.3505 12.2745 14.2463 12.2575V12.2575Z" fill="#FAFDFC"/>
</g>
<defs>
<clipPath id="clip0">
<rect width="32" height="32" fill="white"/>
</clipPath>
</defs>
</svg>
