<svg xmlns="http://www.w3.org/2000/svg" width="100" height="100" viewBox="0 0 100 100">
  <g fill="none" fill-rule="evenodd">
    <path fill="#FFF" d="M100,49.9998 C100,43.4558 98.698,36.9118 96.194,30.8658 C93.689,24.8198 89.982,19.2718 85.355,14.6448 C80.728,10.0168 75.18,6.3108 69.134,3.8058 C63.088,1.3018 56.544,-0.0002 50,-0.0002 C43.456,-0.0002 36.911,1.3018 30.865,3.8058 C24.819,6.3108 19.272,10.0168 14.644,14.6448 C10.017,19.2718 6.31,24.8198 3.806,30.8658 C1.301,36.9118 0,43.4558 0,49.9998 C0,56.5438 1.301,63.0878 3.806,69.1338 C6.31,75.1798 10.017,80.7278 14.644,85.3558 C19.272,89.9828 24.819,93.6898 30.865,96.1938 C36.911,98.6978 43.456,99.9998 50,99.9998 C56.544,99.9998 63.088,98.6978 69.134,96.1938 C75.18,93.6898 80.728,89.9828 85.355,85.3558 C89.982,80.7278 93.689,75.1798 96.194,69.1338 C98.698,63.0878 100,56.5438 100,49.9998 Z"/>
    <path fill="#0657F9" d="M37.046,10.5738 C41.704,9.0428 46.682,8.3428 51.613,8.5318 C56.545,8.7208 61.431,9.7998 65.978,11.6998 C70.526,13.5998 74.735,16.3218 78.336,19.6798 C83.099,24.1228 86.797,29.6798 89.015,35.8958 C91.234,42.1128 91.973,48.9888 91.117,55.5348 C90.262,62.0808 87.812,68.2978 84.106,73.6438 C80.4,78.9898 75.437,83.4638 69.608,86.5638 C63.779,89.6628 57.082,91.3868 50.481,91.4868 C43.88,91.5868 37.374,90.0638 31.547,87.1718 C25.721,84.2798 20.573,80.0198 16.664,74.6988 C12.755,69.3778 10.085,62.9958 9.025,56.4838 C7.965,49.9708 8.515,43.3268 10.546,37.1288 C12.081,32.4428 14.463,28.0128 17.515,24.1738 L12.876,24.1738 L12.876,16.5058 L31.053,16.5058 L31.053,33.4798 L23.385,33.4798 L23.385,28.8418 C20.885,31.9858 18.933,35.6148 17.676,39.4548 C16.013,44.5348 15.565,49.9848 16.426,55.3028 C17.496,61.9178 20.59,68.3278 25.208,73.2678 C30.732,79.1758 38.436,82.9818 46.456,83.8148 C54.475,84.6478 62.81,82.5088 69.429,77.9018 C76.048,73.2948 80.953,66.2198 82.944,58.4058 C84.935,50.5918 84.012,42.0388 80.422,34.8188 C76.832,27.5988 70.574,21.7138 63.091,18.6218 C55.608,15.5288 46.899,15.2308 39.387,17.6988 L37.046,10.5738 Z"/>
    <path fill="#000" d="M2.99791967 36.7492347C2.8706229 36.7492347 2.76749639 36.6335684 2.76749639 36.5075319 2.76749639 34.3641152 2.76749639 32.2199008 2.76749639 30.0764841 2.76749639 29.9504477 2.66436989 29.835579 2.53787879 29.835579 1.77329245 29.835579 1.00870611 29.835579.244119769 29.835579.11521164 29.835579-3.31852017e-14 29.7334736-3.31852017e-14 29.6074372-3.31852017e-14 29.1934315-3.31852017e-14 28.7794258-3.31852017e-14 28.3646224-3.31852017e-14 28.238586.116822992 28.1237174.244119769 28.1237174 2.59669312 28.1237174 4.94926647 28.1237174 7.30183983 28.1237174 7.4291366 28.1237174 7.54515392 28.2369906 7.54515392 28.3646224 7.54515392 28.7794258 7.54515392 29.1934315 7.54515392 29.6074372 7.54515392 29.7334736 7.4291366 29.835579 7.30183983 29.835579 6.54208754 29.835579 5.78152958 29.835579 5.0217773 29.835579 4.89448052 29.835579 4.7784632 29.94965 4.7784632 30.0764841 4.7784632 32.2199008 4.7784632 34.3641152 4.7784632 36.5075319 4.7784632 36.6335684 4.6753367 36.7492347 4.54803992 36.7492347 4.03160173 36.7492347 3.51516354 36.7492347 2.99791967 36.7492347zM14.5899832 28.3646224C14.5899832 28.238586 14.6931097 28.1237174 14.8204064 28.1237174 15.3328163 28.1237174 15.8452261 28.1237174 16.3576359 28.1237174 16.4849327 28.1237174 16.60095 28.2369906 16.60095 28.3646224 16.60095 29.827602 16.60095 31.2905817 16.60095 32.7535613 16.60095 35.3548572 15.1152838 36.8633056 12.7578764 36.8633056 10.4141655 36.8633056 8.94058442 35.3548572 8.94058442 32.7535613 8.94058442 31.2905817 8.94058442 29.827602 8.94058442 28.3646224 8.94058442 28.238586 9.04451659 28.1237174 9.1710077 28.1237174 9.68341751 28.1237174 10.1958273 28.1237174 10.7082371 28.1237174 10.8363396 28.1237174 10.9515512 28.2369906 10.9515512 28.3646224 10.9515512 29.8483422 10.9515512 31.332062 10.9515512 32.8157818 10.9515512 34.0976838 11.6170394 35.0094536 12.7707672 35.0094536 13.9244949 35.0094536 14.5899832 34.0976838 14.5899832 32.8157818 14.5899832 31.332062 14.5899832 29.8483422 14.5899832 28.3646224zM23.6602814 30.9395942C23.4556397 30.9395942 23.3911857 30.8630151 23.3138408 30.7114523 23.0447451 30.090045 22.4549904 29.6967794 21.5590789 29.6967794 20.7517917 29.6967794 20.0734127 29.975974 20.0734127 30.5088368 20.0734127 31.0927524 20.7018398 31.3336574 22.0843795 31.4979834 24.1847763 31.7476631 25.3892617 32.3738567 25.3892617 34.0219024 25.3892617 35.8733614 23.7481 36.8497447 21.6493146 36.8497447 19.8300986 36.8497447 18.2678932 35.9746691 18.0237734 34.1367711 18.0004089 33.9588842 18.0882275 33.895866 18.2678932 33.895866 18.7376022 33.895866 19.2073112 33.895866 19.6770202 33.895866 19.8558802 33.895866 19.9598124 33.9724451 20.01057 34.1112447 20.2313252 34.7103165 20.8565296 35.1897335 21.8040043 35.1897335 22.6370731 35.1897335 23.3670154 34.8850125 23.3670154 34.2388765 23.3670154 33.4651087 22.5992063 33.3263091 21.0611712 33.1348613 19.2927128 32.9146965 18.0640572 32.399383 18.0640572 30.7872337 18.0640572 29.1766798 19.4610991 28.0232073 21.6517316 28.0232073 23.6232203 28.0232073 24.9944805 29.0761698 25.2772727 30.6492318 25.3086941 30.8279164 25.2635762 30.9411896 25.0718254 30.9411896 24.6013107 30.9411896 24.1307961 30.9411896 23.6602814 30.9411896L23.6602814 30.9395942zM30.6148749 28.1237174C33.2027056 28.1237174 35.2136724 29.8866318 35.2136724 32.4616035 35.2136724 34.9982858 33.2284873 36.7492347 30.6148749 36.7492347L27.1311328 36.7492347 27.1311328 36.7492347C27.003836 36.7492347 26.9007095 36.6335684 26.9007095 36.5075319L26.9007095 28.3646224 26.9007095 28.3646224C26.9007095 28.238586 27.003836 28.1237174 27.1311328 28.1237174L30.6148749 28.1237174 30.6148749 28.1237174zM30.6019841 29.8339836L29.1549904 29.8339836 29.1549904 29.8339836C29.0276936 29.8339836 28.9237614 29.9472569 28.9237614 30.0748887L28.9237614 34.8052427 28.9237614 34.8052427C28.9237614 34.9312791 29.0276936 35.0333845 29.1549904 35.0333845L30.6148749 35.0333845 30.6148749 35.0333845 30.6148749 35.0357776C32.0119168 35.0357776 33.0995791 33.9437279 33.0995791 32.4344818 33.0995791 30.9260333 32.0103054 29.8339836 30.6019841 29.8339836zM14.8125215 6.44993532C11.7772021 6.44993532 8.74188267 6.44993532 5.70656327 6.44993532 5.37066273 6.44993532 5.09583502 6.17682087 5.09583502 5.84525388 5.09583502 4.09772453 5.09583502 2.35120298 5.09583502.604681436 5.09583502.271098844 5.37066273 7.51363057e-14 5.70656327 7.51363057e-14 13.7142285 7.51363057e-14 21.7208759 7.51363057e-14 29.7285411 7.51363057e-14 30.0644416 7.51363057e-14 30.3392694.271098844 30.3392694.604681436 30.3392694 2.35120298 30.3392694 4.09772453 30.3392694 5.84525388 30.3392694 6.17682087 30.0644416 6.44993532 29.7285411 6.44993532 26.9283521 6.44993532 24.1271452 6.44993532 21.3269561 6.44993532 21.3269561 11.6108914 21.3269561 17.1931088 21.3269561 22.7763341 21.3269561 23.1079011 21.0521284 23.3810155 20.7162279 23.3810155 18.9522411 23.3810155 17.1872365 23.3810155 15.4232497 23.3810155 15.0873492 23.3810155 14.8125215 23.1079011 14.8125215 22.7763341 14.8125215 17.1931088 14.8125215 11.6108914 14.8125215 6.44993532z" transform="translate(31.98 33)"/>
  </g>
</svg>
