<svg xmlns="http://www.w3.org/2000/svg" width="32" height="32" viewBox="0 0 32 32">
  <g fill="none" fill-rule="evenodd">
    <path fill="#FFF" d="M32,15.999936 C32,13.905856 31.58336,11.811776 30.78208,9.877056 C29.98048,7.942336 28.79424,6.166976 27.3136,4.686336 C25.83296,3.205376 24.0576,2.019456 22.12288,1.217856 C20.18816,0.416576 18.09408,-6.4e-05 16,-6.4e-05 C13.90592,-6.4e-05 11.81152,0.416576 9.8768,1.217856 C7.94208,2.019456 6.16704,3.205376 4.68608,4.686336 C3.20544,6.166976 2.0192,7.942336 1.21792,9.877056 C0.41632,11.811776 0,13.905856 0,15.999936 C0,18.094016 0.41632,20.188096 1.21792,22.122816 C2.0192,24.057536 3.20544,25.832896 4.68608,27.313856 C6.16704,28.794496 7.94208,29.980736 9.8768,30.782016 C11.81152,31.583296 13.90592,31.999936 16,31.999936 C18.09408,31.999936 20.18816,31.583296 22.12288,30.782016 C24.0576,29.980736 25.83296,28.794496 27.3136,27.313856 C28.79424,25.832896 29.98048,24.057536 30.78208,22.122816 C31.58336,20.188096 32,18.094016 32,15.999936 Z"/>
    <path fill="#0657F9" d="M11.85472,3.383616 C13.34528,2.893696 14.93824,2.669696 16.51616,2.730176 C18.0944,2.790656 19.65792,3.135936 21.11296,3.743936 C22.56832,4.351936 23.9152,5.222976 25.06752,6.297536 C26.59168,7.719296 27.77504,9.497536 28.4848,11.486656 C29.19488,13.476096 29.43136,15.676416 29.15744,17.771136 C28.88384,19.865856 28.09984,21.855296 26.91392,23.566016 C25.728,25.276736 24.13984,26.708416 22.27456,27.700416 C20.40928,28.692096 18.26624,29.243776 16.15392,29.275776 C14.0416,29.307776 11.95968,28.820416 10.09504,27.894976 C8.23072,26.969536 6.58336,25.606336 5.33248,23.903616 C4.0816,22.200896 3.2272,20.158656 2.888,18.074816 C2.5488,15.990656 2.7248,13.864576 3.37472,11.881216 C3.86592,10.381696 4.62816,8.964096 5.6048,7.735616 L4.12032,7.735616 L4.12032,5.281856 L9.93696,5.281856 L9.93696,10.713536 L7.4832,10.713536 L7.4832,9.229376 C6.6832,10.235456 6.05856,11.396736 5.65632,12.625536 C5.12416,14.251136 4.9808,15.995136 5.25632,17.696896 C5.59872,19.813696 6.5888,21.864896 8.06656,23.445696 C9.83424,25.336256 12.29952,26.554176 14.86592,26.820736 C17.432,27.087296 20.0992,26.402816 22.21728,24.928576 C24.33536,23.454336 25.90496,21.190336 26.54208,18.689856 C27.1792,16.189376 26.88384,13.452416 25.73504,11.142016 C24.58624,8.831616 22.58368,6.948416 20.18912,5.958976 C17.79456,4.969216 15.00768,4.873856 12.60384,5.663616 L11.85472,3.383616 Z"/>
    <g fill="#000" transform="translate(8.64 8.108)">
      <path d="M8.72537618 10.2711532C8.81634068 10.3211934 8.93853179 10.3316669 9.05471033 10.3140171 9.17088887 10.2965612 9.28105483 10.2511759 9.45192844 10.1291788 9.62280204 10.0071816 9.85457726 9.80857256 10.1090451 9.65243946 10.3637069 9.49650033 10.6410613 9.38284319 10.9129851 9.32523881 11.1847148 9.26763443 11.4510139 9.26588884 11.6593206 9.29032706 11.8678214 9.31457133 12.0181358 9.36499941 12.1519642 9.40611769 12.2859865 9.44723597 12.4035227 9.4788505 12.4944872 9.44529643 12.5856457 9.41174236 12.6500385 9.31282574 12.6455775 9.18733741 12.6411166 9.06184907 12.5676079 8.90959506 12.368611 8.73135119 12.1694201 8.55330128 11.8449348 8.34906756 11.4496562 8.23075553 11.0543776 8.11224954 10.5884998 8.07947129 10.185657 8.13901521 9.78281422 8.19836518 9.44300654 8.34984338 9.19241778 8.53177237 8.94163506 8.71389532 8.78026521 8.92646907 8.67165088 9.11654414 8.56323051 9.30642526 8.50756567 9.47400164 8.4904977 9.62431611 8.47323578 9.77443663 8.49437678 9.90748917 8.53471925 10.0192068 8.57506171 10.1307304 8.63441168 10.2209191 8.72537618 10.2711532zM9.73258009 11.096816C9.69262554 11.0789723 9.6487919 11.0549219 9.60107918 11.024859 9.50681746 10.9655091 9.50371419 10.902474 9.59196333 10.8357537 9.63560302 10.8027815 9.67594548 10.775434 9.71260282 10.7533232 9.75895786 10.7257817 9.80628267 10.6943612 9.85574098 10.6590615 9.95310597 10.5896259 10.0537682 10.508941 10.1612188 10.4274803 10.2684754 10.3460195 10.3813567 10.2639769 10.4930743 10.1955111 10.7163156 10.0585795 10.9603099 9.95966284 11.1893697 9.9111743 11.4182356 9.86268577 11.6521443 9.86113413 11.8253454 9.88130536 11.9985465 9.90167055 12.1172464 9.94143115 12.2576692 9.98448897 12.3123643 10.001169 12.3699687 10.0190128 12.4353312 10.0325896 12.4653941 10.0387961 12.4975905 10.0473301 12.5319204 10.0579976 12.601356 10.0795265 12.626764 10.1256876 12.6077565 10.1962869 12.5982527 10.2319745 12.5877792 10.2641709 12.5765298 10.293264 12.4791648 10.5417193 12.2813316 10.7486683 12.0578964 10.9030558 11.7603708 11.1082593 11.4170719 11.2199769 11.0580628 11.266138 10.6098347 11.3235484 10.1367805 11.2785511 9.73258009 11.096816z"/>
      <path d="M8.98411102,0.215406215 C9.0789546,0.23712908 9.23062675,0.27495014 9.54754783,0.396947302 C9.86427496,0.518750509 10.346445,0.724535865 10.9232646,1.00363589 C11.5000843,1.28254196 12.1717475,1.63456875 12.6213332,1.91619018 C13.070919,2.19781161 13.2984272,2.40922163 13.4365225,2.57427662 C13.5746179,2.73952556 13.6234944,2.85861341 13.6099176,2.97789521 C13.4704645,4.53030425 13.44719,4.85401373 13.4258551,4.99812166 C13.5676356,5.18489951 13.6000259,5.29603524 13.6203911,5.41686868 C13.6483205,5.58269948 13.6537512,5.76676197 13.6347437,6.045862 C13.6157362,6.32476807 13.5724844,6.69851772 13.4966483,7.12909594 L13.4641853,7.30666097 L13.4641853,7.30666097 L13.4289583,7.48655344 C13.4291523,7.4867474 13.4295402,7.48694135 13.4297342,7.4871353 C13.8275341,7.78291539 14.1516315,8.15123432 14.3640113,8.55000406 C14.5761971,8.94857984 14.6749198,9.37450316 14.6749198,9.76997568 L14.6749198,12.5964695 C14.6749198,13.2578532 14.1440673,13.9855692 13.3988954,14.5016812 C12.6537236,15.0177932 11.6942324,15.3223012 10.6525046,15.3223012 C9.61058293,15.3223012 8.65128569,15.0177932 7.90611384,14.5016812 C7.26781072,14.0596597 6.78661047,13.4620869 6.661704,12.8842975 L5.88142644,13.305178 C5.46888596,13.5278374 5.30092166,13.6001823 5.1764031,13.6550713 C5.05847897,13.707245 4.97953963,13.7437084 4.8870235,13.7646554 C4.81603628,13.7805596 4.73709694,13.787542 4.62673703,13.7850206 C4.37207522,13.7795899 3.94964308,13.7254767 3.40385609,13.521049 C2.85826306,13.3166213 2.18931519,12.9618792 1.64488588,12.5033716 C1.10065053,12.0450579 0.680739792,11.4831727 0.441206414,10.9075168 C0.201673035,10.3318609 0.142517019,9.74262815 0.134370944,9.04594483 C0.127970457,8.50112761 0.152796589,7.8907539 0.367891744,7.31529193 C0.293413349,7.25439032 0.249385757,7.20958691 0.213504238,7.16129233 C0.128746274,7.04782915 0.0882098559,6.91594033 0.0643534951,5.05941118 C0.054073925,4.98842396 0.0721116612,4.90735112 0.14445656,4.81405917 C0.228438708,4.7056388 0.385541572,4.58112024 0.561457988,4.43216345 C0.737568359,4.28320666 0.932492282,4.10981165 1.33611087,3.80123059 C1.73953551,3.49245558 2.35165482,3.04830057 3.19942842,2.53917092 C4.04700806,2.03004127 5.13024201,1.45574302 6.08100526,1.0577491 C7.03157457,0.659561224 7.84947923,0.43748372 8.2827728,0.321111228 C8.71606638,0.204544782 8.76474887,0.193877304 8.8081946,0.191161946 C8.85144638,0.188446588 8.88946139,0.193877304 8.98411102,0.215406215 Z M13.0784832,5.41105005 C13.0096295,5.44576785 12.9211864,5.48979544 12.8032622,5.55166682 C12.6087262,5.6536867 12.3342811,5.80400117 11.9211588,6.02588472 L11.9211588,6.02588472 L11.8352371,6.07010627 C11.7766629,6.09900543 11.7151794,6.10947896 11.6503988,6.10133288 C11.6180084,6.0974538 11.5861999,6.09299286 11.5547794,6.08795005 C11.3534549,6.05614157 11.1505789,6.03500056 10.9477029,6.02472099 C10.7845874,6.01638097 10.6210841,6.01482933 10.4579686,6.020454 C10.295823,6.02588472 10.1336773,6.03810383 9.97250138,6.05730529 C9.73083451,6.08581655 9.49052531,6.12984414 9.25467706,6.18958202 C9.01766509,6.24951386 8.78395033,6.32554388 8.55741188,6.41786606 C8.33009762,6.51018824 8.10860197,6.61938443 7.89777381,6.74467881 C7.68597588,6.87074901 7.48329379,7.01408113 7.29554617,7.17389935 C7.10741064,7.33410548 6.93265795,7.51196144 6.77749463,7.70436396 C6.6223313,7.89696043 6.48520572,8.10623696 6.37348813,8.32715074 C6.26099472,8.5494222 6.17293953,8.78604626 6.11378352,9.028295 C6.09574578,9.10257944 6.08022945,9.1776397 6.06742847,9.25347577 C6.06064008,9.29265451 6.05326982,9.33241511 6.04473584,9.37295153 C6.02805578,9.45402437 5.98616168,9.51899901 5.91944145,9.56806941 C5.88608134,9.59250763 5.85291518,9.61597608 5.81994297,9.63828081 C5.42097928,9.90845895 5.23303771,10.0277407 5.10522192,10.0946549 C4.95626513,10.1726245 4.88857513,10.1794129 4.81409674,10.1658361 C4.73961834,10.1522593 4.65835155,10.1183173 4.35015841,9.94569814 C4.04215921,9.77307895 3.50723366,9.46158858 2.83692811,9.02499778 C2.16681651,8.58821303 1.36093701,8.02632785 0.893895406,7.69796347 C0.863444604,7.67662851 0.834545435,7.65626333 0.807003945,7.63667396 C0.696256124,7.99587705 0.659792744,8.38727653 0.653974119,8.77693042 C0.650676898,8.99745629 0.654749936,9.21701239 0.664835552,9.41775494 C0.674921168,9.61849749 0.692377041,9.80508138 0.720306439,9.98119175 C0.776165235,10.3334125 0.872560449,10.6439331 1.04168847,10.9633756 C1.21062254,11.2826241 1.44744056,11.5999331 1.73682015,11.8850457 C1.88170391,12.027602 2.03938863,12.1616243 2.20948642,12.2873066 C2.37958421,12.412795 2.56054344,12.5295554 2.74266639,12.6340967 C3.10691229,12.8433732 3.47290377,13.0022216 3.77139921,13.0993927 C4.0697007,13.1967576 4.31233735,13.2396215 4.48670213,13.2564955 C4.5739815,13.2648356 4.64574453,13.2667751 4.69171167,13.2658053 C4.73748485,13.2646416 4.75668631,13.2615383 4.77259055,13.2578532 C4.7914041,13.2535862 4.81351488,13.2464099 4.86917972,13.2227475 C4.89710912,13.2107223 4.93279668,13.1948181 4.97449682,13.1763925 C5.01600301,13.1581608 5.05886688,13.1393472 5.10851914,13.1166546 C5.19599246,13.076894 5.30693424,13.0243324 5.54297644,12.8972924 L5.54297644,12.8972924 L6.62989552,12.3121328 L6.62989552,9.76997568 L6.62989552,9.76997568 L6.63820501,9.56996944 C6.66601409,9.23328838 6.76417644,8.88215055 6.94099798,8.55000406 C7.15318382,8.15123432 7.47728121,7.78291539 7.87527513,7.4871353 C8.2730751,7.19135522 8.74244415,6.96811399 9.22383835,6.82652746 C9.70523256,6.68474698 10.1967124,6.62345746 10.6525046,6.62345746 C11.1081029,6.62345746 11.5995828,6.68474698 12.080977,6.82652746 C12.3829636,6.91535846 12.6802953,7.0361919 12.9580377,7.18708823 C12.9782089,7.07944368 12.9968285,6.97335075 13.0133146,6.87249459 C13.0466747,6.66670924 13.0716948,6.47721603 13.0897325,6.31060941 C13.1077703,6.1440028 13.1186317,6.00047672 13.1234805,5.88643168 C13.1283294,5.7725806 13.1269717,5.68665891 13.121735,5.6164475 C13.1164982,5.5462361 13.1050549,5.48009773 13.0984605,5.45701719 C13.0951632,5.44537994 13.0924479,5.43723387 13.0811985,5.41589891 L13.0798409,5.41354721 Z M10.6525046,7.23111582 C9.99752147,7.23111582 9.34253829,7.36901723 8.7566028,7.65936659 C8.28762166,7.89172367 7.86305602,8.22183363 7.58085273,8.66055793 C7.36924874,8.98969812 7.23755388,9.37993388 7.23755388,9.76997568 C7.23755388,10.1602114 7.36924874,10.5504472 7.58085273,10.8795874 C7.86305602,11.3183117 8.28762166,11.6484216 8.7566028,11.8807787 C9.34253829,12.1711281 9.99752147,12.3090295 10.6525046,12.3090295 C11.3074878,12.3090295 11.962471,12.1711281 12.5484065,11.8807787 C13.0171937,11.6484216 13.4417593,11.3183117 13.7241566,10.8795874 C13.9357605,10.5504472 14.0674554,10.1602114 14.0674554,9.76997568 C14.0674554,9.37993388 13.9357605,8.98969812 13.7239626,8.66055793 C13.4417593,8.22183363 13.0171937,7.89172367 12.5484065,7.65936659 C11.962471,7.36901723 11.3074878,7.23111582 10.6525046,7.23111582 Z M3.1572422,3.46650024 C3.07163666,3.45455073 2.96957604,3.46317005 2.88338282,3.50058574 C2.7969937,3.53800144 2.72666786,3.60421351 2.68866449,3.68374635 C2.65046521,3.76327919 2.6447843,3.8561328 2.66123937,3.95172892 C2.67769444,4.04732504 2.71648139,4.14566368 2.77387824,4.35174384 C2.8310792,4.55762812 2.90708595,4.87144982 2.98407218,5.27244421 C3.06125429,5.6734386 3.13941588,6.16160568 3.18682215,6.44839405 C3.23403253,6.73518242 3.2504876,6.82039618 3.2877074,6.89307274 C3.3251231,6.9657493 3.38349942,7.02569277 3.45931028,7.0619331 C3.53512114,7.09817344 3.62856243,7.11071063 3.7194571,7.10169952 C3.81035178,7.09288431 3.89889573,7.06252078 3.9682421,7.01080485 C4.03778436,6.95908891 4.08812904,6.88582467 4.10928555,6.78787783 C4.13063797,6.68993098 4.12280222,6.56690974 4.06540537,6.22762186 C4.00820441,5.88833398 3.90144235,5.33258357 3.80173246,4.89299812 C3.70221846,4.45341267 3.60956074,4.12979629 3.54060616,3.9243038 C3.47165158,3.71881132 3.42640014,3.63124684 3.36919918,3.57110747 C3.31199822,3.51096811 3.24284775,3.47844976 3.1572422,3.46650024 Z M5.52540107,2.13246418 C5.42294867,2.11542143 5.31912501,2.13344365 5.24057164,2.17497312 C5.16221416,2.21650258 5.10912697,2.28134339 5.07954702,2.35010208 C5.04977118,2.41866487 5.04350258,2.49094964 5.06211248,2.59731992 C5.08072238,2.7034943 5.12421078,2.84395008 5.17984459,3.01457349 C5.2354784,3.18539279 5.30345351,3.38637972 5.37632597,3.67747775 C5.44939432,3.96837989 5.52736001,4.34939312 5.5959228,4.75508896 C5.66448559,5.1607848 5.72344959,5.59135914 5.76164886,5.92849219 C5.79965224,6.26562524 5.8164991,6.50951289 5.8629259,6.6611346 C5.90915682,6.81295222 5.98477178,6.87230801 6.07076911,6.91187853 C6.15657055,6.95144906 6.25275436,6.97103843 6.34599975,6.95066548 C6.43924515,6.93009665 6.52955215,6.8695655 6.58792847,6.81197275 C6.64610889,6.75438 6.67216276,6.69992156 6.67882314,6.577488 C6.68548353,6.45525033 6.67294633,6.26503756 6.65022266,6.04642019 C6.62749899,5.82780283 6.59458885,5.58058499 6.52308765,5.17900292 C6.45178235,4.77742084 6.34188599,4.22127864 6.24295967,3.76504223 C6.14403336,3.30900171 6.05588119,2.95286697 5.98868966,2.71759865 L5.95670003,2.60973287 C5.90552734,2.44537715 5.86321975,2.35464028 5.80200297,2.28526127 C5.72854283,2.20200645 5.62785347,2.14950694 5.52540107,2.13246418 Z M7.84870028,1.15279982 C7.74624788,1.13516939 7.64242422,1.15358339 7.56406674,1.19589643 C7.48570927,1.23820947 7.43281797,1.30442154 7.40323802,1.37455148 C7.37365807,1.44468142 7.36738948,1.51853335 7.38619527,1.62725435 C7.40480517,1.73597535 7.44848947,1.87956542 7.48962714,2.01140188 C7.53096071,2.14304244 7.57013945,2.26332117 7.62420611,2.51582814 C7.67827277,2.76853101 7.74761914,3.15365801 7.81422299,3.56640602 C7.88082685,3.97895814 7.94468819,4.41893538 7.98602176,4.7227665 C8.02735533,5.02640173 8.04576934,5.19389084 8.09297972,5.30790097 C8.1401901,5.42210699 8.21580507,5.48302993 8.3018024,5.52357992 C8.38760383,5.56412992 8.48359175,5.58430697 8.57683714,5.56354224 C8.67008254,5.54277751 8.76038953,5.48107099 8.81837407,5.42230288 C8.8765545,5.36353477 8.90241246,5.30770507 8.90907285,5.1827249 C8.91573323,5.05754882 8.90280425,4.86322228 8.87988469,4.63970758 C8.85696513,4.41619287 8.8236632,4.16349 8.76019364,3.80892242 C8.69652819,3.45435483 8.60249922,2.99811842 8.51944029,2.61769286 C8.43618547,2.23707142 8.3637048,1.93245672 8.30434901,1.721871 C8.24499323,1.51128528 8.19876231,1.39453264 8.12530218,1.30931888 C8.05184204,1.22430102 7.95095679,1.17043025 7.84870028,1.15279982 Z M10.397669,1.45095002 C10.3116717,1.4329278 10.2086316,1.43567031 10.121263,1.4701476 C10.0336985,1.50462489 9.96180556,1.57064107 9.92203914,1.65311231 C9.88246861,1.73538767 9.87502465,1.83392219 9.89010847,1.93657049 C9.90499639,2.03921879 9.94241209,2.14637264 9.98139493,2.30171634 C10.0203778,2.45706004 10.0611237,2.66078948 10.1006942,2.8960578 C10.1402647,3.13132613 10.1788558,3.39813334 10.2054973,3.57737607 C10.2323348,3.7566188 10.2474186,3.84829705 10.2838548,3.92802578 C10.320291,4.00755862 10.3778838,4.07514195 10.4536946,4.11843446 C10.5295055,4.16172696 10.6233386,4.18072865 10.7150168,4.17681078 C10.806891,4.1730888 10.8964144,4.14625136 10.9673279,4.09551489 C11.0380455,4.04458253 11.0899573,3.96994703 11.1130728,3.86690695 C11.1359924,3.76406276 11.1301156,3.63281399 11.0960301,3.40616498 C11.0621404,3.17971187 10.9998462,2.85785853 10.9381397,2.58008127 C10.8764332,2.30230402 10.8153144,2.06860284 10.762619,1.90366035 C10.7101195,1.73891375 10.6658475,1.64292584 10.6092342,1.57534252 C10.5526209,1.50795509 10.4836664,1.46897224 10.397669,1.45095002 Z"/>
    </g>
  </g>
</svg>
