<svg xmlns="http://www.w3.org/2000/svg" width="32" height="32" viewBox="0 0 32 32">
  <g fill="none" fill-rule="evenodd">
    <path fill="#FFF" d="M32,15.999936 C32,13.905856 31.58336,11.811776 30.78208,9.877056 C29.98048,7.942336 28.79424,6.166976 27.3136,4.686336 C25.83296,3.205376 24.0576,2.019456 22.12288,1.217856 C20.18816,0.416576 18.09408,-6.4e-05 16,-6.4e-05 C13.90592,-6.4e-05 11.81152,0.416576 9.8768,1.217856 C7.94208,2.019456 6.16704,3.205376 4.68608,4.686336 C3.20544,6.166976 2.0192,7.942336 1.21792,9.877056 C0.41632,11.811776 0,13.905856 0,15.999936 C0,18.094016 0.41632,20.188096 1.21792,22.122816 C2.0192,24.057536 3.20544,25.832896 4.68608,27.313856 C6.16704,28.794496 7.94208,29.980736 9.8768,30.782016 C11.81152,31.583296 13.90592,31.999936 16,31.999936 C18.09408,31.999936 20.18816,31.583296 22.12288,30.782016 C24.0576,29.980736 25.83296,28.794496 27.3136,27.313856 C28.79424,25.832896 29.98048,24.057536 30.78208,22.122816 C31.58336,20.188096 32,18.094016 32,15.999936 Z"/>
    <path fill="#0657F9" d="M11.85472,3.383616 C13.34528,2.893696 14.93824,2.669696 16.51616,2.730176 C18.0944,2.790656 19.65792,3.135936 21.11296,3.743936 C22.56832,4.351936 23.9152,5.222976 25.06752,6.297536 C26.59168,7.719296 27.77504,9.497536 28.4848,11.486656 C29.19488,13.476096 29.43136,15.676416 29.15744,17.771136 C28.88384,19.865856 28.09984,21.855296 26.91392,23.566016 C25.728,25.276736 24.13984,26.708416 22.27456,27.700416 C20.40928,28.692096 18.26624,29.243776 16.15392,29.275776 C14.0416,29.307776 11.95968,28.820416 10.09504,27.894976 C8.23072,26.969536 6.58336,25.606336 5.33248,23.903616 C4.0816,22.200896 3.2272,20.158656 2.888,18.074816 C2.5488,15.990656 2.7248,13.864576 3.37472,11.881216 C3.86592,10.381696 4.62816,8.964096 5.6048,7.735616 L4.12032,7.735616 L4.12032,5.281856 L9.93696,5.281856 L9.93696,10.713536 L7.4832,10.713536 L7.4832,9.229376 C6.6832,10.235456 6.05856,11.396736 5.65632,12.625536 C5.12416,14.251136 4.9808,15.995136 5.25632,17.696896 C5.59872,19.813696 6.5888,21.864896 8.06656,23.445696 C9.83424,25.336256 12.29952,26.554176 14.86592,26.820736 C17.432,27.087296 20.0992,26.402816 22.21728,24.928576 C24.33536,23.454336 25.90496,21.190336 26.54208,18.689856 C27.1792,16.189376 26.88384,13.452416 25.73504,11.142016 C24.58624,8.831616 22.58368,6.948416 20.18912,5.958976 C17.79456,4.969216 15.00768,4.873856 12.60384,5.663616 L11.85472,3.383616 Z"/>
    <g fill="#000" transform="translate(7.473 8.095)">
      <path d="M10.1082305 10.2207538C10.2001664 10.2716328 10.3241227 10.2820443 10.4417927 10.2643644 10.5594628 10.2464879 10.671043 10.20052 10.8441104 10.0771531 11.0171777 9.9535897 11.2519284 9.75243088 11.5096632 9.59429334 11.7675943 9.43615579 12.0485095 9.32123596 12.3239242 9.2626956 12.5991424 9.20435168 12.8688603 9.20278013 13.0798413 9.22733565 13.2908223 9.25208761 13.443263 9.3031631 13.5788095 9.34480926 13.7145524 9.38625897 13.8335975 9.41847582 13.9257298 9.38449098 14.0180586 9.35050614 14.0832781 9.25031962 14.0787598 9.12322025 14.0742416 8.99592443 13.9997893 8.84171577 13.7982376 8.66138003 13.5964894 8.48084785 13.2678384 8.2741886 12.8674852 8.15435767 12.467132 8.03433029 11.9952731 8.00113122 11.5872586 8.06124314 11.1792441 8.12135505 10.8350739 8.27477793 10.5810716 8.459239 10.3272658 8.64370006 10.1638242 8.85900286 10.0538155 9.05132169 9.94400322 9.24383696 9.88762375 9.41356471 9.87033667 9.56561249 9.85285314 9.71785671 9.87426555 9.8526174 9.91512593 9.96557279 9.95578987 10.0787246 10.0160982 10.1698747 10.1082305 10.2207538zM5.36233615 11.0638921C5.27629361 11.0686067 5.18671508 11.0073162 5.13131782 10.9324709 5.07513479 10.8568399 5.05372238 10.7672614 5.04881128 10.6767006 5.04390017 10.5861399 5.05568682 10.4947934 5.10322631 10.4134655 5.15056935 10.3331198 5.23287945 10.2625964 5.31892199 10.2580781 5.40496453 10.2533635 5.49454307 10.3146541 5.55013677 10.3894993 5.60612335 10.4651303 5.62753576 10.5547088 5.63244687 10.6452696 5.63735797 10.7358303 5.62576777 10.8271769 5.57803184 10.9085047 5.53088524 10.9888504 5.44837869 11.0593739 5.36233615 11.0638921zM3.00088094 9.81627523C2.92269617 9.820597 2.84117184 9.76480686 2.79068569 9.69683719 2.73961021 9.62788529 2.72016224 9.54636096 2.71564403 9.46405086 2.71132225 9.38154431 2.72193024 9.29844844 2.76514795 9.22458543 2.80816922 9.15131176 2.88321089 9.08727097 2.96139567 9.0829492 3.03977688 9.07882387 3.12130121 9.13441756 3.17178736 9.20258369 3.22286284 9.27153559 3.24231081 9.35305991 3.24682903 9.43537001 3.2511508 9.51768011 3.24054281 9.60097244 3.19712865 9.67483544 3.15430383 9.74810911 3.07926216 9.81214991 3.00088094 9.81627523zM3.90177385 10.2728115C3.93163336 10.2325404 3.97288663 10.2166284 4.0141399 10.223504 4.05558962 10.2303795 4.09684289 10.2600426 4.12316641 10.299135 4.14968637 10.3382274 4.16108013 10.3863562 4.15990147 10.4517721 4.1587228 10.5169915 4.14497171 10.5996945 4.13004196 10.6776829 4.1151122 10.7556712 4.09920022 10.8291413 4.09114601 10.8876817 4.0830918 10.9460256 4.0830918 10.9896362 4.10253977 11.035997 4.1217913 11.0823578 4.16068724 11.1314689 4.20154763 11.1634893 4.24221157 11.1955097 4.2850364 11.2104394 4.32648611 11.206707 4.36773939 11.2027781 4.40781399 11.1799906 4.45201393 11.1534706 4.49601742 11.1271471 4.54414624 11.0970911 4.59011417 11.0892334 4.63588566 11.0811792 4.67949626 11.0951267 4.71740998 11.1330404 4.75532371 11.1709541 4.7873441 11.232834 4.80011297 11.2949104 4.8126854 11.3567903 4.80580986 11.4186702 4.78400455 11.473871 4.76219925 11.5288754 4.7254642 11.5770042 4.66928117 11.6194361 4.61309814 11.6618681 4.53727069 11.6986031 4.45476415 11.7204084 4.37206116 11.7422137 4.28267907 11.7490893 4.20704806 11.7239444 4.13122062 11.6986031 4.06934071 11.6412415 4.0141399 11.5781829 3.95913554 11.5151243 3.91100672 11.4463688 3.87878988 11.4004009 3.84676948 11.354433 3.83066106 11.3316455 3.81357042 11.3224126 3.79628333 11.3131797 3.77801403 11.3176979 3.74697585 11.3281095 3.71593767 11.338521 3.67232707 11.354433 3.6310738 11.3567903 3.58982052 11.3591476 3.55072814 11.3475574 3.49218778 11.315537 3.43384386 11.2833202 3.35585553 11.2306732 3.29260051 11.1640786 3.22954194 11.097484 3.18141312 11.0173348 3.14585673 10.9358105 3.11030034 10.8542862 3.08731637 10.7717796 3.07710127 10.705185 3.06668973 10.6385905 3.06904706 10.5883008 3.0780835 10.5354573 3.08731637 10.4826138 3.10342479 10.4276094 3.13780252 10.3920531 3.17218025 10.3564967 3.22502372 10.3403882 3.26745566 10.3460851 3.3098876 10.3519784 3.341908 10.3794806 3.3637133 10.4162157 3.3855186 10.4527543 3.39710881 10.4987222 3.40850257 10.5411542 3.42009277 10.5835861 3.43148653 10.6226785 3.44877362 10.6603958 3.46586426 10.6983095 3.48884823 10.7350446 3.51458241 10.761761 3.54012015 10.7884774 3.56840811 10.8051751 3.59748185 10.8136222 3.62655558 10.8218729 3.65641509 10.8220693 3.68568527 10.8148009 3.7151519 10.8075324 3.74422563 10.793192 3.76681671 10.7698152 3.78940779 10.7464383 3.80551621 10.7144179 3.8157313 10.6582349 3.82614284 10.6020519 3.83066106 10.5217062 3.84225127 10.4494148 3.85364503 10.3771233 3.87191433 10.3128861 3.90177385 10.2728115zM6.41889724 11.6048618C6.49540347 11.5846267 6.57575525 11.5628045 6.66116697 11.5616142 6.74678109 11.5604239 6.83745514 11.5798654 6.95727442 11.6352144 7.0772961 11.6907618 7.22646301 11.7822166 7.34223435 11.8720844 7.45800568 11.9621505 7.54017904 12.0506295 7.60373183 12.1190718 7.66728463 12.1875142 7.71221686 12.2361181 7.7563395 12.271232 7.80046214 12.3065443 7.84397759 12.3283664 7.88425468 12.3353099 7.92453177 12.3422533 7.9615705 12.3341196 7.99132292 12.3126942 8.02107535 12.2914671 8.04333907 12.2569484 8.04617263 12.206559 8.04920859 12.1559712 8.032612 12.0893143 8.00771712 12.0248397 7.98282223 11.9601666 7.94942666 11.8974775 7.87534919 11.8044356 7.80106933 11.7115921 7.68630999 11.5883959 7.57155064 11.48603 7.45699369 11.3838625 7.34263914 11.3025253 7.20541368 11.2301153 7.06818822 11.1577053 6.90809184 11.0942226 6.7532578 11.0652586 6.59842377 11.0362946 6.44905446 11.0418494 6.32923517 11.0700198 6.20941589 11.0979919 6.11914663 11.1487781 6.06207056 11.2084915 6.00519688 11.2682049 5.98151638 11.3372424 5.98191608 11.4005268 5.98232597 11.4638111 6.00681606 11.5213423 6.04668835 11.5639948 6.08635825 11.6066472 6.14181515 11.6342225 6.20577274 11.6387854 6.26973033 11.6433482 6.34239101 11.6248985 6.41889724 11.6048618zM11.128365 11.057213C11.0878975 11.0389437 11.0435012 11.0145846 10.9951759 10.9843322 10.899704 10.9240238 10.8965609 10.8601795 10.985943 10.7927991 11.030143 10.7594036 11.0710034 10.7315086 11.1081313 10.7093104 11.1550815 10.6812189 11.2030138 10.6495913 11.2531071 10.6138385 11.3517221 10.5433151 11.4536766 10.4617907 11.5623102 10.3792842 11.6711403 10.2967776 11.7854708 10.2136818 11.8986226 10.144337 12.1247298 10.0056474 12.3718566 9.90546088 12.6038571 9.8561534 12.8356612 9.80704236 13.0725729 9.8054708 13.2479975 9.82609744 13.4234221 9.84652763 13.543646 9.88699513 13.6858715 9.93060573 13.7410723 9.94749993 13.7996127 9.96557279 13.8658144 9.97932388 13.8962632 9.9856101 13.9286765 9.99425364 13.9636436 10.0050581 14.0339706 10.0268634 14.0597048 10.0734206 14.0404532 10.1451228 14.0308275 10.181072 14.0202195 10.2138782 14.0088257 10.2433448 13.9102108 10.4949898 13.7098377 10.7045957 13.4833376 10.8607688 13.1821887 11.0686067 12.8344825 11.181955 12.4708644 11.2287087 12.016882 11.2868562 11.5377547 11.2412811 11.128365 11.057213z"/>
      <path d="M10.1919158,0.0113544723 C10.2359192,0.00860425407 10.2742259,0.0141046905 10.370287,0.036106436 C10.4663482,0.0581081816 10.6199676,0.0964147922 10.9407609,0.219781723 C11.2617506,0.343345097 11.7501108,0.551772348 12.3343357,0.834259046 C12.9185606,1.11674574 13.5988468,1.47348833 14.0542043,1.75872525 C14.5095619,2.04396216 14.7399909,2.25788985 14.8798591,2.42526027 C15.0197274,2.59263069 15.0690348,2.71324741 15.0554802,2.83406056 C14.9142368,4.4063996 14.8906635,4.73426489 14.8690547,4.8802229 C15.0126554,5.06939863 15.0454615,5.18176468 15.0660882,5.30434584 C15.0943761,5.47210915 15.0998766,5.6587311 15.080625,5.94121779 C15.0613735,6.22370449 15.0175665,6.60225238 14.9407568,7.03835841 C14.9199337,7.15661779 14.8967533,7.27919895 14.8721978,7.40060144 C14.8723942,7.40079788 14.8725907,7.40099432 14.8729836,7.40119077 L15.0409754,7.53395437 C15.3673694,7.80797851 15.6348782,8.13148595 15.8192551,8.4775083 C16.034165,8.88120105 16.1341551,9.31278886 16.1341551,9.71333849 L16.1341551,9.71333849 L16.1341551,12.5761192 C16.1341551,13.2457973 15.5964874,13.9830522 14.8417489,14.5057901 C14.0870105,15.028528 13.1152012,15.3369454 12.0600997,15.3369454 C11.0048017,15.3369454 10.0331889,15.028528 9.27845042,14.5057901 C8.52371197,13.9830522 7.98584787,13.2457973 7.98584787,12.5761192 L7.98584787,12.5761192 L7.98584787,9.71333849 L7.98584787,9.71333849 L7.99426404,9.51075 C8.02243014,9.16970112 8.12185271,8.81391892 8.3009443,8.4775083 C8.5158542,8.07381556 8.84411239,7.70076811 9.2472158,7.40119077 C9.65012277,7.10141698 10.1255176,6.8755062 10.613092,6.73190553 C11.1006664,6.58850129 11.5984559,6.52642494 12.0600997,6.52642494 C12.521547,6.52642494 13.0193365,6.58850129 13.5069109,6.73190553 C13.8127745,6.82207339 14.1139233,6.9444581 14.3952314,7.09729166 C14.4156616,6.98826515 14.4345202,6.8808102 14.451218,6.77865923 C14.4848099,6.57003554 14.5103477,6.37830604 14.528617,6.20956051 C14.5468863,6.04081498 14.5578871,5.89524986 14.5627982,5.77993714 C14.5677093,5.66462442 14.5663342,5.57759966 14.5610302,5.50648687 C14.5557263,5.43537409 14.544136,5.36838663 14.5374569,5.34500978 C14.533921,5.33322313 14.5311707,5.32477603 14.5199734,5.30336362 C14.5189912,5.30179206 14.5182054,5.30022051 14.5172232,5.29845251 C14.4474855,5.33361602 14.3577105,5.37820884 14.2384689,5.44067808 C14.0414354,5.54420415 13.763467,5.69625193 13.3450409,5.92118049 C13.3165565,5.93630669 13.2876792,5.95123645 13.2580162,5.96596976 C13.19869,5.99504349 13.1362208,6.00565148 13.0708049,5.99759727 C13.0379987,5.99347194 13.0055854,5.98895372 12.9739579,5.98404262 C12.7700489,5.95162933 12.5645683,5.93041336 12.3588912,5.91980538 C12.1938782,5.91135828 12.0282757,5.90998317 11.8630662,5.91548361 C11.6988389,5.92118049 11.5346116,5.93355647 11.3713665,5.952808 C11.126597,5.98188173 10.8832027,6.02647456 10.6443266,6.08678291 C10.4040754,6.1476806 10.1675567,6.22468671 9.93791346,6.31799769 C9.7076809,6.41170155 9.48353812,6.52210317 9.27000332,6.64920254 C9.0554863,6.77689124 8.85020216,6.92206347 8.66004421,7.08373701 C8.46949338,7.24619633 8.2924972,7.42613918 8.13534187,7.62120822 C7.97818655,7.81627727 7.83930053,8.02824052 7.72614869,8.25179397 C7.61221108,8.47711542 7.52302543,8.71677729 7.46310997,8.96193959 C7.44464422,9.03737415 7.42892868,9.11339804 7.41596337,9.19001126 C7.40928427,9.22969298 7.40181939,9.27016048 7.39317585,9.31121731 C7.3760852,9.39313452 7.33384971,9.45913976 7.26627292,9.50864368 C7.23248453,9.53359209 7.19889258,9.55716539 7.16549707,9.57975647 C6.76141144,9.85359962 6.57105705,9.97441278 6.44160035,10.042186 C6.29073124,10.1209601 6.22217223,10.1278357 6.14673767,10.1140846 C6.07130311,10.1005299 5.98899301,10.0661522 5.67684325,9.8913169 C5.36488993,9.7164816 4.82309694,9.40099229 4.14418593,8.95860004 C3.46527493,8.51640425 2.6492459,7.94710908 2.17620837,7.61452912 C2.14536664,7.59292027 2.11609646,7.57229363 2.08820139,7.55264921 C1.97603177,7.91646379 1.93890383,8.31269166 1.93320695,8.70754441 C1.9298674,8.93090142 1.93399273,9.1532762 1.94420782,9.35659591 C1.95442292,9.55991561 1.97210289,9.74869844 2.00039085,9.92706974 C2.05696677,10.2838123 2.15459951,10.5985159 2.32570237,10.9218629 C2.49680523,11.2454065 2.73666355,11.5667891 3.02995468,11.855562 C3.17669846,11.9999485 3.33640756,12.1354949 3.50868909,12.2627908 C3.68097061,12.3900866 3.86425301,12.508346 4.04871407,12.6142294 C4.4176362,12.8261926 4.78832633,12.9870804 5.09065388,13.0854989 C5.392785,13.1839174 5.63853664,13.227528 5.81513993,13.2446187 C5.90334336,13.2530658 5.97622414,13.2550302 6.02278141,13.254048 C6.06914223,13.2528693 6.0885902,13.2495298 6.10469862,13.2459938 C6.1237537,13.241672 6.14614834,13.2344036 6.20252781,13.2102409 C6.23081577,13.1982578 6.26696149,13.181953 6.30900054,13.1634872 C6.35123604,13.144825 6.3946502,13.1259664 6.4449399,13.1029824 C6.53353622,13.0627114 6.64590227,13.0092786 6.88497481,12.8806076 C6.84313221,12.8421046 6.80148605,12.8069411 6.76278655,12.7774745 C6.66043914,12.6994861 6.57832548,12.6623582 6.49680116,12.6462498 C6.41547328,12.6301413 6.33473473,12.6350524 6.25792506,12.6391778 C6.1811154,12.6433031 6.10843106,12.6462498 6.04851559,12.6289627 C5.98879657,12.6116756 5.94204286,12.5737619 5.91296912,12.5244544 C5.88389539,12.4751469 5.87269807,12.4142492 5.8852705,12.3529586 C5.89784292,12.2916681 5.93457798,12.2295917 6.00097611,12.1832309 C6.06717779,12.1368701 6.16343542,12.1060283 6.28306992,12.1028852 C6.40250796,12.0999386 6.54551931,12.124887 6.68636977,12.1842131 C6.82741667,12.2435392 6.96649914,12.3372431 7.08181186,12.4350723 C7.16313974,12.5040242 7.23268097,12.5749405 7.29750754,12.6535182 C7.32265239,12.6841635 7.34720791,12.7161839 7.37137054,12.7495794 C7.37313854,12.7519367 7.37490654,12.7544905 7.37667454,12.7568478 C7.46448508,12.8790361 7.54817029,13.0216545 7.59944221,13.1265557 C7.65071414,13.2316533 7.66937633,13.2990337 7.67978787,13.3666105 C7.69000297,13.4343837 7.69196741,13.5021569 7.67900209,13.5504822 C7.66584034,13.5988075 7.63755238,13.6276848 7.60494265,13.6424181 C7.57233292,13.6569549 7.53540142,13.6573478 7.49846991,13.6426145 C7.46173486,13.6276848 7.4249998,13.5978253 7.39022918,13.5546075 C7.35565501,13.5115863 7.32304528,13.4555997 7.27668446,13.3764327 C7.26195115,13.3510914 7.24584273,13.3233928 7.22776987,13.2939261 C6.80993314,13.5192476 6.6398125,13.5925213 6.51369536,13.6483114 C6.39425731,13.7011549 6.31410809,13.7380864 6.22060067,13.7591059 C6.14870211,13.7754108 6.06874934,13.7822863 5.95697261,13.779929 C5.69904144,13.7744286 5.27118606,13.7196206 4.71839221,13.5125685 C4.16579479,13.3053199 3.48825889,12.9460235 2.93684015,12.481826 C2.3854214,12.0176285 1.96031624,11.4483333 1.71770771,10.865287 C1.62537895,10.6433051 1.55937372,10.4189659 1.51281645,10.1875547 C1.50810179,10.1647672 1.50220847,10.1423725 1.49494003,10.1199779 C1.48020672,10.0755815 1.46056231,10.033346 1.43600679,9.99366431 C1.42363081,9.973627 1.41007616,9.95476836 1.39573573,9.93649906 C1.36292956,9.89544223 1.32756961,9.85458184 1.28454834,9.82177567 C1.22974042,9.77993306 1.16216363,9.75125222 1.05942334,9.73592957 C0.956879488,9.72041048 0.81897569,9.7182496 0.70366297,9.73101847 C0.588153806,9.74378734 0.49523572,9.77128952 0.423337158,9.79270193 C0.351242153,9.81411435 0.300363116,9.82943699 0.255966736,9.83493743 C0.211570357,9.84043786 0.173460191,9.83631254 0.144386455,9.82216856 C0.115116276,9.80822102 0.0946860836,9.78425484 0.0848638758,9.75380599 C0.0752381121,9.72355359 0.0762203329,9.68681853 0.0970434135,9.64713681 C0.11767005,9.60745509 0.15833399,9.56502316 0.203516147,9.52809165 C0.248698303,9.49096371 0.298398674,9.45953264 0.388173654,9.42476203 C0.477948634,9.38979497 0.607798222,9.35148836 0.728022046,9.32909372 C0.84824587,9.30650265 0.95884393,9.2996271 1.08024642,9.31043153 C1.1918267,9.32045018 1.31224697,9.34539859 1.41911259,9.38979497 C1.41223704,9.25699872 1.40850461,9.12066647 1.40693305,8.97981601 C1.40634372,8.94013429 1.40614728,8.90025613 1.40595083,8.85978863 C1.38277042,8.81853536 1.35664335,8.77747853 1.32344429,8.74054703 C1.27256525,8.68416756 1.20498846,8.6372174 1.09576551,8.59341036 C0.986739,8.54960331 0.836066332,8.50893937 0.706609632,8.48909851 C0.577152933,8.46925765 0.468912203,8.47043631 0.385030548,8.47122209 C0.301345337,8.47200787 0.242215645,8.47279364 0.192122385,8.46572165 C0.14222557,8.45884611 0.101365185,8.4441128 0.0724878939,8.42211105 C0.0436106028,8.40010931 0.0265199612,8.37103557 0.0227875222,8.33862228 C0.0190550832,8.306209 0.0282879586,8.27045616 0.060111912,8.23745354 C0.0919358654,8.20445093 0.145958009,8.17419853 0.203909035,8.15062523 C0.261860061,8.12705193 0.323543526,8.11015773 0.429819815,8.1011213 C0.536096104,8.09208487 0.687161661,8.0909062 0.824083238,8.10249641 C0.961004816,8.11389017 1.08397886,8.1380528 1.21481067,8.18284207 C1.28474479,8.20661181 1.35703624,8.23627488 1.42618458,8.27143838 C1.45388321,7.92491089 1.51517378,7.5699363 1.64325537,7.2269448 C1.56782082,7.16545778 1.52342444,7.11988274 1.48688582,7.07116458 C1.40123617,6.95624475 1.36017934,6.82246628 1.33601671,4.94229926 C1.32560517,4.87040069 1.34387448,4.78809059 1.41714815,4.6937974 C1.50220847,4.58398511 1.66132824,4.45786796 1.83950309,4.30699885 C2.01787438,4.15612974 2.21530076,3.98050866 2.62410105,3.66776957 C3.03270489,3.35522691 3.65268265,2.90536979 4.51134006,2.38950744 C5.36980103,1.87384152 6.46694165,1.29236682 7.42971446,0.88926341 C8.39268372,0.485963555 9.22089228,0.261034996 9.65994497,0.143168502 C10.0988012,0.0251055633 10.1481087,0.0141046905 10.1919158,0.0113544723 Z M12.0600997,7.14188448 C11.3967078,7.14188448 10.7333158,7.28135983 10.1396616,7.57563318 C9.66485608,7.81097328 9.23483982,8.14532123 8.94901357,8.58948147 C8.73449655,8.92284721 8.60130741,9.31809285 8.60130741,9.71333849 C8.60130741,10.1085841 8.73449655,10.5038298 8.94901357,10.8371955 C9.23483982,11.2815522 9.66485608,11.6157037 10.1396616,11.8512403 C10.7333158,12.1453172 11.3967078,12.284989 12.0600997,12.284989 C12.7234916,12.284989 13.3868835,12.1453172 13.9803413,11.8512403 C14.4551468,11.6157037 14.8851631,11.2815522 15.1709894,10.8371955 C15.3855064,10.5038298 15.518892,10.1085841 15.518892,9.71333849 C15.518892,9.31809285 15.3855064,8.92284721 15.1709894,8.58948147 C14.8851631,8.14532123 14.4551468,7.81097328 13.9803413,7.57563318 C13.3868835,7.28135983 12.7234916,7.14188448 12.0600997,7.14188448 Z M4.46768313,3.27811868 C4.38097857,3.26601575 4.27760769,3.27474573 4.19030791,3.31264178 C4.10280972,3.35053782 4.03158103,3.41759992 3.99308976,3.49815381 C3.95440008,3.57870771 3.94864624,3.67275338 3.96531256,3.76957678 C3.98197888,3.86640017 4.02126378,3.96600129 4.0793975,4.17472714 C4.13733281,4.38325457 4.21431535,4.70110515 4.29228993,5.10724755 C4.37046292,5.51338995 4.44962795,6.00782418 4.49764283,6.29829437 C4.5454593,6.58876455 4.56212562,6.67507229 4.59982326,6.74868188 C4.6377193,6.82229147 4.69684506,6.88300451 4.77362919,6.9197101 C4.85041332,6.95641569 4.94505422,6.96911384 5.03711581,6.95998704 C5.1291774,6.95105865 5.21885808,6.92030532 5.28909473,6.86792545 C5.35952978,6.81554558 5.41052079,6.74134077 5.43194892,6.64213647 C5.45357545,6.54293217 5.44563911,6.41833157 5.38750539,6.07468787 C5.32957008,5.73104418 5.22143739,5.16815899 5.12044742,4.72293009 C5.01965585,4.2777012 4.92580858,3.94993019 4.85596876,3.74179957 C4.78612893,3.53366895 4.74029654,3.44498031 4.68236123,3.38406887 C4.62442592,3.32315743 4.55438769,3.2902216 4.46768313,3.27811868 Z M6.86624468,1.92695612 C6.76247698,1.90969458 6.65732042,1.92794817 6.57775857,1.97001079 C6.49839513,2.01207341 6.4446264,2.07774666 6.41466671,2.14738808 C6.3845086,2.21683109 6.37815952,2.29004386 6.39700834,2.39777973 C6.41585716,2.50531719 6.45990387,2.64757615 6.51625191,2.82039004 C6.57259995,2.99340234 6.64144773,3.19696956 6.71525573,3.49180474 C6.78926214,3.78644151 6.86822876,4.17234623 6.93767177,4.58325044 C7.00711478,4.99415465 7.06683577,5.43025675 7.10552545,5.77171794 C7.14401671,6.11317914 7.16107985,6.36019785 7.20810269,6.5137661 C7.25492712,6.66753277 7.33151284,6.72765057 7.41861421,6.76772911 C7.50551718,6.80780765 7.6029358,6.82764851 7.6973783,6.80701401 C7.79182079,6.78618111 7.88328715,6.72487285 7.94241291,6.66654072 C8.00134027,6.6082086 8.02772861,6.55305101 8.0344745,6.42904563 C8.0412204,6.30523867 8.02852225,6.11258392 8.00550685,5.89115992 C7.98249145,5.66973593 7.94915881,5.41934427 7.87673967,5.01260665 C7.80451894,4.60586902 7.69321171,4.04258701 7.59301537,3.58049338 C7.49281903,3.11859817 7.40353516,2.75789133 7.33548101,2.51960261 C7.26762527,2.28151229 7.22080084,2.16603848 7.14639762,2.08171483 C7.07199439,1.99739118 6.97001237,1.94421767 6.86624468,1.92695612 Z M9.21937065,0.934714722 C9.11560296,0.916857948 9.0104464,0.935508356 8.93108296,0.978364614 C8.85171952,1.02122087 8.7981492,1.08828298 8.7681895,1.15931326 C8.7382298,1.23034353 8.73188073,1.30514358 8.75092795,1.41526035 C8.76977677,1.52537712 8.81402189,1.67081062 8.85568769,1.80433961 C8.89755191,1.93767019 8.93723363,2.05949307 8.9919944,2.31524175 C9.04675517,2.57118884 9.11699182,2.96126015 9.18445074,3.37930706 C9.25190966,3.79715557 9.31659087,4.24278128 9.35845508,4.55051302 C9.4003193,4.85804635 9.4189697,5.0276857 9.46678618,5.1431595 C9.51460265,5.25883172 9.59118837,5.32053679 9.67828974,5.36160737 C9.76519271,5.40267795 9.86241292,5.42311404 9.95685542,5.40208273 C10.0512979,5.38105141 10.1427643,5.31855271 10.2014932,5.25903013 C10.2604206,5.19950755 10.2866105,5.1429611 10.2933564,5.01637641 C10.3001023,4.88959332 10.2870073,4.69277199 10.2637935,4.46638778 C10.2405797,4.24000356 10.2068502,3.98405647 10.1425659,3.62493691 C10.0780831,3.26581735 9.98284694,2.80372372 9.8987217,2.41841422 C9.81439804,2.03290631 9.74098686,1.72438094 9.68086905,1.5110917 C9.62075125,1.29780246 9.57392682,1.17955093 9.4995236,1.09324319 C9.42512037,1.00713386 9.32293994,0.952571496 9.21937065,0.934714722 Z M11.8010633,1.23669261 C11.713962,1.21843902 11.609599,1.22121674 11.5211088,1.25613665 C11.4324202,1.29105656 11.3596042,1.35792026 11.3193273,1.44145028 C11.2792487,1.52478189 11.2717092,1.62458142 11.2869867,1.72854752 C11.3020657,1.83251363 11.3399618,1.94104313 11.3794451,2.09838115 C11.4189284,2.25571917 11.4601974,2.46206411 11.5002759,2.70035284 L11.5002759,2.70035284 L11.5582608,3.06666472 C11.5764152,3.18670192 11.5929327,3.29964601 11.6064245,3.39041795 C11.6336065,3.57196181 11.6488839,3.66481704 11.6857879,3.74556934 C11.7226919,3.82612323 11.7810241,3.89457419 11.8578082,3.93842249 C11.9345923,3.9822708 12.02963,4.00151643 12.1224853,3.99754826 C12.2155389,3.99377849 12.3062116,3.96659652 12.3780355,3.91520869 C12.449661,3.86362245 12.5022393,3.78802878 12.5256515,3.68366585 C12.5488653,3.57950134 12.5429131,3.44656758 12.50839,3.21700883 C12.4740653,2.98764849 12.4109714,2.66166316 12.3484727,2.38031977 C12.285974,2.09897638 12.2240705,1.86227492 12.1706986,1.69521488 C12.1175251,1.52835325 12.0726847,1.43113304 12.0153446,1.36268207 C11.9580045,1.29442951 11.8881647,1.2549462 11.8010633,1.23669261 Z"/>
    </g>
  </g>
</svg>
